<svg id="Layer_1" data-name="Layer 1" xmlns="http://www.w3.org/2000/svg" xmlns:xlink="http://www.w3.org/1999/xlink" viewBox="0 0 512 512"><defs><style>.cls-1{fill:url(#linear-gradient);}.cls-2{fill:url(#linear-gradient-2);}.cls-3{fill:url(#linear-gradient-3);}.cls-4{fill:url(#linear-gradient-4);}</style><linearGradient id="linear-gradient" x1="256.32" y1="8.49" x2="256.32" y2="529.36" gradientUnits="userSpaceOnUse"><stop offset="0" stop-color="#67d230"/><stop offset="1" stop-color="#67c630"/></linearGradient><linearGradient id="linear-gradient-2" x1="256.32" y1="8.49" x2="256.32" y2="529.36" xlink:href="#linear-gradient"/><linearGradient id="linear-gradient-3" x1="165.56" y1="8.49" x2="165.56" y2="529.36" xlink:href="#linear-gradient"/><linearGradient id="linear-gradient-4" x1="347.08" y1="8.49" x2="347.08" y2="529.36" xlink:href="#linear-gradient"/></defs><title>Travel &amp;amp; Tourism  ICONS</title><path class="cls-1" d="M495.84,226.32,445.4,180.76V50.41a7.56,7.56,0,0,0-7.57-7.56H362.2a7.55,7.55,0,0,0-7.56,7.56V98.77L261.39,14.55a7.57,7.57,0,0,0-10.14,0L16.8,226.32a7.55,7.55,0,0,0,5.06,13.17H67.24V489.07a7.56,7.56,0,0,0,7.56,7.57h363a7.56,7.56,0,0,0,7.57-7.57V239.49h45.38a7.55,7.55,0,0,0,5.06-13.17Zm-58-2a7.56,7.56,0,0,0-7.56,7.57V481.51H82.37V231.93a7.56,7.56,0,0,0-7.57-7.57H41.52l214.8-194,100.82,91.06a7.56,7.56,0,0,0,12.63-5.62V58h60.5V184.11a7.57,7.57,0,0,0,2.5,5.62l38.34,34.63Z"/><path class="cls-2" d="M256.32,110.92a7.55,7.55,0,0,0-7.56,7.56V451.26a7.56,7.56,0,0,0,15.12,0V118.48A7.56,7.56,0,0,0,256.32,110.92Z"/><path class="cls-3" d="M195.81,277.31h-4.2a30,30,0,0,0,4.2-15.13,30.25,30.25,0,0,0-60.5,0,30,30,0,0,0,4.2,15.13h-4.2A22.72,22.72,0,0,0,112.62,300v60.5a7.55,7.55,0,0,0,7.56,7.56h8.17l7,83.83a7.55,7.55,0,0,0,7.53,6.93h45.38a7.55,7.55,0,0,0,7.53-6.93l7-83.83h8.17a7.55,7.55,0,0,0,7.56-7.56V300A22.71,22.71,0,0,0,195.81,277.31Zm-45.37-15.13a15.13,15.13,0,1,1,15.12,15.13A15.14,15.14,0,0,1,150.44,262.18Zm52.94,90.76h-7.57a7.55,7.55,0,0,0-7.53,6.93l-7,83.82H149.83l-7-83.82a7.55,7.55,0,0,0-7.53-6.93h-7.56V300a7.56,7.56,0,0,1,7.56-7.57h60.5a7.57,7.57,0,0,1,7.57,7.57Z"/><path class="cls-4" d="M377.33,277.31h-4.21a29.87,29.87,0,0,0,4.21-15.13,30.26,30.26,0,0,0-60.51,0A30,30,0,0,0,321,277.31h-4.21A22.72,22.72,0,0,0,294.13,300v60.5a7.56,7.56,0,0,0,7.57,7.56h8.17l7,83.83a7.56,7.56,0,0,0,7.54,6.93h45.38a7.56,7.56,0,0,0,7.53-6.93l7-83.83h8.17A7.55,7.55,0,0,0,400,360.5V300A22.71,22.71,0,0,0,377.33,277.31ZM332,262.18a15.13,15.13,0,1,1,15.13,15.13A15.14,15.14,0,0,1,332,262.18Zm52.94,90.76h-7.56a7.54,7.54,0,0,0-7.53,6.93l-7,83.82H331.35l-7-83.82a7.57,7.57,0,0,0-7.54-6.93h-7.56V300a7.57,7.57,0,0,1,7.56-7.57h60.51a7.57,7.57,0,0,1,7.56,7.57Z"/></svg>