<svg id="Layer_1" data-name="Layer 1" xmlns="http://www.w3.org/2000/svg" xmlns:xlink="http://www.w3.org/1999/xlink" viewBox="0 0 512 512"><defs><style>.cls-1{fill:url(#linear-gradient);}.cls-2{fill:url(#linear-gradient-2);}.cls-3{fill:url(#linear-gradient-3);}</style><linearGradient id="linear-gradient" x1="135.41" y1="53.43" x2="135.41" y2="444.2" gradientUnits="userSpaceOnUse"><stop offset="0" stop-color="#67d230"/><stop offset="1" stop-color="#67c630"/></linearGradient><linearGradient id="linear-gradient-2" x1="102.08" y1="53.43" x2="102.08" y2="444.2" xlink:href="#linear-gradient"/><linearGradient id="linear-gradient-3" x1="406.15" y1="53.43" x2="406.15" y2="444.2" xlink:href="#linear-gradient"/></defs><title>Travel &amp;amp; Tourism  ICONS</title><path class="cls-1" d="M257.32,67.84H245a3.41,3.41,0,0,0-3.41,3.41v66.4h-78c-31.29,0-60,29.89-66.82,69.48l-4,23.25H73.11a63,63,0,0,0-62.92,62.84v42.17a63,63,0,0,0,62.92,62.92H74v29.47A13.28,13.28,0,0,0,87,441.39h30a13.28,13.28,0,0,0,13.2-13.2V398.31H241.46v39.26a3.41,3.41,0,0,0,3.4,3.41h12.37a3.41,3.41,0,0,0,3.41-3.41V71.25A3.42,3.42,0,0,0,257.32,67.84ZM121.18,211.29c4.65-26.9,23.66-48.82,42.33-48.82h78v67.74H118.11ZM73.11,373.41a38.11,38.11,0,0,1-38-38V293.22a38.11,38.11,0,0,1,38-38H241.46V373.41Z"/><circle class="cls-2" cx="102.08" cy="312.48" r="25.73"/><path class="cls-3" d="M406,222.16a72.22,72.22,0,1,1-72.06,72.39v-.09a72.32,72.32,0,0,1,72.22-72.22m0-24.07a96.3,96.3,0,1,0,96.3,96.29A96.29,96.29,0,0,0,406.15,198.17ZM430.23,331a12,12,0,0,0,8.3-20.51l-20.51-21V246.32a12,12,0,1,0-24.07,0v48.14h0a11.85,11.85,0,0,0,3.57,8.3l24.07,24.08a11.93,11.93,0,0,0,8.31,3.57Z"/></svg>