<svg id="Layer_1" data-name="Layer 1" xmlns="http://www.w3.org/2000/svg" xmlns:xlink="http://www.w3.org/1999/xlink" viewBox="0 0 512 512"><defs><style>.cls-1{fill:url(#linear-gradient);}.cls-2{fill:url(#linear-gradient-2);}.cls-3{fill:url(#linear-gradient-3);}.cls-4{fill:url(#linear-gradient-4);}.cls-5{fill:url(#linear-gradient-5);}.cls-6{fill:url(#linear-gradient-6);}.cls-7{fill:url(#linear-gradient-7);}</style><linearGradient id="linear-gradient" x1="246.58" y1="75.89" x2="246.58" y2="368.16" gradientUnits="userSpaceOnUse"><stop offset="0" stop-color="#67d230"/><stop offset="1" stop-color="#67c630"/></linearGradient><linearGradient id="linear-gradient-2" x1="482.46" y1="75.89" x2="482.46" y2="368.16" xlink:href="#linear-gradient"/><linearGradient id="linear-gradient-3" x1="476.84" y1="75.89" x2="476.84" y2="368.16" xlink:href="#linear-gradient"/><linearGradient id="linear-gradient-4" x1="253.62" y1="75.89" x2="253.62" y2="368.16" xlink:href="#linear-gradient"/><linearGradient id="linear-gradient-5" x1="365.24" y1="75.89" x2="365.24" y2="368.16" xlink:href="#linear-gradient"/><linearGradient id="linear-gradient-6" x1="152.93" y1="75.89" x2="152.93" y2="368.16" xlink:href="#linear-gradient"/><linearGradient id="linear-gradient-7" x1="44.95" y1="75.89" x2="44.95" y2="368.16" xlink:href="#linear-gradient"/></defs><title>Travel &amp;amp; Tourism  ICONS</title><path class="cls-1" d="M248.11,208.67c1-3.07,5.11-12.26,8.17-16.34-2-1-3.06,0-14.3,0a4.82,4.82,0,0,0-5.1,5.1v6.13C237.9,210.71,247.09,208.67,248.11,208.67Z"/><path class="cls-2" d="M480.93,208.67c2,0,11.23,2,11.23-5.11v-6.13a4.82,4.82,0,0,0-5.11-5.1H472.76C484,211.73,478.88,206.62,480.93,208.67Z"/><path class="cls-3" d="M494.2,339.37c-30.63,6.13-35.74,3.06-38.8,3.06v7.15c0,4.09,4.08,7.15,8.17,7.15h24.5a8.88,8.88,0,0,0,8.17-6.13c1-4.08,1-8.17,2-12.25C496.24,338.35,493.18,340.39,494.2,339.37Z"/><path class="cls-4" d="M235.86,339.37c-1,0-4.09-2-3.07-1l1,11.23c0,4.09,4.08,7.15,8.16,7.15h23.49a8.89,8.89,0,0,0,8.17-6.13,22.49,22.49,0,0,0,1-8.17C265.47,342.43,266.49,345.5,235.86,339.37Z"/><path class="cls-5" d="M500.33,254.62h0a135.36,135.36,0,0,1-44.93,8.17c-17.36,0-19.4-12.26-10.21-17.36v1a12.41,12.41,0,0,0,12.25,12.25c8.17,0,13.27-7.15,11.23-15.32,7.15-1,15.32-2,26.55-7.14C492.16,229.09,489.09,224,485,223c-11.23-2-13.27-13.27-13.27-13.27-8.17-16.34-24.51-36.76-31.66-47a16.37,16.37,0,0,0-11.23-5.11H402.3c0-1-5.11-15.32-5.11-14.29a6.88,6.88,0,0,0-6.12-4.09H341a6.88,6.88,0,0,0-6.12,4.09c0,1-5.11,15.31-5.11,14.29H302.23A16.37,16.37,0,0,0,291,162.72c-38.8,47-28.59,57.18-44.93,61.26-4.09,1-8.17,6.13-10.21,13.28,11.23,5.1,20.42,6.12,26.55,7.15-2.05,8.16,3.06,15.31,11.23,15.31,7.15,0,12.25-6.12,12.25-13.27,8.17,5.1,8.17,17.36-10.21,17.36-19.4,0-36.76-5.11-44.93-9.19a73.34,73.34,0,0,0-1,25.52c2,19.41,0,40.85,10.21,49H493.18C502.37,321,502.37,269.93,500.33,254.62Zm-231.8,52.07-6.12,10.22c-4.09,6.12-23.49,6.12-23.49-6.13v-6.13a2.19,2.19,0,0,1,2-2l26.55,2C268.53,303.63,269.55,304.65,268.53,306.69ZM349.2,149.44h6.13v-7.15h6.12v6.13h7.15v-6.13h6.13v6.13h6.13v6.13h-6.13v-6.13H368.6v6.13h-6.12v-6.13h-6.13v6.13h-6.13v-5.11Zm-74.54,53.1h0c8.17-22.46,22.46-37.78,23.49-37.78H430.89c1,0,14.3,14.29,23.49,37.78h0C395.15,200.5,334.91,200.5,274.66,202.54ZM431.91,258.7c-13.27,5.11-60.24,8.17-60.24,8.17l7.14-12.25c8.17,0,44.93-4.09,55.14-6.13C430.89,251.55,429.87,255.64,431.91,258.7ZM296.1,248.49c12.26,1,44.93,5.11,53.1,5.11l7.15,13.27s-42.89-3.06-58.2-7.15A14.15,14.15,0,0,0,296.1,248.49Zm149.09,75.56c-141.94-3.06-171.55,6.13-165.42-6.12l8.16-14.3c1-1,2.05-2,3.07-2H436c1,0,3.06,1,3.06,2l8.17,14.3C450.29,320,448.25,324.05,445.19,324.05Zm41.86-14.29c0,12.25-15.31,9.19-16.34,10.21-7.14,0-9.19-7.15-13.27-14.3-1-1,0-3.06,2-3.06l26.55-2a2.19,2.19,0,0,1,2,2v7.15Z"/><path class="cls-6" d="M208.29,290.36c14.29-3.07,12.25-30.64-27.57-36.76-6.13-1-22.47-4.09-23.49-9.19s14.3-23.49,20.42-37.79c7.15-18.38-2-36.76-13.27-33.69,5.11,24.5-63.31,85.77-76.58,92.92,2,4.08,6.12,82.71,6.12,83.73,1,0,56.16,14.3,82.71,9.19,16.34-3.06,12.26-17.36,11.24-18.38,0,0,2,4.09,12.25-1,10.21-6.13,4.08-21.44,4.08-21.44C232.79,314.86,208.29,291.38,208.29,290.36Z"/><path class="cls-7" d="M66.35,267.89h-5.1c0-1,1-10.21-8.17-10.21l-41.87,3.06V370l50-3.06c4.08,0,7.15-4.08,7.15-8.17v-1c1,0,11.23,1,10.21-7.15C71.46,282.19,78.61,266.87,66.35,267.89Z"/></svg>