<svg id="Layer_1" data-name="Layer 1" xmlns="http://www.w3.org/2000/svg" xmlns:xlink="http://www.w3.org/1999/xlink" viewBox="0 0 512 512"><defs><style>.cls-1{fill:url(#linear-gradient);}.cls-2{fill:url(#linear-gradient-2);}</style><linearGradient id="linear-gradient" x1="223.96" y1="22.79" x2="223.96" y2="445.62" gradientUnits="userSpaceOnUse"><stop offset="0" stop-color="#67d230"/><stop offset="1" stop-color="#67c630"/></linearGradient><linearGradient id="linear-gradient-2" x1="344.43" y1="22.79" x2="344.43" y2="445.62" xlink:href="#linear-gradient"/></defs><title>Travel &amp;amp; Tourism  ICONS</title><path class="cls-1" d="M424.51,183.25a10.44,10.44,0,0,0-11.15-8.62,10.13,10.13,0,0,0-8.62,11.15c.5,6.09,1,12.17,1,18.25A142.29,142.29,0,0,1,360.12,309a144.73,144.73,0,0,1-99.36,39.55c-52.21,0-99.87-28.39-125.72-73,23.32-8.11,46.64-17.74,62.35-26.36l-3,25.86A10,10,0,0,0,203,285.65h1a9.43,9.43,0,0,0,9.63-8.61l5.07-44.11a10.17,10.17,0,0,0-6.59-12.17l-46.64-13.68a9.78,9.78,0,1,0-5.57,18.75l26.36,7.61c-15.21,8.11-37.52,17.23-60.33,24.84-7.1-17.24-10.14-35-10.14-53.74a143.6,143.6,0,0,1,80.1-129.27l3-1.52c19.27-8.62,40.05-13.69,61.34-13.69a140.78,140.78,0,0,1,21.3,1.52c5.57,1,10.14-3,11.15-8.11,1-5.58-3-10.14-8.11-11.15a181.19,181.19,0,0,0-23.83-1.53,170.28,170.28,0,0,0-63.37,12.68L173.06,18c-3-4.05-8.11-5.57-12.68-3A214.24,214.24,0,0,0,46.32,204.54c0,4.56.51,8.62.51,13.18h0l-8.11,6.09C27.56,231.92,21,245.1,22,257.77c1,17.74,13.18,29.91,33.46,32.45a41.46,41.46,0,0,0,8.11.5h1.52A214.65,214.65,0,0,0,251.64,419v25.35c-47.15,5.58-51.71,39-51.71,40.56,0,3,.5,5.57,2.53,7.6,1.52,2,4.56,3,7.1,3H316c2.53,0,5.58-1,6.59-3a8.8,8.8,0,0,0,2.53-7.6c-4.05-31.43-32.95-40.56-54.24-41.57V419.49c48.67-2,95.31-21.29,132.32-53.74a9.4,9.4,0,0,0,1.52-12.67L380.4,317.59a161.62,161.62,0,0,0,45.63-113A140.74,140.74,0,0,0,424.51,183.25ZM66.09,203A195.3,195.3,0,0,1,162.41,36.23l17.75,25.35h0C136.05,86.42,107.15,129,99,178.18c-.5.51-1,.51-1.52,1L66.09,203ZM41.25,256.76A22.11,22.11,0,0,1,50.38,239L61,230.9c1-.5,2-1.52,3-2h0l33-24.33a166.43,166.43,0,0,0,11.15,59.31c-20.28,5.58-39,9.13-50.19,7.61C43.79,268.92,41.76,262.84,41.25,256.76Zm261.08,219H225.27c5.07-6.08,17.24-12.67,38.53-13.18h2.54C268.87,462.58,287.12,462.58,302.33,475.76Zm-40.55-76.55c-76,0-144-43.09-175.92-110.51a269.92,269.92,0,0,0,30.93-7.1,164.74,164.74,0,0,0,145,87.19c38.52,0,75-13.68,104.43-37.51L384,357.13C349,384,306.39,399.21,261.78,399.21Z"/><path class="cls-2" d="M488.38,81.35c-5.07-10.14-17.74-17.24-37.51-20.28-23.83-4-48.67,1.52-70,15.21L352,95c-13.18-4.56-48.66-15.72-78.07-5.07a9.52,9.52,0,0,0-6.08,7.6,9.34,9.34,0,0,0,4.05,9.13c12.17,8.62,25.86,19.26,33.46,25.35a354.08,354.08,0,0,1-32.44,19.77l-64.38,3A10.8,10.8,0,0,0,198.41,163,10.58,10.58,0,0,0,203,174.63l69.45,46.13a11.5,11.5,0,0,0,5.58,1.52c2,0,3.55,0,5.07-1L484.84,106.19a13.54,13.54,0,0,0,3.54-4C488.89,101.12,493.45,91.49,488.38,81.35ZM278.51,201.5l-42.08-27.88L277,171.08a11.82,11.82,0,0,0,4.06-1c45.63-24.84,47.15-31.94,48.16-35.49a12.63,12.63,0,0,0-1.52-8.62c-2-3-10.14-10.14-24.84-21.29,23.83,0,47.15,10.14,47.65,10.14,3,1.52,6.59,1.52,9.13-.51L392.57,93a80,80,0,0,1,56.27-12.17c17.75,3,21.8,8.12,22.81,9.64.51,0,.51.5.51,1Z"/></svg>