<svg id="Layer_1" data-name="Layer 1" xmlns="http://www.w3.org/2000/svg" xmlns:xlink="http://www.w3.org/1999/xlink" viewBox="0 0 512 512"><defs><style>.cls-1{fill:url(#linear-gradient);}.cls-2{fill:url(#linear-gradient-2);}.cls-3{fill:url(#linear-gradient-3);}.cls-4{fill:url(#linear-gradient-4);}.cls-5{fill:url(#linear-gradient-5);}.cls-6{fill:url(#linear-gradient-6);}.cls-7{fill:url(#linear-gradient-7);}.cls-8{fill:url(#linear-gradient-8);}</style><linearGradient id="linear-gradient" x1="331.24" y1="10.53" x2="331.24" y2="508.93" gradientUnits="userSpaceOnUse"><stop offset="0" stop-color="#67d230"/><stop offset="1" stop-color="#67c630"/></linearGradient><linearGradient id="linear-gradient-2" x1="331.11" y1="10.53" x2="331.11" y2="508.93" xlink:href="#linear-gradient"/><linearGradient id="linear-gradient-3" x1="330.9" y1="10.53" x2="330.9" y2="508.93" xlink:href="#linear-gradient"/><linearGradient id="linear-gradient-4" x1="331.05" y1="10.53" x2="331.05" y2="508.93" xlink:href="#linear-gradient"/><linearGradient id="linear-gradient-5" x1="331.08" y1="10.53" x2="331.08" y2="508.93" xlink:href="#linear-gradient"/><linearGradient id="linear-gradient-6" x1="331.2" y1="10.53" x2="331.2" y2="508.93" xlink:href="#linear-gradient"/><linearGradient id="linear-gradient-7" x1="63.1" y1="10.53" x2="63.1" y2="508.93" xlink:href="#linear-gradient"/><linearGradient id="linear-gradient-8" x1="134.33" y1="10.53" x2="134.33" y2="508.93" xlink:href="#linear-gradient"/></defs><title>Travel &amp;amp; Tourism  ICONS</title><path class="cls-1" d="M331.08,175.51a481.46,481.46,0,0,1-84.75-7l-9.75-2a97.65,97.65,0,0,0,189.31,0l-9.75,2A479.19,479.19,0,0,1,331.08,175.51Z"/><path class="cls-2" d="M247.66,159.52a466.34,466.34,0,0,0,83.24,6.91,468.12,468.12,0,0,0,83.24-6.91C454.77,152,473,140.39,473,132.28c0-6-10.59-15.38-40-23.07v11c0,15.08-55.51,18.17-102.07,18.17a562.65,562.65,0,0,1-67.56-3.33c-23.43-3-33.48-7.21-34.27-14.23a1.69,1.69,0,0,1,0-.55V120h0V109c-29.3,7.69-39.89,17.07-39.89,23.07C189,140.39,207.16,152,247.66,159.52Z"/><path class="cls-3" d="M238.4,103.83a96.71,96.71,0,0,0-.55,10.35v5.15c4,4.23,35.66,10.23,93,10.23S420,123.5,424,119.33v-5.15a97.82,97.82,0,0,0-.54-10.41,93.24,93.24,0,0,0-185.32,0Z"/><path class="cls-4" d="M495.87,470.46s0-147.3-95.71-196.21h0l-30.81,52.61h7.26a4.6,4.6,0,0,1,4.54,4.54V465.25a4.54,4.54,0,0,1-4.54,4.54H285.8a4.47,4.47,0,0,1-4.54-4.42V331.64a4.54,4.54,0,0,1,4.54-4.54H293l-30.81-52.61h0c-95.84,48.61-96,196-96,196A463.64,463.64,0,0,0,495.87,470.46Z"/><rect class="cls-5" x="290.22" y="336.18" width="81.73" height="124.53"/><path class="cls-6" d="M303.42,327.1h55.33l33.18-56.42a158.3,158.3,0,0,0-121.45,0Z"/><polygon class="cls-7" points="11.55 137.49 114.65 195.49 114.65 79.49 11.55 137.49"/><rect class="cls-8" x="123.73" y="81.49" width="21.19" height="323.89"/></svg>