<svg id="Layer_1" data-name="Layer 1" xmlns="http://www.w3.org/2000/svg" xmlns:xlink="http://www.w3.org/1999/xlink" viewBox="0 0 512 512"><defs><style>.cls-1{fill-rule:evenodd;fill:url(#linear-gradient);}</style><linearGradient id="linear-gradient" x1="254.62" y1="24.83" x2="254.62" y2="411.22" gradientUnits="userSpaceOnUse"><stop offset="0" stop-color="#ffd066"/><stop offset="1" stop-color="#f7c133"/></linearGradient></defs><title>Relocation Services ICONS</title><path class="cls-1" d="M401.07,339.62a40.2,40.2,0,1,1-40.2,40.2A40.2,40.2,0,0,1,401.07,339.62Zm-281.42,0a40.2,40.2,0,1,1-40.2,40.2A40.2,40.2,0,0,1,119.65,339.62Zm166.55-247a23,23,0,0,1,23,23V374.08H171a51.7,51.7,0,0,0-102.75,0H33.5a23,23,0,0,1-23-23V115.63a23,23,0,0,1,23-23Zm100.1,74.66a23,23,0,0,1,16.28,6.77L492,264a22.94,22.94,0,0,1,6.69,16.2V351.1a23,23,0,0,1-23,23H452.44a51.7,51.7,0,0,0-102.75,0h-29V167.32Zm.9,17.23H372.35v91.89h95.26a5.74,5.74,0,0,0,4.54-9.26l-.48-.54-80.41-80.41A5.74,5.74,0,0,0,387.2,184.55Z"/></svg>