<svg id="Layer_1" data-name="Layer 1" xmlns="http://www.w3.org/2000/svg" xmlns:xlink="http://www.w3.org/1999/xlink" viewBox="0 0 512 512"><defs><style>.cls-1{fill:url(#linear-gradient);}.cls-2{fill:url(#linear-gradient-2);}.cls-3{fill:url(#linear-gradient-3);}.cls-4{fill:url(#linear-gradient-4);}.cls-5{fill:url(#linear-gradient-5);}.cls-6{fill:url(#linear-gradient-6);}</style><linearGradient id="linear-gradient" x1="174.19" y1="16.66" x2="174.19" y2="472.33" gradientUnits="userSpaceOnUse"><stop offset="0" stop-color="#666"/><stop offset="1" stop-color="#474f54"/></linearGradient><linearGradient id="linear-gradient-2" x1="431.3" y1="16.66" x2="431.3" y2="472.33" xlink:href="#linear-gradient"/><linearGradient id="linear-gradient-3" x1="254.62" y1="16.66" x2="254.62" y2="472.33" xlink:href="#linear-gradient"/><linearGradient id="linear-gradient-4" x1="219.18" y1="16.66" x2="219.18" y2="472.33" xlink:href="#linear-gradient"/><linearGradient id="linear-gradient-5" x1="383.25" y1="16.66" x2="383.25" y2="472.33" xlink:href="#linear-gradient"/><linearGradient id="linear-gradient-6" x1="302.74" y1="16.66" x2="302.74" y2="472.33" xlink:href="#linear-gradient"/></defs><title>Q-Deliveries  ICONS</title><circle class="cls-1" cx="174.19" cy="425.07" r="38.24"/><circle class="cls-2" cx="431.3" cy="425.07" r="38.24"/><path class="cls-3" d="M13.5,61.58H104V377a6.1,6.1,0,0,0,6.11,6.11H495.73a6.1,6.1,0,0,0,6.11-6.11V321.74a6.11,6.11,0,0,0-12.21,0v49.17H116V55.48a6.1,6.1,0,0,0-6.11-6.11H13.5a6.11,6.11,0,1,0,0,12.21Z"/><path class="cls-4" d="M148.48,250.08a3.91,3.91,0,0,0-3.86,3.85V355a3.91,3.91,0,0,0,3.86,3.85H289.89a3.91,3.91,0,0,0,3.86-3.85V253.93a3.91,3.91,0,0,0-3.86-3.85Zm94.65,58.65a3.86,3.86,0,0,1-7.72,0V297.64l-33.9,33.91a3.81,3.81,0,0,1-5.46-5.31l33.9-33.9H219.18a3.86,3.86,0,0,1,0-7.72h20.25a3.05,3.05,0,0,1,1.93.65c.16.16.32.16.32.32A3.8,3.8,0,0,1,243,287h0a4.8,4.8,0,0,1,.32,1.45v20.25Z"/><path class="cls-5" d="M312.55,358.7H454a3.91,3.91,0,0,0,3.86-3.85V253.77a3.91,3.91,0,0,0-3.86-3.86H312.55a3.91,3.91,0,0,0-3.86,3.86V354.85A3.9,3.9,0,0,0,312.55,358.7Zm47.88-32.46,33.91-33.9H383.25a3.86,3.86,0,0,1,0-7.72H403.5a3.07,3.07,0,0,1,1.93.65c.16.16.32.16.32.32A3.78,3.78,0,0,1,407,287h0a4.8,4.8,0,0,1,.32,1.45v20.25a3.86,3.86,0,0,1-7.71,0V297.64l-33.91,33.91a3.89,3.89,0,0,1-5.46,0A4,4,0,0,1,360.43,326.24Z"/><path class="cls-6" d="M377.3,234.65V133.57a3.9,3.9,0,0,0-3.85-3.85H232a3.91,3.91,0,0,0-3.86,3.85V234.65a3.91,3.91,0,0,0,3.86,3.86H373.45A4,4,0,0,0,377.3,234.65Zm-50.61-46.28a3.86,3.86,0,0,1-7.72,0V177.28l-33.9,33.91a3.81,3.81,0,0,1-5.47-5.3L313.51,172H302.74a3.86,3.86,0,0,1,0-7.71H323a3.1,3.1,0,0,1,1.93.64c.16.16.32.16.32.32a3.84,3.84,0,0,1,1.29,1.45h0a4.67,4.67,0,0,1,.32,1.44v20.25Z"/></svg>