<svg id="Layer_1" data-name="Layer 1" xmlns="http://www.w3.org/2000/svg" xmlns:xlink="http://www.w3.org/1999/xlink" viewBox="0 0 512 512"><defs><style>.cls-1{fill:url(#linear-gradient);}.cls-2{fill:url(#linear-gradient-2);}.cls-3{fill:url(#linear-gradient-3);}.cls-4{fill:url(#linear-gradient-4);}.cls-5{fill:url(#linear-gradient-5);}.cls-6{fill:url(#linear-gradient-6);}.cls-7{fill:url(#linear-gradient-7);}.cls-8{fill:url(#linear-gradient-8);}</style><linearGradient id="linear-gradient" x1="390.6" y1="-2.8" x2="390.6" y2="474.63" gradientUnits="userSpaceOnUse"><stop offset="0" stop-color="#666"/><stop offset="1" stop-color="#474f54"/></linearGradient><linearGradient id="linear-gradient-2" x1="114.11" y1="-2.8" x2="114.11" y2="474.63" xlink:href="#linear-gradient"/><linearGradient id="linear-gradient-3" x1="347.93" y1="-2.8" x2="347.93" y2="474.63" xlink:href="#linear-gradient"/><linearGradient id="linear-gradient-4" x1="258.37" y1="-2.8" x2="258.37" y2="474.63" xlink:href="#linear-gradient"/><linearGradient id="linear-gradient-5" x1="258.34" y1="-2.8" x2="258.34" y2="474.63" xlink:href="#linear-gradient"/><linearGradient id="linear-gradient-6" x1="167.13" y1="-2.8" x2="167.13" y2="474.63" xlink:href="#linear-gradient"/><linearGradient id="linear-gradient-7" x1="59.3" y1="-2.8" x2="59.3" y2="474.63" xlink:href="#linear-gradient"/><linearGradient id="linear-gradient-8" x1="405.89" y1="-2.8" x2="405.89" y2="474.63" xlink:href="#linear-gradient"/></defs><title>Q-Deliveries  ICONS</title><path class="cls-1" d="M452.81,56.47V449.53a8.23,8.23,0,0,1-6,8L281.47,504.73H499.72V8H285.33L446.57,48.41A8.35,8.35,0,0,1,452.81,56.47Z"/><circle class="cls-2" cx="114.11" cy="74.52" r="34.83"/><path class="cls-3" d="M325.24,128.78a4.14,4.14,0,0,1,4.14,4.14h0v119a4.14,4.14,0,0,1-4.14,4.14H251.33V504.73l193.2-55.2V56.47L251.33,8V128.78Zm80.65,88.92c11.59,0,20.7,14,20.7,31.74S417.48,281,405.89,281s-20.7-13.91-20.7-31.74S394.3,217.7,405.89,217.7Z"/><path class="cls-4" d="M259.56,190.1,267,216.71a4.19,4.19,0,0,1-2.48,5l-65.63,26H321.1V137.34H281.91v34.71a4.08,4.08,0,0,1-4,4.14H239.13a4.14,4.14,0,0,1-4.14-4.14v-35H195.64v61.6l59.12-11.37A4.2,4.2,0,0,1,259.56,190.1Z"/><rect class="cls-5" x="243.05" y="137.06" width="30.58" height="30.58"/><path class="cls-6" d="M132.66,389.37l17,109.46h28l-5.52-117.3-28.31-90.47a2.69,2.69,0,0,1,0-1.38L146,226.76l-15.4-18.55a4.14,4.14,0,0,1,.53-5.83l0,0a4.08,4.08,0,0,1,5.52.55l16.56,19.71h0l21.31,25.66L258,215.16l-5.52-19.37-69.5,13.74a4.08,4.08,0,0,1-4.36-2l-33.12-56.8a23.23,23.23,0,0,0-21.08-13.69h-19.1a22.9,22.9,0,0,0-23,22.08l-6,137,55.81,91.68A5.41,5.41,0,0,1,132.66,389.37Z"/><path class="cls-7" d="M96.39,407.42,109.09,366,74.7,309.22l-11,77.28a2.85,2.85,0,0,1-.39,1.16L9.51,498.83H35.29Z"/><ellipse class="cls-8" cx="405.89" cy="249.22" rx="12.42" ry="23.46"/></svg>