<svg id="Layer_1" data-name="Layer 1" xmlns="http://www.w3.org/2000/svg" xmlns:xlink="http://www.w3.org/1999/xlink" viewBox="0 0 512 512"><defs><style>.cls-1{fill:url(#linear-gradient);}.cls-2{fill:url(#linear-gradient-2);}.cls-3{fill:url(#linear-gradient-3);}.cls-4{fill:url(#linear-gradient-4);}.cls-5{fill:url(#linear-gradient-5);}.cls-6{fill:url(#linear-gradient-6);}.cls-7{fill:url(#linear-gradient-7);}.cls-8{fill:url(#linear-gradient-8);}.cls-9{fill:url(#linear-gradient-9);}.cls-10{fill:url(#linear-gradient-10);}.cls-11{fill:url(#linear-gradient-11);}.cls-12{fill:url(#linear-gradient-12);}</style><linearGradient id="linear-gradient" x1="151.46" y1="18.7" x2="151.46" y2="502.8" gradientUnits="userSpaceOnUse"><stop offset="0" stop-color="#8c8923"/><stop offset="1" stop-color="#808013"/></linearGradient><linearGradient id="linear-gradient-2" x1="232.24" y1="18.7" x2="232.24" y2="502.8" xlink:href="#linear-gradient"/><linearGradient id="linear-gradient-3" x1="231.98" y1="18.7" x2="231.98" y2="502.8" xlink:href="#linear-gradient"/><linearGradient id="linear-gradient-4" x1="256.82" y1="18.7" x2="256.82" y2="502.8" xlink:href="#linear-gradient"/><linearGradient id="linear-gradient-5" x1="428.49" y1="18.7" x2="428.49" y2="502.8" xlink:href="#linear-gradient"/><linearGradient id="linear-gradient-6" x1="359.18" y1="18.7" x2="359.18" y2="502.8" xlink:href="#linear-gradient"/><linearGradient id="linear-gradient-7" x1="93.52" y1="18.7" x2="93.52" y2="502.8" xlink:href="#linear-gradient"/><linearGradient id="linear-gradient-8" x1="264.48" y1="18.7" x2="264.48" y2="502.8" xlink:href="#linear-gradient"/><linearGradient id="linear-gradient-9" x1="126.72" y1="18.7" x2="126.72" y2="502.8" xlink:href="#linear-gradient"/><linearGradient id="linear-gradient-10" x1="201.63" y1="18.7" x2="201.63" y2="502.8" xlink:href="#linear-gradient"/><linearGradient id="linear-gradient-11" x1="401.86" y1="18.7" x2="401.86" y2="502.8" xlink:href="#linear-gradient"/><linearGradient id="linear-gradient-12" x1="254.62" y1="18.7" x2="254.62" y2="502.8" xlink:href="#linear-gradient"/></defs><title>Wellness  ICONS</title><path class="cls-1" d="M127.66,419.94q0,8.82.14,18.1a23.67,23.67,0,0,0,23.66,23.27h.41a23.67,23.67,0,0,0,23.27-24.06c-.1-5.9-.15-11.66-.14-17.31,0-8.24.1-16.16.27-23.82H127.92C127.76,403.8,127.66,411.72,127.66,419.94Z"/><path class="cls-2" d="M211.26,438.33a23.66,23.66,0,0,0,23.5,21.09,22.77,22.77,0,0,0,2.6-.14,23.67,23.67,0,0,0,20.95-26.1q-2.16-19.69-4.51-37.06H206C207.83,409.11,209.59,423.15,211.26,438.33Z"/><path class="cls-3" d="M178.74,280.93l-.49-9.76-1.89.1-1.43-28.36,5.67-.29L182,271l-1.89.1.5,9.85h18.94c4.63-11.45,14.38-19.26,29-23.27l-4.68-10.34-1.73.79-11.73-25.87,5.18-2.35,11.73,25.87-1.73.78,4.82,10.63.3-.08.14,0,.14,0c3-.48,5.85-.91,8.65-1.3A287.21,287.21,0,0,1,256,185.17a99.36,99.36,0,0,0,13.86,23.18h.29l0,.42a87.73,87.73,0,0,0,7.23,7.84,86,86,0,0,0,38.36,21.07l-2.07,9.67,1.85.39-2,9.3,1.85.39,2-9.29,1.85.4,2.09-9.75c.26,0,.53,0,.79,0a15.15,15.15,0,0,0,3.33-29.92c-12-2.75-20.45-7.86-27.1-14.18-9.9-9.42-15.59-22.24-18.55-32.95a97.54,97.54,0,0,1-2.7-13.34c-.2-1.64-.32-2.92-.38-3.74,0-.41-.05-.71-.06-.87v-.15h0a15.12,15.12,0,0,0-2-7,45.59,45.59,0,0,1-17.86,3.66c-1.34,0-2.7,0-4-.17a46.48,46.48,0,0,1-40.05-31.59L205,105.2a11.15,11.15,0,0,0-6.35-.72c-.23,0-.46-.06-.69-.07s-1.49-.07-3.53-.07c-6.6.06-21.14.45-36.13,6.34-7.46,3-15.26,7.55-21.5,15a44.51,44.51,0,0,0-10.1,27.06c0,.73-.08,1.45-.08,2.19a62.12,62.12,0,0,0,1,10.77v0c3.25,17.81,13.4,37.9,32.89,63.39a15.15,15.15,0,0,0,24-18.45c-17.89-23.2-25.36-40-27.09-50.19a.13.13,0,0,0,0-.06,32,32,0,0,1-.53-5.49,22.79,22.79,0,0,1,.35-3.74,12.92,12.92,0,0,1,2.8-6.12c2.37-3,7.46-5.86,13.5-7.65q-6.1,13.62-11.15,27.51c2.5,8.31,8.9,22.39,25.13,43.42a18.94,18.94,0,0,1-30,23.08q-5.49-7.2-10.07-13.89a369.11,369.11,0,0,0-6.37,42.74c-1.08,5.47-2.33,12.36-3.62,20.65Z"/><circle class="cls-4" cx="256.82" cy="93.97" r="42.59"/><path class="cls-5" d="M453,289.43a18.79,18.79,0,0,1,18,2.5,42.59,42.59,0,1,0-84.1,6.34,141.88,141.88,0,0,0,14.66.77A143.87,143.87,0,0,0,453,289.43Z"/><path class="cls-6" d="M357.52,254.85l1.83.47,7.14-27.49L361,226.4l-7.14,27.49,1.83.48-3.81,14.69c.57.33,1.14.67,1.69,1Z"/><polygon class="cls-7" points="98.2 270.05 99.97 269.39 90.16 242.74 84.83 244.7 94.64 271.36 96.42 270.71 100.18 280.93 102.2 280.93 98.2 270.05"/><path class="cls-8" d="M266.14,240.78l1.89-.09-1.43-28.37-5.67.29L262.36,241l1.89-.09.63,12.34,1.89-.07Z"/><polygon class="cls-9" points="125.37 266.21 127.22 266.61 133.16 238.83 127.61 237.65 121.67 265.42 123.52 265.81 120.28 280.93 122.22 280.93 125.37 266.21"/><path class="cls-10" d="M198.13,332.05H328.46c9.78,0,18.36-.24,25.3-1.7a123,123,0,0,1-17.92-6.45,18.94,18.94,0,0,1,8.14-36,18.79,18.79,0,0,1,8.25,1.91l.43.19c.42.18,1.21.52,2.29.92a104.08,104.08,0,0,0,9.91,3.26c1.55.43,3.28.88,5.17,1.31-4.3-11.83-14.79-23.29-32.91-28.63-38.73-11.16-63.69-12.82-105.5-6.05-18,4.33-26,13.54-29.39,23.94H56.89a23.67,23.67,0,0,0,0,47.34Z"/><path class="cls-11" d="M363.85,297.79c-4.5-1.25-8-2.48-10.27-3.36-1.13-.44-2-.8-2.48-1l-.51-.23h0a15.15,15.15,0,1,0-13.22,27.26h0c1.32.61,26.35,12.66,64.18,12.7h0a177.6,177.6,0,0,0,63.57-11.86A15.15,15.15,0,0,0,454.34,293a147.08,147.08,0,0,1-52.8,9.86A142.12,142.12,0,0,1,363.85,297.79Z"/><path class="cls-12" d="M491.93,339.31H17.3A11.36,11.36,0,0,0,5.94,350.67V381A11.36,11.36,0,0,0,17.3,392.33H33.58v66.14H54.35V392.33H454.88v66.14h20.77V392.33h16.29A11.37,11.37,0,0,0,503.3,381v-30.3A11.37,11.37,0,0,0,491.93,339.31Z"/></svg>