<svg id="Layer_1" data-name="Layer 1" xmlns="http://www.w3.org/2000/svg" xmlns:xlink="http://www.w3.org/1999/xlink" viewBox="0 0 512 512"><defs><style>.cls-1{fill:url(#linear-gradient);}.cls-2{fill:url(#linear-gradient-2);}.cls-3{fill:url(#linear-gradient-3);}.cls-4{fill:url(#linear-gradient-4);}</style><linearGradient id="linear-gradient" x1="324.79" y1="-15" x2="324.79" y2="512.38" gradientUnits="userSpaceOnUse"><stop offset="0" stop-color="#8c8923"/><stop offset="1" stop-color="#808013"/></linearGradient><linearGradient id="linear-gradient-2" x1="124.38" y1="-15" x2="124.38" y2="512.38" xlink:href="#linear-gradient"/><linearGradient id="linear-gradient-3" x1="84.5" y1="-15" x2="84.5" y2="512.38" xlink:href="#linear-gradient"/><linearGradient id="linear-gradient-4" x1="335.65" y1="-15" x2="335.65" y2="512.38" xlink:href="#linear-gradient"/></defs><title>Wellness  ICONS</title><path class="cls-1" d="M193.54,221.46A467.92,467.92,0,0,0,272.79,227c15.65,15.15,34.84,24.23,52,24.23s36.35-9.08,52-24.23c28.77,1,57-2,79.25-5.55,8.08-1.51,9.59-12.12,2.53-16.15-17.17-8.59-32.82-27.26-32.82-65.63,0-118.13-71.18-133.27-100.46-119.14C295,6.91,223.83,21.55,223.83,139.68c0,38.37-16.16,56.54-32.82,65.63C184,209.34,185.46,220,193.54,221.46Zm66.63-89.86c28.78-1.51,69.16-16.66,92.38-43.92A66.44,66.44,0,0,0,388.4,123c.5,7.07,1,14.14,1,21.71,0,45.43-38.87,82.79-64.62,82.79s-64.62-36.85-64.62-82.79Z"/><path class="cls-2" d="M130.44,320.91c4.54-25.24,18.67-42.91,26.75-51,4-4,1.52-10.6-4-11.61h-.5a22.64,22.64,0,0,0-22.72,9.59c-10.6,15.65-12.62,38.37-12.62,53.51-14.64-7.57-50.48-20.19-77.24,10.61C5.75,371.9,31.49,456.2,54.21,483c17.67,20.69,53,12.62,65.62,8.58a14,14,0,0,1,9.09,0c12.62,4,47.45,12.11,65.63-8.58C217.26,456.2,243,371.9,208.68,332,180.92,299.71,145.07,313.34,130.44,320.91ZM95.6,456.2a10.17,10.17,0,0,1-6.56,2,9.83,9.83,0,0,1-8.08-4C66.32,435,52.19,378,69.86,356.75c2-2,4.54-3.53,7.06-3.53s5.56.5,7.58,2.52c4,4,4.54,10.6,1,14.64-9.09,10.6,0,55.53,11.61,71.18a10.27,10.27,0,0,1,2,7.57A8.83,8.83,0,0,1,95.6,456.2Z"/><path class="cls-3" d="M98.13,302.74a7.5,7.5,0,0,0,9.08-7.07c-.5-8.08-2-20.19-9.59-29.79-7.57-9.08-19.18-13.63-26.75-15.65a7.51,7.51,0,0,0-9.09,7.07c.51,8.08,2,20.19,9.59,29.79C78.94,296.17,90.55,300.72,98.13,302.74Z"/><path class="cls-4" d="M423.73,251.24c-12.11,1-24.23,1.52-35.33,1.52h-2c-19.19,15.14-40.89,23.73-61.59,23.73s-42.41-8.59-61.59-23.73h-2c-11.1,0-23.22-.51-35.33-1.52a122.73,122.73,0,0,0-40.39,36.86c16.15,3.53,30.79,12.62,42.4,26.25,23.23,26.75,26.76,65.62,20.7,101.46H472.7c7.57,0,13.13-6.05,13.13-13.63V358.77A122.27,122.27,0,0,0,423.73,251.24Zm5,96.42a2.39,2.39,0,0,1-2.52,2.53h-20.2v20.19a2.38,2.38,0,0,1-2.52,2.53H385.37a2.39,2.39,0,0,1-2.53-2.53V350.19H362.65a2.39,2.39,0,0,1-2.52-2.53V329.49a2.38,2.38,0,0,1,2.52-2.52h20.19v-20.2a2.39,2.39,0,0,1,2.53-2.52h18.17a2.38,2.38,0,0,1,2.52,2.52V327h20.2a2.38,2.38,0,0,1,2.52,2.52Z"/></svg>