<svg id="Layer_1" data-name="Layer 1" xmlns="http://www.w3.org/2000/svg" xmlns:xlink="http://www.w3.org/1999/xlink" viewBox="0 0 512 512"><defs><style>.cls-1{fill:url(#linear-gradient);}</style><linearGradient id="linear-gradient" x1="254.62" y1="29.94" x2="254.62" y2="479.81" gradientUnits="userSpaceOnUse"><stop offset="0" stop-color="#8c8923"/><stop offset="1" stop-color="#808013"/></linearGradient></defs><title>Wellness  ICONS</title><path class="cls-1" d="M491.88,325.54H462.22v-9.88a9.88,9.88,0,0,0-9.88-9.89H422.68v-9.88a9.89,9.89,0,0,0-9.89-9.89H396.93a168.5,168.5,0,0,0-96-72.45,89,89,0,1,0-92.59,0,168.53,168.53,0,0,0-96,72.45H96.44a9.88,9.88,0,0,0-9.88,9.89v9.88H56.9A9.89,9.89,0,0,0,47,315.66v9.88H17.35a9.88,9.88,0,0,0-9.88,9.89v79.09a9.88,9.88,0,0,0,9.88,9.88H47v9.89a9.89,9.89,0,0,0,9.89,9.89H86.56v9.88A9.88,9.88,0,0,0,96.44,464H136a9.88,9.88,0,0,0,9.88-9.89v-69.2H363.36v69.2a9.89,9.89,0,0,0,9.89,9.89h39.54a9.89,9.89,0,0,0,9.89-9.89v-9.88h29.66a9.88,9.88,0,0,0,9.88-9.89V424.4h29.66a9.88,9.88,0,0,0,9.89-9.88V335.43A9.89,9.89,0,0,0,491.88,325.54ZM47,404.63H27.24V345.32H47ZM86.56,375V424.4H66.78V325.54H86.56Zm39.54-9.88v79.09H106.33V305.77H126.1Zm59.32-227.38a69.2,69.2,0,1,1,69.2,69.2A69.27,69.27,0,0,1,185.42,137.71Zm59.31,227.38H145.87v-69.2a9.87,9.87,0,0,0-9.74-9.86,149.31,149.31,0,0,1,51.61-43.33,9.85,9.85,0,0,0,.57.86L244.73,300ZM207.3,234.59a145.47,145.47,0,0,1,94.63,0l-47.31,47.32Zm156.06,61.3v69.2H264.5V300l56.42-56.42a8,8,0,0,0,.57-.86A149.34,149.34,0,0,1,373.11,286,9.87,9.87,0,0,0,363.36,295.89Zm39.55,19.77V444.18H383.13V305.77h19.78Zm39.54,19.77v89H422.68V325.54h19.77ZM482,404.63H462.22V345.32H482Z"/></svg>