<svg id="Layer_1" data-name="Layer 1" xmlns="http://www.w3.org/2000/svg" xmlns:xlink="http://www.w3.org/1999/xlink" viewBox="0 0 512 512"><defs><style>.cls-1{fill:url(#linear-gradient);}.cls-2{fill:url(#linear-gradient-2);}.cls-3{fill:url(#linear-gradient-3);}</style><linearGradient id="linear-gradient" x1="283.78" y1="21.77" x2="283.78" y2="551.81" gradientUnits="userSpaceOnUse"><stop offset="0" stop-color="#8c8923"/><stop offset="1" stop-color="#808013"/></linearGradient><linearGradient id="linear-gradient-2" x1="92.61" y1="21.77" x2="92.61" y2="551.81" xlink:href="#linear-gradient"/><linearGradient id="linear-gradient-3" x1="405.05" y1="21.77" x2="405.05" y2="551.81" xlink:href="#linear-gradient"/></defs><title>Wellness  ICONS</title><path class="cls-1" d="M281.39,457.88V365.25H199.63v92.47c5,.32,10.21-.77,13.69,1.23,4.68,2.7,11,7.75,11,11.86.05,3.94-6.89,11.29-10.94,11.42q-46.5,1.45-93.07,0c-4-.13-10.16-7.25-10.77-11.75-.46-3.41,5.67-9,10.06-11.41,3.61-2,9-.83,14.48-1.12V364.21c-17.47,0-35.33.67-53.09-.42-5-.31-12.46-4.77-14-9-3-8.61,2.52-14.48,11.79-14.91,9.93-.46,19.91-.11,30.42-.11.39-4.21,1.29-7.14.81-9.83-3.9-22.15,5.07-37.41,23.81-48.91,10.28-6.31,19.18-14.9,28.63-22.55,13-10.54,25.53-19.15,27.51-39.87,2.44-25.52,29.58-42.32,54.48-39.86,27.11,2.67,47.17,23.55,48.65,50.61C294,244.58,305.84,252.81,320,248c21.79-7.43,43.48-15.22,65.44-22.11,8.35-2.62,13.18-7.33,16.93-15,11.37-23.35,23.06-46.58,35.54-69.35,2.76-5,9.53-11.2,14.1-10.93,4.35.26,10.35,7.59,12,12.94,12.44,40,24.17,80.21,35.6,120.5a43.81,43.81,0,0,1,1,19.64c-11.88,61.28-24.32,122.46-36.42,183.7-1.79,9.06-4.49,17.35-15.72,14.76-10.1-2.33-10-10.24-8.15-19.09q18-88.69,35.2-177.54a47.55,47.55,0,0,0-1.05-20.84c-8.09-29.42-16.95-58.63-26.3-90.54-10.57,20.53-19.28,39-29.57,56.59a36.59,36.59,0,0,1-17,14.67c-22.19,8.64-45,15.72-69.56,24.09,8,6.51,14.14,12.79,21.43,17.16,13.91,8.34,19.23,19.9,17,35.71-.73,5.23-.12,10.66-.12,17.35,9.56,0,17.83.09,26.11,0,9.07-.12,17.65.92,17.46,12.7-.18,11-8.24,12-16.91,11.92-16.69-.15-33.38,0-50.86,0v93.47c4.34.31,8.75.67,13.16.91,8.06.44,13.74,5,12,12.59-1.06,4.55-7.63,11-11.89,11.12q-45.89,1.44-91.82,0c-4.3-.14-10.9-6.51-12-11.07-1.85-7.64,4-12.08,12-12.64C271.75,458.32,275.88,458.16,281.39,457.88Zm3.05-195.25c-12.05,13.65-25.86,22-44,22.18C222,285,208,276,196,262.63l-36.14,29c13.58,2.38,25.83,1.3,37.7,2.94,4.39.61,10.3,7.28,11,11.85.49,3.34-5.78,9.47-10.27,11.26-5.08,2-11.55.66-17.41.67-15.28,0-30.57,0-45.53,0v20.34H345.1V318.33c-18.37,0-35.9,0-53.43,0-9.42,0-20.26.71-20.08-12.61.15-12.38,10.32-12,19.46-11.87,9.46.17,18.92,0,28.38,0l1-2.52Zm-72.79-30.58a28.77,28.77,0,0,0,28.88,28.71c15.58-.18,28.86-13.66,28.71-29.16a29,29,0,0,0-29.17-28.5A28.4,28.4,0,0,0,211.65,232.05ZM173.87,364.18l-13.51.6v92.87h13.51Zm132.66.46V457.5h13.39V364.64Z"/><path class="cls-2" d="M91.48,205.85c-22.23,0-44.46-.26-66.68.1-11.58.18-16.92-4.47-16.86-16.35q.33-68.57,0-137.13c-.08-11.9,5.16-16.62,16.67-16.58,45.29.19,90.58,0,135.87.17,13.73.06,16.78,3.38,16.8,17.42q.12,67.31,0,134.62c0,14.51-3.25,17.66-17.83,17.72C136.77,205.92,114.13,205.85,91.48,205.85Zm-58.91-98.2H79.83V60.88H32.57Zm.34,25.73v47.06H79.79V133.38Zm72.22-25.7h47V61h-47Zm1,25.76v47h46v-47Z"/><path class="cls-3" d="M404.46,135.77a53,53,0,0,1-52.64-52.92c-.13-29.38,24.13-53.4,53.73-53.2,28.79.2,52.69,24.24,52.74,53C458.34,112.09,434.08,136,404.46,135.77Zm29.33-53.24a28.84,28.84,0,0,0-57.68.53,28.84,28.84,0,1,0,57.68-.53Z"/></svg>