<svg id="Layer_1" data-name="Layer 1" xmlns="http://www.w3.org/2000/svg" xmlns:xlink="http://www.w3.org/1999/xlink" viewBox="0 0 512 512"><defs><style>.cls-1{fill:url(#linear-gradient);}</style><linearGradient id="linear-gradient" x1="254.62" y1="26.87" x2="254.62" y2="511.23" gradientUnits="userSpaceOnUse"><stop offset="0" stop-color="#8c8923"/><stop offset="1" stop-color="#808013"/></linearGradient></defs><title>Wellness  ICONS</title><path class="cls-1" d="M185.84,257.07c0-23.58-.11-47.16,0-70.74.2-32.61.57-65.22.92-97.83.47-42.74,15.36-55.4,57-47.74,6.35-16.43,14.28-31.88,35.7-31.4,22.36.5,30,16.37,34.21,34.64,37.32-7.19,46.06-1.61,56.46,35,40.6-3.43,51.87,7,51.87,48.15,0,89.85.53,179.71-.56,269.55-.22,18.1-6.49,36.15-10.25,54.16-1.07,5.18-3.62,10.06-4.61,15.24-7,37-7.44,37.37-44.51,37.28-44.58-.11-89.17,0-133.75-.23-26.32-.11-33-8-35.2-34.58-.76-9.26-6.93-18.47-11.94-26.92-13.68-23.12-31.15-44.53-41.45-69-17.17-40.76-29.91-83.39-44.56-125.22-2-5.64-4.66-11.07-6.2-16.81-5.48-20.43.78-36.38,16.93-44.18,17.13-8.27,34.75-3.1,46.2,15.34,7.67,12.37,13.21,26.06,19.72,39.15,2.81,5.64,5.66,11.28,8.48,16.91Zm66.55-45.26-7.75-.2c-.91-6.67-2.58-13.34-2.59-20,0-34.63.5-69.27.51-103.9,0-7.23.56-15.5-2.63-21.4s-11-13.8-16.44-13.53c-6.79.34-15.36,6.79-19.17,13s-3.26,15.4-3.45,23.31c-.88,38-.86,75.94-2.13,113.87-1.12,33.84-2.67,67.71-5.52,101.43-5.14,60.91,22.24,107.79,73,122.72C319.69,442.86,370,412.93,377.49,361c5.56-38.7-22.06-73.27-59.68-74.69-33.55-1.27-58.43,26.33-52,57.71,5,24.23,33.7,39.08,52,24.69,7.59-6,11.63-19.94,11.81-30.36.08-4.91-12.22-12.17-20-14.14-3.76-1-11.35,7.1-14.41,12.63-1.18,2.14,5.1,8.77,8.46,13,3,3.74,6.64,6.95,10,10.4-5.47.94-11.73,4.07-16.27,2.43-14.66-5.29-20.05-16.74-15.92-31.92,4.43-16.27,20.89-25.08,37.79-20.67s27.53,19.41,26.63,37.5c-1,20-15.77,36.39-35.85,39.76-37.26,6.27-67.43-29.52-57.33-68,7.8-29.7,33.48-47.94,65.94-46.85,34.19,1.15,64.15,26.26,71.1,59.58a93.08,93.08,0,0,1-63.5,108.37C254.44,463,180.16,408.66,180,329.37c-.09-32.31-8.48-59.6-22.77-86.78-3.71-7.06-6.48-14.63-10.31-21.62-7.27-13.28-13.74-30.86-33.59-22-19.46,8.72-12,25.12-6.56,39.68.46,1.25,1.19,2.4,1.63,3.65,14.57,41.88,27.8,84.29,44.23,125.43,8.45,21.15,19.9,42.49,35.06,59.14,12,13.2,21.62,24,19.53,42.58-1.45,12.94,4.51,19.67,18.51,19.59,49.94-.28,99.88.19,149.82-.28,5-.05,13.47-3.71,14.33-7.19,6.82-27.52,16.52-55.3,17.2-83.19,2.19-90.54,1-181.15.88-271.74,0-7.26.47-15.37-2.51-21.53-2.73-5.65-10-12.93-15-12.71-6.29.29-14.23,6.19-17.84,12-3.51,5.59-3.12,14-3.27,21.27-.69,32-.75,63.94-1.54,95.9-.16,6.25-2.54,12.44-3.89,18.65l-6.57-.36c-1-6.58-2.73-13.16-2.74-19.75-.1-42.62.21-85.25.32-127.88,0-6,1.72-13.3-1-17.64-4.78-7.49-12.45-18.14-18.91-18.14-6.75,0-15,10-19.77,17.48-3.16,4.89-1.76,12.93-1.87,19.57-.6,36-.9,71.93-1.67,107.89-.14,6.54-2,13-3.1,19.56l-6.62.19c-1.2-6.18-3.38-12.36-3.44-18.56-.26-27.3.08-54.61.2-81.92.11-24.64,1.68-49.41-.49-73.85-.72-8.11-9.68-19.63-17.28-22.06-13.48-4.31-19.69,7.59-22.23,19.52-1.24,5.78-1,11.92-1.13,17.9-.76,43.29-1.32,86.58-2.26,129.86C255.18,198.63,253.41,205.21,252.39,211.81Z"/></svg>