<svg id="Layer_1" data-name="Layer 1" xmlns="http://www.w3.org/2000/svg" xmlns:xlink="http://www.w3.org/1999/xlink" viewBox="0 0 512 512"><defs><style>.cls-1{fill:url(#linear-gradient);}.cls-2{fill:url(#linear-gradient-2);}.cls-3{fill:url(#linear-gradient-3);}.cls-4{fill:url(#linear-gradient-4);}.cls-5{fill:url(#linear-gradient-5);}.cls-6{fill:url(#linear-gradient-6);}</style><linearGradient id="linear-gradient" x1="254.62" y1="29.94" x2="254.62" y2="487.69" gradientUnits="userSpaceOnUse"><stop offset="0" stop-color="#8c8923"/><stop offset="1" stop-color="#808013"/></linearGradient><linearGradient id="linear-gradient-2" x1="253.31" y1="29.94" x2="253.31" y2="487.69" xlink:href="#linear-gradient"/><linearGradient id="linear-gradient-3" x1="254.62" y1="29.94" x2="254.62" y2="487.69" xlink:href="#linear-gradient"/><linearGradient id="linear-gradient-4" x1="253.31" y1="29.94" x2="253.31" y2="487.69" xlink:href="#linear-gradient"/><linearGradient id="linear-gradient-5" x1="224.72" y1="29.94" x2="224.72" y2="487.69" xlink:href="#linear-gradient"/><linearGradient id="linear-gradient-6" x1="281.93" y1="29.94" x2="281.93" y2="487.69" xlink:href="#linear-gradient"/></defs><title>Wellness  ICONS</title><path class="cls-1" d="M254.63,461.1H93C73.08,461.09,60.09,448,60.1,428q0-72.75,0-145.48c0-6.75.27-13.5.34-20.25A25.06,25.06,0,0,0,60,257c-1.15-5.53-6.4-7.08-10.67-3.32q-10.57,9.3-21.26,18.48c-5.57,4.76-12.26,4.49-16.56-.49s-3.32-11.75,2.2-16.46q87.15-74.38,174.33-148.72Q217.65,81.22,247.19,56c7-6,11.68-5.9,18.46.42q48.44,45.21,96.84,90.45c.91.85,1.77,1.77,2.75,2.53,2.28,1.76,3.66,1.05,3.74-1.72.12-4.56,0-9.12,0-13.68.06-7.74,4-11.68,11.77-11.73,6.5-.05,13,0,19.49,0,9.52,0,13.1,3.52,13.12,12.91,0,11,0,22.1,0,33.16.07,17.35,6.39,32,19.05,43.92Q464.21,242,496,271.67c5.23,4.89,5.7,11.78,1.21,16.55-4.32,4.58-11.09,4.49-16.29-.22-1.13-1-2.24-2.06-3.35-3.1-5.55-5.19-11.07-10.41-16.65-15.56-2.13-2-4.24-4.16-7.62-2.65s-3.84,4.29-3.84,7.54q.06,76.69,0,153.37c0,20.8-12.78,33.49-33.65,33.49Zm.19-21.17h0q73,0,145.92,0c16.91,0,26.5-9.48,26.5-26.37q0-61.56,0-123.12c0-8.69.11-17.39.24-26.08.24-16.41-4.84-30.75-16.95-42.09q-68.78-64.42-137.8-128.6a28.2,28.2,0,0,0-11-6.09c-10.21-3-18.89.71-26.57,7.51s-15.51,13.63-23.36,20.34q-55.16,47.1-110.35,94.13c-11.63,9.93-18.23,22.71-19.1,37.78-.79,13.76,0,27.61,0,41.42q0,62.81,0,125.61c0,15.64,10,25.57,25.74,25.57Z"/><path class="cls-2" d="M314.59,410.13q-44.89,0-89.8,0c-15.44,0-30.89.26-46.3-.39-6.08-.26-12.25-2.15-18.05-4.23-16.35-5.84-22.85-19.78-21.49-37.42,1.08-13.95,7.3-24.49,21.09-29.39a30.3,30.3,0,0,1,18.74-.42q35.29,9.9,70.65,19.56a15.09,15.09,0,0,0,7.61,0c22.65-6.12,45.25-12.45,67.87-18.72,24.84-6.9,43.56,7.85,42.92,33.8-.45,18.27-9,29.45-26.63,34.32a79.52,79.52,0,0,1-13.38,2.62c-4.37.45-8.82.1-13.23.1Zm-27.34-40.72a6.31,6.31,0,0,0,.29,1.42c2.17,4,2.33,8-.71,11.57-3.18,3.79-7.26,3.91-11.72,2.59-6.22-1.84-12.47-3.6-18.77-5.14a13,13,0,0,0-6,0c-7,1.73-13.81,3.91-20.78,5.61C222.24,387.23,216,381,217.8,374a48.05,48.05,0,0,1,1.7-4.55c-15.95-4.39-31.7-8.92-47.58-13a10.67,10.67,0,0,0-13,8.18,45.6,45.6,0,0,0-.64,11.86,11.47,11.47,0,0,0,9,11.15c5.95,1.59,12.11,3.3,18.19,3.34q67.95.42,135.91,0c6.2,0,12.49-1.93,18.55-3.61,5.1-1.42,8-5.43,8.35-10.75a44.34,44.34,0,0,0-.19-10.3c-1.15-7.24-7.23-11.55-14.15-9.74C318.35,360.63,302.84,365.09,287.25,369.41Z"/><path class="cls-3" d="M253.41,227c9,1,18.32.86,27,3.06,20.41,5.17,33.64,22.43,34.68,43.43,1,20.41,17.56,38,39.69,41.73,10.07,1.7,20.27,2.65,30.4,4,6.22.84,9.85,5.09,9.2,10.56-.67,5.71-5.42,9.16-11.68,8.35-11.1-1.43-22.29-2.4-33.24-4.55-30.16-5.92-52.47-30.69-53.68-60.69a26.78,26.78,0,0,0-25.11-25.45,247.68,247.68,0,0,0-34.78,0c-13.71.93-24.29,12.25-25.21,25.44-2.29,33-25.55,57.69-58.49,62.1-8.62,1.15-17.27,2.18-25.91,3.21-6,.71-10.67-2.66-11.44-8.19s2.84-9.9,9-10.73c10-1.36,20-2.32,30-4,19.94-3.32,36.81-21.72,37.56-41.85,1-25.94,22.89-45.6,49.09-45.64h12.85Z"/><path class="cls-4" d="M220.56,180.28c.12-9.6,2.63-18.62,8.53-26.56,12.83-17.27,35.83-17.19,48.52.17,11.16,15.27,11.27,37.46.25,52.82-12.85,17.93-36.48,17.86-49.26-.15C223.06,198.75,220.65,190,220.56,180.28Zm46.36.71c.07-6.48-2.14-13-5.63-16.92-4.7-5.31-11-5.38-15.82-.18-7.59,8.21-7.67,24.59-.15,33,4.92,5.49,11.24,5.44,16-.13C265.36,192.08,266.65,186.52,266.92,181Z"/><path class="cls-5" d="M215.11,306.87c.72-10.88,1.39-21.76,2.18-32.64.37-5.07,3.37-8.5,7.88-9.34a9.24,9.24,0,0,1,10.21,5.32,13.14,13.14,0,0,1,.91,5.62q-1.95,31.64-4.14,63.23c-.41,5.78-4.81,9.61-10.15,9.28s-9.15-4.57-8.86-10.47c.51-10.34,1.29-20.67,2-31Z"/><path class="cls-6" d="M272.25,306.11c-.65-9.91-1.35-19.83-1.91-29.75-.39-6.8,3.17-11.31,8.92-11.62s9.73,3.9,10.17,10.63l4,59.51c.07,1.1.15,2.2.15,3.31,0,5.73-3.86,10-9.25,10.17-5.17.18-9.38-3.65-9.8-9.19-.83-11-1.52-22-2.27-33.05Z"/></svg>