<svg id="Layer_1" data-name="Layer 1" xmlns="http://www.w3.org/2000/svg" xmlns:xlink="http://www.w3.org/1999/xlink" viewBox="0 0 512 512"><defs><style>.cls-1{fill:url(#linear-gradient);}.cls-2{fill:url(#linear-gradient-2);}.cls-3{fill:url(#linear-gradient-3);}.cls-4{fill:url(#linear-gradient-4);}.cls-5{fill:url(#linear-gradient-5);}</style><linearGradient id="linear-gradient" x1="254.62" y1="0.32" x2="254.62" y2="519.64" gradientUnits="userSpaceOnUse"><stop offset="0" stop-color="#f45c58"/><stop offset="1" stop-color="#e93f33"/></linearGradient><linearGradient id="linear-gradient-2" x1="191.35" y1="0.32" x2="191.35" y2="519.64" xlink:href="#linear-gradient"/><linearGradient id="linear-gradient-3" x1="355.73" y1="0.32" x2="355.73" y2="519.64" xlink:href="#linear-gradient"/><linearGradient id="linear-gradient-4" x1="270.21" y1="0.32" x2="270.21" y2="519.64" xlink:href="#linear-gradient"/><linearGradient id="linear-gradient-5" x1="312.07" y1="0.32" x2="312.07" y2="519.64" xlink:href="#linear-gradient"/></defs><title>Zero Broking ICONS</title><path class="cls-1" d="M352.92,468.91c-4.19,0-8.39.16-12.57,0-13.25-.6-24,4.89-34,13-7.52,6.16-15.17,12.2-23.14,17.76-9.87,6.88-20.77,10.87-33.14,9.54-11-1.19-20.24-6.44-28.89-12.82-7-5.12-13.7-10.56-20.37-16.06a48.45,48.45,0,0,0-34.5-11.4c-12.25.58-24.6,1.18-36.79.25-17-1.3-30.54-9.2-37.22-25.54a283.61,283.61,0,0,1-12-36c-3.93-15.15-12.93-25.53-25.85-33.72a215.08,215.08,0,0,1-28.9-21.4C13,341.21,9.18,326.4,13.54,310c2.63-9.88,6.48-19.44,9.49-29.24,2.26-7.32,4.84-14.68,5.88-22.22,1.27-9.32-2.88-17.93-5.84-26.6-3.23-9.44-6.77-18.8-9.38-28.41-5-18.41.26-34.15,14.78-46.14,9.55-7.89,20-14.77,30.37-21.57A48.2,48.2,0,0,0,79.64,107c3-10.93,6.11-21.85,9.87-32.54,3.91-11.12,10.7-20.3,21.42-26,8.21-4.34,17.23-5.46,26.3-5.66a159.29,159.29,0,0,1,22.28.83c18,2.13,33.12-3.17,46.55-15.15a188.17,188.17,0,0,1,22.68-17c16.95-11,34.5-11.12,51.43-.22,10,6.41,19.24,14,28.53,21.35s19.69,11.67,31.73,11.23c6.62-.23,13.24-.9,19.86-.79,8.88.15,17.9,0,26.61,1.53C404,47.61,414.19,59.25,420,74.81a225.44,225.44,0,0,1,9,29.84c3.57,16.19,13.77,26.52,27.15,35.12a215.36,215.36,0,0,1,28.68,21.65c11.92,10.84,14.88,25.2,11.2,40.54-2.32,9.67-6,19-9.2,28.47S479,249,480.5,259c1.25,8.19,4.25,16.12,6.61,24.12,3.09,10.46,7.11,20.71,9.32,31.34,3.42,16.45-2.73,30.21-15.33,40.72a235.67,235.67,0,0,1-25.68,18.34c-13.13,8.25-23.09,18.54-26.34,34.27-1,4.75-2.69,9.34-3.83,14.06-2.63,10.86-6.51,21.3-13.1,30.27a40.92,40.92,0,0,1-32.09,17.15c-9,.44-18.09.08-27.14.08ZM367,448.34v.83c2,0,4.06.06,6.09,0,16.06-.53,23.26-5.77,28.4-21,1.94-5.74,3.42-11.64,5.21-17.44,2.19-7.09,4.2-14.24,6.78-21.19,5.54-15,17.24-24.46,30.08-32.9,7.78-5.12,15.52-10.34,22.9-16,8.3-6.38,11.92-14.89,9.24-25.4-1.34-5.22-2.86-10.4-4.59-15.5-2.21-6.52-4.66-13-7.11-19.4-6.34-16.67-5.52-33.21.57-49.76,3.67-10,7.29-20,10.52-30.18,3.75-11.81.41-21.64-9.58-28.95-9.36-6.87-18.81-13.63-28.41-20.15-14.67-10-23.72-23.56-28-40.69-2.54-10.06-5.61-20-9.08-29.79S389.44,64.87,378.6,64.27q-9.3-.51-18.62-.43c-7.83.07-15.67.59-23.5.61a58.45,58.45,0,0,1-36.18-12.3c-8.83-6.68-17.47-13.62-26.31-20.29-11.3-8.52-23.12-10.89-35.45-2.11-5.82,4.15-11.83,8.16-17.11,12.94-17.14,15.53-36.55,24.11-60.16,21.84-8.33-.8-16.74-.87-25.12-.87-14,0-23.79,6.08-28,20-1.79,5.94-3.47,11.92-5.42,17.81-3.06,9.21-5.71,18.62-9.63,27.46C87.53,141.5,76.4,149.06,65.3,156.45c-7.19,4.79-14.37,9.62-21.29,14.77-9.94,7.4-13.78,17.15-9.82,29.23,3.15,9.62,6.35,19.24,10.05,28.65,7.29,18.52,7.06,36.76-.26,55.25-4,10.14-7.36,20.58-10.43,31.06-2.31,7.9-.95,15.79,5.47,21.23a226,226,0,0,0,26.57,19.77c18,11.17,30.05,26.19,35,47,2.53,10.59,6.25,20.93,9.86,31.23,2,5.83,6.29,10.39,12.32,12a75.8,75.8,0,0,0,17.91,2.47c10.67.17,21.35-.58,32-.73,13.92-.2,26.2,4.59,37.17,12.95,8.7,6.63,17.23,13.49,26,20,12.87,9.56,23.87,9.82,36.51.72,7.45-5.36,14.65-11.09,21.76-16.91,13.07-10.69,27.51-17.4,44.83-16.89C348.33,448.57,357.66,448.34,367,448.34Z"/><path class="cls-2" d="M138.5,235.65q0,26.58,0,53.15c0,29.93,22.68,52.5,52.61,52.61a59.63,59.63,0,0,0,22.14-4.09c5.61-2.17,11.72.52,13.28,5.79,1.65,5.58.44,10.93-5.67,13.4C182.48,372,137.17,356,122,313.76a76.54,76.54,0,0,1-4.1-24.61c-.44-36-.67-71.95-.07-107.91.53-31.65,19.71-60.18,51.72-69.05,28.82-8,54.4-2.19,75.63,19.12a66.9,66.9,0,0,1,19.78,45.83c.5,13.1.25,26.23.16,39.35,0,6.39-4.38,10.47-10.5,10.36s-10.2-4.31-10.26-10.71c-.09-11.5,0-23,0-34.49-.07-31-25.39-54.37-56.28-52-29.71,2.32-49.5,23.77-49.49,53.62v52.33Z"/><path class="cls-3" d="M323,347.42a40.81,40.81,0,0,1,6.7-26.28c15.27-22.62,41.9-19.66,53,3.77,8.81,18.56,8.17,37.93-4.58,55.22-11.94,16.2-33.76,15.95-46-.05C325.2,371.1,323,363.34,323,347.42Zm43.85,2.51c0-10.74-.39-12.67-3.38-17.45-4.73-7.58-11.76-7.58-16.48,0A6.86,6.86,0,0,0,345.7,335c-.73,6.09-2,12.23-1.74,18.29a29.51,29.51,0,0,0,4.17,13.16c4.1,6.82,9.84,6.51,14.39,0A23.42,23.42,0,0,0,366.83,349.93Z"/><path class="cls-4" d="M303.4,293.69c-.12,9.78-1.88,18.82-7,27.25-12.93,21.22-39.63,22.89-52.45-1.44-9.65-18.33-9.57-37.77,2.66-55.65,8-11.71,21.91-16.07,34.23-10.85,10.3,4.36,16.78,12.66,19.83,23.24C302.26,281.85,302.52,287.86,303.4,293.69Zm-44.55-.21-1.22.28c1.41,5.23,2.49,10.59,4.36,15.65,1.32,3.57,4.11,6.57,8.26,6.83s6.14-2.91,8.1-5.86c.82-1.23,1.85-2.57,2-3.94.67-6.63,1.67-13.31,1.35-19.92-.18-3.62-2.2-7.5-4.36-10.58-4.08-5.85-9.51-5.61-14,0C259.25,281.1,258.22,287.07,258.85,293.48Z"/><path class="cls-5" d="M266,382.37c1.29-3.2,1.92-5.57,3.12-7.61q29.55-50.31,59.23-100.54c3.56-6.05,7.1-12.12,10.77-18.11,2.63-4.3,6.61-5.85,11.49-4.86,4.11.84,7.17,3.56,7.44,7.55a18.28,18.28,0,0,1-2.34,9.87c-12.77,22.1-25.85,44-38.82,66-10,17-20,34-30.05,50.93-4.13,6.95-10.34,8.73-15.82,4.23C268.77,388,267.6,384.79,266,382.37Z"/></svg>