<svg id="Layer_1" data-name="Layer 1" xmlns="http://www.w3.org/2000/svg" xmlns:xlink="http://www.w3.org/1999/xlink" viewBox="0 0 512 512"><defs><style>.cls-1{fill:url(#linear-gradient);}.cls-2{fill:url(#linear-gradient-2);}.cls-3{fill:url(#linear-gradient-3);}.cls-4{fill:url(#linear-gradient-4);}.cls-5{fill:url(#linear-gradient-5);}.cls-6{fill:url(#linear-gradient-6);}.cls-7{fill:url(#linear-gradient-7);}.cls-8{fill:url(#linear-gradient-8);}.cls-9{fill:url(#linear-gradient-9);}.cls-10{fill:url(#linear-gradient-10);}.cls-11{fill:url(#linear-gradient-11);}.cls-12{fill:url(#linear-gradient-12);}.cls-13{fill:url(#linear-gradient-13);}.cls-14{fill:url(#linear-gradient-14);}.cls-15{fill:url(#linear-gradient-15);}.cls-16{fill:url(#linear-gradient-16);}.cls-17{fill:url(#linear-gradient-17);}</style><linearGradient id="linear-gradient" x1="256.32" y1="-14.55" x2="256.32" y2="583.84" gradientUnits="userSpaceOnUse"><stop offset="0" stop-color="#2a9e2a"/><stop offset="1" stop-color="green"/></linearGradient><linearGradient id="linear-gradient-2" x1="256.32" y1="-14.55" x2="256.32" y2="583.84" xlink:href="#linear-gradient"/><linearGradient id="linear-gradient-3" x1="256.32" y1="-14.55" x2="256.32" y2="583.84" xlink:href="#linear-gradient"/><linearGradient id="linear-gradient-4" x1="238.53" y1="-14.55" x2="238.53" y2="583.84" xlink:href="#linear-gradient"/><linearGradient id="linear-gradient-5" x1="280.32" y1="-14.55" x2="280.32" y2="583.84" xlink:href="#linear-gradient"/><linearGradient id="linear-gradient-6" x1="305.47" y1="-14.55" x2="305.47" y2="583.84" xlink:href="#linear-gradient"/><linearGradient id="linear-gradient-7" x1="389.99" y1="-14.55" x2="389.99" y2="583.84" xlink:href="#linear-gradient"/><linearGradient id="linear-gradient-8" x1="440.32" y1="-14.55" x2="440.32" y2="583.84" xlink:href="#linear-gradient"/><linearGradient id="linear-gradient-9" x1="442.82" y1="-14.55" x2="442.82" y2="583.84" xlink:href="#linear-gradient"/><linearGradient id="linear-gradient-10" x1="392.65" y1="-14.55" x2="392.65" y2="583.84" xlink:href="#linear-gradient"/><linearGradient id="linear-gradient-11" x1="302.65" y1="-14.55" x2="302.65" y2="583.84" xlink:href="#linear-gradient"/><linearGradient id="linear-gradient-12" x1="207.15" y1="-14.55" x2="207.15" y2="583.84" xlink:href="#linear-gradient"/><linearGradient id="linear-gradient-13" x1="118.99" y1="-14.55" x2="118.99" y2="583.84" xlink:href="#linear-gradient"/><linearGradient id="linear-gradient-14" x1="68.65" y1="-14.55" x2="68.65" y2="583.84" xlink:href="#linear-gradient"/><linearGradient id="linear-gradient-15" x1="69.93" y1="-14.55" x2="69.93" y2="583.84" xlink:href="#linear-gradient"/><linearGradient id="linear-gradient-16" x1="119.65" y1="-14.55" x2="119.65" y2="583.84" xlink:href="#linear-gradient"/><linearGradient id="linear-gradient-17" x1="205.71" y1="-14.55" x2="205.71" y2="583.84" xlink:href="#linear-gradient"/></defs><title>Home care ICONS</title><path class="cls-1" d="M426,88.28A240.09,240.09,0,0,0,130.18,53.76l-.8.47,40.14,69.4A161.45,161.45,0,0,0,122,171.18L66.45,139.12A226.36,226.36,0,0,1,126.24,75.6l-9.3-13A239.71,239.71,0,0,0,16.32,258c0,132.55,107.45,240,240,240A240,240,0,0,0,426,427.69C519.75,334,519.75,182,426,88.28ZM416.12,266h64a222.42,222.42,0,0,1-25.89,97l-55.58-32.09A158.89,158.89,0,0,0,416.12,266Zm0-16a158.89,158.89,0,0,0-17.43-65l55.58-32.09a222.42,222.42,0,0,1,25.89,97Zm30.13-110.89-55.58,32.09a161.41,161.41,0,0,0-47.55-47.54l32.09-55.59a227,227,0,0,1,71,71ZM264.32,34.14A222.42,222.42,0,0,1,361.37,60l-32.09,55.58a158.89,158.89,0,0,0-65-17.43Zm-113,25.94a223.64,223.64,0,0,1,97-26V98.18a158.89,158.89,0,0,0-65,17.43Zm105,53.9c79.4,0,144,64.6,144,144s-64.6,144-144,144-144-64.6-144-144S176.92,114,256.32,114Zm-8,303.8v64.05a222.55,222.55,0,0,1-97-25.89l32.09-55.59A158.74,158.74,0,0,0,248.32,417.78Zm16,0a158.74,158.74,0,0,0,65-17.43l32.09,55.59a222.55,222.55,0,0,1-97.05,25.89ZM96.52,266a158.89,158.89,0,0,0,17.43,65L58.36,363a222.41,222.41,0,0,1-25.88-97ZM58,153.83c.15-.29.32-.58.47-.87L114,185a158.89,158.89,0,0,0-17.43,65h-64A224.33,224.33,0,0,1,58,153.83Zm8.44,223L122,344.78a161.45,161.45,0,0,0,47.55,47.55l-32.09,55.58a226.93,226.93,0,0,1-71-71Zm348.32,39.5a225.31,225.31,0,0,1-39.5,31.54l-32.09-55.58a161.45,161.45,0,0,0,47.55-47.55l55.58,32.09a225.31,225.31,0,0,1-31.54,39.5Z"/><path class="cls-2" d="M128.53,259.82a8,8,0,0,0,7.79,6.16h13a28.29,28.29,0,0,1,15.77,4.78,44.25,44.25,0,0,0,21.67,7.38l-44.34,18.37,6.12,14.78,48.27-20-.56,1.12a11.5,11.5,0,0,1-6.7,5.8,27.69,27.69,0,0,0-17.42,17.43l-8.22,24.66a8,8,0,0,0,13.25,8.19l9.17-9.17a28.27,28.27,0,0,1,14.52-7.77,44.31,44.31,0,0,0,20.57-10.14L203,365.79l14.78,6.12,20-48.26.39,1.17a11.67,11.67,0,0,1-.62,8.83,27.64,27.64,0,0,0,0,24.66l11.62,23.25A8,8,0,0,0,264.32,378V365a28.29,28.29,0,0,1,4.78-15.77,44.24,44.24,0,0,0,7.37-21.69l18.38,44.36,14.78-6.12-20-48.27,1.12.56a11.53,11.53,0,0,1,5.8,6.7A27.66,27.66,0,0,0,314,342.2l24.66,8.22a8,8,0,0,0,8.18-13.24L337.65,328a28.54,28.54,0,0,1-5-6.7,28.1,28.1,0,0,1-2.81-7.83,44.29,44.29,0,0,0-10.13-20.57l44.38,18.38,6.12-14.78-48.26-20,1.17-.39a11.74,11.74,0,0,1,8.82.63,27.7,27.7,0,0,0,24.66,0l23.25-11.62A8,8,0,0,0,376.32,250h-13a28.29,28.29,0,0,1-15.77-4.78,44.31,44.31,0,0,0-21.68-7.37l44.35-18.38-6.12-14.78-48.27,20,.56-1.12a11.53,11.53,0,0,1,6.7-5.8,27.69,27.69,0,0,0,17.42-17.43l8.22-24.66a8,8,0,0,0-13.25-8.19l-9.17,9.17a28.39,28.39,0,0,1-14.52,7.78,44.25,44.25,0,0,0-20.57,10.13l18.38-44.38-14.78-6.12-20,48.26-.39-1.17a11.67,11.67,0,0,1,.62-8.83,27.64,27.64,0,0,0,0-24.66L263.47,134.4A8,8,0,0,0,248.32,138v13a28.6,28.6,0,0,1-1.21,8.22,29.08,29.08,0,0,1-3.57,7.56,44.17,44.17,0,0,0-7.37,21.68l-18.38-44.36L203,150.17l20,48.27-1.12-.55a11.59,11.59,0,0,1-5.8-6.7,27.68,27.68,0,0,0-17.43-17.43L174,165.54a8,8,0,0,0-8.19,13.25L175,188a28.49,28.49,0,0,1,7.78,14.52,44.29,44.29,0,0,0,10.13,20.57l-44.38-18.38-6.12,14.78,48.26,20-1.17.39a11.76,11.76,0,0,1-8.83-.62,27.62,27.62,0,0,0-24.65,0l-23.25,11.62A8,8,0,0,0,128.53,259.82ZM304.32,258a48,48,0,1,1-48-48A48,48,0,0,1,304.32,258ZM197.69,315.85A44.38,44.38,0,0,0,188,319a11.64,11.64,0,0,1,6.57-5.58,27.37,27.37,0,0,0,14.86-11.89,61.73,61.73,0,0,0,4.64,4.51A28.18,28.18,0,0,1,197.69,315.85Zm58.09,24.51a45.18,45.18,0,0,0-4.63,9.05,11.61,11.61,0,0,1,.7-8.6A27.62,27.62,0,0,0,254,321.92c.78,0,1.56.06,2.35.06,1.37,0,2.73-.06,4.09-.15a28.63,28.63,0,0,1-4.63,18.53Zm56-20.65a27.37,27.37,0,0,0-11.89-14.86q2.37-2.21,4.51-4.64a28.24,28.24,0,0,1,9.84,16.4,44.1,44.1,0,0,0,3.12,9.68A11.62,11.62,0,0,1,311.73,319.71Zm36-56.56a11.61,11.61,0,0,1-8.6-.7,28,28,0,0,0-18.89-2.11c0-.78.06-1.57.06-2.36,0-1.37-.06-2.73-.15-4.08a28.58,28.58,0,0,1,18.53,4.62A44.41,44.41,0,0,0,347.75,263.15Zm-32.8-63a43.85,43.85,0,0,0,9.67-3.12,11.6,11.6,0,0,1-6.57,5.58,27.37,27.37,0,0,0-14.86,11.89q-2.2-2.37-4.64-4.51a28.18,28.18,0,0,1,16.4-9.84ZM256.86,175.6a45.11,45.11,0,0,0,4.63-9,11.61,11.61,0,0,1-.7,8.6A27.59,27.59,0,0,0,258.67,194c-.78,0-1.56-.06-2.35-.06-1.37,0-2.73.06-4.09.15a28.66,28.66,0,0,1,4.63-18.53Zm-56,20.65a27.37,27.37,0,0,0,11.89,14.86,63.69,63.69,0,0,0-4.51,4.64,28.18,28.18,0,0,1-9.84-16.4,43.85,43.85,0,0,0-3.12-9.67,11.6,11.6,0,0,1,5.58,6.57Zm-27.42,57.27a28,28,0,0,0,18.89,2.1c0,.78-.06,1.57-.06,2.36,0,1.37.06,2.73.14,4.08a28.61,28.61,0,0,1-18.52-4.62,44.67,44.67,0,0,0-9.05-4.63,11.61,11.61,0,0,1,8.6.71Z"/><rect class="cls-3" x="240.32" y="273.98" width="32" height="16"/><path class="cls-4" d="M240.32,266h16V242a8,8,0,0,0-2.34-5.66,23.68,23.68,0,0,0-27.36-4.44l-5.88,2.94,7.15,14.31,5.89-2.94a7.71,7.71,0,0,1,6.54-.16Z"/><rect class="cls-5" x="272.32" y="233.98" width="16" height="16"/><path class="cls-6" d="M320.76,65.76a8,8,0,0,0-5.24-5.69l-15-5a8,8,0,0,0-10.12,5.06,7.83,7.83,0,0,0-.37,3.36L291.92,82a8,8,0,0,0,13.7,4.75l13.1-13.49A8,8,0,0,0,320.76,65.76Z"/><circle class="cls-7" cx="389.99" cy="122.98" r="16"/><rect class="cls-8" x="424.32" y="193.98" width="32" height="32" rx="8"/><ellipse class="cls-9" cx="442.82" cy="307.48" rx="18.2" ry="16"/><ellipse class="cls-10" cx="392.65" cy="392.98" rx="16" ry="18.2"/><path class="cls-11" d="M302.65,425.31a18.36,18.36,0,0,0-18.33,18.34v11.66a8,8,0,0,0,8,8H313a8,8,0,0,0,8-8V443.65A18.38,18.38,0,0,0,302.65,425.31Zm2.34,22h-4.67v-3.66a2.34,2.34,0,0,1,4.67,0h0Z"/><path class="cls-12" d="M187.15,459.31h40v-16h-5.28a15.67,15.67,0,1,0-29.43,0h-5.29Z"/><path class="cls-13" d="M119,373.31a18.37,18.37,0,0,0-18.34,18.34v11.66a8,8,0,0,0,8,8h20.67a8,8,0,0,0,8-8V391.65A18.36,18.36,0,0,0,119,373.31Zm2.33,22h-4.67v-3.66a2.34,2.34,0,0,1,4.67-.1v3.76Z"/><path class="cls-14" d="M58.32,227.65H79a8,8,0,0,0,8-8V208a18.34,18.34,0,0,0-36.67,0v11.67a8,8,0,0,0,8,8Zm8-19.67A2.34,2.34,0,0,1,71,208v3.67H66.32Z"/><path class="cls-15" d="M51.54,315.57l12.89,9.49,14-19.08h9.85V290a8,8,0,0,0-8-8h-16v16h.18Z"/><rect class="cls-16" x="99.65" y="109.98" width="40" height="24" rx="8"/><path class="cls-17" d="M220.55,82.19a16.93,16.93,0,0,1,.12-14.69l.17-.34a8,8,0,0,0-3.67-10.7,8.1,8.1,0,0,0-3.52-.81H197.76a8,8,0,0,0-7.13,11.62,17.1,17.1,0,0,1,.13,15.15l-.19.38a8,8,0,0,0,3.68,10.7,7.89,7.89,0,0,0,3.51.81h15.89a8,8,0,0,0,7.25-11.4Z"/></svg>