<svg id="Layer_1" data-name="Layer 1" xmlns="http://www.w3.org/2000/svg" xmlns:xlink="http://www.w3.org/1999/xlink" viewBox="0 0 512 512"><defs><style>.cls-1{fill:url(#linear-gradient);}.cls-2{fill:url(#linear-gradient-2);}</style><linearGradient id="linear-gradient" x1="224.98" y1="14.09" x2="224.98" y2="513.59" gradientUnits="userSpaceOnUse"><stop offset="0" stop-color="#2a9e2a"/><stop offset="1" stop-color="green"/></linearGradient><linearGradient id="linear-gradient-2" x1="392.28" y1="14.09" x2="392.28" y2="513.59" xlink:href="#linear-gradient"/></defs><title>Home care ICONS</title><path class="cls-1" d="M386.64,208.29c-11.18,3.81-25.67.55-34.15-7.67L338.93,187c-6.3-6.54-17.16-9.24-21.85-6.78-8.91,3.84-20.94,0-29-7.82a21.13,21.13,0,0,1-6-13.25L14.45,426.82l39.91,39.8,2.21-12.44L69,456.39l2.21-12.47,12.46,2.22,2.2-12.47,12.45,2.21,2.21-12.44L113,425.65l2.21-12.47,12.47,2.21,2.18-12.46,12.48,2.21,2.19-12.46L157,394.89l2.19-12.46,12.47,2.21,2.22-12.46,12.45,2.22,2.2-12.47L201,364.14l2.2-12.45,12.46,2.2,2.22-12.44,12.46,2.2,2.2-12.47L245,333.4l2.19-12.46,12.45,2.2,2.21-12.46,12.47,2.23,2.2-12.47,12.46,2.21,2.19-12.46,12.47,2.2L305.8,280l12.46,2.19,2.19-12.45,12.46,2.2,2.2-12.47,12.46,2.22,2.2-12.45,12.46,2.21,2.2-12.47,12.46,2.22,2.19-12.46,12.47,2.21,2.2-12.47,12.46,2.22,2.19-12.46,12.46,2.2,14.66-10.25L428.38,192a78.33,78.33,0,0,1-12.14,5.73Z"/><path class="cls-2" d="M488.67,116l-10.29,1.14c-10.18,1.1-25.13-3.08-33.23-9.32l-28.55-22c-8.1-6.25-14.81-19.73-14.9-29.95l-.05-4c-.09-10.23-6.08-12.68-13.31-5.46L291.9,142.91a18.48,18.48,0,0,0-.31,26c7.07,7.06,18.46,10.28,25.29,7.13s18.3.2,25.56,7.45L356,197.1c7.24,7.25,21.05,10.35,30.67,6.92l29.72-10.57c9.63-3.44,23.44-12.16,30.69-19.39L494,127.13C501.25,119.89,498.85,114.9,488.67,116ZM328.05,159.46a5.34,5.34,0,1,1,7.56,0A5.32,5.32,0,0,1,328.05,159.46Zm44.71,25.21a5.35,5.35,0,1,1,0-7.56A5.35,5.35,0,0,1,372.76,184.67Zm69.72-33.77a18,18,0,0,1-25.31,3.23l-48.25-37.29A18,18,0,1,1,391,88.31l48.25,37.29A18,18,0,0,1,442.48,150.9Z"/></svg>