<svg id="Layer_1" data-name="Layer 1" xmlns="http://www.w3.org/2000/svg" xmlns:xlink="http://www.w3.org/1999/xlink" viewBox="0 0 512 512"><defs><style>.cls-1{fill:url(#linear-gradient);}</style><linearGradient id="linear-gradient" x1="255.32" y1="33" x2="255.32" y2="465.01" gradientUnits="userSpaceOnUse"><stop offset="0" stop-color="#2a9e2a"/><stop offset="1" stop-color="green"/></linearGradient></defs><title>Home care ICONS</title><path class="cls-1" d="M273.61,458.44,194,453.39c-65.29-4.15-71.89-10.64-82.66-79.58-4.76-30.44-17.15-122.09-17.15-122.09-3.3-27.65,36.67-34.24,40.7-5.91,0,0,11.37,87.75,16.22,116.82,6.54,39.27,12.07,46.06,51.82,48.59l73,4.63C304.73,417.66,301.84,460.25,273.61,458.44Zm64.2-120a36,36,0,0,0-27.32-14.61l-35.1-3.39-22.95-2.21c-2.87-.28-5.92-.88-8.8-.49l-10.79-46.35-.93-4.69,9.24,4.83a27.89,27.89,0,0,0,15.53,3.06l70.78-6.75a27.78,27.78,0,1,0-5.27-55.31l-62.56,6L208,183.39a35.87,35.87,0,0,0-8.28-5.64s-.38-.26-.36-.16a35.7,35.7,0,0,0-22.45-2.9,37.87,37.87,0,0,0-21.44,12.82,34.62,34.62,0,0,0-5.15,8.71,37.66,37.66,0,0,0-1.82,20.9q3.53,17.81,7.05,35.59L165,300.64h0s7.37,57.3,15,70.95a12.54,12.54,0,0,0,1.37,2c8,9.64,16.17,17,29.45,17.66l93.74,4.56,56.28,95.87a27.77,27.77,0,0,0,40.3-38.23ZM432.6,199.17a10.29,10.29,0,0,0-14.54-.62l-100.25,92a10.29,10.29,0,0,0,13.91,15.17l100.25-92A10.3,10.3,0,0,0,432.6,199.17Zm-321.86-104,6.45-4.4q8.67-5.9,17.31-11.82,19.31-13.17,38.61-26.33l12.75-8.7c1.31-.9,3.6-2.11,4.32-3.62l.07-.17c.56-1.37,0-3.09-.35-4.44-.73-3.2-1.45-6.41-2.17-9.61-.78-3.42-1.59-6.83-2.29-10.26-.77-3.71-2.94-3.8-6-1.87l-4.78,3q-6.69,4.26-13.4,8.5L124,49.12,88.92,71.41c-3.62,2.3-7.25,4.58-10.86,6.9-2.2,1.41-4.3,3.12-1.06,5.12,1.37.84,2.8,1.6,4.19,2.39l10.15,5.8c3,1.7,6,3.42,9,5.12C104.29,99,107.27,97.52,110.74,95.15Zm5.24,9.24c-1.1.75-1.9,1-1.72,2.38a1.36,1.36,0,0,1,0,.21c.13,1.13.14,2.27.22,3.41a47.3,47.3,0,0,0,1.06,7.21,48.31,48.31,0,0,0,5.1,13.2A49.44,49.44,0,0,0,140.5,150a48.27,48.27,0,0,0,22,5.52c26.3.18,48.9-22.28,48.87-48.6a45.74,45.74,0,0,0-1.74-12.41,49,49,0,0,0-7.1-14.78,50.39,50.39,0,0,0-5.28-6.29c-1-1-2-1.91-3-2.81s-.25-1.51.82-2.21l2.65-1.73c1.76-1.16,3.53-2.33,5.3-3.48,2.18-1.42,8.77-6.52,10.94-8,2.51-1.7,3.52-3.25.37-4.88l-5-2.62c-3.48-1.83-5.59-4-9.28-1.47-1.62,1.08-69.81,48.33-74.17,51.3Z"/></svg>