<svg id="Layer_1" data-name="Layer 1" xmlns="http://www.w3.org/2000/svg" xmlns:xlink="http://www.w3.org/1999/xlink" viewBox="0 0 512 512"><defs><style>.cls-1{fill:url(#linear-gradient);}.cls-2{fill:url(#linear-gradient-2);}.cls-3{fill:url(#linear-gradient-3);}.cls-4{fill:url(#linear-gradient-4);}.cls-5{fill:url(#linear-gradient-5);}</style><linearGradient id="linear-gradient" x1="97.03" y1="-69.85" x2="97.03" y2="536.03" gradientUnits="userSpaceOnUse"><stop offset="0" stop-color="#2a9e2a"/><stop offset="1" stop-color="green"/></linearGradient><linearGradient id="linear-gradient-2" x1="187.21" y1="-69.85" x2="187.21" y2="536.03" xlink:href="#linear-gradient"/><linearGradient id="linear-gradient-3" x1="111.84" y1="-69.85" x2="111.84" y2="536.03" xlink:href="#linear-gradient"/><linearGradient id="linear-gradient-4" x1="271.81" y1="-69.85" x2="271.81" y2="536.03" xlink:href="#linear-gradient"/><linearGradient id="linear-gradient-5" x1="398.39" y1="-69.85" x2="398.39" y2="536.03" xlink:href="#linear-gradient"/></defs><title>Home care ICONS</title><path class="cls-1" d="M161.75,318.31a6,6,0,0,0,0-11.67,76.24,76.24,0,0,1-58.89-58.88,6,6,0,0,0-11.67,0c-6.36,29.7-29.17,53.05-58.88,58.88a6,6,0,0,0,0,11.67A76.21,76.21,0,0,1,91.19,377.2a6,6,0,0,0,11.67,0,74.82,74.82,0,0,1,58.89-58.89Z"/><path class="cls-2" d="M140,234c0,2.66,1.59,5.31,4.24,5.84a50.8,50.8,0,0,1,37.14,37.13c.53,2.66,3.18,4.25,5.83,4.25s5.31-1.59,5.84-4.25a50.78,50.78,0,0,1,37.13-37.13c2.66-.53,4.25-3.18,4.25-5.84s-1.59-5.3-4.25-5.83A49.19,49.19,0,0,1,193.05,191c-.53-2.65-3.18-4.24-5.84-4.24s-5.3,1.59-5.83,4.24a49.21,49.21,0,0,1-37.14,37.14A6.2,6.2,0,0,0,140,234Z"/><path class="cls-3" d="M68.91,164.47a50.8,50.8,0,0,1,37.14,37.13c.53,2.65,3.18,4.25,5.83,4.25h0c2.66,0,5.31-1.6,5.84-4.25a50.78,50.78,0,0,1,37.13-37.13h0c2.66-.53,4.25-3.19,4.25-5.84s-1.59-5.3-4.25-5.83a49.19,49.19,0,0,1-37.13-37.14c-.53-2.65-3.18-4.24-5.84-4.24h0c-2.65,0-5.3,1.59-5.83,4.24A49.21,49.21,0,0,1,68.91,152.8c-2.65.53-4.24,3.18-4.24,5.83C64.14,161.28,66.26,163.94,68.91,164.47Z"/><path class="cls-4" d="M394.11,285.42l-83.29-38.73c-4.77-2.12-11.14-1.06-14.32,3.19l-3.19,4.24C253.53,304,205.25,345.37,149,375.61a12.59,12.59,0,0,0-6.37,9,12.07,12.07,0,0,0,3.72,10.08A320.34,320.34,0,0,0,175,419.64c38.73-21.75,73.74-49.34,102.92-82.76l2.65-3.18a12.77,12.77,0,0,1,19.1,17L297,353.86a412,412,0,0,1-99.21,82.75,407.29,407.29,0,0,0,189.39,70h1.06c3.19,0,6.37-1.59,9-3.72a11.05,11.05,0,0,0,2.65-10.61,471.71,471.71,0,0,1,0-188.85l1.06-4.78C401.53,292.85,398.88,287.54,394.11,285.42Z"/><path class="cls-5" d="M473.68,4.26c-10.08-4.78-21.75-.53-26,9.55l-84.88,183-24.4-11.14a12.26,12.26,0,0,0-15.92,5.83l-9.55,20.69a10.78,10.78,0,0,0-.53,9,11.61,11.61,0,0,0,6.37,6.9l84.35,39.25a15.48,15.48,0,0,0,4.77,1.06A11.27,11.27,0,0,0,419,261.55l9.55-20.69a12.27,12.27,0,0,0-5.84-15.92l-24.4-11.14,84.88-183C488,20.7,483.23,9,473.68,4.26Z"/></svg>