<svg id="Layer_1" data-name="Layer 1" xmlns="http://www.w3.org/2000/svg" xmlns:xlink="http://www.w3.org/1999/xlink" viewBox="0 0 512 512"><defs><style>.cls-1{fill:url(#linear-gradient);}.cls-2{fill:url(#linear-gradient-2);}.cls-3{fill:url(#linear-gradient-3);}.cls-4{fill:url(#linear-gradient-4);}.cls-5{fill:url(#linear-gradient-5);}.cls-6{fill:url(#linear-gradient-6);}</style><linearGradient id="linear-gradient" x1="256.32" y1="-51.26" x2="256.32" y2="659.55" gradientUnits="userSpaceOnUse"><stop offset="0" stop-color="#2a9e2a"/><stop offset="1" stop-color="green"/></linearGradient><linearGradient id="linear-gradient-2" x1="298.39" y1="-51.26" x2="298.39" y2="659.55" xlink:href="#linear-gradient"/><linearGradient id="linear-gradient-3" x1="194.63" y1="-51.26" x2="194.63" y2="659.55" xlink:href="#linear-gradient"/><linearGradient id="linear-gradient-4" x1="265.1" y1="-51.26" x2="265.1" y2="659.55" xlink:href="#linear-gradient"/><linearGradient id="linear-gradient-5" x1="150.39" y1="-51.26" x2="150.39" y2="659.55" xlink:href="#linear-gradient"/><linearGradient id="linear-gradient-6" x1="267.38" y1="-51.26" x2="267.38" y2="659.55" xlink:href="#linear-gradient"/></defs><title>Home care ICONS</title><path class="cls-1" d="M17.79,257.47C17.93,125.71,125.26,19,257.41,19.28c130.93.25,237.7,107.84,237.44,239.23S387.53,496.84,256.37,496.68C124.35,496.53,17.65,389.55,17.79,257.47Zm31.86,1c.26,113.29,93.49,206.44,206.51,206.37C370,464.72,463.35,371.13,463,257.55,462.57,143.67,369.09,50.79,255.3,51.21,142.23,51.64,49.39,145.19,49.65,258.43Z"/><path class="cls-2" d="M348.52,359.07c-6.12-16-11.59-30.32-17-44.63l-3.31,1.15c3.92,12.85,7.85,25.7,11.73,38.4-17.09,14-42.24,15.35-53.6,39.13-4.78-12-9.5-22.63-13.25-33.59-5.33-15.56-15.83-23.71-32.1-25.09-10.28-.87-20.64-1.7-30.72-3.77-3.1-.64-7.55-5.21-7.67-8.13-.73-17.17-.36-34.39-.36-53.14,8.51-1.3,17.74-3,27.05-4.08,30.84-3.72,39.74-15.47,34.38-45.7,16.33,0,33-2.21,48.91.51,23.69,4.07,40.63,18.62,48.75,42.12,10.12,29.29,20.35,58.54,30.45,87.84,6.54,19,2.5,29.54-14.86,39.06-16.77,9.19-33.52,18.42-50.4,27.41-13,6.94-24.76,4.25-30.73-6.65s-1.53-22.42,11.43-29.38C320.58,373.32,334.2,366.48,348.52,359.07Z"/><path class="cls-3" d="M195.73,262.29c0,24.23-.25,47.1.39,70,.06,2.16,5.44,5.51,8.71,6,12.84,2,25.81,3.16,38.76,4.4,10.17,1,17.15,6.11,20.86,15.51,6.17,15.66,12.45,31.28,18.11,47.13,5,14.1-.54,27.55-12.82,32.88-12.45,5.41-28.29,1.22-32.67-12.44-8.51-26.49-27-32.71-51.67-32.67-14.85,0-29.7-2.62-44.55-4.13-18.95-1.93-32.39-15.54-33.28-34.81-1.28-27.54-2.29-55.11-2.7-82.67-.39-26,15.63-44.8,41.1-48.43,27.64-3.93,55.38-7.21,83.11-10.48,16.51-1.94,27.32,5.28,29.1,18.73,1.82,13.75-7.33,23.59-24.26,25.94C220.76,259,207.58,260.72,195.73,262.29Z"/><path class="cls-4" d="M205.67,143.77C206,110.71,232,84.92,265,85a59.31,59.31,0,0,1,59.57,60c-.4,32.55-27.34,59.21-59.61,59C231.45,203.72,205.37,177.24,205.67,143.77Z"/><path class="cls-5" d="M150,217a40.39,40.39,0,1,1,41-40.56C191.14,199.13,172.91,217.15,150,217Z"/><path class="cls-6" d="M172.2,438.69,184.39,401c9.71.86,18.84,1.24,27.79,2.71,2.79.46,5.83,3.41,7.48,6,3.67,5.8,6.6,12.08,9.7,18.22,6.66,13.2,17,20.64,32.08,19.65,15.58-1,25.11-9.89,29.71-24.52a27,27,0,0,1,1.74-3.43c25.4,21.48,42.9-3.29,63.56-10.26,9.06,14.45,8.75,16.24-5.76,23.79C292.72,463.35,233.83,464.81,172.2,438.69Z"/></svg>