<svg id="Layer_1" data-name="Layer 1" xmlns="http://www.w3.org/2000/svg" xmlns:xlink="http://www.w3.org/1999/xlink" viewBox="0 0 512 512"><defs><style>.cls-1{fill:url(#linear-gradient);}.cls-2{fill:url(#linear-gradient-2);}.cls-3{fill:url(#linear-gradient-3);}</style><linearGradient id="linear-gradient" x1="138.15" y1="256" x2="402.24" y2="256" gradientUnits="userSpaceOnUse"><stop offset="0" stop-color="#2a9e2a"/><stop offset="1" stop-color="green"/></linearGradient><linearGradient id="linear-gradient-2" x1="194.93" y1="270.92" x2="497.08" y2="270.92" xlink:href="#linear-gradient"/><linearGradient id="linear-gradient-3" x1="15.56" y1="234.7" x2="220.07" y2="234.7" xlink:href="#linear-gradient"/></defs><title>Home care ICONS</title><path class="cls-1" d="M152.32,501.22c4.4-12.9,8.75-25.83,13.21-38.71q11.46-33.13,23-66.22,15.66-44.88,31.36-89.76c2.12-6.09,3.91-12.3,6.2-18.32,2.41-6.32.74-8.79-6.22-8.84-22.18-.16-44.35-.75-66.53-1.14-4.56-.08-9.12,0-15.2,0,2.86-8.15,5.09-15.15,7.76-22q14.1-36,28.47-71.92c11.64-29.21,23.41-58.36,35-87.57q16.08-40.43,31.86-81c1.59-4.13,3.39-5.72,8.1-5.71C296.17,10.21,343,10,389.78,10c2.32,0,4.64.68,8.29,1.26-30.59,54.46-60.62,107.93-91.74,163.32h95.91L153.92,502Z"/><path class="cls-2" d="M257.07,454.23c59.93.19,109.8-23,150.7-66.12,24.56-25.88,42-56,49.07-91.17,3.65-18.1,7.89-36.81,6.93-55-3.21-60.76-27.35-112.21-74.1-152.28-4.45-3.81-7.65-6.36-8.75-7.82,0-.09,1.66-3.06,5.59-10q5.13-9.1,10.27-18.26c87.3,57.88,133.3,189.62,72.76,306.15-31.24,60.14-81.11,99.88-146.25,119-42,12.36-84.63,12.61-128.36,1.56,6.79-9.18,15.48-22.36,22-29.76C216.91,450.53,242.83,454.13,257.07,454.23Z"/><path class="cls-3" d="M143.46,459.08C54.8,415.25,1,311.32,19,207.85c11.5-66,45.23-119.13,100.4-157.86,29.61-20.78,62.34-33.92,100.63-39.66-5.17,13.09-9.95,26-14.69,36.88-.14.15-3.27,1-5.5,1.67C155,61.52,119,87.2,91,124c-20.26,26.56-33.55,56.48-38.62,89.46C41,287.13,63.7,349.4,117.65,400.24c9.89,9.32,21.9,16.34,32.66,24.78,1.81,1.42,4.37,3.32,4.37,3.32C151.84,437.51,146.84,450,143.46,459.08Z"/></svg>