<svg id="Layer_1" data-name="Layer 1" xmlns="http://www.w3.org/2000/svg" xmlns:xlink="http://www.w3.org/1999/xlink" viewBox="0 0 512 512"><defs><style>.cls-1{fill:url(#linear-gradient);}.cls-2{fill:url(#linear-gradient-2);}.cls-3{fill:url(#linear-gradient-3);}</style><linearGradient id="linear-gradient" x1="324.97" y1="-6.77" x2="324.97" y2="544" gradientUnits="userSpaceOnUse"><stop offset="0" stop-color="#2a9e2a"/><stop offset="1" stop-color="green"/></linearGradient><linearGradient id="linear-gradient-2" x1="201.51" y1="-6.77" x2="201.51" y2="544" xlink:href="#linear-gradient"/><linearGradient id="linear-gradient-3" x1="256.32" y1="-6.77" x2="256.32" y2="544" xlink:href="#linear-gradient"/></defs><title>Home care ICONS</title><path class="cls-1" d="M363.83,209.05H286.11a5.15,5.15,0,1,0,0,10.29h72.54v13.19H286.11a5.15,5.15,0,1,0,0,10.29h72.54v9.84H286.11a5.15,5.15,0,1,0,0,10.29h72.54v9.84H286.11a5.15,5.15,0,1,0,0,10.29h72.54v9.85H286.11a5.14,5.14,0,1,0,0,10.28h72.54v9.85H286.11a5.15,5.15,0,1,0,0,10.29h72.54v9.84H286.11a5.15,5.15,0,1,0,0,10.29h72.54v9.84H286.11a5.15,5.15,0,1,0,0,10.29h72.54v9.84H286.11a5.15,5.15,0,1,0,0,10.29h72.54v14.54H286.11a5.15,5.15,0,1,0,0,10.29h77.72a5.09,5.09,0,0,0,5.19-5.15V214.19A5.08,5.08,0,0,0,363.83,209.05Z"/><path class="cls-2" d="M228,365.4a18.14,18.14,0,0,1-1.8.67l-5.41,2.23-.22-5.36c0-.9-.23-1.79-.23-2.46v-13.2c0-9.4.23-19.24-.22-28.63-.23-13-2.93-31.32-2.93-31.32l-14-77.39h-3.38l-14,77.39s-2.7,18.35-3.15,31.09c-.45,9.62-.23,19.24-.23,28.64v13.19a9.28,9.28,0,0,1-.22,2.46l-.23,5.37-5.41-2.24c-.67-.22-1.12-.44-1.8-.67-11.26-3.8-21.85-.67-27.71,8.5a19.74,19.74,0,0,0,1.58,24.38c5.4,6.71,15.32,9.4,24.33,7.16,9.46-2.46,16.67-11.41,16.67-20.58V323.57h23.66v61.06c0,9.4,7.21,18.34,16.67,20.58,9,2.24,18.92-.45,24.33-6.93,6.08-7.16,6.76-16.56,1.58-24.38C249.83,364.5,239.25,361.37,228,365.4Zm-49.56,29.52a16.84,16.84,0,0,1-11.72,4.92c-8.79,0-16-6.71-16-15A14.18,14.18,0,0,1,155,374.79a16.77,16.77,0,0,1,11.72-4.7c8.79,0,16,6.71,16,14.77A15,15,0,0,1,178.42,394.92Zm23-92.15a8.5,8.5,0,1,1,8.56-8.5A8.53,8.53,0,0,1,201.4,302.77Zm34.92,97.07a16.84,16.84,0,0,1-11.72-4.92,14,14,0,0,1-4.28-10.06c0-8.06,7.44-14.77,16-14.77a16.76,16.76,0,0,1,11.71,4.7,14.14,14.14,0,0,1,4.28,10.07C252.31,393.13,245.1,399.84,236.32,399.84Z"/><path class="cls-3" d="M267.81,18.78a16.36,16.36,0,0,0-23,0L16.84,245.08c-10.33,9.61-2.46,28.08,11.51,27.59a16.22,16.22,0,0,0,11.51-4.73l37.33-37.07V466.65A32.49,32.49,0,0,0,109.76,499H402.83a32.48,32.48,0,0,0,32.56-32.33V230.87l37.34,37.07a16.36,16.36,0,0,0,23,0,16.08,16.08,0,0,0,0-22.86Zm135,447.87H109.76V198.55L256.29,53.06,402.83,198.55Z"/></svg>