<svg id="Layer_1" data-name="Layer 1" xmlns="http://www.w3.org/2000/svg" xmlns:xlink="http://www.w3.org/1999/xlink" viewBox="0 0 512 512"><defs><style>.cls-1{fill:url(#linear-gradient);}</style><linearGradient id="linear-gradient" x1="256.32" y1="20.74" x2="256.32" y2="475.44" gradientUnits="userSpaceOnUse"><stop offset="0" stop-color="#2a9e2a"/><stop offset="1" stop-color="green"/></linearGradient></defs><title>Home care ICONS</title><path class="cls-1" d="M238.27,65.42H173.55l-79,79.23,57,42.87,12.29-12.34,14.89-14.94V269c-5.83,1.95-11.65,6.55-17.47,9.79V203.1l-2.59,2.6-5.83,5.2L147,206.35,75.83,153.09l-7.77-6.49,7.12-7.14,88.66-89,2.59-2.6h77l2.59,1.3c13.59,9.74,26.54,14.94,39.48,14.94,12.3,0,25.24-5.2,39.48-14.94l1.94-1.3h77.66l2.59,2.6,88.66,89L503,146.6l-8.42,6.49L424,206.35l-6.47,4.55-5.18-5.2-2.58-2.6V448.25H315.93c2.59-5.19,3.88-11.69,1.94-17.53h73.78V160.24l15.53,14.94,12.29,12.34,56.31-42.87-79-79.23H332.75c-16.18,11-31.71,16.23-47.24,16.23S254.45,76.46,238.27,65.42ZM13.7,445c-9.71-6.5,0-21.44,9.71-14.94a106.37,106.37,0,0,0,29.12,12.34c11,3.25,23.3,4.55,35.6,4.55s23.94-1.3,34.94-4.55c40.77-10.39,49.19-32.47,103.55-32.47,26.53,0,53.07,7.14,73.78,20.13,9.7,6.49.64,21.43-9.71,14.94-17.48-11-40.77-16.89-64.07-16.89-49.83,0-59.54,21.43-99,31.83a156.8,156.8,0,0,1-39.47,5.19A166.17,166.17,0,0,1,48,460,125.4,125.4,0,0,1,13.7,445Zm0-66.25c-9.71-5.84,0-20.78,9.71-14.94,8.41,5.85,18.77,9.75,29.12,13a156.93,156.93,0,0,0,35.6,4.55,151.22,151.22,0,0,0,34.94-4.55c40.77-11,49.19-32.47,103.55-32.47,26.53,0,53.07,6.49,73.78,19.48,9.7,6.5.64,21.44-9.71,14.94-17.48-11-40.77-16.88-64.07-16.88-49.83,0-59.54,21.43-99,31.82a156.35,156.35,0,0,1-39.47,5.2A165.69,165.69,0,0,1,48,393.7,125.1,125.1,0,0,1,13.7,378.76Zm0-65.6c-9.71-6.49,0-21.43,9.71-14.93a106.68,106.68,0,0,0,29.12,12.34c11,3.24,23.3,4.54,35.6,4.54s23.94-1.3,34.94-4.54c40.77-11,49.19-32.48,103.55-32.48,26.53,0,53.07,6.5,73.78,20.14,9.7,5.84.64,20.78-9.71,14.93-17.48-11.69-40.77-16.88-64.07-16.88-49.83,0-59.54,20.78-99,31.17-12.29,3.9-25.88,5.2-39.47,5.2s-27.19-1.3-40.13-5.2C35.71,324.21,24.06,319.66,13.7,313.16Z"/></svg>