<svg id="Layer_1" data-name="Layer 1" xmlns="http://www.w3.org/2000/svg" xmlns:xlink="http://www.w3.org/1999/xlink" viewBox="0 0 512 512"><defs><style>.cls-1{fill:url(#linear-gradient);}.cls-2{fill:url(#linear-gradient-2);}.cls-3{fill:url(#linear-gradient-3);}.cls-4{fill:url(#linear-gradient-4);}.cls-5{fill:url(#linear-gradient-5);}</style><linearGradient id="linear-gradient" x1="169.29" y1="-9.84" x2="169.29" y2="557.95" gradientUnits="userSpaceOnUse"><stop offset="0" stop-color="#2a9e2a"/><stop offset="1" stop-color="green"/></linearGradient><linearGradient id="linear-gradient-2" x1="298.56" y1="-9.84" x2="298.56" y2="557.95" xlink:href="#linear-gradient"/><linearGradient id="linear-gradient-3" x1="403.45" y1="-9.84" x2="403.45" y2="557.95" xlink:href="#linear-gradient"/><linearGradient id="linear-gradient-4" x1="420.57" y1="-9.84" x2="420.57" y2="557.95" xlink:href="#linear-gradient"/><linearGradient id="linear-gradient-5" x1="369.2" y1="-9.84" x2="369.2" y2="557.95" xlink:href="#linear-gradient"/></defs><title>Home care ICONS</title><path class="cls-1" d="M294.71,324.93h-.86V281.26c0-59.08-58.22-74.49-89.05-74.49H86.64c-53.94,0-53.94-17.13-53.94-31.68V116.86C32.7,98,44.69,92,52.39,91.18A165.54,165.54,0,0,0,57.53,122c5.14,17.12,13.7,25.69,18.84,25.69,10.27,0,24-25.69,24-65.93s-14.55-65.08-24-65.08S54.1,39,52.39,74.05C37,76.62,15.57,86.89,15.57,117.72v58.22c0,25.69,8.57,48.81,71.07,48.81H204c2.56,0,71.92.85,71.92,57.37v42.81c-15.41.85-27.4,12.84-27.4,26.54v117.3c0,14.56,12.84,26.55,29.11,26.55h16.27c16.27,0,29.11-12,29.11-26.55V352.33C323.82,336.91,310.12,324.93,294.71,324.93Z"/><path class="cls-2" d="M471.09,147.69c10.27,0,24-25.69,24-65.93s-14.55-65.08-24-65.08h-369c9.42,14.56,15.42,38.53,15.42,65.93s-6,50.52-15.42,65.93h369Z"/><path class="cls-3" d="M472,170.81c-5.14,0-8.57,3.42-8.57,8.56v25.68a8.58,8.58,0,0,1-8.56,8.57,25.23,25.23,0,0,0-25.69,25.68v51.38c0,5.13-3.42,8.56-8.56,8.56s-8.56-3.43-8.56-8.56V273.55a25.69,25.69,0,0,0-51.37,0v51.38c0,5.13-3.43,8.56-8.57,8.56s-8.56-3.43-8.56-8.56v-137c0-5.14-3.42-8.56-8.56-8.56s-8.56,3.42-8.56,8.56v137a25.69,25.69,0,0,0,51.37,0V273.55c0-5.13,3.43-8.56,8.56-8.56s8.56,3.43,8.56,8.56v17.13a25.69,25.69,0,0,0,51.38,0V239.3c0-5.13,3.42-8.56,8.56-8.56,13.7,0,25.69-12,25.69-25.69V179.37C480.51,174.23,477.08,170.81,472,170.81Z"/><path class="cls-4" d="M420.57,333.49a25.23,25.23,0,0,0-25.69,25.69v25.68a25.69,25.69,0,1,0,51.38,0V359.18A25.23,25.23,0,0,0,420.57,333.49Z"/><path class="cls-5" d="M360.64,187.93v25.69c0,5.13,3.42,8.56,8.56,8.56s8.56-3.43,8.56-8.56V187.93c0-5.14-3.42-8.56-8.56-8.56S360.64,182.79,360.64,187.93Z"/><path class="cls-3" d="M394.88,187.93v25.69c0,5.13,3.43,8.56,8.57,8.56s8.56-3.43,8.56-8.56V187.93c0-5.14-3.43-8.56-8.56-8.56S394.88,182.79,394.88,187.93Z"/></svg>