<svg id="Layer_1" data-name="Layer 1" xmlns="http://www.w3.org/2000/svg" xmlns:xlink="http://www.w3.org/1999/xlink" viewBox="0 0 512 512"><defs><style>.cls-1{fill:url(#linear-gradient);}.cls-2{fill:url(#linear-gradient-2);}.cls-3{fill:url(#linear-gradient-3);}.cls-4{fill:url(#linear-gradient-4);}.cls-5{fill:url(#linear-gradient-5);}</style><linearGradient id="linear-gradient" x1="256.32" y1="-2.23" x2="256.32" y2="402.2" gradientUnits="userSpaceOnUse"><stop offset="0" stop-color="#2a9e2a"/><stop offset="1" stop-color="green"/></linearGradient><linearGradient id="linear-gradient-2" x1="316.38" y1="-2.23" x2="316.38" y2="402.2" xlink:href="#linear-gradient"/><linearGradient id="linear-gradient-3" x1="227.68" y1="-2.23" x2="227.68" y2="402.2" xlink:href="#linear-gradient"/><linearGradient id="linear-gradient-4" x1="391.86" y1="-2.23" x2="391.86" y2="402.2" xlink:href="#linear-gradient"/><linearGradient id="linear-gradient-5" x1="188.44" y1="-2.23" x2="188.44" y2="402.2" xlink:href="#linear-gradient"/></defs><title>Home care ICONS</title><path class="cls-1" d="M15.81,254.64c.09-132.72,108-240.31,240.81-240.22s240.9,108.26,240.21,241.36A240.27,240.27,0,0,1,256,495.54C123.29,495.64,15.72,387.48,15.81,254.64ZM411.62,104.13,105.49,410.31C162.71,462.7,230.06,483.68,306.1,465c86.42-21.26,141.55-77.6,161.15-164.47C484.1,225.85,462.93,160,411.62,104.13ZM88.17,391.2c10.37-10.35,20.12-20,29.71-29.8.78-.8.83-2.77.56-4-7-32.82-12.83-65.84-15.69-99.31-2.64-30.76-3.41-61.51,2.49-92,3.61-18.66,9.65-36.4,22.17-51.24A61.26,61.26,0,0,1,211,105.63c13.9,10.59,23.75,24.34,30.32,40.37,3.14,7.65,5.39,15.67,8.07,23.61,1.6,0,3.23-.07,4.86,0s3.09.32,4.46.47a4.48,4.48,0,0,0,.46-.76c.43-1.74.83-3.5,1.28-5.24,5.61-21.76,15.79-40.82,33-55.72A62,62,0,0,1,369,104.13c1.17.81,2.39,1.55,2.7,1.75L391,86.52C348.43,49.11,275,25.39,202.11,45.81c-85.33,23.9-139,80.36-157.58,167.06C30.56,278.21,46.86,337.8,88.17,391.2Zm36-37.19c1.21-.43,1.6-.45,1.8-.65,13.24-13.17,26.5-26.33,39.64-39.59a5,5,0,0,0,1.22-3.85c-1-4.89,1.63-6.18,5.66-7.28a26.54,26.54,0,0,0,8.71-4.52c2.85-2.15,5.17-5,7.71-7.56,4.33-4.36,8.65-8.73,13.44-13.57l-43.71-20.53c-.22,2.69-.44,4.45-.51,6.2-.42,10.15-.64,20.31-1.33,30.44-.15,2.32-1.29,5.35-3,6.64a96.46,96.46,0,0,1-15.5,9.41c-1.76.84-5.46.22-6.76-1.15-2.19-2.31-1.06-5.21,1.76-7,3.32-2.09,6.57-4.35,10.07-6.11,3.06-1.54,4-3.69,4.09-7q.51-18.42,1.55-36.82c.4-7.11,3.09-8.54,9.6-5.49q19.11,9,38.18,18c1.39.65,2.83,1.2,4.8,2V242c7.9,2.49,15.46,5,23.12,7.24,5,1.47,7.22.05,9.44-5.71-21.46-3.18-39.56-14.11-57.88-24.58-3.07-1.76-4.39-3.89-4.4-7.44-.05-9.66-.42-19.32-.65-29-.08-3.5.34-6.9,4.86-7s5,3.44,5,6.86c.19,8.19.23,16.38.49,24.57.05,1.48.4,3.68,1.39,4.29,6.64,4.06,13.49,7.78,20.53,11.76,5-11.38,13.24-18.82,23.1-24.81,1.52-.92,2.54-2.79,3.54-4.39,3.71-5.93,7.39-11.9,10.92-17.94.82-1.41,1.71-3.34,1.4-4.77-4.85-22.27-14.28-42.1-31.71-57.43C191.67,96.83,163.19,95,143,109.14c-11.83,8.29-19.16,20-24.35,33.15-9,22.93-11.24,47-11.49,71.33-.36,36.8,4.41,73.14,11,109.27C120,333.15,122.08,343.36,124.15,354ZM367.7,111.47c-17.63-15.36-48.22-15.61-67-.71-19.82,15.7-30.22,37-35.32,61.2-.31,1.49.47,3.44,1.28,4.88,3.11,5.55,6.69,10.84,9.62,16.47s3.88,6,8.29,1.59q39.81-39.79,79.59-79.61C365.26,114.15,366.33,112.94,367.7,111.47Z"/><path class="cls-2" d="M348.67,256.54l-26.13,11.94c-1.78.82-3.58,1.61-5.36,2.43-13.23,6.14-13.24,6.14-13.72,21.06-.07,2.26,0,4.52,0,7.26,9.57,1.07,18.94,2.25,28.34,3.13s10.65,2.72,7.48,11.43c-5.93,16.28-12,32.53-17.71,48.87a18.27,18.27,0,0,0-.61,8.51c1.93,12.44,4.16,24.83,6.37,37.23.59,3.32.15,6.07-3.57,6.82-4.08.82-5.52-1.93-6.12-5.33-2.32-13-4.79-26.06-6.8-39.15a21.55,21.55,0,0,1,1-10c5.59-16,11.54-31.95,17.63-48.63L302.39,309c-1,7.91-1.82,15.49-2.89,23-2.7,19-6.17,37.78-13.77,55.54-3.85,9-8.84,17.3-17.14,22.87-3.63,2.43-8,3.81-13,6.13V410c0-38.33-.07-76.67.13-115a12,12,0,0,1,3.11-7.59c13.83-14.2,27.92-28.14,41.94-42.15,1.1-1.1,2.31-2.1,4.24-3.85v24c2.35-1,4.11-1.64,5.82-2.42,12.79-5.85,25.56-11.75,38.35-17.59,6.37-2.91,9.07-1.16,9.39,5.87.56,12.6,1.08,25.2,1.95,37.78a8.4,8.4,0,0,0,3.22,5.26c3.22,2.48,6.92,4.34,10.37,6.54,2.63,1.68,4.11,4,2.22,7s-4.61,2.85-7.3,1.29c-5.23-3.05-10.53-6-15.45-9.53-1.52-1.09-2.53-3.76-2.67-5.79-.77-10.94-1.19-21.91-1.75-32.87C349.09,259.72,348.88,258.45,348.67,256.54Z"/><path class="cls-3" d="M246.72,415.58c-4-2.43-7.75-4.07-10.74-6.57-9.78-8.19-15.11-19.36-18.54-31.22-3.54-12.23-6-24.78-8.71-37.22a5,5,0,0,1,.91-4c12.06-12.24,24.25-24.34,37.08-37.15Z"/><path class="cls-4" d="M402.22,149.12c1.8,12.21,4.35,24.36,5.28,36.63,3.18,42.28-2.17,84-10.34,125.34-4.33,22-9.84,43.67-14.81,65.49a9.59,9.59,0,0,1-.18,1c-.73,2.26-.88,5.52-4.33,4.74-3.87-.87-2.33-4.13-1.81-6.49,1.27-5.74,2.83-11.41,4.25-17.12,9.09-36.54,16.27-73.43,19.94-110.93,3-30.73,3.36-61.4-3.4-91.83-.48-2.14,1.49-4.81,2.32-7.24Z"/><path class="cls-5" d="M192.54,352.84c3.6,7.38,5.51,13.71,3.84,21.16-2.58,11.47-4.2,23.15-6.24,34.74-.11.64-.37,1.26-.48,1.9-.57,3.55-2.61,5.36-6.16,4.54s-4-3.51-3.42-6.56c1.64-9.34,3.47-18.65,4.88-28,.93-6.15,3.31-12.05,1.31-18.76C185.66,359.77,190.09,356.18,192.54,352.84Z"/></svg>