<svg id="Layer_1" data-name="Layer 1" xmlns="http://www.w3.org/2000/svg" xmlns:xlink="http://www.w3.org/1999/xlink" viewBox="0 0 512 512"><defs><style>.cls-1{fill:url(#linear-gradient);}.cls-2{fill:url(#linear-gradient-2);}.cls-3{fill:url(#linear-gradient-3);}.cls-4{fill:url(#linear-gradient-4);}.cls-5{fill:url(#linear-gradient-5);}.cls-6{fill:url(#linear-gradient-6);}.cls-7{fill:url(#linear-gradient-7);}.cls-8{fill:url(#linear-gradient-8);}</style><linearGradient id="linear-gradient" x1="256.32" y1="26.87" x2="256.32" y2="501.81" gradientUnits="userSpaceOnUse"><stop offset="0" stop-color="#2a9e2a"/><stop offset="1" stop-color="green"/></linearGradient><linearGradient id="linear-gradient-2" x1="165.96" y1="26.87" x2="165.96" y2="501.81" xlink:href="#linear-gradient"/><linearGradient id="linear-gradient-3" x1="154.18" y1="26.87" x2="154.18" y2="501.81" xlink:href="#linear-gradient"/><linearGradient id="linear-gradient-4" x1="193.46" y1="26.87" x2="193.46" y2="501.81" xlink:href="#linear-gradient"/><linearGradient id="linear-gradient-5" x1="366.32" y1="26.87" x2="366.32" y2="501.81" xlink:href="#linear-gradient"/><linearGradient id="linear-gradient-6" x1="342.75" y1="26.87" x2="342.75" y2="501.81" xlink:href="#linear-gradient"/><linearGradient id="linear-gradient-7" x1="389.89" y1="26.87" x2="389.89" y2="501.81" xlink:href="#linear-gradient"/><linearGradient id="linear-gradient-8" x1="366.32" y1="26.87" x2="366.32" y2="501.81" xlink:href="#linear-gradient"/></defs><title>Home care ICONS</title><path class="cls-1" d="M400.17,39.85c-47.42-10.67-110.34,3.64-143.85,58.21C222.8,43.49,159.86,29.18,112.46,39.85c-60.57,13.63-99.72,63.86-99.72,128a198.68,198.68,0,0,0,8.41,55.32C56.89,345.38,194.17,458,254,476.12a8,8,0,0,0,4.29.07c80.57-21.35,241.56-169.65,241.56-308.37C499.89,103.71,460.75,53.48,400.17,39.85ZM173.22,408c-48.86-40.93-100.65-100-127-161.72l.06.05a295.42,295.42,0,0,0,47.23,33l28.84,16.19a8,8,0,0,0,5.17.89L182.42,287a5.46,5.46,0,0,1,4.8,3.52,6.77,6.77,0,0,1,.35,2,5.6,5.6,0,0,1-4.37,5.53l-22.71,5a7.86,7.86,0,0,0-3.24,13.79l53,42.74a7.63,7.63,0,0,0,1.28.84,7.47,7.47,0,0,1,3.36,3.57,7.88,7.88,0,0,1-2.56,8.64l-34.47-26.31-9.53,12.49,32.14,24.53-7.71,7L162.85,365l-10.18,12,28.27,24ZM291.15,445.1l-6-6.23,30-20.59-8.88-13L274,427.42,268.76,422l31.33-23.26-9.36-12.62-33,24.5h0a7.91,7.91,0,0,1-2.64-8.67,7.68,7.68,0,0,1,3.36-3.67,8.36,8.36,0,0,0,1.21-.83l48.84-40.67A7.86,7.86,0,0,0,305.07,343l-22.73-4.75a5.62,5.62,0,0,1,.66-11.1L338,336a7.84,7.84,0,0,0,5.17-.95l28.58-16.49a296.56,296.56,0,0,0,46.91-33.57l50.91-44.56C436.61,326.88,354.36,409.5,291.15,445.1ZM478.53,211.67l-70.21,61.44A280,280,0,0,1,363.9,304.9L337.74,320l-53-8.44a7.21,7.21,0,0,0-1.23-.1,21.34,21.34,0,0,0-4.37,42.22l6.82,1.43L250.1,384.94A22.82,22.82,0,0,0,246.9,422l29.66,30.62a141.42,141.42,0,0,1-20.09,7.78A262,262,0,0,1,185.56,418l37.17-33.52a23.48,23.48,0,0,0,6.43-26.91A23.14,23.14,0,0,0,219.54,347L179.83,315l6.77-1.5a21.21,21.21,0,0,0,16.68-20.87,22.53,22.53,0,0,0-1.13-6.95A21.23,21.23,0,0,0,182,271.3a11,11,0,0,0-1.52.11l-52.87,9-26.41-14.82A280.35,280.35,0,0,1,56.5,234.37l-20.82-17.8a180.86,180.86,0,0,1-7.22-48.75c0-68.55,45.18-103.13,87.46-112.64a122.47,122.47,0,0,1,26.72-2.91,115.12,115.12,0,0,1,106.58,65.64,7.85,7.85,0,0,0,14.2,0C290.69,60.34,351.67,45,396.72,55.18c42.28,9.51,87.46,44.09,87.46,112.64A184.79,184.79,0,0,1,478.53,211.67Z"/><path class="cls-2" d="M231.09,197.09l1.66-74a7.86,7.86,0,0,0-12.22-6.71l-21.59,14.39H148.7l-21.6-14.39a7.86,7.86,0,0,0-12.21,6.54v69.44L99.58,238.25a7.78,7.78,0,0,0-.41,2.49v15.71h15.72V242l15.31-45.93a7.77,7.77,0,0,0,.4-2.49v-56L142,145.13a7.87,7.87,0,0,0,4.36,1.32h55a7.87,7.87,0,0,0,4.36-1.32l11-7.35L215.41,195l-13.26,26.54a7.84,7.84,0,0,0,0,7L217,258.3v37.44h15.72V256.45a7.91,7.91,0,0,0-.83-3.51L218,225l12.3-24.59A7.92,7.92,0,0,0,231.09,197.09Z"/><circle class="cls-3" cx="154.18" cy="170.02" r="7.86"/><circle class="cls-4" cx="193.46" cy="170.02" r="7.86"/><path class="cls-5" d="M435.26,117.93l-31.1-10.36a7.77,7.77,0,0,0-2.48-.41H331a7.77,7.77,0,0,0-2.48.41l-31.09,10.36a15.94,15.94,0,0,0-10.49,12L280,172.69a7.87,7.87,0,0,0,3.86,8.08l23.54,13.45v25l-18.81,37.62a7.85,7.85,0,0,0-.83,3.52v35.36h15.71V262.23l18.82-37.62a8,8,0,0,0,.83-3.52V189.66a7.87,7.87,0,0,0-4-6.82l-22.78-13,6-37,29.89-10h68.21l29.77,9.57,6,37.38-22.78,13a7.84,7.84,0,0,0-3.95,6.82v31.43a7.87,7.87,0,0,0,1.57,4.72l11.78,15.71,12.57-9.43-10.21-13.62V194.22l23.54-13.45a7.85,7.85,0,0,0,3.86-8.08l-7-43.14A15.8,15.8,0,0,0,435.26,117.93Z"/><circle class="cls-6" cx="342.75" cy="162.16" r="7.86"/><circle class="cls-7" cx="389.89" cy="162.16" r="7.86"/><ellipse class="cls-8" cx="366.32" cy="193.59" rx="9.82" ry="7.86"/></svg>