<svg id="Layer_1" data-name="Layer 1" xmlns="http://www.w3.org/2000/svg" xmlns:xlink="http://www.w3.org/1999/xlink" viewBox="0 0 512 512"><defs><style>.cls-1{fill:url(#linear-gradient);}.cls-2{fill:url(#linear-gradient-2);}.cls-3{fill:url(#linear-gradient-3);}.cls-4{fill:url(#linear-gradient-4);}.cls-5{fill:url(#linear-gradient-5);}.cls-6{fill:url(#linear-gradient-6);}</style><linearGradient id="linear-gradient" x1="110.04" y1="-34.91" x2="110.04" y2="363.75" gradientUnits="userSpaceOnUse"><stop offset="0" stop-color="#2a9e2a"/><stop offset="1" stop-color="green"/></linearGradient><linearGradient id="linear-gradient-2" x1="233.11" y1="-34.91" x2="233.11" y2="363.75" xlink:href="#linear-gradient"/><linearGradient id="linear-gradient-3" x1="259.45" y1="-34.91" x2="259.45" y2="363.75" xlink:href="#linear-gradient"/><linearGradient id="linear-gradient-4" x1="404.06" y1="-34.91" x2="404.06" y2="363.75" xlink:href="#linear-gradient"/><linearGradient id="linear-gradient-5" x1="132.6" y1="-34.91" x2="132.6" y2="363.75" xlink:href="#linear-gradient"/><linearGradient id="linear-gradient-6" x1="133.19" y1="-34.91" x2="133.19" y2="363.75" xlink:href="#linear-gradient"/></defs><title>Home care ICONS</title><path class="cls-1" d="M112.85,407.34a50.8,50.8,0,0,1-3.48,4.34,1.93,1.93,0,0,1-1.88-.14,1.89,1.89,0,0,1,0-1.88c2.3-1.84,1.93-3.51,0-5.37a1.7,1.7,0,0,1,0-1.68c.3-.36,1.47-.57,1.66-.35C110.35,403.76,111.45,405.4,112.85,407.34Z"/><path class="cls-2" d="M370.68,159.21c-17.39.06-34.78.08-52.18-.05a5.67,5.67,0,0,1-4.11-1.9,74.82,74.82,0,0,0-18-18.67,5.36,5.36,0,0,1-1.8-3.6c-.24-3.62-.15-7.26-.06-10.9,0-1.79-.4-2.68-2.45-2.68q-33.45.07-66.91,0c-1.83,0-2.44.63-2.4,2.38a95.46,95.46,0,0,1-.08,9.72,5.28,5.28,0,0,1-1.85,3.57,70.56,70.56,0,0,0-20.37,20.75A4.61,4.61,0,0,1,197.7,160a131.92,131.92,0,0,0-26.41,5.28,97.71,97.71,0,0,0-30.73,15.3c-13.78,10.27-23.48,23.77-31.3,38.87-4.75,7-7.91,19.06-7.91,19.06-2.94,12.61-5.89,25.3-8.92,38.3H172c1.07-6,1.58-11.85,3.19-17.35,3.86-13.2,13.24-20.19,26.63-22.28a6.07,6.07,0,0,1,6.12,2.1q19.19,20.64,47.44,21.9a66.49,66.49,0,0,0,23.76-3.49,64.22,64.22,0,0,0,28.52-18.79,6.91,6.91,0,0,1,5.78-2.56c18.87.11,37.74.06,56.6.06h3.54c.09-1.18.21-1.94.21-2.71,0-23.86,0-47.72.06-71.58C373.81,159.6,372.84,159.2,370.68,159.21Z"/><path class="cls-3" d="M176.29,63.51c13.63-.75,27.23-1.84,40.84-2.82,5.75-.42,11.49-.94,17.2-1.4,1.22,7.5,2.07,8.49,10.7,12.77V95.55c-1.17.08-2.22.2-3.27.2-7.37,0-14.73.07-22.1,0-2.37,0-3.41.81-3.36,3.25.1,4.62,0,9.24,0,13.85,0,2.12.69,3.17,3.09,3.17q39.35-.1,78.69,0c2.43,0,3-1.1,3-3.23-.05-4.52-.1-9,0-13.56.07-2.52-.84-3.5-3.42-3.47-7.56.09-15.13,0-22.69,0-1,0-2.09-.11-3.43-.19V79.77l0-.06,0-.1,0-3.83c-.18-3.49,1.37-4.62,4.16-5.75,3.46-1.39,5.09-4.36,5.79-7.89.19-.92.33-1.85.49-2.73,1.43,0,2.51-.07,3.58,0q27.32,2,54.63,4c8.49.63,13.6-2.89,15.9-11S350.71,34.13,342.63,35q-29.28,3.08-58.54,6.37c-1.55.17-2.43-.12-2.85-1.67-1.07-4-3.79-6.4-7.65-7.79a3.42,3.42,0,0,1-1.75-2.43c-.25-2.33,0-4.71-.11-7.06-.21-5.7-4.54-10.61-10.62-12.15-5-1.27-11.31,1.67-14.12,6.22-2.49,4-1.69,8.36-1.8,12.63,0,1.39-.11,2.42-1.81,2.8a10.55,10.55,0,0,0-8.07,7.33,2.27,2.27,0,0,1-2.8,1.78c-13.07-1.49-26.15-2.86-39.22-4.25-6-.64-12.11-1.69-18.16-1.71-7,0-13.08,7.46-12.76,14.72C162.71,57.56,168.87,63.92,176.29,63.51Z"/><path class="cls-4" d="M417.48,142.83q-13.26-.18-26.52,0c-6.95.08-11.11,4.41-11.12,11.34q0,22.54,0,45.08c0,15.23,0,30.45,0,45.68a10.32,10.32,0,0,0,10.73,10.75q13.41.06,26.82,0c6.66,0,10.85-4.13,10.86-10.84q.06-45.53,0-91.05C428.25,147.1,424.15,142.92,417.48,142.83Z"/><path class="cls-5" d="M170.6,283.46q-38,0-76,0c-4.4,0-5.52,1.16-5.55,5.65q0,9.42,0,18.85c0,4.62,1.36,5.9,6,5.91h37.41q19.16,0,38.3,0c3.81,0,5.4-1.59,5.41-5.32,0-6.48,0-13,0-19.44C176.16,284.79,174.9,283.47,170.6,283.46Z"/><path class="cls-6" d="M177.46,433.26c-6.63-15-14.25-29.54-21.57-44.22-5-10-10.27-19.75-15.2-29.72-2.68-5.43-4.92-11.09-7.4-16.75-.35.69-.69,1.27-1,1.88-4.43,10.08-8.76,20.2-13.32,30.22-6.37,10-20.91,40.44-23.84,46.61a8.24,8.24,0,0,0-.53,1.11c-1.95,4.9-4.34,9.64-6.15,14.59-3.07,8.43-5.33,16.94-3.44,26.15,3.09,15,11.61,25.95,24.93,32.94,13.74,7.21,28.19,7.93,42.6,1.95a46.32,46.32,0,0,0,25.49-25.32C183.75,459.47,183.12,446.07,177.46,433.26Zm-66,41.32c-4.81-3.92-8.31-8.84-9.51-15a37.69,37.69,0,0,1,2.75-22.17c3.87-9.06,8.31-17.88,12.53-26.79,1.39-2.94,2.9-5.83,4.35-8.74a55.32,55.32,0,0,0,2.72-4.82h0s0,0,0-.08a103.92,103.92,0,0,0,7.91-23.18,31.67,31.67,0,0,1-.18,6.47c-.08,1-.14,1.83-.13,2.46a68.68,68.68,0,0,1-1.7,7.78c-1.44,5.18-2.93,10.35-4.59,15.46-3.31,10.12-7.21,20.08-10,30.34-3.71,13.63-1.82,26.64,7,38.15,2.58,3.39,5.49,6.52,8.71,10.32C123.65,482.31,117.16,479.21,111.5,474.58Z"/></svg>