<svg id="Layer_1" data-name="Layer 1" xmlns="http://www.w3.org/2000/svg" xmlns:xlink="http://www.w3.org/1999/xlink" viewBox="0 0 512 512"><defs><style>.cls-1{fill:url(#linear-gradient);}.cls-2{fill:url(#linear-gradient-2);}.cls-3{fill:url(#linear-gradient-3);}.cls-4{fill:url(#linear-gradient-4);}</style><linearGradient id="linear-gradient" x1="90.15" y1="-28.28" x2="90.15" y2="416.07" gradientUnits="userSpaceOnUse"><stop offset="0" stop-color="#2a9e2a"/><stop offset="1" stop-color="green"/></linearGradient><linearGradient id="linear-gradient-2" x1="279" y1="-28.28" x2="279" y2="416.07" xlink:href="#linear-gradient"/><linearGradient id="linear-gradient-3" x1="420.49" y1="-28.28" x2="420.49" y2="416.07" xlink:href="#linear-gradient"/><linearGradient id="linear-gradient-4" x1="231.64" y1="-28.28" x2="231.64" y2="416.07" xlink:href="#linear-gradient"/></defs><title>Home care ICONS</title><path class="cls-1" d="M118,257.84h37.29c2.63,0,3.56-1.76,2.08-3.94l-68.27-100c-1.47-2.17-3.87-2.17-5.36,0l-68.26,100c-1.48,2.17-.56,3.93,2.07,3.93H54.92a200.35,200.35,0,0,0,69.27,150.23l41.31-47.71A137.29,137.29,0,0,1,118,257.84Z"/><path class="cls-2" d="M256.66,393.81V356.5c0-2.62-1.76-3.54-3.94-2.06l-100,68.26c-2.17,1.47-2.17,3.88,0,5.36l100,68.26c2.18,1.47,3.94.55,3.94-2.07V456.92a200.34,200.34,0,0,0,150.24-69.28l-47.7-41.3A137.36,137.36,0,0,1,256.66,393.81Z"/><path class="cls-3" d="M493.06,255.18H455.72a200.36,200.36,0,0,0-69.27-150.25l-41.31,47.72a137.22,137.22,0,0,1,47.47,102.53H355.32c-2.63,0-3.56,1.76-2.07,3.93l68.26,100c1.47,2.16,3.88,2.16,5.36,0l68.26-100C496.61,257,495.68,255.18,493.06,255.18Z"/><path class="cls-4" d="M254,119.22v37.3c0,2.62,1.76,3.55,3.92,2.07l100-68.26c2.17-1.48,2.17-3.89,0-5.37l-100-68.25c-2.16-1.48-3.92-.56-3.92,2.06V56.11a200.4,200.4,0,0,0-150.24,69.27l47.72,41.31A137.22,137.22,0,0,1,254,119.22Z"/></svg>