<svg id="Layer_1" data-name="Layer 1" xmlns="http://www.w3.org/2000/svg" xmlns:xlink="http://www.w3.org/1999/xlink" viewBox="0 0 512 512"><defs><style>.cls-1{fill:url(#linear-gradient);}.cls-2{fill:url(#linear-gradient-2);}.cls-3{fill:url(#linear-gradient-3);}.cls-4{fill:url(#linear-gradient-4);}</style><linearGradient id="linear-gradient" x1="116.08" y1="42.19" x2="116.08" y2="425.22" gradientUnits="userSpaceOnUse"><stop offset="0" stop-color="#2a9e2a"/><stop offset="1" stop-color="green"/></linearGradient><linearGradient id="linear-gradient-2" x1="396.56" y1="42.19" x2="396.56" y2="425.22" xlink:href="#linear-gradient"/><linearGradient id="linear-gradient-3" x1="172.31" y1="42.19" x2="172.31" y2="425.22" xlink:href="#linear-gradient"/><linearGradient id="linear-gradient-4" x1="256.32" y1="42.19" x2="256.32" y2="425.22" xlink:href="#linear-gradient"/></defs><title>Home care ICONS</title><circle class="cls-1" cx="116.08" cy="399.12" r="37.94"/><circle class="cls-2" cx="396.56" cy="399.12" r="37.94"/><path class="cls-3" d="M164.18,156.58c-10.84,14.91-29.81,42-29.81,56.91a37.94,37.94,0,0,0,75.88,0c0-14.91-19-42.68-29.81-56.91C175.7,151.84,168.24,151.84,164.18,156.58Z"/><path class="cls-4" d="M490.05,328.66H477.86a6.78,6.78,0,0,1-6.78-6.77V233.81c0-.67-.67-1.35-.67-2L421,128.8c-1.35-2.71-3.39-4.06-6.77-4.06H344.39a5.34,5.34,0,0,1-5.42-5.42V80A3.9,3.9,0,0,0,334.91,76h-315A3.9,3.9,0,0,0,15.81,80V383.54a4.38,4.38,0,0,0,4.06,4.07H49.68c2.71,0,6.1-2,6.78-4.75a61.85,61.85,0,0,1,119.24,0,6.72,6.72,0,0,0,6.77,4.75h147.7c2.71,0,6.09-2,6.77-4.75a61.85,61.85,0,0,1,119.24,0,6.74,6.74,0,0,0,6.78,4.75h27.09a6.79,6.79,0,0,0,6.78-6.78V336.12C496.83,332.05,493.44,328.66,490.05,328.66ZM171.63,290.72c-48.78,0-88.75-40-88.75-88.75s40-88.75,88.75-88.75,88.75,40,88.75,88.75A88.19,88.19,0,0,1,171.63,290.72Zm263.55-57.58h-81.3a4.64,4.64,0,0,1-4.74-4.75V147.1a4.64,4.64,0,0,1,4.74-4.75h45.39c2,0,3.39,1.36,4.74,2.71l35.91,81.3C441.28,229.07,438.57,233.14,435.18,233.14Z"/></svg>