<svg id="Layer_1" data-name="Layer 1" xmlns="http://www.w3.org/2000/svg" xmlns:xlink="http://www.w3.org/1999/xlink" viewBox="0 0 512 512"><defs><style>.cls-1{fill:url(#linear-gradient);}</style><linearGradient id="linear-gradient" x1="256.32" y1="91.21" x2="256.32" y2="508.3" gradientUnits="userSpaceOnUse"><stop offset="0" stop-color="#2a9e2a"/><stop offset="1" stop-color="green"/></linearGradient></defs><title>Home care ICONS</title><path class="cls-1" d="M199.64,434.65h81v48.58h-81Zm48.58-16.19H313V386.07H248.22Zm48.59-48.59h48.58V321.29H296.81Zm0,113.36h64.77V434.65H296.81ZM102.47,386.07v32.39h48.88V386.07Zm129.56,0H167.54v32.39H232ZM102.47,475.14a8.1,8.1,0,0,0,8.1,8.09h72.87V434.65h-81Zm275.31,8.09h40.48a8.09,8.09,0,0,0,8.1-8.09V434.65H377.78ZM394,418.46h32.39V386.07H394Zm-64.78,0h48.59V386.07H329.19ZM449.13,139.78a8.08,8.08,0,0,1-6.57,3.37H410.17v48.58h16.19a8.1,8.1,0,0,1,0,16.2H410.17V321.29h8.09a8.09,8.09,0,0,1,8.1,8.1v40.48H361.58V321.29H394V207.93H345.39V216a8.1,8.1,0,0,1-8.1,8.1H264.42v97.17h16.19v48.58h-81V321.29h48.58V224.12H175.35a8.09,8.09,0,0,1-8.1-8.1v-8.09H133.71V321.29h49.73v48.58h-81V329.39a8.1,8.1,0,0,1,8.1-8.1h6.94V207.93h-15v24.29a8.1,8.1,0,0,1-8.1,8.1H70.08a8.1,8.1,0,0,1,0-16.2h16.2V199.83a8.1,8.1,0,0,1,8.09-8.1h23.14V143.15H86.28a8.09,8.09,0,0,1-7.68-10.66L111,35.32a8.09,8.09,0,0,1,7.68-5.53h291.5a8.1,8.1,0,0,1,7.68,5.53l32.38,97.17A8.07,8.07,0,0,1,449.13,139.78ZM394,191.73V143.15H133.71v48.58h33.54v-8.09a8.09,8.09,0,0,1,8.1-8.1H337.29a8.1,8.1,0,0,1,8.1,8.1v8.09Z"/></svg>