<svg id="Layer_1" data-name="Layer 1" xmlns="http://www.w3.org/2000/svg" xmlns:xlink="http://www.w3.org/1999/xlink" viewBox="0 0 512 512"><defs><style>.cls-1{fill:url(#linear-gradient);}.cls-2{fill:url(#linear-gradient-3);}.cls-3{fill:url(#linear-gradient-4);}.cls-4{fill:url(#linear-gradient-5);}.cls-5{fill:url(#linear-gradient-6);}</style><linearGradient id="linear-gradient" x1="254.62" y1="-36.45" x2="254.62" y2="535.48" gradientUnits="userSpaceOnUse"><stop offset="0" stop-color="#bf5abf"/><stop offset="0" stop-color="#4f194f"/><stop offset="1" stop-color="#380036"/></linearGradient><linearGradient id="linear-gradient-3" x1="168.55" y1="-36.45" x2="168.55" y2="535.48" xlink:href="#linear-gradient"/><linearGradient id="linear-gradient-4" x1="254.53" y1="-36.45" x2="254.53" y2="535.48" gradientTransform="translate(189.3 -138.99) rotate(46.99)" xlink:href="#linear-gradient"/><linearGradient id="linear-gradient-5" x1="213.64" y1="-36.45" x2="213.64" y2="535.48" xlink:href="#linear-gradient"/><linearGradient id="linear-gradient-6" x1="295.6" y1="-36.45" x2="295.6" y2="535.48" xlink:href="#linear-gradient"/></defs><title>Business Care ICONS</title><rect class="cls-1" x="230.03" y="299.92" width="49.18" height="32.79" rx="8.2"/><path class="cls-1" d="M464.65,244.34l-38.73-31-15.75-71a8.2,8.2,0,0,0-8-6.42H385.76V21.24a8.2,8.2,0,0,0-8.2-8.19H131.67a8.2,8.2,0,0,0-8.2,8.19V136H107.08a8.21,8.21,0,0,0-8,6.42l-15.76,71-38.73,31a8.21,8.21,0,0,0-3.07,6.4v82a8.28,8.28,0,0,0,1.17,4.22L66.1,376V504.83H82.49V373.69a8.13,8.13,0,0,0-1.17-4.22l-23.42-39V254.68l37.91-30.33a8.25,8.25,0,0,0,2.89-4.62l14.94-67.35h9.83V236L93.63,260.85a8.19,8.19,0,0,0-2.94,6.28v24.59h16.39V271l40.48-33.74,14.27,14.27-20.32,27.1a8.15,8.15,0,0,0-1.53,6.26l8.08,48.52v20.49l-14,14a8.23,8.23,0,0,0-2.4,5.82V504.83h16.39V377.08l14-14a8.23,8.23,0,0,0,2.4-5.8H344.78a8.19,8.19,0,0,0,2.4,5.8l14,14V504.83h16.39V373.69a8.19,8.19,0,0,0-2.4-5.8l-14-14V333.41l8.08-48.51a8.17,8.17,0,0,0-1.52-6.29l-20.33-27.1,14.28-14.27L402.15,271v20.74h16.39V267.13a8.17,8.17,0,0,0-2.94-6.3L385.76,236V152.38h9.84l14.95,67.35a8.24,8.24,0,0,0,2.89,4.63l37.89,30.32v75.76l-23.42,39a8.23,8.23,0,0,0-1.17,4.22V504.83h16.39V376l23.42-39a8.19,8.19,0,0,0,1.17-4.22v-82A8.21,8.21,0,0,0,464.65,244.34ZM164.46,340.9v-8.19a7.61,7.61,0,0,0-.12-1.35l-6.6-39.64H351.5l-6.61,39.64a8.68,8.68,0,0,0-.11,1.35v8.19Zm202-121a8.17,8.17,0,0,0-11,.51L330.79,245a8.19,8.19,0,0,0-.77,10.71l14.76,19.67H164.46l14.75-19.67a8.19,8.19,0,0,0-.76-10.71l-24.59-24.59a8.19,8.19,0,0,0-11.05-.51l-2.94,2.46V29.44h229.5V222.31Z"/><path class="cls-2" d="M189.05,37.64H156.26a8.19,8.19,0,0,0-8.2,8.19V78.62h16.4V54h24.59Z"/><rect class="cls-3" x="170.46" y="140.06" width="168.13" height="16.4" transform="translate(-27.51 233.23) rotate(-46.99)"/><path class="cls-4" d="M213.64,127.8a24.59,24.59,0,1,0-24.59-24.59A24.58,24.58,0,0,0,213.64,127.8Zm0-32.79a8.2,8.2,0,1,1-8.2,8.2A8.2,8.2,0,0,1,213.64,95Z"/><path class="cls-5" d="M295.6,177a24.59,24.59,0,1,0,24.59,24.59A24.59,24.59,0,0,0,295.6,177Zm0,32.79a8.2,8.2,0,1,1,8.2-8.2A8.2,8.2,0,0,1,295.6,209.76Z"/></svg>