<svg id="Layer_1" data-name="Layer 1" xmlns="http://www.w3.org/2000/svg" xmlns:xlink="http://www.w3.org/1999/xlink" viewBox="0 0 512 512"><defs><style>.cls-1{fill:url(#linear-gradient);}.cls-2{fill:url(#linear-gradient-2);}.cls-3{fill:url(#linear-gradient-3);}.cls-4{fill:url(#linear-gradient-4);}.cls-5{fill:url(#linear-gradient-5);}.cls-6{fill:url(#linear-gradient-6);}.cls-7{fill:url(#linear-gradient-7);}</style><linearGradient id="linear-gradient" x1="254.62" y1="2.36" x2="254.62" y2="461.21" gradientUnits="userSpaceOnUse"><stop offset="0" stop-color="#bf5abf"/><stop offset="0" stop-color="#4f194f"/><stop offset="1" stop-color="#380036"/></linearGradient><linearGradient id="linear-gradient-2" x1="337.97" y1="2.36" x2="337.97" y2="461.21" gradientTransform="matrix(0.83, 0.56, -0.56, 0.83, 84.91, -181.09)" xlink:href="#linear-gradient"/><linearGradient id="linear-gradient-3" x1="344.34" y1="2.36" x2="344.34" y2="461.21" gradientTransform="translate(5.76 -24.22) rotate(4.06)" xlink:href="#linear-gradient"/><linearGradient id="linear-gradient-4" x1="319.68" y1="2.36" x2="319.68" y2="461.21" gradientTransform="translate(210.57 -268.26) rotate(64.06)" xlink:href="#linear-gradient"/><linearGradient id="linear-gradient-5" x1="254.62" y1="2.36" x2="254.62" y2="461.21" xlink:href="#linear-gradient"/><linearGradient id="linear-gradient-6" x1="79.95" y1="2.36" x2="79.95" y2="461.21" xlink:href="#linear-gradient"/><linearGradient id="linear-gradient-7" x1="128.46" y1="2.36" x2="128.46" y2="461.21" xlink:href="#linear-gradient"/></defs><title>Business Care ICONS</title><path class="cls-1" d="M127.58,297a127,127,0,0,0,127,127c71.1,0,127.07-57.78,127.07-127A127,127,0,0,0,232.59,171.9a29.51,29.51,0,0,0-.36-24.23c30.38-12.41,63.91-15.12,96.62-12.45a6.28,6.28,0,0,0,5.85-9.58h0L317.48,98.28a31.88,31.88,0,0,0-33.63-53.43L266.63,17.49a3.61,3.61,0,0,0-.25-.3A6.13,6.13,0,0,0,261,14.61a2.72,2.72,0,0,0-.28,0,6.26,6.26,0,0,0-5.27,4c-13.9,36.24-34.92,70-66.7,92.74a9.31,9.31,0,0,0-11.33-1l-24.63,15.49a9.43,9.43,0,0,0-2.95,13l4.36,6.93-11,6.95a9.45,9.45,0,0,0-3,13l6.17,9.78a9.4,9.4,0,0,0,13,3l11-6.94,4.36,6.93a9.43,9.43,0,0,0,13,3l1.3-.81,3.55,5.64A126.28,126.28,0,0,0,127.58,297ZM155.4,172.11a1.91,1.91,0,0,1-2.65-.61l-6.16-9.78a1.91,1.91,0,0,1,.6-2.65l11-6.95,8.21,13Zm95.46,5.67V242a117.66,117.66,0,0,1-41.63-8.88C215.46,211.67,228.9,181.3,250.86,177.78Zm85.43,32a117.59,117.59,0,0,1-29.43,20.12c-6.76-22.79-16.51-40-28-50A118.33,118.33,0,0,1,336.29,209.8Zm5.3,169.12a126.78,126.78,0,0,0-32.66-22.39,244.91,244.91,0,0,0,7-55.8h58.13A118.59,118.59,0,0,1,341.59,378.92ZM278.87,414c11.51-10,21.27-27.25,28-50.1a119.28,119.28,0,0,1,29.39,20.27A118,118,0,0,1,278.87,414Zm-106-29.82a119.43,119.43,0,0,1,29.41-20.28c6.74,22.84,16.48,40.08,28,50.09A118.23,118.23,0,0,1,172.92,384.2Zm-37.75-83.47h58.1a243,243,0,0,0,7,55.8,126.87,126.87,0,0,0-32.67,22.4A118.73,118.73,0,0,1,135.17,300.73Zm115.69-51.27v43.76H200.78a237.14,237.14,0,0,1,6.5-52.84A125.2,125.2,0,0,0,250.86,249.46Zm0,166.73c-16.79-2.69-32.35-23.32-41.62-55.37A119.13,119.13,0,0,1,250.86,352Zm7.51,0V352A119.36,119.36,0,0,1,300,360.82C290.7,392.85,275.13,413.48,258.37,416.18Zm0-71.68V300.73h50.06A237.2,237.2,0,0,1,302,353.51,126.8,126.8,0,0,0,258.37,344.5Zm0-51.28V249.46a125.51,125.51,0,0,0,43.56-9.08,237.14,237.14,0,0,1,6.5,52.84Zm0-51.27V177.79c16.75,2.7,32.3,23.3,41.6,55.28A117.9,117.9,0,0,1,258.37,242Zm-7.51,58.78V344.5a126.8,126.8,0,0,0-43.58,9,236.58,236.58,0,0,1-6.51-52.78Zm65.08-7.51a244.25,244.25,0,0,0-7-55.87,125,125,0,0,0,32.68-22.27,118.39,118.39,0,0,1,32.49,78.14Zm-122.67,0H135.18a118.49,118.49,0,0,1,32.45-78.14,125.4,125.4,0,0,0,32.68,22.26A244.41,244.41,0,0,0,193.27,293.22Zm9.07-63.31A117.76,117.76,0,0,1,173,209.83,118,118,0,0,1,230.49,180C216.43,192.16,207.56,212.35,202.34,229.91Zm23.08-79.24A22.05,22.05,0,0,1,222.6,174c-.38.09-4.29,1.18-5.83,1.66l-5.66-9,1.3-.82a9.48,9.48,0,0,0,4-10.67C219.18,153.72,222.33,152.11,225.42,150.67ZM261.6,23.58l65.43,104c-5-.37-9.85-.59-14.67-.7L255.88,37.12C257.87,32.72,259.78,28.22,261.6,23.58ZM317.52,61a24.25,24.25,0,0,1-4.08,30.9L287.89,51.27A24.26,24.26,0,0,1,317.52,61ZM252.09,45.17l51.37,81.61c-34.51.4-64.95,7.71-90.77,21.89L193.1,117.55C217.05,100.39,236.81,76.12,252.09,45.17Zm-71,129.28c-.24-.37-26.49-42.08-24.93-39.61a1.92,1.92,0,0,1,.6-2.64l24.63-15.5a1.91,1.91,0,0,1,2.64.6c-.35-.55,3.48,5.57,24.91,39.62a1.89,1.89,0,0,1-.59,2.62l-24.61,15.51A1.92,1.92,0,0,1,181.14,174.45Zm23.62-3.73,4.78,7.58c-3.5,1.32-6.93,2.77-10.26,4.4l-3.85-6.11Z"/><rect class="cls-2" x="333.23" y="44.27" width="9.48" height="7.5" transform="translate(31.11 197.58) rotate(-34.07)"/><rect class="cls-3" x="339.6" y="65.3" width="9.48" height="7.5" transform="translate(-4.03 24.56) rotate(-4.06)"/><rect class="cls-4" x="314.94" y="30.41" width="9.48" height="7.51" transform="translate(149.12 306.7) rotate(-64.06)"/><path class="cls-5" d="M74.62,498.09h360a62.11,62.11,0,0,0,62-62,3.75,3.75,0,0,0-3.75-3.75h-17v-236a31.89,31.89,0,0,0-31.85-31.85H400.66V172h43.42a24.39,24.39,0,0,1,24.35,24.35v236H452.89V196.36a8.83,8.83,0,0,0-8.81-8.82H400.66v7.51h43.42a1.31,1.31,0,0,1,1.31,1.31V432.3H63.86V196.36a1.31,1.31,0,0,1,1.31-1.31h43.39v-7.51H65.17a8.83,8.83,0,0,0-8.81,8.82V432.29H40.78V196.36A24.42,24.42,0,0,1,65.17,172h43.39v-7.5H65.17a31.93,31.93,0,0,0-31.89,31.89V432.3h-17a3.75,3.75,0,0,0-3.76,3.75A62.12,62.12,0,0,0,74.62,498.09ZM317.48,439.8l-12,19.72H203.72l-12-19.72ZM183,439.8l15.44,25.42a3.73,3.73,0,0,0,3.2,1.8h106a3.75,3.75,0,0,0,3.21-1.8l15.43-25.42H489a54.61,54.61,0,0,1-54.41,50.78h-360A54.6,54.6,0,0,1,20.21,439.8Z"/><path class="cls-6" d="M80,479.8a14.61,14.61,0,1,0-14.61-14.61A14.62,14.62,0,0,0,80,479.8Zm0-21.71a7.11,7.11,0,1,1,0,14.21,7.11,7.11,0,0,1,0-14.21Z"/><path class="cls-7" d="M128.46,479.8a14.61,14.61,0,1,0-14.61-14.61A14.63,14.63,0,0,0,128.46,479.8Zm0-21.71a7.11,7.11,0,0,1,0,14.21,7.11,7.11,0,1,1,0-14.21Z"/></svg>