<svg id="Layer_1" data-name="Layer 1" xmlns="http://www.w3.org/2000/svg" xmlns:xlink="http://www.w3.org/1999/xlink" viewBox="0 0 512 512"><defs><style>.cls-1{fill:url(#linear-gradient);}.cls-2{fill:url(#linear-gradient-2);}.cls-3{fill:url(#linear-gradient-3);}.cls-4{fill:url(#linear-gradient-4);}.cls-5{fill:url(#linear-gradient-5);}.cls-6{fill:url(#linear-gradient-6);}.cls-7{fill:url(#linear-gradient-8);}.cls-8{fill:url(#linear-gradient-9);}.cls-9{fill:url(#linear-gradient-11);}.cls-10{fill:url(#linear-gradient-12);}.cls-11{fill:url(#linear-gradient-13);}.cls-12{fill:url(#linear-gradient-14);}.cls-13{fill:url(#linear-gradient-15);}.cls-14{fill:url(#linear-gradient-16);}</style><linearGradient id="linear-gradient" x1="254.62" y1="-5.81" x2="254.62" y2="519.38" gradientUnits="userSpaceOnUse"><stop offset="0" stop-color="#bf5abf"/><stop offset="0" stop-color="#4f194f"/><stop offset="1" stop-color="#380036"/></linearGradient><linearGradient id="linear-gradient-2" x1="144.97" y1="-5.81" x2="144.97" y2="519.38" xlink:href="#linear-gradient"/><linearGradient id="linear-gradient-3" x1="234.68" y1="-5.81" x2="234.68" y2="519.38" xlink:href="#linear-gradient"/><linearGradient id="linear-gradient-4" x1="172.21" y1="-5.81" x2="172.21" y2="519.38" xlink:href="#linear-gradient"/><linearGradient id="linear-gradient-5" x1="116.96" y1="-5.81" x2="116.96" y2="519.38" xlink:href="#linear-gradient"/><linearGradient id="linear-gradient-6" x1="204.25" y1="-5.81" x2="204.25" y2="519.38" xlink:href="#linear-gradient"/><linearGradient id="linear-gradient-8" x1="136.54" y1="-5.81" x2="136.54" y2="519.38" xlink:href="#linear-gradient"/><linearGradient id="linear-gradient-9" x1="316.32" y1="-5.81" x2="316.32" y2="519.38" xlink:href="#linear-gradient"/><linearGradient id="linear-gradient-11" x1="217.54" y1="-5.81" x2="217.54" y2="519.38" xlink:href="#linear-gradient"/><linearGradient id="linear-gradient-12" x1="174.21" y1="-5.81" x2="174.21" y2="519.38" xlink:href="#linear-gradient"/><linearGradient id="linear-gradient-13" x1="335.72" y1="-5.81" x2="335.72" y2="519.38" xlink:href="#linear-gradient"/><linearGradient id="linear-gradient-14" x1="375.55" y1="-5.81" x2="375.55" y2="519.38" xlink:href="#linear-gradient"/><linearGradient id="linear-gradient-15" x1="350.58" y1="-5.81" x2="350.58" y2="519.38" xlink:href="#linear-gradient"/><linearGradient id="linear-gradient-16" x1="335.73" y1="-5.81" x2="335.73" y2="519.38" xlink:href="#linear-gradient"/></defs><title>Business Care ICONS</title><path class="cls-1" d="M342.48,7.48H79.77A26.3,26.3,0,0,0,53.5,33.76V478.93A26.3,26.3,0,0,0,79.77,505.2h349.7a26.31,26.31,0,0,0,26.27-26.27V113.68a6,6,0,0,0-1.65-3.79L346,8.88A5.75,5.75,0,0,0,342.48,7.48ZM445.37,478.93a15.91,15.91,0,0,1-15.9,15.9H79.77a15.92,15.92,0,0,1-15.91-15.9V33.76A15.93,15.93,0,0,1,79.77,17.85H337.29v95.83a5.19,5.19,0,0,0,5.19,5.19H445.37ZM347.66,24.61l89.76,83.89H347.66Z"/><path class="cls-2" d="M191.07,462.75H98.87a3.89,3.89,0,0,0,0,7.78h92.2a3.89,3.89,0,1,0,0-7.78Z"/><path class="cls-3" d="M245.55,462.75H223.81a3.89,3.89,0,0,0,0,7.78h21.74a3.89,3.89,0,1,0,0-7.78Z"/><path class="cls-4" d="M245.55,415H98.87a3.89,3.89,0,1,0,0,7.78H245.55a3.89,3.89,0,1,0,0-7.78Z"/><path class="cls-5" d="M98.87,374.92h36.19a3.89,3.89,0,1,0,0-7.77H98.87a3.89,3.89,0,1,0,0,7.77Z"/><path class="cls-6" d="M245.55,367.15H163a3.89,3.89,0,1,0,0,7.77h82.59a3.89,3.89,0,1,0,0-7.77Z"/><path class="cls-4" d="M245.55,319.35H98.87a3.89,3.89,0,1,0,0,7.77H245.55a3.89,3.89,0,1,0,0-7.77Z"/><path class="cls-7" d="M98.87,279.32h75.34a3.89,3.89,0,0,0,0-7.78H98.87a3.89,3.89,0,0,0,0,7.78Z"/><path class="cls-8" d="M410.37,279.32a3.89,3.89,0,0,0,0-7.78H222.27a3.89,3.89,0,0,0,0,7.78Z"/><path class="cls-1" d="M95,227.63a3.89,3.89,0,0,0,3.89,3.89h311.5a3.89,3.89,0,0,0,0-7.78H98.87A3.89,3.89,0,0,0,95,227.63Z"/><path class="cls-9" d="M98.88,197.27H249.54a3.89,3.89,0,0,0,3.88-3.89V130.54h62.69v46.59L308,168.31a3.89,3.89,0,1,0-5.71,5.28l15.55,16.84a3.89,3.89,0,0,0,5.71,0l15.54-16.84a3.89,3.89,0,1,0-5.71-5.28l-9.46,10.25V126.65a3.89,3.89,0,0,0-3.89-3.89H253.42V46a3.89,3.89,0,0,0-3.88-3.89H98.88A3.89,3.89,0,0,0,95,46V193.38A3.89,3.89,0,0,0,98.88,197.27ZM226,189.49H210.75V165.41a3.89,3.89,0,0,0-7.78,0v24.08l-57.13-.06h-.43v-24a3.89,3.89,0,0,0-7.77,0v24l-15.26,0,0-27.16A18.59,18.59,0,0,1,141,143.68h0l66.44.11A18.6,18.6,0,0,1,226,162.39ZM102.77,49.93H245.65V189.49h-11.9l0-27.09A26.38,26.38,0,0,0,207.48,136L141,135.9h0a26.36,26.36,0,0,0-26.34,26.31l-.05,27.28H102.77Z"/><path class="cls-10" d="M174.19,122.42A29.81,29.81,0,1,0,144.4,92.59,29.86,29.86,0,0,0,174.19,122.42Zm0-51.84a22,22,0,1,1-22,22A22.05,22.05,0,0,1,174.19,70.58Z"/><path class="cls-11" d="M409.87,402l-9.44-4.71a63.79,63.79,0,0,0-.84-23l9.09-5.41a7.91,7.91,0,0,0,3.16-10.1l-4.14-9.05a7.91,7.91,0,0,0-9.71-4.22l-10.05,3.35a64.64,64.64,0,0,0-16.84-15.68l2.62-10.26a7.91,7.91,0,0,0-4.91-9.38L359.48,310a7.91,7.91,0,0,0-9.85,3.89l-4.73,9.47a64.69,64.69,0,0,0-23,.85l-5.4-9.11a7.91,7.91,0,0,0-10.11-3.16l-9.05,4.14a7.92,7.92,0,0,0-4.23,9.7l3.34,10a63.88,63.88,0,0,0-15.7,16.88l-10.22-2.62a7.9,7.9,0,0,0-9.38,4.91l-3.47,9.31a7.91,7.91,0,0,0,3.89,9.85l9.43,4.71a64,64,0,0,0,.85,23l-9.09,5.42a7.92,7.92,0,0,0-3.16,10.1l4.14,9.06a7.91,7.91,0,0,0,9.71,4.21l10.05-3.35A65.14,65.14,0,0,0,300.34,443l-2.61,10.22a7.9,7.9,0,0,0,4.91,9.39l9.33,3.47a7.93,7.93,0,0,0,9.86-3.88l4.71-9.44a64.91,64.91,0,0,0,23-.85l5.4,9.11a7.93,7.93,0,0,0,10.11,3.16L374.1,460a7.89,7.89,0,0,0,4.22-9.7L375,440.27a63.85,63.85,0,0,0,15.7-16.87L400.92,426a7.93,7.93,0,0,0,9.38-4.92l3.46-9.3A7.91,7.91,0,0,0,409.87,402Zm-7,16.53-13-3.33A3.91,3.91,0,0,0,385.5,417a56.59,56.59,0,0,1-17.29,18.58A3.89,3.89,0,0,0,366.7,440l4.17,12.94L361.63,457l-6.87-11.58a3.94,3.94,0,0,0-4.35-1.78,55.93,55.93,0,0,1-25.34.94,3.86,3.86,0,0,0-4.21,2.08l-6.17,12.08-9.42-3.64,3.32-13a3.89,3.89,0,0,0-1.82-4.33,57,57,0,0,1-18.55-17.27A3.88,3.88,0,0,0,285,418.8a3.74,3.74,0,0,0-1.23.21l-12.95,4.19L266.74,414l11.55-6.88a3.88,3.88,0,0,0,1.77-4.35,56.51,56.51,0,0,1-.93-25.37,3.86,3.86,0,0,0-2.08-4.2L265,367l3.63-9.39,13,3.32a3.85,3.85,0,0,0,4.32-1.82,56.61,56.61,0,0,1,17.29-18.59,3.88,3.88,0,0,0,1.51-4.44l-4.16-12.94,9.23-4.08,6.88,11.58a3.88,3.88,0,0,0,4.35,1.77,56.88,56.88,0,0,1,25.33-.93,3.85,3.85,0,0,0,4.21-2.08l6.19-12.12,9.41,3.65-3.33,13a3.91,3.91,0,0,0,1.82,4.33,56.66,56.66,0,0,1,18.55,17.27,3.9,3.9,0,0,0,4.45,1.51l13-4.19,4.08,9.24L393.15,369a3.89,3.89,0,0,0-1.77,4.34,56.51,56.51,0,0,1,.93,25.37,3.87,3.87,0,0,0,2.08,4.21l12.08,6.17Z"/><path class="cls-12" d="M380.62,380.54a2.6,2.6,0,0,0-2.15,3,41.8,41.8,0,0,1-10.84,35.31,2.59,2.59,0,1,0,3.77,3.55,46.95,46.95,0,0,0,12.2-39.68A2.62,2.62,0,0,0,380.62,380.54Z"/><path class="cls-13" d="M355.77,427.66a41.7,41.7,0,0,1-12,3.94,2.59,2.59,0,0,0,.43,5.15,2.18,2.18,0,0,0,.44,0,47,47,0,0,0,13.46-4.42,2.59,2.59,0,1,0-2.34-4.63Z"/><path class="cls-14" d="M348,355.05A35.18,35.18,0,1,0,368.7,400.3,35.26,35.26,0,0,0,348,355.05Zm15.83,43.44a30,30,0,1,1-17.65-38.58A30,30,0,0,1,363.84,398.49Z"/></svg>