<svg id="Layer_1" data-name="Layer 1" xmlns="http://www.w3.org/2000/svg" xmlns:xlink="http://www.w3.org/1999/xlink" viewBox="0 0 512 512"><defs><style>.cls-1{fill:url(#linear-gradient);}.cls-2{fill:url(#linear-gradient-3);}.cls-3{fill:url(#linear-gradient-7);}</style><linearGradient id="linear-gradient" x1="254.62" y1="-52.79" x2="254.62" y2="529.77" gradientUnits="userSpaceOnUse"><stop offset="0" stop-color="#bf5abf"/><stop offset="0" stop-color="#4f194f"/><stop offset="1" stop-color="#380036"/></linearGradient><linearGradient id="linear-gradient-3" x1="172.74" y1="-52.79" x2="172.74" y2="529.77" xlink:href="#linear-gradient"/><linearGradient id="linear-gradient-7" x1="336.49" y1="-52.79" x2="336.49" y2="529.77" xlink:href="#linear-gradient"/></defs><title>Business Care ICONS</title><path class="cls-1" d="M436.56,6.17H72.67a9.1,9.1,0,0,0-9.1,9.09V497.42a9.11,9.11,0,0,0,9.1,9.1H436.56a9.1,9.1,0,0,0,9.1-9.1V15.26A9.09,9.09,0,0,0,436.56,6.17Zm-9.09,482.15H81.77v-464h345.7Z"/><path class="cls-1" d="M118.16,151.72H391.08a9.09,9.09,0,0,0,9.09-9.09V69.85a9.09,9.09,0,0,0-9.09-9.1H118.16a9.09,9.09,0,0,0-9.1,9.1v72.78A9.09,9.09,0,0,0,118.16,151.72Zm9.09-72.78H382v54.59H127.25Z"/><path class="cls-2" d="M118.16,306.38H227.33a9.1,9.1,0,0,0,9.09-9.1V188.11a9.1,9.1,0,0,0-9.09-9.1H118.16a9.1,9.1,0,0,0-9.1,9.1V297.28A9.1,9.1,0,0,0,118.16,306.38Zm9.09-109.17h91v91h-91Z"/><polygon class="cls-2" points="181.84 215.4 163.64 215.4 163.64 233.6 145.45 233.6 145.45 251.79 163.64 251.79 163.64 269.99 181.84 269.99 181.84 251.79 200.03 251.79 200.03 233.6 181.84 233.6 181.84 215.4"/><path class="cls-2" d="M118.16,451.93H227.33a9.09,9.09,0,0,0,9.09-9.09V333.67a9.09,9.09,0,0,0-9.09-9.1H118.16a9.09,9.09,0,0,0-9.1,9.1V442.84A9.09,9.09,0,0,0,118.16,451.93Zm9.09-109.16h91v91h-91Z"/><polygon class="cls-2" points="184.48 363.6 172.74 375.43 161.01 363.6 148.09 376.52 159.91 388.25 148.09 399.99 161.01 412.91 172.74 401.08 184.48 412.91 197.4 399.99 185.57 388.25 197.4 376.52 184.48 363.6"/><path class="cls-3" d="M391.08,179H281.91a9.1,9.1,0,0,0-9.1,9.1V297.28a9.1,9.1,0,0,0,9.1,9.1H391.08a9.1,9.1,0,0,0,9.09-9.1V188.11A9.1,9.1,0,0,0,391.08,179ZM382,288.18H291v-91h91Z"/><path class="cls-3" d="M391.08,324.57H281.91a9.09,9.09,0,0,0-9.1,9.1V442.84a9.09,9.09,0,0,0,9.1,9.09H391.08a9.09,9.09,0,0,0,9.09-9.09V333.67A9.09,9.09,0,0,0,391.08,324.57ZM382,433.74H291v-91h91Z"/><rect class="cls-3" x="309.2" y="233.6" width="54.58" height="18.19"/><rect class="cls-3" x="309.2" y="360.96" width="54.58" height="18.19"/><rect class="cls-3" x="309.2" y="397.35" width="54.58" height="18.19"/></svg>