<svg id="Layer_1" data-name="Layer 1" xmlns="http://www.w3.org/2000/svg" xmlns:xlink="http://www.w3.org/1999/xlink" viewBox="0 0 512 512"><defs><style>.cls-1{fill:url(#linear-gradient);}.cls-2{fill:url(#linear-gradient-2);}.cls-3{fill:url(#linear-gradient-3);}</style><linearGradient id="linear-gradient" x1="138.76" y1="-18.06" x2="138.76" y2="456.98" gradientUnits="userSpaceOnUse"><stop offset="0" stop-color="#bf5abf"/><stop offset="0" stop-color="#4f194f"/><stop offset="1" stop-color="#380036"/></linearGradient><linearGradient id="linear-gradient-2" x1="370.47" y1="-18.06" x2="370.47" y2="456.98" xlink:href="#linear-gradient"/><linearGradient id="linear-gradient-3" x1="254.62" y1="-18.06" x2="254.62" y2="456.98" xlink:href="#linear-gradient"/></defs><title>Business Care ICONS</title><path class="cls-1" d="M98.15,505.56V432.42h81.23l0,73.14h57V273.45H41.17V505.56Zm72.08,0v-64H107.28v64Zm19.53-119.39h-102V377h102Zm0-47.48h-102v-9.13h102Z"/><path class="cls-2" d="M329.85,505.56V432.42h81.23l0,73.14h57V273.45H272.87V505.56Zm72.08,0v-64H339v64Zm19.53-119.39h-102V377h102Zm0-47.48h-102v-9.13h102Z"/><path class="cls-3" d="M214,239.23V166.09h81.23l0,73.14h57V7.13H157v232.1Zm72.08,0v-64H223.14v64Zm19.53-119.39h-102V110.7h102Zm0-47.47h-102V63.22h102Z"/></svg>