<svg id="Layer_1" data-name="Layer 1" xmlns="http://www.w3.org/2000/svg" xmlns:xlink="http://www.w3.org/1999/xlink" viewBox="0 0 512 512"><defs><style>.cls-1{fill:url(#linear-gradient);}.cls-2{fill:url(#linear-gradient-2);}</style><linearGradient id="linear-gradient" x1="250.18" y1="-8.87" x2="250.18" y2="491.13" gradientUnits="userSpaceOnUse"><stop offset="0" stop-color="#bf5abf"/><stop offset="0" stop-color="#4f194f"/><stop offset="1" stop-color="#380036"/></linearGradient><linearGradient id="linear-gradient-2" x1="334.87" y1="-8.87" x2="334.87" y2="491.13" xlink:href="#linear-gradient"/></defs><title>Business Care ICONS</title><path class="cls-1" d="M481.21,192.06l-30-32.58-18.83,17.31c-20.87-37.16-52.43-70.75-86.54-94.17l18.84-17.3-30-32.58a28.44,28.44,0,0,0-40.72-1.53L174.79,140.14a28.44,28.44,0,0,0-1.53,40.72l30,32.58,18.83-17.31c5.09,8.66,10.69,16.8,16.29,25.45L33.28,366.14C8.34,384,4.27,419.59,25.14,442c22.39,24.43,33.59,42.24,61.59,41.73a52,52,0,0,0,37.66-17.81L286.26,273.5a226.88,226.88,0,0,0,21.89,16.8l-18.84,17.31,30,32.57a29.29,29.29,0,0,0,21.37,9.17,27.34,27.34,0,0,0,19.35-7.64L479.18,232.78A28.92,28.92,0,0,0,481.21,192.06ZM204.31,186l-16.8-18.32c-3.56-3.56-3-9.67.51-13.24C317.31,36.3,308.15,42.92,313.24,42.92s5.6,2,23.41,21.38ZM109.63,453.18a31.37,31.37,0,0,1-46.83,1c-23.41-25.45-33.08-32.07-31-49.88A30.47,30.47,0,0,1,45,382.43L251.14,237.36a239,239,0,0,0,21.38,22.91ZM236.89,182.9l94.16-86.53c34.11,22.9,66.17,57,86.54,94.16l-94.17,86.54C287.28,253.14,256.23,218.53,236.89,182.9Zm229.05,35.63L346.83,327.46c-3.56,3.56-9.67,3.05-13.23-.51l-16.8-18.33L449.65,187l16.8,18.32A9.54,9.54,0,0,1,465.94,218.53Z"/><path class="cls-2" d="M446.09,427.73H224.16a52.15,52.15,0,0,0-51.92,51.92v9.67H497.5v-9.67A51.07,51.07,0,0,0,446.09,427.73Zm-252,41.74a32.41,32.41,0,0,1,30.54-22.39H446.6a31.77,31.77,0,0,1,30.54,22.39Z"/></svg>