<svg id="Layer_1" data-name="Layer 1" xmlns="http://www.w3.org/2000/svg" xmlns:xlink="http://www.w3.org/1999/xlink" viewBox="0 0 512 512"><defs><style>.cls-1{fill:url(#linear-gradient);}.cls-2{fill:url(#linear-gradient-2);}.cls-3{fill:url(#linear-gradient-3);}</style><linearGradient id="linear-gradient" x1="330.76" y1="27.89" x2="330.76" y2="475.48" gradientUnits="userSpaceOnUse"><stop offset="0" stop-color="#bf5abf"/><stop offset="0" stop-color="#4f194f"/><stop offset="1" stop-color="#380036"/></linearGradient><linearGradient id="linear-gradient-2" x1="118.9" y1="27.89" x2="118.9" y2="475.48" xlink:href="#linear-gradient"/><linearGradient id="linear-gradient-3" x1="280.63" y1="27.89" x2="280.63" y2="475.48" xlink:href="#linear-gradient"/></defs><title>Business Care ICONS</title><circle class="cls-1" cx="330.76" cy="121.26" r="54"/><path class="cls-2" d="M235.67,387.91l-41.61-111-.29-.6a6.24,6.24,0,0,0-5.56-3.48H128.37V257l-.1-1.53H109.41v17.44H49.57a6.24,6.24,0,0,0-5.44,3.21L2,388.3a6.36,6.36,0,0,0-.12,2.89,4.51,4.51,0,0,0,.69,1.88l.38.78a5,5,0,0,0,1.24,1.2c.74.86,18.12,21,45.41,21,26.78,0,44.66-20.13,45.18-20.78a8.38,8.38,0,0,0,1.48-1.44l.33-.57a7.5,7.5,0,0,0,.81-2.55,6.34,6.34,0,0,0-.32-2.81L58.63,285.41h50.78V426.53H75.31v18.9h86.28v-18.9H128.26l.1-141.12h50.79L140.59,388.29a6.19,6.19,0,0,0-.1,2.91,7.36,7.36,0,0,0,1,2.59,5.48,5.48,0,0,0,1.27,1.28c.75.86,18.61,21,45.41,21,27.3,0,44.68-20.15,45.14-20.76a3.55,3.55,0,0,0,1.17-1.17l.63-.78a7.47,7.47,0,0,0,.89-2.73A6.58,6.58,0,0,0,235.67,387.91Zm-14.89-4.07H155.64L188.21,297ZM49.57,297l32.56,86.83H17Z"/><path class="cls-3" d="M470.29,310v-42.9c0-37.76-28-74.76-72.15-74.76h-21.9l-33.8,75.14V190.84H319.07v75.88l-33.46-74.39-206-.27c-34.19-.11-34.6,49.51-.42,49.51H252.71l.06,203.86H358.22v-.09H507.49V310Zm-58.44-39.27h14V310h-14Zm-48.56,53.1h62.53v54H363.29Zm130.38,107.7H363.29V391.68h62.53v2.7c0,34.18,44.56,34.18,44.46,0v-2.7h23.38v39.84Zm0-53.67H470.29v-54h23.38Z"/></svg>