<svg id="Layer_1" data-name="Layer 1" xmlns="http://www.w3.org/2000/svg" xmlns:xlink="http://www.w3.org/1999/xlink" viewBox="0 0 512 512"><defs><style>.cls-1{fill:url(#linear-gradient);}.cls-2{fill:url(#linear-gradient-2);}.cls-3{fill:url(#linear-gradient-3);}.cls-4{fill:url(#linear-gradient-4);}.cls-5{fill:url(#linear-gradient-5);}.cls-6{fill:url(#linear-gradient-8);}.cls-7{fill:url(#linear-gradient-10);}.cls-8{fill:url(#linear-gradient-14);}</style><linearGradient id="linear-gradient" x1="85.58" y1="6.45" x2="85.58" y2="466.03" gradientUnits="userSpaceOnUse"><stop offset="0" stop-color="#bf5abf"/><stop offset="0" stop-color="#4f194f"/><stop offset="1" stop-color="#380036"/></linearGradient><linearGradient id="linear-gradient-2" x1="68.67" y1="6.45" x2="68.67" y2="466.03" xlink:href="#linear-gradient"/><linearGradient id="linear-gradient-3" x1="212.58" y1="6.45" x2="212.58" y2="466.03" xlink:href="#linear-gradient"/><linearGradient id="linear-gradient-4" x1="254.62" y1="6.45" x2="254.62" y2="466.03" xlink:href="#linear-gradient"/><linearGradient id="linear-gradient-5" x1="254.84" y1="6.45" x2="254.84" y2="466.03" xlink:href="#linear-gradient"/><linearGradient id="linear-gradient-8" x1="280.19" y1="6.45" x2="280.19" y2="466.03" xlink:href="#linear-gradient"/><linearGradient id="linear-gradient-10" x1="423.66" y1="6.45" x2="423.66" y2="466.03" xlink:href="#linear-gradient"/><linearGradient id="linear-gradient-14" x1="465.92" y1="6.45" x2="465.92" y2="466.03" xlink:href="#linear-gradient"/></defs><title>Business Care ICONS</title><rect class="cls-1" x="77.13" y="247.89" width="16.9" height="50.71"/><rect class="cls-2" x="51.77" y="315.51" width="33.81" height="185.94"/><circle class="cls-3" cx="212.58" cy="323.96" r="8.45"/><path class="cls-4" d="M178.77,138a8.45,8.45,0,0,1,8.45-8.45H322.45A8.45,8.45,0,0,1,330.9,138v25.36H482.82V112.66H26.41v50.71H178.77Z"/><rect class="cls-5" x="60.44" y="11.24" width="388.79" height="50.71"/><rect class="cls-5" x="77.35" y="78.85" width="354.98" height="16.9"/><path class="cls-5" d="M314,197.18V146.47H195.67v50.71Zm-33.81-33.81H297.1v16.9H280.19Zm-33.81,0h16.91v16.9H246.38Zm-33.8,0h16.9v16.9h-16.9Z"/><polygon class="cls-6" points="241.43 383.12 258.34 400.02 318.95 400.02 271.74 352.81 241.43 383.12"/><polygon class="cls-3" points="190.72 400.02 234.43 400.02 212.58 378.17 190.72 400.02"/><rect class="cls-7" x="415.2" y="247.89" width="16.9" height="50.71"/><path class="cls-4" d="M110.93,467.64H398.3V247.89H110.93Zm17.13-194.39a8.45,8.45,0,0,1,8.45-8.46H373.16a8.46,8.46,0,0,1,8.46,8.46v169a8.46,8.46,0,0,1-8.46,8.46H136.51a8.45,8.45,0,0,1-8.45-8.46Z"/><path class="cls-4" d="M330.9,180.27v25.36a8.45,8.45,0,0,1-8.45,8.45H187.22a8.45,8.45,0,0,1-8.45-8.45V180.27H9.51V298.6H60.22V239.44A8.45,8.45,0,0,1,68.67,231H440.56a8.45,8.45,0,0,1,8.45,8.45V298.6h50.71V180.27ZM77.35,214.08H26.63v-16.9H77.35Zm405.47,0h-16.9v-16.9h16.9Z"/><path class="cls-5" d="M364.71,281.7H145V433.83H364.71ZM212.58,298.6A25.36,25.36,0,1,1,187.22,324,25.35,25.35,0,0,1,212.58,298.6ZM347.17,411.71a8.46,8.46,0,0,1-7.81,5.22h-169a8.46,8.46,0,0,1-6-14.43l42.26-42.26a8.45,8.45,0,0,1,12,0l10.93,10.93,36.29-36.28a8.45,8.45,0,0,1,12,0l67.61,67.61A8.46,8.46,0,0,1,347.17,411.71Z"/><rect class="cls-8" x="449.01" y="315.51" width="33.81" height="185.94"/></svg>