<svg id="Layer_1" data-name="Layer 1" xmlns="http://www.w3.org/2000/svg" xmlns:xlink="http://www.w3.org/1999/xlink" viewBox="0 0 512 512"><defs><style>.cls-1{fill:url(#linear-gradient);}.cls-2{fill:url(#linear-gradient-2);}.cls-3{fill:url(#linear-gradient-3);}.cls-4{fill:url(#linear-gradient-4);}.cls-5{fill:url(#linear-gradient-5);}.cls-6{fill:url(#linear-gradient-6);}.cls-7{fill:url(#linear-gradient-8);}</style><linearGradient id="linear-gradient" x1="254.62" y1="30.83" x2="254.62" y2="496.78" gradientUnits="userSpaceOnUse"><stop offset="0" stop-color="#bf5abf"/><stop offset="0" stop-color="#4f194f"/><stop offset="1" stop-color="#380036"/></linearGradient><linearGradient id="linear-gradient-2" x1="173.94" y1="30.83" x2="173.94" y2="496.78" xlink:href="#linear-gradient"/><linearGradient id="linear-gradient-3" x1="440.18" y1="30.83" x2="440.18" y2="496.78" xlink:href="#linear-gradient"/><linearGradient id="linear-gradient-4" x1="375.64" y1="30.83" x2="375.64" y2="496.78" xlink:href="#linear-gradient"/><linearGradient id="linear-gradient-5" x1="311.09" y1="30.83" x2="311.09" y2="496.78" xlink:href="#linear-gradient"/><linearGradient id="linear-gradient-6" x1="391.77" y1="30.83" x2="391.77" y2="496.78" xlink:href="#linear-gradient"/><linearGradient id="linear-gradient-8" x1="391.86" y1="30.83" x2="391.86" y2="496.78" xlink:href="#linear-gradient"/></defs><title>Business Care ICONS</title><path class="cls-1" d="M488.59,46.57H20.64a8.07,8.07,0,0,0-8.07,8.07V458a8.07,8.07,0,0,0,8.07,8.07h468a8.06,8.06,0,0,0,8.07-8.06h0V54.64A8.07,8.07,0,0,0,488.59,46.57ZM28.71,62.71h245l-54.46,48.41H28.71ZM480.52,450H28.71V127.25H222.34a8.1,8.1,0,0,0,5.37-2L298,62.71H480.52Z"/><path class="cls-2" d="M270.75,256.34V207.93a8.06,8.06,0,0,0-8.06-8.06,8.31,8.31,0,0,0-2.38.35L156.59,232.14H105.36A28.21,28.21,0,0,0,80,248.27H73.42a28.61,28.61,0,0,0-28.57,28.58v23.53A28.59,28.59,0,0,0,73.42,329H80a28.18,28.18,0,0,0,21.37,15.73v73a8.07,8.07,0,0,0,8.07,8.07h32.27a8.06,8.06,0,0,0,8.07-8.06h0V345.09h6.85L260.31,377a8.36,8.36,0,0,0,7.17-1.22,8.06,8.06,0,0,0,3.27-6.49V320.89a32.28,32.28,0,1,0,0-64.55ZM77.12,312.82h-3.7A12.46,12.46,0,0,1,61,300.38V276.85a12.45,12.45,0,0,1,12.44-12.44h3.7Zm56.48,96.82H117.46V345.09H133.6ZM149.73,329H105.36a12.1,12.1,0,0,1-12.1-12.1V260.38a12.12,12.12,0,0,1,12.1-12.11h44.37Zm104.89,29.42-88.75-27.3v-84.9l88.75-27.31Zm16.13-53.62V272.48a16.14,16.14,0,1,1,0,32.27Z"/><path class="cls-3" d="M440.18,127.25a24.21,24.21,0,1,0-24.2-24.2A24.2,24.2,0,0,0,440.18,127.25Zm0-32.27a8.07,8.07,0,1,1-8.07,8.07A8.07,8.07,0,0,1,440.18,95Z"/><path class="cls-4" d="M375.64,127.25a24.21,24.21,0,1,0-24.21-24.2A24.19,24.19,0,0,0,375.64,127.25Zm0-32.27a8.07,8.07,0,1,1-8.07,8.07A8.07,8.07,0,0,1,375.64,95Z"/><path class="cls-5" d="M286.89,103.05a24.21,24.21,0,1,0,24.2-24.21A24.2,24.2,0,0,0,286.89,103.05ZM311.09,95a8.07,8.07,0,1,1-8.06,8.07A8.07,8.07,0,0,1,311.09,95Z"/><path class="cls-6" d="M456.32,143.39H327.23a8.07,8.07,0,0,0-8.07,8.07v113a8.07,8.07,0,0,0,8.07,8.07H456.32a8.07,8.07,0,0,0,8.07-8.07h0v-113A8.07,8.07,0,0,0,456.32,143.39Zm-8.07,113H335.3V159.52h113Z"/><path class="cls-6" d="M456.32,304.75H327.23a8.07,8.07,0,0,0-8.07,8.06h0v113a8.07,8.07,0,0,0,8.07,8.07H456.32a8.07,8.07,0,0,0,8.07-8.06h0V312.82a8.07,8.07,0,0,0-8.07-8.07Zm-68.58,113H347.16L373,376.45l25.78,41.25Zm30,0-8.26-13.22L416,393.37l14.19,24.33Zm30.49-1L423,373.3A8.39,8.39,0,0,0,411.32,371,8.2,8.2,0,0,0,409,373.3L399.84,389l-20-32.07a8.39,8.39,0,0,0-11.7-2,8.54,8.54,0,0,0-2,2l-30.8,49.29V320.89h113Z"/><path class="cls-7" d="M372.21,239.36a8.07,8.07,0,0,0,8.45-.77l32.27-24.2a8.36,8.36,0,0,0,1.15-11.76,8.92,8.92,0,0,0-1.15-1.15l-32.27-24.2a8.06,8.06,0,0,0-12.91,6.45v48.41A8.07,8.07,0,0,0,372.21,239.36Zm11.67-39.49,10.76,8.06L383.88,216Z"/></svg>