<svg id="Layer_1" data-name="Layer 1" xmlns="http://www.w3.org/2000/svg" xmlns:xlink="http://www.w3.org/1999/xlink" viewBox="0 0 512 512"><defs><style>.cls-1{fill:url(#linear-gradient);}.cls-2{fill:url(#linear-gradient-2);}.cls-3{fill:url(#linear-gradient-4);}.cls-4{fill:url(#linear-gradient-5);}.cls-5{fill:url(#linear-gradient-6);}.cls-6{fill:url(#linear-gradient-7);}.cls-7{fill:url(#linear-gradient-8);}.cls-8{fill:url(#linear-gradient-9);}.cls-9{fill:url(#linear-gradient-10);}.cls-10{fill:url(#linear-gradient-11);}.cls-11{fill:url(#linear-gradient-12);}.cls-12{fill:url(#linear-gradient-13);}.cls-13{fill:url(#linear-gradient-14);}</style><linearGradient id="linear-gradient" x1="319.83" y1="24.83" x2="319.83" y2="485.22" gradientUnits="userSpaceOnUse"><stop offset="0" stop-color="#bf5abf"/><stop offset="0" stop-color="#4f194f"/><stop offset="1" stop-color="#380036"/></linearGradient><linearGradient id="linear-gradient-2" x1="312.9" y1="24.83" x2="312.9" y2="485.22" xlink:href="#linear-gradient"/><linearGradient id="linear-gradient-4" x1="244.09" y1="24.83" x2="244.09" y2="485.22" xlink:href="#linear-gradient"/><linearGradient id="linear-gradient-5" x1="93.37" y1="24.83" x2="93.37" y2="485.22" xlink:href="#linear-gradient"/><linearGradient id="linear-gradient-6" x1="414.07" y1="24.83" x2="414.07" y2="485.22" xlink:href="#linear-gradient"/><linearGradient id="linear-gradient-7" x1="256.67" y1="24.83" x2="256.67" y2="485.22" xlink:href="#linear-gradient"/><linearGradient id="linear-gradient-8" x1="421.25" y1="24.83" x2="421.25" y2="485.22" xlink:href="#linear-gradient"/><linearGradient id="linear-gradient-9" x1="46.9" y1="24.83" x2="46.9" y2="485.22" xlink:href="#linear-gradient"/><linearGradient id="linear-gradient-10" x1="106.98" y1="24.83" x2="106.98" y2="485.22" xlink:href="#linear-gradient"/><linearGradient id="linear-gradient-11" x1="323.94" y1="24.83" x2="323.94" y2="485.22" xlink:href="#linear-gradient"/><linearGradient id="linear-gradient-12" x1="189.4" y1="24.83" x2="189.4" y2="485.22" xlink:href="#linear-gradient"/><linearGradient id="linear-gradient-13" x1="256.51" y1="24.83" x2="256.51" y2="485.22" xlink:href="#linear-gradient"/><linearGradient id="linear-gradient-14" x1="257.18" y1="24.83" x2="257.18" y2="485.22" xlink:href="#linear-gradient"/></defs><title>Business Care ICONS</title><path class="cls-1" d="M326.25,49.49H313.42a2.57,2.57,0,1,1,0-5.13h12.83a2.57,2.57,0,1,1,0,5.13Z"/><path class="cls-2" d="M308.28,35.63a3.84,3.84,0,0,1-2-1,3.12,3.12,0,0,1,0-4.11l9.24-9.24a3.12,3.12,0,0,1,4.11,0,3.14,3.14,0,0,1,0,4.11l-9.25,9.24A2.63,2.63,0,0,1,308.28,35.63Z"/><path class="cls-2" d="M317.52,73.63a3.84,3.84,0,0,1-2-1l-9.24-9.24a2.9,2.9,0,1,1,4.1-4.11l9.25,9.24a3.14,3.14,0,0,1,0,4.11A2.06,2.06,0,0,1,317.52,73.63Z"/><path class="cls-3" d="M293.9,36.14V9.44a2.62,2.62,0,0,0-2-2.57,2.47,2.47,0,0,0-3.08,1s-17.46,20.54-51.36,20.54H205.06a11.66,11.66,0,0,0-9.75,5.13h-6.17a3.52,3.52,0,0,0-3.59,3.6V57.71a3.51,3.51,0,0,0,3.59,3.59h5.65a15.62,15.62,0,0,0,6.68,4.63l16.94,44.67a4.49,4.49,0,0,0,4.11,3.08H239a5.21,5.21,0,0,0,4.11-2.56c.52-1.54.52-3.6-.51-4.63l-8.73-9.75L222.52,67h14.89c33.9,0,51.36,20.54,51.36,20.54a3.84,3.84,0,0,0,2.05,1h1a3.41,3.41,0,0,0,2-2.57V59.25c5.14-1,8.73-5.65,8.73-11.3S299,37.17,293.9,36.14Z"/><path class="cls-4" d="M55.11,345.8C46.9,322.69,41.76,298,41.76,272.36c0-85.76,50.84-159.19,123.76-193.08V56.68C81.3,91.09,21.22,174.79,21.22,271.85c0,31.84,6.16,62.13,18,89.35Z"/><path class="cls-5" d="M467,271.85a222.2,222.2,0,0,1-10.79,67.27l16.44,16.43a228.5,228.5,0,0,0,15.4-83.7C488,173.25,426.9,89,340.12,54.63V77.22C415.09,110.6,467,185.58,467,271.85Z"/><path class="cls-6" d="M337.55,468A213,213,0,0,1,254.36,485a216.63,216.63,0,0,1-77.54-14.38L160.9,486.5A235.44,235.44,0,0,0,253.85,506c35.43,0,68.81-7.7,98.59-22.08Z"/><path class="cls-7" d="M477.23,401.77a57.92,57.92,0,0,0-112,29.78c4.11,14.9,12.84,26.71,24.65,33.9l-15.41,23.1,61.11-15.92A58,58,0,0,0,477.23,401.77Zm-52.38,36.46H394V429h30.81Zm26.7-18.49H394V410.5h57.51Zm0-17.46H394V393h57.51Z"/><rect class="cls-8" x="36.63" y="403.82" width="20.54" height="55.97"/><polyline class="cls-9" points="67.44 403.31 97.74 368.9 110.57 371.47 101.33 400.74 146.52 400.74 134.2 459.8 67.44 459.8"/><path class="cls-10" d="M336,168.63c-2.05-1-4.11-1.54-6.16-.51h-.52a5.08,5.08,0,0,0-2.56,2l-16.44,24.14a6,6,0,0,0-1,5.13c.51,1.54,1,3.08,2.56,4.11a6.32,6.32,0,0,0,6.68.51,5.11,5.11,0,0,0,2.57-2.05l16.43-24.14a6,6,0,0,0,1-5.13A5.25,5.25,0,0,0,336,168.63Z"/><path class="cls-11" d="M176.31,169.66c1.54-1.54,4.1-1.54,6.16-1H183a5.16,5.16,0,0,1,2.57,2.05l18,23.11a8.66,8.66,0,0,1,1.54,5.14,6.1,6.1,0,0,1-2.57,4.62,7.87,7.87,0,0,1-6.67,1,5.13,5.13,0,0,1-2.57-2.06l-18-23.11a8.65,8.65,0,0,1-1.54-5.13C174.25,172.23,174.76,170.68,176.31,169.66Z"/><path class="cls-12" d="M366.82,280.58,317,225.63c-1-1.54-3.08-2-5.14-2H201a6.29,6.29,0,0,0-4.1,2L146,280.58c-2.57,2.57-2.06,6.67,0,9.24L251.28,395.09a7.64,7.64,0,0,0,4.62,2.06,5.57,5.57,0,0,0,4.62-2.06l106.3-104.75A7.14,7.14,0,0,0,366.82,280.58Zm-20-2.06H306.23l-20-41.59h22.59Zm-55.46,13.36L256.41,373l-34.92-81.13ZM222,278.52l20-41.59h29.27l20,41.59Zm4.62-41.59-20,41.59h-40l38-41.59Zm-19.51,54.95,29.78,68.81-69.32-68.81Zm138.65,0L276.44,361.2l29.79-68.81h39.54Z"/><path class="cls-13" d="M257.44,153.74a7.11,7.11,0,0,0-5.65,3.08v.51a7.49,7.49,0,0,0-1,3.6l-.52,28.76a7,7,0,0,0,6.68,6.67c2.57,0,4.62-1,5.65-3.08a7.45,7.45,0,0,0,1-3.59l.52-29.28a5.58,5.58,0,0,0-2.06-4.62C260.52,154.77,259,153.74,257.44,153.74Z"/></svg>