<svg id="Layer_1" data-name="Layer 1" xmlns="http://www.w3.org/2000/svg" xmlns:xlink="http://www.w3.org/1999/xlink" viewBox="0 0 512 512"><defs><style>.cls-1{fill:url(#linear-gradient);}.cls-2{fill:url(#linear-gradient-2);}.cls-3{fill:url(#linear-gradient-3);}.cls-4{fill:url(#linear-gradient-5);}.cls-5{fill:url(#linear-gradient-6);}</style><linearGradient id="linear-gradient" x1="253.95" y1="-18.06" x2="253.95" y2="524.27" gradientUnits="userSpaceOnUse"><stop offset="0" stop-color="#bf5abf"/><stop offset="0" stop-color="#4f194f"/><stop offset="1" stop-color="#380036"/></linearGradient><linearGradient id="linear-gradient-2" x1="214.17" y1="-18.06" x2="214.17" y2="524.27" xlink:href="#linear-gradient"/><linearGradient id="linear-gradient-3" x1="293.73" y1="-18.06" x2="293.73" y2="524.27" xlink:href="#linear-gradient"/><linearGradient id="linear-gradient-5" x1="194.28" y1="-18.06" x2="194.28" y2="524.27" xlink:href="#linear-gradient"/><linearGradient id="linear-gradient-6" x1="313.62" y1="-18.06" x2="313.62" y2="524.27" xlink:href="#linear-gradient"/></defs><title>Business Care ICONS</title><path class="cls-1" d="M254,281.39A15.93,15.93,0,0,1,238,265.47H222.12a31.83,31.83,0,1,0,63.65,0H269.86A15.93,15.93,0,0,1,254,281.39Z"/><circle class="cls-2" cx="214.17" cy="217.74" r="7.96"/><circle class="cls-3" cx="293.73" cy="217.74" r="7.96"/><path class="cls-1" d="M254,66.8,239.79,83.45l-20.22,8.33L231,110.39l1.67,21.8L254,127.05l21.25,5.15,1.67-21.8,11.46-18.62-20.22-8.32Zm7.35,38.54-.53,7L254,110.68l-6.81,1.65-.54-7-3.67-6,6.48-2.66L254,91.36l4.54,5.34L265,99.37Z"/><rect class="cls-4" x="174.39" y="424.59" width="39.78" height="15.91"/><rect class="cls-5" x="293.73" y="424.59" width="39.78" height="15.91"/><path class="cls-1" d="M254,10.88C118,10.88,7.31,121.52,7.31,257.52S118,504.16,254,504.16,500.59,393.51,500.59,257.52,390,10.88,254,10.88Zm7.95,23.87v8H246v-8a8,8,0,1,1,15.91,0ZM405.11,431.6a230.66,230.66,0,0,1-39.78,27.89V408.68H349.42v58.8a229.1,229.1,0,0,1-57.75,17.63L278,416.84l4.78-19.14,24.13,16.08,4.67-21h93.51ZM142.56,408.68v50.81a232,232,0,0,1-39.78-27.89V392.77H196.3l4.67,21L225.1,397.7l4.78,19.15-13.65,68.27a229,229,0,0,1-57.75-17.63V408.68Zm61.43-71,36.68,30.55-29.21,19.48-11-49.37Zm-19.16,3.58,7.93,35.64H150.52v-29.2Zm-50.22,35.64H118.7V353.63l15.91-3Zm-31.83,0H86.87V366.2a8,8,0,0,1,6.49-7.82l9.42-1.77Zm141.47,31.82-5.09-20.36L254,378.47l14.79,9.85-5.09,20.36Zm160.86-31.82V356.61l9.42,1.77a8,8,0,0,1,6.5,7.82v10.66Zm-15.91,0H373.29V350.64l15.91,3Zm-31.82,0H315.14l7.92-35.64,34.32,6.44Zm-60.94,10.8-29.21-19.47,36.67-30.56,3.51.66Zm-2.71-62.27L254,358.54l-39.78-33.15v-5.93a86.74,86.74,0,0,0,79.56,0ZM254,313.21a71.69,71.69,0,0,1-71.61-71.6v-48a39.39,39.39,0,0,0,23.87,8.16h95.47a39.35,39.35,0,0,0,23.87-8.16v48A71.69,71.69,0,0,1,254,313.21Zm-87.52-73.07a23.73,23.73,0,0,1,0-44.81Zm175-78.1h15.91v24.08a39.35,39.35,0,0,0-15.91-7.35Zm-15.92,0a23.9,23.9,0,0,1-23.87,23.87H206.21A23.9,23.9,0,0,1,182.34,162ZM166.43,178.76a39.62,39.62,0,0,0-15.91,7.35V162h15.91Zm175,16.57a23.73,23.73,0,0,1,0,44.81Zm15.91-49.2H150.52V130.22a71.68,71.68,0,0,1,71.6-71.6h63.65a71.68,71.68,0,0,1,71.61,71.6ZM23.22,257.52c0-119.55,91.39-218.13,208-229.6a23.76,23.76,0,0,0-1.11,6.83v8h-8a87.62,87.62,0,0,0-87.51,87.52v87.52a39.76,39.76,0,0,0,33.24,39.12,87.49,87.49,0,0,0,30.41,52.2v13.46L90.43,342.74A23.88,23.88,0,0,0,71,366.2v26.57H86.87v23.61A229.83,229.83,0,0,1,23.22,257.52ZM232.05,487.18l12.51-62.59h18.78l12.52,62.59c-7.22.68-14.52,1.06-21.91,1.06S239.25,487.86,232.05,487.18Zm189-70.8V392.77h15.91V366.2a23.88,23.88,0,0,0-19.47-23.46L309.64,322.52V309.06a87.48,87.48,0,0,0,30.41-52.2,39.76,39.76,0,0,0,33.24-39.12V130.22A87.62,87.62,0,0,0,285.77,42.7h-7.95v-8a23.43,23.43,0,0,0-1.12-6.83c116.58,11.47,208,110.05,208,229.6A229.82,229.82,0,0,1,421,416.38Z"/></svg>