<svg id="Layer_1" data-name="Layer 1" xmlns="http://www.w3.org/2000/svg" xmlns:xlink="http://www.w3.org/1999/xlink" viewBox="0 0 512 512"><defs><style>.cls-1{fill:url(#linear-gradient);}.cls-2{fill:url(#linear-gradient-2);}.cls-3{fill:url(#linear-gradient-3);}.cls-4{fill:url(#linear-gradient-4);}.cls-5{fill:url(#linear-gradient-5);}.cls-6{fill:url(#linear-gradient-6);}.cls-7{fill:url(#linear-gradient-7);}.cls-8{fill:url(#linear-gradient-8);}</style><linearGradient id="linear-gradient" x1="149.88" y1="33" x2="149.88" y2="470.68" gradientUnits="userSpaceOnUse"><stop offset="0" stop-color="#c8e233"/><stop offset="1" stop-color="#aad300"/></linearGradient><linearGradient id="linear-gradient-2" x1="482.11" y1="33" x2="482.11" y2="470.68" xlink:href="#linear-gradient"/><linearGradient id="linear-gradient-3" x1="383.79" y1="33" x2="383.79" y2="470.68" xlink:href="#linear-gradient"/><linearGradient id="linear-gradient-4" x1="75.3" y1="33" x2="75.3" y2="470.68" xlink:href="#linear-gradient"/><linearGradient id="linear-gradient-5" x1="122.76" y1="33" x2="122.76" y2="470.68" xlink:href="#linear-gradient"/><linearGradient id="linear-gradient-6" x1="82.08" y1="33" x2="82.08" y2="470.68" xlink:href="#linear-gradient"/><linearGradient id="linear-gradient-7" x1="163.44" y1="33" x2="163.44" y2="470.68" xlink:href="#linear-gradient"/><linearGradient id="linear-gradient-8" x1="244.8" y1="33" x2="244.8" y2="470.68" xlink:href="#linear-gradient"/></defs><title>Office Maintenance ICONS</title><path class="cls-1" d="M14.28,144.78V273.61a33.94,33.94,0,0,0,33.9,33.9h237.3V294H88.86V280.39H285.48V266.83H75.3V294H48.18a20.36,20.36,0,0,1-20.34-20.34V253.27H285.48V239.71H27.84V144.78a20.36,20.36,0,0,1,20.34-20.34h237.3V110.88H48.18A33.94,33.94,0,0,0,14.28,144.78Z"/><path class="cls-2" d="M468.55,110.88h-6.78v13.56h6.78a20.37,20.37,0,0,1,20.34,20.34v88.15h13.56V144.78A33.94,33.94,0,0,0,468.55,110.88Z"/><path class="cls-3" d="M437.68,217.05a20.26,20.26,0,0,0-18.2-11.24h-12V163.68A74.49,74.49,0,0,0,403.46,29L394,24.84V90.55H353.28V24.84L343.79,29a74.49,74.49,0,0,0-4.07,134.67v44.08a20.08,20.08,0,0,0-9.81,27.49,20.84,20.84,0,0,0,3,4.47H319.38A20.36,20.36,0,0,0,299,260.05a20,20,0,0,0,2.73,10,20.25,20.25,0,0,0-.37,34.1,20.25,20.25,0,0,0,5.91,36.5,20.28,20.28,0,0,0,18.85,27.91h13.56v81.36a33.9,33.9,0,1,0,67.8,0V368.53h22.91A33.73,33.73,0,0,0,454,359l4.12-4h17.17V341.41H452.66l-8.07,7.82A20.22,20.22,0,0,1,430.43,355H379.16a19.75,19.75,0,0,0-4.05-20.34,20.18,20.18,0,0,0-3.85-30.51,20.26,20.26,0,0,0-.36-34.1,19.86,19.86,0,0,0-2.57-23.53h32.41V232.93H348.1a6.78,6.78,0,1,1,0-13.56h71.38a6.74,6.74,0,0,1,6.07,3.75l11.69,23.37h38.09V232.93H445.62ZM312.6,97.32a61,61,0,0,1,27.12-50.71V104.1h67.8V46.61A61,61,0,1,1,312.6,97.32Zm61,74.58A74.21,74.21,0,0,0,394,169v36.8H353.28V169A73.94,73.94,0,0,0,373.62,171.9Zm-54.24,81.37h33.9a6.78,6.78,0,0,1,0,13.56h-33.9a6.78,6.78,0,0,1,0-13.56Zm40.68,27.12a6.78,6.78,0,0,1,0,13.56H312.6a6.78,6.78,0,0,1,0-13.56h47.46Zm-47.46,33.9h47.46a6.78,6.78,0,0,1,0,13.56H312.6a6.78,6.78,0,0,1,0-13.56ZM394,449.89a20.34,20.34,0,1,1-40.68,0V368.53H394ZM326.16,355a6.78,6.78,0,0,1,0-13.56h33.9a6.78,6.78,0,1,1,0,13.56Z"/><rect class="cls-4" x="48.18" y="199.03" width="54.24" height="13.56"/><rect class="cls-5" x="115.98" y="199.03" width="13.56" height="13.56"/><path class="cls-6" d="M95.64,334.63H82.08c0,5.4-2,7.78-5.15,11.4-3.75,4.37-8.41,9.81-8.41,20.23s4.66,15.86,8.41,20.23c3.1,3.62,5.15,6,5.15,11.41s-2,7.8-5.15,11.41c-3.75,4.37-8.41,9.83-8.41,20.24H82.08c0-5.4,2-7.8,5.14-11.41,3.75-4.37,8.42-9.81,8.42-20.24S91,382,87.22,377.67c-3.09-3.62-5.14-6-5.14-11.41s2-7.79,5.14-11.41C91,350.49,95.64,345.05,95.64,334.63Z"/><path class="cls-7" d="M177,334.63H163.44c0,5.4-2.05,7.78-5.15,11.4-3.75,4.37-8.41,9.81-8.41,20.23s4.66,15.86,8.41,20.23c3.1,3.62,5.15,6,5.15,11.41s-2.05,7.8-5.15,11.41c-3.75,4.37-8.41,9.83-8.41,20.24h13.56c0-5.4,2.05-7.8,5.15-11.41,3.75-4.37,8.41-9.81,8.41-20.24s-4.66-15.86-8.41-20.23c-3.1-3.62-5.15-6-5.15-11.41s2.05-7.79,5.15-11.41C172.34,350.49,177,345.05,177,334.63Z"/><path class="cls-8" d="M258.36,334.63H244.8c0,5.4-2.05,7.78-5.14,11.4-3.75,4.37-8.42,9.81-8.42,20.23s4.67,15.86,8.42,20.23c3.09,3.62,5.14,6,5.14,11.41s-2.05,7.8-5.14,11.41c-3.75,4.37-8.42,9.83-8.42,20.24H244.8c0-5.4,2-7.8,5.15-11.41,3.75-4.37,8.41-9.81,8.41-20.24S253.7,382,250,377.67c-3.1-3.62-5.15-6-5.15-11.41s2-7.79,5.15-11.41C253.7,350.49,258.36,345.05,258.36,334.63Z"/></svg>