<svg id="Layer_1" data-name="Layer 1" xmlns="http://www.w3.org/2000/svg" xmlns:xlink="http://www.w3.org/1999/xlink" viewBox="0 0 512 512"><defs><style>.cls-1{fill:url(#linear-gradient);}.cls-2{fill:url(#linear-gradient-2);}.cls-3{fill:url(#linear-gradient-3);}.cls-4{fill:url(#linear-gradient-4);}.cls-5{fill:url(#linear-gradient-5);}.cls-6{fill:url(#linear-gradient-6);}</style><linearGradient id="linear-gradient" x1="265.56" y1="9.06" x2="265.56" y2="496.83" gradientUnits="userSpaceOnUse"><stop offset="0" stop-color="#c8e233"/><stop offset="1" stop-color="#aad300"/></linearGradient><linearGradient id="linear-gradient-2" x1="395.94" y1="9.06" x2="395.94" y2="496.83" xlink:href="#linear-gradient"/><linearGradient id="linear-gradient-3" x1="379.85" y1="9.06" x2="379.85" y2="496.83" xlink:href="#linear-gradient"/><linearGradient id="linear-gradient-4" x1="210.65" y1="9.06" x2="210.65" y2="496.83" xlink:href="#linear-gradient"/><linearGradient id="linear-gradient-5" x1="228.48" y1="9.06" x2="228.48" y2="496.83" xlink:href="#linear-gradient"/><linearGradient id="linear-gradient-6" x1="256.32" y1="9.06" x2="256.32" y2="496.83" xlink:href="#linear-gradient"/></defs><title>Office Maintenance ICONS</title><path class="cls-1" d="M306.77,244.75,285.9,223,490.32,10.74H374.63L228.48,163l-20-21.75L192,158.63l-35.67-37.41,1.74-1.74c14.79-15.66,14.79-40,0-54.8C143.23,49,119.74,49,105,64.68l-53.07,54.8c-14.79,15.66-14.79,40,0,54.81,14.79,15.65,38.28,15.65,53.07,0l1.73-1.74L142.36,210l-16.53,17.4L224.13,330l16.53-17.4s94.82,88.73,155.71,26.1c0,0-45.23,0-114.82-68.72Z"/><path class="cls-2" d="M345.92,469.18a8.46,8.46,0,0,1-8.7-6.95c-.87-4.35,2.61-9.57,7-10.44l100.91-17.4c4.35-.87,8.7,2.61,9.57,7s-2.61,9.57-7,10.44L346.79,469.18Z"/><path class="cls-3" d="M354.62,425.69c-2.61,0-5.22-1.74-7-3.48-2.61-4.35-1.74-9.57,2.61-12.18l50.45-34.8A7.74,7.74,0,0,1,412,377.84c2.61,4.35,1.74,9.57-2.61,12.18L359,424.82C357.23,424.82,355.49,425.69,354.62,425.69Z"/><path class="cls-4" d="M261.54,469.18H259.8L158.89,451.79a9,9,0,0,1-7-10.44c.87-4.35,5.22-7.83,9.57-7l100.91,17.4a9,9,0,0,1,7,10.44C269.37,465.71,265.89,469.18,261.54,469.18Z"/><path class="cls-5" d="M253.71,425.69a6.65,6.65,0,0,1-4.35-1.74l-50.45-34.8A9.37,9.37,0,0,1,196.3,377a7.74,7.74,0,0,1,11.3-2.61l50.46,34.8a9.37,9.37,0,0,1,2.61,12.18C258.93,424,256.32,425.69,253.71,425.69Z"/><path class="cls-6" d="M491.19,480.49H325.91l7-111.34c-22.62-2.61-45.23-13-62.63-23.49l10.44,134.83H21.44a8.72,8.72,0,0,0-8.7,8.7c0,5.22,3.48,8.7,8.7,8.7H491.19a8.72,8.72,0,0,0,8.7-8.7C499.89,484,496.41,480.49,491.19,480.49Z"/></svg>