<svg id="Layer_1" data-name="Layer 1" xmlns="http://www.w3.org/2000/svg" xmlns:xlink="http://www.w3.org/1999/xlink" viewBox="0 0 512 512"><defs><style>.cls-1{fill:url(#linear-gradient);}.cls-2{fill:url(#linear-gradient-2);}</style><linearGradient id="linear-gradient" x1="120.67" y1="12.57" x2="120.67" y2="499.67" gradientUnits="userSpaceOnUse"><stop offset="0" stop-color="#c8e233"/><stop offset="1" stop-color="#aad300"/></linearGradient><linearGradient id="linear-gradient-2" x1="256.32" y1="12.57" x2="256.32" y2="499.67" xlink:href="#linear-gradient"/></defs><title>Office Maintenance ICONS</title><path class="cls-1" d="M40.87,383.67v95.76a8,8,0,0,0,8,8H192.48a8,8,0,0,0,8-8V383.67a55.92,55.92,0,0,0-55.85-55.85H96.73A55.93,55.93,0,0,0,40.87,383.67Zm103.74-39.89a39.93,39.93,0,0,1,39.89,39.89v87.78H56.83V383.67a39.94,39.94,0,0,1,39.9-39.89Z"/><path class="cls-2" d="M471.77,24.59H40.87A23.94,23.94,0,0,0,16.93,48.53V287.92a23.94,23.94,0,0,0,23.94,23.94h40.7a55.86,55.86,0,0,0,78.2,0H224.4v22.05l-23.1,46.2a8,8,0,0,0,7.14,11.54H304.2a8,8,0,0,0,7.18-11.54l-23.14-46.2V311.86H471.77a23.94,23.94,0,0,0,23.94-23.94V48.53A23.94,23.94,0,0,0,471.77,24.59Zm-391,195.5v-20a8,8,0,0,1,8-8h63.83a8,8,0,0,1,8,8v23.94a8,8,0,0,0,3.2,6.39L176.52,240H107.36Zm79.79-42.42V176.2h87.78v39.9H176.52v-16A23.94,23.94,0,0,0,160.56,177.67ZM264.3,176.2h87.77v39.9H264.3Zm0-15.95v-39.9h87.77v39.9Zm-16,0H160.56v-39.9h87.78ZM175.77,262.66A53,53,0,0,0,174,256h26.43a8,8,0,0,0,4.79-14.36l-12.77-9.58h55.86V272H176.52A60.44,60.44,0,0,0,175.77,262.66Zm88.53-30.6h87.77V272H264.3Zm103.73,0h87.78V272H368Zm87.78-16H368V176.2h87.78Zm0-55.85H368v-39.9h87.78Zm0-55.86H368V64.49h87.78Zm-103.74,0H264.3V64.49h87.77Zm-103.73,0H160.56V64.49h87.78Zm-103.73,0H56.83V64.49h87.78Zm-87.78,16h87.78v39.9H56.83Zm0,55.85H88.75a23.94,23.94,0,0,0-23.94,23.94v16h-8Zm0,55.86h13.3L77,237.21a55.33,55.33,0,0,0-11.34,25.31,52.36,52.36,0,0,0-.85,9.44h-8Zm63.84,79.8a39.77,39.77,0,0,1-37.6-26.68A38.68,38.68,0,0,1,80.77,272a36.18,36.18,0,0,1,.6-6.66,39.57,39.57,0,0,1,8.42-18.5l10.13,7.6a8,8,0,0,0,4.79,1.6h52.36a38.14,38.14,0,0,1,3,9.2,43.8,43.8,0,0,1,.54,6.76,38.88,38.88,0,0,1-2.34,13.34A39.74,39.74,0,0,1,120.67,311.86Zm152.41,27.5,18.21,36.33H221.35l18.21-36.33a8,8,0,0,0,.8-3.56V311.86h31.92V335.8A7.86,7.86,0,0,0,273.08,339.36Zm206.67-51.44a8,8,0,0,1-8,8H170.94a54,54,0,0,0,2.3-5.24c.32-.9.46-1.84.74-2.74H463.79a8,8,0,0,0,8-8V56.51a8,8,0,0,0-8-8H48.85a8,8,0,0,0-8,8V279.94a8,8,0,0,0,8,8h18.5c.26.86.39,1.77.69,2.62a56.61,56.61,0,0,0,2.36,5.36H40.87a8,8,0,0,1-8-8V48.53a8,8,0,0,1,8-8h430.9a8,8,0,0,1,8,8Z"/></svg>