<svg id="Layer_1" data-name="Layer 1" xmlns="http://www.w3.org/2000/svg" xmlns:xlink="http://www.w3.org/1999/xlink" viewBox="0 0 512 512"><defs><style>.cls-1{fill:url(#linear-gradient);}.cls-2{fill:url(#linear-gradient-2);}.cls-3{fill:url(#linear-gradient-3);}.cls-4{fill:url(#linear-gradient-4);}.cls-5{fill:url(#linear-gradient-5);}.cls-6{fill:url(#linear-gradient-6);}.cls-7{fill:url(#linear-gradient-8);}</style><linearGradient id="linear-gradient" x1="281.01" y1="0.32" x2="281.01" y2="478.8" gradientUnits="userSpaceOnUse"><stop offset="0" stop-color="#c8e233"/><stop offset="1" stop-color="#aad300"/></linearGradient><linearGradient id="linear-gradient-2" x1="462.65" y1="0.32" x2="462.65" y2="478.8" xlink:href="#linear-gradient"/><linearGradient id="linear-gradient-3" x1="284.69" y1="0.32" x2="284.69" y2="478.8" xlink:href="#linear-gradient"/><linearGradient id="linear-gradient-4" x1="409.26" y1="0.32" x2="409.26" y2="478.8" xlink:href="#linear-gradient"/><linearGradient id="linear-gradient-5" x1="256.32" y1="0.32" x2="256.32" y2="478.8" xlink:href="#linear-gradient"/><linearGradient id="linear-gradient-6" x1="140.51" y1="0.32" x2="140.51" y2="478.8" xlink:href="#linear-gradient"/><linearGradient id="linear-gradient-8" x1="351.95" y1="0.32" x2="351.95" y2="478.8" xlink:href="#linear-gradient"/></defs><title>Office Maintenance ICONS</title><path class="cls-1" d="M301.07,217.94a38.31,38.31,0,0,1-11.86,4.22,2.34,2.34,0,0,0-1.9,1.9,38,38,0,0,1-4.22,11.87,2.39,2.39,0,0,1-4.15,0,38,38,0,0,1-4.22-11.87,2.34,2.34,0,0,0-1.9-1.9A38.31,38.31,0,0,1,261,217.94a2.39,2.39,0,0,1,0-4.15,38,38,0,0,1,11.86-4.22,2.33,2.33,0,0,0,1.9-1.9,38.11,38.11,0,0,1,4.22-11.87,2.39,2.39,0,0,1,4.15,0,38.11,38.11,0,0,1,4.22,11.87,2.33,2.33,0,0,0,1.9,1.9,38,38,0,0,1,11.86,4.22A2.39,2.39,0,0,1,301.07,217.94Z"/><path class="cls-2" d="M482.7,144.24a38,38,0,0,1-11.85,4.23,2.35,2.35,0,0,0-1.91,1.9,37.86,37.86,0,0,1-4.22,11.87,2.39,2.39,0,0,1-4.15,0,38.09,38.09,0,0,1-4.21-11.87,2.35,2.35,0,0,0-1.91-1.9,38,38,0,0,1-11.85-4.23,2.39,2.39,0,0,1,0-4.15,38.29,38.29,0,0,1,11.86-4.21,2.35,2.35,0,0,0,1.91-1.9,38.09,38.09,0,0,1,4.21-11.87,2.39,2.39,0,0,1,4.15,0A37.86,37.86,0,0,1,468.94,134a2.35,2.35,0,0,0,1.91,1.9,38.38,38.38,0,0,1,11.86,4.21A2.4,2.4,0,0,1,482.7,144.24Z"/><path class="cls-3" d="M304.74,46.76A38.05,38.05,0,0,1,292.88,51a2.35,2.35,0,0,0-1.9,1.91,38.11,38.11,0,0,1-4.22,11.87,2.39,2.39,0,0,1-4.15,0,38.11,38.11,0,0,1-4.22-11.87,2.35,2.35,0,0,0-1.9-1.91,38.31,38.31,0,0,1-11.86-4.22,2.39,2.39,0,0,1,0-4.15,38,38,0,0,1,11.86-4.21,2.35,2.35,0,0,0,1.9-1.91,38.11,38.11,0,0,1,4.22-11.87,2.4,2.4,0,0,1,4.15,0A38.11,38.11,0,0,1,291,36.49a2.35,2.35,0,0,0,1.9,1.91,38,38,0,0,1,11.86,4.21A2.39,2.39,0,0,1,304.74,46.76Z"/><path class="cls-4" d="M362.31,221.73V210.49a2.55,2.55,0,0,1,2.55-2.55H448a8.17,8.17,0,0,1,8.17,8.17h0a8.17,8.17,0,0,1-8.17,8.17H364.86A2.55,2.55,0,0,1,362.31,221.73Z"/><path class="cls-5" d="M497.3,255H452.84a8.17,8.17,0,1,0,0-16.34H369.67a2.55,2.55,0,0,0-2.55,2.55v11.24a2.55,2.55,0,0,0,2.55,2.55H180.61a6.44,6.44,0,0,0,6.44-6.47,6.54,6.54,0,0,0-6.48-6.47h-6.18L167,216h57.69a22,22,0,0,0,22-22.09V91.16a22,22,0,0,0-22-22.08H50.81A22,22,0,0,0,28.72,91.16V193.88A22.05,22.05,0,0,0,50.81,216h57.54L101,242.08H95a6.56,6.56,0,0,0-6.61,6.47A6.47,6.47,0,0,0,94.94,255H15.34a7.22,7.22,0,0,0-7.19,7.19V284.3a7.22,7.22,0,0,0,7.19,7.19H39.15V478a7.17,7.17,0,0,0,7.19,7.2H60.8A7.22,7.22,0,0,0,68,478V456.79H211.29a16.1,16.1,0,0,0,16.11-16.18v-95H444.64L444.71,478a7.22,7.22,0,0,0,7.2,7.2h14.45a7.22,7.22,0,0,0,7.2-7.2V291.49H497.3a7.22,7.22,0,0,0,7.19-7.19V262.21A7.22,7.22,0,0,0,497.3,255ZM224.67,90.66l.43,103.22-.43.51H125.33L212.22,90.66ZM50.81,194.39,50.3,91.16l117.11-.36L80.73,194.39Zm47.69,0L185.32,90.8l15.9-.07L114.39,194.39ZM204.1,432.12a6.51,6.51,0,0,1-6.55,6.48H83.46a6.51,6.51,0,0,1-6.54-6.48V389a6.5,6.5,0,0,1,6.54-6.47H197.55A6.5,6.5,0,0,1,204.1,389v43.16Zm0-72.8a6.51,6.51,0,0,1-6.55,6.48H83.46a6.51,6.51,0,0,1-6.54-6.48V316.16a6.51,6.51,0,0,1,6.54-6.47H197.55a6.51,6.51,0,0,1,6.55,6.47v43.16Z"/><path class="cls-6" d="M161,331.27h0a7.19,7.19,0,0,1-7.2,7.19H127.2a7.19,7.19,0,0,1-7.19-7.19h0a7.19,7.19,0,0,1,7.19-7.19h26.61A7.19,7.19,0,0,1,161,331.27Z"/><path class="cls-6" d="M161,404.07h0a7.19,7.19,0,0,1-7.2,7.19H127.2a7.19,7.19,0,0,1-7.19-7.19h0a7.19,7.19,0,0,1,7.19-7.2h26.61A7.2,7.2,0,0,1,161,404.07Z"/><path class="cls-7" d="M380.4,99.72c15.25-9.5,32.09-22.66,36.12-26.69a18.29,18.29,0,0,0-25.9-25.83c-4,4-17.19,20.86-26.69,36A9.51,9.51,0,0,1,351,86.62C339.91,80.08,328.83,78,320.92,81l-1.8-1.79a3.2,3.2,0,0,0-4.53,4.53l1.29,1.36L284.73,105a5.74,5.74,0,0,0-2,7.55c1.29,2.16,2.59,4.25,3.88,6.33l30.94-13-23.6,24a166.11,166.11,0,0,0,13.45,16.47l29.5-19.49-19.5,29.49a174.82,174.82,0,0,0,16.48,13.38l24.24-23.88L345,177.19c2,1.22,4,2.52,6.12,3.74a5.6,5.6,0,0,0,7.48-2l20-31.14,1.36,1.44a3.23,3.23,0,0,0,4.61,0,3.27,3.27,0,0,0,0-4.54l-1.94-1.94c3-7.91.93-19-5.61-30.07A9.5,9.5,0,0,1,380.4,99.72ZM402.27,53a7.2,7.2,0,1,1-7.19,7.19A7.17,7.17,0,0,1,402.27,53Z"/></svg>