<svg id="Layer_1" data-name="Layer 1" xmlns="http://www.w3.org/2000/svg" xmlns:xlink="http://www.w3.org/1999/xlink" viewBox="0 0 512 512"><defs><style>.cls-1{fill:url(#linear-gradient);}.cls-2{isolation:isolate;font-size:0.06px;font-family:Arial-BoldMT, Arial;font-weight:700;}</style><linearGradient id="linear-gradient" x1="264.45" y1="67.72" x2="264.45" y2="421.18" gradientUnits="userSpaceOnUse"><stop offset="0" stop-color="#c8e233"/><stop offset="1" stop-color="#aad300"/></linearGradient></defs><title>Office Maintenance ICONS</title><path class="cls-1" d="M242.24,255a27.47,27.47,0,0,1,6.92-7.64c1.73-1.4,1.21-2.13,1-4.07-4.32-41.37-3.12-84.5-2.4-126.07,0-2.61,0-2.43-1.91-2.55a31.86,31.86,0,0,1-6.11-1c-4.56-1.18-6.44-4.35-4.88-8.88.8-2.33.81-6.75,2-8.5s1.5-1.92-.29-3.57c-.9-.83-1.94-1.49-2.87-2.29-2.77-2.39-2.54-4.09-3.43.31-.77,3.81-1.35,8.92-2,14.6-1.8,15.67-4.07,35.39-12.76,47.23-2,2.71-1.87,1.55-1.8,5q0,1.75.06,3.57c.08,5,.16,10.29.7,16.43.26,3,.39,2.44,1.64,5,1.47,3,2.57,7.1,2.47,13.2,0,3.12-.33,2.25,2,4.53l17.87,17.93c4.62,4.35,5.73,10.66,3.92,16.6l-4.61,15.09c-.92,3-1.21,2.26.83,4.58l1.21,1.38c1.94,2.21,1.11,1.56,2.47-.9ZM116.4,462.51a1.5,1.5,0,0,1-.08-3c16.27-.5,19.67,1.81,19.76,4.89.06,1.91-1.35,3.65-1.31,5,0,1.65,3.28,2.91,19.61,2.5a1.5,1.5,0,0,1,.07,3c-18.82.47-22.59-2.13-22.67-5.42-.05-1.91,1.36-3.71,1.32-5,0-1.41-2.9-2.42-16.7-2ZM25,458.19a1.5,1.5,0,0,1,0-3c27.1,0,32.44,3.36,32.44,7.89,0,2.77-2,5.18-2.15,7.67C55.12,474.7,61,478.48,95.6,480a1.5,1.5,0,1,1-.13,3c-37.13-1.63-43.41-6.83-43.16-12.36.12-2.75,2.13-5.45,2.13-7.54,0-2.81-4.84-4.89-29.44-4.89Zm440.91,4.32a1.5,1.5,0,0,1-.08-3c16.27-.5,19.67,1.81,19.76,4.89.06,1.91-1.35,3.65-1.32,5,.05,1.65,3.29,2.91,19.62,2.5a1.5,1.5,0,0,1,.07,3c-18.83.47-22.59-2.13-22.67-5.42-.05-1.91,1.36-3.71,1.32-5-.05-1.41-2.9-2.42-16.7-2Zm-91.4-4.32a1.5,1.5,0,0,1,0-3c27.1,0,32.44,3.36,32.44,7.89,0,2.77-2,5.18-2.15,7.67-.17,3.95,5.72,7.73,40.31,9.24a1.5,1.5,0,0,1-.13,3c-37.14-1.63-43.41-6.83-43.17-12.36.13-2.75,2.14-5.45,2.14-7.54,0-2.81-4.84-4.89-29.44-4.89ZM229.46,473c8.74.35,15.1-.38,19.22-9.14,5.56-11.83-2.91-36.81-1.13-55.81.42-4.44,1.24-3.43-3.07-2.5a40.54,40.54,0,0,1-16.81.12c-3.14-.73-2.93-1.66-2.19,1.63,2.43,10.81,2.88,21.34-.64,32.07-.46,1.4-.82,2,.37.36,1.92-2.65,6,.27,4,2.93-3.57,4.94-8.4,6.89-12,11.94-7.52,10.68-.18,17.9,12.17,18.4Zm62.83-23.09c-1.59-2.86,2.76-5.28,4.35-2.42.8,1.17.91,1,.55-.51A57.29,57.29,0,0,1,296,433a101.56,101.56,0,0,1,3.27-23.76c1.09-4.07,1-4.17-2.33-3.81-6.4.69-12.74.7-19-1.11-3.94-1.14-3.3-2.07-2.81,2.27,1.51,13.28.42,31-3.44,43.61-1.75,5.73-1.59,10.64-.19,14.72,4.2,12.21,18.71,17.22,30.41,13.08,10.25-3.62,7.44-9.9,3.77-13.56-4-4-10.85-9.86-13.43-14.48Zm4.36-49.31c6.81-.74,13.68-3,15-8.42a387.13,387.13,0,0,0,7.4-40.08c5.15-38.72,7.94-74.83,6.61-113.81-.06-1.9-.12-3.8-.19-5.67-.24-7.67-.29-15.35-.06-23,.2-6.5,1-6.69-2.84-1.19-11.67,16.79-32.52,44.76-46.87,40.69-2.81-.79-2.18-1.6-3.89,1.71a47.9,47.9,0,0,0-2.11,4.9c-2.07,5.34-4.29,10.78-12,16.62-2.06,1.55-2.31,1.36-.41,3.51l10.93,12.43c2.8,3.19,4.61,5.94,4.44,10-.13,3.29-.91,2,1.41,4.77l31.76,37.38c1.75,2.08,3.15,3.61,3.47,6.69.62,5.85-4.83,11.75-10.69,11.72a9.46,9.46,0,0,1-7.72-4.3L266,325.1c-1.19-1.36-1.29-1.62-1.28.2.07,15.16-.71,37.84,1.29,55.74,1,8.83,2.95,14.92,12.05,18.06,5.59,1.93,12.78,2.13,18.6,1.51Zm8,7.51A114.7,114.7,0,0,0,301,433c-.2,10.92,2,21.72,9.25,29,8.34,8.34,3.42,17.08-6.62,20.62-14.32,5.06-31.7-1.33-36.79-16.16-1.71-5-1.94-10.95.15-17.79,4-13.09,5-32.78,2.56-46.36-.53-2.94-.27-2.1-2.22-4.09a23.19,23.19,0,0,1-3-3.95c-2-3.4-2-3.06-3.7,0a20.87,20.87,0,0,1-3.92,5.19c-3.32,3.12-3.13,1.39-3.83,6.44-3,21.56,7.28,45.16.3,60-5.07,10.78-13.05,12.45-23.92,12-15.91-.64-25.94-11.51-16.13-26.22,10.57-15.87,11.15-29.8,6.54-47.18-.6-2.25-.26-2.17-3.32-5.31-13.25-13.63-11.74-44.61-11.35-61.44.37-15.84.7-33.5-2.51-52-.61-3.52-.74-3-5-3.13l-9.3-.18c-9.7-.2-9.6-.2-15.55-6.37L150.26,253c-5.45-5.65-6.13-9.21-4.31-16.65h0l2.44-10.14c1.57-5.53,1.72-5.16-1.89-9.12l-2.5-2.62h0c-5.92-5.91-6.56-11.68-4.53-19.56l3.93-15.29c1.27-4.94,3.47-8.34,7.13-11,3-2.19,2.78-2.61.79-5.38-15.94-22.2-5.85-30.23,10.42-43.16,3.09-2.45,6.39-5.08,9.66-7.93,18.13-15.86,31.44-20.49,42.2-24.23,3.17-1.1,9-2.87,12.25-5.35,1.76-1.34,1.44-1.11,1-3a16.2,16.2,0,0,1,0-7.62c1-4.36,1.12-1,.47-5.31a18.89,18.89,0,0,1,.2-7.24c.38-2.1.6-1.89-.3-4.81a41.91,41.91,0,0,1-1.84-12.35c0-18.72,14.09-28.84,31.48-28.84,16.58,0,29.17,11.32,29.68,28.11a32.62,32.62,0,0,1-2,12.9c-2,5.5-.23,7.34-.65,12.82-.05.85-.13,1.67-.25,2.46-.51,3.6-1.54,3,1.74,5.12a76.8,76.8,0,0,0,7.26,4.08c3,1.5,1.82.5,4.68.53,3.92,0,11.83,4,14.88,6.58,2.17,1.8,2.08,3.26,4.57,4.83A42.59,42.59,0,0,1,331,105.67c3.45,5.91,1.54,4.93,7.11,9.45a23.75,23.75,0,0,1,6.43,8.64c2.59,5.64,3.81,12.7,3.79,20L348,217.53c0,10.89-3.08,17.06-14.65,18.07-3.12.27-2.79.11-2.69,3.24,1.33,39-1.53,75.23-6.67,113.92-2.65,19.93-5.7,36.51-8.68,44-.78,1.95-3,3.77-6.06,5.25-4.38,2.11-3.31.93-4.61,6.11ZM259.75,325c0-1.72,0-3.44,0-5.15,0-2.22.29-1.86-1.13-3.55l-1.5-1.77c-.73-.88-1.08-1-2.8-1.4-3.77-.81-5.51-2.6-7.94-5.36l-19.68-22.39c-2.08-2.37-1.33-2.11-4.45-2.17L210.76,283c-4-.08-3.85-.92-3.23,2.7,3.24,18.79,2.83,36.21,2.46,52.22-.37,15.58-2,48.75,11.77,59.49,6.67,5.19,18.84,5.26,26.77,1.62,7.67-3.51,10-10.11,10.54-18,1.1-17.81.48-38.06.68-56Zm73.73-94.43c8.54-1.6,9.55-4.37,9.58-13.07l.26-73.79c0-6.61-1.05-12.94-3.34-17.91-2.32-4.46-3-5.73-2,.24a108.25,108.25,0,0,1,1.38,12c1.2,18.63,1.66,41.12-8.18,57.72-.44,5-.74,10.64-.87,16.78-.1,5,0,10.34,0,15.92C330.37,230.4,330.35,231.18,333.48,230.6ZM217.7,278.17c2.72.12,2.68.09.67-2.19l-15.84-18v0c-12.37-12.58,10.95-31.94,21.87-19.54l6.57,7.47c2.77,3.16,2,2.58,3.32-1.67l3.2-10.47c3.62-11.87-7.51-16.42-17.15-16.77-6.77-.25-20.45,1.84-22.87,8.91l-13.68,48.55c-.9,3-.72,3.06,4.48,3.16l29.44.59Zm80.76,75.68a6.32,6.32,0,0,0,5.82-4.89c.56-2.86-1.34-4.08-3.52-3.89a6.26,6.26,0,0,0-5.41,4.84c-.44,2.23.8,3.94,3.11,3.94Zm-40.71-46.22,31.09,36.78c2.25,2.8,1.62,2.89,3.46.35a11.79,11.79,0,0,1,4.25-3.62c2.51-1.25,2.73-.21.41-3l-31.6-37.72C262.07,297,253.7,301.77,257.75,307.63Zm-37.09-65.91c-7.47-7.5-21.48,4.88-14.67,12.61l37.35,42.5c2.13,2.43,1.32,2,2.26-.54a16.25,16.25,0,0,1,11.2-10.09c2.9-.72,3.18.25.76-2.5l-36.9-42Zm33,27.36c7.53-5.22,9.49-10.28,11.39-15.16a43.27,43.27,0,0,1,3.12-6.83c1.84-3.09,1.57-2.54-.19-4.93a26.93,26.93,0,0,0-6.35-5.49c-2.13-1.47-2.24-2.23-3.7,1a23.69,23.69,0,0,0-1.37,4.64c-.75,3.4-1.48,6.65-4.32,8.95-2.29,1.84-5,4.41-6.17,7.18-1.51,3.51.11,2.31,1.84.67.7-.65,1.44-1.29,2.22-2,1.14-1,2.36-2,3.51-3.24,2.27-2.36,5.86,1.1,3.59,3.46-1.29,1.35-2.61,2.48-3.84,3.54a18.69,18.69,0,0,0-4.07,4.23c-.74,1.29-.42,1.19.49,2.23l1.49,1.69c1.13,1.29.82,1.1,2.36,0Zm6.56,21.69a10.89,10.89,0,0,0-10.56,10.44h0a7.18,7.18,0,0,0,.78,3.37c1,1.93.89,1.22,1-.29.57-6.38,7.58-11.62,13.64-9.72,1.5.47,3.32,1.87,1-1.12a7.25,7.25,0,0,0-5.87-2.68Zm-47-100.21c-.78-5.34-2.93-8.37-6.32-12a62.89,62.89,0,0,1-5.71-6.45c-1.23-1.76-.78-2.54-3.1-1.59A22.62,22.62,0,0,0,188,179.22c-2.54,4.35-.41,8.71,2.39,12.46a37.46,37.46,0,0,0,10.94,9.42c3.42,2,6.47,2.11,4.93-2.48-.27-.8-.77-1.93-1.31-3.16-1.9-4.28-4.21-9.49-1.84-13.13,1.78-2.74,6,0,4.17,2.71-.91,1.4.35,2.36,1.21,3.23l3.2,3.21c2.11,2.11,2.12,2.46,1.62-.92Zm-1.78,11.93c-1.29,6.09-8.52,5.35-12.69,2.93a42.66,42.66,0,0,1-12.45-10.76c-2.49-3.14-2.15-3.57-7-5.44a37.33,37.33,0,0,1-10.7-6.82,86.8,86.8,0,0,1-8.79-8.79c-2.31-2.6-1.92-3.46-5.24-1.61-4.35,2.43-6,4.74-2,8.19l39.82,37.18c3.46,3.24,2.85,2.43,5.18.64,6-4.6,15.42-6.27,22.6-6,6.26.2,6.53,1.65,1.14-3.76l-7-7c-4.81-4.83-2.06-2.48-2.87,1.3Zm-64.86-15.61-2.38,9.27c-1.52,5.91-1.39,9.89,2.77,14.31,11.75,12.5,23.8,24.83,35.68,37.21,2.61,2.62,2.5,3.22,3.88-1.67l4.78-16.95c1.44-5.13,1.27-4.59-1.74-7.47l-38.21-35.69c-4.2-3.92-3.38-4.45-4.78,1Zm25.19-8.28a39.23,39.23,0,0,0,6.43,4.55c2.77,1.53,3,1.13,3.42-1.22a15.84,15.84,0,0,1,2-5.22,27.84,27.84,0,0,1,12.73-10.53c2.09-.82,5.33-1.33,5-3.19a13.22,13.22,0,0,0-3.08-5.29,48.34,48.34,0,0,0-5.69-5.36c-6-5-13.15-10.2-14.79-18.39-.64-3.22,4.26-4.19,4.9-1,1.06,5.3,5.6,9.51,10.47,13.36,1.44,1.14,1.83,1.39,3.82.77a33.33,33.33,0,0,0,5.37-2.17c2.77-1.42,2.41-.86,2-3.68a83.68,83.68,0,0,1,.74-24.3,77.41,77.41,0,0,1,6.22-20.51c1.6-3.28,2.63-3.65-1.94-1.86-9.3,3.66-20.37,8.76-34.75,21.29-3.47,3-6.77,5.66-9.83,8.09-14,11.09-22.84,18.14-9.12,36.82a116.89,116.89,0,0,0,16.13,17.81Zm9.2,74.52-23.26-24.25c-3.78-4.09-3.93-3.47-4.95.13l-2.05,8.52h0c-1.41,5.76-1.17,7.64,3.06,12l22.35,23.19c2.35,2.22,2.28,2.62,3.05-.61l3.27-11.61c1.39-4.93,2-3.79-1.47-7.4Zm28-82c-.15-3.48-.2-6.73-.25-9.84,0-1.46,0-2.89-.08-4.32-.08-3.32-.6-2.75-1.86-5.77-1-2.42-.69-2.39-2.94-1.43-.73.31-1.42.67-2.12,1-3.46,1.44-2.48.61.24,3.78a19.06,19.06,0,0,1,4.19,7.48c.66,2.47.68,4.13.22,5.28-.8,2-2.21.9-.3,3.16.33.38.71.79,1.14,1.21,2.44,2.4,1.9,2.68,1.76-.51Zm55.43,61.49c5.92,4.09,8,7,9.43,9.14.9,1.3,1.48,2.13,3.15,2.6,12.46,3.54,34.93-29.22,44.84-43.68,14.4-21,14.09-37.54,12.49-62.29-.6-9.44-2.16-18.52-5.75-26.33a38.71,38.71,0,0,0-13.15-16c-2.65-1.84-2.28-2-3.75,1-4.33,8.62-7,21.15-8,30.64v.06c-1.21,11.15-1.45,20.47-1.66,28.37-.43,16.49-.71,27.06-8.85,35-9.74,9.51-19.39,21-28.52,31.25-2.67,3-3.89,4.91-3.82,6.28.07,1.52,2.58,3.23,3.62,3.94Zm-10.69,2.13a12.59,12.59,0,0,1,1.27-2c2.11-2.62,1-.75.82-3.88-.13-2.82,1.5-5.81,5.09-9.83,9.21-10.3,18.93-21.9,28.75-31.51,6.7-6.54,6.95-16.31,7.35-31.55.18-5-.26-4.37-3.26-7.64-10.95-11.92-12.07-49.05-4.68-62.85,1.43-2.67,1.79-1.73-1.27-3.37-1.42-.76-2.76-1.51-4-2.24-3-1.86-3-1.59-5.3,1.55-3.45,4.75-8.58,7.26-12.68,9.49a38.71,38.71,0,0,0-3.78,2.16c-1.52,1.09-.94,1.81.26,3.39a8.15,8.15,0,0,1,1.31,4.68,33.88,33.88,0,0,0,.51,5.68c.83,5.19-2.53,7.3-7.12,7.8-.9.1-2.21.19-3.76.23-2.94.08-2.51-.54-2.6,2.4-1.19,38.38-1.53,78.55,1.57,116.84.38,4.79-.07,3.58,1.48.61Zm38.86-145c-5.13,12.58-4.13,40.43,2.79,52.41,2.28,3.95,2,2.86,2.16-.59.24-4.43.6-9.2,1.15-14.34,0,0,0,0,0-.08,1.17-10.73,4.2-24.5,9.46-34,1.51-2.74,1.78-2.68-1.42-4.65-2.29-1.41-8.27-4.67-10.6-3.69-1.29.54-2.35,2-3.55,5Zm-70.54.49c-5.5,3.7-10,15.11-12.08,27.58-1.74,10.35-1.8,21.28.56,29.05,1,3.24.84,3.2,2.55.34,6.57-11,8.57-28.38,10.18-42.37.53-4.66,1-9,1.66-12.65.59-3.46,1.27-4.73-2.87-2Zm9.27-13.36a12.14,12.14,0,0,0,.27,1.6,15.83,15.83,0,0,0,4.25,7.27c3.3,3.3,2.63,2.12,1.47-1.26-.37-1.07-.77-2.27-1.12-3.48-.91-3.19-.35-3.12-3.1-4.71-1.68-1-2.06-2.22-1.77.58ZM277.15,59.1c.71-1.79,1.54-3.53,2.25-5.34a28.86,28.86,0,0,0,2.11-12.08c-.44-14.07-10.84-23.25-24.71-23.25-14.64,0-26.48,7.9-26.48,23.85a35.82,35.82,0,0,0,1.12,9c.52,2.1,1,1.8,2.77,1.28,8.81-2.53,27.28-2.19,35.07,1.86C276.62,58.24,274,72.1,268,76.65c-3.58,2.71-1.85.07-2.9,4.46a16.49,16.49,0,0,1-1.28,3.42c-1.77,3.54-2.26,3.14,1.66.94,4.57-2.56,9.69-6,12-12.06A21.46,21.46,0,0,0,278.83,67c0-4.2-3.16-4.2-1.68-7.9ZM255.2,92.38c.16-4.27,2.46-6.6,4.2-10.07,1.1-2.2,1.88-4.91-.46-6.59s-3.89-1.15-5.6-5.44c-.78-2-4.31-2.06-5.18-.22a9.77,9.77,0,0,1-4.32,4.46c-4.71,2.67-3.28,3.82-1.73,8.31a40.21,40.21,0,0,1,2.21,8.58c.36,3-.55,2.89,2.66,3.27a45,45,0,0,0,5.76.22c1.66,0,2.39-.66,2.46-2.52Zm8.51-18.95c4.94-2.08,6.78-12.75,3.27-14.58-6.81-3.54-25.38-3.49-32.58-1.15-1,.33-1.73,1.43-2.1,2.93a15.5,15.5,0,0,0,.36,7.57c.92,3.36,3.85,5.06,7.09,3,1.53-1,3.07-1.48,3.9-3.24,2.73-5.77,11.92-5.51,14.32.52.77,1.94,2.33,2.12,3.88,3.23a9.21,9.21,0,0,1,1.86,1.75Zm-22.9,26.93a39.91,39.91,0,0,1-1.22,6.08c-.59,1.72-.35,2,1.41,2.44,4.37,1.14,11.12,1.27,15.59.79,1.65-.18,3-.44,2.74-2.07a47.38,47.38,0,0,1-.58-6.09c-.05-1.8-.24-2-1.87-1.83-2.92.23-9.16.59-13.77-.66-1.58-.43-2-.28-2.3,1.34Z"/><text class="cls-2" transform="translate(15.41 503.28)">Created by Oleksandr Panasovskyi</text><text class="cls-2" transform="translate(15.41 503.35)">from the Noun Project</text></svg>