<svg id="Layer_1" data-name="Layer 1" xmlns="http://www.w3.org/2000/svg" xmlns:xlink="http://www.w3.org/1999/xlink" viewBox="0 0 512 512"><defs><style>.cls-1{fill:url(#linear-gradient);}</style><linearGradient id="linear-gradient" x1="256.32" y1="-9.32" x2="256.32" y2="508.91" gradientUnits="userSpaceOnUse"><stop offset="0" stop-color="#c8e233"/><stop offset="1" stop-color="#aad300"/></linearGradient></defs><title>Office Maintenance ICONS</title><path class="cls-1" d="M360.27,32.56H152.37A137.87,137.87,0,0,0,14.28,170.65v170.7A137.87,137.87,0,0,0,152.37,479.44h17.32c58.6,0,106.5-46.37,109.05-105a109.28,109.28,0,0,0,87.14-107V248.1a22.84,22.84,0,0,0-22.94-22.93H322.05V176.76a22.93,22.93,0,0,0-45.86,0v48.41H237V176.76a22.93,22.93,0,0,0-45.86,0v48.41H169.69a22.83,22.83,0,0,0-22.93,22.93v19.37a109.32,109.32,0,0,0,86.12,107c-2.55,33.13-29.56,59.11-63.19,59.11H152.37a92.2,92.2,0,0,1-92.23-92.23V170.65c0-50.45,41.27-92.23,92.23-92.23h207.9c50.45,0,92.23,41.27,92.23,92.23v170.7a92.2,92.2,0,0,1-92.23,92.23H334.79a22.93,22.93,0,0,0,0,45.86h25.48A137.87,137.87,0,0,0,498.36,341.35V170.65C498.36,94.72,436.7,32.56,360.27,32.56Zm-167.65,239H319.51a63.73,63.73,0,0,1-63.7,60.13C221.67,331.67,194.66,304.66,192.62,271.54Z"/></svg>