<svg id="Layer_1" data-name="Layer 1" xmlns="http://www.w3.org/2000/svg" xmlns:xlink="http://www.w3.org/1999/xlink" viewBox="0 0 512 512"><defs><style>.cls-1{fill:url(#linear-gradient);}</style><linearGradient id="linear-gradient" x1="256.32" y1="13.49" x2="256.32" y2="489.68" gradientUnits="userSpaceOnUse"><stop offset="0" stop-color="#c8e233"/><stop offset="1" stop-color="#aad300"/></linearGradient></defs><title>Office Maintenance ICONS</title><path class="cls-1" d="M22.31,62.54v38.65H256.17a123.68,123.68,0,0,1,13.31-38.65Zm0,389.58v38.93H437.85v-39H22.31Zm357.33-205A125.3,125.3,0,0,1,254.51,124.55H243.14v308H437.85V232.67A124.45,124.45,0,0,1,379.64,247.09Zm-87.8,57.65H272.35v-52.3h19.49ZM22.31,124.55v308H217v-308ZM188,304.74H168.09v-52.3h19.44v52.3ZM380.09,9.58A110.73,110.73,0,0,0,271.41,99.65a108.31,108.31,0,0,0-1.93,20.49v2.65A110.44,110.44,0,1,0,380.09,9.58Zm58.2,187a96,96,0,0,1-154.23-73.77,19.53,19.53,0,0,1,0-2.65,96.16,96.16,0,1,1,154.23,76.42Zm-96.47-6-28.55-28.6q13.14-13.59,26-27.61a72.67,72.67,0,0,0,7.29-10.22,13.67,13.67,0,0,0,2.15-7.56,66.71,66.71,0,0,1,6-28.72,56.61,56.61,0,0,1,31.37-28.55c1.21-.55,2.37-.77,3.59-1.43a5.51,5.51,0,0,1,6.51.77,10.86,10.86,0,0,0-.93,1.71c-6.35,11-12.87,22.48-19.28,33.63a2.83,2.83,0,0,0,0,3.2,43.51,43.51,0,0,0,38.66,21.37,2.32,2.32,0,0,0,2-1.71l19.16-33.46A13.68,13.68,0,0,1,437,81.48c2.27,1,4.64,2.27,7.07,3.31V94c-.39,3.7-.55,7.46-1.21,11a137.36,137.36,0,0,1-4.15,18.28,35.7,35.7,0,0,1-31.2,25.51,132.54,132.54,0,0,1-14.63,1.05,11.53,11.53,0,0,0-6.63,2,105.73,105.73,0,0,0-13.8,10.11C362.3,171.16,352,180.88,341.82,190.54Z"/></svg>