<svg id="Layer_1" data-name="Layer 1" xmlns="http://www.w3.org/2000/svg" xmlns:xlink="http://www.w3.org/1999/xlink" viewBox="0 0 512 512"><defs><style>.cls-1{fill:url(#linear-gradient);}</style><linearGradient id="linear-gradient" x1="256.32" y1="4.4" x2="256.32" y2="486.8" gradientUnits="userSpaceOnUse"><stop offset="0" stop-color="#c8e233"/><stop offset="1" stop-color="#aad300"/></linearGradient></defs><title>Office Maintenance ICONS</title><path class="cls-1" d="M171.81,345.12h210.6l-25.5,155.13H197.22Zm-1.41-8.28H383.73l5-30.47H165.43ZM144.16,154.47c-12.09-2.23-20.2-7.53-22.18-14.4-4.39-15.32,19.53-36.18,52.15-45.53,1.57-.5,3.14-.91,4.64-1.24a4.21,4.21,0,0,0,3.14-2.49,4.26,4.26,0,0,0-.49-4c-1-1.33-2-2.73-3-4.22-19-28.15-23.85-59.44-10.6-68.38a17,17,0,0,1,13.24-1.91c14.58,2.82,32.7,17.47,46.11,37.42.91,1.33,1.82,2.82,2.65,4.22a4.31,4.31,0,0,0,3.31,2,4.21,4.21,0,0,0,3.56-1.65l1.16-1.58c.66-.83,1.24-1.65,2-2.56,20.94-26.74,49.25-41.06,61.75-31.3s5.55,40.73-15.39,67.47A50.08,50.08,0,0,1,283,90.23a4.08,4.08,0,0,0-.91,4A4,4,0,0,0,285,97a39.41,39.41,0,0,1,4.71,1.57c32,11.59,54.31,34,48.84,49a17.18,17.18,0,0,1-9.6,9.35c-13.49,6.29-36.84,5.05-59.36-3.14-1.48-.58-3.06-1.16-4.63-1.82h0a4.06,4.06,0,0,1,2.11,1.91l.66,1.32A221.36,221.36,0,0,1,286,298.09h-8.45a212.17,212.17,0,0,0-17.3-139.15l-.58-1.33a4,4,0,0,1-.36-2.4,2.85,2.85,0,0,0-.14.5l-.08,5.22c-.82,24-8.36,46-19.29,56.12a16.58,16.58,0,0,1-12.16,5.46c-16-.58-28.48-29.71-27.32-63.57l.08-1.66.24-3.47a4,4,0,0,0-1.57-3.73,4.21,4.21,0,0,0-2.48-.91,5,5,0,0,0-1.57.33c-1.41.58-3,1-4.64,1.49A103.93,103.93,0,0,1,144.16,154.47Zm59.35-45.78a28,28,0,1,0,28-28h0A28.06,28.06,0,0,0,203.51,108.69Zm28,19.7a19.7,19.7,0,1,0-19.69-19.7h0a19.74,19.74,0,0,0,19.69,19.7Zm64.41,99.42a171.49,171.49,0,0,1,59.52-20.2,4.17,4.17,0,0,1,.91,8.28,166.3,166.3,0,0,0-58.94,20.53c62,10.68,87.17-18.62,93.79-28.72-21.93-13.66-41.88-17.64-59.27-11.92a69.18,69.18,0,0,0-36,32Z"/></svg>