<svg id="Layer_1" data-name="Layer 1" xmlns="http://www.w3.org/2000/svg" xmlns:xlink="http://www.w3.org/1999/xlink" viewBox="0 0 512 512"><defs><style>.cls-1{fill:url(#linear-gradient);}.cls-2{fill:url(#linear-gradient-2);}.cls-3{fill:url(#linear-gradient-3);}.cls-4{fill:url(#linear-gradient-6);}.cls-5{fill:url(#linear-gradient-7);}.cls-6{fill:url(#linear-gradient-8);}.cls-7{fill:url(#linear-gradient-10);}.cls-8{fill:url(#linear-gradient-11);}.cls-9{fill:url(#linear-gradient-12);}.cls-10{fill:url(#linear-gradient-13);}.cls-11{fill:url(#linear-gradient-14);}.cls-12{fill:url(#linear-gradient-16);}.cls-13{fill:url(#linear-gradient-18);}.cls-14{fill:url(#linear-gradient-19);}.cls-15{fill:url(#linear-gradient-20);}.cls-16{fill:url(#linear-gradient-21);}.cls-17{fill:url(#linear-gradient-22);}</style><linearGradient id="linear-gradient" x1="162.61" y1="21.94" x2="162.61" y2="493.16" gradientUnits="userSpaceOnUse"><stop offset="0" stop-color="#c8e233"/><stop offset="1" stop-color="#aad300"/></linearGradient><linearGradient id="linear-gradient-2" x1="55.01" y1="21.94" x2="55.01" y2="493.16" xlink:href="#linear-gradient"/><linearGradient id="linear-gradient-3" x1="162.61" y1="21.94" x2="162.61" y2="493.16" xlink:href="#linear-gradient"/><linearGradient id="linear-gradient-6" x1="55.01" y1="21.94" x2="55.01" y2="493.16" xlink:href="#linear-gradient"/><linearGradient id="linear-gradient-7" x1="397.05" y1="21.94" x2="397.05" y2="493.16" xlink:href="#linear-gradient"/><linearGradient id="linear-gradient-8" x1="396.97" y1="21.94" x2="396.97" y2="493.16" xlink:href="#linear-gradient"/><linearGradient id="linear-gradient-10" x1="397.07" y1="21.94" x2="397.07" y2="493.16" xlink:href="#linear-gradient"/><linearGradient id="linear-gradient-11" x1="463.12" y1="21.94" x2="463.12" y2="493.16" xlink:href="#linear-gradient"/><linearGradient id="linear-gradient-12" x1="456.52" y1="21.94" x2="456.52" y2="493.16" xlink:href="#linear-gradient"/><linearGradient id="linear-gradient-13" x1="327.21" y1="21.94" x2="327.21" y2="493.16" xlink:href="#linear-gradient"/><linearGradient id="linear-gradient-14" x1="334.76" y1="21.94" x2="334.76" y2="493.16" xlink:href="#linear-gradient"/><linearGradient id="linear-gradient-16" x1="147.23" y1="21.94" x2="147.23" y2="493.16" xlink:href="#linear-gradient"/><linearGradient id="linear-gradient-18" x1="147.3" y1="21.94" x2="147.3" y2="493.16" xlink:href="#linear-gradient"/><linearGradient id="linear-gradient-19" x1="163.79" y1="21.94" x2="163.79" y2="493.16" xlink:href="#linear-gradient"/><linearGradient id="linear-gradient-20" x1="89.3" y1="21.94" x2="89.3" y2="493.16" xlink:href="#linear-gradient"/><linearGradient id="linear-gradient-21" x1="420.35" y1="21.94" x2="420.35" y2="493.16" xlink:href="#linear-gradient"/><linearGradient id="linear-gradient-22" x1="254.82" y1="21.94" x2="254.82" y2="493.16" xlink:href="#linear-gradient"/></defs><title>Office Maintenance ICONS</title><path class="cls-1" d="M254.82,439.13H70.39A5.17,5.17,0,0,1,65.22,434v-50a5.17,5.17,0,0,1,5.17-5.17H254.82a5.18,5.18,0,0,1,3.69,8.82c-14.49,14.48-14.49,28.14,0,42.72a5.18,5.18,0,0,1-3.69,8.82ZM75.56,428.78H243.82c-8.84-13.1-8.84-26.57,0-39.66H75.56Z"/><path class="cls-2" d="M70.39,439.13H52.2a17.73,17.73,0,0,1-17.73-17.74V396.57A17.73,17.73,0,0,1,52.2,378.83H70.39A5.18,5.18,0,0,1,75.56,384v50A5.17,5.17,0,0,1,70.39,439.13Zm-18.19-50a7.38,7.38,0,0,0-7.39,7.38v24.83a7.39,7.39,0,0,0,7.39,7.39h13v-39.6Z"/><path class="cls-3" d="M254.82,389.12H70.39a5.17,5.17,0,0,1-5.17-5.18v-50a5.17,5.17,0,0,1,5.17-5.18H254.82a5.17,5.17,0,0,1,3.58,8.9c-7.49,7.18-11.31,14.28-11.33,21.06s3.78,14.11,11.38,21.52a5.18,5.18,0,0,1-3.63,8.88ZM75.56,378.77h168a34.68,34.68,0,0,1-6.87-20.09,34.09,34.09,0,0,1,6.79-19.57H75.56Z"/><path class="cls-2" d="M70.39,389.12H52.2a17.75,17.75,0,0,1-17.73-17.8V346.49A17.73,17.73,0,0,1,52.2,328.76H70.39a5.18,5.18,0,0,1,5.17,5.18v50A5.18,5.18,0,0,1,70.39,389.12Zm-18.19-50a7.38,7.38,0,0,0-7.39,7.38v24.83a7.39,7.39,0,0,0,7.39,7.39h13v-39.6Z"/><path class="cls-1" d="M254.82,339.11H70.39a5.17,5.17,0,0,1-5.17-5.17v-50a5.13,5.13,0,0,1,1.5-3.67,5.2,5.2,0,0,1,3.67-1.51H254.82a5.18,5.18,0,0,1,3.69,8.82c-14.49,14.48-14.49,28.14,0,42.72a5.18,5.18,0,0,1-3.69,8.82ZM75.56,328.76H243.82c-8.84-13.12-8.84-26.56,0-39.66H75.56Z"/><path class="cls-4" d="M70.39,339.11H52.2a17.75,17.75,0,0,1-17.73-17.73V296.55A17.73,17.73,0,0,1,52.2,278.84H70.39A5.14,5.14,0,0,1,75.56,284v50A5.17,5.17,0,0,1,70.39,339.11Zm-18.19-50a7.39,7.39,0,0,0-7.39,7.36v24.83a7.39,7.39,0,0,0,7.39,7.39h13V289.1Z"/><path class="cls-5" d="M485.77,353.16H308.33a5.17,5.17,0,0,1-5.17-5.18V326a5.16,5.16,0,0,1,5.17-5.17H485.77A5.17,5.17,0,0,1,491,326v22A5.18,5.18,0,0,1,485.77,353.16ZM313.5,342.81H480.6V331.18H313.5Z"/><path class="cls-6" d="M463.59,438.07H330.51a5.17,5.17,0,0,1-5.11-4.45L313,348.79a5.15,5.15,0,0,1,5.13-5.92h157.7a5.18,5.18,0,0,1,5.13,5.92l-12.41,84.83A5.2,5.2,0,0,1,463.59,438.07ZM335,427.73H459.12l10.8-74.49H324.16Z"/><path class="cls-5" d="M436.69,331.18H357.41a5.16,5.16,0,0,1-5.17-5.17V74.39a43.45,43.45,0,0,1,43.45-43.45h2.73a43.46,43.46,0,0,1,43.45,43.45V326A5.17,5.17,0,0,1,436.69,331.18Zm-74.11-10.34h68.94V74.39a33.1,33.1,0,0,0-33.1-33.1h-2.73a33.1,33.1,0,0,0-33.11,33.1Z"/><path class="cls-7" d="M421.28,331.18H372.76a5.16,5.16,0,0,1-5.17-5.17V59.52A28.57,28.57,0,0,1,396.14,31h1.7a28.58,28.58,0,0,1,28.72,28.56V326a5.17,5.17,0,0,1-5.28,5.17ZM378,320.84h38.21V59.52A18.23,18.23,0,0,0,398,41.31h-1.69A18.23,18.23,0,0,0,378.1,59.52Z"/><path class="cls-8" d="M476.34,251.42H436.69a5.17,5.17,0,0,1-5.17-5.17V219.52a5.18,5.18,0,0,1,5.17-5.18h21.25V85.23a18.4,18.4,0,1,1,36.77,0V232.88A18.47,18.47,0,0,1,476.34,251.42Zm-34.47-10.34h34.47a8.14,8.14,0,0,0,8-8.28V85.23a8.05,8.05,0,1,0-16.08,0V219.52a5.18,5.18,0,0,1-5.17,5.17H441.87Z"/><path class="cls-9" d="M476.34,238.05H436.69a5.17,5.17,0,0,1,0-10.34h34.48V71.87a5.17,5.17,0,0,1,10.34,0v161A5.17,5.17,0,0,1,476.34,238.05Z"/><path class="cls-10" d="M357.41,190.61H312.12a20.39,20.39,0,0,1-20.28-20.44V93.82a20.28,20.28,0,1,1,40.53,0v55.87h25a5.16,5.16,0,0,1,5.17,5.17v30.58A5.16,5.16,0,0,1,357.41,190.61ZM312.12,83.72a10,10,0,0,0-9.93,10.1v76.35a10,10,0,0,0,9.93,10.1h40.12v-20.2h-25a5.16,5.16,0,0,1-5.17-5.17V93.82a10,10,0,0,0-9.95-10.1Z"/><path class="cls-11" d="M357.41,175.34H312.12a5.16,5.16,0,0,1-5.18-5.17V78.55a5.18,5.18,0,0,1,10.35,0V165h40.12a5.17,5.17,0,0,1,0,10.34Z"/><path class="cls-5" d="M397.05,331.18a5.16,5.16,0,0,1-5.17-5.17V36.14a5.17,5.17,0,1,1,10.34,0V326a5.16,5.16,0,0,1-5.17,5.17Z"/><path class="cls-12" d="M271.38,207.35H23.09a5.17,5.17,0,0,1-5.17-5.17V19.58a5.17,5.17,0,0,1,5.17-5.17H271.38a5.18,5.18,0,0,1,5.17,5.17v182.6A5.18,5.18,0,0,1,271.38,207.35ZM28.26,197H266.2V24.76H28.26Z"/><path class="cls-12" d="M249.3,186H45.17A5.18,5.18,0,0,1,40,180.8V136.67a5.28,5.28,0,0,1,1.72-3.87L99,81.92a5.19,5.19,0,0,1,7.14.25l50.13,51.42,40.91-27.11a5.21,5.21,0,0,1,6,.19l49.3,37.06a5.11,5.11,0,0,1,2.07,4.13V180.8A5.17,5.17,0,0,1,249.3,186Zm-199-10.35H244.13V150.45l-44.32-33.23L158.43,144.6a5.21,5.21,0,0,1-6.56-.71l-49.66-51L50.48,139Z"/><path class="cls-13" d="M249.3,153a5.16,5.16,0,0,1-3.1-1l-46.39-34.78L158.43,144.6a5.21,5.21,0,0,1-6.56-.71l-49.66-51L48.66,140.52a5.17,5.17,0,0,1-8.6-3.87V41a5.17,5.17,0,0,1,5.17-5.18H249.36A5.17,5.17,0,0,1,254.53,41v106.9a5.2,5.2,0,0,1-2.85,4.64A5.45,5.45,0,0,1,249.3,153ZM200,105.72a5.21,5.21,0,0,1,3.11,1l41,30.77V46.13H50.34v79L99,81.88a5.18,5.18,0,0,1,7.14.25l50.13,51.46,40.91-27.11A5.3,5.3,0,0,1,200,105.72Z"/><path class="cls-14" d="M163.79,100.11a21.56,21.56,0,1,1,21.56-21.56A21.56,21.56,0,0,1,163.79,100.11Zm0-32.77a11.2,11.2,0,1,0,7.93,3.28A11.21,11.21,0,0,0,163.79,67.34Z"/><path class="cls-15" d="M122.4,488.23H56.19A5.18,5.18,0,0,1,51,483.05V466a5.16,5.16,0,0,1,5.17-5.17H122.4a5.16,5.16,0,0,1,5.18,5.17v17.05A5.18,5.18,0,0,1,122.4,488.23Zm-61-10.35h55.86v-6.7H61.37Z"/><path class="cls-16" d="M453.45,488.23H387.24a5.18,5.18,0,0,1-5.17-5.18V466a5.16,5.16,0,0,1,5.17-5.17h66.21a5.16,5.16,0,0,1,5.18,5.17v17.05A5.18,5.18,0,0,1,453.45,488.23Zm-61-10.35h55.86v-6.7H392.42Z"/><path class="cls-17" d="M486.56,471.18H23.09A5.17,5.17,0,0,1,17.92,466V432.9a5.14,5.14,0,0,1,5.17-5.17H486.56a5.14,5.14,0,0,1,5.17,5.17V466A5.17,5.17,0,0,1,486.56,471.18ZM28.26,460.83H481.39V438.07H28.26Z"/></svg>