<svg id="Layer_1" data-name="Layer 1" xmlns="http://www.w3.org/2000/svg" xmlns:xlink="http://www.w3.org/1999/xlink" viewBox="0 0 512 512"><defs><style>.cls-1{fill:url(#linear-gradient);}.cls-2{fill:url(#linear-gradient-2);}.cls-3{fill:url(#linear-gradient-3);}</style><linearGradient id="linear-gradient" x1="264.49" y1="39.13" x2="264.49" y2="462.43" gradientUnits="userSpaceOnUse"><stop offset="0" stop-color="#c8e233"/><stop offset="1" stop-color="#aad300"/></linearGradient><linearGradient id="linear-gradient-2" x1="404.06" y1="39.13" x2="404.06" y2="462.43" xlink:href="#linear-gradient"/><linearGradient id="linear-gradient-3" x1="253.05" y1="39.13" x2="253.05" y2="462.43" xlink:href="#linear-gradient"/></defs><title>Office Maintenance ICONS</title><path class="cls-1" d="M301.2,394.63c2,14.23,4,28.12,6,42.31,5.25,0,10.27.11,15.27,0,10.63-.28,18.08,4.23,22.36,14.09,2.2,5.07,4.84,9.95,7.22,14.94,6.84,14.36-2.33,29.9-18.2,30.05-26.68.25-53.37,0-80.06-.07-9.56,0-19.11.15-28.67.16-17.92,0-35.84.26-53.76-.13-14.48-.3-23.77-15.29-18-28.57,2.88-6.63,6.06-13.15,9.48-19.52,4.1-7.64,10.92-10.93,19.45-10.94h16.56c2-14.05,4-27.93,6-42.3H200.7q-68.28,0-136.57,0c-14.57,0-25.78-9-28.51-22.86a33.92,33.92,0,0,1-.46-6.61c0-16.21.14-32.43.13-48.64q0-74.62-.15-149.26,0-31.26,0-62.52c0-17.35,12.09-29.37,29.46-29.37h88.64c-1.94-8.44,1-14.81,6.87-20.32,5.3-4.95,10.27-10.24,15.41-15.35C181.81,33.43,189,32,197.1,35.41a30.26,30.26,0,0,1,4.44,1.9c4.67,2.91,9.16,2.92,14,.14,1.75-1,3.06-1.83,3.75-3.81,1.17-3.31,2.54-6.56,4-9.78,3.26-7.36,9-11.17,17-11.3,8.46-.15,16.92-.12,25.38,0,8.15.1,13.92,4,17.3,11.39a30.92,30.92,0,0,1,1.91,4.76c1.44,5.38,4.25,9.22,10.08,10.57,1.83.43,3.28.82,5.07,0,3-1.42,6.11-2.55,9.16-3.85,8.06-3.44,15.16-1.85,21.32,4.15C336,45,341.36,50.58,347,56c5.19,5,7.37,10.89,6.21,18a10,10,0,0,0,0,1.38h4.57q42.15,0,84.3,0c13.83,0,24.67,8.22,28,21.21a32.46,32.46,0,0,1,.94,8q.09,82,0,164.06a7.24,7.24,0,0,0,2.34,5.8c5.48,5.27,6.61,11.41,3.72,18.46-.5,1.21-1.05,2.4-1.56,3.6-2.1,5-.83,8.07,4.11,10.07,1.68.68,3.39,1.3,5,2.07a15,15,0,0,1,9.15,14.1c.13,6.14.06,12.29,0,18.43-.11,7.1-3.61,11.93-10.12,14.64L480,357.35c-5.4,2.26-6.56,5-4.39,10.36,2.28,5.67-.17,10.68-5.79,11.84a7.62,7.62,0,0,1-8.34-4,50.85,50.85,0,0,1-3.93-9.42,11.37,11.37,0,0,1,.5-6.11,47.06,47.06,0,0,1,4.07-9.7,16.05,16.05,0,0,1,5.35-5.27c2.54-1.55,5.6-2.22,8.28-3.57a3.93,3.93,0,0,0,1.84-2.8c.19-4.42.2-8.86,0-13.28a4,4,0,0,0-1.88-2.78c-2.77-1.4-5.91-2.15-8.54-3.75a14.9,14.9,0,0,1-5.06-5.11,41.24,41.24,0,0,1-4-9.71,15.28,15.28,0,0,1-.1-7.24,44.14,44.14,0,0,1,3.41-8.35c.69-1.47.68-2.47-.6-3.68q-4.83-4.54-9.38-9.4c-1.2-1.28-2.17-1.31-3.66-.61a48.41,48.41,0,0,1-8.64,3.53,14.26,14.26,0,0,1-7-.15c-3.26-.92-6.28-2.64-9.46-3.85-2.6-1-4.56-2.49-5.48-5.19-.26-.76-.64-1.48-1-2.22-1.2-2.74-1.71-6.47-3.81-7.95s-5.62-.45-8.53-.44-6.27-.82-8.24.5-2.63,4.79-3.48,7.44c-1.43,4.48-3.94,7.63-8.76,8.54a5.4,5.4,0,0,0-1.41.54c-11.12,5.78-10,3.84-20.54-.35-2.47-1-3.9-.85-5.65,1.13-2.66,3-5.56,5.83-8.5,8.58a2.47,2.47,0,0,0-.6,3.37c1.27,2.73,2.32,5.56,3.54,8.32a9.29,9.29,0,0,1-.24,8.13c-1.32,2.82-2.48,5.71-3.58,8.63A9.13,9.13,0,0,1,341,319c-2.9,1.12-5.83,2.24-8.61,3.63a3.63,3.63,0,0,0-1.72,2.62c-.17,4.52-.18,9.06,0,13.59a3.9,3.9,0,0,0,1.95,2.72c2.87,1.43,6.08,2.22,8.82,3.84a13,13,0,0,1,4.56,4.81,50.52,50.52,0,0,1,4.16,10,13.08,13.08,0,0,1,.16,6.66,57.59,57.59,0,0,1-3.64,8.92c-.59,1.33-.67,2.27.52,3.39,3.29,3.11,6.51,6.31,9.61,9.6,1.2,1.28,2.17,1.23,3.62.54,2.63-1.24,5.39-2.21,8.05-3.41a9.25,9.25,0,0,1,8.13.21c2.73,1.26,5.5,2.48,8.34,3.47a9.45,9.45,0,0,1,6.3,6,79.19,79.19,0,0,0,3.32,8.08,3.65,3.65,0,0,0,2.55,1.79c4.63.2,9.27.22,13.9.09a3.41,3.41,0,0,0,2.39-1.61c1-1.83,1.59-3.9,2.5-5.8a7.74,7.74,0,0,1,9.49-4.34c4,1.15,6.61,4.56,5.65,8.7-1.25,5.45-3,10.88-7.18,15a14,14,0,0,1-10.05,4.2c-6.54,0-13.09.15-19.63,0-6.17-.18-10.64-3.28-13.37-8.8-.88-1.8-1.56-3.7-2.33-5.55-1.93-4.69-4.95-6-9.71-3.89-5.32,2.33-10.74,4.87-16.43,1.88a32.3,32.3,0,0,1-8.63-6.85,11.09,11.09,0,0,0-9.42-3.88c-9.77.27-19.54.09-29.31.09ZM158,91.59H65c-9,0-13.76,4.7-13.77,13.76q0,21.59,0,43.18,0,75.39,0,150.77c0,7.3,5,12.62,12.29,12.83,3.72.11,7.45,0,11.17,0H252.58q31.72,0,63.46,0a7.37,7.37,0,0,0,3.14-.56c3.32-1.63,6.47-3.57,9.82-5.11,4.49-2.06,5.77-5,3.84-9.51-.63-1.48-1.27-3-1.86-4.46-2.63-6.67-1.48-12.62,3.56-17.75q6.13-6.24,12.38-12.4a15.18,15.18,0,0,1,14.65-4.39,49.57,49.57,0,0,1,7.87,3c3.83,1.59,7.27.24,8.88-3.57.63-1.48,1.23-3,1.82-4.47,2.8-7.08,8.09-10.55,15.6-10.65,5.44-.08,10.88-.07,16.31,0,8.23.09,13.08,3.46,16.18,11.1.61,1.49,1.22,3,1.85,4.46a6.38,6.38,0,0,0,8,3.42c5.24-2.29,10.41-4.84,16.65-3.09v-4c0-49.65-.11-99.31.11-149,0-8-5.67-13.8-13.59-13.73-30.21.28-60.43.11-90.65.11h-2.57c1,5.28,3.39,8.88,8.73,10.08a36.39,36.39,0,0,1,6.42,2.59c6.73,3,10.92,8.07,11.19,15.49.34,9.55.23,19.13,0,28.69a15.93,15.93,0,0,1-7.58,13.38,33.61,33.61,0,0,1-8.68,4.08c-5.29,1.59-9.11,4.39-10.16,10a10.82,10.82,0,0,0,0,5.09c1.12,3.43,2.83,6.66,4.09,10,2.56,6.86,1.89,13.44-3.16,18.86-6.45,6.92-13.24,13.53-20.05,20.1a14.87,14.87,0,0,1-13.63,4.23c-5.05-1.09-9.89-3.2-14.72-5.12a8.46,8.46,0,0,0-6-.07c-5.16,1.47-8.14,4.56-9.41,9.67a34,34,0,0,1-2.13,5.31c-3.23,7.33-8.79,11.39-16.87,11.5-8.86.12-17.73.14-26.58,0a17,17,0,0,1-15.12-8.94,29,29,0,0,1-3.12-7.16c-1.46-5.66-4.69-9.36-10.48-10.53a8.5,8.5,0,0,0-4.22,0c-3.6,1.25-7.05,3-10.63,4.28-7.39,2.74-14.1,1.46-19.78-4-6.08-5.87-12-11.89-18-17.9-5-5.05-6.81-11.11-5-18a41.27,41.27,0,0,1,3.5-8.65c2.12-4,2.47-7.66.16-11.8-1.31-2.35-2.28-4.43-5.16-5.25a79.47,79.47,0,0,1-8.39-3.38c-7.64-3.13-11.93-9.57-11.93-17.86s-.07-16.52,0-24.78,3.94-14,11.39-17.29c2.38-1.07,4.75-2.39,7.27-2.91C155.4,100.24,156.85,96.35,158,91.59Zm200.47,42.58h0c0-3.52-.15-7.06.05-10.57.14-2.71-.77-4.27-3.39-5.22a114.87,114.87,0,0,1-13.64-5.67,12.62,12.62,0,0,1-5-5.22c-2.14-4.18-3.56-8.73-5.52-13a9.9,9.9,0,0,1-.18-8.69c2-4.5,3.79-9.09,5.78-13.59a3.36,3.36,0,0,0-.75-4.3q-8.4-8.25-16.66-16.65a3.32,3.32,0,0,0-4.28-.78c-4.59,2-9.25,3.92-13.88,5.88a9.74,9.74,0,0,1-8.41-.28c-4-1.88-8.09-3.56-12.24-5.07a10,10,0,0,1-6.52-6.16c-1.74-4.6-3.72-9.11-5.53-13.7a3.36,3.36,0,0,0-3.64-2.41q-11.62.14-23.26,0a3.48,3.48,0,0,0-3.83,2.55c-1.79,4.69-3.89,9.26-5.69,13.95a9.29,9.29,0,0,1-5.89,5.59c-4.32,1.62-8.6,3.36-12.79,5.3a9.39,9.39,0,0,1-8.11.28c-4.53-1.93-9.1-3.76-13.58-5.79-2.18-1-3.66-.62-5.31,1.1q-7.74,8.06-15.77,15.83a3.91,3.91,0,0,0-1,5.07c2,4.49,3.85,9.06,5.79,13.58a9.17,9.17,0,0,1-.17,7.84q-3,6.59-5.54,13.35a8.79,8.79,0,0,1-5.17,5.5c-4.76,1.88-9.44,4-14.22,5.81a3.5,3.5,0,0,0-2.58,3.82c.1,7.55.13,15.1,0,22.65,0,2.38.71,3.68,3,4.52,4.43,1.64,8.73,3.6,13.15,5.29a9.68,9.68,0,0,1,6,6.22c1.56,4.35,3.42,8.59,5.33,12.79a9.46,9.46,0,0,1,.18,8.13c-2,4.61-3.85,9.29-5.88,13.89a3.34,3.34,0,0,0,.79,4.29q8.4,8.25,16.65,16.65a3.34,3.34,0,0,0,4.29.78c4.58-2.05,9.27-3.86,13.87-5.89a9.47,9.47,0,0,1,8.38.29,127.67,127.67,0,0,0,12.23,5.09,10.07,10.07,0,0,1,6.55,6.15c1.76,4.48,3.71,8.9,5.4,13.41a3.71,3.71,0,0,0,4.07,2.73q11.47-.15,23,0a3.58,3.58,0,0,0,3.86-2.58c1.75-4.49,3.7-8.91,5.4-13.42a10,10,0,0,1,6.46-6.21c4.25-1.53,8.41-3.31,12.51-5.2a9.52,9.52,0,0,1,8.39-.17c4.5,2,9.1,3.78,13.59,5.8a3.51,3.51,0,0,0,4.53-.88c5.43-5.53,10.9-11,16.45-16.44a3.5,3.5,0,0,0,.8-4.54c-2-4.49-3.78-9.09-5.78-13.59a9.66,9.66,0,0,1,.17-8.41q2.87-6.3,5.32-12.78a9.48,9.48,0,0,1,5.58-5.92c4.68-1.85,9.31-3.8,14-5.62a3.64,3.64,0,0,0,2.65-3.86C358.46,141.82,358.51,138,358.51,134.17ZM51.38,325.89c-.08.75-.18,1.22-.18,1.69q0,18.56,0,37.12c0,9,5,13.89,14.12,13.89H326.93a16.88,16.88,0,0,0,1.8-.11c1.57-4.28,2.86-8.06,4.34-11.75,1.62-4,.34-7.3-3.68-8.94-1.49-.61-3-1.25-4.45-1.86-7.24-3-10.42-7.73-10.44-15.61,0-3.9,0-7.8,0-12H77.1c-2.31,0-4.63,0-6.92-.2-5.27-.44-10.52-1-15.77-1.54A24.18,24.18,0,0,1,51.38,325.89ZM253.21,480v0q39.57,0,79.15,0c5.29,0,7.08-2.94,4.78-7.69-2.47-5.06-5-10.08-7.33-15.21-1.3-2.86-3.3-4-6.39-4q-51.21.07-102.42,0c-12.89,0-25.78-.09-38.67.1-1.73,0-4.29,1-5,2.36-3.31,6-6.19,12.18-9,18.4-1.22,2.68.42,5.28,3.37,5.82A18.23,18.23,0,0,0,175,480Zm37.65-43.13c-2-14.26-4-28.14-6-41.77-.47-.24-.56-.33-.65-.33-20.42-.05-40.84-.11-61.26,0-.69,0-1.87,1.32-2,2.15-1.5,9.62-2.85,19.26-4.21,28.9-.52,3.64-1,7.28-1.46,11.08Z"/><path class="cls-2" d="M404.24,283.82a48.23,48.23,0,1,1-48.46,48.32C355.54,305.67,377.45,283.82,404.24,283.82Zm31.84,47.68c1.05-13.79-11.72-31.87-32.26-31.5-17.45.31-31.91,14.62-31.83,32a32.27,32.27,0,0,0,32.37,32.09C422.14,364,436.18,349.59,436.08,331.5Z"/><path class="cls-3" d="M192.77,133.92a60.28,60.28,0,1,1,120.56.79c-.22,33.41-27.9,60.23-61.73,59.74C219.5,194,192.65,166.68,192.77,133.92ZM253,178.16a44,44,0,0,0,44.16-43.45c.23-24.58-19.46-44.72-43.82-44.81-24-.08-44.16,19.63-44.41,43.4A44.2,44.2,0,0,0,253,178.16Z"/></svg>