<svg id="Layer_1" data-name="Layer 1" xmlns="http://www.w3.org/2000/svg" xmlns:xlink="http://www.w3.org/1999/xlink" viewBox="0 0 512 512"><defs><style>.cls-1{fill:url(#linear-gradient);}.cls-2{fill:url(#linear-gradient-2);}.cls-3{fill:url(#linear-gradient-3);}.cls-4{fill:url(#linear-gradient-4);}.cls-5{fill:url(#linear-gradient-5);}.cls-6{fill:url(#linear-gradient-6);}.cls-7{fill:url(#linear-gradient-7);}.cls-8{fill:url(#linear-gradient-8);}.cls-9{fill:url(#linear-gradient-9);}</style><linearGradient id="linear-gradient" x1="85.23" y1="-9.89" x2="85.23" y2="519.13" gradientUnits="userSpaceOnUse"><stop offset="0" stop-color="#c8e233"/><stop offset="1" stop-color="#aad300"/></linearGradient><linearGradient id="linear-gradient-2" x1="65.24" y1="-9.89" x2="65.24" y2="519.13" xlink:href="#linear-gradient"/><linearGradient id="linear-gradient-3" x1="246.22" y1="-9.89" x2="246.22" y2="519.13" xlink:href="#linear-gradient"/><linearGradient id="linear-gradient-4" x1="213.12" y1="-9.89" x2="213.12" y2="519.13" xlink:href="#linear-gradient"/><linearGradient id="linear-gradient-5" x1="214.72" y1="-9.89" x2="214.72" y2="519.13" xlink:href="#linear-gradient"/><linearGradient id="linear-gradient-6" x1="221.47" y1="-9.89" x2="221.47" y2="519.13" xlink:href="#linear-gradient"/><linearGradient id="linear-gradient-7" x1="464.73" y1="-9.89" x2="464.73" y2="519.13" xlink:href="#linear-gradient"/><linearGradient id="linear-gradient-8" x1="428.04" y1="-9.89" x2="428.04" y2="519.13" xlink:href="#linear-gradient"/><linearGradient id="linear-gradient-9" x1="475.89" y1="-9.89" x2="475.89" y2="519.13" xlink:href="#linear-gradient"/></defs><title>Office Maintenance ICONS</title><path class="cls-1" d="M96.69,120.34l3.19-12c.8-3.19-.8-5.59-4-6.38l-16-3.19c-2.39-.8-5.58.79-6.38,4l-3.19,12C91.9,119.54,90.31,118.74,96.69,120.34Z"/><path class="cls-2" d="M17.74,460.07c-4.79,7.18-4,17.54,2.39,23.13,4,4,9.57,6.38,15.15,5.58,5.58,0,10.37-3.19,13.56-8L111,382.71l4.79-29.5a165.76,165.76,0,0,1-27.91-9.57Z"/><path class="cls-3" d="M237.05,105.19a55.19,55.19,0,0,0,31.1-42.27H224.29C228.27,75.68,228.27,74.88,237.05,105.19Z"/><path class="cls-4" d="M213.12,82.06c-.8-1.59-8-24.72-8-26.32a7.53,7.53,0,0,1,8-8H241V35A27.74,27.74,0,0,0,213.12,7.1,28.26,28.26,0,0,0,185.21,35V54.15C186,69.3,198,82.06,213.12,82.06Z"/><path class="cls-5" d="M220.3,345.23q-13.16,8.37-31.1,12l16.74,18.35a7.22,7.22,0,0,1,2.4,5.58V485.59a16.35,16.35,0,0,0,15.95,16,16,16,0,0,0,16-16V373.14c0-4.78-2.4-9.57-5.59-13.55Z"/><path class="cls-6" d="M418.08,292.6c-51-24.73-126-45.46-134-43.07.8-8-4-15.15-12-18.34l-48.65-18.34c-1.6-.8-3.19-1.6-4-3.19-8.77-12.76-14.35-20.74-19.94-36.69-29.5-82.93-62.2-63-71-35.88C101.47,253.52,123.8,160.21,92.7,292.6v24.72c-25.52-11.17-43.86-27.12-43.06-46.26,8,1.6,28.71,9.57,33.49-9.57,16-67.78,10.37-43.86,23.93-105.26A17.19,17.19,0,0,0,94.3,136.29c-10.37-2.39-7.18-1.6-29.51-6.38-8-2.39-17.55,3.19-19.94,12.76L20.93,247.14c-1.6,8,1.59,16.75,12.76,19.94C27.31,319.71,118.22,350,165.27,350c74.17,0,75-41.47,122.82-84.54,14.35,3.19,70.17,15.15,122.81,40.67,4,1.6,8.77,0,10.37-4C423.66,299,422.06,294.19,418.08,292.6ZM119.82,326.89l4-24.72c.8-7.18,9.57-8.78,13.56-4l31.9,35.89C151.71,334.07,137.36,331.67,119.82,326.89Zm97.29-7.18a91.77,91.77,0,0,1-15.15,8l-38.28-39.08c-1.6-1.6-2.4-4.79-2.4-7.18l12.76-63L150.92,177c-2.39-4-.8-8.77,3.19-11.16s8.77-.8,11.16,3.19c1.6,2.39,35.09,63,35.09,63l73.37,24.72C261.77,268.67,264.16,266.28,217.11,319.71Z"/><path class="cls-7" d="M460.34,333.27a7.89,7.89,0,0,0-11.16,11.16l19.93,19.94a7.89,7.89,0,0,0,11.17-11.16Z"/><path class="cls-8" d="M431.63,342.84c-.79-4-5.58-7.18-9.57-5.58-4,.79-7.17,5.58-5.58,9.57l8,28.71c.79,4,5.58,6.38,9.57,5.58s7.17-5.58,5.58-9.57Z"/><path class="cls-9" d="M492.24,307.75l-28.71-8c-4-.79-8.77,1.6-9.57,5.59s1.6,8.77,5.59,9.57l28.7,8c4,.8,8.78-1.59,9.57-5.58S496.23,308.55,492.24,307.75Z"/></svg>