<svg id="Layer_1" data-name="Layer 1" xmlns="http://www.w3.org/2000/svg" xmlns:xlink="http://www.w3.org/1999/xlink" viewBox="0 0 512 512"><defs><style>.cls-1{fill:url(#linear-gradient);}.cls-2{fill:url(#linear-gradient-2);}.cls-3{fill:url(#linear-gradient-3);}.cls-4{fill:url(#linear-gradient-4);}.cls-5{fill:url(#linear-gradient-5);}</style><linearGradient id="linear-gradient" x1="176.5" y1="-33.83" x2="176.5" y2="532.98" gradientUnits="userSpaceOnUse"><stop offset="0" stop-color="#c8e233"/><stop offset="1" stop-color="#aad300"/></linearGradient><linearGradient id="linear-gradient-2" x1="361.91" y1="-33.83" x2="361.91" y2="532.98" xlink:href="#linear-gradient"/><linearGradient id="linear-gradient-3" x1="491.89" y1="-33.83" x2="491.89" y2="532.98" xlink:href="#linear-gradient"/><linearGradient id="linear-gradient-4" x1="301.9" y1="-33.83" x2="301.9" y2="532.98" xlink:href="#linear-gradient"/><linearGradient id="linear-gradient-5" x1="301.11" y1="-33.83" x2="301.11" y2="532.98" xlink:href="#linear-gradient"/></defs><title>Office Maintenance ICONS</title><path class="cls-1" d="M311.57,32,285.39,58.18c-4.62,4.63-9.19,9.3-13.91,13.83-1.72,1.64-2,2.68-.13,4.54Q284.27,89.14,296.87,102c1.78,1.82,2.79,1.76,4.55,0,12.23-12.37,24.59-24.63,36.86-37a27,27,0,0,0,2.42-3.26l1.58.44c1.8,5.86,4.15,11.61,5.3,17.6,2.94,15.44.4,30.1-8.58,43.15a89.43,89.43,0,0,1-12.15,13.66,247,247,0,0,1-21.09,18.55c-10.52,8-22.62,8.4-34.65,4.24-5.13-1.78-8.17-.74-11.29,3.13-2.55,3.17-7.07,5.66-7.86,9.11-.76,3.29,2.21,7.42,3.49,11.2,3.53,10.48,7,21,10.55,31.47a5,5,0,0,1-1.44,5.86c-7.3,7.2-15.36,12.77-25.83,14.2a4,4,0,0,0-2.57,2.56A37.29,37.29,0,0,1,219,260.63a6.32,6.32,0,0,0-2.57,2.61c-4.3,10.94-13.21,16.57-23.51,20.59-1.56.61-3.31.75-4.85,1.38a8.94,8.94,0,0,0-3.58,2.29c-5.16,6.55-12,10.4-19.66,13.29a13.47,13.47,0,0,0-4.84,3.15c-7,7.34-15.34,11.84-25.65,11.76-6.21-.05-11.68-2.74-16.62-6.26-2.38-1.7-3.63-1.27-5.51.64-9,9.19-18.2,18.19-27.23,27.35-8.71,8.83-19,13.26-31.56,12.33-15-1.11-28.26-13.74-30-28.76-1.32-11.65,2-21.63,10.36-29.92,9.66-9.59,19.21-19.27,28.92-28.81,1.69-1.65,2-2.63.36-4.62-9.92-12.29-17.39-25.85-20.58-41.49a14.87,14.87,0,0,1-.33-2.82,9.47,9.47,0,0,0-3.12-7Q22.13,189.55,5.42,172.49a5,5,0,0,1-1.13-3.74c3.89-24.23,17.6-42.71,35-58.86,7.84-7.27,16.39-13.61,26.38-17.73l1.16-.5c5.17-2.1,9.48-2.12,14.34,2,10.6,9,21.9,17.16,33,25.53a7.1,7.1,0,0,0,4.8,1.22c26.53-4.07,52.71-3.08,78.48,5a3.56,3.56,0,0,0,2.92-.86c4.79-4.61,9.41-9.39,14.17-14,1.38-1.34,1.3-2.52.71-4.21-3.54-10.18-5.47-20.67-.77-30.83A66.1,66.1,0,0,1,225.46,59c8.21-9,16.07-18.65,26.61-25.11C271.19,22.16,291,22.8,311.57,32ZM77.11,245.36c.94-.9,1.69-1.58,2.41-2.3,15.81-15.79,31.6-31.62,47.5-47.33a7.41,7.41,0,0,1,4.34-1.54c6.49-.51,13.1-.24,19.48-1.33,11.09-1.89,21.34-6.49,31.3-11.62,2.11-1.09,3.24-.79,4.77.95a42,42,0,0,0,22.66,13.59,4.83,4.83,0,0,1,2.64,2.65c2.85,6.69,7.36,11.82,14,14.77,5.75,2.54,11.69,3.62,17.6.24,1.39-.8,2.19-1.57,1.48-3.51-4.41-12-8.6-24-13-35.93a10,10,0,0,0-3.35-4.37c-12.27-8.76-24.63-17.38-37-26a12.15,12.15,0,0,0-4-1.87c-5-1.22-10-2.49-15.11-3.33a150.18,150.18,0,0,0-57.5,1.6,7,7,0,0,1-6.36-1.53c-11.75-9.1-23.66-18-35.41-27.11-1.83-1.42-3.09-1.38-5-.27A103.22,103.22,0,0,0,46.15,129C37,138.49,29.26,149,24.79,161.55c-.76,2.14-.37,3.37,1.17,4.94Q42.1,183,58,199.74a6.23,6.23,0,0,1,1.71,3.8A54.62,54.62,0,0,0,65,225.83,86.13,86.13,0,0,0,77.11,245.36ZM198.92,259c-1.08-2.31-1.74-5-3.3-6.88-7.57-9.32-15.33-18.48-23.13-27.61-4.25-5-10.76-5.53-15.47-1.54s-5.33,10.4-1.28,15.5c2.36,3,4.86,5.82,7.3,8.72,5.36,6.36,10.65,12.79,16.12,19a10.4,10.4,0,0,0,12,3.07C195.28,267.75,198.17,263.66,198.92,259Zm-38,26.33.46-.77a10.46,10.46,0,0,0,9.89-6.14,9.92,9.92,0,0,0-1.1-11.28c-3.91-5-8-9.8-12-14.68-2.87-3.5-5.62-7.11-8.68-10.44a10.46,10.46,0,0,0-14.77-1.21c-4.6,3.68-5.79,10-2.18,14.64,6.81,8.69,13.8,17.26,21.05,25.59C155.35,283.09,158.43,284,160.89,285.36Zm26.66-85.82a10.85,10.85,0,0,0-9.83,6.31c-1.86,4-1.53,8,1.26,11.28q9.75,11.66,19.86,23a10.47,10.47,0,0,0,15.27.84c4.62-4.17,5.14-10.38,1-15.28-6.32-7.49-12.8-14.86-19.23-22.26A10.6,10.6,0,0,0,187.55,199.54Zm-79.9,69.8c.75,2,1,4.42,2.33,6,5.5,6.93,11.16,13.76,17,20.37a10.34,10.34,0,0,0,15.8-13.27c-5.49-6.94-11.23-13.7-17.1-20.33-2.85-3.21-6.79-3.9-10.76-2.36C110.8,261.4,108.39,264.57,107.65,269.34Z"/><path class="cls-2" d="M412.64,332.05c-14.35,0-28.69-.1-43,0-11,.1-18.86,5.2-23.36,15.26a13.26,13.26,0,0,0-1.11,5.2c0,2.92-1.27,3.7-4.09,3.69-24.57-.1-49.15-.06-73.73-.07-8.15,0-8.29,0-8.11-8.23.21-9.68,0-19.45,1.23-29,2.52-19.57,12.8-34.95,28-47.09,15.87-12.63,34.25-18.12,54.31-18.59,1.48,0,3,0,4.43,0,4.41,0,4.55-.14,4.53-4.7,0-2.84.07-5.7-.05-8.54-.09-2.21.84-3,3-3,4,.09,8-.05,12,.06,2.63.08,3.87-.78,3.76-3.63-.18-4.43-.14-8.87,0-13.29.06-2.22-1-3.36-2.69-4.59-3.1-2.28-5.87-5-9-7.29a9.93,9.93,0,0,0-5.19-2.13c-13.29-.17-26.58-.07-39.87-.1-4.88,0-9.11-1.61-12.23-5.51A11.39,11.39,0,0,1,300,188.3c2.28-5.11,6.74-7.82,12.35-8,7.38-.19,14.77-.05,22.15-.05,6.54,0,13.09.15,19.62-.11a7.18,7.18,0,0,0,4.75-2.29,29.83,29.83,0,0,1,46.17.29,7,7,0,0,0,4.84,2c13.6.16,27.21,0,40.82.12,5.55,0,10,2.34,12.65,7.44a12.11,12.11,0,0,1-6.87,17,27.09,27.09,0,0,1-7.72,1.29q-19,.18-38,0a7.73,7.73,0,0,0-6.78,3,34.71,34.71,0,0,1-7.73,6.35c-1.88,1.23-2.95,2.42-2.88,4.76q.19,6.8,0,13.6c-.07,2.44.74,3.47,3.27,3.38,4-.14,8,0,12-.09,2.31,0,3.23.88,3.12,3.21-.14,2.95-.06,5.91-.06,8.86,0,3.68.48,4.18,4.22,4.18q20.73,0,41.46,0c4.17,0,4.42.25,4.43,4.49,0,23.84,0,47.68.12,71.51,0,3.09-1.85,2.79-3.75,2.79H412.64Z"/><path class="cls-3" d="M508.34,293q0,24.68,0,49.34c0,2.45-1.09,3.41-3.45,3.39-8.65-.05-17.29-.1-25.94,0-2.55,0-3.56-.89-3.55-3.51q.06-49.67,0-99.32c0-2.25,1-3,3.05-3,8.86,0,17.72,0,26.57,0,2.93,0,3.39,1.63,3.38,4.11-.07,16.34,0,32.68,0,49Z"/><path class="cls-4" d="M301.9,398.68H248.44c-3.78,0-4.26-.45-4.26-4.1,0-7.39.06-14.77,0-22.15,0-2.73,1.08-3.77,3.75-3.77q54.11,0,108.2,0c2.58,0,3.6,1,3.57,3.53-.08,7.59-.12,15.19,0,22.78.05,3-1.18,3.78-4,3.77C337.76,398.64,319.83,398.68,301.9,398.68Z"/><path class="cls-5" d="M277.58,465c-.06-5.92,2.48-11.13,5.2-16,5.18-9.37,10.92-18.43,16.49-27.59,1.84-3,2.44-3.05,4.19-.13,6,10,12.17,19.91,17.74,30.15,2.89,5.29,5.38,11,3.81,17.48-2.1,8.75-7.79,14.06-16,16.78a24.26,24.26,0,0,1-27.7-9.18c-2.19-3.27-3.11-7.38-4.61-11.11Z"/></svg>