<svg id="Layer_1" data-name="Layer 1" xmlns="http://www.w3.org/2000/svg" xmlns:xlink="http://www.w3.org/1999/xlink" viewBox="0 0 512 512"><defs><style>.cls-1{fill:url(#linear-gradient);}.cls-2{fill:url(#linear-gradient-2);}.cls-3{fill:url(#linear-gradient-3);}.cls-4{fill:url(#linear-gradient-4);}.cls-5{fill:url(#linear-gradient-5);}.cls-6{fill:url(#linear-gradient-6);}.cls-7{fill:url(#linear-gradient-7);}.cls-8{fill:url(#linear-gradient-8);}.cls-9{fill:url(#linear-gradient-16);}.cls-10{fill:url(#linear-gradient-17);}</style><linearGradient id="linear-gradient" x1="359.11" y1="233.17" x2="359.11" y2="491.05" gradientUnits="userSpaceOnUse"><stop offset="0" stop-color="#ff838f"/><stop offset="1" stop-color="#ec7278"/></linearGradient><linearGradient id="linear-gradient-2" x1="327.22" y1="233.17" x2="327.22" y2="491.05" xlink:href="#linear-gradient"/><linearGradient id="linear-gradient-3" x1="398.97" y1="233.17" x2="398.97" y2="491.05" xlink:href="#linear-gradient"/><linearGradient id="linear-gradient-4" x1="430.86" y1="233.17" x2="430.86" y2="491.05" xlink:href="#linear-gradient"/><linearGradient id="linear-gradient-5" x1="287.36" y1="233.17" x2="287.36" y2="491.05" xlink:href="#linear-gradient"/><linearGradient id="linear-gradient-6" x1="319.25" y1="233.17" x2="319.25" y2="491.05" xlink:href="#linear-gradient"/><linearGradient id="linear-gradient-7" x1="351.14" y1="233.17" x2="351.14" y2="491.05" xlink:href="#linear-gradient"/><linearGradient id="linear-gradient-8" x1="406.95" y1="233.17" x2="406.95" y2="491.05" xlink:href="#linear-gradient"/><linearGradient id="linear-gradient-16" x1="146.67" y1="233.17" x2="146.67" y2="491.05" xlink:href="#linear-gradient"/><linearGradient id="linear-gradient-17" x1="135.88" y1="233.17" x2="135.88" y2="491.05" xlink:href="#linear-gradient"/></defs><title>Education  ICONS</title><path class="cls-1" d="M470.73,54,482,42.74h20.62V26.8H482L468.39,13.19a7.94,7.94,0,0,0-5.64-2.34H255.47a7.94,7.94,0,0,0-5.64,2.34L236.22,26.8H215.61V42.74h20.61L247.5,54V206.86l-11.28,11.28H215.61v15.94h20.61l13.61,13.61a7.94,7.94,0,0,0,5.64,2.34H462.75a7.94,7.94,0,0,0,5.64-2.34L482,234.08h20.62V218.14H482l-11.27-11.28ZM263.44,58.69H454.78v143.5H263.44ZM258.77,26.8H459.45l8,8-8,8H258.77l-8-8ZM459.45,234.08H258.77l-8-8,8-8H459.45l8,8Z"/><rect class="cls-2" x="279.39" y="74.63" width="95.67" height="15.95"/><rect class="cls-3" x="391" y="74.63" width="15.95" height="15.95"/><rect class="cls-4" x="422.89" y="74.63" width="15.95" height="15.95"/><rect class="cls-5" x="279.39" y="106.52" width="15.95" height="15.95"/><rect class="cls-6" x="311.28" y="106.52" width="15.95" height="15.95"/><rect class="cls-7" x="343.17" y="106.52" width="15.95" height="15.95"/><rect class="cls-8" x="375.06" y="106.52" width="63.78" height="15.95"/><rect class="cls-2" x="279.39" y="138.41" width="95.67" height="15.95"/><rect class="cls-3" x="391" y="138.41" width="15.95" height="15.95"/><rect class="cls-4" x="422.89" y="138.41" width="15.95" height="15.95"/><rect class="cls-5" x="279.39" y="170.3" width="15.95" height="15.95"/><rect class="cls-6" x="311.28" y="170.3" width="15.95" height="15.95"/><rect class="cls-7" x="343.17" y="170.3" width="15.95" height="15.95"/><rect class="cls-8" x="375.06" y="170.3" width="63.78" height="15.95"/><path class="cls-9" d="M105.52,127.3a118.74,118.74,0,0,0,82.78,34.94l37.61,37.62,11.28-11.28L199.57,151a118.72,118.72,0,0,0-34.94-82.78L150.29,53.85a118.81,118.81,0,0,0-84.56-35h-1.6a8,8,0,0,0-8,8v1.6a118.81,118.81,0,0,0,35,84.56Zm14.41-77.15V82.6h15.95V62.26c1,1,2.13,1.86,3.14,2.87l14.34,14.34a102.84,102.84,0,0,1,28.43,53.71l-24.32-24.31L146.2,120.14l24.31,24.31A102.83,102.83,0,0,1,116.8,116l-1.54-1.54h20.62V98.55H99.59A103.23,103.23,0,0,1,79.47,66.66H104V50.71H74.59A101.71,101.71,0,0,1,72.3,35,102.51,102.51,0,0,1,119.93,50.15Z"/><path class="cls-10" d="M255.47,266H16.29a8,8,0,0,0-8,8V497.18a8,8,0,0,0,8,8H255.47a8,8,0,0,0,8-8V274A8,8,0,0,0,255.47,266ZM24.26,281.92H247.5v31.89H24.26ZM247.5,441.37H231.55V329.75H247.5ZM24.26,329.75h16V441.37H24.26Zm31.89,0H215.61V441.37H56.15ZM247.5,489.2H24.26V457.31H247.5Z"/><path class="cls-10" d="M167.77,377.59h-8v-8a23.92,23.92,0,0,0-47.84,0v8h-8a8,8,0,0,0-8,8v31.89a8,8,0,0,0,8,8h63.78a8,8,0,0,0,8-8V385.56A8,8,0,0,0,167.77,377.59Zm-39.86-8a8,8,0,1,1,15.94,0v8H127.91Zm31.89,39.86H112v-16H159.8Z"/></svg>