<svg id="Layer_1" data-name="Layer 1" xmlns="http://www.w3.org/2000/svg" xmlns:xlink="http://www.w3.org/1999/xlink" viewBox="0 0 512 512"><defs><style>.cls-1{fill:url(#linear-gradient);}.cls-2{fill:url(#linear-gradient-3);}.cls-3{fill:url(#linear-gradient-4);}.cls-4{fill:url(#linear-gradient-5);}.cls-5{fill:url(#linear-gradient-6);}.cls-6{fill:url(#linear-gradient-7);}.cls-7{fill:url(#linear-gradient-8);}.cls-8{fill:url(#linear-gradient-10);}.cls-9{fill:url(#linear-gradient-11);}.cls-10{fill:url(#linear-gradient-12);}.cls-11{fill:url(#linear-gradient-13);}.cls-12{fill:url(#linear-gradient-14);}.cls-13{fill:url(#linear-gradient-17);}</style><linearGradient id="linear-gradient" x1="358.51" y1="10.53" x2="358.51" y2="478.35" gradientUnits="userSpaceOnUse"><stop offset="0" stop-color="#ff838f"/><stop offset="1" stop-color="#ec7278"/></linearGradient><linearGradient id="linear-gradient-3" x1="80.9" y1="10.53" x2="80.9" y2="478.35" xlink:href="#linear-gradient"/><linearGradient id="linear-gradient-4" x1="128.49" y1="10.53" x2="128.49" y2="478.35" xlink:href="#linear-gradient"/><linearGradient id="linear-gradient-5" x1="414.04" y1="10.53" x2="414.04" y2="478.35" xlink:href="#linear-gradient"/><linearGradient id="linear-gradient-6" x1="366.45" y1="10.53" x2="366.45" y2="478.35" xlink:href="#linear-gradient"/><linearGradient id="linear-gradient-7" x1="247.47" y1="10.53" x2="247.47" y2="478.35" xlink:href="#linear-gradient"/><linearGradient id="linear-gradient-8" x1="231.6" y1="10.53" x2="231.6" y2="478.35" xlink:href="#linear-gradient"/><linearGradient id="linear-gradient-10" x1="274.53" y1="10.53" x2="274.53" y2="478.35" xlink:href="#linear-gradient"/><linearGradient id="linear-gradient-11" x1="239.54" y1="10.53" x2="239.54" y2="478.35" xlink:href="#linear-gradient"/><linearGradient id="linear-gradient-12" x1="314.91" y1="10.53" x2="314.91" y2="478.35" xlink:href="#linear-gradient"/><linearGradient id="linear-gradient-13" x1="180.03" y1="10.53" x2="180.03" y2="478.35" xlink:href="#linear-gradient"/><linearGradient id="linear-gradient-14" x1="191.27" y1="10.53" x2="191.27" y2="478.35" xlink:href="#linear-gradient"/><linearGradient id="linear-gradient-17" x1="220.41" y1="10.53" x2="220.41" y2="478.35" xlink:href="#linear-gradient"/></defs><title>Education  ICONS</title><rect class="cls-1" x="350.58" y="109.26" width="15.86" height="31.73"/><rect class="cls-1" x="350.58" y="156.85" width="15.86" height="15.86"/><path class="cls-2" d="M152.29,408.8V371A79.32,79.32,0,0,0,73,291.69H57.1V275.83L9.51,307.56,57.1,339.29V323.42H73A47.59,47.59,0,0,1,120.56,371v84.1A121.26,121.26,0,0,1,152.29,408.8Z"/><path class="cls-3" d="M88.83,117.19a47.58,47.58,0,0,1,39.66-46.88V61.67H188l11.9-7.93L152.29,22V37.87H136.42A79.32,79.32,0,0,0,57.1,117.19v119H88.83Z"/><path class="cls-4" d="M485.43,307.56l-47.6-31.73v15.86H422A79.32,79.32,0,0,0,342.65,371v37.78a121.26,121.26,0,0,1,31.73,46.31V371A47.59,47.59,0,0,1,422,323.42h15.86v15.87Z"/><path class="cls-5" d="M366.45,61.67v8.64a47.58,47.58,0,0,1,39.66,46.88v119h31.72v-119a79.32,79.32,0,0,0-79.32-79.32H342.65V22L295.06,53.74,307,61.67Z"/><path class="cls-6" d="M350.58,244.1a94.23,94.23,0,0,0-52.37-84.74l-5-2.51h-125a23.8,23.8,0,1,0,0,47.59h31.73a7.93,7.93,0,1,0,0-15.86h-7.94V172.71h7.94a23.82,23.82,0,0,1,23.79,23.8,23.48,23.48,0,0,1-1.46,7.93h25.26a7.93,7.93,0,1,0,0-15.86h-7.93V172.71h7.93a23.58,23.58,0,0,1,22.31,31.8,39.8,39.8,0,0,1,17.33,31.76,34.37,34.37,0,0,1,18,61.77l-18,13.48v22.86l11.08-5.53A94.25,94.25,0,0,0,350.58,244.1Z"/><path class="cls-7" d="M284.49,252H271.26V237.15a23.92,23.92,0,0,0-11.53-20.35,23.54,23.54,0,0,1-12.26,3.51H176.08v11.06a23.67,23.67,0,0,1-4,13.21L161.78,260a9.3,9.3,0,0,0,3.58,13.47l1.95,1a15.76,15.76,0,0,1,7.94,9.29h48.42v7.93A39.7,39.7,0,0,1,184,331.35h-5.79a26.18,26.18,0,0,0,32.33,14.53l13.12-4.38V382l23.8,11.89L271.26,382V303.59l24.32-18.24A18.51,18.51,0,0,0,284.49,252ZM215.74,267.9a23.83,23.83,0,0,1-23.8-23.8v-7.93h15.87v7.93a7.93,7.93,0,0,0,15.86,0v-7.93h15.87v7.93A23.83,23.83,0,0,1,215.74,267.9Z"/><rect class="cls-6" x="144.35" y="77.53" width="206.23" height="15.86"/><path class="cls-8" d="M281.56,413.94l3.55-17.78c-1.58-.35-3.15-.71-4.75-1l-16.42,8.2Z"/><path class="cls-9" d="M295.06,141a7.94,7.94,0,0,0,7.93-7.93v-23.8H176.08v23.8A7.94,7.94,0,0,0,184,141Z"/><path class="cls-10" d="M300.35,400.84l-7.65,38.29-25.41-15.24-3.63,10.9,13.8,55.2h41.4V458.26h15.86V490h31.43A103.94,103.94,0,0,0,300.35,400.84Z"/><path class="cls-11" d="M202.24,439.13l-7.65-38.28A104,104,0,0,0,128.78,490h23.51V458.26h15.86V490h49.33l13.8-55.2-3.63-10.9Z"/><path class="cls-12" d="M206.45,299.63H176.08v15.86H184A23.83,23.83,0,0,0,206.45,299.63Z"/><polygon class="cls-6" points="245.73 442.4 233.83 489.99 261.1 489.99 249.21 442.4 245.73 442.4"/><polygon class="cls-6" points="241.58 415.53 245.25 426.54 249.68 426.54 253.35 415.53 247.47 411.99 241.58 415.53"/><path class="cls-13" d="M209.82,396.16l3.56,17.78L231,403.37l-16.42-8.2C213,395.45,211.4,395.81,209.82,396.16Z"/></svg>