<svg id="Layer_1" data-name="Layer 1" xmlns="http://www.w3.org/2000/svg" xmlns:xlink="http://www.w3.org/1999/xlink" viewBox="0 0 512 512"><defs><style>.cls-1{fill:url(#linear-gradient);}.cls-2{fill:url(#linear-gradient-2);}.cls-3{fill:url(#linear-gradient-3);}.cls-4{fill:url(#linear-gradient-4);}.cls-5{fill:url(#linear-gradient-5);}.cls-6{fill:url(#linear-gradient-6);}.cls-7{fill:url(#linear-gradient-7);}.cls-8{fill:url(#linear-gradient-8);}.cls-9{fill:url(#linear-gradient-9);}</style><linearGradient id="linear-gradient" x1="439.2" y1="26.87" x2="439.2" y2="429.26" gradientUnits="userSpaceOnUse"><stop offset="0" stop-color="#ff838f"/><stop offset="1" stop-color="#ec7278"/></linearGradient><linearGradient id="linear-gradient-2" x1="73.09" y1="26.87" x2="73.09" y2="429.26" xlink:href="#linear-gradient"/><linearGradient id="linear-gradient-3" x1="256.28" y1="26.87" x2="256.28" y2="429.26" xlink:href="#linear-gradient"/><linearGradient id="linear-gradient-4" x1="255.97" y1="26.87" x2="255.97" y2="429.26" xlink:href="#linear-gradient"/><linearGradient id="linear-gradient-5" x1="256.21" y1="26.87" x2="256.21" y2="429.26" xlink:href="#linear-gradient"/><linearGradient id="linear-gradient-6" x1="256.12" y1="26.87" x2="256.12" y2="429.26" xlink:href="#linear-gradient"/><linearGradient id="linear-gradient-7" x1="172.49" y1="26.87" x2="172.49" y2="429.26" xlink:href="#linear-gradient"/><linearGradient id="linear-gradient-8" x1="338.87" y1="26.87" x2="338.87" y2="429.26" xlink:href="#linear-gradient"/><linearGradient id="linear-gradient-9" x1="256.11" y1="26.87" x2="256.11" y2="429.26" xlink:href="#linear-gradient"/></defs><title>Education  ICONS</title><path class="cls-1" d="M410.51,454c0-16.49-.12-32.25.08-48,.06-4.32-1-6.78-5-9.32-12.22-7.76-18.54-20-22-33.61-5.49-21.83-5.6-43.88,4.18-64.35,4.48-9.39,4.86-17.76,3.72-27.4-3.17-26.71-5.83-53.47-8.5-80.23-1-10.48,6-18.61,16.93-20.23,12-1.79,22,3.75,23.74,14.22,1.94,12,2.84,24.14,4.13,36.23,1.79,16.86,3.46,33.73,5.35,50.58a6,6,0,0,0,2.5,4c5.34,3,10.87,5.71,17.21,9,8.94-47.43,1.84-91.7-20.31-134.31,7.5.45,14.15.65,20.75,1.38a6.8,6.8,0,0,1,4.52,3.26q19.81,39.22,39.23,78.66a16.11,16.11,0,0,1,1.39,6.92q.1,103.9.14,207.83c0,4.39-1,5.9-5.7,5.86-25.2-.25-50.41-.12-75.62-.14C415.22,454.29,413.2,454.1,410.51,454Z"/><path class="cls-2" d="M14.08,453.78v-6q0-103.16.1-206.32a22.91,22.91,0,0,1,2.23-9.78c12.28-25.08,24.84-50,37.19-75.06,1.6-3.26,3.52-5,7.34-5.08,6-.06,11.91-.59,18.84-1C57,193.77,50.7,238.8,59.72,287.3c6.55-4.3,12.55-8.07,18.31-12.16.94-.67,1-2.76,1.21-4.23,3-27.77,5.86-55.55,9-83.3,1.33-11.78,10.13-18.13,22.62-17,12,1.13,19.35,9,18.35,20.86-1.52,17.92-3.63,35.8-5.52,53.69-1.43,13.46-3,26.91-4.28,40.37a8.17,8.17,0,0,0,1.08,4.8c10.93,17.23,12.57,36.32,11.21,55.94-1.05,15-5.12,29.09-14.7,41a52.82,52.82,0,0,1-11.5,10.08c-2.8,1.91-3.77,3.75-3.74,7,.17,15.09,0,30.19.12,45.28,0,3.12-.67,4.67-4.25,4.66-26.75-.11-53.51-.06-80.26-.08A26.11,26.11,0,0,1,14.08,453.78Z"/><path class="cls-3" d="M441,272.51c-.79-2.25-2-4.44-2.29-6.74-1.57-13.62-2.89-27.27-4.33-40.91-1.29-12.27-3-24.51-3.83-36.81-1.33-18.85-18.59-26.58-33.12-23-5.15,1.29-7.23,0-10-4.17-31.27-46.2-75-71-130.72-71.11-56.74-.14-101.13,25-132.7,72.27-2.21,3.31-3.88,4.46-8,3.28-17.69-5.05-32.35,5.31-34.23,23.61q-4,39.12-8.28,78.21c-.22,2-1.59,3.94-2.9,5.7-9.7-46.95,4.09-119.19,61.82-168.89,61.55-53,149.73-61.28,217.75-21.38,73.14,42.91,103.12,122.13,92.68,189.18Z"/><path class="cls-4" d="M138.22,350c32.37,34.91,71.51,53.19,118.23,53.09s85.74-18.53,117.09-52.55c3.08,9.5,5.59,18.91,9.25,27.84,1.81,4.43,1.59,6.64-2.09,9.81-38.58,33.22-83.36,49-134,46.61-44.35-2.06-83.25-18.47-116.56-47.95-2.21-2-2.56-3.47-1.41-6.53,3.18-8.44,5.57-17.18,8.26-25.81C137.34,353.28,137.66,352,138.22,350Z"/><path class="cls-5" d="M255.93,288a41.53,41.53,0,0,1-41.44-41.65c.06-23.22,18.68-41.57,42.11-41.5,22.7.06,41.58,19.2,41.32,41.88A41.87,41.87,0,0,1,255.93,288Zm20.89-41.5a20.73,20.73,0,1,0-41.45-.15c0,11.32,9.27,20.77,20.42,20.81A20.63,20.63,0,0,0,276.82,246.45Zm-23.39,31c0-3.53-2.24-5.47-5.74-5.45s-5.82,2.12-5.8,5.79,2.24,5.73,5.82,5.75S253.28,281.46,253.43,277.48Zm12.76-68.57c-5.19.59-7.34,2.37-7.32,6.09s2.13,5.76,5.72,5.72,6.22-2.27,5.63-5.73C269.82,212.57,267.31,210.51,266.19,208.91Zm28,30.47c-1.23-4.67-2.74-7.1-6.52-7.15s-5.79,2.06-5.91,5.63,2.25,6.18,5.62,5.76C289.78,243.32,291.92,240.87,294.18,239.38ZM277.63,276l2.48.08c1.62-2.17,4.14-4.16,4.64-6.57.73-3.5-2-5.82-5.43-5.93s-6.31,1.95-5.78,5.55C273.89,271.55,276.2,273.7,277.63,276ZM239,225.33c-.29-5.26-1.91-7.52-5.68-7.62s-5.87,2-6,5.48,2.22,6.23,5.58,5.86C235.29,228.8,237.45,226.35,239,225.33ZM230.72,253c-1.63-1.07-3.79-3.52-6.21-3.81-3.37-.41-5.69,2.11-5.55,5.79s2.28,5.61,5.94,5.56S230.29,258.13,230.72,253Z"/><path class="cls-6" d="M239.31,298.7h33.61v62.11H239.31Z"/><path class="cls-7" d="M141.3,262.93V229.84h62.39v33.09Z"/><path class="cls-8" d="M307.07,229.7c1.82-.13,3-.28,4.15-.28,19.67,0,39.34,0,59.45,0v33.42H307.13A56,56,0,0,0,307.07,229.7Z"/><path class="cls-9" d="M233.55,389.31c0-2.94-.11-5.65,0-8.35.22-4.64,2.71-7.46,7.38-7.55,9.94-.2,19.89-.25,29.83-.07,5.25.1,7.67,2.86,7.88,8.15.1,2.53,0,5.06,0,7.43C269.08,391.78,246.7,392,233.55,389.31Z"/></svg>