<svg id="Layer_1" data-name="Layer 1" xmlns="http://www.w3.org/2000/svg" xmlns:xlink="http://www.w3.org/1999/xlink" viewBox="0 0 512 512"><defs><style>.cls-1{fill:url(#linear-gradient);}</style><linearGradient id="linear-gradient" x1="255.47" y1="51.38" x2="255.47" y2="481.72" gradientUnits="userSpaceOnUse"><stop offset="0" stop-color="#ff838f"/><stop offset="1" stop-color="#ec7278"/></linearGradient></defs><title>Education  ICONS</title><path class="cls-1" d="M303.4,428.19a111.33,111.33,0,0,0,13.36,36c3.7,6.48,8.14,12.54,12.05,18.91,1.72,2.79,3.91,3.52,7.06,3.44,8-.21,16-.13,23.95,0,5.94.07,9,2.79,8.94,7.68s-3.18,7.57-9.11,7.57q-105.3,0-210.6,0c-6.08,0-9-2.58-9-7.59s2.8-7.59,8.87-7.65c8.32-.1,16.64.07,25-.16a7.22,7.22,0,0,0,5-2.18c12.19-16.05,21.57-33.52,26-53.37a26.29,26.29,0,0,0,.26-3h-5.56q-71.11,0-142.23,0c-15,0-25.87-7.67-29.26-20.77A44.41,44.41,0,0,1,27,396.13q-.08-137,0-274c0-19.8,11.78-31.59,31.7-31.6,33.1,0,66.2,0,99.31.1,3.61,0,5.05-1,6-4.59,11.42-42.59,49.33-71.85,92.73-71.81,43.18,0,81.06,29.27,92.43,71.55,1,3.7,2.41,4.9,6.32,4.87q49.41-.27,98.81-.08c14.87,0,25.8,8.4,28.85,21.92a45.55,45.55,0,0,1,.73,9.92q.06,136.76,0,273.53c0,17.27-7.92,28.5-22.83,31.76-3.14.68-6.56.12-9.84.12q-72.12,0-144.23,0A33.23,33.23,0,0,0,303.4,428.19ZM217,269.76c0-6.91.24-13-.13-19.14a8.39,8.39,0,0,0-2.95-5.54c-8.51-6.39-15.8-13.85-20.8-23.24-3.33-6.26-5.93-12.92-9.16-20.09-5.32,0-11.3.31-17.25-.07-10.13-.65-17.25-8.1-17.51-18.25-.24-8.81-.1-17.63,0-26.44,0-5.47,1.94-10.64,6.46-13.42,4.75-2.92,5-6.66,4.87-11.27-.19-5.48,0-11,0-16.46v-10.1h-5.23q-48.89,0-97.77,0c-10.37,0-15.13,4.84-15.13,15.35q0,116,0,232v6.4H94.92c0-7.86,0-15.32,0-22.78-.07-33.41,21.23-59.67,54.18-65.26,11.2-1.91,22.84-1.38,34.28-1.63C194.33,269.57,205.29,269.76,217,269.76ZM467.9,359.6V353c0-77-.11-154,.12-231,0-11.09-5.39-16.85-17.27-16.94-30.93-.22-61.86-.07-92.79-.06-1.61,0-3.21.15-5.16.25,0,11.47-.08,22.43.11,33.39,0,1.34,1.22,2.94,2.32,3.95a19.33,19.33,0,0,1,6.69,15c0,8.15.13,16.31-.05,24.45-.24,10.55-6.91,17.74-17.39,19.09-1.43.18-2.86.31-4.46.49-.07,1.3-.15,2.27-.18,3.25-.33,14.6-4.15,18.34-18.93,18.49a5.42,5.42,0,0,0-2,.06c-1.39.6-3.24,1-3.95,2.15-5.2,8.15-12.08,14.53-20,19.9-1.09.74-2.32,2.21-2.36,3.38-.22,6.78-.11,13.57-.11,21,2.64,0,4.75,0,6.87,0,17.62.16,35.3-.53,52.85.68,31.38,2.15,56.88,24.17,62,53,1.46,8.26.82,16.9,1.07,25.37.11,3.58,0,7.18,0,10.79Zm-122,0v-4.34c0-10-.1-20,.08-30,.09-4.76,3.11-7.37,7.68-7.29,4.39.08,7,2.56,7.35,7.11.15,2.16.07,4.33.07,6.49,0,9.26,0,18.51,0,28H400c0-8.52,0-16.79,0-25.06.06-14.2-5.54-25.87-16.12-35.1-11.26-9.82-24.64-14.24-39.46-14.33q-26.46-.15-52.91.06a13,13,0,0,0-6.44,1.89C265,299.63,245,299.63,225,286.91a9.24,9.24,0,0,0-4.51-1.72c-20.8,0-41.68-1.12-62.36.51-21.88,1.72-38.06,13.53-45.67,34.8-4.53,12.64-1.47,25.92-2.31,39.08h39v-5.66c0-9.32-.08-18.64.05-28,.09-5.73,3.66-8.75,9-7.85,4.64.78,6.16,4,6.15,8.3,0,10.94,0,21.89,0,33.16ZM42.33,375.38v19.55c0,13.58,3.92,17.49,17.54,17.49H453.55c7.28,0,13.4-3.89,13.89-10.18.69-8.86.18-17.81.18-26.86ZM298.15,224.74c-3.8,0-6.75.18-9.67-.05-3.53-.27-5.88.63-8.29,3.73-7.14,9.19-24.24,9.37-32.16.82-5-5.42-4.69-12.74.8-17.72,7.42-6.73,22.81-7.27,29.3.23,3.83,4.42,7.67,4.82,12.47,4.67a54.41,54.41,0,0,1,8.47,0c3.43.41,5.08-1.22,6.53-4a57.58,57.58,0,0,0,6.68-27.32c-.08-13.48-.45-27,.16-40.41.28-6.21-2.13-9-7.41-10.94-9.53-3.44-19-7.07-25-14.91-12.85,8.92-25,17.95-37.72,26-12.89,8.17-27.11,13.07-42.94,12.91,0,9.56-.05,18.52,0,27.49.14,19,7.74,34.54,22.44,46.37C244.79,250.16,279.57,247.25,298.15,224.74Zm39-86.37c0-11.66.82-23-.16-34.19C334.34,73.56,318.75,51,291.27,37.62,264,24.39,237,26.85,211.62,43.27c-14.09,9.09-23.83,21.94-30.23,37.43-7.71,18.65-5.15,38.13-5.54,57.54h6.34c-2.7-50.53,37.29-78.51,68.62-79.69,18-.67,34.29,3.9,48.48,15,21,16.39,29.46,38.57,28.38,64.85ZM222.61,428.69c-3.42,10.57-6,20.76-10,30.35s-9.43,18.51-14.28,27.79H312.74c-12.09-18.11-20.76-37-24.11-58.14Zm88.86-308.08c-5-20.34-16.19-34.66-35-41.92-21.91-8.46-42.31-4.79-59.9,10.86-15.78,14-20.34,32.27-18.13,53.29,4.2-.29,8.27.27,11.7-1,9.47-3.42,19.31-6.53,27.82-11.71,11.3-6.87,21.57-15.47,32.1-23.56,7.31-5.62,15.5-5.72,20.18,1.13C295.26,115.09,302.42,118.13,311.47,120.61ZM232.2,254.69c0,5.44-.28,10.41.15,15.31a7.7,7.7,0,0,0,3.06,5.33c13.15,7.7,26.47,7.56,39.66,0,1.17-.67,2.74-2,2.79-3,.28-5.69.14-11.4.14-17.82C262.45,260,247.56,259.06,232.2,254.69ZM328,153.8v32.78c5,0,9.65.36,14.2-.19,1.62-.2,4.18-2.55,4.26-4,.42-8.1.41-16.25,0-24.36-.07-1.46-2.4-3.84-3.89-4C337.9,153.47,333.09,153.8,328,153.8ZM182.27,186.58v-32.8c-4.75,0-9.24-.38-13.6.2-1.61.22-4.06,2.67-4.14,4.21-.42,7.94-.19,15.91-.19,23.87,0,3.09,1.54,4.55,4.61,4.53C173.23,186.56,177.52,186.58,182.27,186.58Zm80.56,26.8c-5.93,0-11.39,3.2-11.49,6.71s5.36,6.89,11.27,7c6.33.13,12.38-3.33,12.27-7.05C274.78,216.52,269.11,213.38,262.83,213.38Zm58.86,2.67c10.9.85,13.26-2.11,11.37-15.06-2.81,1.2-6.38,1.59-7.56,3.48C323.48,207.72,323,211.91,321.69,216.05Z"/></svg>