<svg id="Layer_1" data-name="Layer 1" xmlns="http://www.w3.org/2000/svg" xmlns:xlink="http://www.w3.org/1999/xlink" viewBox="0 0 512 512"><defs><style>.cls-1{fill:url(#linear-gradient);}.cls-2{fill:url(#linear-gradient-2);}.cls-3{fill:url(#linear-gradient-3);}.cls-4{fill:url(#linear-gradient-4);}.cls-5{fill:url(#linear-gradient-5);}.cls-6{fill:url(#linear-gradient-6);}.cls-7{fill:url(#linear-gradient-7);}.cls-8{fill:url(#linear-gradient-10);}.cls-9{fill:url(#linear-gradient-11);}.cls-10{fill:url(#linear-gradient-12);}.cls-11{fill:url(#linear-gradient-13);}</style><linearGradient id="linear-gradient" x1="333.44" y1="88.15" x2="333.44" y2="408.84" gradientUnits="userSpaceOnUse"><stop offset="0" stop-color="#ff838f"/><stop offset="1" stop-color="#ec7278"/></linearGradient><linearGradient id="linear-gradient-2" x1="320.55" y1="88.15" x2="320.55" y2="408.84" xlink:href="#linear-gradient"/><linearGradient id="linear-gradient-3" x1="325.56" y1="88.15" x2="325.56" y2="408.84" xlink:href="#linear-gradient"/><linearGradient id="linear-gradient-4" x1="321.17" y1="88.15" x2="321.17" y2="408.84" xlink:href="#linear-gradient"/><linearGradient id="linear-gradient-5" x1="286.26" y1="88.15" x2="286.26" y2="408.84" xlink:href="#linear-gradient"/><linearGradient id="linear-gradient-6" x1="371.21" y1="88.15" x2="371.21" y2="408.84" xlink:href="#linear-gradient"/><linearGradient id="linear-gradient-7" x1="395.31" y1="88.15" x2="395.31" y2="408.84" xlink:href="#linear-gradient"/><linearGradient id="linear-gradient-10" x1="104.55" y1="88.15" x2="104.55" y2="408.84" xlink:href="#linear-gradient"/><linearGradient id="linear-gradient-11" x1="75.34" y1="88.15" x2="75.34" y2="408.84" gradientTransform="translate(170.78 6.33) rotate(34.94)" xlink:href="#linear-gradient"/><linearGradient id="linear-gradient-12" x1="66.58" y1="88.15" x2="66.58" y2="408.84" xlink:href="#linear-gradient"/><linearGradient id="linear-gradient-13" x1="116.11" y1="88.15" x2="116.11" y2="408.84" xlink:href="#linear-gradient"/></defs><title>Education  ICONS</title><path class="cls-1" d="M491.55,367.07H436.38v-143l14.81,11,10.7-14.37-130.42-97L213.79,211.55c.84,6.6,1.49,13.55,1.93,20.91l10.11-7.55V367.07h-50.5v10.75H491.55V367.07ZM235.69,217.55,331.49,146l95,70.71V367.06H235.69Z"/><path class="cls-2" d="M342.34,295.08a10.31,10.31,0,0,0-9.15-5.57h-26A97.32,97.32,0,0,1,309.08,273l-13.89-15.13A8.76,8.76,0,1,1,308.1,246l5.72,6.23c1.41-7.65-1.94-15.77-9-17.25-7.82-1.66-19.27,2.36-24.09,14.58-6.53,16.83-8.05,27.75-6,46.16,2.15,10.78,9.19,13.63,16.27,14.22a10.48,10.48,0,0,0,1.95.19h33.92l20.82,40.28A10.31,10.31,0,0,0,356.9,356a10.16,10.16,0,0,0,4.72-1.16A10.3,10.3,0,0,0,366,340.94Z"/><path class="cls-3" d="M322.39,264.6l-15.81-17.22a6.7,6.7,0,1,0-9.87,9.06l17.8,19.39a6.73,6.73,0,0,0,4.94,2.17h27.48a6.66,6.66,0,0,0,4.3-1.6l1,1.86.59,1.16,3.39-1.74L354.82,275l-1.31-2.56a7.48,7.48,0,0,0,.11-1.17,6.68,6.68,0,0,0-3.79-6l-1.32-2.58-5-9.72-3.4,1.74,4,7.82,1.05,2.05Z"/><circle class="cls-4" cx="321.17" cy="216.62" r="20.12"/><path class="cls-5" d="M317.93,316H274.82l-14.95-46.54a5.55,5.55,0,1,0-10.56,3.39h0l16.18,50.39a5.54,5.54,0,0,0,5.28,3.85h47.16a5.55,5.55,0,1,0,0-11.09Z"/><rect class="cls-6" x="323.59" y="280.91" width="95.24" height="6.65"/><rect class="cls-7" x="377.8" y="271.06" width="35.02" height="5.9"/><rect class="cls-7" x="377.8" y="261.87" width="35.02" height="5.89"/><rect class="cls-7" x="377.8" y="252.68" width="35.02" height="5.9"/><path class="cls-8" d="M67.65,446.35a22.16,22.16,0,1,0,44.31,0v-142h8.31v142a22.16,22.16,0,1,0,44.31,0V177.64a78.55,78.55,0,0,1,3.19,7.59c5,14,9.29,37,9.28,72.83,0,9.88-.32,20.73-1,32.65a14.33,14.33,0,0,0,13.47,15.14l.85,0a14.33,14.33,0,0,0,14.3-13.5c.72-12.42,1.06-23.83,1.06-34.32-.07-54.09-8.71-84-20.48-102-5.89-8.93-12.78-14.67-19.14-17.84a33.91,33.91,0,0,0-14.69-3.82c-.22,0-.45,0-.68,0H142.1l-4.18,32.74L120.45,146,131,134.34H101.24L111.79,146,94.31,167.08l-4.18-32.74H81.5c-.17,0-.34,0-.5,0-5.32-.08-17.21,2.26-27.63,13.54-10.6,11.38-19.51,30.24-23.95,62.3h0a352.9,352.9,0,0,0-2.91,47.83c0,10.49.34,21.91,1.07,34.33a14.34,14.34,0,0,0,14.29,13.5c.29,0,.57,0,.86,0A14.33,14.33,0,0,0,56.19,290.7c-.7-11.91-1-22.77-1-32.65a323,323,0,0,1,2.64-43.91h0c2.39-17.39,6.14-28.95,9.84-36.51v60.24L59,243.72c-.08,2.17-.13,4.37-.17,6.61l12.1-8.2,32.16,47.48L43,330.3,10.85,282.83l12.33-8.35c-.07-2.16-.11-4.28-.15-6.39L3.38,281.4l38.19,56.37L56.9,327.39l10.75-7.28V446.35Z"/><rect class="cls-9" x="73.54" y="257.3" width="3.58" height="34.43" transform="translate(-143.63 92.62) rotate(-34.94)"/><path class="cls-10" d="M59,274.5q.1,3.27.25,6.62l11.89,17,2.94-2.05Z"/><path class="cls-11" d="M122.67,123.59a40.06,40.06,0,1,0-6.56.54A40.31,40.31,0,0,0,122.67,123.59Z"/></svg>