<svg id="Layer_1" data-name="Layer 1" xmlns="http://www.w3.org/2000/svg" xmlns:xlink="http://www.w3.org/1999/xlink" viewBox="0 0 512 512"><defs><style>.cls-1{fill:url(#linear-gradient);}.cls-2{fill:url(#linear-gradient-2);}.cls-3{fill:url(#linear-gradient-4);}.cls-4{fill:url(#linear-gradient-7);}.cls-5{fill:url(#linear-gradient-8);}.cls-6{fill:url(#linear-gradient-9);}.cls-7{fill:url(#linear-gradient-10);}.cls-8{fill:url(#linear-gradient-11);}.cls-9{fill:url(#linear-gradient-14);}.cls-10{fill:url(#linear-gradient-15);}.cls-11{fill:url(#linear-gradient-16);}.cls-12{fill:url(#linear-gradient-18);}.cls-13{fill:url(#linear-gradient-19);}.cls-14{fill:url(#linear-gradient-20);}.cls-15{fill:url(#linear-gradient-21);}.cls-16{fill:url(#linear-gradient-22);}.cls-17{fill:url(#linear-gradient-23);}.cls-18{fill:url(#linear-gradient-24);}.cls-19{fill:url(#linear-gradient-25);}.cls-20{fill:url(#linear-gradient-26);}.cls-21{fill:url(#linear-gradient-29);}</style><linearGradient id="linear-gradient" x1="255.47" y1="-1.72" x2="255.47" y2="492.59" gradientUnits="userSpaceOnUse"><stop offset="0" stop-color="#ff838f"/><stop offset="1" stop-color="#ec7278"/></linearGradient><linearGradient id="linear-gradient-2" x1="283.48" y1="-1.72" x2="283.48" y2="492.59" xlink:href="#linear-gradient"/><linearGradient id="linear-gradient-4" x1="379.08" y1="-1.72" x2="379.08" y2="492.59" xlink:href="#linear-gradient"/><linearGradient id="linear-gradient-7" x1="227.45" y1="-1.72" x2="227.45" y2="492.59" xlink:href="#linear-gradient"/><linearGradient id="linear-gradient-8" x1="376.2" y1="-1.72" x2="376.2" y2="492.59" xlink:href="#linear-gradient"/><linearGradient id="linear-gradient-9" x1="420.28" y1="-1.72" x2="420.28" y2="492.59" xlink:href="#linear-gradient"/><linearGradient id="linear-gradient-10" x1="320.07" y1="-1.72" x2="320.07" y2="492.59" xlink:href="#linear-gradient"/><linearGradient id="linear-gradient-11" x1="420.33" y1="-1.72" x2="420.33" y2="492.59" xlink:href="#linear-gradient"/><linearGradient id="linear-gradient-14" x1="302.5" y1="-1.72" x2="302.5" y2="492.59" xlink:href="#linear-gradient"/><linearGradient id="linear-gradient-15" x1="89.36" y1="-1.72" x2="89.36" y2="492.59" xlink:href="#linear-gradient"/><linearGradient id="linear-gradient-16" x1="123" y1="-1.72" x2="123" y2="492.59" xlink:href="#linear-gradient"/><linearGradient id="linear-gradient-18" x1="288.43" y1="-1.72" x2="288.43" y2="492.59" xlink:href="#linear-gradient"/><linearGradient id="linear-gradient-19" x1="448.32" y1="-1.72" x2="448.32" y2="492.59" xlink:href="#linear-gradient"/><linearGradient id="linear-gradient-20" x1="464.36" y1="-1.72" x2="464.36" y2="492.59" xlink:href="#linear-gradient"/><linearGradient id="linear-gradient-21" x1="90.66" y1="-1.72" x2="90.66" y2="492.59" xlink:href="#linear-gradient"/><linearGradient id="linear-gradient-22" x1="455.07" y1="-1.72" x2="455.07" y2="492.59" xlink:href="#linear-gradient"/><linearGradient id="linear-gradient-23" x1="43.63" y1="-1.72" x2="43.63" y2="492.59" xlink:href="#linear-gradient"/><linearGradient id="linear-gradient-24" x1="137.68" y1="-1.72" x2="137.68" y2="492.59" xlink:href="#linear-gradient"/><linearGradient id="linear-gradient-25" x1="62.64" y1="-1.72" x2="62.64" y2="492.59" xlink:href="#linear-gradient"/><linearGradient id="linear-gradient-26" x1="208.44" y1="-1.72" x2="208.44" y2="492.59" xlink:href="#linear-gradient"/><linearGradient id="linear-gradient-29" x1="118.67" y1="-1.72" x2="118.67" y2="492.59" xlink:href="#linear-gradient"/></defs><title>Education  ICONS</title><path class="cls-1" d="M269.15,157.14a48.48,48.48,0,0,1-27.36,0L239.57,166l15.9,26.51L271.36,166Z"/><path class="cls-2" d="M297.56,180.19l-13.45-3.36-20.4,34v10.79l39.55-39.56A43.21,43.21,0,0,0,297.56,180.19Z"/><polygon class="cls-1" points="241.29 381.61 269.64 381.61 265.52 365.13 245.41 365.13 241.29 381.61"/><path class="cls-3" d="M366,299.2H403.8v-33a16.49,16.49,0,0,0-16.48-16.48,16.26,16.26,0,0,0-16.48,16.41l.07,8.31H362.6a8.25,8.25,0,0,0-8.24,8.24v1.41a8.21,8.21,0,0,0,2.41,5.84Z"/><path class="cls-1" d="M280.19,85H230.75a8.25,8.25,0,0,0-8.24,8.24v16.48a33,33,0,0,0,65.92,0V93.19A8.25,8.25,0,0,0,280.19,85Z"/><path class="cls-1" d="M273.58,346.3A64.86,64.86,0,0,0,304.91,291V258a8.25,8.25,0,0,0-8.24-8.24H247.23A41.25,41.25,0,0,0,206,291a64.87,64.87,0,0,0,31.34,55.34l3.91,2.35h28.39Z"/><path class="cls-4" d="M207.68,182.07l39.55,39.56V210.84l-20.41-34-13.45,3.36A43.07,43.07,0,0,0,207.68,182.07Z"/><path class="cls-5" d="M377,180.58a42.13,42.13,0,0,0-30.88,40.68v12h60.16Z"/><polygon class="cls-6" points="429.16 208.56 411.4 208.56 420.28 224.55 429.16 208.56"/><path class="cls-7" d="M355.06,259.17a32.14,32.14,0,0,1,3.66-9.41H319.87a24.28,24.28,0,0,1,1.52,8.24v33a81.45,81.45,0,0,1-39.32,69.47l-.64.39,5.19,20.79h67.74V310.86l-9.24-9.24a24.58,24.58,0,0,1-7.25-17.49v-1.41A24.77,24.77,0,0,1,355.06,259.17Z"/><path class="cls-8" d="M388.76,160.55l2.7-10.79a49.37,49.37,0,0,1-20.62-40.09V79l8.25-2.75a90.93,90.93,0,0,0,33-19.71v-21h16.48v21a91.05,91.05,0,0,0,33,19.71L469.72,79v30.67a49.38,49.38,0,0,1-20.62,40.1l2.7,10.79,14.57,3.64a58.53,58.53,0,0,1,19.93,9.32L486.21,85a65.93,65.93,0,1,0-131.85,0v88.5a58.55,58.55,0,0,1,19.83-9.25Z"/><path class="cls-6" d="M447.05,176.36l-8.85-2.21-4.24-17a48.6,48.6,0,0,1-27.36,0l-4.24,17-8.85,2.21,8.73,15.72h36.08Z"/><path class="cls-6" d="M453.24,90.84a108.16,108.16,0,0,1-33-19.38,108,108,0,0,1-33,19.38v18.83a33,33,0,0,0,65.92,0Z"/><path class="cls-9" d="M329.63,233.28v-12a42,42,0,0,0-12.37-29.89l-41.9,41.91Z"/><path class="cls-10" d="M16.49,431.05H157.24a57.19,57.19,0,0,1,5-16.48H16.49Z"/><path class="cls-11" d="M214.26,381.61h10.06l5.2-20.79-.64-.39A81.44,81.44,0,0,1,189.54,291a57.47,57.47,0,0,1,17.4-41.2H16.49V398.09H174A57.42,57.42,0,0,1,214.26,381.61Z"/><path class="cls-1" d="M206,95.33V93.19a24.76,24.76,0,0,1,24.73-24.72h49.44a24.75,24.75,0,0,1,24.72,24.72v2.14a54.26,54.26,0,0,0,8.24-28.91v-6.2A41.2,41.2,0,0,0,272,19H239a41.2,41.2,0,0,0-41.21,41.2v6.2A54.58,54.58,0,0,0,206,95.33Z"/><path class="cls-12" d="M403.8,315.68h-33v69.08l11.92,6-7.37,14.75-14.74-7.38H214.26a41.25,41.25,0,0,0-41.2,41.2V497h16.48V431.05H206V497h98.89V431.71L373.57,426a33.16,33.16,0,0,0,30.23-32.85Z"/><path class="cls-13" d="M402.18,431.05h92.27V414.57H415.1A49.85,49.85,0,0,1,402.18,431.05Z"/><path class="cls-14" d="M482,191.32a42.3,42.3,0,0,0-18.48-10.75l-29.28,52.71h60.17v-12A42.06,42.06,0,0,0,482,191.32Z"/><path class="cls-15" d="M41.21,95.33V91A24.82,24.82,0,0,1,62.43,66.53L81.49,63.8A20.37,20.37,0,0,0,98.9,43.74h16.48a36.28,36.28,0,0,1-2,11.89A41.14,41.14,0,0,1,140.1,94.2v1.13a54.5,54.5,0,0,0,8.24-28.91v-6.2A41.25,41.25,0,0,0,107.14,19H41.21A8.25,8.25,0,0,0,33,27.26V66.42a54.58,54.58,0,0,0,8.24,28.91Z"/><path class="cls-16" d="M420.28,266.24v126.9a45.08,45.08,0,0,1-.48,4.95h74.65V249.76H415.69A32.58,32.58,0,0,1,420.28,266.24Z"/><path class="cls-17" d="M28.86,191.37a42,42,0,0,0-12.37,29.89v12H70.76Z"/><path class="cls-18" d="M164.82,233.28v-12a42,42,0,0,0-12.37-29.89l-41.9,41.91Z"/><path class="cls-19" d="M42.87,182.07l39.54,39.56V210.84l-20.4-34-13.45,3.36A42.59,42.59,0,0,0,42.87,182.07Z"/><path class="cls-20" d="M193.67,191.37a42,42,0,0,0-12.37,29.89v12h54.28Z"/><path class="cls-15" d="M106.55,166l-2.22-8.89a48.57,48.57,0,0,1-27.35,0L74.76,166l15.9,26.51Z"/><path class="cls-15" d="M90.66,142.63a33,33,0,0,0,33-33V94.2a24.69,24.69,0,0,0-18.72-24l-.69-.17A36.54,36.54,0,0,1,83.83,80.12L64.77,82.85A8.25,8.25,0,0,0,57.69,91v18.67A33,33,0,0,0,90.66,142.63Z"/><path class="cls-21" d="M132.75,180.19l-13.45-3.36-20.4,34v10.79l39.54-39.56A42.59,42.59,0,0,0,132.75,180.19Z"/></svg>