<svg id="Layer_1" data-name="Layer 1" xmlns="http://www.w3.org/2000/svg" xmlns:xlink="http://www.w3.org/1999/xlink" viewBox="0 0 512 512"><defs><style>.cls-1{fill:url(#linear-gradient);}.cls-2{fill:url(#linear-gradient-2);}.cls-3{fill:url(#linear-gradient-3);}.cls-4{fill:url(#linear-gradient-4);}</style><linearGradient id="linear-gradient" x1="256.32" y1="0.32" x2="256.32" y2="453.77" gradientUnits="userSpaceOnUse"><stop offset="0" stop-color="#ff838f"/><stop offset="1" stop-color="#ec7278"/></linearGradient><linearGradient id="linear-gradient-2" x1="410.07" y1="0.32" x2="410.07" y2="453.77" xlink:href="#linear-gradient"/><linearGradient id="linear-gradient-3" x1="258.87" y1="0.32" x2="258.87" y2="453.77" xlink:href="#linear-gradient"/><linearGradient id="linear-gradient-4" x1="350.62" y1="0.32" x2="350.62" y2="453.77" xlink:href="#linear-gradient"/></defs><title>Education  ICONS</title><path class="cls-1" d="M477.59,13.79H192.08a21.3,21.3,0,0,0-21.29,21.28v146.8l-13.21,11-45.51,1.47A49.06,49.06,0,1,0,71,195.81l-9.54.74h0c-17.62,1.47-47,10.27-47,36.7V342.61A6.94,6.94,0,0,0,21.79,350H35V490.87a6.93,6.93,0,0,0,7.34,7.34H73.17c3.67,0,6.61-2.93,7.34-6.6l9.54-77.8,12.48,77.8a7.14,7.14,0,0,0,7.34,5.87h32.3a7.54,7.54,0,0,0,7.34-7.34L148,256c0-.73.73-5.14,2.93-6.61s6.61-.73,11.75,1.47a6.68,6.68,0,0,0,8.07-1.47l11.74-10.27a20.34,20.34,0,0,0,9.55,2.2h71.19l-52.11,88.81h-8.07a7.34,7.34,0,1,0,0,14.68h27.15a7.34,7.34,0,0,0,0-14.68H228l52.11-88.81h46.24v63.12h-6.6a7.34,7.34,0,1,0,0,14.68H347a7.34,7.34,0,1,0,0-14.68h-6.61V241.32h48.44l52.12,88.81H438a7.34,7.34,0,0,0,0,14.68h27.16a7.34,7.34,0,0,0,0-14.68h-7.34l-52.12-88.81h71.2A21.31,21.31,0,0,0,498.15,220v-185C498.88,23.33,489.34,13.79,477.59,13.79ZM54.82,151a34.5,34.5,0,1,1,34.5,34.5A34.47,34.47,0,0,1,54.82,151Zm110.1,85.14c-8.08-2.93-15.41-2.2-21.29.74-9.54,5.87-9.54,17.61-9.54,19.08l1.47,227.53H117.21L97.39,361.69a7.14,7.14,0,0,0-7.34-5.87h0c-3.67,0-6.6,2.94-7.34,6.61L67.3,483.53H49.68V350h2.94A6.94,6.94,0,0,0,60,342.61V283.89a6.94,6.94,0,0,0-7.34-7.34,6.94,6.94,0,0,0-7.34,7.34v51.38H29.13v-102c0-19.09,32.3-21.29,33-21.29h0l97.62-3.67a7.8,7.8,0,0,0,4.4-1.47l61.66-49.91,14.68,15.42C214.1,193.61,191.34,213.43,164.92,236.18Zm91-69.73-8.07-8.07L277.22,132a7.28,7.28,0,0,0-9.54-11l-29.36,26.42-6.61-6.6a7.79,7.79,0,0,0-8.81-1.47V57.83H446.77V199.48H230.24l25.69-22a6.63,6.63,0,0,0,2.2-5.13C258.13,169.39,257.4,167.92,255.93,166.45ZM484.2,220.77a6.58,6.58,0,0,1-6.61,6.6H197.21L214.1,212.7h240a6.94,6.94,0,0,0,7.34-7.34V50.49a6.93,6.93,0,0,0-7.34-7.34H215.56a6.93,6.93,0,0,0-7.34,7.34V151l-22.75,19.08v-135a6.58,6.58,0,0,1,6.61-6.6H477.59a6.58,6.58,0,0,1,6.61,6.6Z"/><path class="cls-2" d="M435,423.35a41.72,41.72,0,1,0-66-33.77c0,13.95,6.6,26.43,17.61,33.77-25.69,0-47,21.28-47,47.71v19.81a6.93,6.93,0,0,0,7.34,7.34H473.19a6.93,6.93,0,0,0,7.34-7.34V470.32C480.53,445.37,460,424.08,435,423.35ZM410.8,363.16A27.09,27.09,0,0,1,438,390.32c0,14.68-11.74,26.42-27.16,26.42-14.68,0-27.16-11.74-27.16-26.42A27.09,27.09,0,0,1,410.8,363.16Zm55.05,120.37H354.29V470.32a32.89,32.89,0,0,1,33-33h46.25a32.88,32.88,0,0,1,33,33v13.21Z"/><path class="cls-3" d="M283.82,423.35a41.72,41.72,0,1,0-66-33.77c0,13.95,6.6,26.43,17.61,33.77-25.69,0-47,21.28-47,47.71v19.81a6.93,6.93,0,0,0,7.34,7.34H322a6.93,6.93,0,0,0,7.34-7.34V470.32C329.33,445.37,308.78,424.08,283.82,423.35ZM259.6,363.16a27.09,27.09,0,0,1,27.16,27.16c0,14.68-11.74,26.42-27.16,26.42-14.68,0-27.16-11.74-27.16-26.42A27.09,27.09,0,0,1,259.6,363.16Zm55,120.37H203.09V470.32a32.89,32.89,0,0,1,33-33h46.25a32.88,32.88,0,0,1,33,33v13.21Z"/><path class="cls-4" d="M303.64,135.63H322v45.5a6.93,6.93,0,0,0,7.34,7.34H371.9a6.93,6.93,0,0,0,7.34-7.34v-45.5h18.35q4.41,0,6.61-4.41a7.88,7.88,0,0,0-.74-8.07l-47-57.25C355,64.43,352.82,63,350.62,63a6.69,6.69,0,0,0-5.88,2.94l-47,58A7.88,7.88,0,0,0,297,132C297.77,134.16,300.71,135.63,303.64,135.63Zm47-52.85L382.18,121H371.9a6.93,6.93,0,0,0-7.34,7.34v45.5H336.67v-45.5a6.93,6.93,0,0,0-7.34-7.34H319.05Z"/></svg>