<svg id="Layer_1" data-name="Layer 1" xmlns="http://www.w3.org/2000/svg" xmlns:xlink="http://www.w3.org/1999/xlink" viewBox="0 0 512 512"><defs><style>.cls-1{fill:url(#linear-gradient);}</style><linearGradient id="linear-gradient" x1="256.32" y1="459.89" x2="256.32" y2="71.46" gradientUnits="userSpaceOnUse"><stop offset="0" stop-color="#e00707"/><stop offset="1" stop-color="red"/></linearGradient></defs><title>Medical Care  ICONS</title><path class="cls-1" d="M470.35,279.63h23.93V253.75a20,20,0,0,0-4.38-12.49L396.9,125a20,20,0,0,0-15.62-7.51H357.37V91.18a23.69,23.69,0,0,0-23.65-23.64H294.14A23.67,23.67,0,0,0,270.5,91.18v26.35H38.34a20,20,0,0,0-20,20V370a20,20,0,0,0,20,20H82.4a58.51,58.51,0,0,0,116.23,0H323.17a58.51,58.51,0,0,0,116.22,0h34.89a20,20,0,0,0,20-20V310.72H470.33a15.55,15.55,0,1,1,0-31.09ZM140.52,415.07a32.21,32.21,0,1,1,32.18-32.2A32.25,32.25,0,0,1,140.52,415.07ZM197.71,238H156.09v41.63H128.33V238H86.7V210.22h41.63V168.6h27.76v41.62h41.62ZM297.16,94.16h33.58v23.35H297.16Zm84.12,320.91a32.21,32.21,0,1,1,32.2-32.2A32.24,32.24,0,0,1,381.28,415.07Zm-73-181.3V157.49h63.44l61,76.28Z"/></svg>