<svg id="Layer_1" data-name="Layer 1" xmlns="http://www.w3.org/2000/svg" xmlns:xlink="http://www.w3.org/1999/xlink" viewBox="0 0 512 512"><defs><style>.cls-1{fill:url(#linear-gradient);}.cls-2{fill:url(#linear-gradient-2);}.cls-3{fill:url(#linear-gradient-3);}.cls-4{fill:url(#linear-gradient-4);}</style><linearGradient id="linear-gradient" x1="256.32" y1="500.74" x2="256.32" y2="65.68" gradientUnits="userSpaceOnUse"><stop offset="0" stop-color="#e00707"/><stop offset="1" stop-color="red"/></linearGradient><linearGradient id="linear-gradient-2" x1="256.32" y1="500.74" x2="256.32" y2="65.68" xlink:href="#linear-gradient"/><linearGradient id="linear-gradient-3" x1="363.98" y1="500.74" x2="363.98" y2="65.68" xlink:href="#linear-gradient"/><linearGradient id="linear-gradient-4" x1="256.32" y1="500.74" x2="256.32" y2="65.68" xlink:href="#linear-gradient"/></defs><title>Medical Care  ICONS</title><path class="cls-1" d="M194.17,419h53.14c1.44-1.36,3-2.84,4.61-4.47a156.4,156.4,0,0,0,14.53-16.08c-10.71-13.65-16.22-32.36,5.83-59.59,10.31-12.75,22-19.21,34.68-19.21,17.41,0,28.92,12.2,35.9,19.59.83.91,1.67,1.78,2.43,2.56,15.8,15.91,13.21,45.48-3.81,77.09,55.66-.78,97.71-7.59,97.71-66.39a120.71,120.71,0,0,0-73.5-111.09c.2.41.44.79.63,1.21a58.14,58.14,0,0,1,5,16.82,26.47,26.47,0,0,1,5.49,2.2A27.18,27.18,0,1,1,358.55,259c-1.65-8.37-5.91-17.53-12.71-24a119.28,119.28,0,0,0-16.26-2.62c-.46,22-33.09,39.75-73.26,39.75s-72.78-17.76-73.26-39.77c-3.9.35-7.73.9-11.5,1.62-8.31,6.63-14.16,16.13-15.76,23.85a15.08,15.08,0,0,1,6.6,7.79c11.31,5,21.35,16.09,29.08,32.26a8.76,8.76,0,0,1,.05,7.5c4.79,12,7.54,25.1,7.54,36.12,0,17.46-.77,28.4-15.4,31.3a7.48,7.48,0,0,1-5.23,2.15H167.19a7.55,7.55,0,0,1-7.54-7.55v-.14h0a7.56,7.56,0,0,1,7.54-7.37h11.25a7.5,7.5,0,0,1,3.15.7c2.66-.56,3.1-1.32,3.35-1.74,1.41-2.42,1.69-8.43,1.69-17.33,0-9.62-2.45-21.13-6.73-31.73a8.78,8.78,0,0,1-4.39-4.25c-7.38-15.43-17.36-25-26-25-8.87,0-19.34,10.35-26.67,26.35a8.91,8.91,0,0,1-5.11,4.66c-3.92,10.26-6.07,20.87-6.07,30,0,7,.14,14.65,1.83,17.37.25.41.78,1.25,3.78,1.8a7.59,7.59,0,0,1,3.38-.79h11.26a7.54,7.54,0,0,1,7.52,7.08v.44a7.55,7.55,0,0,1-7.53,7.55H120.62a7.47,7.47,0,0,1-5-1.95c-4-.66-9.41-2.25-12.72-7.55-3.13-5.05-3.7-12-3.7-23.95,0-10.88,2.57-23.4,7.25-35.36a8.73,8.73,0,0,1,.27-6.64c4.64-10.14,10.5-18.78,17-25a45.4,45.4,0,0,1,12-8.48,15.24,15.24,0,0,1,7.58-8.63,46.49,46.49,0,0,1,6.3-17A120.74,120.74,0,0,0,73.44,352.54C73.45,419.21,127.5,419,194.17,419Z"/><path class="cls-2" d="M256.32,9C210,9,169.73,45.26,162.77,93.39a106,106,0,0,0-1.08,15.08c0,2.08.08,4.14.19,6.21q.28,4.78.87,8.7c.07.87.14,1.73.23,2.65,6,67.78,46.12,118.9,93.34,118.9S343.68,193.81,349.68,126l.2-2.49c.41-2.82.7-5.73.88-8.88.12-2,.2-4.11.2-6.2a105.77,105.77,0,0,0-1.08-15.07C342.92,45.26,302.7,9,256.32,9Z"/><circle class="cls-3" cx="363.98" cy="285.64" r="13.59"/><path class="cls-4" d="M332.43,354.6c-.93-.94-1.88-1.93-2.84-3-5.81-6.16-13-13.83-22.64-13.83-7.08,0-13.8,4.09-20.6,12.48-18,22.23-11.56,31.71-.51,42.7l1.68,1.66c1,1,.19,4.73-3.75,10.72s-10.28,13.33-19.1,22.07c-20.88,20.74-29.13,23-31.7,23-.86,0-1.1-.25-1.24-.39l-1.65-1.67C224.83,443,219.4,437.42,211,437.42c-6.59,0-14.12,3.54-23.62,11.1-8.16,6.52-12.27,13-12.58,19.85-.45,9.93,7.37,17.4,13.62,23.4,1,1,2,1.94,3,2.88,3.64,3.66,9.4,5.61,16.68,5.61,17.42,0,49.8-11.94,83.71-45.58C333.3,413.41,346.54,368.82,332.43,354.6Z"/></svg>