<svg id="Layer_1" data-name="Layer 1" xmlns="http://www.w3.org/2000/svg" xmlns:xlink="http://www.w3.org/1999/xlink" viewBox="0 0 512 512"><defs><style>.cls-1{fill:url(#linear-gradient);}.cls-2{fill:url(#linear-gradient-2);}.cls-3{fill:url(#linear-gradient-3);}.cls-4{fill:url(#linear-gradient-4);}.cls-5{fill:url(#linear-gradient-6);}.cls-6{fill:url(#linear-gradient-7);}.cls-7{fill:url(#linear-gradient-8);}.cls-8{fill:url(#linear-gradient-9);}.cls-9{fill:url(#linear-gradient-10);}</style><linearGradient id="linear-gradient" x1="164.24" y1="541.6" x2="164.24" y2="92.19" gradientUnits="userSpaceOnUse"><stop offset="0" stop-color="#e00707"/><stop offset="1" stop-color="red"/></linearGradient><linearGradient id="linear-gradient-2" x1="164.24" y1="541.6" x2="164.24" y2="92.19" xlink:href="#linear-gradient"/><linearGradient id="linear-gradient-3" x1="141.47" y1="541.6" x2="141.47" y2="92.19" xlink:href="#linear-gradient"/><linearGradient id="linear-gradient-4" x1="188.14" y1="541.6" x2="188.14" y2="92.19" xlink:href="#linear-gradient"/><linearGradient id="linear-gradient-6" x1="220.33" y1="541.6" x2="220.33" y2="92.19" xlink:href="#linear-gradient"/><linearGradient id="linear-gradient-7" x1="313.83" y1="541.6" x2="313.83" y2="92.19" xlink:href="#linear-gradient"/><linearGradient id="linear-gradient-8" x1="327.62" y1="541.6" x2="327.62" y2="92.19" xlink:href="#linear-gradient"/><linearGradient id="linear-gradient-9" x1="313.83" y1="541.6" x2="313.83" y2="92.19" xlink:href="#linear-gradient"/><linearGradient id="linear-gradient-10" x1="176.89" y1="541.6" x2="176.89" y2="92.19" xlink:href="#linear-gradient"/></defs><title>Medical Care  ICONS</title><path class="cls-1" d="M186.25,33.46a22,22,0,0,0-44,0,47.87,47.87,0,0,1,44,0Z"/><circle class="cls-2" cx="164.24" cy="76.2" r="43.63"/><path class="cls-3" d="M161.76,373.94c-16.23-.19-30.44-1.67-40.58-3.73V474.3a20.29,20.29,0,0,0,40.58,0Z"/><path class="cls-4" d="M167.85,474.3a20.29,20.29,0,0,0,40.58,0V370.21a247,247,0,0,1-40.58,3.73Z"/><path class="cls-2" d="M164.24,367.88c57.47,0,87.93-18.26,87.93-18.26l-14-69.06c-1.37,7.88-2.73,16.41-4.06,25.66a16.44,16.44,0,1,1-32.54-4.67q2.43-17,5.12-31.82c-43.69-10-77-21.55-99.12-34.47-2.51-1.47-4.85-2.94-7-4.42L76.31,349.62S106.78,367.88,164.24,367.88Z"/><path class="cls-5" d="M216.06,315.94a13,13,0,0,0,1.75.12,12.17,12.17,0,0,0,12-10.44c1.69-11.75,3.43-22.38,5.2-32a17.49,17.49,0,0,1-5,.75,18,18,0,0,1-3.57-.37c-5.36-1.09-10.54-2.2-15.62-3.34-1.79,9.84-3.48,20.32-5.08,31.51A12.19,12.19,0,0,0,216.06,315.94Z"/><path class="cls-6" d="M313.83,291.7a123.73,123.73,0,0,1-50.33-11.08c0,.31,0,.65,0,1A19.28,19.28,0,0,0,260,290c-1.27,8.07-3,24.12-4.85,43.7-.67,7-1.35,14.56-2,22.32-4,45.18-8.07,98.9-9.18,120.34a19.28,19.28,0,0,0,18.26,20.24l1,0a19.32,19.32,0,0,0,19.24-18.33c1.28-24.95,6.93-98.43,11.47-145.1h39.84c4.54,46.67,10.18,120.15,11.47,145.1a19.3,19.3,0,0,0,19.24,18.31c.33,0,.67,0,1,0a19.26,19.26,0,0,0,18.26-20.24C381.9,441,372,317.91,367.65,290a19.1,19.1,0,0,0-3.51-8.41c0-.35,0-.69,0-1A123.69,123.69,0,0,1,313.83,291.7Z"/><path class="cls-7" d="M313.83,178.92c-13.07,0-24.73-8.64-32.57-20.33a28.74,28.74,0,0,0-15.73-.63c-19.9,4.8-35.32,29.89-47.3,77.77q7.36,1.64,15.33,3.27a17.79,17.79,0,0,1,8,3.89c10.27-41.74,20.53-55.09,26.09-59.36-.21,2.07-.42,4.22-.61,6.45-2.49,28.81-3.29,70-3.5,83.89a113.54,113.54,0,0,0,100.58,0c-.23-15-1.13-61.47-4.1-90.2,7.35,5.95,23.81,28.74,36.88,115.68A26,26,0,0,0,385,321.24a6.68,6.68,0,0,0,13.35,0,12.66,12.66,0,0,1,3.28-8.48,12.1,12.1,0,0,0,8.27,3.31,12.85,12.85,0,0,0,1.74-.13,11.92,11.92,0,0,0,7.58-4.31,12.58,12.58,0,0,1,4.35,9.61v167.3a6.74,6.74,0,0,0,13.47,0l0-167.3a26,26,0,0,0-15.82-24C410.7,226.6,396.58,184.1,377.47,166.54a13.17,13.17,0,0,0-1.14-25.37c-7.07-1.62-14-3-20.77-4.31C351.31,157.76,334.29,178.92,313.83,178.92Z"/><path class="cls-8" d="M313.83,174.46c21.15,0,38.3-26.23,38.3-47.38a38.3,38.3,0,1,0-76.6,0C275.53,148.23,292.68,174.46,313.83,174.46Z"/><path class="cls-9" d="M109.88,231.23c24.92,14.55,64.45,27.4,117.49,38.19a13.19,13.19,0,0,0,5.26-25.85C126.6,222,100.68,196.62,102.07,185v0a14.28,14.28,0,0,1,2.84-6.45,36,36,0,0,1,7.73-7.42l-4,19.66c6.73,9.58,32.7,27.33,105.4,44a306.93,306.93,0,0,1,8.76-29.48l-9.86-48.48c1.87-.22,3.9-.43,6.08-.65a424.17,424.17,0,0,1,43.9-1.89c.54-.16,1.07-.33,1.62-.46a32.46,32.46,0,0,1,13.61-.39,57.39,57.39,0,0,1-7.07-25.52,430.19,430.19,0,0,0-64.49,3c-1.34.17-2.59.34-3.76.51L168,152.08,178,129.79a120.94,120.94,0,0,0-13.61-.85,90.89,90.89,0,0,0-14.06.6l10.17,22.54-30.76-18.19a119.05,119.05,0,0,0-17.11,6.61c-19,9.11-34.5,23.22-36.75,41.18a34.45,34.45,0,0,0-.25,5.46C76.05,199.41,83.12,215.61,109.88,231.23Zm94.49-42.08H180V181h24.35Z"/></svg>