<svg id="Layer_1" data-name="Layer 1" xmlns="http://www.w3.org/2000/svg" xmlns:xlink="http://www.w3.org/1999/xlink" viewBox="0 0 512 512"><defs><style>.cls-1{fill:url(#linear-gradient);}.cls-2{fill:url(#linear-gradient-2);}.cls-3{fill:url(#linear-gradient-3);}.cls-4{fill:url(#linear-gradient-4);}.cls-5{fill:url(#linear-gradient-5);}.cls-6{fill:url(#linear-gradient-6);}</style><linearGradient id="linear-gradient" x1="181.75" y1="510.96" x2="181.75" y2="77.24" gradientUnits="userSpaceOnUse"><stop offset="0" stop-color="#e00707"/><stop offset="1" stop-color="red"/></linearGradient><linearGradient id="linear-gradient-2" x1="413.95" y1="510.96" x2="413.95" y2="77.24" xlink:href="#linear-gradient"/><linearGradient id="linear-gradient-3" x1="118.29" y1="510.96" x2="118.29" y2="77.24" xlink:href="#linear-gradient"/><linearGradient id="linear-gradient-4" x1="134.72" y1="510.96" x2="134.72" y2="77.24" xlink:href="#linear-gradient"/><linearGradient id="linear-gradient-5" x1="113.06" y1="510.96" x2="113.06" y2="77.24" xlink:href="#linear-gradient"/><linearGradient id="linear-gradient-6" x1="127.25" y1="510.96" x2="127.25" y2="77.24" xlink:href="#linear-gradient"/></defs><title>Medical Care  ICONS</title><path class="cls-1" d="M193,270.3c-6.72,4.48-11.2,11.21-11.2,17.93-2.24,26.89,65.73,58.26,53.78,80.67-3.74,7.47-13.45,11.2-22.41,9-44.82-11.95-79.92-36.6-129.22-89.63l-1.49-1.49h0c-27.64-20.17-65.73,11.95-44.82,39.58,39.59,52.29,114.28,141.17,174,150.14H331.91V342c-25.39-19.42-64.23-49.3-98.59-71.71C221.37,262.83,204.19,262.83,193,270.3Z"/><path class="cls-2" d="M479.8,477.2c-23.15-38.84-23.15-84.4.75-141.91a8.8,8.8,0,0,0-.75-7.47c-1.49-2.24-3.73-3-6.72-3L353.57,336.78c-3.73,0-6.72,3.73-6.72,7.47V486.17a7.67,7.67,0,0,0,7.47,7.47h0l119.51-5.23c3,0,5.23-1.5,6-3.74A6.76,6.76,0,0,0,479.8,477.2Z"/><path class="cls-3" d="M113.06,219.51a7.4,7.4,0,1,0,10.46,0C121.28,216.52,116.05,216.52,113.06,219.51Z"/><path class="cls-4" d="M140,204.57a7.21,7.21,0,0,0,0-10.45c-3-3-8.22-3-10.46,0a7.23,7.23,0,0,0,0,10.45C132.48,207.56,137.71,207.56,140,204.57Z"/><path class="cls-5" d="M118.29,174.7a7.4,7.4,0,1,0-10.46,0C110.07,177.68,115.3,177.68,118.29,174.7Z"/><path class="cls-6" d="M78,65.64V227.73A49.25,49.25,0,0,0,127.25,277c26.89,0,49.3-22.4,49.3-49.29V65.64A24.84,24.84,0,0,0,196.72,41a25.67,25.67,0,0,0-25.4-25.39H81.69C69,15.6,57.79,26.8,57.79,41A24.83,24.83,0,0,0,78,65.64Zm14.94,82.17h68.72v79.92a34.36,34.36,0,0,1-68.72,0Z"/></svg>