<svg id="Layer_1" data-name="Layer 1" xmlns="http://www.w3.org/2000/svg" xmlns:xlink="http://www.w3.org/1999/xlink" viewBox="0 0 512 512"><defs><style>.cls-1{fill:url(#linear-gradient);}.cls-2{fill:url(#linear-gradient-2);}.cls-3{fill:url(#linear-gradient-3);}.cls-4{fill:url(#linear-gradient-4);}.cls-5{fill:url(#linear-gradient-5);}.cls-6{fill:url(#linear-gradient-6);}.cls-7{fill:url(#linear-gradient-7);}.cls-8{fill:url(#linear-gradient-8);}</style><linearGradient id="linear-gradient" x1="87.82" y1="508.91" x2="87.82" y2="122.87" gradientUnits="userSpaceOnUse"><stop offset="0" stop-color="#e00707"/><stop offset="1" stop-color="red"/></linearGradient><linearGradient id="linear-gradient-2" x1="393.35" y1="508.91" x2="393.35" y2="122.87" xlink:href="#linear-gradient"/><linearGradient id="linear-gradient-3" x1="313.9" y1="508.91" x2="313.9" y2="122.87" xlink:href="#linear-gradient"/><linearGradient id="linear-gradient-4" x1="419.81" y1="508.91" x2="419.81" y2="122.87" xlink:href="#linear-gradient"/><linearGradient id="linear-gradient-5" x1="197.08" y1="508.91" x2="197.08" y2="122.87" xlink:href="#linear-gradient"/><linearGradient id="linear-gradient-6" x1="196.61" y1="508.91" x2="196.61" y2="122.87" xlink:href="#linear-gradient"/><linearGradient id="linear-gradient-7" x1="306.35" y1="508.91" x2="306.35" y2="122.87" xlink:href="#linear-gradient"/><linearGradient id="linear-gradient-8" x1="197.08" y1="508.91" x2="197.08" y2="122.87" xlink:href="#linear-gradient"/></defs><title>Medical Care  ICONS</title><path class="cls-1" d="M153,312.24c-5.36-8.36-7.89-19.17-5.93-32.39A1.87,1.87,0,0,0,146,278a1.91,1.91,0,0,0-2.11.29C138.62,283,129,291.49,117,296.24c-16.28,6.46-35.59,11.17-52.6,15.33-14.85,3.65-21.5,5.08-26.19,8.58s-7.41,9.07-11.86,24.43c-3.08,10.64-7,68.77-11.14,111a35.57,35.57,0,0,0,9.33,28.27,35.56,35.56,0,0,0,27.22,12.06q54.66,0,108.85-.14V384.45c0-11-2.9-49.57-7.61-72.21Z"/><path class="cls-2" d="M495.75,201.59c7.35,38.74-7.58,86.53-34.25,127.25-28.56,43.61-70.58,79.11-113.12,86.72-19.57,2.27-39.76-5.17-50.87-13.5-2.21-1.66-5.15-5.48-8.07-10.06a2.16,2.16,0,0,1-.07-2.27c5.63-10,15.1-21.32,28.17-31.19a117.2,117.2,0,0,1,40-19.61,2.15,2.15,0,0,1,2.07.5,92.9,92.9,0,0,0,8.38,7.14c3.83,2.7,6.22,5.63,12.72,2.46,22.26-15.51,57.19-67.19,64.39-93.49.65-7.2-2.95-8.39-6.83-11a88.81,88.81,0,0,0-9.65-5.28,2.18,2.18,0,0,1-1.22-1.77,117.61,117.61,0,0,1,4.05-44.38c4.57-15.72,11.79-28.62,19.11-37.43a2.15,2.15,0,0,1,2.14-.75c5.33,1.1,9.94,2.48,12.28,4C476.75,166.29,490.9,182.5,495.75,201.59Z"/><path class="cls-3" d="M349.33,329.7c-3.85-3.61-7.63-7.07-10.85-9.59-11.38-8.93-65,32.72-60.44,48.79a69.27,69.27,0,0,0,4.34,10.53,2.21,2.21,0,0,0,3.81.25,113.35,113.35,0,0,1,26-27.34A124.31,124.31,0,0,1,348.5,333.4a2.2,2.2,0,0,0,.83-3.7Z"/><path class="cls-4" d="M415.86,233.09c-4.74-2.31-9.32-4.61-12.82-6.72-12.39-7.45,7.41-72.36,24-73.85a66.92,66.92,0,0,1,11.37.29,2.2,2.2,0,0,1,1.59,3.47,113.8,113.8,0,0,0-16.25,34.08A124.31,124.31,0,0,0,419,231a2.13,2.13,0,0,1-1,1.95A2.18,2.18,0,0,1,415.86,233.09Z"/><path class="cls-5" d="M251.8,20C213.47,11.19,177,11,142.37,20c-8.14,2.1-15.19,7.63-15.19,17V67.78c0,9.34,7.84,15.55,15.89,13.07,36-11.08,72.06-10.84,109-.1,8.09,2.36,14.93-3.64,14.93-13V36.92C267,27.58,260,21.82,251.8,20ZM218,48.2a1.48,1.48,0,0,1-1.48,1.48H203.45V62.75A1.48,1.48,0,0,1,202,64.24h-9.78a1.48,1.48,0,0,1-1.48-1.49V49.68H177.63a1.48,1.48,0,0,1-1.47-1.48V38.42a1.48,1.48,0,0,1,1.47-1.49h13.08V23.86a1.48,1.48,0,0,1,1.48-1.48H202a1.48,1.48,0,0,1,1.48,1.48V36.93h13.08A1.49,1.49,0,0,1,218,38.42Z"/><path class="cls-6" d="M296.17,145.36c-4.45-21.59-9.55-37.65-16.52-51.37q-2-4-4.3-7.78a1.45,1.45,0,0,0-1.14-.71A1.48,1.48,0,0,0,273,86a23.12,23.12,0,0,1-24.44,6.93C214.41,83,180.81,82.49,146.79,93c-11.73,3.61-22.83-1.82-28.45-11.21a1.48,1.48,0,0,0-2.54,0A91.94,91.94,0,0,0,108.7,96c-6.67,16.49-13,42.16-17,63.32A446.83,446.83,0,0,0,85.33,206c-.72,8.88-.55,10,1.66,13.68a105.1,105.1,0,0,0,11.86,15.94c5.39,5.95,11.94,11.55,18.47,17.17q-1.14-6-2.29-12c12.26,19.38,14,21.09,31.79,31.48a1.49,1.49,0,0,0,2.18-1.71q-1.87-6.26-3.72-12.46c15.46,12.24,31.1,24.05,52.1,23.89,15.63-.11,43.54-16.73,53.25-29.92-2.07,6.1-4.42,12.08-6.83,18a1.46,1.46,0,0,0,.39,1.67,1.48,1.48,0,0,0,1.71.2,82.67,82.67,0,0,0,15.34-10.24c6-5.27,11.63-12.34,17.22-19.41l-5.87,16.56c7.66-6.37,15.3-12.74,21.24-19s10.21-12.49,14.45-18.69C304.46,194.06,300.64,166.94,296.17,145.36Zm-43.25,86.56c-14.73,17.6-31.61,33.72-56.37,35.18-31.4-1.87-48-23.78-55.15-33.72-12.73-15-10.49-72.9-7.76-92.78l6.84,1.75a2.75,2.75,0,0,0,2.3-.39,2.82,2.82,0,0,0,1.25-2c.91-6.41,2-12.78,4.74-18.88,3.14-7.1,8.41-13.81,13.68-20.52-3.14,8.83-6.28,17.67-7.73,24.34a48,48,0,0,0-1.07,13,2.84,2.84,0,0,0,2.82,2.74l14.58.19a2.85,2.85,0,0,0,2.88-2.57c.69-6.77,1.41-13.45,2.5-19.36a168.73,168.73,0,0,1,4.63-18.06c-1.1,9.1-2.2,18.18-2.33,25.24a76.21,76.21,0,0,0,1.08,14.17,2.88,2.88,0,0,0,3.37,2.36h.07a2.83,2.83,0,0,0,2.32-2.9c-.21-7.09-.38-14.12,0-20.63a181.09,181.09,0,0,1,2.84-20.53c-.08,9.87-.17,19.72.22,26.6a80.71,80.71,0,0,0,2,14.12,2.76,2.76,0,0,0,.48,1.08l.75,1a2.82,2.82,0,0,0,2.52,1.17l21.12-1.59a2.86,2.86,0,0,0,2.27-4.28,82.51,82.51,0,0,1-4.92-9.52,38,38,0,0,1-2.47-10.25c2.9,5,5.78,10,10,13.85a37.14,37.14,0,0,0,6,4.29,2.86,2.86,0,0,0,4.06-3.63c-.19-.43-.37-.85-.54-1.29-1.53-4-2.38-9-3.22-14,3.73,6.46,7.47,12.91,12.31,17.41s10.8,7.06,16.75,9.61C257,158.36,261.81,221.41,252.92,231.92Z"/><path class="cls-7" d="M314.56,495.35H342.4A36.73,36.73,0,0,0,379,455c-.68-6.94-1.36-14.31-2-21.83a138.16,138.16,0,0,1-24.2,6.72L352,440l-.76.08c-23,2.67-50-4.34-68.55-18.27-5.66-4.25-10.3-10.61-14.08-16.54a26.72,26.72,0,0,1-3.43-7.95,26.75,26.75,0,0,1-5-7,87.41,87.41,0,0,1-5.95-14.74c-6.56-23.24,14.92-45.46,31.32-58.77a148.26,148.26,0,0,1,18.1-12.67,262.06,262.06,0,0,1-26.5-8.49c-12-4.76-21.62-13.22-26.94-17.94a1.91,1.91,0,0,0-3.16,1.54c2,13.45-.52,24.39-5.89,32.85-4.72,22.61-7.63,61.32-7.63,72.32V495.58q40.4-.13,81-.23Z"/><path class="cls-8" d="M222.88,324.39c-15.2,10.12-36.4,10.1-51.59,0a1.44,1.44,0,0,0-1.6,0,1.46,1.46,0,0,0-.7,1.45c2.86,22.22,4.38,47.5,4.38,57.41V495.75q23.73-.06,47.42-.15V383.24c0-9.92,1.53-35.2,4.38-57.42a1.49,1.49,0,0,0-2.29-1.43Z"/></svg>