<svg id="Layer_1" data-name="Layer 1" xmlns="http://www.w3.org/2000/svg" xmlns:xlink="http://www.w3.org/1999/xlink" viewBox="0 0 512 512"><defs><style>.cls-1{fill:url(#linear-gradient);}.cls-2{fill:url(#linear-gradient-2);}.cls-3{fill:url(#linear-gradient-3);}.cls-4{fill:url(#linear-gradient-4);}</style><linearGradient id="linear-gradient" x1="253.71" y1="26.87" x2="253.71" y2="466.14" gradientUnits="userSpaceOnUse"><stop offset="0" stop-color="#e00707"/><stop offset="1" stop-color="red"/></linearGradient><linearGradient id="linear-gradient-2" x1="416.51" y1="26.87" x2="416.51" y2="466.14" xlink:href="#linear-gradient"/><linearGradient id="linear-gradient-3" x1="468.9" y1="26.87" x2="468.9" y2="466.14" xlink:href="#linear-gradient"/><linearGradient id="linear-gradient-4" x1="364.11" y1="26.87" x2="364.11" y2="466.14" xlink:href="#linear-gradient"/></defs><title>Medical Care  ICONS</title><path class="cls-1" d="M420.7,83.21c-41.63-2.34-76.08,30.91-76.08,72.21.12,17.33,14.54,31.43,32.15,31.43a32.43,32.43,0,0,0,13.23-2.8V348.8c0,52.36-43.15,96.59-94.17,96.59h-1.6c-51-.86-92.53-43.09-92.53-94.14V345.5c74.3-12.82,129.62-77.94,129.62-153.88V91.27a37.6,37.6,0,0,0-37.55-37.54H258.23a18.11,18.11,0,0,0-15.38-8.61H209a18.2,18.2,0,0,0-18.17,18.17v33.9A18.2,18.2,0,0,0,209,115.36h33.9a18.12,18.12,0,0,0,15.38-8.62H278.3v82.4c0,56.58-44.86,104-100,105.59A103.25,103.25,0,0,1,72.05,191.62V106.74H92.23a18.13,18.13,0,0,0,15.39,8.62h33.89a18.19,18.19,0,0,0,18.17-18.17V63.29a18.2,18.2,0,0,0-18.17-18.17H107.62a18.09,18.09,0,0,0-15.38,8.61H56.58A37.6,37.6,0,0,0,19,91.27V191.62c0,75.95,55.34,141.07,129.66,153.88v2.89c0,80.35,64,147.61,142.74,150,1.48,0,3,.06,4.41.06C377,498.4,443,432.38,443,351.24V184.05a33,33,0,0,0,36.14-6.75,31.82,31.82,0,0,0,9.24-22.76q0-3-.3-6.08A72.09,72.09,0,0,0,420.7,83.21ZM242.85,101.82H209a4.64,4.64,0,0,1-4.63-4.63V63.29A4.63,4.63,0,0,1,209,58.67h33.9A4.6,4.6,0,0,1,247.41,63V97.48A4.6,4.6,0,0,1,242.85,101.82ZM103,63.29a4.63,4.63,0,0,1,4.63-4.62h33.89a4.63,4.63,0,0,1,4.63,4.62v33.9a4.64,4.64,0,0,1-4.63,4.63H107.62A4.64,4.64,0,0,1,103,97.19ZM469.55,167.75a19.24,19.24,0,0,1-22.08,3.43,56.63,56.63,0,0,0-9.25-3.7,6.79,6.79,0,0,0-8.75,6.48V351.24c0,75-62.29,135.61-137.65,133.56-71.46-2.12-129.59-63.32-129.59-136.41v-8.7a6.76,6.76,0,0,0-5.88-6.71C85.79,323.56,32.58,262.79,32.58,191.62V91.27a24,24,0,0,1,24-24H89.4V93.2H65.28A6.77,6.77,0,0,0,58.51,100v91.65a116.78,116.78,0,0,0,116.64,116.7c1.19,0,2.39,0,3.55-.06C241.09,306.4,291.84,253,291.84,189.14V100a6.77,6.77,0,0,0-6.77-6.77H261V67.28h32.76a24,24,0,0,1,24,24V191.62c0,71.16-53.19,131.94-123.74,141.36a6.76,6.76,0,0,0-5.87,6.71v11.55c0,58.39,47.48,106.69,105.9,107.68h1.72c58.41,0,107.76-50.43,107.76-110.13V174a6.76,6.76,0,0,0-8.74-6.48,56,56,0,0,0-9.26,3.7,19,19,0,0,1-8.77,2.13c-10.19,0-18.54-8.07-18.61-17.94,0-33.52,27.91-60.63,61.78-58.65a58.51,58.51,0,0,1,54.67,52.93h0c.15,1.65.24,3.3.24,5A18.36,18.36,0,0,1,469.55,167.75Z"/><path class="cls-2" d="M416.51,66.81a28,28,0,1,0-28-28A28,28,0,0,0,416.51,66.81Zm0-42.43a14.44,14.44,0,1,1-14.44,14.44A14.46,14.46,0,0,1,416.51,24.38Z"/><path class="cls-3" d="M451.43,79.69a24.72,24.72,0,1,0,0-35A24.64,24.64,0,0,0,451.43,79.69ZM461,54.31a11.17,11.17,0,1,1,0,15.8A11.14,11.14,0,0,1,461,54.31Z"/><path class="cls-4" d="M364.11,86.9a24.7,24.7,0,0,0,17.48-42.17c-9.34-9.34-25.63-9.34-34.95,0A24.7,24.7,0,0,0,364.11,86.9Zm-7.9-32.6a11.18,11.18,0,1,1-3.27,7.9A11.1,11.1,0,0,1,356.21,54.3Z"/></svg>