<svg id="Layer_1" data-name="Layer 1" xmlns="http://www.w3.org/2000/svg" xmlns:xlink="http://www.w3.org/1999/xlink" viewBox="0 0 512 512"><defs><style>.cls-1{fill:url(#linear-gradient);}</style><linearGradient id="linear-gradient" x1="256.32" y1="527.3" x2="256.32" y2="47.19" gradientUnits="userSpaceOnUse"><stop offset="0" stop-color="#e00707"/><stop offset="1" stop-color="red"/></linearGradient></defs><title>Medical Care  ICONS</title><path class="cls-1" d="M387.41,341v34.15a6.59,6.59,0,0,1-6.58,6.58H352.09v28.74a6.59,6.59,0,0,1-6.58,6.58H311.36a6.59,6.59,0,0,1-6.58-6.58V381.71H275.47a6.58,6.58,0,0,1-6.58-6.58V341a6.58,6.58,0,0,1,6.58-6.58h29.31V305.09a6.58,6.58,0,0,1,6.58-6.58h34.15a6.58,6.58,0,0,1,6.58,6.58V334.4h28.74A6.59,6.59,0,0,1,387.41,341ZM498.29,143v83a42.9,42.9,0,0,1-.41,5.52c-1.27,4.16-2.29,6-8.23,7.3-1.21.25-5.26.39-5.26.39H470V474.91a18.44,18.44,0,0,1-18.42,18.42H61.05a18.44,18.44,0,0,1-18.42-18.42V239.23H27a43.12,43.12,0,0,1-4.42-.84,12.74,12.74,0,0,1-7.12-6.34c-1.09-2-1.09-6-1.09-6V143.22A18.6,18.6,0,0,1,15.9,136L60.44,27.34a18.33,18.33,0,0,1,17-11.43H435.16a18.33,18.33,0,0,1,17,11.43l44.62,108.9A17.9,17.9,0,0,1,498.29,143ZM425.75,31.69l43.52,111.7h13.24v-.17a2.71,2.71,0,0,0-.21-.8L437.6,33.32a2.63,2.63,0,0,0-2.43-1.63Zm-78.95,0L368,143.39h26.71L368.6,31.69Zm-101.35,0-4.91,111.7H272.1l-4.9-111.7ZM144,31.69,118,143.39h26.7l21.15-111.7ZM30.13,143.39H43.37L86.89,31.69H77.47A2.61,2.61,0,0,0,75,33.32S30.14,143,30.13,143.39ZM189.32,278.45c0-5.81-5.25-10.52-11.72-10.52h-76c-6.47,0-11.71,4.71-11.71,10.52V473.64h99.44Zm231.05,0a10.53,10.53,0,0,0-10.53-10.52H246.45a10.53,10.53,0,0,0-10.53,10.52V437.08a10.53,10.53,0,0,0,10.53,10.53h163.4a10.52,10.52,0,0,0,10.52-10.53V278.45Zm62.14-56.12v-53.7H30.07l-.13,53.65,30.36.08c6.48,0,11.72-4.72,11.72-10.53V187.21h32v24.62c0,5.81,5.24,10.53,11.72,10.53H172.5c6.47,0,11.72-4.72,11.72-10.53V187.21h32v24.62c0,5.81,5.25,10.53,11.72,10.53h56.75c6.47,0,11.72-4.72,11.72-10.53V187.21h32v24.62c0,5.81,5.25,10.53,11.72,10.53h56.75c6.47,0,11.72-4.72,11.72-10.53V187.21h32v24.62c0,5.81,5.24,10.53,11.71,10.53Z"/></svg>