<svg id="Layer_1" data-name="Layer 1" xmlns="http://www.w3.org/2000/svg" xmlns:xlink="http://www.w3.org/1999/xlink" viewBox="0 0 512 512"><defs><style>.cls-1{fill:url(#linear-gradient);}.cls-2{fill:url(#linear-gradient-2);}.cls-3{fill:url(#linear-gradient-3);}.cls-4{fill:url(#linear-gradient-4);}.cls-5{fill:url(#linear-gradient-5);}.cls-6{fill:url(#linear-gradient-6);}.cls-7{fill:url(#linear-gradient-7);}.cls-8{fill:url(#linear-gradient-8);}.cls-9{fill:url(#linear-gradient-9);}.cls-10{fill:url(#linear-gradient-10);}.cls-11{fill:url(#linear-gradient-11);}</style><linearGradient id="linear-gradient" x1="43.24" y1="498.7" x2="43.24" y2="184.14" gradientUnits="userSpaceOnUse"><stop offset="0" stop-color="#e00707"/><stop offset="1" stop-color="red"/></linearGradient><linearGradient id="linear-gradient-2" x1="227.19" y1="498.7" x2="227.19" y2="184.14" xlink:href="#linear-gradient"/><linearGradient id="linear-gradient-3" x1="407.74" y1="498.7" x2="407.74" y2="184.14" xlink:href="#linear-gradient"/><linearGradient id="linear-gradient-4" x1="397.52" y1="498.7" x2="397.52" y2="184.14" xlink:href="#linear-gradient"/><linearGradient id="linear-gradient-5" x1="319.64" y1="498.7" x2="319.64" y2="184.14" xlink:href="#linear-gradient"/><linearGradient id="linear-gradient-6" x1="264.67" y1="498.7" x2="264.67" y2="184.14" xlink:href="#linear-gradient"/><linearGradient id="linear-gradient-7" x1="360.05" y1="498.7" x2="360.05" y2="184.14" xlink:href="#linear-gradient"/><linearGradient id="linear-gradient-8" x1="298.73" y1="498.7" x2="298.73" y2="184.14" xlink:href="#linear-gradient"/><linearGradient id="linear-gradient-9" x1="283.59" y1="498.7" x2="283.59" y2="184.14" xlink:href="#linear-gradient"/><linearGradient id="linear-gradient-10" x1="377.08" y1="498.7" x2="377.08" y2="184.14" xlink:href="#linear-gradient"/><linearGradient id="linear-gradient-11" x1="336.21" y1="498.7" x2="336.21" y2="184.14" xlink:href="#linear-gradient"/></defs><title>Medical Care  ICONS</title><path class="cls-1" d="M43.24,436c-22.37,0-40.57-18.46-40.57-41.14s18.2-41.13,40.57-41.13S83.8,372.21,83.8,394.89,65.6,436,43.24,436Zm0-69.27c-15.2,0-27.57,12.62-27.57,28.13S28,423,43.24,423,70.8,410.41,70.8,394.89,58.44,366.76,43.24,366.76Z"/><path class="cls-2" d="M274.89,439.49H104.56c-13.85,0-26.94-13.26-26.94-27.28V377.57c0-17.08,12.61-27.28,33.75-27.28H198.2c-3.65-11.72-8.53-22.2-13.28-32.39-4.56-9.79-8.86-19-11.67-28.54-3.85-13.06-2.91-23.54,2.77-31.15,5.87-7.85,16.21-11.82,30.73-11.82H322.58a6.5,6.5,0,1,1,0,13H206.75c-10.2,0-17,2.22-20.31,6.61-3.11,4.14-3.35,10.77-.72,19.68,2.53,8.58,6.64,17.4,11,26.73,5.79,12.43,12.36,26.52,16.37,42.83a6.5,6.5,0,0,1-6.32,8.05H111.37c-20.75,0-20.75,10.75-20.75,14.28v34.64c0,6.81,7.29,14.28,13.94,14.28H274.89a12.3,12.3,0,0,0,10.59-5.66c3.69-5.93,2.7-15.36-2.8-26.53-14.94-29.95-60.53-102.59-61-103.32a6.5,6.5,0,0,1,4.88-9.93L369.65,267.2a6.5,6.5,0,0,1,1.25,12.94L238.26,293c12.79,20.56,43.85,71,56.07,95.55,10.21,20.75,5.75,33.45,2.18,39.17A25.21,25.21,0,0,1,274.89,439.49Z"/><path class="cls-3" d="M315.76,425.64a6.5,6.5,0,0,1-1.29-12.87l68.13-13.86a6.84,6.84,0,0,1,1.69-.12l115.82,6.93a6.5,6.5,0,0,1-.77,13l-115-6.88-67.3,13.69A6.44,6.44,0,0,1,315.76,425.64Z"/><path class="cls-4" d="M499.73,391l-.66,0-204.4-20.78A6.5,6.5,0,0,1,296,357.25L500.38,378a6.5,6.5,0,0,1-.65,13Z"/><path class="cls-5" d="M363.46,266.31a6.5,6.5,0,0,1-4.13-11.52c9.74-8,36-29.77,40.4-34.2,3.42-3.47,3.55-3.61-1.23-13.33-4.28-8.71-26.86-39.82-33-46.95-1-1.05-2-2.16-3-3.22-6.16-6.77-10-10.51-18-8.7-14.19,3.21-81.92,29.35-92.18,39.78-3.47,3.9-10.66,30.14-15.31,52.2a6.5,6.5,0,0,1-12.72-2.68c3.19-15.14,11.41-51.16,18.76-58.63,13.68-13.92,85.73-40.45,98.59-43.35,15.76-3.57,24.28,5.79,30.5,12.62,1,1.08,1.91,2.09,2.82,3a3.58,3.58,0,0,1,.26.29c5.85,6.71,29.86,39.43,35,49.89,4.75,9.65,8.85,18-1.2,28.2-5.8,5.83-39.93,33.91-41.38,35.1A6.45,6.45,0,0,1,363.46,266.31Z"/><path class="cls-6" d="M274.89,245.53a6.49,6.49,0,0,1-6.05-4.12l-5.49-13.95-2.53,12.83a6.5,6.5,0,0,1-12.75-2.51l6.81-34.64A6.5,6.5,0,0,1,267.31,202l13.63,34.64a6.51,6.51,0,0,1-3.67,8.43A6.44,6.44,0,0,1,274.89,245.53Z"/><path class="cls-7" d="M336.21,259.39A6.51,6.51,0,0,1,331.94,248l27.25-23.75a6.49,6.49,0,0,1-9-6V183.61a6.49,6.49,0,0,1,11.13-4.55l27.25,27.7a6.51,6.51,0,0,1-.36,9.46l-47.69,41.57A6.52,6.52,0,0,1,336.21,259.39Zm26.94-59.9v18.76a6.45,6.45,0,0,1-.93,3.34L374.42,211Z"/><path class="cls-8" d="M298.73,152c-22.36,0-40.56-18.45-40.56-41.13s18.2-41.14,40.56-41.14S339.3,88.2,339.3,110.88,321.1,152,298.73,152Zm0-69.27c-15.2,0-27.56,12.62-27.56,28.14S283.53,139,298.73,139s27.57-12.62,27.57-28.13S313.93,82.74,298.73,82.74Z"/><path class="cls-9" d="M283.59,356.37a6.5,6.5,0,0,1-6.5-6.5V294.45a6.5,6.5,0,0,1,13,0v55.42A6.5,6.5,0,0,1,283.59,356.37Z"/><path class="cls-10" d="M383.9,363.29a6.5,6.5,0,0,1-6.5-6.5V330.12l-13.3-40.57a6.5,6.5,0,1,1,12.35-4.05l13.62,41.56a6.33,6.33,0,0,1,.33,2v27.71A6.5,6.5,0,0,1,383.9,363.29Z"/><path class="cls-11" d="M329.4,360.34a6.52,6.52,0,0,1-6.36-7.87l6.81-31.68a6.5,6.5,0,0,1,6.35-5.13h0a6.5,6.5,0,0,1,6.35,5.11l6.81,31.17a6.5,6.5,0,0,1-12.7,2.78l-.41-1.89-.51,2.38A6.51,6.51,0,0,1,329.4,360.34Z"/></svg>