<svg id="Layer_1" data-name="Layer 1" xmlns="http://www.w3.org/2000/svg" xmlns:xlink="http://www.w3.org/1999/xlink" viewBox="0 0 512 512"><defs><style>.cls-1{fill:url(#linear-gradient);}.cls-2{fill:url(#linear-gradient-2);}.cls-3{fill:url(#linear-gradient-3);}.cls-4{fill:url(#linear-gradient-4);}</style><linearGradient id="linear-gradient" x1="254.62" y1="567.13" x2="254.62" y2="32.27" gradientUnits="userSpaceOnUse"><stop offset="0" stop-color="#671b3c"/><stop offset="1" stop-color="#75234a"/></linearGradient><linearGradient id="linear-gradient-2" x1="254.62" y1="567.13" x2="254.62" y2="32.27" xlink:href="#linear-gradient"/><linearGradient id="linear-gradient-3" x1="254.62" y1="567.13" x2="254.62" y2="32.27" xlink:href="#linear-gradient"/><linearGradient id="linear-gradient-4" x1="162.56" y1="567.13" x2="162.56" y2="32.27" xlink:href="#linear-gradient"/></defs><title>Events  ICONS</title><path class="cls-1" d="M64.85,187.92a38,38,0,0,0,38-38,37.93,37.93,0,1,0,75.85,0,38,38,0,1,0,75.92,0,38,38,0,1,0,75.92,0,37.92,37.92,0,1,0,75.84,0,38,38,0,1,0,75.92,0v-24H26.93v24A38,38,0,0,0,64.85,187.92Z"/><path class="cls-2" d="M472.28,110.37,434.2,51.15h3.65a12.55,12.55,0,1,0,0-25.1H71.3a12.55,12.55,0,0,0,0,25.1H75L37,110.37Z"/><path class="cls-3" d="M487.35,454.77H471V196.31a52.07,52.07,0,0,1-26.58,7.15,53.39,53.39,0,0,1-38-15.85,53.29,53.29,0,0,1-75.84,0,53.38,53.38,0,0,1-75.92,0,53.38,53.38,0,0,1-75.92,0,53.3,53.3,0,0,1-75.85,0,53.35,53.35,0,0,1-38,15.85,52.76,52.76,0,0,1-26.5-7.07V454.77H21.8a15.93,15.93,0,0,0,0,31.86H487.35a15.93,15.93,0,0,0,0-31.86Zm-299.48,0H65.71V285.37a18.94,18.94,0,0,1,19-19H168.9a18.94,18.94,0,0,1,19,19Zm254.18-42.51a19.43,19.43,0,0,1-19.43,19.43H368V405.38h13.21a8.3,8.3,0,0,0,8.29-8.3V379.32a21.73,21.73,0,0,0-1.79-8.63l-5.43-12.51a21.61,21.61,0,0,1-1-14.29l6.87-25.39a5.22,5.22,0,0,0-3.79-6.43l-16.32-4v-6.2a17.15,17.15,0,0,0,10.4-15.67,17.26,17.26,0,1,0-24.12,15.72v6.15l-16.34,4a5.21,5.21,0,0,0-3.79,6.4L340.91,344c2.41,9.06-1.41,15-6.41,26.74a21.62,21.62,0,0,0-1.74,8.5v17.83a8.3,8.3,0,0,0,8.29,8.3h13.21v26.31H285.45v-23.1h11.32a7.1,7.1,0,0,0,7.1-7.11V386.27a18.64,18.64,0,0,0-1.53-7.4l-4.66-10.72a18.6,18.6,0,0,1-.89-12.24l5.89-21.76a4.47,4.47,0,0,0-3.25-5.5l-14-3.43v-5.31a14.7,14.7,0,0,0,8.91-13.43A14.79,14.79,0,1,0,273.69,320v5.26l-14,3.44a4.45,4.45,0,0,0-3.25,5.48L262.26,356c1.88,7.08,0,9.94-5.49,22.91a18.41,18.41,0,0,0-1.49,7.28v15.28a7.1,7.1,0,0,0,7.1,7.11h11.31v23.1H232a19.43,19.43,0,0,1-19.42-19.43V253.51A19.43,19.43,0,0,1,232,234.08H422.62a19.43,19.43,0,0,1,19.43,19.43Z"/><path class="cls-4" d="M162.53,363.84a7.4,7.4,0,1,0,7.45,7.39A7.4,7.4,0,0,0,162.53,363.84Z"/></svg>