<svg id="Layer_1" data-name="Layer 1" xmlns="http://www.w3.org/2000/svg" xmlns:xlink="http://www.w3.org/1999/xlink" viewBox="0 0 512 512"><defs><style>.cls-1{fill:url(#linear-gradient);}</style><linearGradient id="linear-gradient" x1="254.62" y1="554.87" x2="254.62" y2="38.73" gradientUnits="userSpaceOnUse"><stop offset="0" stop-color="#671b3c"/><stop offset="1" stop-color="#75234a"/></linearGradient></defs><title>Events  ICONS</title><path class="cls-1" d="M277.37,415.78h68.15a9.1,9.1,0,0,1,9.36,9.37v73.54H206.18V425.15a9.1,9.1,0,0,1,9.36-9.37ZM445.18,180.34s2.89,5.26,2.89,27.57c-23.68,36.94-113.76,58.9-193.46,58.9s-169.78-22-193.46-58.91c0-22.31,2.9-27.57,2.9-27.57-9.37,2.6-25.4,11.72-25.4,29.22,0,26.71,63.83,83.57,216,83.57s216-56.86,216-83.57C470.57,192.05,454.55,182.93,445.18,180.34ZM304.09,311c-24.74,20-51.06,17.9-67.37,7.89-3.86-2.36-12.52-7.71-23.62-14.63-37.68-2.76-67.67-9.09-91-16.42,23.45,18.34,49.84,39.29,62,50,22.13,19.5,43.69,49.48,44.74,62.12H331.48c0-9.47,6.84-46.86,16.31-60,7-9.7,24.24-33.38,38.11-51.71-19.32,6-43.1,11.25-71.94,14.41C310.65,305.54,307.35,308.34,304.09,311ZM286.51,47.69a34.92,34.92,0,0,1-63.8,0C120.2,64.07,78.26,157.52,78.26,197.32,99.85,231,182,251,254.61,251S409.38,231,431,197.32C431,157.52,389,64.07,286.51,47.69ZM254.61,14a19.47,19.47,0,1,0,19.47,19.48A19.48,19.48,0,0,0,254.61,14Z"/></svg>