<svg id="Layer_1" data-name="Layer 1" xmlns="http://www.w3.org/2000/svg" xmlns:xlink="http://www.w3.org/1999/xlink" viewBox="0 0 512 512"><defs><style>.cls-1{fill:url(#linear-gradient);}.cls-2{fill:url(#linear-gradient-2);}.cls-3{fill:url(#linear-gradient-3);}.cls-4{fill:url(#linear-gradient-4);}.cls-5{fill:url(#linear-gradient-5);}.cls-6{fill:url(#linear-gradient-6);}.cls-7{fill:url(#linear-gradient-7);}.cls-8{fill:url(#linear-gradient-8);}.cls-9{fill:url(#linear-gradient-9);}.cls-10{fill:url(#linear-gradient-10);}.cls-11{fill:url(#linear-gradient-11);}</style><linearGradient id="linear-gradient" x1="267.49" y1="481.34" x2="267.49" y2="30.7" gradientUnits="userSpaceOnUse"><stop offset="0" stop-color="#671b3c"/><stop offset="1" stop-color="#75234a"/></linearGradient><linearGradient id="linear-gradient-2" x1="244.72" y1="481.34" x2="244.72" y2="30.7" xlink:href="#linear-gradient"/><linearGradient id="linear-gradient-3" x1="452.65" y1="481.34" x2="452.65" y2="30.7" xlink:href="#linear-gradient"/><linearGradient id="linear-gradient-4" x1="248.89" y1="481.34" x2="248.89" y2="30.7" xlink:href="#linear-gradient"/><linearGradient id="linear-gradient-5" x1="45.91" y1="481.34" x2="45.91" y2="30.7" xlink:href="#linear-gradient"/><linearGradient id="linear-gradient-6" x1="95.98" y1="481.34" x2="95.98" y2="30.7" xlink:href="#linear-gradient"/><linearGradient id="linear-gradient-7" x1="196.67" y1="481.34" x2="196.67" y2="30.7" xlink:href="#linear-gradient"/><linearGradient id="linear-gradient-8" x1="396.95" y1="481.34" x2="396.95" y2="30.7" xlink:href="#linear-gradient"/><linearGradient id="linear-gradient-9" x1="290.52" y1="481.34" x2="290.52" y2="30.7" xlink:href="#linear-gradient"/><linearGradient id="linear-gradient-10" x1="349.31" y1="481.34" x2="349.31" y2="30.7" xlink:href="#linear-gradient"/><linearGradient id="linear-gradient-11" x1="154.86" y1="481.34" x2="154.86" y2="30.7" xlink:href="#linear-gradient"/></defs><title>Events  ICONS</title><path class="cls-1" d="M499.19,81.05a8,8,0,0,0-11.29-.73C379.54,175.64,265,196,188,196.38h-2c-82.55,0-140.45-22.15-141.23-22.46a8,8,0,0,0-5.84,14.9,267.39,267.39,0,0,0,26.37,8.26l30.44,80.18a8,8,0,0,0,14,1.78l43.42-61.44,42.31,66.08a8,8,0,0,0,6.73,3.69h.32a8,8,0,0,0,6.74-4.22l36.49-68.25,48.36,56.79a8,8,0,0,0,13.74-2.83l22.57-73.18,63.09,45.62a8,8,0,0,0,12.67-6l4.67-73.91L478,191.64a8,8,0,0,0,11.28-7.55l-2.6-81.71q5.94-4.92,11.77-10A8,8,0,0,0,499.19,81.05ZM105.31,257.52l-21.22-55.9a472.94,472.94,0,0,0,54.72,8.49Zm96.23,6-33-51.49c5.65.2,11.42.31,17.34.31h1.42q21.49-.06,42.67-2Zm95.27-13.34-37.13-43.6a459.2,459.2,0,0,0,54.27-12Zm94.28-30.4-47.85-34.6A458.14,458.14,0,0,0,394.68,163Zm81.8-48-51.7-23.27a494.74,494.74,0,0,0,49.89-33.68Z"/><path class="cls-2" d="M470.21,277c-134.68,58.29-249.63,49.53-322.36,31.91C69.09,289.81,21.4,256.52,20.69,256a8,8,0,0,0-9.27,13A240.23,240.23,0,0,0,34.34,282.9l6.43,77.31a8,8,0,0,0,12.39,6L118,323.26l19,71a8,8,0,0,0,14,2.93l45.78-57,41.13,68.05a8,8,0,0,0,6.85,3.86H245a8,8,0,0,0,6.85-4.25l33.9-63.95,51.89,61.4a8,8,0,0,0,13.6-2.35l27.21-72.46,57.11,49a8,8,0,0,0,13.07-4.56l15-77.82q6.48-2.64,12.94-5.43A8,8,0,1,0,470.21,277ZM51.11,291.49a456.39,456.39,0,0,0,53.32,21.56L55.6,345.41Zm97.27,83.4-14.18-53c3,.8,6.05,1.57,9.15,2.33q19.5,4.75,39.33,7.89Zm95.9,13L212.92,336q23.54,2.25,47.31,2.27c3.47,0,6.94-.05,10.42-.12ZM341,384.54l-40.48-47.91a519.11,519.11,0,0,0,61.76-8.76Zm94.48-26.18L391.92,321Q419,313.9,446,303.92Z"/><path class="cls-3" d="M434.74,242.69A8,8,0,0,0,446.05,254l6.32-6.31.13.15L459,254.3A8,8,0,1,0,470.27,243L464,236.68c0-.05.09-.08.13-.13l6.46-6.46a8,8,0,0,0-11.31-11.31l-6.31,6.31-.12-.14-6.46-6.46A8,8,0,0,0,435,229.81l6.31,6.3-.15.13Z"/><path class="cls-4" d="M231,294.51a8,8,0,1,0,11.32,11.31l6.32-6.32.13.15,6.46,6.46a8,8,0,1,0,11.31-11.32l-6.31-6.3.13-.12,6.45-6.45a8,8,0,1,0-11.31-11.32l-6.29,6.3-.13-.15-6.46-6.45a8,8,0,0,0-11.31,11.31l6.3,6.3-.15.14Z"/><path class="cls-5" d="M29.3,251.5a8.38,8.38,0,0,0,2.09-.27L40,248.91a1.06,1.06,0,0,1,0,.19l2.37,8.82a8,8,0,0,0,7.72,5.93,8.25,8.25,0,0,0,2.08-.27,8,8,0,0,0,5.66-9.8l-2.31-8.61.19,0,8.83-2.36a8,8,0,0,0-4.15-15.46l-8.62,2.32a1.62,1.62,0,0,1,0-.19l-2.36-8.82A8,8,0,1,0,34,224.75l2.3,8.61-.2,0-8.82,2.38A8,8,0,0,0,29.3,251.5Z"/><path class="cls-6" d="M110.49,369.94l-8.62,2.31c0-.06,0-.13,0-.19l-2.37-8.82A8,8,0,1,0,84,367.38L86.32,376l-.17,0-8.83,2.37a8,8,0,0,0,2.07,15.73,7.89,7.89,0,0,0,2.08-.28l8.59-2.3c0,.06,0,.12,0,.18l2.37,8.82a8,8,0,0,0,7.72,5.93,7.83,7.83,0,0,0,2.08-.28,8,8,0,0,0,5.65-9.8l-2.31-8.6.2,0,8.83-2.37a8,8,0,0,0-4.15-15.45Z"/><path class="cls-7" d="M211.19,395l-8.6,2.29a1.29,1.29,0,0,0,0-.19l-2.36-8.81a8,8,0,1,0-15.46,4.14l2.32,8.62-.2,0L178,403.42a8,8,0,0,0,2.05,15.73,7.74,7.74,0,0,0,2.07-.27l8.64-2.3a1.16,1.16,0,0,0,0,.18l2.36,8.83a8,8,0,0,0,7.72,5.93,8.31,8.31,0,0,0,2.08-.27,8,8,0,0,0,5.66-9.8l-2.31-8.63.16,0,8.82-2.35A8,8,0,1,0,211.19,395Z"/><path class="cls-8" d="M411.47,389.74,402.86,392a1.62,1.62,0,0,0,0-.19L400.46,383A8,8,0,0,0,385,387.18l2.32,8.61-.2,0-8.82,2.36a8,8,0,0,0,2.06,15.73,8.23,8.23,0,0,0,2.07-.27l8.63-2.31a1.29,1.29,0,0,0,0,.19l2.37,8.82a8,8,0,0,0,7.72,5.93,7.83,7.83,0,0,0,2.08-.28,8,8,0,0,0,5.65-9.8l-2.32-8.62.17,0,8.82-2.35a8,8,0,1,0-4.12-15.46Z"/><path class="cls-9" d="M305,397.81l-8.62,2.32a1.29,1.29,0,0,1,0-.19L294,391.12a8,8,0,1,0-15.45,4.14l2.3,8.61-.21,0-8.78,2.37A8,8,0,0,0,273.93,422a8.38,8.38,0,0,0,2.09-.27l8.58-2.31c0,.07,0,.14,0,.21l2.37,8.8a8,8,0,0,0,7.72,5.93,7.83,7.83,0,0,0,2.08-.28,8,8,0,0,0,5.65-9.8l-2.31-8.6.2,0,8.83-2.37A8,8,0,0,0,305,397.81Z"/><path class="cls-10" d="M330.66,257.82a8,8,0,0,0,2,15.73,8.17,8.17,0,0,0,2.07-.27l8.62-2.3a1.16,1.16,0,0,0,0,.18L345.8,280a8,8,0,0,0,7.72,5.93,8.17,8.17,0,0,0,2.07-.27,8,8,0,0,0,5.66-9.8l-2.3-8.61.19,0,8.83-2.37a8,8,0,0,0-4.14-15.45l-8.64,2.31,0-.18-2.37-8.83a8,8,0,1,0-15.45,4.14l2.31,8.62-.16,0Z"/><path class="cls-11" d="M136.2,269.47a8,8,0,0,0,2.07,15.73,8.25,8.25,0,0,0,2.08-.27l8.63-2.32,0,.16,2.33,8.82a8,8,0,1,0,15.47-4.09l-2.28-8.63.17,0,8.82-2.37A8,8,0,1,0,169.37,261l-8.62,2.31,0-.16-2.33-8.82a8,8,0,0,0-15.47,4.09l2.28,8.63-.18,0Z"/></svg>