<svg id="Layer_1" data-name="Layer 1" xmlns="http://www.w3.org/2000/svg" xmlns:xlink="http://www.w3.org/1999/xlink" viewBox="0 0 512 512"><defs><style>.cls-1{fill:url(#linear-gradient);}.cls-2{fill:url(#linear-gradient-2);}.cls-3{fill:url(#linear-gradient-4);}.cls-4{fill:url(#linear-gradient-5);}.cls-5{fill:url(#linear-gradient-6);}.cls-6{fill:url(#linear-gradient-8);}.cls-7{fill:url(#linear-gradient-9);}.cls-8{fill:url(#linear-gradient-10);}.cls-9{fill:url(#linear-gradient-11);}.cls-10{fill:url(#linear-gradient-14);}.cls-11{fill:url(#linear-gradient-16);}.cls-12{fill:url(#linear-gradient-18);}</style><linearGradient id="linear-gradient" x1="244.61" y1="530.36" x2="244.61" y2="54.48" gradientUnits="userSpaceOnUse"><stop offset="0" stop-color="#671b3c"/><stop offset="1" stop-color="#75234a"/></linearGradient><linearGradient id="linear-gradient-2" x1="150.89" y1="530.36" x2="150.89" y2="54.48" xlink:href="#linear-gradient"/><linearGradient id="linear-gradient-4" x1="291.46" y1="530.36" x2="291.46" y2="54.48" xlink:href="#linear-gradient"/><linearGradient id="linear-gradient-5" x1="137.05" y1="530.36" x2="137.05" y2="54.48" xlink:href="#linear-gradient"/><linearGradient id="linear-gradient-6" x1="137.04" y1="530.36" x2="137.04" y2="54.48" xlink:href="#linear-gradient"/><linearGradient id="linear-gradient-8" x1="188.91" y1="530.36" x2="188.91" y2="54.48" xlink:href="#linear-gradient"/><linearGradient id="linear-gradient-9" x1="85.17" y1="530.36" x2="85.17" y2="54.48" xlink:href="#linear-gradient"/><linearGradient id="linear-gradient-10" x1="173.72" y1="530.36" x2="173.72" y2="54.48" xlink:href="#linear-gradient"/><linearGradient id="linear-gradient-11" x1="100.36" y1="530.36" x2="100.36" y2="54.48" xlink:href="#linear-gradient"/><linearGradient id="linear-gradient-14" x1="143.63" y1="530.36" x2="143.63" y2="54.48" xlink:href="#linear-gradient"/><linearGradient id="linear-gradient-16" x1="338.34" y1="530.36" x2="338.34" y2="54.48" xlink:href="#linear-gradient"/><linearGradient id="linear-gradient-18" x1="432.07" y1="530.36" x2="432.07" y2="54.48" xlink:href="#linear-gradient"/></defs><title>Events  ICONS</title><rect class="cls-1" x="222.33" y="111.03" width="44.58" height="44.5"/><rect class="cls-2" x="128.59" y="194.72" width="44.59" height="44.5"/><rect class="cls-1" x="222.33" y="194.72" width="44.58" height="44.5"/><path class="cls-3" d="M492.17,73.18v-39a3.75,3.75,0,0,0-3.78-3.78H459.64V14.25a3.75,3.75,0,0,0-3.79-3.78,3.79,3.79,0,0,0-3.78,3.78V30.44h-29V14.25a3.75,3.75,0,0,0-3.79-3.78,3.79,3.79,0,0,0-3.78,3.78V30.44h-29V14.25a3.75,3.75,0,0,0-3.79-3.78A3.79,3.79,0,0,0,379,14.25V30.44h-28.9V14.25a3.79,3.79,0,0,0-3.78-3.78,3.74,3.74,0,0,0-3.78,3.78V30.44h-29V14.25a3.79,3.79,0,0,0-3.78-3.78A3.74,3.74,0,0,0,306,14.25V30.44H277V14.25a3.79,3.79,0,0,0-3.78-3.78,3.74,3.74,0,0,0-3.78,3.78V30.44h-29V14.25a3.79,3.79,0,0,0-7.57,0V30.44h-29V14.25a3.79,3.79,0,0,0-7.57,0V30.44h-29V14.25a3.75,3.75,0,0,0-3.78-3.78,3.79,3.79,0,0,0-3.79,3.78V30.44h-29V14.25a3.75,3.75,0,0,0-3.78-3.78,3.79,3.79,0,0,0-3.79,3.78V30.44H94.54a3.8,3.8,0,0,0-3.79,3.78v39Z"/><path class="cls-4" d="M253.26,354.31H228.14A93.2,93.2,0,0,0,221.78,337l17-17.1a3.73,3.73,0,0,0,.07-5.3l-34-34.27a3.87,3.87,0,0,0-2.73-1.13,3.56,3.56,0,0,0-2.64,1.13l-16,16a98.07,98.07,0,0,0-18.61-8.1V266.1a3.75,3.75,0,0,0-3.79-3.78H112.84a3.74,3.74,0,0,0-3.78,3.78v22.17A87,87,0,0,0,93,295.08a20,20,0,0,0-2.35,1.21l-16-16a3.67,3.67,0,0,0-5.3,0l-34.19,34.2a3.73,3.73,0,0,0,0,5.37l17.1,17.17a93.72,93.72,0,0,0-6.44,17.25h-25a3.75,3.75,0,0,0-3.78,3.79v48.34a3.79,3.79,0,0,0,3.78,3.78H48.16a97.31,97.31,0,0,0,6.73,14.53l-19.74,20a3.64,3.64,0,0,0,0,5.29l34.19,34.12A3.55,3.55,0,0,0,72,485.27a3.87,3.87,0,0,0,2.65-1.14l21-21a93,93,0,0,0,13.47,5.3v30a3.74,3.74,0,0,0,3.78,3.78H161a3.75,3.75,0,0,0,3.79-3.78v-30a96.62,96.62,0,0,0,13.54-5.37l21.11,21a3.64,3.64,0,0,0,5.29,0L238.81,450a3.72,3.72,0,0,0,.07-5.29l-19.74-20a104.31,104.31,0,0,0,6.65-14.53h27.47a3.8,3.8,0,0,0,3.78-3.78V358.1A3.75,3.75,0,0,0,253.26,354.31ZM137.13,449.86a69.34,69.34,0,1,1,69.14-69.45A69.39,69.39,0,0,1,137.13,449.86Z"/><path class="cls-5" d="M137,336.18a3.78,3.78,0,0,0,3.78-3.78v-7.46a3.78,3.78,0,0,0-7.56,0v7.46A3.78,3.78,0,0,0,137,336.18Z"/><path class="cls-5" d="M137,424.9a3.78,3.78,0,0,0-3.78,3.78v7.45a3.78,3.78,0,1,0,7.56,0v-7.45A3.78,3.78,0,0,0,137,424.9Z"/><path class="cls-6" d="M181.4,380.54a3.78,3.78,0,0,0,3.78,3.78h7.45a3.78,3.78,0,1,0,0-7.56h-7.45A3.78,3.78,0,0,0,181.4,380.54Z"/><path class="cls-7" d="M88.9,376.76H81.44a3.78,3.78,0,0,0,0,7.56H88.9a3.78,3.78,0,0,0,0-7.56Z"/><path class="cls-8" d="M173.68,338.55l-5.27,5.27a3.78,3.78,0,1,0,5.35,5.35L179,343.9a3.78,3.78,0,0,0-5.34-5.35Z"/><path class="cls-9" d="M100.32,411.91l-5.27,5.27a3.78,3.78,0,1,0,5.35,5.34l5.27-5.26a3.78,3.78,0,0,0-5.35-5.35Z"/><path class="cls-8" d="M173.76,411.91a3.78,3.78,0,0,0-5.35,5.35l5.27,5.26a3.78,3.78,0,1,0,5.34-5.34Z"/><path class="cls-9" d="M100.4,338.55a3.78,3.78,0,0,0-5.35,5.35l5.27,5.27a3.78,3.78,0,1,0,5.35-5.35Z"/><path class="cls-10" d="M157.78,353.4l-14.3,14.38a12.82,12.82,0,0,0-6.73-1.82,13.85,13.85,0,1,0,13.84,13.85,12.59,12.59,0,0,0-1.81-6.66l14.37-14.37a3.74,3.74,0,0,0,0-5.38A3.9,3.9,0,0,0,157.78,353.4Z"/><path class="cls-3" d="M90.75,80.75v205L92,287a98,98,0,0,1,9.46-4.08V266.1a11.33,11.33,0,0,1,11.34-11.35H161a11.34,11.34,0,0,1,11.35,11.35v16.72c3.33,1.29,6.58,2.65,9.69,4.16l12-12a10.9,10.9,0,0,1,8-3.33,11.66,11.66,0,0,1,8.1,3.33l34,34.27a11.16,11.16,0,0,1,3.26,8.1,10.94,10.94,0,0,1-3.48,8l-13.17,13.31c1.06,2.65,2,5.3,2.95,8.1h19.45A11.33,11.33,0,0,1,264.6,358.1v2.64H488.39a3.8,3.8,0,0,0,3.78-3.78V80.75Zm90,162.28a3.84,3.84,0,0,1-3.78,3.78H124.8A3.84,3.84,0,0,1,121,243V191a3.8,3.8,0,0,1,3.79-3.79H177a3.8,3.8,0,0,1,3.78,3.79Zm0-83.75a3.79,3.79,0,0,1-3.78,3.78H124.8a3.79,3.79,0,0,1-3.79-3.78v-52a3.84,3.84,0,0,1,3.79-3.78H177a3.84,3.84,0,0,1,3.78,3.78ZM274.44,243a3.8,3.8,0,0,1-3.78,3.78H218.53a3.84,3.84,0,0,1-3.78-3.78V191a3.8,3.8,0,0,1,3.78-3.79h52.13a3.75,3.75,0,0,1,3.78,3.79Zm0-83.75a3.75,3.75,0,0,1-3.78,3.78H218.53a3.79,3.79,0,0,1-3.78-3.78v-52a3.84,3.84,0,0,1,3.78-3.78h52.13a3.8,3.8,0,0,1,3.78,3.78ZM368.17,326.7a3.74,3.74,0,0,1-3.78,3.78H312.26a3.75,3.75,0,0,1-3.78-3.78V274.65a3.75,3.75,0,0,1,3.78-3.78h52.13a3.74,3.74,0,0,1,3.78,3.78Zm0-83.67a3.79,3.79,0,0,1-3.78,3.78H312.26a3.8,3.8,0,0,1-3.78-3.78V191a3.75,3.75,0,0,1,3.78-3.79h52.13a3.75,3.75,0,0,1,3.78,3.79Zm93.74,83.67a3.75,3.75,0,0,1-3.79,3.78H406a3.74,3.74,0,0,1-3.78-3.78V274.65a3.74,3.74,0,0,1,3.78-3.78h52.12a3.75,3.75,0,0,1,3.79,3.78Zm0-83.67a3.8,3.8,0,0,1-3.79,3.78H406a3.79,3.79,0,0,1-3.78-3.78V191a3.75,3.75,0,0,1,3.78-3.79h52.12a3.76,3.76,0,0,1,3.79,3.79Z"/><rect class="cls-11" x="316.05" y="278.41" width="44.58" height="44.51"/><rect class="cls-2" x="128.59" y="111.03" width="44.59" height="44.5"/><rect class="cls-12" x="409.78" y="278.41" width="44.58" height="44.51"/><rect class="cls-12" x="409.78" y="194.72" width="44.58" height="44.5"/><rect class="cls-11" x="316.05" y="194.72" width="44.58" height="44.5"/></svg>