<svg id="Layer_1" data-name="Layer 1" xmlns="http://www.w3.org/2000/svg" xmlns:xlink="http://www.w3.org/1999/xlink" viewBox="0 0 512 512"><defs><style>.cls-1{fill:url(#linear-gradient);}.cls-2{fill:url(#linear-gradient-2);}.cls-3{fill:url(#linear-gradient-3);}.cls-4{fill:url(#linear-gradient-4);}.cls-5{fill:url(#linear-gradient-5);}.cls-6{fill:url(#linear-gradient-7);}</style><linearGradient id="linear-gradient" x1="161.9" y1="487.47" x2="161.9" y2="113.15" gradientUnits="userSpaceOnUse"><stop offset="0" stop-color="#671b3c"/><stop offset="1" stop-color="#75234a"/></linearGradient><linearGradient id="linear-gradient-2" x1="161.9" y1="487.47" x2="161.9" y2="113.15" xlink:href="#linear-gradient"/><linearGradient id="linear-gradient-3" x1="40.36" y1="487.47" x2="40.36" y2="113.15" xlink:href="#linear-gradient"/><linearGradient id="linear-gradient-4" x1="283.41" y1="487.47" x2="283.41" y2="113.15" xlink:href="#linear-gradient"/><linearGradient id="linear-gradient-5" x1="161.87" y1="487.47" x2="161.87" y2="113.15" xlink:href="#linear-gradient"/><linearGradient id="linear-gradient-7" x1="412.32" y1="487.47" x2="412.32" y2="113.15" xlink:href="#linear-gradient"/></defs><title>Events  ICONS</title><path class="cls-1" d="M181.63,256.08A99.67,99.67,0,0,0,229,193.7a40.43,40.43,0,0,0,1.2-8.69,223,223,0,0,0-2.73-41,36.28,36.28,0,0,0-34.95-27,7.3,7.3,0,0,0-5.65,2.63,100.31,100.31,0,0,1-92,34.81A222.83,222.83,0,0,0,93.56,185a39.82,39.82,0,0,0,1.21,8.69,99.62,99.62,0,0,0,47.38,62.39,40,40,0,0,0,39.52,0Z"/><path class="cls-2" d="M138.6,262.28a47.12,47.12,0,0,0,46.58,0q4-2.31,7.87-4.94A36.21,36.21,0,0,0,216,289.69l10.16,4a58.22,58.22,0,0,1-52.27,32.56H149.93a58.21,58.21,0,0,1-52.25-32.56l10.14-4a36.23,36.23,0,0,0,22.93-32.35q3.83,2.63,7.87,4.94Z"/><path class="cls-3" d="M68.9,448.76H19.13a7.32,7.32,0,0,1-7.32-7.32h0V354.7a40,40,0,0,1,25.34-37.19L68.92,305Z"/><path class="cls-4" d="M254.86,305V448.76h49.77a7.32,7.32,0,0,0,7.32-7.32h0V354.7a40,40,0,0,0-25.34-37.19Z"/><path class="cls-5" d="M247.71,448.76H76V389.54H247.71Z"/><path class="cls-5" d="M91,296.3l-15,5.9v80.22H247.71V302.2l-15-5.9a65.34,65.34,0,0,1-58.92,37.07H149.91A65.35,65.35,0,0,1,91,296.3Z"/><path class="cls-6" d="M445.06,301.53a20.26,20.26,0,0,0,27.57-20,60.49,60.49,0,0,0-19-40.6,60.4,60.4,0,0,0,39.24-21.66,20.25,20.25,0,0,0-10.53-32.42,60.42,60.42,0,0,0-44.47,5.55,60.5,60.5,0,0,0-8.49-44,20.26,20.26,0,0,0-34.08,0,60.45,60.45,0,0,0-8.48,44,60.42,60.42,0,0,0-44.47-5.55,20.26,20.26,0,0,0-10.53,32.42A60.42,60.42,0,0,0,371,240.89a60.43,60.43,0,0,0-19,40.6,20.25,20.25,0,0,0,27.57,20,60.49,60.49,0,0,0,29.18-24.11v69.33H363.1a16.33,16.33,0,0,0,0,32.66h2.74l9.71,60.66a10.32,10.32,0,0,0,10.18,8.69h53.21a10.32,10.32,0,0,0,10.18-8.69l9.71-60.66h2.73a16.33,16.33,0,0,0,0-32.66H415.91V277.42a60.4,60.4,0,0,0,29.18,24.11Z"/><path class="cls-5" d="M255.16,126A101.12,101.12,0,0,0,68.6,126,197.4,197.4,0,0,0,53.4,207.9a40,40,0,0,0,37.52,38.74,198.75,198.75,0,0,0,26.51-.14A106.68,106.68,0,0,1,87.8,195.45a47.88,47.88,0,0,1-1.38-10.24,230.7,230.7,0,0,1,1.35-31.54,7.13,7.13,0,0,1,7.87-6.3l.28,0a93.14,93.14,0,0,0,85.5-32.33,14.42,14.42,0,0,1,11.15-5.18,43.39,43.39,0,0,1,41.9,32.7,231.11,231.11,0,0,1,2.87,42.61,46.62,46.62,0,0,1-1.42,10.24,106.73,106.73,0,0,1-29.61,51.05,198.45,198.45,0,0,0,26.49.14,40,40,0,0,0,37.54-38.74,197.2,197.2,0,0,0-15.2-81.85Z"/></svg>