<svg id="Layer_1" data-name="Layer 1" xmlns="http://www.w3.org/2000/svg" xmlns:xlink="http://www.w3.org/1999/xlink" viewBox="0 0 512 512"><defs><style>.cls-1{fill:url(#linear-gradient);}.cls-2{fill:url(#linear-gradient-2);}.cls-3{fill:url(#linear-gradient-3);}.cls-4{fill:url(#linear-gradient-4);}</style><linearGradient id="linear-gradient" x1="295.21" y1="481.34" x2="295.21" y2="30.7" gradientUnits="userSpaceOnUse"><stop offset="0" stop-color="#671b3c"/><stop offset="1" stop-color="#75234a"/></linearGradient><linearGradient id="linear-gradient-2" x1="287.09" y1="481.34" x2="287.09" y2="30.7" xlink:href="#linear-gradient"/><linearGradient id="linear-gradient-3" x1="254.62" y1="481.34" x2="254.62" y2="30.7" xlink:href="#linear-gradient"/><linearGradient id="linear-gradient-4" x1="433.24" y1="481.34" x2="433.24" y2="30.7" xlink:href="#linear-gradient"/></defs><title>Events  ICONS</title><path class="cls-1" d="M279,232h32.48a8.12,8.12,0,1,0,0-16.23H279A8.12,8.12,0,0,0,279,232Z"/><path class="cls-2" d="M262.74,345.65h48.71a8.12,8.12,0,1,0,0-16.24H262.74a8.12,8.12,0,0,0,0,16.24Z"/><path class="cls-3" d="M490.07,85.84h-341A8.12,8.12,0,0,0,141,94v32.48H120.18a24.33,24.33,0,0,0-23.11,16.65L86.38,175.15h-51A24.39,24.39,0,0,0,11,199.51V361.89A24.39,24.39,0,0,0,35.4,386.25H141v32.47a8.11,8.11,0,0,0,8.12,8.12h341a8.11,8.11,0,0,0,8.12-8.12V94A8.12,8.12,0,0,0,490.07,85.84Zm-462.79,276v-138h89.47A81.44,81.44,0,1,0,133,207.66c-.05,0-.1,0-.16,0H27.28v-8.12a8.13,8.13,0,0,1,8.12-8.12H92.23a8.11,8.11,0,0,0,7.7-5.55l12.54-37.61a8.13,8.13,0,0,1,7.71-5.56H242.91a8.13,8.13,0,0,1,7.71,5.56l12.54,37.61a8.11,8.11,0,0,0,7.7,5.55h56.83a8.13,8.13,0,0,1,8.12,8.12V361.89a8.13,8.13,0,0,1-8.12,8.12H35.4A8.13,8.13,0,0,1,27.28,361.89ZM181.54,207.63a64.95,64.95,0,1,1-64.95,64.95A65,65,0,0,1,181.54,207.63ZM482,410.61H157.19V386.25h170.5a24.39,24.39,0,0,0,24.36-24.36V291.28l24.35-36.54,25.73,38.58a8.11,8.11,0,0,0,12.49,1.24l18.62-18.62L460,302.68a8.12,8.12,0,1,0,11.49-11.48L439,258.72a8.12,8.12,0,0,0-11.48,0l-17.36,17.36-27-40.48c-3-4.52-10.5-4.52-13.51,0L352.05,262V199.51a24.39,24.39,0,0,0-24.36-24.36h-51L266,143.09a24.33,24.33,0,0,0-23.11-16.65H157.19V102.08H482Z"/><path class="cls-4" d="M433.24,199.51A32.48,32.48,0,1,0,400.76,167,32.51,32.51,0,0,0,433.24,199.51Zm0-48.72A16.24,16.24,0,1,1,417,167,16.26,16.26,0,0,1,433.24,150.79Z"/></svg>