<svg id="Layer_1" data-name="Layer 1" xmlns="http://www.w3.org/2000/svg" xmlns:xlink="http://www.w3.org/1999/xlink" viewBox="0 0 512 512"><defs><style>.cls-1{fill:url(#linear-gradient);}.cls-2{fill:url(#linear-gradient-2);}.cls-3{fill:url(#linear-gradient-3);}.cls-4{fill:url(#linear-gradient-4);}.cls-5{fill:url(#linear-gradient-5);}</style><linearGradient id="linear-gradient" x1="256.32" y1="82.02" x2="256.32" y2="390.78" gradientUnits="userSpaceOnUse"><stop offset="0" stop-color="#ffe266"/><stop offset="0.79" stop-color="#fcdc39"/></linearGradient><linearGradient id="linear-gradient-2" x1="257.86" y1="82.02" x2="257.86" y2="390.78" xlink:href="#linear-gradient"/><linearGradient id="linear-gradient-3" x1="256.36" y1="82.02" x2="256.36" y2="390.78" xlink:href="#linear-gradient"/><linearGradient id="linear-gradient-4" x1="216.52" y1="82.02" x2="216.52" y2="390.78" xlink:href="#linear-gradient"/><linearGradient id="linear-gradient-5" x1="214.74" y1="82.02" x2="214.74" y2="390.78" xlink:href="#linear-gradient"/></defs><title>Construction  ICONS</title><path class="cls-1" d="M280,272v15.58c0,18.34.21,36.68-.2,55-.07,3.46-1.93,7.4-4.14,10.19-3.77,4.76-8.54,8.72-12.75,13.15s-8.33,4.6-12.62.25a13.5,13.5,0,0,0-1.57-1.55c-13-9.38-17.51-21.65-16.14-37.83,1.47-17.48.27-35.18.21-52.78a12.29,12.29,0,0,0-.8-2.45c-2.21,0-4.8,0-7.38,0-17.52-.35-29.43-12.13-29.58-29.63-.16-19.56.1-39.12-.22-58.68,0-2.48-1.88-6.1-3.94-7.19-12.18-6.44-17.32-16.36-17.23-29.89.21-33.5.07-67,.08-100.49V35.31H165.1q-66.76,0-133.54-.07c-2.79,0-6.11-.34-8.26-1.84-4.26-3-2.72-10.2,2.33-11.66a29.48,29.48,0,0,1,8-.63q222.69,0,445.36,0c1.72,0,3.43,0,5.14.05,4.52.17,7.69,2.15,7.69,7,0,5.15-3.13,7.23-8.12,7.22q-35.58-.07-71.17,0H339.76c-.21,3.3-.58,6.33-.58,9.36,0,33.74-.11,67.48.05,101.22.07,14-4.84,24.6-18.19,30.66-1.66.75-3,4.13-3,6.31-.24,18.34-.12,36.67-.14,55,0,22.63-10.23,33.06-32.92,33.7C283.55,271.61,282.15,271.79,280,272ZM188.19,35.53c-.18,2.14-.41,3.55-.41,5q0,53.11,0,106.22c0,11.91,5.59,17.21,17.75,17.22q50.57.06,101.12,0c13.33,0,18.38-5.18,18.4-18.82q0-51.28,0-102.56c0-2.31-.27-4.63-.41-7Zm20.63,143c0,22.51-.3,44.45.17,66.37.15,7.24,5.78,12.12,13.24,12.22,22.25.31,44.51.37,66.76.05,9.32-.13,14.24-5.65,14.44-15,.21-9.53.06-19.07.07-28.6V178.64H290c0,11-.08,21.51,0,32,.06,5.39-.77,10.33-7.43,10.2-6.16-.13-7-4.82-7-9.94.12-10.71,0-21.42,0-32.34H263.61v7.59c0,14.43-.05,28.85,0,43.28,0,5-1.33,9.14-7,9.26-6.1.14-7.61-4.21-7.45-9.49.08-2.44,0-4.89,0-7.33V178.09l-12.92.57c0,11.46-.09,22,0,32.47.06,5.17-.84,9.75-7.11,9.69s-7-4.72-7-9.84c.12-10.67,0-21.34,0-32.45ZM247.24,272v7.53c0,18,.43,36.09-.19,54.11-.28,8.34,2.58,13.88,9.37,17.92,7.47-4.66,10.73-10.73,10.31-19.91-.78-17.27-.21-34.61-.24-51.92,0-2.57-.22-5.14-.33-7.73Z"/><path class="cls-2" d="M257.1,492.21H94.29c-9.68,0-11.25-1.47-11.26-10.83q0-63.42,0-126.84c0-9.07,1.71-10.83,10.57-10.87,17.11-.06,34.24-.34,51.33.22A19.4,19.4,0,0,1,157,349c20.91,20.91,41.29,42.34,62.1,63.35a14.87,14.87,0,0,0,9.35,4c19.06.37,38.14.4,57.2,0a15.84,15.84,0,0,0,9.93-4.37c20-20.11,39.79-40.39,59.23-61,5.16-5.48,10.5-7.7,18-7.48,15.87.47,31.77.07,47.66.18,9.42.07,12.31,3,12.31,12.33q0,62.69,0,125.37c0,9.35-1.55,10.84-11.32,10.85q-82.12,0-164.27,0ZM96.25,477.42H415.76V358c-14.52,0-28.45-.31-42.35.21a17.15,17.15,0,0,0-10.59,4.5c-20.51,20.64-40.72,41.56-60.85,62.57a17,17,0,0,1-13.49,5.77c-21.76-.28-43.53.17-65.29-.37a20.3,20.3,0,0,1-12.61-5.41c-20.75-20.74-41-42-61.51-62.95-1.77-1.8-4.23-4.07-6.41-4.12-15.34-.36-30.68-.19-46.41-.19Z"/><path class="cls-3" d="M256.05,397.88c-17.33,4.2-28.82-3.85-39.64-16.62-13.72-16.19-29.24-30.84-43.7-46.42-2-2.18-3.85-6.11-3.34-8.77,1.16-6.13,7.83-6.66,13.09-1.2,13,13.55,26.86,26.5,38.68,41.07,11.26,13.86,23.78,20.67,42,18.22,7.15-1,12.57-2.12,17.65-7.7,15.46-17,31.55-33.38,47.39-50,.51-.53,1-1.06,1.51-1.6C333,321.31,336.73,319,341,323s2.43,7.86-1,11.44Q322.26,353,304.58,371.61c-6.25,6.54-12.81,12.8-18.66,19.67-4.38,5.14-9.27,7.36-15.95,6.69C265.37,397.51,260.69,397.88,256.05,397.88Z"/><path class="cls-4" d="M209.36,85.41V65c0-4.48,1.66-7.66,6.6-7.91,5.3-.28,7.61,2.94,7.65,7.69q.18,21.19-.09,42.39c-.06,4.51-2.39,7.53-7.26,7.26-4.67-.26-6.88-3.18-6.89-7.78C209.35,99.54,209.36,92.47,209.36,85.41Z"/><path class="cls-5" d="M205.9,133.6c5-3.56,7.51-6.75,10.48-7.21,5.09-.78,7.24,3.19,7.21,7.89s-2.09,8.84-7.23,7.72C213.24,141.32,210.77,137.68,205.9,133.6Z"/></svg>