<svg id="Layer_1" data-name="Layer 1" xmlns="http://www.w3.org/2000/svg" xmlns:xlink="http://www.w3.org/1999/xlink" viewBox="0 0 512 512"><defs><style>.cls-1{fill:url(#linear-gradient);}.cls-2{fill:url(#linear-gradient-2);}.cls-3{fill:url(#linear-gradient-5);}</style><linearGradient id="linear-gradient" x1="256.32" y1="-5.81" x2="256.32" y2="455.97" gradientUnits="userSpaceOnUse"><stop offset="0" stop-color="#ffe266"/><stop offset="0.79" stop-color="#fcdc39"/></linearGradient><linearGradient id="linear-gradient-2" x1="256.32" y1="-5.81" x2="256.32" y2="455.97" xlink:href="#linear-gradient"/><linearGradient id="linear-gradient-5" x1="256.32" y1="-5.81" x2="256.32" y2="455.97" xlink:href="#linear-gradient"/></defs><title>Construction  ICONS</title><path class="cls-1" d="M256.32,200.69c-31.59,0-57.69-34.24-61.88-78.69h-8.59c4.78,50.63,34.5,89.63,70.47,89.63s65.7-39,70.47-89.63H318.2C314,166.46,287.91,200.69,256.32,200.69Z"/><path class="cls-2" d="M397.24,287.09c.71,0,1.4.05,2.09.11a94.7,94.7,0,0,0-81.07-84.85l-.5-.07c-1.31-.16-2.64-.33-4-.44,0,.13,0,.27-.05.4,0,.39-.09.77-.13,1.17a19.25,19.25,0,0,1-1.94,6.43c-7,17.51-29.47,50.71-42.71,69.54l-2.74-39.14a22.94,22.94,0,0,0,9.34-9.08,18.1,18.1,0,0,0,2.47-8.78s-9.89,4.39-20,4.39c-.57,0-1.15,0-1.72-.06s-1.15.06-1.73.06c-10.09,0-20-4.39-20-4.39a18.1,18.1,0,0,0,2.47,8.78,22.93,22.93,0,0,0,9.34,9.08l-2.74,39.14c-13.25-18.83-35.76-52-42.71-69.54a19,19,0,0,1-1.94-6.43c0-.4-.11-.78-.14-1.17,0-.13,0-.27,0-.4-1.34.12-2.66.28-4,.44l-.49.07a94.67,94.67,0,0,0-81.07,84.85c.69-.06,1.37-.11,2.07-.11Z"/><path class="cls-1" d="M182.49,111.47H330.13a10.42,10.42,0,1,0,0-20.83H327.3a71,71,0,0,0-38.93-63.33l-2.12,12-3.77,21.35a5.44,5.44,0,0,1-5.34,4.5,5.18,5.18,0,0,1-1-.08,5.43,5.43,0,0,1-4.41-6.31l4.15-23.53,2.57-14.56A14.24,14.24,0,0,0,266.39,14H246.24a14.22,14.22,0,0,0-12.09,6.72l2.57,14.56,4.15,23.53a5.44,5.44,0,0,1-4.41,6.31,5.15,5.15,0,0,1-1,.08,5.44,5.44,0,0,1-5.36-4.5l-3.76-21.35-2.12-12a71,71,0,0,0-38.93,63.33h-2.85a10.42,10.42,0,0,0,0,20.83Z"/><path class="cls-1" d="M384.1,486.9H128.54a5.57,5.57,0,1,0,0,11.14H384.1a5.57,5.57,0,0,0,0-11.14Z"/><path class="cls-3" d="M399.33,294.62c-.69-.05-1.38-.1-2.09-.1H115.39c-.7,0-1.39.05-2.08.1a26.25,26.25,0,0,0-24.14,26.12v.63l.1.63,23.4,135.66a26.24,26.24,0,0,0,26.21,25.53H373.76A26.24,26.24,0,0,0,400,457.66L423.36,322l.11-.63v-.63A26.24,26.24,0,0,0,399.33,294.62Zm-143,103a11.14,11.14,0,1,1,11.14-11.15A11.15,11.15,0,0,1,256.32,397.65Z"/></svg>