<svg id="Layer_1" data-name="Layer 1" xmlns="http://www.w3.org/2000/svg" xmlns:xlink="http://www.w3.org/1999/xlink" viewBox="0 0 512 512"><defs><style>.cls-1{fill:url(#linear-gradient);}</style><linearGradient id="linear-gradient" x1="256.32" y1="39.13" x2="256.32" y2="464.02" gradientUnits="userSpaceOnUse"><stop offset="0" stop-color="#ffe266"/><stop offset="0.79" stop-color="#fcdc39"/></linearGradient></defs><title>Construction  ICONS</title><path class="cls-1" d="M54.21,367v40.84h54.32V367ZM16.32,72.92v334.9H41.58V360.66a6.31,6.31,0,0,1,6.32-6.31h66.95a6.3,6.3,0,0,1,6.31,6.31v47.16h25.26V72.92ZM54.63,313.5H47.9a6.31,6.31,0,0,1-6.32-6.31,6.37,6.37,0,0,1,6.32-6.32h6.73A6.37,6.37,0,0,1,61,307.19,6.3,6.3,0,0,1,54.63,313.5Zm0-49H47.9a6.31,6.31,0,0,1-6.32-6.31,6.37,6.37,0,0,1,6.32-6.32h6.73A6.37,6.37,0,0,1,61,258.18,6.3,6.3,0,0,1,54.63,264.49Zm0-49H47.9a6.31,6.31,0,0,1-6.32-6.31,6.37,6.37,0,0,1,6.32-6.32h6.73A6.37,6.37,0,0,1,61,209.17,6.3,6.3,0,0,1,54.63,215.48Zm0-49H47.9a6.32,6.32,0,1,1,0-12.63h6.73a6.32,6.32,0,1,1,0,12.63Zm0-48.92H47.9a6.37,6.37,0,0,1-6.32-6.32,6.31,6.31,0,0,1,6.32-6.31h6.73A6.3,6.3,0,0,1,61,111.23,6.37,6.37,0,0,1,54.63,117.55Zm60.22,196H81.41a6.25,6.25,0,0,1-6.31-6.31,6.31,6.31,0,0,1,6.31-6.32h33.44a6.36,6.36,0,0,1,6.31,6.32A6.3,6.3,0,0,1,114.85,313.5Zm0-49H81.41a6.25,6.25,0,0,1-6.31-6.31,6.31,6.31,0,0,1,6.31-6.32h33.44a6.36,6.36,0,0,1,6.31,6.32A6.3,6.3,0,0,1,114.85,264.49Zm0-49H81.41a6.25,6.25,0,0,1-6.31-6.31,6.31,6.31,0,0,1,6.31-6.32h33.44a6.36,6.36,0,0,1,6.31,6.32A6.3,6.3,0,0,1,114.85,215.48Zm0-49H81.41a6.32,6.32,0,0,1,0-12.63h33.44a6.32,6.32,0,0,1,0,12.63Zm0-48.92H81.41a6.31,6.31,0,0,1-6.31-6.32,6.25,6.25,0,0,1,6.31-6.31h33.44a6.3,6.3,0,0,1,6.31,6.31A6.36,6.36,0,0,1,114.85,117.55Zm25-98.44V60.28h12.88a6.37,6.37,0,0,1,6.32,6.32v163H313.33a6.26,6.26,0,0,1,6.32,6.32V414.14a6.31,6.31,0,0,1-6.32,6.31H139.86V462H463.31V19.11Zm65.68,152.33H183.39a6.32,6.32,0,0,1,0-12.63h22.15a6.32,6.32,0,1,1,0,12.63Zm0-74.36H183.39a6.25,6.25,0,0,1-6.31-6.31,6.31,6.31,0,0,1,6.31-6.32h22.15a6.37,6.37,0,0,1,6.32,6.32A6.31,6.31,0,0,1,205.54,97.08ZM358.13,396.54h-20.8a6.32,6.32,0,1,1,0-12.63h20.8a6.32,6.32,0,1,1,0,12.63Zm0-74.28h-20.8a6.32,6.32,0,1,1,0-12.63h20.8a6.32,6.32,0,1,1,0,12.63Zm0-77.64h-20.8a6.32,6.32,0,1,1,0-12.63h20.8a6.32,6.32,0,1,1,0,12.63Zm.08-73.18H235.52a6.32,6.32,0,1,1,0-12.63H358.21a6.32,6.32,0,1,1,0,12.63Zm0-74.36H235.52a6.31,6.31,0,0,1-6.32-6.31,6.37,6.37,0,0,1,6.32-6.32H358.21a6.37,6.37,0,0,1,6.32,6.32A6.3,6.3,0,0,1,358.21,97.08Zm66.53,269.65-24.25,30.82a6.36,6.36,0,0,1-5,2.44h-.34a6.47,6.47,0,0,1-5.05-3L383.9,386.6A6.31,6.31,0,0,1,394.68,380l1.51,2.53,18.61-23.67a6.4,6.4,0,0,1,8.93-1A6.29,6.29,0,0,1,424.74,366.73Zm0-74.36-24.25,30.9a6.26,6.26,0,0,1-5,2.36h-.34a6.24,6.24,0,0,1-5.05-3l-6.23-10.36a6.29,6.29,0,1,1,10.78-6.48l1.51,2.52,18.61-23.66a6.3,6.3,0,1,1,9.94,7.75Zm0-77.56-24.25,30.82a6.33,6.33,0,0,1-5,2.44h-.34a6.44,6.44,0,0,1-5.05-3l-6.23-10.36A6.3,6.3,0,0,1,386,226a6.38,6.38,0,0,1,8.68,2.11l1.51,2.52L414.8,207a6.39,6.39,0,0,1,8.93-1A6.28,6.28,0,0,1,424.74,214.81Zm0-73.18-24.25,30.82a6.33,6.33,0,0,1-5,2.44h-.34a6.44,6.44,0,0,1-5.05-3l-6.23-10.35a6.31,6.31,0,1,1,10.78-6.57l1.51,2.52L414.8,133.8a6.4,6.4,0,0,1,8.93-1A6.28,6.28,0,0,1,424.74,141.63Zm0-74.36L400.49,98.18a6.29,6.29,0,0,1-5,2.36h-.34a6.29,6.29,0,0,1-5.05-3L383.9,87.15a6.29,6.29,0,1,1,10.78-6.49l1.51,2.53L414.8,59.53a6.3,6.3,0,1,1,9.94,7.74Zm-265.68,175V407.82H307V242.26Zm40.16,136.26a6.32,6.32,0,0,1-12.63,0V347.36a6.32,6.32,0,1,1,12.63,0Zm0-69.06a6.32,6.32,0,1,1-12.63,0V271.57a6.32,6.32,0,1,1,12.63,0Zm40.17,69.06a6.32,6.32,0,0,1-12.63,0V347.36a6.32,6.32,0,1,1,12.63,0Zm0-69.06a6.32,6.32,0,1,1-12.63,0V271.57a6.32,6.32,0,1,1,12.63,0Zm40.09,69.06a6.32,6.32,0,0,1-12.63,0V347.36a6.32,6.32,0,1,1,12.63,0Zm0-69.06a6.32,6.32,0,1,1-12.63,0V271.57a6.32,6.32,0,1,1,12.63,0ZM475.94,52V468.28a6.31,6.31,0,0,1-6.32,6.32H172.87v20.29H496.32V52Z"/></svg>