<svg id="Layer_1" data-name="Layer 1" xmlns="http://www.w3.org/2000/svg" xmlns:xlink="http://www.w3.org/1999/xlink" viewBox="0 0 512 512"><defs><style>.cls-1{fill:url(#linear-gradient);}.cls-2{fill:url(#linear-gradient-2);}</style><linearGradient id="linear-gradient" x1="256.32" y1="90.19" x2="256.32" y2="388.58" gradientUnits="userSpaceOnUse"><stop offset="0" stop-color="#ffe266"/><stop offset="0.79" stop-color="#fcdc39"/></linearGradient><linearGradient id="linear-gradient-2" x1="286.52" y1="90.19" x2="286.52" y2="388.58" xlink:href="#linear-gradient"/></defs><title>Construction  ICONS</title><path class="cls-1" d="M382.62,426.05v-38.4h62.9v-69.2h-91.7a9.88,9.88,0,0,0,1.5-3.3,72.59,72.59,0,0,0,3.1-20.7,10.36,10.36,0,0,0-.1-1.6,7.72,7.72,0,0,0-.2-1.5h48.6v-11.1c.2-9,.6-35.1-.1-74.2v-.4l-.1-.9a17,17,0,0,0-2.7-8.1c-1.9-2.8-4.9-5.2-9.6-7.9-8.7-5-25.6-11.9-54.5-22.4-6.1-2.6-15.7-7-21-9.9l-.3-8.3a65.07,65.07,0,0,0,19.2-27.2,15.58,15.58,0,0,0,11.9-14.2l.3-5.4a14.84,14.84,0,0,0-2.8-27.6c-3.4-32-29.2-57-60.4-57s-57,25-60.4,57a14.8,14.8,0,0,0-3.1,27.4l.4,5.5a15.78,15.78,0,0,0,12.2,14.3,64.73,64.73,0,0,0,19.2,27.1l-.3,8.3c-5.4,2.9-15,7.2-21,9.9-29,10.4-45.8,17.3-54.5,22.4-4.7,2.7-7.6,5.1-9.6,7.9a16.2,16.2,0,0,0-2.7,8.1l-.1.9v.4c-.3,14.3-.4,26.8-.4,37.4l-24.5-26.3a10.3,10.3,0,0,0-14.6-.6l-14.8,13.6a9.79,9.79,0,0,0-2.8,4.4,10.74,10.74,0,0,0-4.6,2.4l-11.1,10.2c-4.9,4.5-11.9,11.7-16,22.6-4.6,12-4.5,25.8.2,40.8A10.3,10.3,0,0,0,95,315l20.3-18.6a2.46,2.46,0,0,1,1.6-.6,2.26,2.26,0,0,1,1.5.7l20.4,22.2H51.52v69.2h72.4v38.2H66.32v69.2h108.4v-54h41.9v54H325v-54h27.7v54h108.4v-69.2Zm47.2-91.9v37.9h-77.1v-37.9ZM375,196.75c1.8.8,3.5,1.5,5,2.3,8.7,4.1,10.5,6,10.8,6.4,0,.2.1.7.1,1.1v.2c.6,33.8.4,57.6.2,69H375Zm-50.3-19.9a50.14,50.14,0,0,1-31.8,17.6l19.8-23.4C316.42,173.05,320.92,175.15,324.72,176.85Zm-38.2,1L270,158.35l.1-1.3a47,47,0,0,0,16.3,2.9h.5a47.72,47.72,0,0,0,16-2.9l.1,1.3Zm-1.8-145.3h3.6v13.8a1.8,1.8,0,0,1-3.6,0Zm-43.4,48.6a50,50,0,0,1,13.5-34.5,44.54,44.54,0,0,1,14.3-10.3v10a17.5,17.5,0,1,0,35,0v-10a46.11,46.11,0,0,1,14.3,10.3,50,50,0,0,1,13.5,34.5v6.2h-90.6ZM247,103h79.1a54.54,54.54,0,0,1-11.7,27.1,40.75,40.75,0,0,1-8.7,8c-2.3,1.3-11.3,6.1-19,6.1h-.1c-8.8,0-17-4.8-17.4-5l-1.2-.8a42.49,42.49,0,0,1-9.2-8.4A52.71,52.71,0,0,1,247,103Zm13.4,68.1,19.8,23.5a50.05,50.05,0,0,1-32.2-17.5C251.92,175.25,256.52,173.05,260.42,171.05Zm-46.1,19.1c5.4-2.1,11.6-4.4,18.6-7a65.57,65.57,0,0,0,106.7-.1c7.5,2.7,14,5.2,19.7,7.4v85.4h-12l.3-.3a12.73,12.73,0,0,0,2.2-14.9,71.87,71.87,0,0,0-13.4-17.7,12.71,12.71,0,0,0-14.9-1.9,43.54,43.54,0,0,1-4.9,2.4,44.41,44.41,0,0,1-.3-5.5,12.57,12.57,0,0,0-8.9-12.2,71.84,71.84,0,0,0-19.8-3h-1a6.15,6.15,0,0,0-1.4.1H285a12.5,12.5,0,0,0-11.4,9.2,44.73,44.73,0,0,1-1.8,5.2,44.16,44.16,0,0,1-4.1-3.7h0a12.73,12.73,0,0,0-14.9-2.2,75.62,75.62,0,0,0-17.8,13.4,12.71,12.71,0,0,0-1.9,14.9,36.16,36.16,0,0,1,2.4,4.9,45.57,45.57,0,0,1-5.5.3h-.1a12.54,12.54,0,0,0-12,8.8v.1c-.2.7-.4,1.4-.6,2.2h-3Zm58.1,158.7a49.07,49.07,0,0,0-1.1-9.1,9.29,9.29,0,0,0-.4-1.3,47.79,47.79,0,0,0,15.6,2.7,26.2,26.2,0,0,0,2.8-.1c-.2.3-.5.7-.7,1a36.75,36.75,0,0,0-3.6,8.5A64.36,64.36,0,0,1,272.42,348.85Zm14.1-23.3a31.1,31.1,0,1,1,31.1-31.1A31.13,31.13,0,0,1,286.52,325.55Zm-46.5-28c-.4-.2-.8-.5-1.2-.7a40.09,40.09,0,0,0-8.4-3.6,55.65,55.65,0,0,1,1.8-12.8,39.37,39.37,0,0,0,9.1-1.2,6.47,6.47,0,0,0,1.3-.4,47.93,47.93,0,0,0-2.7,15.7C239.92,295.55,239.92,296.55,240,297.55Zm3.7,18.2c.2-.4.5-.8.7-1.2a47.49,47.49,0,0,0,11.3,15l-1.3.3a43.21,43.21,0,0,0-8.6,3.5A53.34,53.34,0,0,1,238,323,36.91,36.91,0,0,0,243.72,315.75Zm4-61.9a53.34,53.34,0,0,1,10.4-7.8,42.78,42.78,0,0,0,7.2,5.6l1.2.6a46.35,46.35,0,0,0-15,11.4c-.1-.4-.2-.9-.3-1.4A52.45,52.45,0,0,0,247.72,253.85Zm35.8-5.9a10.54,10.54,0,0,0,.7-1.1,42.58,42.58,0,0,0,3.6-8.5,59.82,59.82,0,0,1,12.8,1.7,42.73,42.73,0,0,0,1.1,9.2,5.64,5.64,0,0,0,.4,1.2,47.33,47.33,0,0,0-15.6-2.7C285.52,247.85,284.52,247.85,283.52,248Zm38,77.4.3,1.2a43.25,43.25,0,0,0,3.5,8.5,57,57,0,0,1-10.4,7.9,42.94,42.94,0,0,0-7.3-5.7c-.4-.2-.7-.4-1.1-.6A45.36,45.36,0,0,0,321.52,325.35Zm-4.1-65.9c.4-.1.8-.2,1.3-.3a50.06,50.06,0,0,0,8.5-3.4,55.83,55.83,0,0,1,7.8,10.3,40.65,40.65,0,0,0-5.6,7.2,10.91,10.91,0,0,1-.6,1.1A48.93,48.93,0,0,0,317.42,259.45Zm15.7,32.1c.4.2.7.5,1.1.7a49.06,49.06,0,0,0,8.5,3.7,54.81,54.81,0,0,1-1.8,12.7,42.73,42.73,0,0,0-9.2,1.1,5.64,5.64,0,0,0-1.2.4,47.19,47.19,0,0,0,2.7-15.5A29.12,29.12,0,0,0,333.12,291.55Zm-151-84.7v-.2c0-.4.1-.9.1-1.1.3-.4,2.1-2.4,10.8-6.4,1.7-.8,3.6-1.6,5.7-2.5V276h-16.8C181.72,264.45,181.52,240.55,182.12,206.85Zm32.7,84.6c0,1-.1,2-.1,3.1a7.63,7.63,0,0,0,.1,1.7,12.62,12.62,0,0,0,9.2,11.5,27.44,27.44,0,0,1,5.1,1.8,40.45,40.45,0,0,1-3.6,4,12.6,12.6,0,0,0-2.3,14.9,73,73,0,0,0,13.4,17.8,12.56,12.56,0,0,0,15,1.9,36.16,36.16,0,0,1,4.9-2.4,45.57,45.57,0,0,1,.3,5.5v.1a12.66,12.66,0,0,0,8.9,12.1,82.44,82.44,0,0,0,20.6,3.1h.4a7.57,7.57,0,0,0,1.5-.1,12.72,12.72,0,0,0,11.3-9.1v-.1a40.78,40.78,0,0,1,1.8-5.3,44.16,44.16,0,0,1,4.1,3.7,12.45,12.45,0,0,0,14.9,2.3,74.69,74.69,0,0,0,16.7-12.4v26.5h-62.9v54h-41.8v-54h-29.1l14-12.9.1-.1a10.3,10.3,0,0,0,.6-14.6l-48.7-53Zm-72.8,7.3,6.9-6.4,53.9,58.7-6.9,6.4Zm46,73.3h-28.1v-30.6l28.1,30.6Zm-21.8-109c.1,13.4.3,20.6.3,20.8l.2,4.7-12.9-14.1Zm-27.9,17.8-6.9,6.4-1.4-1.5a17.72,17.72,0,0,0-12.4-5.8h-.8a18.18,18.18,0,0,0-12.1,4.7L91,297.25c-1.4-8.2-.9-15.7,1.5-22.2,2.9-7.6,7.9-12.9,11.9-16.6l7.2-6.6,6.8,7.4,15.2-14-6.8-7.4,7-6.4,19.9,21.7-7,6.4-6.8-7.4-15.2,14Zm-14.4,91.2H67.22v-37.9h77.1v37.9Zm35.2,107.6H82v-37.9h77.1v37.9Zm57.6-54h-77.1v-37.9h77.1v37.9Zm92.7,54h-77.1v-37.9h77.1Zm57.6-54h-77.1v-37.9H367Zm78.4,54h-77.1v-37.9h77.1Z"/><path class="cls-2" d="M286.52,266.65a27.8,27.8,0,1,0,27.8,27.8A27.87,27.87,0,0,0,286.52,266.65Zm0,40a12.2,12.2,0,1,1,12.2-12.2A12.12,12.12,0,0,1,286.52,306.65Z"/></svg>