<svg id="Layer_1" data-name="Layer 1" xmlns="http://www.w3.org/2000/svg" xmlns:xlink="http://www.w3.org/1999/xlink" viewBox="0 0 512 512"><defs><style>.cls-1{fill:url(#linear-gradient);}.cls-2{fill:url(#linear-gradient-2);}.cls-3{fill:url(#linear-gradient-3);}.cls-4{fill:url(#linear-gradient-4);}.cls-5{fill:url(#linear-gradient-5);}.cls-6{fill:url(#linear-gradient-6);}.cls-7{fill:url(#linear-gradient-8);}.cls-8{fill:url(#linear-gradient-9);}.cls-9{fill:url(#linear-gradient-10);}.cls-10{fill:url(#linear-gradient-11);}</style><linearGradient id="linear-gradient" x1="355.73" y1="63.64" x2="355.73" y2="417.01" gradientUnits="userSpaceOnUse"><stop offset="0" stop-color="#ffe266"/><stop offset="0.79" stop-color="#fcdc39"/></linearGradient><linearGradient id="linear-gradient-2" x1="130.27" y1="63.64" x2="130.27" y2="417.01" xlink:href="#linear-gradient"/><linearGradient id="linear-gradient-3" x1="345.1" y1="63.64" x2="345.1" y2="417.01" xlink:href="#linear-gradient"/><linearGradient id="linear-gradient-4" x1="165.45" y1="63.64" x2="165.45" y2="417.01" xlink:href="#linear-gradient"/><linearGradient id="linear-gradient-5" x1="255.28" y1="63.64" x2="255.28" y2="417.01" xlink:href="#linear-gradient"/><linearGradient id="linear-gradient-6" x1="355.96" y1="63.64" x2="355.96" y2="417.01" xlink:href="#linear-gradient"/><linearGradient id="linear-gradient-8" x1="154.59" y1="63.64" x2="154.59" y2="417.01" xlink:href="#linear-gradient"/><linearGradient id="linear-gradient-9" x1="161.75" y1="63.64" x2="161.75" y2="417.01" xlink:href="#linear-gradient"/><linearGradient id="linear-gradient-10" x1="100.03" y1="63.64" x2="100.03" y2="417.01" xlink:href="#linear-gradient"/><linearGradient id="linear-gradient-11" x1="92.54" y1="63.64" x2="92.54" y2="417.01" xlink:href="#linear-gradient"/></defs><title>Construction  ICONS</title><path class="cls-1" d="M491.42,127.1,222,87.26c-3.62-.72-8,2.18-8,5.8-.73,3.62,2.17,8,5.79,8l269.47,39.84c3.62.72,8-2.18,8-5.8C498.66,131.45,495.77,127.83,491.42,127.1Z"/><path class="cls-2" d="M248,174.19h0c0,3.62-2.9,6.52-6.52,7.24L20.58,214c-3.62.72-7.24-2.18-8-5.8-.72-4.34,2.17-8,6.52-8l220.93-32.59C244.41,166.22,248,169.84,248,174.19Z"/><path class="cls-3" d="M321.19,390.05v50.71H369V390.05a23.91,23.91,0,0,0-47.81,0Z"/><path class="cls-4" d="M82.87,264.73v176H248v-176Zm75.34,132.56h-53.6V360.35h53.6Zm0-51.43h-53.6V308.92h53.6Zm68.09,51.43H172.7V360.35h53.6Zm0-51.43H172.7V308.92h53.6Z"/><path class="cls-5" d="M30.72,455.24v14.49H479.83V455.24Z"/><path class="cls-6" d="M449.41,177.81V150.28c-113-16.66-73.16-10.86-186.89-27.52v55.77C328.44,177.81,150.24,177.81,449.41,177.81Z"/><path class="cls-3" d="M262.52,192.3V440.76h44.19V390.05a38.39,38.39,0,1,1,76.78,0v50.71h44.19V192.3ZM335,337.17H284.25V286.46H335Zm0-72.44H284.25V214H335Zm71,72.44H355.24V286.46H406Zm0-72.44H355.24V214H406Z"/><polygon class="cls-7" points="248.03 195.19 224.13 198.09 61.14 222.72 61.14 250.25 75.63 250.25 248.03 250.25 248.03 195.19"/><path class="cls-8" d="M185,121.31l-21,10.14a7.65,7.65,0,0,1-10.86-3.62l-10.87-20.29a7.82,7.82,0,0,1,3.63-10.86,8.17,8.17,0,0,1,10.86,2.9l2.17,4.34c.73-4.34,0-9.41-1.44-14.48a40.89,40.89,0,0,0-19.56-24.63,8,8,0,1,1,8-13.77,52.62,52.62,0,0,1,26.8,34.05c2.17,7.24,2.17,14.49,1.45,21.73l3.62-2.17c3.62-2.18,8.69,0,10.86,3.62C190.81,114.79,188.63,119.13,185,121.31Z"/><path class="cls-9" d="M140.1,142.31a8.19,8.19,0,0,1-2.9,10.87,55.74,55.74,0,0,1-62.29-4.35v3.63C74.18,162.6,58.25,161.15,59,151l.73-22.46c0-4.34,2.89-8,8.69-8l22.45.73c10.14.72,10.14,15.93-.72,15.93H86.5a41,41,0,0,0,42.73,2.18A8.17,8.17,0,0,1,140.1,142.31Z"/><path class="cls-10" d="M61.14,96.68A55.48,55.48,0,0,1,95.91,45.25L93,43.08a7.39,7.39,0,0,1-2.18-10.87A7.39,7.39,0,0,1,101.71,30l18.83,12.31c2.18,1.45,5.07,5.07,2.18,10.87L110.4,72.05a7.37,7.37,0,0,1-10.86,2.17c-3.63-2.17-4.35-7.24-2.18-10.86l2.18-2.9A40.09,40.09,0,0,0,76.36,96.68a8,8,0,0,1-8,8C64.77,104.65,61.14,101,61.14,96.68Z"/></svg>