<svg id="Layer_1" data-name="Layer 1" xmlns="http://www.w3.org/2000/svg" xmlns:xlink="http://www.w3.org/1999/xlink" viewBox="0 0 512 512"><defs><style>.cls-1{fill:url(#linear-gradient);}.cls-2{fill:url(#linear-gradient-2);}.cls-3{fill:url(#linear-gradient-3);}</style><linearGradient id="linear-gradient" x1="255.7" y1="10.53" x2="255.7" y2="414.59" gradientUnits="userSpaceOnUse"><stop offset="0" stop-color="#ffe266"/><stop offset="0.79" stop-color="#fcdc39"/></linearGradient><linearGradient id="linear-gradient-2" x1="256.18" y1="10.53" x2="256.18" y2="414.59" xlink:href="#linear-gradient"/><linearGradient id="linear-gradient-3" x1="256.32" y1="10.53" x2="256.32" y2="414.59" xlink:href="#linear-gradient"/></defs><title>Construction  ICONS</title><path class="cls-1" d="M83.29,195.33c4.61-63,51.42-125.1,112.44-145v54.57h15.66V14.86h36.5V60.32c4.93,0,9.45.15,13.94-.16.69,0,1.75-2.23,1.76-3.43.13-12.45.08-24.9.08-37.35V14.87h37.22V105h15.49V50.87c53.56,16.62,105.67,74.33,111.73,144.46Z"/><path class="cls-2" d="M164,431.76l-29.53,29.7L81.07,408c9.59-9.53,19.49-19.39,29.45-29.3-2.31-4.22-4.36-8-6.39-11.7A160,160,0,0,1,88.93,327c-.54-2.33-1.52-2.78-3.61-2.77-12.1.08-24.19,0-36.28,0H45.26V286.35H150c1.08,32.1,13,59.13,37.29,80.17a102.1,102.1,0,0,0,68.61,25.57c29.09,0,54.45-10.33,75.12-31s30.61-45.72,31.4-74.8H467.1v37.9h-6.64c-10.77,0-21.55.09-32.32-.06-2.84,0-4.09.56-4.81,3.62-4.16,17.84-11.6,34.34-21.22,50.06L432,407.17,378,461c-9.22-9.34-19-19.27-28.83-29.17a23.74,23.74,0,0,0-2.52,1.11c-14.9,9-30.7,16-47.72,19.8-3.86.87-4.75,2.5-4.67,6.22.27,11.61.11,23.23.11,34.84,0,1.05-.1,2.09-.16,3.3H218.1v-3.76q0-18.13,0-36.27c0-1.79,0-3.08-2.35-3.62A169.45,169.45,0,0,1,164,431.76Z"/><path class="cls-3" d="M256.47,211.2H447.88a45.82,45.82,0,0,1,7.51.28,14.34,14.34,0,0,1,11.74,12.86,87.16,87.16,0,0,1,0,17.91c-.94,8.52-7.66,13.64-16.94,13.65q-57.45.06-114.91,0H91.13c-9.58,0-19.15,0-28.73,0-10.94,0-17.37-6.49-17.37-17.37,0-3.71,0-7.42,0-11.13.06-10,6.06-16.15,16.06-16.17q49.2-.11,98.39,0Z"/></svg>