<svg id="Layer_1" data-name="Layer 1" xmlns="http://www.w3.org/2000/svg" xmlns:xlink="http://www.w3.org/1999/xlink" viewBox="0 0 512 512"><defs><style>.cls-1{fill:url(#linear-gradient);}.cls-2{fill:url(#linear-gradient-2);}.cls-3{fill:url(#linear-gradient-3);}</style><linearGradient id="linear-gradient" x1="340.82" y1="108.28" x2="340.82" y2="418.87" gradientUnits="userSpaceOnUse"><stop offset="0" stop-color="#ffe266"/><stop offset="0.79" stop-color="#fcdc39"/></linearGradient><linearGradient id="linear-gradient-2" x1="163.32" y1="108.28" x2="163.32" y2="418.87" xlink:href="#linear-gradient"/><linearGradient id="linear-gradient-3" x1="163.03" y1="108.28" x2="163.03" y2="418.87" xlink:href="#linear-gradient"/></defs><title>Construction  ICONS</title><path class="cls-1" d="M431.76,374c8.5,3.46,18.85,4.49,21.91,9.76,3.59,6.19.84,16.05.84,25.9,10.52,0,20,.29,29.51-.08,8.74-.34,12.86,2.81,12.67,12.11-.4,19-.31,38,0,57,.12,8.59-3.55,11.8-12,11.78q-92.94-.27-185.87-.06c-7.75,0-11.78-2.52-11.66-11q.43-29.47,0-59c-.11-7.76,3.3-10.89,10.76-10.8,11.3.14,22.61,0,35.36,0,0-6.84.39-13.07-.09-19.24-.73-9.39,2.94-13.84,12.59-13.05,3.58.29,7.2,0,11.93,0,.93-18.16,1.88-35.35,2.66-52.54,2.29-50.57,4.68-101.13,6.52-151.72.18-5-2.86-10.19-4.92-15.08-1.26-3-4.61-5.46-5.07-8.46-1.88-12-11.1-16.11-20.29-20.89q-33.19-17.27-66-35.23c-11.71-6.4-22.94-14.57-37.39-1.28,0,7.14-.3,16.74.23,26.29.12,2.18,2.67,4.92,4.82,6.17,13.53,7.88,19.34,18.86,17,33-1.83,11-11.15,20.69-22.28,23.06-12.84,2.74-29.08-3.8-35.35-15.3-1.59-2.91.09-7.61.27-11.48,3.76.74,7.93.7,11.18,2.41,3.68,2,6.19,6.08,9.82,8.2,8.09,4.74,17.25,1.59,20.91-6.6,3.77-8.44-.33-19.43-9.43-20.57-11.37-1.44-12-7.89-11.72-16.64.36-10,.08-20,.08-30.58-2.83-1.12-5.55-2.12-8.2-3.27C193,79.36,183.29,62.61,185.18,43.51c1.62-16.43,14.66-30.79,31.49-34.69,18.05-4.17,35.65,3.49,45.87,18.82A34.3,34.3,0,0,0,276,39.49c35.1,16,70.44,31.48,105.83,46.83,4.09,1.77,8.94,2.24,13.47,2.44,17.24.72,30.05,8.64,37.52,23.94,7.7,15.75,5.26,30.76-4.84,45.16-3.09,4.4-5.29,10.65-5.09,15.94,2.5,65.23,5.51,130.43,8.42,195.65A41.28,41.28,0,0,0,431.76,374Zm49.35,51.35H302.52v49.41H481.11ZM381.73,173c-3.18,68.31-6.32,136-9.46,203.65h45.09c-3.23-68.41-6.42-136-9.61-203.65ZM262.6,72.29,352,119.88l16.11-23.73Q343.4,85.31,318.92,74.56c-16.59-7.29-33.17-14.6-49.86-22C266.73,59.72,264.79,65.62,262.6,72.29Zm132.67,86.56c14.7-.15,27.23-12.76,27.32-27.5a28.09,28.09,0,0,0-27.85-28,27.74,27.74,0,0,0-27.58,28.05C367.47,147.06,379.7,159,395.27,158.85ZM253.41,49.69c.11-15.47-11.43-27.23-26.75-27.26a27,27,0,1,0,26.75,27.26Zm186,343.15H348.58V409h90.87Z"/><path class="cls-2" d="M45.79,314.72C51,302.81,56,292,60.51,280.92c.79-1.94-.15-4.74-.73-7-.29-1.18-1.66-2.05-2.34-3.18C53.25,263.79,44,254,46,250.46c5.78-10.32,15.76-18.42,24.78-26.65,1.44-1.31,7.72.12,9.54,2.21,11.81,13.66,23.27,12.4,39.54,5.73,14.24-5.84,19.62-12.82,19.53-26.71-.06-10.08,5-14.33,15.16-13.38a138.64,138.64,0,0,0,20,.05c8.48-.44,12.66,3.61,12.57,11.72-.17,15.12,5.82,22.53,21.11,28.86,16.08,6.66,26.5,6.23,37.67-6,4.65-5.07,9.6-4.78,14.49.6,5.59,6.16,11.58,12,17.63,17.68,4.75,4.48,5.85,9.41.85,13.73-13.6,11.77-12.8,23.31-5.76,39.58,6,13.79,12.26,19.94,26.65,19.5,9.79-.29,14.72,4.85,13.34,15.14a64.17,64.17,0,0,0-.06,9c.22,25.34,1.1,21.72-22.46,24.84-8,1.07-12.26,3.27-14.18,11.61-1.68,7.32-5.34,14.33-9,21-2.66,4.86-2.26,8.05,1.17,12.39,18.62,23.56,18.69,17.09-2.86,39-12.08,12.29-12.75,12.85-25.5,1.4-8.59-7.71-16-10.52-25.76-3a16.75,16.75,0,0,1-8.18,3.54c-15.3,1.39-19,11.53-18.87,24.5.08,10.27-4.77,14.4-14.91,13.61a141.59,141.59,0,0,0-20,0c-8.5.53-13-3.61-12.76-11.54.53-16-6.59-23.1-21.84-29.29-15.08-6.13-25.29-6.74-36,5.35-5.13,5.79-10.57,5.77-16-.41-5.29-6-11.08-11.53-16.9-17-4.71-4.41-6.23-9.5-1.12-13.71,14.65-12.07,12-24.13,5.59-40.39-5.56-14.18-12.93-18.63-26.16-18.77-9.77-.1-14.62-4.62-13.67-15,.63-6.94.27-14,.07-21-.2-7.45,3.42-11,10.64-11.62C31.82,316.37,39.38,315.42,45.79,314.72ZM173.76,207c-18.89-3-18.9-3-21.44,12.26a52.81,52.81,0,0,0-1.06,6.9c-.24,7.4-3.94,10.78-11.11,13.08-11.62,3.72-22.52,9.66-34.1,13.55a20.24,20.24,0,0,1-14.26-.88c-6.31-3.24-11.55-8.56-17.09-12.88L61.32,251.5c4.64,6,8.58,11.75,13.19,16.89s4.56,9.48,1.1,15.89a176.43,176.43,0,0,0-14,33.84c-2.09,7.12-5.41,9.92-12.18,10.58s-13.59,1.87-20,2.79c-1.86,17.73-1.86,17.73,14.17,20.43a54.12,54.12,0,0,0,5.92.86c6.91.39,10.1,3.82,12.26,10.67a235.16,235.16,0,0,0,14,33.92c3,6,3.19,10.32-1.13,15.35-4.53,5.27-8.57,11-12.52,16.08l13.08,13.27c5.82-4.55,11.8-8.79,17.26-13.62,4.55-4,8.34-3.73,13.38-.67,7.07,4.28,14.44,9.81,22.21,10.84,18.8,2.48,25.7,12.75,25.52,30.46,0,2.08,4,5.42,6.58,6,3.92.91,8.29-.08,12.46-.26,1.07-7.76,2.05-14.34,2.86-20.93.78-6.33,3.9-9.49,10.35-11.55a226,226,0,0,0,33.95-13.95c6.41-3.28,10.94-3.11,16.19,1.38s10.83,8.37,16.23,12.5l13.22-12.66c-5.06-6.45-10.44-12.07-14.2-18.61-1.84-3.21-1.95-8.63-.59-12.19,3.05-8,9.91-15.2,10.92-23.25,2.33-18.63,12.32-25.52,29.75-24.76,5.77.25,7.48-3,7.11-8.21-.25-3.56,0-7.14,0-11-8.09-1.16-15.29-1.23-21.74-3.45-4.3-1.48-9-5.31-11-9.34A306.38,306.38,0,0,1,251,283.06c-1.37-4-1.14-9.78.81-13.44,3.38-6.34,8.67-11.66,13.3-17.59-2.42-2.56-4.4-4.79-6.52-6.88s-4.3-4-6.63-6.1c-3.78,2.91-7.23,5.5-10.63,8.17-12.79,10-12.75,10-27.16,2-3.77-2.1-7.62-5-11.68-5.47C180.75,241,169.86,229.76,173.76,207Z"/><path class="cls-3" d="M163.23,413.19c-40.53.11-72.31-31.41-72.44-71.87s31.47-72.44,71.82-72.62a72.25,72.25,0,1,1,.62,144.49Zm-.09-14.44a57.62,57.62,0,0,0,57.66-57.93c.06-32.14-26.6-58.17-59-57.66a57.8,57.8,0,0,0,1.37,115.59Z"/></svg>