<svg id="Layer_1" data-name="Layer 1" xmlns="http://www.w3.org/2000/svg" xmlns:xlink="http://www.w3.org/1999/xlink" viewBox="0 0 512 512"><defs><style>.cls-1{fill:url(#linear-gradient);}.cls-2{fill:url(#linear-gradient-2);}</style><linearGradient id="linear-gradient" x1="168.67" y1="43.21" x2="168.67" y2="433.35" gradientUnits="userSpaceOnUse"><stop offset="0" stop-color="#ffe266"/><stop offset="0.79" stop-color="#fcdc39"/></linearGradient><linearGradient id="linear-gradient-2" x1="385.57" y1="43.21" x2="385.57" y2="433.35" xlink:href="#linear-gradient"/></defs><title>Construction  ICONS</title><path class="cls-1" d="M202.14,265.11c18.53,0,36.85.35,55.16-.14,10.91-.28,14.69,4.3,14.6,14.92-.34,40,.23,80.05-.23,120.07-.63,54.09-47.21,99.88-101.36,100.31-56.25.44-103.1-42.89-104.4-97.94-1-41.25-.08-82.54-.38-123.82C65.45,268.05,70,264.7,80,265c18.25.53,36.54.15,55.61.15V100.63C122.12,92.87,108.32,86.13,96,77.27c-4.74-3.42-7.76-11.41-8.52-17.7-1.35-11.09-.18-22.47-.4-33.72-.18-8.94,4-13,12.78-12.95q68.79.09,137.58.06c8.06,0,12.31,3.4,12.08,12.1-.34,12.49.46,25-.34,37.5-.28,4.37-2.7,10.2-6.09,12.48-11.28,7.59-23.6,13.6-35.16,20.8-3.25,2-7.46,6-7.48,9.16-.34,52.11-.09,104.22.09,156.32C200.58,262.08,201.17,262.83,202.14,265.11Zm-119.61,18c0,40.62-2.32,80.28.58,119.56,3.73,50.39,43.07,82.54,92.27,79.9,45-2.41,78.84-41,78.87-90q0-46.24,0-92.48V283.22H200.18v14c0,18.33.81,36.72-.37,55-.54,8.2-3.45,17.29-8.17,23.92-7.71,10.81-22.89,13.81-35.06,8.56-12.47-5.37-20-15-20.09-29-.25-24-.07-48-.07-72.55Zm72-180.55c-.17,2.44-.49,4.91-.49,7.37q0,119.94,0,239.86c0,2.08-.77,4.89.28,6.12,3.95,4.65,8,11.44,13,12.34,4.24.77,10.8-4.56,14.32-8.85,2.41-2.94,1.77-8.71,1.78-13.22q.13-110.56.06-221.12c0-26.5,0-26.5-26.57-23.9C156.5,101.23,156.17,101.59,154.55,102.59ZM104.31,30.7c0,5.53.76,10.19-.14,14.49-3.34,16,5.84,23.86,18.46,29.5,27.1,12.09,55.49,13.74,82.68,3.24,31.46-12.14,28.8-12.72,25.39-47.23Z"/><path class="cls-2" d="M395,227.23v65.2c10.91,0,21.21.19,31.5-.05s12.94,4.61,11.76,14.14q-11,89.16-21.34,178.39c-1.21,10.45-5,16-16.46,15.34-11.21-.65-22.49-.16-33.73-.14-7.91,0-11.84-3.33-12.78-11.78q-10.17-91.17-21.08-182.27c-1.16-9.79,2.53-14,12.33-13.71s19.86.06,30.71.06V227.22c-12.23,0-24.19-.32-36.13.1-10.75.38-16-3.09-15.85-15,.46-45.82,0-91.64.25-137.46.21-35.1,27.69-62.54,61.69-62.27,33.7.27,60.79,27.18,61.06,61.6.37,46.24-.1,92.48.24,138.72.08,11-4.46,14.87-15,14.44C420.2,226.85,408.16,227.23,395,227.23Zm35.22-18c0-44.86.24-88.56-.08-132.25-.21-27.74-19-47.2-44.4-46.89s-43.73,20-43.85,47.62c-.15,38.76,0,77.52,0,116.28v15.24ZM399.45,481.9c6.91-57.21,13.77-113.94,20.68-171H351c6.62,57.51,13.13,114,19.7,171Z"/></svg>