<svg id="Layer_1" data-name="Layer 1" xmlns="http://www.w3.org/2000/svg" xmlns:xlink="http://www.w3.org/1999/xlink" viewBox="0 0 512 512"><defs><style>.cls-1{fill:url(#linear-gradient);}</style><linearGradient id="linear-gradient" x1="257.09" y1="84.06" x2="257.09" y2="494.7" gradientUnits="userSpaceOnUse"><stop offset="0" stop-color="#ffe266"/><stop offset="0.79" stop-color="#fcdc39"/></linearGradient></defs><title>Construction  ICONS</title><path class="cls-1" d="M489.17,185.23a7.63,7.63,0,0,0-7.61,7.61,13.33,13.33,0,0,1-12.93,12.94,12.83,12.83,0,0,1-12.94-12.94c0-7.61,5.33-12.93,12.94-12.93h0a7.63,7.63,0,0,0,7.61-7.61V78.7c14.45-3,24.35-16,24.35-31.19,0-18.27-13.7-32.72-31.2-32.72s-31.2,14.45-31.2,32.72a38.59,38.59,0,0,0,1.52,9.89l-210.77,245-4.57-18.27a21.64,21.64,0,0,0-6.09-10.65l-51.74-57.83c-6.09-6.09-13.7-9.89-22.83-9.89H61.53a7.63,7.63,0,0,0-7.61,7.61V390.68A50.62,50.62,0,0,0,13.6,440.14v6.09a51,51,0,0,0,51,51H319.49a51,51,0,0,0,51-51V440.9a51.27,51.27,0,0,0-46.42-51,76.43,76.43,0,0,0-9.13-36.52l146.86-261v73.81c-12.18,3-21.31,13.7-21.31,26.63A28.1,28.1,0,0,0,468.63,221c16,0,28.15-12.18,28.15-28.16A8.18,8.18,0,0,0,489.17,185.23ZM241.87,323c36.53,0,66.2,29.68,67,66.2H251.76c0-.76-16-61.63-17.5-66.2ZM78.27,472.1c-16,0-28.91-12.93-28.91-29.67a28.9,28.9,0,0,1,28.91-28.92c16,0,29.68,12.94,29.68,28.92A29.71,29.71,0,0,1,78.27,472.1Zm76.1,0c-16,0-28.92-12.93-28.92-29.67a28.91,28.91,0,0,1,28.92-28.92c16,0,29.67,12.94,29.67,28.92C183.28,459.17,170.35,472.1,154.37,472.1ZM197,326.77a8.65,8.65,0,0,1-6.09,2.28H92a7.63,7.63,0,0,1-7.61-7.61V243.83A7.63,7.63,0,0,1,92,236.22h48.7c2.28,0,4.57.76,5.33,2.28l47.93,53.26c.77,1.53,1.53,2.29,2.29,3.81l3,24.35Q199.26,324.48,197,326.77ZM230.46,472.1a29.71,29.71,0,0,1-29.68-29.67c0-16,12.94-28.92,29.68-28.92s28.91,12.94,28.91,28.92C259.37,459.17,246.44,472.1,230.46,472.1Zm105-28.91c0,16-12.94,29.67-28.92,29.67s-28.91-12.93-28.91-29.67a28.9,28.9,0,0,1,28.91-28.92C321.77,413.51,335.47,427.21,335.47,443.19Z"/></svg>