<svg id="Layer_1" data-name="Layer 1" xmlns="http://www.w3.org/2000/svg" xmlns:xlink="http://www.w3.org/1999/xlink" viewBox="0 0 512 512"><defs><style>.cls-1{fill:url(#linear-gradient);}.cls-2{fill:url(#linear-gradient-2);}.cls-3{fill:url(#linear-gradient-3);}.cls-4{fill:url(#linear-gradient-4);}.cls-5{fill:url(#linear-gradient-5);}.cls-6{fill:url(#linear-gradient-6);}</style><linearGradient id="linear-gradient" x1="360.73" y1="47.3" x2="360.73" y2="408.88" gradientUnits="userSpaceOnUse"><stop offset="0" stop-color="#ffe266"/><stop offset="0.79" stop-color="#fcdc39"/></linearGradient><linearGradient id="linear-gradient-2" x1="224.02" y1="47.3" x2="224.02" y2="408.88" xlink:href="#linear-gradient"/><linearGradient id="linear-gradient-3" x1="224.03" y1="47.3" x2="224.03" y2="408.88" xlink:href="#linear-gradient"/><linearGradient id="linear-gradient-4" x1="224.03" y1="47.3" x2="224.03" y2="408.88" xlink:href="#linear-gradient"/><linearGradient id="linear-gradient-5" x1="289.53" y1="47.3" x2="289.53" y2="408.88" xlink:href="#linear-gradient"/><linearGradient id="linear-gradient-6" x1="151.09" y1="47.3" x2="151.09" y2="408.88" xlink:href="#linear-gradient"/></defs><title>Construction  ICONS</title><path class="cls-1" d="M467.35,396.54A106.62,106.62,0,1,0,360.74,503.15,106.62,106.62,0,0,0,467.35,396.54Zm-155,16.58,93.61-99-36.49,65.92,42.37-11.25L309.66,478.92l45.25-77.12Z"/><path class="cls-2" d="M223.85,433.47h.36c8-19.64,15.82-45.11,22.4-70.59A353.94,353.94,0,0,0,235,312.81c2.55-7.26,8.4-14.93,9.51-21.87,1.17-7.28-1.28-12.24-5-16.86-1.54-1.91-4.06-2.67-5.83-1.31l-6.38,4.42a5.56,5.56,0,0,1-6.42,0l-6.38-4.42c-1.77-1.36-4.28-.6-5.84,1.31-3.73,4.63-6.19,9.58-5,16.86,1.11,6.94,7,14.61,9.51,21.88a356.67,356.67,0,0,0-11.65,50.05C208,388.35,215.82,413.83,223.85,433.47Z"/><path class="cls-3" d="M287.23,210.35a133.32,133.32,0,0,0,3.32-15.21,20.82,20.82,0,0,0,10.75-10.85c2.93-6.87,4.49-21.79,4.55-22.43,1.22-11.74.52-19.24-2.5-24.42a7.7,7.7,0,0,0-5.84-3.45l-3.18.11c-4.47,0-9.08,2-10.51,4.42,0,.07-.12.12-.16.19-.3,6.29-.76,11.13-.76,11.13-.11.84,1.14,1.44,1.73.16,1-2.09,3.52-10.07,7.1-10.31,2.4-.12,3.92,2.57,4.33,3.9.68,2.24,1.22,6.72.25,16.06-.82,8.1-2.55,17.15-3.83,20.17A6.31,6.31,0,0,1,288,183.5c-6.07,1.65-7.44,5.29-7.71,7.31a145.55,145.55,0,0,1-3.93,19.34c-3.24,11.12-23.68,37.28-48.63,37.51-1.24,0-6.76.05-8.28,0-24.1-.76-44.23-25.17-47.82-37.5A137.31,137.31,0,0,1,168,192.58c-.1-.61-.19-1.22-.26-1.77-.27-2-1.64-5.66-7.71-7.31a6.29,6.29,0,0,1-4.45-3.68c-1.28-3-3-12.07-3.84-20.17-1-9.34-.42-13.82.26-16.06.41-1.33,1.94-4,4.34-3.9,3.57.24,6.11,8.22,7.09,10.31.58,1.27,1.84.68,1.72-.16,0,0-.34-4.8-.65-11-.07-.1-.21-.19-.27-.31-1.43-2.4-6-4.43-10.51-4.43h-3.23a7.77,7.77,0,0,0-5.87,3.45c-3,5.19-3.62,12.66-2.42,24.32.06.64,1.62,15.56,4.55,22.45a20.87,20.87,0,0,0,10.74,10.83,135.45,135.45,0,0,0,3.34,15.21c4.57,15.68,28,44.19,58.5,45.17.76,0,2.52,0,4.27,0h4C258.19,255.24,282.68,226,287.23,210.35Z"/><path class="cls-4" d="M191.18,76.93,180.91,26.07c-.5-2.47-2.63-3.4-4.69-1.94A82.14,82.14,0,0,0,142.08,82c-.56,5-2.9,9.14-5.84,9.14s-5.36,4.07-5.36,9.13v16a9.17,9.17,0,0,0,9.18,9.15h4.49c5.06,0,10.27,2.47,11.88,5.39a7.93,7.93,0,0,0,3.15,2.82c2.07,1.14,5.12,3.36,7.37,4.52,8.39,4.32,30.76,7.43,57.08,7.43s48.68-3.1,57.08-7.43c2.25-1.16,5.29-3.38,7.36-4.52a7.72,7.72,0,0,0,3.15-2.82c1.61-2.92,6.83-5.39,11.9-5.39H308a9.16,9.16,0,0,0,9.17-9.15v-16c0-5.06-2.4-9.13-5.35-9.13S306.53,87.05,306,82a82.17,82.17,0,0,0-34.11-57.88c-2.05-1.47-4.2-.54-4.69,1.93L256.91,76.93c-2,9.92-4.67,17.76-6,17.56S249.67,86,251,76l7.22-54.84a6.29,6.29,0,0,0-3.6-6.35,81.86,81.86,0,0,0-61.13,0,6.29,6.29,0,0,0-3.6,6.35L197.1,76c1.32,10,1.34,18.28,0,18.51S193.17,86.85,191.18,76.93Z"/><path class="cls-5" d="M265.89,326.28a118.38,118.38,0,0,1,47.31-37.79c1.93-.85,1.95-2.18,0-3.06l-11-5c-3.13-2-20-19.09-20-19.09-1.49-1.74-3.31-2.8-4.72-2.62s-2.64,1.35-2.66,4.59V264c.9,8.83-3.25,33.3-10.21,61.68C264.09,327.73,264.64,328,265.89,326.28Z"/><path class="cls-6" d="M51.37,339.7l-6,98.08c-1,9.61,4,17.41,11,17.41H254.5c2.11,0,3-1.49,2-3.34a117.07,117.07,0,0,1-13.65-50.35c-.09-2.1-.7-2.21-1.46-.25-5.61,14.49-11.48,27.08-17.26,35.84-25.62-38.6-53-151.68-50.85-173.09v-.67c0-3.24-1.16-4.54-2.65-4.59s-3.23.87-4.74,2.62l-20.16,19.33c-1.33.83-80.45,36.21-80.45,36.21C58.54,319.87,52.32,330.08,51.37,339.7Z"/></svg>