<svg id="Layer_1" data-name="Layer 1" xmlns="http://www.w3.org/2000/svg" xmlns:xlink="http://www.w3.org/1999/xlink" viewBox="0 0 512 512"><defs><style>.cls-1{fill:none;}.cls-2{fill:url(#linear-gradient);}.cls-3{fill:url(#linear-gradient-2);}.cls-4{fill:url(#linear-gradient-3);}</style><linearGradient id="linear-gradient" x1="174.11" y1="87.94" x2="174.11" y2="501.04" gradientUnits="userSpaceOnUse"><stop offset="0" stop-color="#ffe266"/><stop offset="0.79" stop-color="#fcdc39"/></linearGradient><linearGradient id="linear-gradient-2" x1="345.28" y1="87.94" x2="345.28" y2="501.04" xlink:href="#linear-gradient"/><linearGradient id="linear-gradient-3" x1="425.79" y1="87.94" x2="425.79" y2="501.04" xlink:href="#linear-gradient"/></defs><title>Construction  ICONS</title><path class="cls-1" d="M183.5,152a58.88,58.88,0,1,0,49.65,66.85A58.95,58.95,0,0,0,183.5,152Z"/><path class="cls-2" d="M325.41,229.63a131.84,131.84,0,0,1-33.9-11.09A116.13,116.13,0,0,0,289,186a133.15,133.15,0,0,1,31.76-16.29,8.25,8.25,0,0,0,4.47-11.93l-12.86-22.12-3.81-6.55-12.87-22.12a8.25,8.25,0,0,0-12.58-2,133.23,133.23,0,0,1-29.77,19.52,116.38,116.38,0,0,0-27.16-18.39,132.37,132.37,0,0,1,7.12-34.86,8.24,8.24,0,0,0-6.54-10.93l-25.31-3.73-7.49-1.11L168.6,51.69a8.25,8.25,0,0,0-9.42,8.58,132.07,132.07,0,0,1-3.25,35.42,116.71,116.71,0,0,0-31.3,9.77,132.8,132.8,0,0,1-22.88-27.28,8.24,8.24,0,0,0-12.62-1.7L70.42,94l-5.53,5.16L46.18,116.58A8.24,8.24,0,0,0,47,129.29a132.8,132.8,0,0,1,25.7,24.77,116.09,116.09,0,0,0-11.85,30.46,132.18,132.18,0,0,1-35.65.84,8.23,8.23,0,0,0-9.2,8.8l2,25.52.59,7.55,2,25.51A8.25,8.25,0,0,0,31.05,260a132.36,132.36,0,0,1,35.38-4.72,117.31,117.31,0,0,0,16.46,28.3A132.41,132.41,0,0,1,61.29,312a8.24,8.24,0,0,0,1.15,12.68l21.19,14.35,6.27,4.25,21.19,14.35A8.25,8.25,0,0,0,123.3,354a132.26,132.26,0,0,1,18.38-30.62,116.26,116.26,0,0,0,16,3.65,118,118,0,0,0,16.37,1.13,132,132,0,0,1,8.76,34.62,8.25,8.25,0,0,0,10.64,7l24.43-7.62,7.23-2.26,24.43-7.62a8.24,8.24,0,0,0,4.76-11.81A132.54,132.54,0,0,1,241.83,307a117.37,117.37,0,0,0,23.93-22.34,132.25,132.25,0,0,1,32.51,14.73,8.24,8.24,0,0,0,12.11-3.95l9.27-23.85,2.75-7.06,9.27-23.85A8.24,8.24,0,0,0,325.41,229.63Zm-92.26-10.79A58.88,58.88,0,1,1,183.5,152,58.94,58.94,0,0,1,233.15,218.84Z"/><path class="cls-3" d="M422.31,408.85a67.68,67.68,0,0,1-17.26-5.65,58.65,58.65,0,0,0-1.3-16.59,67.68,67.68,0,0,1,16.17-8.3,4.19,4.19,0,0,0,2.28-6.07L415.65,361l-1.94-3.34-6.55-11.26a4.2,4.2,0,0,0-6.41-1,67.64,67.64,0,0,1-15.16,9.93,59.21,59.21,0,0,0-13.82-9.36,67.72,67.72,0,0,1,3.62-17.75,4.18,4.18,0,0,0-3.33-5.56l-12.89-1.9-3.81-.57-12.89-1.9a4.19,4.19,0,0,0-4.79,4.37,67.42,67.42,0,0,1-1.66,18,59.32,59.32,0,0,0-15.93,5,67.57,67.57,0,0,1-11.65-13.89,4.2,4.2,0,0,0-6.43-.87l-9.52,8.89-2.82,2.64-9.52,8.89a4.19,4.19,0,0,0,.42,6.47,67.89,67.89,0,0,1,13.09,12.61,59,59,0,0,0-6,15.51,67.6,67.6,0,0,1-18.16.43,4.19,4.19,0,0,0-4.68,4.48l1,13,.3,3.84,1,13a4.19,4.19,0,0,0,5.32,3.7,67.23,67.23,0,0,1,18-2.4,60.05,60.05,0,0,0,8.38,14.4,67,67,0,0,1-11,14.47,4.2,4.2,0,0,0,.58,6.46l10.79,7.31,3.2,2.16,10.78,7.3a4.2,4.2,0,0,0,6.22-1.85,67.46,67.46,0,0,1,9.36-15.59,58.71,58.71,0,0,0,8.14,1.86,57.5,57.5,0,0,0,8.34.57,67.56,67.56,0,0,1,4.46,17.63,4.19,4.19,0,0,0,5.41,3.57l12.44-3.88,3.68-1.15,12.44-3.88a4.2,4.2,0,0,0,2.43-6,67.11,67.11,0,0,1-6.35-17,59.75,59.75,0,0,0,12.18-11.38,67.5,67.5,0,0,1,16.55,7.5,4.2,4.2,0,0,0,6.17-2l4.72-12.14,1.4-3.59,4.72-12.15A4.19,4.19,0,0,0,422.31,408.85ZM342.5,420.57a21.82,21.82,0,1,1,24.77-18.4A21.85,21.85,0,0,1,342.5,420.57Z"/><path class="cls-4" d="M495.07,253.85a60.74,60.74,0,0,1-15.53-5.07,53.28,53.28,0,0,0-1.16-14.93,61,61,0,0,1,14.54-7.46,3.78,3.78,0,0,0,2.05-5.46l-5.9-10.13-1.74-3-5.89-10.13a3.77,3.77,0,0,0-5.76-.92,61,61,0,0,1-13.63,8.94,53.21,53.21,0,0,0-12.44-8.42,60.9,60.9,0,0,1,3.26-16,3.77,3.77,0,0,0-3-5l-11.59-1.71-3.43-.5-11.6-1.71A3.77,3.77,0,0,0,419,176.3a60.38,60.38,0,0,1-1.49,16.23A53.1,53.1,0,0,0,403.13,197a61,61,0,0,1-10.47-12.49,3.77,3.77,0,0,0-5.78-.78l-8.57,8-2.53,2.36-8.57,8a3.78,3.78,0,0,0,.38,5.82,60.46,60.46,0,0,1,11.77,11.34,53.23,53.23,0,0,0-5.42,13.95,60.36,60.36,0,0,1-16.33.38,3.77,3.77,0,0,0-4.21,4l.91,11.69.27,3.45.91,11.69a3.78,3.78,0,0,0,4.79,3.33,60.46,60.46,0,0,1,16.2-2.16A53.89,53.89,0,0,0,384,278.56a60.44,60.44,0,0,1-9.89,13,3.78,3.78,0,0,0,.53,5.81l9.7,6.57,2.87,1.94,9.71,6.57a3.76,3.76,0,0,0,5.58-1.66,60.56,60.56,0,0,1,8.42-14,53.46,53.46,0,0,0,7.33,1.67,52.77,52.77,0,0,0,7.49.51,60.34,60.34,0,0,1,4,15.86,3.77,3.77,0,0,0,4.87,3.2l11.19-3.48,3.31-1L460.33,310a3.78,3.78,0,0,0,2.18-5.41,60.63,60.63,0,0,1-5.71-15.31,53.7,53.7,0,0,0,11-10.23,60.67,60.67,0,0,1,14.88,6.75,3.79,3.79,0,0,0,5.55-1.81l4.24-10.92,1.26-3.23,4.25-10.93A3.78,3.78,0,0,0,495.07,253.85ZM423.29,264.4a19.63,19.63,0,1,1,22.28-16.56A19.65,19.65,0,0,1,423.29,264.4Z"/></svg>