<svg id="Layer_1" data-name="Layer 1" xmlns="http://www.w3.org/2000/svg" xmlns:xlink="http://www.w3.org/1999/xlink" viewBox="0 0 512 512"><defs><style>.cls-1{fill:url(#linear-gradient);}.cls-2{fill:url(#linear-gradient-2);}.cls-3{fill:url(#linear-gradient-3);}.cls-4{fill:url(#linear-gradient-4);}.cls-5{fill:url(#linear-gradient-5);}.cls-6{fill:url(#linear-gradient-6);}.cls-7{fill:url(#linear-gradient-7);}.cls-8{fill:url(#linear-gradient-8);}.cls-9{fill:url(#linear-gradient-9);}.cls-10{fill:url(#linear-gradient-10);}</style><linearGradient id="linear-gradient" x1="256.32" y1="67.72" x2="256.32" y2="475.5" gradientUnits="userSpaceOnUse"><stop offset="0" stop-color="#ffe266"/><stop offset="0.79" stop-color="#fcdc39"/></linearGradient><linearGradient id="linear-gradient-2" x1="131.5" y1="67.72" x2="131.5" y2="475.5" xlink:href="#linear-gradient"/><linearGradient id="linear-gradient-3" x1="380.92" y1="67.72" x2="380.92" y2="475.5" xlink:href="#linear-gradient"/><linearGradient id="linear-gradient-4" x1="260.53" y1="67.72" x2="260.53" y2="475.5" xlink:href="#linear-gradient"/><linearGradient id="linear-gradient-5" x1="81.66" y1="67.72" x2="81.66" y2="475.5" xlink:href="#linear-gradient"/><linearGradient id="linear-gradient-6" x1="432.17" y1="67.72" x2="432.17" y2="475.5" xlink:href="#linear-gradient"/><linearGradient id="linear-gradient-7" x1="256.22" y1="67.72" x2="256.22" y2="475.5" xlink:href="#linear-gradient"/><linearGradient id="linear-gradient-8" x1="150.75" y1="67.72" x2="150.75" y2="475.5" xlink:href="#linear-gradient"/><linearGradient id="linear-gradient-9" x1="369.4" y1="67.72" x2="369.4" y2="475.5" xlink:href="#linear-gradient"/><linearGradient id="linear-gradient-10" x1="425.59" y1="67.72" x2="425.59" y2="475.5" xlink:href="#linear-gradient"/></defs><title>Construction  ICONS</title><path class="cls-1" d="M219.78,223.35C228,202,236.19,180.76,244.72,158.6c-24.37-5.83-42.92-18.48-53.82-40.8-7.69-15.74-9.17-32.19-5.08-49.14,8-33.17,39.34-56.32,74.15-54.86,34.48,1.46,63.64,28.29,68.46,63,5.18,37.28-16.1,66.74-60,82.12,8.65,20.38,17.15,40.77,26.12,61,.86,1.92,4.6,3.59,7,3.63,16.8.32,33.61.17,51.44.17,4.8-25.52,17.48-45.55,41.22-57.26,15.7-7.74,32.13-9.23,49.13-5.21,33.12,7.82,56.45,39.14,55.08,74-1.34,34.14-27.23,62.85-61.78,68.52-36.26,5.95-66.45-14.51-82.76-56.94l-37.31,25.94c11.47,27.14,22.91,54.24,34.66,82.05,23.75-4.69,45.54-.62,64.37,14.93,13.75,11.35,22.06,26,25.32,43.54,6.21,33.39-13.23,67.65-45.53,80.21a72.66,72.66,0,0,1-86.92-28.27c-21.88-33.54-14.5-66.8,23.38-103.28-23.29-15.52-46.39-31-69.72-46.18-1.79-1.16-5.9-.7-7.84.61-22,14.91-43.71,30.13-66.44,45.9,21,14.39,34,33.12,35.89,58.3,1.31,17.79-3.56,34-14.17,48.31A72.6,72.6,0,0,1,82,404c11.34-36.2,44.35-55.22,87.21-49.34,10.13-26.2,20.37-52.7,31.13-80.52l-41.58-27.72c-16.84,43.7-47.79,64.09-85.13,56.71-35.35-7-59.9-36.81-59.55-72.34.35-35.18,26.2-65,61.41-70.86,38.91-6.47,67.27,14.74,84.51,63.42ZM256.06,29.92a56.47,56.47,0,1,0,56.73,56.21A56.44,56.44,0,0,0,256.06,29.92Zm-48.24,396c.16-31.18-25.17-56.84-56.12-56.85A56.49,56.49,0,1,0,151,482C182,482.36,207.66,457,207.82,425.9Zm161.67-56.81c-30.61-.21-56.16,24.79-56.56,55.33-.4,31.44,24.31,57.17,55.31,57.58a56.46,56.46,0,1,0,1.25-112.91ZM482.4,231.57a56.5,56.5,0,1,0-56.32,56.68A56.6,56.6,0,0,0,482.4,231.57ZM295.85,267.42c-7.83-27.59-7.83-27.59-34.7-27.6h-3c-27.9,0-27.9,0-37.19,26a10.21,10.21,0,0,0,0,2.57c10.9,7.27,21.94,14.87,33.3,22,2,1.23,6,1.47,7.85.28C273.59,283.15,284.75,275.13,295.85,267.42ZM143.22,218.51c-3.32-3-5.82-5.91-8.91-7.9s-6.61-3.86-10.11-4.23c-6.3-.66-13.68-2.19-18.91.27-13,6.12-24.65,6-37.55-.29-4.92-2.39-12-1-18-.2-3.83.48-7.73,2.43-11,4.59-3,2-5.22,5.15-8,8,14.68,9.47,27.1,10.51,41.75,4,8-3.54,20.1-3.62,28.11-.12C115.13,229,127.61,228.41,143.22,218.51ZM36.57,259.62c15.32-10.24,29-9.25,43.23-1.47,3.54,1.93,9.91,2.14,13.36.22,14.45-8,28.47-8.84,43.78.9,2.3-7.56,4.25-13.95,7-23.07-17.68,10.09-32.48,8.91-47.83,1.78-4.92-2.29-12.58-2.75-17.35-.53-15.83,7.36-31.18,9-49.17-.83Zm236.48,43.51L323.82,337l1.78-1.36c-7.45-17.6-14.91-35.19-22.65-53.44Zm-79.19,32.79,1.29,1.56,49-34.14-30-19.95C207.07,301.67,200.46,318.79,193.86,335.92Zm43.42-112.69H278c-7-16.49-13.63-32.31-21.34-50.57C249.71,190.84,243.66,206.61,237.28,223.23ZM48.11,272c22.39,21.86,61.34,21.26,76.49-.64-6.52-4.69-13.07-4.16-19.72-.36-12.14,6.93-24.2,6.91-36.36-.11C62,267.15,55.32,266.62,48.11,272Zm70.08-86.48C103,171,66.12,172.18,56.1,185.71c7,2.38,14.4,5.61,22.09,7.21a43.39,43.39,0,0,0,17.29-.11C103.18,191.2,110.57,188.06,118.19,185.55Zm63.71,54.57-.75,1.8,25.17,16.56c2.51-6.76,4.52-12.21,6.8-18.36Zm128.22,17.32,24.25-17.11H303.24C305.56,246.11,307.61,251.18,310.12,257.44Z"/><path class="cls-2" d="M163.89,76.64c2.63,5.08,4.73,9.15,7.31,14.15A193.32,193.32,0,0,0,105,148.24L91.8,139C111.13,112.51,134.33,92,163.89,76.64Z"/><path class="cls-3" d="M348.75,76.58C378,92,401.36,112.11,420.39,138.49c-2,1.77-3.88,3.52-5.88,5.07-1.84,1.42-3.84,2.61-6.84,4.61a193,193,0,0,0-66.22-57.35Z"/><path class="cls-4" d="M236.19,456.08c.62-4.9,1.19-9.45,1.88-14.88h44.1c.73,4,1.56,8.53,2.71,14.88Z"/><path class="cls-5" d="M98.54,355.42l-13.65,8.52c-6.71-13.86-13.16-27.19-20.12-41.55L80,317.22C86.06,329.76,92,342,98.54,355.42Z"/><path class="cls-6" d="M447.68,322.32c-5.95,12.79-11.38,24.44-17.18,36.9l-13.85-8.13c5.38-11.56,10.4-22.36,15.79-34Z"/><path class="cls-7" d="M264.78,110.59c-.28,5.89-.5,10.48-.75,15.6h-15.3c-.27-4.66-.54-9.5-.89-15.59-5.24,0-10.19.34-15.08-.08-7.25-.63-10.51-4.88-7.68-11.78q11.28-27.48,23.48-54.6c1.17-2.59,4.89-5.79,7.22-5.64,2.94.2,7,2.94,8.26,5.66,8.09,17.71,15.7,35.65,23.11,53.66,3.2,7.77.07,12.23-8.34,12.73C274.49,110.81,270.15,110.59,264.78,110.59ZM244.63,93.91h23.3c-3.82-9-7.25-17.08-11.57-27.25Z"/><path class="cls-8" d="M151.1,465.52c-10.64,2.62-15.37-2.57-18-12.26-3.58-12.93-8.73-25.43-12.23-38.38-1-3.76-.07-9.53,2.33-12.45,6.37-7.75,14.06-14.42,21.14-21.59,4.65-4.71,9.24-5,14-.19.47.48,1,.94,1.45,1.4C185.13,406,185.13,406,174,439.56c-1.38,4.15-3.1,8.22-4,12.47C167.77,462.5,162.68,468.6,151.1,465.52Zm-1.87-15.41,4.09,0L162,424.51H140.77Zm2-53.57-9.31,10.37h16.93l.71-2.44Z"/><path class="cls-9" d="M359.31,410.22c3.59-9.4,6.25-17.71,10-25.49,1.49-3.11,5.39-7,8.19-7s6.94,3.87,8.17,7c7.95,19.92,15.4,40,22.73,60.19,3,8.36-.16,12.8-9.3,12.9q-29.7.36-59.38,0c-9-.09-11.66-3.75-9.9-13,2.07-10.86,4.31-21.7,6.63-32.52,2.61-12.15,7.41-13.92,17.06-6.48C355.08,407,356.67,408.21,359.31,410.22Zm-12.18,31h42.62c-4-10.55-7.63-20.29-12-32-3.56,8.07-4.72,16.13-9.28,19.35-4,2.8-11.81.13-18.82-.16Z"/><path class="cls-10" d="M433.11,204c9-8.57,14.62-3.39,20,4.55,9,13.35,16.93,26.83,11.26,43.9-3.46,10.4-10.2,17.93-21.18,19a152,152,0,0,1-33,0c-18.31-2.17-30.22-20-23.13-38,5.58-14.22,16.08-26.62,25.34-39.14,1.37-1.84,8.39-.92,11.93.67C427.65,196.45,429.88,200.49,433.11,204ZM416.5,211.5c-4.83,8.08-10,14.87-13.18,22.47-5.78,13.68,1,22.57,15.67,22,4.63-.19,9.32-.82,13.88-.33,11.94,1.27,19.06-5.27,16.84-17.17-1.12-6-4.51-11.63-7.38-18.66C428.19,233.87,425.23,217.44,416.5,211.5Z"/></svg>