<svg id="Layer_1" data-name="Layer 1" xmlns="http://www.w3.org/2000/svg" xmlns:xlink="http://www.w3.org/1999/xlink" viewBox="0 0 512 512"><defs><style>.cls-1{fill:url(#linear-gradient);}.cls-2{fill:url(#linear-gradient-2);}.cls-3{fill:url(#linear-gradient-3);}.cls-4{fill:url(#linear-gradient-4);}.cls-5{fill:url(#linear-gradient-5);}.cls-6{fill:url(#linear-gradient-6);}</style><linearGradient id="linear-gradient" x1="325.98" y1="43.21" x2="325.98" y2="427.21" gradientUnits="userSpaceOnUse"><stop offset="0" stop-color="#ffe266"/><stop offset="0.79" stop-color="#fcdc39"/></linearGradient><linearGradient id="linear-gradient-2" x1="274.11" y1="43.21" x2="274.11" y2="427.21" xlink:href="#linear-gradient"/><linearGradient id="linear-gradient-3" x1="438.67" y1="43.21" x2="438.67" y2="427.21" xlink:href="#linear-gradient"/><linearGradient id="linear-gradient-4" x1="430.26" y1="43.21" x2="430.26" y2="427.21" xlink:href="#linear-gradient"/><linearGradient id="linear-gradient-5" x1="126.85" y1="43.21" x2="126.85" y2="427.21" xlink:href="#linear-gradient"/><linearGradient id="linear-gradient-6" x1="133.82" y1="43.21" x2="133.82" y2="427.21" xlink:href="#linear-gradient"/></defs><title>Construction  ICONS</title><path class="cls-1" d="M420.9,132.09,421,60.84l-31.82,0-.08,70.29H253.76A34.74,34.74,0,0,0,219,165.84V497.45h44.84V347.34h21.6V497.45h43.74V170.3h85.17c10.24,0,18.55-7,18.55-15.66v-7.9C432.93,140,427.92,134.32,420.9,132.09Zm-15.88,19a6.05,6.05,0,0,1-6-6,6,6,0,0,1,12.06,0A6,6,0,0,1,405,151.07Z"/><circle class="cls-2" cx="274.11" cy="60.31" r="45.76"/><polygon class="cls-3" points="449.34 72.06 427.99 130.53 439.02 68.29 449.34 72.06"/><polygon class="cls-4" points="425.58 117.37 425.63 62.94 434.95 64.59 425.58 117.37"/><path class="cls-5" d="M160.8,202.44a5.49,5.49,0,0,0,.11-1,5.42,5.42,0,0,0-10.74-1.05l-10,51.18H98.2a5.42,5.42,0,0,0,0,10.83h5l-3.67,38.31h7.58l2.05-21.46h29.72L143,300.67h7.68l-7.28-38.31H149Zm-23.11,70.65h-28l1-10.73h24.89Z"/><path class="cls-6" d="M179.37,129.32H88.27a25,25,0,0,0-25,25V330.89H184.81V178.68a25,25,0,0,0-5.44-49.36ZM173.92,320H74.19V154.3A14.08,14.08,0,0,1,102,151.19l-1.43-.18-4.68-.53-3.15-.29L91.05,150c-.32,0-.54-.06-1-.06l-1.38,0a13.62,13.62,0,0,0-1.42.13l-1.39.37a10.72,10.72,0,0,0-2.7,1.15,14.49,14.49,0,0,0-4.37,3.92,17.15,17.15,0,0,0-1.48,2.52,18.88,18.88,0,0,0-1,3.16l-.1.39,0,.23-.08.48-.14.94,0,.22,0,.06v.76l0,.7c0,.47.06.93.1,1.38a14.52,14.52,0,0,0,1.54,5.14,11.14,11.14,0,0,0,1.35,2.17,9.54,9.54,0,0,0,1.6,1.8A11,11,0,0,0,82.28,177c.62.38,1.23.73,1.78,1a16.47,16.47,0,0,0,3.83,1.16l.37,0v.08h85.65V320ZM89.1,167.89a1.21,1.21,0,0,0-.37-.25c-.14,0-.22-.25-.37-.34a1.35,1.35,0,0,1-.4-.45,2.14,2.14,0,0,1-.39-.56,5.13,5.13,0,0,1-.61-1.46c0-.14,0-.28-.08-.44l-.06-.22,0-.06h0l0-.76,0-.47v-.24c0-.06,0,0,0-.07s0-.24.09-.5.17-.63.33-.89a4.71,4.71,0,0,1,1.08-1.46,2.83,2.83,0,0,1,.68-.5,2.2,2.2,0,0,0,.38-.24c.12-.06.26-.06.39-.11a2.37,2.37,0,0,0,.4-.15c.19-.05.56-.06.84-.1.58,0,1.15-.09,1.7-.15l3.15-.28,4.67-.53,1.42-.18a14.13,14.13,0,0,1-11.91,10.78l-1-.16c0-.06,0-.12,0-.15a0,0,0,0,0,0,0S89.12,167.92,89.1,167.89Zm90.27.5H108.88a24.9,24.9,0,0,0,0-28.18h70.49a14.09,14.09,0,0,1,0,28.18Z"/></svg>