<svg id="Layer_1" data-name="Layer 1" xmlns="http://www.w3.org/2000/svg" xmlns:xlink="http://www.w3.org/1999/xlink" viewBox="0 0 512 512"><defs><style>.cls-1{fill:url(#linear-gradient);}</style><linearGradient id="linear-gradient" x1="256.32" y1="39.13" x2="256.32" y2="439.6" gradientUnits="userSpaceOnUse"><stop offset="0" stop-color="#ffe266"/><stop offset="0.79" stop-color="#fcdc39"/></linearGradient></defs><title>Construction  ICONS</title><path class="cls-1" d="M422.27,270.29a55.12,55.12,0,1,0,55.11,55.12A55.18,55.18,0,0,0,422.27,270.29Zm0,80.22a25.11,25.11,0,1,1,25.1-25.1A25.1,25.1,0,0,1,422.27,350.51ZM235.44,307.32a36.6,36.6,0,1,0,36.6,36.6A36.64,36.64,0,0,0,235.44,307.32Zm0,54.89a18.31,18.31,0,1,1,18.29-18.3A18.32,18.32,0,0,1,235.44,362.21ZM493.08,257.49a4.91,4.91,0,0,0-1.95-3L456,229.19l-2.74-57.89H459a4.95,4.95,0,0,0,3.47-8.48L452,147.24a5,5,0,0,0-4.11-2.2H417.57a15.52,15.52,0,0,0-30.8,0H328.84a4.93,4.93,0,0,0-4.44,2.78l-7.86,16.11A4.94,4.94,0,0,0,321,171h4.45a45.69,45.69,0,0,0-1.68,11.58l.24,39.56-25.83,4.15V174.6a3,3,0,0,0-.69-1.9l-10.31-12.37a3,3,0,0,0-4.56,3.8l9.62,11.55v51.61l-.74.11-104.2,15.19a4.55,4.55,0,0,0-3,1.72L163.8,270.4l-9.31-24.2h0a10.15,10.15,0,0,0-19,0l-31.64,65.93L83.52,291.28a4.85,4.85,0,0,0-3.5-1.49H65.59a4.9,4.9,0,0,0-4.9,4.9v22.24L44.94,333.11l-26.83.23a4.91,4.91,0,0,0-3,8.72l26.56,21.39a4.8,4.8,0,0,0,2,1l44.08,10.31a4.76,4.76,0,0,0,1.12.13,4.82,4.82,0,0,0,2.57-.74l35.24-21.73a11.87,11.87,0,0,0,1.15-.73,13.33,13.33,0,0,0,4.86-4.34,4.25,4.25,0,0,0,1-.69l50.75-53.55v25.34a5,5,0,0,0,4.94,4.94h8.52a5.21,5.21,0,0,0,.55-.08,4.89,4.89,0,0,0,3.56-2.21,5.93,5.93,0,0,0,.4-.62c0-.1.21-.45.53-1a.1.1,0,0,0,0,0c.14-.24.31-.53.5-.83s.4-.61.64-1l.1-.15c3.29-4.71,11.56-13.56,27.84-15.11a2.88,2.88,0,0,1,.33,0c1.45-.13,3-.2,4.55-.2H237c20,0,30.53,12.13,36,23.22a56.58,56.58,0,0,1,4.66,17.42,4.9,4.9,0,0,0,4,4.43,5.09,5.09,0,0,0,2,.42h0l72.79-.25h.11a5,5,0,0,0,4.95-4.95,5.16,5.16,0,0,0-.24-1.53c-.4-5-1.59-28.34,7.89-47.49,6.68-13.48,21.47-29.53,54.15-29.53,39.14,0,51,26.07,51.51,27.16a5.11,5.11,0,0,0,4.67,3l15.08-.39a4.93,4.93,0,0,0,4.72-5.94ZM153,256l7.27,18.9-2.38,3L147.12,262l1.56-2.73A10.28,10.28,0,0,0,153,256Zm-8-10.39a4.25,4.25,0,1,1-4.24,4.25A4.26,4.26,0,0,1,145,245.6Zm-8.48,9.85a10.13,10.13,0,0,0,6.28,4.32L109.53,318l-2-2.08Zm-15.88,89.42a6.12,6.12,0,1,1,6.12-6.11A6.11,6.11,0,0,1,120.61,344.87Zm.89-20.68c-.3,0-.59-.1-.89-.1a14.41,14.41,0,0,0-4.37.75l-3.16-3.24,31.34-54.82L154.72,282Zm62.86-44.62L134,332.76a14.62,14.62,0,0,0-3.58-4.86l54-68.64Zm217.8-142.15A9.67,9.67,0,0,1,411.6,145H392.74A9.65,9.65,0,0,1,402.16,137.42Zm-70.23,17.51H445.27l4.15,6.21H328.9Zm94.82,32.29a9.28,9.28,0,0,0-12.49,4l-6.62,12.91V171h35.67L446,226.91H416.79l14-27.2A9.28,9.28,0,0,0,426.75,187.22Zm-93.1-4.49c.2-6.33,1.48-9.94,2.33-11.69h61.76v55.87H333.82a3.53,3.53,0,0,0,.1-.55ZM194.25,253l102.57-16.47L194.25,270.64Zm288.06,31c-4.79-8.27-21-30.07-59-30.07-25.12,0-45,9.11-57.28,25.77H197l.27-.29,128.55-42.7H449.47l34.31,24.67,4.61,22.47Z"/></svg>