<svg id="Layer_1" data-name="Layer 1" xmlns="http://www.w3.org/2000/svg" xmlns:xlink="http://www.w3.org/1999/xlink" viewBox="0 0 512 512"><defs><style>.cls-1{fill:url(#linear-gradient);}.cls-2{fill:url(#linear-gradient-2);}</style><linearGradient id="linear-gradient" x1="328.86" y1="82.02" x2="328.86" y2="390.51" gradientUnits="userSpaceOnUse"><stop offset="0" stop-color="#ffe266"/><stop offset="0.79" stop-color="#fcdc39"/></linearGradient><linearGradient id="linear-gradient-2" x1="72.9" y1="82.02" x2="72.9" y2="390.51" xlink:href="#linear-gradient"/></defs><title>Construction  ICONS</title><path class="cls-1" d="M492.41,446.84H426.19V401l16.43-16.25a26.4,26.4,0,0,0,34-2.89c9.26-9.26,12-38.83,12.42-44.66a4.91,4.91,0,0,0-1.43-3.86,4.76,4.76,0,0,0-3.86-1.43c-5.84.44-35.41,3.15-44.67,12.42a26.57,26.57,0,0,0-3.38,33.38l-9.53,9.43v-59.8l14.39-14.23a26.31,26.31,0,0,0,36.06-1.22c9.26-9.26,12-38.82,12.42-44.66a4.93,4.93,0,0,0-5.29-5.29c-5.84.45-35.41,3.15-44.67,12.42a26.48,26.48,0,0,0-4.66,31l-8.25,8.15V261.56L442.91,245a26.47,26.47,0,0,0,33.73-3.13c9.26-9.26,12-38.83,12.42-44.66a4.9,4.9,0,0,0-1.43-3.86,5,5,0,0,0-3.86-1.43c-5.84.45-35.41,3.16-44.67,12.42A26.55,26.55,0,0,0,436,238l-9.77,9.65v-56.4a26.55,26.55,0,0,0,21.62-26c0-13.1-19-35.92-22.8-40.36a5.09,5.09,0,0,0-7.49,0c-3.81,4.44-22.8,27.26-22.8,40.36a26.55,26.55,0,0,0,21.62,26v56.4L406.58,238a26.56,26.56,0,0,0-3.15-33.68c-9.27-9.26-38.83-12-44.66-12.42a4.93,4.93,0,0,0-5.3,5.29c.45,5.83,3.16,35.4,12.42,44.66A26.47,26.47,0,0,0,399.62,245l16.72,16.54v51.88l-8.25-8.15a26.48,26.48,0,0,0-4.66-31c-9.27-9.27-38.83-12-44.66-12.42a4.83,4.83,0,0,0-3.87,1.43,5,5,0,0,0-1.43,3.86c.45,5.84,3.16,35.4,12.42,44.66A26.31,26.31,0,0,0,402,313.08l14.39,14.23v59.8l-9.53-9.43a26.56,26.56,0,0,0-3.38-33.38c-9.26-9.27-38.83-12-44.66-12.42a4.83,4.83,0,0,0-3.87,1.43,5,5,0,0,0-1.43,3.86c.45,5.83,3.16,35.4,12.42,44.66a26.4,26.4,0,0,0,34,2.89L416.34,401v45.87H258.63v-58l21.26-21A31.26,31.26,0,0,0,321,364.93c11.35-11.35,14.62-49.87,14.95-54.22a4.93,4.93,0,0,0-1.43-3.87,4.77,4.77,0,0,0-3.86-1.43c-4.36.34-42.89,3.6-54.23,14.95A31.37,31.37,0,0,0,273,360.73l-14.36,14.21V298.19l18.76-18.56a31.33,31.33,0,0,0,43.62-.77C332.36,267.52,335.63,229,336,224.63a4.91,4.91,0,0,0-1.43-3.86,4.81,4.81,0,0,0-3.86-1.43c-4.36.33-42.89,3.6-54.23,14.95a31.1,31.1,0,0,0-5.15,37.51l-12.66,12.53v-67l21.62-21.4A31.3,31.3,0,0,0,321,192.78c11.35-11.34,14.62-49.87,14.95-54.22a4.9,4.9,0,0,0-1.43-3.86,4.77,4.77,0,0,0-3.86-1.43c-4.36.33-42.88,3.6-54.23,14.94a31.31,31.31,0,0,0-3.16,40.73l-14.65,14.5V130.32a31.49,31.49,0,0,0,26.58-31c0-16-24.93-45.6-27.77-48.91a4.93,4.93,0,0,0-7.48,0c-2.85,3.31-27.78,32.87-27.78,48.91a31.49,31.49,0,0,0,26.59,31v73.12L234.1,188.93A31.5,31.5,0,0,0,231,148.21c-11.34-11.34-49.87-14.61-54.22-14.94a4.82,4.82,0,0,0-3.87,1.43,4.93,4.93,0,0,0-1.43,3.86c.34,4.35,3.61,42.88,14.95,54.22a31.3,31.3,0,0,0,40.76,3.13l21.63,21.4v67L236.1,271.79a31.45,31.45,0,0,0-5.15-37.5c-11.34-11.35-49.87-14.62-54.22-14.95a4.89,4.89,0,0,0-3.87,1.43,5,5,0,0,0-1.43,3.86c.34,4.36,3.61,42.88,14.95,54.23a31.34,31.34,0,0,0,43.63.77l18.76,18.56v76.75l-14.38-14.22A31.5,31.5,0,0,0,231,320.36c-11.34-11.35-49.87-14.61-54.22-14.95a4.82,4.82,0,0,0-3.87,1.43,5,5,0,0,0-1.43,3.87c.34,4.35,3.61,42.87,14.95,54.22a31.26,31.26,0,0,0,41.12,2.84l21.27,21v58H165.3a4.93,4.93,0,0,0,0,9.86H492.41a4.93,4.93,0,0,0,0-9.86Zm-46.34-95.57c4.24-4.24,20-7.51,32.58-9-1.47,12.59-4.74,28.34-9,32.58-6.07,6.08-16.46,6.23-22.85.6a4.63,4.63,0,0,0-.73-1.11,4.72,4.72,0,0,0-1-.64A16.65,16.65,0,0,1,446.07,351.27Zm0-70c4.24-4.23,20-7.51,32.58-9-1.47,12.6-4.74,28.34-9,32.58-6,6-16.06,6.21-22.48.9a13.43,13.43,0,0,1-4.81-6.52A16.71,16.71,0,0,1,446.07,281.3Zm0-70c4.24-4.23,20-7.51,32.58-9-1.47,12.6-4.74,28.34-9,32.58a17.1,17.1,0,0,1-23.6,0A16.71,16.71,0,0,1,446.07,211.33Zm-73.21,23.59c-4.23-4.23-7.51-20-9-32.58,12.59,1.47,28.34,4.75,32.58,9a16.71,16.71,0,0,1,0,23.59A17.1,17.1,0,0,1,372.86,234.92Zm0,70c-4.23-4.23-7.51-20-9-32.58,12.59,1.47,28.34,4.75,32.58,9a16.7,16.7,0,0,1,3.69,18c-1.67,3.93-2.4,4.79-4.81,6.52C388.92,311.1,378.82,310.85,372.86,304.89Zm0,70c-4.23-4.23-7.51-20-9-32.58,12.59,1.47,28.34,4.75,32.58,9a16.64,16.64,0,0,1,.94,22.44,4.72,4.72,0,0,0-1,.64,5.32,5.32,0,0,0-.73,1.11C389.32,381.09,378.94,380.94,372.86,374.86Zm31.72-209.61c0-6,8.82-19.44,16.68-29.39,7.87,9.95,16.69,23.4,16.69,29.39a16.69,16.69,0,0,1-33.37,0ZM283.41,327.33c5.83-5.82,26.93-9.86,42.17-11.53C323.9,331,319.87,352.14,314,358c-7.9,7.9-21.41,8.1-29.71.74a5,5,0,0,0-.9-1.37,4.78,4.78,0,0,0-1.2-.81,21.46,21.46,0,0,1,1.18-29.19Zm0-86.07c5.83-5.83,26.93-9.86,42.17-11.54C323.9,245,319.87,266.06,314,271.89c-7.94,7.94-21.58,8.1-29.86.62-2.58-2.52-4-4.05-5.17-7.08a21.5,21.5,0,0,1,4.4-24.17Zm0-86.08c5.83-5.82,26.93-9.86,42.17-11.53-1.67,15.23-5.71,36.33-11.54,42.16-8.18,8.18-22.44,8.18-30.63,0a21.67,21.67,0,0,1,0-30.63Zm-90.06,30.63c-5.82-5.82-9.86-26.93-11.53-42.16,15.23,1.67,36.33,5.7,42.16,11.53a21.69,21.69,0,0,1,0,30.63C215.8,194,201.53,194,193.35,185.81Zm0,86.08c-5.82-5.82-9.86-26.93-11.53-42.17,15.23,1.68,36.34,5.71,42.16,11.54a21.64,21.64,0,0,1,4.38,24.17,24.83,24.83,0,0,1-5.15,7.08C214.93,280,201.29,279.83,193.35,271.89Zm0,86.07c-5.82-5.82-9.86-26.93-11.53-42.16,15.23,1.67,36.34,5.71,42.16,11.53a21.61,21.61,0,0,1,1.17,29.2,3.89,3.89,0,0,0-2.09,2.17C214.77,366.06,201.25,365.86,193.35,358ZM232,99.3c0-8.24,12.07-26,21.66-38,9.59,12,21.65,29.73,21.65,38a21.66,21.66,0,1,1-43.31,0Z"/><path class="cls-2" d="M76.18,52.05a4.93,4.93,0,0,0-6.55,0L17,98.87a5,5,0,0,0-1.65,3.69V239.12a4.93,4.93,0,0,0,4.93,4.93h46v18.57h-12a4.93,4.93,0,0,0-4.92,4.61L36.78,459a4.93,4.93,0,0,0,4.92,5.25h58.84a4.93,4.93,0,0,0,4.92-5.25L92.94,267.23A4.94,4.94,0,0,0,88,262.62h-12V244.05h49.53a4.93,4.93,0,0,0,4.93-4.93V102.56a5,5,0,0,0-1.66-3.69ZM47,454.37l1.6-24.46H93.68l1.6,24.46ZM93,420.06H49.2l9.65-147.58H83.4Zm27.61-185.87H76.05V222.88H86.11a4.93,4.93,0,1,0,0-9.86h-30a4.93,4.93,0,0,0,0,9.86h10v11.31h-41V104.77L72.9,62.33l47.75,42.44Z"/></svg>