<svg id="Layer_1" data-name="Layer 1" xmlns="http://www.w3.org/2000/svg" xmlns:xlink="http://www.w3.org/1999/xlink" viewBox="0 0 512 512"><defs><style>.cls-1{fill:url(#linear-gradient);}.cls-2{fill:url(#linear-gradient-2);}.cls-3{fill:url(#linear-gradient-9);}.cls-4{fill:url(#linear-gradient-10);}</style><linearGradient id="linear-gradient" x1="101.47" y1="30.96" x2="101.47" y2="358.17" gradientUnits="userSpaceOnUse"><stop offset="0" stop-color="#ffe266"/><stop offset="0.79" stop-color="#fcdc39"/></linearGradient><linearGradient id="linear-gradient-2" x1="101.84" y1="30.96" x2="101.84" y2="358.17" xlink:href="#linear-gradient"/><linearGradient id="linear-gradient-9" x1="332.09" y1="30.96" x2="332.09" y2="358.17" xlink:href="#linear-gradient"/><linearGradient id="linear-gradient-10" x1="345.95" y1="30.96" x2="345.95" y2="358.17" xlink:href="#linear-gradient"/></defs><title>Construction  ICONS</title><path class="cls-1" d="M145.14,494.82V17.05a7.06,7.06,0,0,0-7.47-7.47H65.26a7.06,7.06,0,0,0-7.47,7.47V494.82a7.05,7.05,0,0,0,7.47,7.46h73.16C142.15,502.28,145.14,499.3,145.14,494.82Zm-14.93-7.47H72.72V24.51H131V487.35Z"/><path class="cls-2" d="M89.89,456.75h23.89a7.47,7.47,0,1,0,0-14.93H89.89a7.47,7.47,0,0,0,0,14.93Z"/><path class="cls-2" d="M89.89,392.55h23.89a7.47,7.47,0,1,0,0-14.93H89.89a7.47,7.47,0,0,0,0,14.93Z"/><path class="cls-2" d="M89.89,327.6h23.89a7.47,7.47,0,1,0,0-14.93H89.89a7.47,7.47,0,0,0,0,14.93Z"/><path class="cls-2" d="M89.89,263.4h23.89a7.47,7.47,0,1,0,0-14.93H89.89a7.47,7.47,0,0,0,0,14.93Z"/><path class="cls-2" d="M89.89,199.2h23.89a7.47,7.47,0,1,0,0-14.93H89.89a7.47,7.47,0,0,0,0,14.93Z"/><path class="cls-2" d="M89.89,134.25h23.89a7.47,7.47,0,1,0,0-14.93H89.89a7.47,7.47,0,0,0,0,14.93Z"/><path class="cls-2" d="M89.89,70.05h23.89a7.06,7.06,0,0,0,7.47-7.47,7.06,7.06,0,0,0-7.47-7.46H89.89a7.05,7.05,0,0,0-7.46,7.46A7.06,7.06,0,0,0,89.89,70.05Z"/><path class="cls-3" d="M454.2,491.83,386.26,315.65h26.88a7,7,0,0,0,7.46-7.46V306.7a75.63,75.63,0,0,0-31.35-59V212.63h49.27a7,7,0,0,0,7.46-7.46V79.75a7,7,0,0,0-7.46-7.46H377.3a7.05,7.05,0,0,0-7.46,7.46v24.64H252.64a7.06,7.06,0,0,0-7.47,7.46v16.43H216.8a7,7,0,0,0-7.46,7.46v45.54a7.05,7.05,0,0,0,7.46,7.47h28.37v16.42a7.05,7.05,0,0,0,7.47,7.46h49.27v35.09a74.64,74.64,0,0,0-30.61,60.47,7,7,0,0,0,7.46,7.46h26.88L237,491.83c-1.49,3.74.75,8.22,4.48,9.71s8.21-.75,9.7-4.48l70.18-181.41h17.17V494.82a7.47,7.47,0,0,0,14.93,0V315.65h16.42l70.92,182.16C444.49,506.76,457.93,501.54,454.2,491.83ZM384.77,87.22h46.28v17.17H384.77Zm-160.5,86.6V143.21h20.9v30.61Zm35.83-54.5h171V197H260.1Zm114.22,93.31v26.88c-19.41-8.21-40.31-6.72-57.48,0V212.63Zm30.61,88.09H286.23C295.19,230.55,396.71,233.54,404.93,300.72Z"/><path class="cls-4" d="M346,188.75a29.87,29.87,0,1,0-29.86-29.86A29.48,29.48,0,0,0,346,188.75Zm0-45.54A14.93,14.93,0,1,1,331,158.14C331,149.93,337,143.21,346,143.21Z"/></svg>