<svg id="Layer_1" data-name="Layer 1" xmlns="http://www.w3.org/2000/svg" xmlns:xlink="http://www.w3.org/1999/xlink" viewBox="0 0 512 512"><defs><style>.cls-1{fill:url(#linear-gradient);}.cls-2{fill:url(#linear-gradient-2);}.cls-3{fill:url(#linear-gradient-3);}</style><linearGradient id="linear-gradient" x1="241.49" y1="153.51" x2="241.49" y2="365.09" gradientUnits="userSpaceOnUse"><stop offset="0" stop-color="#ffe266"/><stop offset="0.79" stop-color="#fcdc39"/></linearGradient><linearGradient id="linear-gradient-2" x1="189.29" y1="153.51" x2="189.29" y2="365.09" xlink:href="#linear-gradient"/><linearGradient id="linear-gradient-3" x1="349.87" y1="153.51" x2="349.87" y2="365.09" xlink:href="#linear-gradient"/></defs><title>Construction  ICONS</title><path class="cls-1" d="M104.85,317.85l1,0a16.3,16.3,0,0,0,15.32-17.23c-.8-13.55-1.16-25.9-1.16-37.13-.07-49.36,7.12-77.08,14.19-91.54V477.59a25.2,25.2,0,1,0,50.39,0V293.65H194V477.59a25.2,25.2,0,1,0,50.39,0V176.46c6.59,14.4,13.83,34.13,27.55,52.15a97.61,97.61,0,0,0,28.15,25.23c11.74,6.91,25.93,11.66,42.52,13.36a16.28,16.28,0,0,0,1.7.09h.12V477.34H322.7v4.93H304.14v9.51h91.47v-9.51H377v-4.93H355.31V263a16.27,16.27,0,0,0,0-24V128.72H377v-6.11H322.7v6.11h21.74V234.57c-18.1-2.24-29.41-8.46-38.55-16.85-14.06-12.93-22.26-33-30.69-52.25-4.33-9.58-8.65-19-15.64-27.32a44.58,44.58,0,0,0-13.25-10.89,38.65,38.65,0,0,0-15.66-4.34,16.52,16.52,0,0,0-2-.14H149.92c-.25,0-.49,0-.73,0a38.71,38.71,0,0,0-16.76,4.34c-11,5.44-22.78,17.33-31,38.4s-14,51.73-14,97.9c0,11.93.39,24.91,1.22,39A16.31,16.31,0,0,0,104.85,317.85Z"/><circle class="cls-2" cx="189.29" cy="65.32" r="45.85"/><polygon class="cls-3" points="396.55 10.53 303.2 10.53 274.48 116.49 425.27 116.49 396.55 10.53"/></svg>