<svg id="Layer_1" data-name="Layer 1" xmlns="http://www.w3.org/2000/svg" xmlns:xlink="http://www.w3.org/1999/xlink" viewBox="0 0 512 512"><defs><style>.cls-1{fill:url(#linear-gradient);}.cls-2{fill:url(#linear-gradient-2);}.cls-3{fill:url(#linear-gradient-3);}.cls-4{fill:url(#linear-gradient-4);}.cls-5{fill:url(#linear-gradient-5);}.cls-6{fill:url(#linear-gradient-6);}.cls-7{fill:url(#linear-gradient-7);}.cls-8{fill:url(#linear-gradient-8);}</style><linearGradient id="linear-gradient" x1="187.5" y1="83.04" x2="187.5" y2="429.38" gradientUnits="userSpaceOnUse"><stop offset="0" stop-color="#ffe266"/><stop offset="0.79" stop-color="#fcdc39"/></linearGradient><linearGradient id="linear-gradient-2" x1="437.34" y1="83.04" x2="437.34" y2="429.38" xlink:href="#linear-gradient"/><linearGradient id="linear-gradient-3" x1="334.47" y1="83.04" x2="334.47" y2="429.38" xlink:href="#linear-gradient"/><linearGradient id="linear-gradient-4" x1="435.83" y1="83" x2="435.83" y2="429.34" xlink:href="#linear-gradient"/><linearGradient id="linear-gradient-5" x1="336.05" y1="83.04" x2="336.05" y2="429.38" xlink:href="#linear-gradient"/><linearGradient id="linear-gradient-6" x1="392.34" y1="83.04" x2="392.34" y2="429.38" xlink:href="#linear-gradient"/><linearGradient id="linear-gradient-7" x1="187.72" y1="83.04" x2="187.72" y2="429.38" xlink:href="#linear-gradient"/><linearGradient id="linear-gradient-8" x1="402.04" y1="83.04" x2="402.04" y2="429.38" xlink:href="#linear-gradient"/></defs><title>Construction  ICONS</title><path class="cls-1" d="M117.2,235.15a73,73,0,0,1-11.52-18.32,67.7,67.7,0,0,1-5.46-28.45c.07-5.48-1.09-11-1.89-16.47a45.19,45.19,0,0,1,6.52-31.34,8.77,8.77,0,0,0,1.08-5.21c-1-9.17.44-17.33,8-23.72,1.86-1.57,2.89-4.32,3.86-6.7,3.55-8.76,11.35-14,20.76-13.33,3,.2,4.6-.5,6.18-3.34,6.39-11.46,16.24-15,29.23-11.89,4.16,1,8.19,2.61,12.39,3.28,2.24.35,4.74-.59,7.06-1.17,5.17-1.3,10.13-3.16,15.65-3.12,10.07.06,16.89,4.85,21.4,13.41,1.16,2.19,2.46,3.13,5,2.9,10.05-.93,17.69,4.08,22,13.42a39.32,39.32,0,0,0,6.62,9.35c3.15,3.54,4.49,7.64,5.07,12.15a5.42,5.42,0,0,1,0,1.75c-1.31,6.64.69,12.32,3.92,18.18,4.4,8,4.71,16.91,3.52,25.91A172.88,172.88,0,0,0,275,191.29c-.31,14.53-5.25,27.33-13.65,39L257.86,235l-.69-.32c0-1-.09-2,0-3,2.36-22.13,1.91-44.29.49-66.44a61.42,61.42,0,0,0-5.23-21.73c-5-11-13.6-13.67-24.12-10.44a279.75,279.75,0,0,0-27.46,10.38c-9.19,3.91-18,3.73-27.11-.15-8.92-3.78-18-7.35-27.19-10.26-11.76-3.72-20.94,1.48-25.29,12.93a69.86,69.86,0,0,0-4.1,23.49c-.4,17.76-.18,35.53-.08,53.3,0,4.06.6,8.11.93,12.16Z"/><path class="cls-2" d="M446,208.45c-4.41-6.6-8.62-12.88-12.8-19.19-2.49-3.77-5.09-7.49-7.35-11.39-3.18-5.46-8.73-8.1-13.5-11.61-1-.72-3.54-.09-4.94.68-2.44,1.34-4.53,3.3-6.79,5-3.92,2.9-5.35,3.06-9-.14-4-3.51-7.88-7.28-11.59-11.14-6.45-6.7-6.38-6.77.28-13.26,4.47-4.37,9.18-8.53,13.31-13.2a13.9,13.9,0,0,0,3-7.47c.45-4.65-.08-9.37,0-14.06.08-3.3.74-6.59.83-9.89.09-2.8-.35-5.62-.4-8.44s.05-5.56.15-8.35c.12-3.4.48-6.81.42-10.21-.07-3.6,3.2-7.75,6.62-8.31,5.31-.87,10.59-2,15.88-2.94a20.17,20.17,0,0,1,2.52-.53c4.25-.26,4.18-.46,3.59-4.5a67.76,67.76,0,0,1-.45-11c0-2.58,2.19-2.47,3.84-1.91,1.95.67,3,6.38,2.64,8.51a11.8,11.8,0,0,0,.8,6.74c1.21,2.45,3.23.68,5.09,0,7.3-2.52,14.78-3.18,22-.09,3.91,1.66,3.72,5.89,3.83,9.29.29,8.14.21,16.29,0,24.44a6.47,6.47,0,0,0,3.42,6.28,71.36,71.36,0,0,1,29.38,35.5c3.67,9.63,4.15,18-4.21,25.7-7.3,6.75-14.36,13.78-21.48,20.73C462.89,191.81,454.58,200,446,208.45Zm5-143.63c-3,.46-5.64,1.32-8.25,1.18-4.42-.23-8,1.28-11.62,3.56-1.22.78-3.93,1.43-4.39.86-2.62-3.24-5.53-1.89-8.71-1.51a10.67,10.67,0,0,0-9.68,10.56c0,4.48-.72,9-.63,13.43s.92,8.8,1.16,13.21c.21,3.74,0,7.51,0,12.1,1.44-1.07,2.23-1.53,2.88-2.15,6.23-5.93,12.4-11.91,18.66-17.8a28.59,28.59,0,0,1,4.66-3.41c5-3.08,10.36-2.15,15.87-1.25Zm42.38,87c-2.79-4-4.66-1.94-6.41-.27q-12.29,11.7-24.48,23.49c-4.83,4.68-9.63,9.38-14.3,14.21-.7.72-.6,2.21-.86,3.35,1.23-.11,2.48-.13,3.69-.35.38-.08.65-.7,1-1q12.25-11.64,24.53-23.27C482.16,162.63,487.75,157.23,493.35,151.86Zm-41.66-47.23-1.49-1.32a20.67,20.67,0,0,0-3.51,2.17q-10.23,9.66-20.33,19.45c-6.23,6-12.48,12-18.56,18.23-.85.87-.74,2.67-1.08,4,1.36-.36,3-.4,4-1.17a49,49,0,0,0,4.77-4.58c10.75-10.3,21.56-20.55,32.22-30.95C449.4,108.89,450.4,106.6,451.69,104.63Zm-55.61,41.5c1.79-1.42,2.89-2.16,3.84-3.06q12.58-12.1,25.13-24.26c4.58-4.44,9.21-8.85,13.65-13.44.73-.76.62-2.34.89-3.54a37.71,37.71,0,0,0-3.84.27c-.36.06-.6.74-.95,1.08Q416.23,121.1,397.67,139A10.37,10.37,0,0,0,395,142.4C394.67,143.22,395.54,144.47,396.08,146.13ZM451,115.57l-1.62-1.23c-6.82,7.33-13.57,14.74-20.5,22-3.78,4-7.9,7.58-11.73,11.49-.65.66-.56,2-.8,3.08a28.79,28.79,0,0,0,3.6,0,3.18,3.18,0,0,0,1.5-1c9.19-8.91,18.31-17.91,27.6-26.72C451.46,120.8,451.71,118.4,451,115.57Zm-.34,14.57c-8.57,8.32-16.8,16.23-24.88,24.28-.8.8-.75,2.46-1.09,3.72,1.4-.25,3.26,0,4.13-.81,6.95-6.51,13.66-13.28,20.58-19.82C451.5,135.49,451.73,133.4,450.64,130.14Zm14,34.11c2-1.87,3.69-3.39,5.32-5,5.87-5.67,11.75-11.32,17.51-17.09.63-.62.52-2,.75-3a15.27,15.27,0,0,0-3.36-.19c-.61.09-1.15.86-1.68,1.37-5.46,5.27-10.88,10.57-16.37,15.8A7.23,7.23,0,0,0,464.68,164.25Zm-14.09-20.48c-5.94,5.58-11.63,10.75-17.06,16.17-1,1-.88,3-1.28,4.52,1.49-.34,3.4-.21,4.4-1.1,4.17-3.73,8-7.9,12.12-11.65C451.21,149.51,451.69,147.16,450.59,143.77Zm14.12,6.49c6.09-5.95,11.74-11.49,17.41-17,1.22-1.18,3-2.16,1-4.09s-3.05,0-4.22,1.08C475,134,471.17,138,467.1,141.62,464.64,143.81,463.57,146.15,464.71,150.26ZM460,169.08c-.12-.28-.25-.55-.37-.83-1.65,0-3.89-.69-4.85.12a156.62,156.62,0,0,0-11.46,11c-.38.4-.07,2.05.46,2.55a2.56,2.56,0,0,0,2.5,0C451,177.71,455.49,173.37,460,169.08Zm-9.27-11.68c-4.18,4-8.07,7.68-11.74,11.52-.59.62-.22,2.17-.29,3.28,1.18-.12,2.72.19,3.49-.44,2.53-2.08,4.72-4.56,7.14-6.77C451.57,163,451.64,160.69,450.77,157.4Zm14-21.62c4-3.85,7.66-7.27,11.15-10.86.72-.74.78-2.12,1.15-3.21-1.32.08-3-.33-3.9.33-2.33,1.75-4.24,4.07-6.47,6S463.61,132,464.78,135.78Zm-.94-14.47c.42.23.84.46,1.27.68a24.17,24.17,0,0,0,3.73-3.54c.53-.75.16-2.13.2-3.22-1.14.13-3-.12-3.28.46A28.85,28.85,0,0,0,463.84,121.31Z"/><path class="cls-3" d="M337.54,264,287.4,197.49c6.09-3.15,11.89-5.88,17.42-9.07,7.95-4.6,16.51-5.74,25.49-5.69,5.79,0,11.59-.75,17.38-.88a5.19,5.19,0,0,1,3.74,1.88q15.07,21.27,29.81,42.76a3.94,3.94,0,0,1-.42,3.72c-5.76,6-11.28,12.34-17.76,17.47-6.77,5.35-14.53,9.46-21.86,14.11C340.17,262.45,339.12,263.07,337.54,264Z"/><path class="cls-4" d="M471.51,254.14C466,250.4,460.56,246.6,455,242.92c-6.93-4.6-13.93-9.1-20.86-13.68a8.5,8.5,0,0,1-2.4-2.22Q416,203.31,400.38,179.53c-1.13-1.72-1.36-3.19.86-4.57,3.1-1.93,6-4.26,8.88-6.39,8.53,3.79,13.29,11.05,18.13,18.48,13.75,21.12,27.81,42,41.73,63,.76,1.15,1.42,2.36,2.13,3.55Z"/><path class="cls-5" d="M288.5,146c7.44-.64,14.87-1.33,22.32-1.91,5.78-.45,11.59-.58,17.36-1.17,10.61-1.1,20.42,2.67,30.54,4.59,4.69.89,7.95,3.44,11,6.75,4.31,4.63,8.81,9.08,13.92,14.31-2.4.32-3.89.62-5.39.7-7.52.36-15.12.14-22.56,1.13s-13-2.1-19-5.25c-8.34-4.4-16.5-9.27-25.23-12.71-6.78-2.68-14.3-3.47-21.49-5.12a11.28,11.28,0,0,1-1.56-.58Z"/><path class="cls-6" d="M423.75,221.23c4.37,4,4.3,4.64.7,7.79-4.73,4.15-10,4.52-15.89,3.19-13.83-3.13-25-10.79-33.94-21.29-6.43-7.55-13.09-15.34-15.42-25.52-.58-2.52-1-5.08-1.39-7.64-.69-4.64.1-5.34,3.89-4.76,2.05,6.84,3.19,13.6,6,19.55,6.06,12.67,16,22,28,29.27,5.46,3.31,11.19,5.61,17.69,5.62C418,227.45,422.11,226.73,423.75,221.23Z"/><path class="cls-7" d="M358.53,405.94c-1.78-7.91-4-15.65-9.58-21.88a31.58,31.58,0,0,0-5.27-5,40.31,40.31,0,0,0-6.7-4.49l-34.32-17.73c-3.41-1.76-6.84-3.48-10.34-5.26a9.46,9.46,0,0,1,.76-1.39,93.85,93.85,0,0,0,16-27.79c.81-2.18.62-3.32-1.85-4.46a146.72,146.72,0,0,1-37.63-24.27c-6.83-6.2-13.29-12.81-20-19.35-.32.45-.71,1-1.08,1.52-2.08,3.13-3.83,6.57-6.3,9.35-6.85,7.72-14.12,15.06-21,22.76a21.33,21.33,0,0,1-16.16,7.42c-11.24.19-22.48,0-33.71-.06-6.62,0-12.36-2-16.67-7.42-1.61-2-3.68-3.67-5.47-5.55-6.87-7.19-14.28-13.93-19.54-22.52l-3.62-5.91-2.58,2.89c-15.62,17.52-33.79,31.65-55.29,41.3-1.85.83-2.41,2-1.59,3.65,3.48,7,6.89,14.06,10.63,20.92,1.68,3.08,4.07,5.76,6.35,8.92-5.85,3-11.4,5.89-16.94,8.77-10.18,5.28-20.53,10.27-30.48,15.95a33.07,33.07,0,0,0-14.68,16.33c-4.7,11.49-6.89,23.56-7.62,35.81-.71,12-.49,24-.67,36a9.44,9.44,0,0,0,.23,1.32H362.2v-3.39c0-8.6-.14-17.2,0-25.79C362.45,426.21,360.81,416,358.53,405.94ZM248.26,346.61a76.74,76.74,0,0,1-26.7,15.49c-12.66,4.46-25.77,5.89-39.15,5.34-20.87-.84-39.46-7.58-55.29-21.39a3.64,3.64,0,0,1-.93-3.16,155.29,155.29,0,0,0,7.33-34.75c.14-1.43.45-2.84.79-4.91,1.45,1.73,2.51,3,3.63,4.31,6.46,7.22,12.9,14.46,19.43,21.63,2.77,3,6.15,5,10.44,5,13.48,0,27,0,40.44,0,4.28,0,7.65-2,10.38-5.13,7.23-8.21,14.41-16.46,21.62-24.68a8.93,8.93,0,0,1,1.37-.93c.52,3.53,1.12,6.59,1.41,9.68.91,10.14,3.52,19.88,6.51,29.56A4.73,4.73,0,0,1,248.26,346.61Z"/><path class="cls-8" d="M434.12,276.23a22.47,22.47,0,0,0-.44-8.59l-.33-.11c0-.16,0-.32-.06-.5-.9-5.21-1.64-10.46-2.5-15.68-.76-4.58-1.6-9.16-2.43-13.87-11.92-.78-23.62-1.5-35.3-2.32-2.81-.2-3.57,1.7-4.26,3.72q-7.71,22.61-15.39,45.23c-1.17,3.43-2.38,6.85-3.66,10.53,8.12,1.73,15.67,3.37,23.24,4.95,9.87,2.07,19.76,4,29.61,6.18,2.2.48,3.29.47,4-2.11,2.22-8.47,4.72-16.86,7.07-25.29a7,7,0,0,0,.36-1.28A3.5,3.5,0,0,0,434.12,276.23Z"/></svg>