<svg id="Layer_1" data-name="Layer 1" xmlns="http://www.w3.org/2000/svg" xmlns:xlink="http://www.w3.org/1999/xlink" viewBox="0 0 512 512"><defs><style>.cls-1{fill:url(#linear-gradient);}.cls-2{fill:url(#linear-gradient-2);}.cls-3{fill:url(#linear-gradient-5);}.cls-4{fill:url(#linear-gradient-6);}.cls-5{fill:url(#linear-gradient-7);}.cls-6{fill:url(#linear-gradient-9);}.cls-7{fill:url(#linear-gradient-11);}.cls-8{fill:url(#linear-gradient-12);}.cls-9{fill:url(#linear-gradient-15);}.cls-10{fill:url(#linear-gradient-16);}.cls-11{fill:url(#linear-gradient-17);}</style><linearGradient id="linear-gradient" x1="245.92" y1="51.38" x2="245.92" y2="374.21" gradientUnits="userSpaceOnUse"><stop offset="0" stop-color="#ffe266"/><stop offset="0.79" stop-color="#fcdc39"/></linearGradient><linearGradient id="linear-gradient-2" x1="246.17" y1="51.38" x2="246.17" y2="374.21" xlink:href="#linear-gradient"/><linearGradient id="linear-gradient-5" x1="412.24" y1="51.38" x2="412.24" y2="374.21" xlink:href="#linear-gradient"/><linearGradient id="linear-gradient-6" x1="457.29" y1="51.38" x2="457.29" y2="374.21" xlink:href="#linear-gradient"/><linearGradient id="linear-gradient-7" x1="367.69" y1="51.38" x2="367.69" y2="374.21" xlink:href="#linear-gradient"/><linearGradient id="linear-gradient-9" x1="367.2" y1="51.38" x2="367.2" y2="374.21" xlink:href="#linear-gradient"/><linearGradient id="linear-gradient-11" x1="454.04" y1="51.38" x2="454.04" y2="374.21" xlink:href="#linear-gradient"/><linearGradient id="linear-gradient-12" x1="453.82" y1="51.38" x2="453.82" y2="374.21" xlink:href="#linear-gradient"/><linearGradient id="linear-gradient-15" x1="413.23" y1="51.38" x2="413.23" y2="374.21" xlink:href="#linear-gradient"/><linearGradient id="linear-gradient-16" x1="157.57" y1="51.38" x2="157.57" y2="374.21" xlink:href="#linear-gradient"/><linearGradient id="linear-gradient-17" x1="249.39" y1="51.38" x2="249.39" y2="374.21" xlink:href="#linear-gradient"/></defs><title>Construction  ICONS</title><path class="cls-1" d="M326.11,281.59H165.74a5.49,5.49,0,0,1-5.45-5.44V183.09a5.45,5.45,0,1,1,10.89,0V271.2H320.67V183.09a5.45,5.45,0,1,1,10.89,0v93.06A5.49,5.49,0,0,1,326.11,281.59Z"/><path class="cls-2" d="M268.2,150.91a9.11,9.11,0,0,1-3.47-1l-18.81-14.35-18.81,14.35a5.29,5.29,0,1,1-6.43-8.41L243,124.68a5.2,5.2,0,0,1,6.44,0l22.27,16.83c2.48,2,3,5,1,7.42A7.37,7.37,0,0,1,268.2,150.91Z"/><path class="cls-2" d="M147.42,174.18a5.39,5.39,0,0,1-4.45-2,5,5,0,0,1,1-7.43l99-74.24a5.2,5.2,0,0,1,6.44,0l99,74.24c2.47,2,3,4.95,1,7.43s-4.95,3-7.43,1l-96-71.77-95.53,71.77A7.11,7.11,0,0,1,147.42,174.18Z"/><path class="cls-2" d="M268.69,232.09h-45a5.49,5.49,0,0,1-5.45-5.44V183.09a5.5,5.5,0,0,1,5.45-5.45h45a5.5,5.5,0,0,1,5.45,5.45v43.56A5.49,5.49,0,0,1,268.69,232.09ZM228.6,221.2h34.65V188H228.6Z"/><path class="cls-3" d="M503.82,484H320.67V300.9H503.82ZM331.56,473.65H492.93V311.79H331.56Z"/><path class="cls-4" d="M473.62,355.84H441A5.45,5.45,0,0,1,441,345h32.67a5.45,5.45,0,1,1,0,10.89Z"/><path class="cls-5" d="M384,355.84H351.36a5.45,5.45,0,1,1,0-10.89H384a5.45,5.45,0,0,1,0,10.89Z"/><path class="cls-5" d="M367.69,372.18a5.49,5.49,0,0,1-5.44-5.45V334.06a5.45,5.45,0,0,1,10.89,0v32.67C372.64,369.7,370.66,372.18,367.69,372.18Z"/><path class="cls-6" d="M379.08,455.83a5.62,5.62,0,0,1-4-1.49l-23.27-23.26a5.25,5.25,0,0,1,7.43-7.42l23.26,23.26a5.38,5.38,0,0,1,0,7.42C382.05,455.33,380.56,455.83,379.08,455.83Z"/><path class="cls-6" d="M355.81,455.83a5.63,5.63,0,0,1-4-1.49,5.38,5.38,0,0,1,0-7.42l23.27-23.26a5.25,5.25,0,1,1,7.42,7.42l-22.77,23.26A5.62,5.62,0,0,1,355.81,455.83Z"/><path class="cls-7" d="M458.77,418.21a6.89,6.89,0,0,0-9.4,0c-2.48,2.48-2.48,6.44,0,9.41a7.37,7.37,0,0,0,4.45,2c2,0,3.47-.5,4.46-2C461.25,424.65,461.25,420.69,458.77,418.21Z"/><path class="cls-8" d="M470.16,444H437.49a5.45,5.45,0,1,1,0-10.89h32.67a5.45,5.45,0,0,1,0,10.89Z"/><path class="cls-7" d="M458.77,450.38a6.89,6.89,0,0,0-9.4,0c-2.48,2.48-2.48,6.44,0,9.41a7.37,7.37,0,0,0,4.45,2c2,0,3.47-.5,4.46-2A6.46,6.46,0,0,0,458.77,450.38Z"/><path class="cls-3" d="M498.37,397.92H326.11a5.45,5.45,0,0,1,0-10.89H498.37a5.45,5.45,0,1,1,0,10.89Z"/><path class="cls-9" d="M413.23,484a5.48,5.48,0,0,1-5.44-5.44V306.34a5.45,5.45,0,0,1,10.89,0V478.6A5.49,5.49,0,0,1,413.23,484Z"/><path class="cls-10" d="M300.87,362.28h-245a47.33,47.33,0,0,1-47-47V50.43a41.58,41.58,0,0,1,83.16,0V320.7l-8.91-7.92S64.26,296.44,42,300.4a5.53,5.53,0,1,1-2-10.89c17.32-3,32.17,3.47,41.58,8.91v-248a30.69,30.69,0,0,0-61.38,0V315.25a36.54,36.54,0,0,0,36.63,36.63h244a5.49,5.49,0,0,1,5.44,5.45C306.31,360.3,303.84,362.28,300.87,362.28Z"/><path class="cls-11" d="M412.24,287.53a5.48,5.48,0,0,1-5.44-5.44V55.38H86.54a5.45,5.45,0,1,1,0-10.89H417.69v237.6A5.49,5.49,0,0,1,412.24,287.53Z"/></svg>