<svg id="Layer_1" data-name="Layer 1" xmlns="http://www.w3.org/2000/svg" xmlns:xlink="http://www.w3.org/1999/xlink" viewBox="0 0 512 512"><defs><style>.cls-1{fill:url(#linear-gradient);}.cls-2{fill:url(#linear-gradient-2);}.cls-3{fill:url(#linear-gradient-3);}.cls-4{fill:url(#linear-gradient-4);}.cls-5{fill:url(#linear-gradient-5);}</style><linearGradient id="linear-gradient" x1="96.33" y1="47.3" x2="96.33" y2="396.6" gradientUnits="userSpaceOnUse"><stop offset="0" stop-color="#ffe266"/><stop offset="0.79" stop-color="#fcdc39"/></linearGradient><linearGradient id="linear-gradient-2" x1="199.25" y1="47.3" x2="199.25" y2="396.6" xlink:href="#linear-gradient"/><linearGradient id="linear-gradient-3" x1="413.9" y1="47.3" x2="413.9" y2="396.6" xlink:href="#linear-gradient"/><linearGradient id="linear-gradient-4" x1="305.1" y1="47.3" x2="305.1" y2="396.6" xlink:href="#linear-gradient"/><linearGradient id="linear-gradient-5" x1="256.32" y1="47.3" x2="256.32" y2="396.6" xlink:href="#linear-gradient"/></defs><title>Construction  ICONS</title><path class="cls-1" d="M61,203.12a1.38,1.38,0,0,1,1.38-1.38h67.89a1.39,1.39,0,0,1,1.38,1.38V403.75a1.38,1.38,0,0,1-1.38,1.38H62.39A1.38,1.38,0,0,1,61,403.75Z"/><path class="cls-2" d="M163.92,56.66a1.4,1.4,0,0,1,1.38-1.39h67.89a1.4,1.4,0,0,1,1.39,1.39V403.75a1.38,1.38,0,0,1-1.39,1.38H165.3a1.38,1.38,0,0,1-1.38-1.38Z"/><path class="cls-3" d="M375.64,147.77a1.38,1.38,0,0,1,1.37-1.38h73.78a1.37,1.37,0,0,1,1.37,1.38v256a1.37,1.37,0,0,1-1.37,1.38H377a1.37,1.37,0,0,1-1.37-1.38v-256Z"/><path class="cls-4" d="M343.38,248.88A1.4,1.4,0,0,0,342,247.5H268.21a1.39,1.39,0,0,0-1.38,1.38V403.75a1.38,1.38,0,0,0,1.38,1.38H342a1.38,1.38,0,0,0,1.38-1.38Z"/><path class="cls-5" d="M503.47,456.66A1.38,1.38,0,0,1,502.1,458H10.55a1.39,1.39,0,0,1-1.38-1.38v-20.6a1.39,1.39,0,0,1,1.38-1.37H502.1a1.38,1.38,0,0,1,1.37,1.37Z"/></svg>