<svg id="Layer_1" data-name="Layer 1" xmlns="http://www.w3.org/2000/svg" xmlns:xlink="http://www.w3.org/1999/xlink" viewBox="0 0 512 512"><defs><style>.cls-1{fill:url(#linear-gradient);}.cls-2{fill:url(#linear-gradient-2);}.cls-3{fill:url(#linear-gradient-3);}.cls-4{fill:url(#linear-gradient-4);}.cls-5{fill:url(#linear-gradient-5);}.cls-6{fill:url(#linear-gradient-6);}.cls-7{fill:url(#linear-gradient-7);}.cls-8{fill:url(#linear-gradient-8);}.cls-9{fill:url(#linear-gradient-9);}.cls-10{fill:url(#linear-gradient-10);}.cls-11{fill:url(#linear-gradient-11);}.cls-12{fill:url(#linear-gradient-12);}.cls-13{fill:url(#linear-gradient-13);}.cls-14{fill:url(#linear-gradient-14);}.cls-15{fill:url(#linear-gradient-15);}.cls-16{fill:url(#linear-gradient-16);}</style><linearGradient id="linear-gradient" x1="436.01" y1="45.26" x2="436.01" y2="457.9" gradientUnits="userSpaceOnUse"><stop offset="0" stop-color="#ffe266"/><stop offset="0.79" stop-color="#fcdc39"/></linearGradient><linearGradient id="linear-gradient-2" x1="436.01" y1="45.26" x2="436.01" y2="457.9" xlink:href="#linear-gradient"/><linearGradient id="linear-gradient-3" x1="442.26" y1="45.26" x2="442.26" y2="457.9" xlink:href="#linear-gradient"/><linearGradient id="linear-gradient-4" x1="436.01" y1="45.26" x2="436.01" y2="457.9" xlink:href="#linear-gradient"/><linearGradient id="linear-gradient-5" x1="180.8" y1="45.26" x2="180.8" y2="457.9" xlink:href="#linear-gradient"/><linearGradient id="linear-gradient-6" x1="180.87" y1="45.26" x2="180.87" y2="457.9" xlink:href="#linear-gradient"/><linearGradient id="linear-gradient-7" x1="180.8" y1="45.26" x2="180.8" y2="457.9" xlink:href="#linear-gradient"/><linearGradient id="linear-gradient-8" x1="180.88" y1="45.26" x2="180.88" y2="457.9" xlink:href="#linear-gradient"/><linearGradient id="linear-gradient-9" x1="180.8" y1="45.26" x2="180.8" y2="457.9" xlink:href="#linear-gradient"/><linearGradient id="linear-gradient-10" x1="182.26" y1="45.26" x2="182.26" y2="457.9" xlink:href="#linear-gradient"/><linearGradient id="linear-gradient-11" x1="257.28" y1="45.26" x2="257.28" y2="457.9" xlink:href="#linear-gradient"/><linearGradient id="linear-gradient-12" x1="105.61" y1="45.26" x2="105.61" y2="457.9" xlink:href="#linear-gradient"/><linearGradient id="linear-gradient-13" x1="322.33" y1="45.26" x2="322.33" y2="457.9" xlink:href="#linear-gradient"/><linearGradient id="linear-gradient-14" x1="180.8" y1="45.26" x2="180.8" y2="457.9" xlink:href="#linear-gradient"/><linearGradient id="linear-gradient-15" x1="185.93" y1="45.26" x2="185.93" y2="457.9" xlink:href="#linear-gradient"/><linearGradient id="linear-gradient-16" x1="39.26" y1="45.26" x2="39.26" y2="457.9" xlink:href="#linear-gradient"/></defs><title>Construction  ICONS</title><polygon class="cls-1" points="428.2 451.71 420.39 465.24 428.2 478.76 443.82 478.76 451.63 465.24 443.82 451.71 428.2 451.71"/><path class="cls-2" d="M436,427.32a37.92,37.92,0,1,0,37.91,37.92A37.91,37.91,0,0,0,436,427.32Zm26,40.49-10.78,18.67a5.14,5.14,0,0,1-4.46,2.58H425.23a5.14,5.14,0,0,1-4.46-2.58L410,467.81a5.15,5.15,0,0,1,0-5.15L420.77,444a5.14,5.14,0,0,1,4.46-2.58h21.56a5.14,5.14,0,0,1,4.46,2.58L462,462.66a5.22,5.22,0,0,1,0,5.15Z"/><path class="cls-3" d="M469.23,239.28l-46.79-8.69a5.15,5.15,0,0,1-4.12-4.11l-8.69-46.79a5.14,5.14,0,0,1,1.42-4.58l25.22-25.22A56.94,56.94,0,1,0,499,212.64l-25.23,25.22A5.12,5.12,0,0,1,469.23,239.28Z"/><path class="cls-4" d="M455.32,421.07V272.47a67.55,67.55,0,0,1-38.63-3.85V421.07A48.08,48.08,0,0,1,455.32,421.07Z"/><path class="cls-5" d="M127,288.12v45.82a53.82,53.82,0,0,0,107.63,0V286.42l-6.94-3.81v17.8a5.11,5.11,0,0,1-1.22,3.32,59.73,59.73,0,0,1-84.19,6.95,58.49,58.49,0,0,1-6.95-6.95,5.11,5.11,0,0,1-1.22-3.32V284.55Zm53.82,48.53a7.12,7.12,0,1,1-7.12,7.11h0A7.13,7.13,0,0,1,180.8,336.65Zm0,25.55a7.12,7.12,0,1,1-7.12,7.12h0a7.14,7.14,0,0,1,7.12-7.12Z"/><path class="cls-6" d="M144.38,298.46a49.44,49.44,0,0,0,69.85,3.15q1.64-1.5,3.14-3.15v-27c-.89.53-1.79,1.06-2.71,1.55A68.67,68.67,0,0,1,150,273c-1.92-1-3.77-2.16-5.57-3.35v5a5.18,5.18,0,0,1,0,3Z"/><path class="cls-7" d="M248.09,52.36A88.63,88.63,0,0,0,224.94,30.6v3.45a61.35,61.35,0,0,1-41.38,58,5.09,5.09,0,0,1-3.27,0L179,91.66a61.18,61.18,0,0,1-42.35-58.33V30.62a88.83,88.83,0,0,0-23.15,21.81A96.17,96.17,0,0,0,95.06,105H266.54A95.87,95.87,0,0,0,248.09,52.36Z"/><path class="cls-8" d="M89.3,129h183a6.81,6.81,0,1,0,.16-13.61H89.3a6.81,6.81,0,0,0,0,13.61Z"/><path class="cls-9" d="M181.8,81.73a51,51,0,0,0,32.84-47.68V24.94a80.1,80.1,0,0,0-12.9-4.66,5.15,5.15,0,0,1-3.8-5.51l.62-5.92H163l.62,5.92a5.15,5.15,0,0,1-3.8,5.51A79,79,0,0,0,147,25v8.38A50.92,50.92,0,0,0,181.8,81.73Zm-11-54.24H193a5.15,5.15,0,1,1,0,10.3H170.8a5.15,5.15,0,0,1,0-10.3Zm0,20.44H193a5.15,5.15,0,1,1,0,10.29H170.8a5.15,5.15,0,1,1,0-10.29Z"/><path class="cls-10" d="M245.45,187.05a5.16,5.16,0,0,1,5.09-4.36H254a7.64,7.64,0,0,0,3.94-14.18,4.73,4.73,0,0,1-2.44-.32,5.73,5.73,0,0,1-1.28-.77l-.22,0h-3.41a5.14,5.14,0,0,1-5.15-5.14v-23H119.23v23a5.15,5.15,0,0,1-5.15,5.14h-3.42a7.65,7.65,0,0,0-.17,15.29h3.59a5.15,5.15,0,0,1,5.08,4.36l5.38,34.33a58.47,58.47,0,0,0,115.53,0Z"/><path class="cls-11" d="M258.86,139.24h-3.17v13.31A114,114,0,0,0,258.86,139.24Z"/><path class="cls-12" d="M108.47,157.26l.46-.07V139.24h-6.65A84.27,84.27,0,0,0,106,151.05Z"/><path class="cls-13" d="M296.68,310.52V503.15H348V381.91A75,75,0,0,0,296.68,310.52Z"/><path class="cls-14" d="M244.91,333.94a64.12,64.12,0,0,1-128.23,0V293.18A232.17,232.17,0,0,1,75.22,307.7V503.15h49.59V438.2a5.14,5.14,0,0,1,7.55-4.55,115.31,115.31,0,0,0,107.16.2,5.14,5.14,0,0,1,7.53,4.56v64.74h39.33V307.71a216.58,216.58,0,0,1-41.47-15.86Z"/><path class="cls-15" d="M135.11,446.42v56.73H236.75V446.6A125.61,125.61,0,0,1,135.11,446.42Z"/><path class="cls-16" d="M13.6,381.91V503.15H64.92V310.52A75,75,0,0,0,13.6,381.91Z"/></svg>