<svg id="Layer_1" data-name="Layer 1" xmlns="http://www.w3.org/2000/svg" xmlns:xlink="http://www.w3.org/1999/xlink" viewBox="0 0 512 512"><defs><style>.cls-1{fill:url(#linear-gradient);}.cls-2{fill:url(#linear-gradient-2);}.cls-3{fill:url(#linear-gradient-3);}.cls-4{fill:url(#linear-gradient-4);}.cls-5{fill:url(#linear-gradient-5);}.cls-6{fill:url(#linear-gradient-6);}.cls-7{fill:url(#linear-gradient-7);}.cls-8{fill:url(#linear-gradient-8);}.cls-9{fill:url(#linear-gradient-9);}</style><linearGradient id="linear-gradient" x1="171.14" y1="135.13" x2="171.14" y2="433.35" gradientUnits="userSpaceOnUse"><stop offset="0" stop-color="#ffe266"/><stop offset="0.79" stop-color="#fcdc39"/></linearGradient><linearGradient id="linear-gradient-2" x1="172.11" y1="135.13" x2="172.11" y2="433.35" xlink:href="#linear-gradient"/><linearGradient id="linear-gradient-3" x1="237.3" y1="135.13" x2="237.3" y2="433.35" xlink:href="#linear-gradient"/><linearGradient id="linear-gradient-4" x1="254.01" y1="135.13" x2="254.01" y2="433.35" xlink:href="#linear-gradient"/><linearGradient id="linear-gradient-5" x1="302.77" y1="135.13" x2="302.77" y2="433.35" xlink:href="#linear-gradient"/><linearGradient id="linear-gradient-6" x1="294.95" y1="135.13" x2="294.95" y2="433.35" xlink:href="#linear-gradient"/><linearGradient id="linear-gradient-7" x1="320.14" y1="135.13" x2="320.14" y2="433.35" xlink:href="#linear-gradient"/><linearGradient id="linear-gradient-8" x1="367.51" y1="135.13" x2="367.51" y2="433.35" xlink:href="#linear-gradient"/><linearGradient id="linear-gradient-9" x1="99.6" y1="135.13" x2="99.6" y2="433.35" xlink:href="#linear-gradient"/></defs><title>Construction  ICONS</title><polygon class="cls-1" points="66.42 500.75 66.42 464.57 207.66 464.57 207.31 292.06 66.42 174.69 66.42 123.35 275.85 297.75 275.85 348.61 245.21 323.21 245.21 500.75 66.42 500.75"/><path class="cls-2" d="M125.69,148.63l-10.86-10.86,24.11-24.12,10.86,10.86-24.11,24.12Zm39.79-39.81L154.62,98l24.12-24.11L189.6,84.71l-24.12,24.11ZM205.28,69,194.42,58.18l24.11-24.11,10.86,10.86L205.28,69Z"/><path class="cls-3" d="M171,158.75l-10.86-10.86,24.11-24.11,10.86,10.86L171,158.75ZM210.78,119l-10.86-10.86L224,84,234.9,94.84,210.78,119Zm39.79-39.77L239.71,68.32l24.13-24.11,10.83,10.86-24.1,24.11Zm39.78-39.8L279.49,28.52,303.61,4.4l10.86,10.86L290.35,39.38Z"/><path class="cls-4" d="M189.7,195.46l-11-10.73,23.84-24.38,11,10.72L189.7,195.46ZM229,155.22l-11-10.72,23.83-24.4,11,10.72L229,155.22ZM268.37,115l-11-10.73,23.82-24.4,11,10.73L268.37,115ZM307.7,74.73,296.73,64l21.6-22.1,11,10.73-21.6,22.1Z"/><path class="cls-5" d="M236.54,204.05l-10.86-10.86,24.11-24.11,10.86,10.86-24.11,24.11Zm39.77-39.78-10.84-10.86,24.1-24.12,10.86,10.86-24.12,24.12Zm39.79-39.79-10.86-10.86,24.12-24.11,10.85,10.85L316.1,124.48Zm39.79-39.81L345,73.82l24-24,10.87,10.86-24,24Z"/><path class="cls-6" d="M248.54,249.33l-10.86-10.85,24.12-24.12,10.84,10.86-24.1,24.11Zm39.76-39.78-10.86-10.86,24.13-24.11,10.85,10.86L288.3,209.55Zm39.81-39.8-10.86-10.86,24.12-24.12,10.85,10.86-24.11,24.12Z"/><path class="cls-7" d="M357.59,385.53a11.1,11.1,0,0,1-.86-22.16h.18c6.48,0,11.24,4.43,11.76,10.22a11.13,11.13,0,0,1-10.22,11.78c-.17.16-.69.16-.86.16Zm-5.8-33.59a11.16,11.16,0,0,1-10.57-7.67,11.11,11.11,0,0,1,21.15-6.83,11.17,11.17,0,0,1-7.16,14,12,12,0,0,1-3.42.51Zm-18.41-28.31a11,11,0,0,1-7.86-3.25,10.82,10.82,0,0,1-3.23-7.84,10.42,10.42,0,0,1,3.41-7.84,11.4,11.4,0,0,1,15.69.18l.34.33a11,11,0,0,1,2.73,7.5,11.07,11.07,0,0,1-11.08,10.92Zm-24.91-23.37a11,11,0,0,1-7.32-2.9,10.58,10.58,0,0,1-3.59-7.67,10.82,10.82,0,0,1,2.73-8,11.57,11.57,0,0,1,15.7-.83,11.16,11.16,0,0,1,3.57,7.66,11.29,11.29,0,0,1-2.73,8,11,11,0,0,1-8.36,3.74Zm-25.91-22.33a10.77,10.77,0,0,1-7-2.57A11.21,11.21,0,0,1,274,259.84a11.24,11.24,0,0,1,15.52-1.54,11.09,11.09,0,0,1-7,19.63Z"/><polygon class="cls-8" points="419.26 338.62 419.26 404.07 315.77 404.07 315.77 338.62 291.36 338.62 291.36 500.75 443.67 500.75 443.67 338.62 419.26 338.62"/><rect class="cls-9" x="66.42" y="313.1" width="66.36" height="65.32"/></svg>