<svg id="Layer_1" data-name="Layer 1" xmlns="http://www.w3.org/2000/svg" xmlns:xlink="http://www.w3.org/1999/xlink" viewBox="0 0 512 512"><defs><style>.cls-1{fill:url(#linear-gradient);}.cls-2{fill:url(#linear-gradient-2);}.cls-3{fill:url(#linear-gradient-3);}.cls-4{fill:url(#linear-gradient-4);}.cls-5{fill:url(#linear-gradient-5);}.cls-6{fill:url(#linear-gradient-6);}.cls-7{fill:url(#linear-gradient-7);}.cls-8{fill:url(#linear-gradient-8);}</style><linearGradient id="linear-gradient" x1="177.26" y1="73.85" x2="177.26" y2="478.41" gradientUnits="userSpaceOnUse"><stop offset="0" stop-color="#ffe266"/><stop offset="0.79" stop-color="#fcdc39"/></linearGradient><linearGradient id="linear-gradient-2" x1="134.76" y1="73.85" x2="134.76" y2="478.41" xlink:href="#linear-gradient"/><linearGradient id="linear-gradient-3" x1="269.5" y1="73.85" x2="269.5" y2="478.41" xlink:href="#linear-gradient"/><linearGradient id="linear-gradient-4" x1="180.95" y1="73.85" x2="180.95" y2="478.41" xlink:href="#linear-gradient"/><linearGradient id="linear-gradient-5" x1="216.32" y1="73.85" x2="216.32" y2="478.41" xlink:href="#linear-gradient"/><linearGradient id="linear-gradient-6" x1="229.14" y1="73.85" x2="229.14" y2="478.41" gradientTransform="matrix(0.64, 0.77, -0.77, 0.64, 124.5, -155.66)" xlink:href="#linear-gradient"/><linearGradient id="linear-gradient-7" x1="252.31" y1="73.85" x2="252.31" y2="478.41" xlink:href="#linear-gradient"/><linearGradient id="linear-gradient-8" x1="252.31" y1="73.85" x2="252.31" y2="478.41" xlink:href="#linear-gradient"/></defs><title>Construction  ICONS</title><circle class="cls-1" cx="177.26" cy="45.35" r="21.75"/><path class="cls-2" d="M213.63,78.19A12.86,12.86,0,0,0,195.45,78l-27.09,26.41-5.88-12a20.15,20.15,0,0,0-29-27.45c-1.65,1.33-40.75,32.9-61.94,75.28a20,20,0,0,0-2,6.67c0,.16,0,.32-.06.47s-.06.6-.07.89a12.44,12.44,0,0,0,0,2.2,20.77,20.77,0,0,0,1,5.26l12.75,56.82L54.54,253.63a12.86,12.86,0,1,0,21.09,14.72l31.92-45.78a12.81,12.81,0,0,0,2-10.16L99.34,166.9a20.37,20.37,0,0,0,5.44-4.38l18.63,10.12-10,34.09a12.86,12.86,0,0,0,8.7,16,13.07,13.07,0,0,0,3.63.53A12.86,12.86,0,0,0,138.05,214l13-44.07A12.88,12.88,0,0,0,144.81,155l-26.56-14.41A222.87,222.87,0,0,1,143,111l10.08,20.68a12.86,12.86,0,0,0,9.38,7,12.43,12.43,0,0,0,2.18.19,12.83,12.83,0,0,0,9-3.68l39.82-38.88A12.86,12.86,0,0,0,213.63,78.19Z"/><path class="cls-3" d="M268.51,73.09,78.59,261.61V489.72H235.27V365.12h68.46v124.6H460.41V262ZM191.94,443.66H139.43V371.55h52.51Zm211.21,0H350.64V371.55h52.51Z"/><path class="cls-4" d="M209.5,132.52c-1.54,5.73-6.35,9.43-10.73,8.25l-41.22-11c-4.39-1.18-6.69-6.78-5.16-12.51h0c1.54-5.74,6.34-9.44,10.73-8.26L204.34,120c4.38,1.17,6.69,6.78,5.16,12.51Z"/><path class="cls-5" d="M237.11,51.37a3.35,3.35,0,0,0-.42-4.72h0a3.36,3.36,0,0,0-4.72.42L195.53,90.5a3.36,3.36,0,0,0,.41,4.72h0a3.36,3.36,0,0,0,4.72-.41Z"/><rect class="cls-6" x="222.81" y="37.97" width="12.66" height="35.36" transform="translate(39.24 195.43) rotate(-50.01)"/><path class="cls-7" d="M254,86.12a1.64,1.64,0,0,0-1.64-1.65h0a1.65,1.65,0,0,0-1.64,1.65v7.1a1.64,1.64,0,0,0,1.64,1.65h0A1.64,1.64,0,0,0,254,93.22Z"/><path class="cls-8" d="M254.94,85.29a.83.83,0,0,1-.82.83H250.5a.83.83,0,0,1-.82-.83h0a.82.82,0,0,1,.82-.82h3.62a.82.82,0,0,1,.82.82Z"/></svg>