<svg id="Layer_1" data-name="Layer 1" xmlns="http://www.w3.org/2000/svg" xmlns:xlink="http://www.w3.org/1999/xlink" viewBox="0 0 512 512"><defs><style>.cls-1{fill:url(#linear-gradient);}.cls-2{fill:url(#linear-gradient-2);}.cls-3{fill:url(#linear-gradient-3);}.cls-4{fill:url(#linear-gradient-4);}.cls-5{fill:url(#linear-gradient-5);}</style><linearGradient id="linear-gradient" x1="256.32" y1="79.98" x2="256.32" y2="380.93" gradientUnits="userSpaceOnUse"><stop offset="0" stop-color="#ffe266"/><stop offset="0.79" stop-color="#fcdc39"/></linearGradient><linearGradient id="linear-gradient-2" x1="96.94" y1="79.98" x2="96.94" y2="380.93" xlink:href="#linear-gradient"/><linearGradient id="linear-gradient-3" x1="142.16" y1="79.98" x2="142.16" y2="380.93" xlink:href="#linear-gradient"/><linearGradient id="linear-gradient-4" x1="187.51" y1="79.98" x2="187.51" y2="380.93" xlink:href="#linear-gradient"/><linearGradient id="linear-gradient-5" x1="232.67" y1="79.98" x2="232.67" y2="380.93" xlink:href="#linear-gradient"/></defs><title>Construction  ICONS</title><path class="cls-1" d="M501,267.57v-.74l-27.69-71a24.75,24.75,0,0,0-23.18-15.85h-62l13.42-33.5a25.33,25.33,0,0,0,.51-18.16h58.25a8.46,8.46,0,1,0,0-16.91H269.71a25.33,25.33,0,0,0-23.46,15.73l-5.19,12.52a8.37,8.37,0,0,1-7.83,5.24H86.6a25.28,25.28,0,0,0-23.46,15.57L20.46,263.56a25.37,25.37,0,0,0,23.45,35H321.59a25.31,25.31,0,0,0,23.52-15.68l17.71-42.8v71.79H260.18a8.46,8.46,0,0,0-8.46,8.46v28.2h-5.64a45.11,45.11,0,0,0-88.7,0h-21.6a45.12,45.12,0,0,0-88.71,0h-20V334.84a8.46,8.46,0,0,0-16.92,0v44.44a8.46,8.46,0,1,0,16.92,0V365.52h20a45.12,45.12,0,0,0,88.71,0h21.48a45.12,45.12,0,0,0,88.71,0H388.25a45.12,45.12,0,0,0,89.33-3.89v3.89a24.93,24.93,0,0,0,24.87-24.64V275.74a24.61,24.61,0,0,0-1.3-7.61S501,267.57,501,267.57ZM91.34,385.31a28.2,28.2,0,1,1,28.2-28.19A28.2,28.2,0,0,1,91.34,385.31Zm110.19,0a28.14,28.14,0,1,1,.12,0ZM329.38,276.42a8.46,8.46,0,0,1-7.84,5.24H43.91A8.45,8.45,0,0,1,36.08,270L78.54,167a8.38,8.38,0,0,1,7.84-5.24H233A25.32,25.32,0,0,0,256.46,146l5.19-12.52a8.4,8.4,0,0,1,7.84-5.24H378.1a8.45,8.45,0,0,1,8.47,8.44,8.3,8.3,0,0,1-.63,3.23ZM268.64,348.6V328.81h94.18v12.07a24.49,24.49,0,0,0,1.41,8Zm164,36.71a28.2,28.2,0,1,1,28.2-28.19A28.19,28.19,0,0,1,432.63,385.31Zm52.9-44.43a8,8,0,0,1-8,8v3.9a45.12,45.12,0,0,0-89.33-3.9h-.56a8,8,0,0,1-7.95-8V204.63a8,8,0,0,1,8-8h62a8,8,0,0,1,7.44,5.08l23.29,59.61h-70.6a8.46,8.46,0,1,0,0,16.91h75.68Z"/><path class="cls-2" d="M112.66,185.18a8.46,8.46,0,0,0-11.16,4.32l-.12.3L76.85,249.86a8.46,8.46,0,1,0,15.26,7.29,7.12,7.12,0,0,0,.36-.86l24.76-60.12A8.45,8.45,0,0,0,112.66,185.18Z"/><path class="cls-3" d="M157.88,185.18a8.46,8.46,0,0,0-11.15,4.32l-.12.3-24.53,60.06a8.46,8.46,0,1,0,15.26,7.29c.13-.28.25-.57.36-.86l24.75-60.12A8.45,8.45,0,0,0,157.88,185.18Z"/><path class="cls-4" d="M203.11,185.18A8.45,8.45,0,0,0,192,189.5l-.13.3L167.3,249.86A8.47,8.47,0,0,0,183,256.29l24.76-60.12A8.45,8.45,0,0,0,203.11,185.18Z"/><path class="cls-5" d="M248.4,185.18a8.46,8.46,0,0,0-11.16,4.32l-.12.3-24.53,60.06a8.46,8.46,0,1,0,15.26,7.29,9.19,9.19,0,0,0,.36-.86L253,196.17A8.44,8.44,0,0,0,248.4,185.18Z"/></svg>