<svg id="Layer_1" data-name="Layer 1" xmlns="http://www.w3.org/2000/svg" xmlns:xlink="http://www.w3.org/1999/xlink" viewBox="0 0 512 512"><defs><style>.cls-1{fill:url(#linear-gradient);}.cls-2{fill:url(#linear-gradient-2);}</style><linearGradient id="linear-gradient" x1="256.32" y1="45.26" x2="256.32" y2="426.4" gradientUnits="userSpaceOnUse"><stop offset="0" stop-color="#ffe266"/><stop offset="0.79" stop-color="#fcdc39"/></linearGradient><linearGradient id="linear-gradient-2" x1="256.1" y1="45.26" x2="256.1" y2="426.4" xlink:href="#linear-gradient"/></defs><title>Construction  ICONS</title><path class="cls-1" d="M280.64,5.87c85,10.88,150.84,52.28,194.14,126.93,30.71,53,40,110.41,28.31,170.5-24.23,124.35-134.73,211-259.56,204.48C119.68,501.29,17.07,404.09,5.9,282.36c-6.34-69.11,11.77-131.27,55.85-185,43.9-53.52,101.16-83.24,169.67-91.24m24.83,22.82c-125.36-.23-227.5,101.7-227.79,227.31C28.18,381.62,130,483.73,255.67,484.11S483.8,382.25,483.79,256.49C483.78,131,382,29.17,256.25,28.94Z"/><path class="cls-2" d="M111.17,151.79c.91,1,1.76,2,2.7,2.91,9.69,9.59,12.17,18.5,3.86,31.81-12.74,20.41-18.3,50-16.54,68.68,5.36-.45,10.75-.89,16.14-1.37,27-2.37,54.06-5.06,81.13-7,8.58-.61,14.18-3.07,14.76-12.91-11-11.21-25-18.17-40.51-22.59-2.33-.67-5.53-2.73-6-4.72-8.2-32.38-26-59.07-48.15-83.37-2.54-2.79-4.55-6.07-6.81-9.12.53-.59,1.06-1.19,1.58-1.79a80.44,80.44,0,0,1,7.57,5.21c19.44,16.83,39.88,32.12,64,41.73a202.16,202.16,0,0,0,20,6.85c3.66,1,5.43,2.73,6.34,6.44,3.86,15.71,11.09,29.64,22.6,41.12,10.92-3.14,11.11-3.12,12.14-14,3.09-32.49,6-65,9.19-99.45-11.5,1.55-22.37,2.45-33,4.59a137.31,137.31,0,0,0-45.84,18.3c-3.58,2.24-6.21,2.16-9.44-.29-5.08-3.85-10.37-7.41-15.71-11.18C209.5,65.8,312.51,59.41,382.74,129.33S447.26,302.43,401,361.54c-4.34-6.32-8.84-12.25-12.53-18.65-.88-1.52.41-4.89,1.58-6.91,12.8-22.16,20.3-45.87,21.43-71.51.07-1.54.08-3.09.05-4.63a9.51,9.51,0,0,0-.62-1.94c-10.71.88-21.6,1.69-32.48,2.69-21.54,2-43.07,4-64.6,6.06-10.63,1-10.62,1-15.21,11.71,11.05,11.48,24.67,18.75,40.08,22.69,4.6,1.18,6.75,3.19,8.1,7.91,8.35,29.4,24.09,54.72,44,77.62,3.46,4,6.55,8.26,9.81,12.41l-1.92,1.94c-3.36-2.5-6.93-4.75-10-7.53-18.21-16.25-37.53-30.83-60.44-39.9a177.66,177.66,0,0,0-20.68-6.87c-3.78-1-5.47-2.75-6.37-6.37-3.88-15.71-11.15-29.6-22.62-41.05a10.75,10.75,0,0,0-1.45.11c-7.89,1.71-10.56,6.3-11.15,14.63-2.19,31-5.46,62-8.3,92.95-.13,1.49,0,3,0,5,15.23.22,29.88-1.67,43.77-6.66,12.17-4.38,23.81-10.28,35.5-15.89,3.11-1.49,5.34-2.26,8.31.07,5.15,4.05,10.56,7.76,16,11.73-58,46.13-161.63,52.63-232-17.81C58.41,312.59,65.71,208.78,111.17,151.79ZM254.69,412.18c0-2,.1-3.33,0-4.6-2.82-31-6-61.94-8.27-93-.6-8.33-2.92-13.11-11.16-15.51-3.43-1-5.38-1.17-8.06,1.2-6.61,5.84-13.52,11.35-20.3,17-19.81,16.52-39.6,33.05-60,50.05C177.13,396.22,212.52,411,254.69,412.18Zm2.89-310.28c0,1.2-.1,2.48,0,3.74,2.82,31,6,61.9,8.28,92.9.6,8.34,2.95,13.14,11.22,15.46,3.47,1,5.47.94,8.12-1.37,8-6.93,16.25-13.57,24.38-20.36q27.67-23.09,55.33-46.19C342.74,119.85,287.63,97.17,257.58,101.9Zm110,46c-.73.25-1,.25-1.1.38Q332.65,188.59,299,229c-.94,1.14-1,3.55-.62,5.12a34.65,34.65,0,0,0,3.54,8.5,6.54,6.54,0,0,0,4.15,3q50,4.82,100.13,9.28a44.15,44.15,0,0,0,5.5-.24C410.76,212.88,395.77,177.6,367.53,147.89ZM145.28,365.78c22.66-27.16,44.49-53.75,66.87-79.88,5.63-6.58-1-10.36-2-15.34-.29-1.55-4.18-3.22-6.56-3.46-22.82-2.3-45.67-4.32-68.52-6.39-11.31-1-22.63-2-34.56-3C101.38,299.91,116.33,335.19,145.28,365.78Zm111.13-85.44A23.51,23.51,0,0,0,280,256.23a23.88,23.88,0,1,0-47.76.57C232.37,270.2,242.89,280.44,256.41,280.34Z"/></svg>