<svg id="Layer_1" data-name="Layer 1" xmlns="http://www.w3.org/2000/svg" xmlns:xlink="http://www.w3.org/1999/xlink" viewBox="0 0 512 512"><defs><style>.cls-1{fill:url(#linear-gradient);}.cls-2{fill:url(#linear-gradient-2);}.cls-3{fill:url(#linear-gradient-3);}</style><linearGradient id="linear-gradient" x1="159.31" y1="71.81" x2="159.31" y2="417.22" gradientUnits="userSpaceOnUse"><stop offset="0" stop-color="#ffe266"/><stop offset="0.79" stop-color="#fcdc39"/></linearGradient><linearGradient id="linear-gradient-2" x1="183.84" y1="71.81" x2="183.84" y2="417.22" xlink:href="#linear-gradient"/><linearGradient id="linear-gradient-3" x1="335.28" y1="71.81" x2="335.28" y2="417.22" xlink:href="#linear-gradient"/></defs><title>Construction  ICONS</title><path class="cls-1" d="M36.77,169.14c-1.35,0-2.69-.09-4-.19L55.3,415.1A24.86,24.86,0,0,0,80,438H186.53A46.2,46.2,0,0,1,188.16,397,45.45,45.45,0,0,1,155,353.27V318.9a45.45,45.45,0,0,1,19.2-37.15V198.42a9.6,9.6,0,0,1,19.2,0v24.77c2.61-3,.89-1,26.49-26.78a46.44,46.44,0,0,1,54.34-7.49,45.44,45.44,0,0,1,11.62-19.78Zm85.34,220.13a9.54,9.54,0,0,1-9.5-8.93L99.45,199.1a9.62,9.62,0,1,1,19.2-1.35L131.71,378.9A9.63,9.63,0,0,1,122.11,389.27Z"/><path class="cls-2" d="M319.39,65.56H258.56V35.84A18.85,18.85,0,0,0,239.74,17H127.91a18.86,18.86,0,0,0-18.83,18.83V65.56H48.19A31.91,31.91,0,0,0,16.32,97.43v32a20.48,20.48,0,0,0,20.45,20.54H330.91a20.55,20.55,0,0,0,20.45-20.54v-32A32,32,0,0,0,319.39,65.56ZM127.91,36.21l111.45-.37V65.56H128.19Z"/><path class="cls-3" d="M495.74,313.62a26.22,26.22,0,0,0-25.73-21,7.61,7.61,0,0,1-6.62-4.61q-1.59-4.32-3.46-8.35a7.22,7.22,0,0,1,1.25-8.06A25.92,25.92,0,0,0,469,253a25.43,25.43,0,0,0-7.68-18.62L436.9,209.94c-9.89-9.79-27.08-9.79-37,0-.19.2-.38.29-.57.48a7.36,7.36,0,0,1-7.59.87c-2.78-1.25-5.47-2.4-8.16-3.46a7.17,7.17,0,0,1-4.89-6.72,26.18,26.18,0,0,0-26.21-26.21H318.05a26.21,26.21,0,0,0-26.21,26.31,7.26,7.26,0,0,1-4.9,6.72c-2.59,1-5.37,2.11-8.16,3.36a7.58,7.58,0,0,1-7.58-.77l-.58-.58c-9.89-9.79-27-9.88-37.05,0l-24.39,24.48a26.49,26.49,0,0,0,0,37.06,6.51,6.51,0,0,1,2,4.9,6.93,6.93,0,0,1-.67,3.16c-1.16,2.6-2.31,5.38-3.56,8.36a6.91,6.91,0,0,1-6.62,4.7,26.24,26.24,0,0,0-26.11,26.3v34.37a26.2,26.2,0,0,0,26.3,26.21,7.26,7.26,0,0,1,6.72,4.9,84.14,84.14,0,0,0,3.36,8.06,7.35,7.35,0,0,1-.86,7.68c-.19.19-.39.29-.58.48A26.55,26.55,0,0,0,206,433.82a31,31,0,0,0,3.17,3.93l24.48,24.39c9.89,9.79,26.88,10,37.15-.1,2-2.11,5.76-2.4,8-1.44a79.41,79.41,0,0,0,8.35,3.55,6.9,6.9,0,0,1,3.94,3.46,7,7,0,0,1,.77,3.17,27,27,0,0,0,7.87,18.81A26.64,26.64,0,0,0,310,495.64a21.92,21.92,0,0,0,8.07,1.35h34.46a22.36,22.36,0,0,0,7.49-1.16,25.92,25.92,0,0,0,18.72-25.05,7,7,0,0,1,4.7-6.53c2.79-1.06,5.57-2.31,8.26-3.55a7.2,7.2,0,0,1,8.25,1.53c10,9.6,27,9.7,37.06-.09l24.39-24.48a26.19,26.19,0,0,0,3.16-33.12,17.84,17.84,0,0,0-3.26-3.94c-2-2-2.74-5.09-1.25-8.64.44-1,3.84-8,3.84-8.93a7.05,7.05,0,0,1,6.24-3.55,26,26,0,0,0,25.63-21.31,28.23,28.23,0,0,0,.58-4.9V318.9A34.08,34.08,0,0,0,495.74,313.62ZM335.23,401.27A65.29,65.29,0,1,1,400.51,336,64.79,64.79,0,0,1,335.23,401.27Z"/></svg>