<svg id="Layer_1" data-name="Layer 1" xmlns="http://www.w3.org/2000/svg" xmlns:xlink="http://www.w3.org/1999/xlink" viewBox="0 0 512 512"><defs><style>.cls-1{fill:url(#linear-gradient);}.cls-2{fill:url(#linear-gradient-2);}.cls-3{fill:url(#linear-gradient-3);}.cls-4{fill:url(#linear-gradient-4);}.cls-5{fill:url(#linear-gradient-5);}.cls-6{fill:url(#linear-gradient-6);}</style><linearGradient id="linear-gradient" x1="256.32" y1="20.74" x2="256.32" y2="487.74" gradientUnits="userSpaceOnUse"><stop offset="0" stop-color="#4995b7"/><stop offset="1" stop-color="#2e78a2"/></linearGradient><linearGradient id="linear-gradient-2" x1="403.77" y1="20.74" x2="403.77" y2="487.74" xlink:href="#linear-gradient"/><linearGradient id="linear-gradient-3" x1="256.84" y1="20.74" x2="256.84" y2="487.74" xlink:href="#linear-gradient"/><linearGradient id="linear-gradient-4" x1="411.84" y1="20.74" x2="411.84" y2="487.74" gradientTransform="translate(530.42 -155.88) rotate(55.99)" xlink:href="#linear-gradient"/><linearGradient id="linear-gradient-5" x1="99.62" y1="20.74" x2="99.62" y2="487.74" gradientTransform="translate(251.8 16.08) rotate(34.01)" xlink:href="#linear-gradient"/><linearGradient id="linear-gradient-6" x1="332.02" y1="20.74" x2="332.02" y2="487.74" xlink:href="#linear-gradient"/></defs><title>Electronics  ICONS</title><path class="cls-1" d="M9.25,69.11V302a49.36,49.36,0,0,0,49.42,49.41h66.76v-31H58.67A18.62,18.62,0,0,1,40.27,302V282.53h137.2c-1.05,21.55-7.89,67.81-46.26,97.78l-12.09,9.46L138.57,414l12.09-9.46c48.89-38.9,56.77-95.68,57.82-122.49h32.07v98.83h31.54V282h32.07c1,26.29,8.93,83.59,57.82,122.49L374.07,414l19.45-24.18-12.09-9.46c-37.85-30-44.68-76.23-45.73-97.78H472.9V302a18.62,18.62,0,0,1-18.4,18.4H384.58v31H454A49.36,49.36,0,0,0,503.39,302V69.11ZM40.27,251V100.12h432.1V251Z"/><rect class="cls-2" x="364.08" y="125.35" width="79.38" height="31.01"/><rect class="cls-3" x="241.07" y="397.65" width="31.54" height="31.54"/><rect class="cls-4" x="396.07" y="405.23" width="31.54" height="31.54" transform="translate(-167.51 526.87) rotate(-55.99)"/><rect class="cls-5" x="83.85" y="403.89" width="31.54" height="31.54" transform="translate(-217.71 127.53) rotate(-34.01)"/><rect class="cls-6" x="316.25" y="124.83" width="31.54" height="31.54"/></svg>