<svg id="Layer_1" data-name="Layer 1" xmlns="http://www.w3.org/2000/svg" xmlns:xlink="http://www.w3.org/1999/xlink" viewBox="0 0 512 512"><defs><style>.cls-1{fill:url(#linear-gradient);}.cls-2{fill:url(#linear-gradient-2);}</style><linearGradient id="linear-gradient" x1="140.23" y1="-7.85" x2="140.23" y2="488.56" gradientUnits="userSpaceOnUse"><stop offset="0" stop-color="#4995b7"/><stop offset="1" stop-color="#2e78a2"/></linearGradient><linearGradient id="linear-gradient-2" x1="256.32" y1="-7.85" x2="256.32" y2="488.49" xlink:href="#linear-gradient"/></defs><title>Electronics  ICONS</title><path class="cls-1" d="M194.55,173.28a13.65,13.65,0,0,0-13.78-13.79c-52.4,0-94.86,41.91-94.86,93.75a13.79,13.79,0,1,0,27.57,0c0-36.4,30.34-66.18,67.29-66.18A13.64,13.64,0,0,0,194.55,173.28Z"/><path class="cls-2" d="M201.17,504.17a105.32,105.32,0,0,0,26.47-3.31l36.95-9.37,37,9.37A108.63,108.63,0,0,0,328,504.17a110.16,110.16,0,0,0,77.76-32l1.11-1.1a316.85,316.85,0,0,0,68.38-101.47l6.62-15.44-16.55-3.31c-44.67-8.83-77.2-49.09-77.2-94.31a96.21,96.21,0,0,1,59-88.79L467,159.49l-15.44-14.34A150,150,0,0,0,349,104.89a277.71,277.71,0,0,0-67.28,8.27l-3.31.56V111A85.12,85.12,0,0,1,325.81,34.3L313.67,9.48a112.28,112.28,0,0,0-51.84,53,122.47,122.47,0,0,0-102-54.6A115.8,115.8,0,0,0,119,15l-17.1,6.07L111.83,36A125,125,0,0,0,215,91.1a124.91,124.91,0,0,0,39.7-6.61,110.11,110.11,0,0,0-3.3,27v2.76l-3.31-1.66a277.71,277.71,0,0,0-67.28-8.27c-82.73,0-150,66.73-150,148.9a307.59,307.59,0,0,0,92.65,219.5A110.65,110.65,0,0,0,201.17,504.17ZM148.23,36a97.22,97.22,0,0,1,78.31,26.47A96.6,96.6,0,0,1,148.23,36Zm32.54,95.95c20.4,0,40.81,2.76,60.66,7.17l23.71,6.07,23.72-6.07a250.16,250.16,0,0,1,60.66-7.17,122.49,122.49,0,0,1,67.83,20.41A124.26,124.26,0,0,0,361.65,256c0,52.94,34.2,99.82,82.73,116.92-13.79,29.22-32.54,55.14-55.7,78.31l-1.11,1.1a82.63,82.63,0,0,1-58.45,24.27,78.57,78.57,0,0,1-19.86-2.21l-43.57-11-43.56,11a86.32,86.32,0,0,1-78.87-21.51A280.08,280.08,0,0,1,58.33,252.69C58.33,186,113.48,131.91,180.77,131.91Z"/></svg>