<svg id="Layer_1" data-name="Layer 1" xmlns="http://www.w3.org/2000/svg" xmlns:xlink="http://www.w3.org/1999/xlink" viewBox="0 0 512 512"><defs><style>.cls-1{fill:url(#linear-gradient);}.cls-2{fill:url(#linear-gradient-4);}.cls-3{fill:url(#linear-gradient-5);}.cls-4{fill:url(#linear-gradient-6);}.cls-5{fill:url(#linear-gradient-7);}.cls-6{fill:url(#linear-gradient-8);}.cls-7{fill:url(#linear-gradient-9);}.cls-8{fill:url(#linear-gradient-10);}</style><linearGradient id="linear-gradient" x1="256.32" y1="95.3" x2="256.32" y2="371.04" gradientUnits="userSpaceOnUse"><stop offset="0" stop-color="#4995b7"/><stop offset="1" stop-color="#2e78a2"/></linearGradient><linearGradient id="linear-gradient-4" x1="191.86" y1="95.3" x2="191.86" y2="371.04" xlink:href="#linear-gradient"/><linearGradient id="linear-gradient-5" x1="213.14" y1="95.3" x2="213.14" y2="371.04" xlink:href="#linear-gradient"/><linearGradient id="linear-gradient-6" x1="74.09" y1="95.3" x2="74.09" y2="371.04" xlink:href="#linear-gradient"/><linearGradient id="linear-gradient-7" x1="74.12" y1="95.3" x2="74.12" y2="371.04" xlink:href="#linear-gradient"/><linearGradient id="linear-gradient-8" x1="74.06" y1="95.3" x2="74.06" y2="371.04" xlink:href="#linear-gradient"/><linearGradient id="linear-gradient-9" x1="438.57" y1="95.3" x2="438.57" y2="371.04" xlink:href="#linear-gradient"/><linearGradient id="linear-gradient-10" x1="438.52" y1="95.3" x2="438.52" y2="371.04" xlink:href="#linear-gradient"/></defs><title>Electronics  ICONS</title><path class="cls-1" d="M153.69,312.53a8.14,8.14,0,0,0-8.15,8.14V425.15a8.15,8.15,0,0,0,8.15,8.14H359a8.14,8.14,0,0,0,8.14-8.14V320.67a8.13,8.13,0,0,0-8.14-8.14H287.53V282.68H359a8.14,8.14,0,0,0,8.14-8.15V153.77a8.14,8.14,0,0,0-8.14-8.14H153.69a8.15,8.15,0,0,0-8.15,8.14V274.53a8.15,8.15,0,0,0,8.15,8.15h71.42v29.85ZM350.81,417h-189V381.08h189Zm-189-150.62V161.91h189V266.39Zm109.41,16.29v29.85H241.39V282.68Zm79.57,46.13v36h-189v-36Z"/><circle class="cls-1" cx="256.32" cy="346.72" r="7.92"/><circle class="cls-1" cx="256.32" cy="398.61" r="7.92"/><path class="cls-2" d="M181.58,210.76a8.06,8.06,0,0,0,5.76-2.39L207.69,188a8.14,8.14,0,1,0-11.1-11.91c-.14.13-.28.26-.41.4l-20.35,20.36a8.14,8.14,0,0,0,5.75,13.89Z"/><path class="cls-3" d="M239,177.17l-63.12,63.12a8.14,8.14,0,1,0,11.1,11.91c.14-.13.28-.27.41-.41l63.12-63.06a8.14,8.14,0,0,0-11.1-11.92c-.14.13-.28.27-.41.41Z"/><path class="cls-4" d="M33.14,433.29H115a8.14,8.14,0,0,0,8.14-8.14V86.85A8.14,8.14,0,0,0,115,78.71H33.14A8.14,8.14,0,0,0,25,86.85v338.3A8.14,8.14,0,0,0,33.14,433.29ZM41.28,95H106.9V308.4a48.85,48.85,0,0,0-65.56,0Zm32.57,217.1a23,23,0,1,1-.11-.11h.32Zm-32.57,69.2a48.85,48.85,0,0,0,65.57,0v35.82H41.28Z"/><path class="cls-5" d="M99,230.79a24.91,24.91,0,1,0-25,24.91A24.91,24.91,0,0,0,99,230.79Zm-33.6,0a8.63,8.63,0,1,1,8.63,8.63A8.63,8.63,0,0,1,65.43,230.79Z"/><path class="cls-6" d="M74.06,169.57a24.92,24.92,0,1,0-24.91-24.91h0A25,25,0,0,0,74.06,169.57Zm0-33.6a8.63,8.63,0,1,1-8.63,8.63A8.63,8.63,0,0,1,74.06,136Z"/><path class="cls-7" d="M487.64,425.15V86.85a8.15,8.15,0,0,0-8.14-8.14H397.65a8.14,8.14,0,0,0-8.14,8.14v338.3a8.14,8.14,0,0,0,8.14,8.14H479.5A8.15,8.15,0,0,0,487.64,425.15ZM471.36,417H405.68V381.18a48.85,48.85,0,0,0,65.57,0ZM438.79,377.6A32.57,32.57,0,1,1,471.36,345a32.56,32.56,0,0,1-32.57,32.56h0Zm32.57-69.2a48.87,48.87,0,0,0-65.57,0V95h65.57Z"/><path class="cls-8" d="M438.57,255.7a24.91,24.91,0,1,0-25-24.91A24.91,24.91,0,0,0,438.57,255.7Zm0-33.59a8.63,8.63,0,1,1-8.68,8.63A8.63,8.63,0,0,1,438.57,222.11Z"/><path class="cls-8" d="M438.57,169.57a24.92,24.92,0,1,0-25-24.91A24.92,24.92,0,0,0,438.57,169.57Zm0-33.6a8.63,8.63,0,1,1-8.68,8.63A8.63,8.63,0,0,1,438.57,136Z"/></svg>