<svg id="Layer_1" data-name="Layer 1" xmlns="http://www.w3.org/2000/svg" xmlns:xlink="http://www.w3.org/1999/xlink" viewBox="0 0 512 512"><defs><style>.cls-1{fill:url(#linear-gradient);}.cls-2{fill:url(#linear-gradient-2);}</style><linearGradient id="linear-gradient" x1="256.32" y1="27.89" x2="256.32" y2="466.19" gradientUnits="userSpaceOnUse"><stop offset="0" stop-color="#4995b7"/><stop offset="1" stop-color="#2e78a2"/></linearGradient><linearGradient id="linear-gradient-2" x1="287.14" y1="27.89" x2="287.14" y2="466.19" xlink:href="#linear-gradient"/></defs><title>Electronics  ICONS</title><polygon class="cls-1" points="478.43 382 314.31 258 198.33 258 34.21 382 478.43 382"/><path class="cls-2" d="M287.14,141.55a3.6,3.6,0,1,0-3.6-3.6,3.6,3.6,0,0,0,3.6,3.6Z"/><path class="cls-1" d="M261.31,106h-59V246h108V106h-24a6,6,0,0,1,0-12h24V58h-108V94h59a6,6,0,0,1,0,12Zm25.83,23.55a8.4,8.4,0,1,1-8.4,8.4h0A8.41,8.41,0,0,1,287.14,129.55Zm0,27a8.4,8.4,0,1,1-8.4,8.4h0A8.41,8.41,0,0,1,287.14,156.55Zm0,27a8.4,8.4,0,1,1-8.4,8.4h0A8.41,8.41,0,0,1,287.14,183.55Z"/><path class="cls-2" d="M287.14,195.55a3.6,3.6,0,1,0-3.6-3.6,3.6,3.6,0,0,0,3.6,3.6Z"/><path class="cls-2" d="M287.14,168.55a3.6,3.6,0,1,0-3.6-3.6,3.6,3.6,0,0,0,3.6,3.6Z"/><path class="cls-1" d="M22.32,454h468V394h-468Zm430.41-36a6,6,0,0,1,12,0v12a6,6,0,0,1-12,0Zm-24,0a6,6,0,0,1,12,0v12a6,6,0,0,1-12,0Zm-24,0a6,6,0,0,1,12,0v12a6,6,0,0,1-12,0Zm-24,0a6,6,0,0,1,12,0v12a6,6,0,0,1-12,0Z"/></svg>