<svg id="Layer_1" data-name="Layer 1" xmlns="http://www.w3.org/2000/svg" xmlns:xlink="http://www.w3.org/1999/xlink" viewBox="0 0 512 512"><defs><style>.cls-1{fill:url(#linear-gradient);}.cls-2{fill:url(#linear-gradient-2);}.cls-3{fill:url(#linear-gradient-3);}.cls-4{fill:url(#linear-gradient-4);}.cls-5{fill:url(#linear-gradient-6);}.cls-6{fill:url(#linear-gradient-7);}.cls-7{fill:url(#linear-gradient-8);}.cls-8{fill:url(#linear-gradient-9);}</style><linearGradient id="linear-gradient" x1="204.89" y1="9.51" x2="204.89" y2="481.98" gradientUnits="userSpaceOnUse"><stop offset="0" stop-color="#4995b7"/><stop offset="1" stop-color="#2e78a2"/></linearGradient><linearGradient id="linear-gradient-2" x1="204.89" y1="9.51" x2="204.89" y2="481.98" xlink:href="#linear-gradient"/><linearGradient id="linear-gradient-3" x1="204.92" y1="9.51" x2="204.92" y2="481.98" xlink:href="#linear-gradient"/><linearGradient id="linear-gradient-4" x1="271.69" y1="9.51" x2="271.69" y2="481.98" xlink:href="#linear-gradient"/><linearGradient id="linear-gradient-6" x1="438.7" y1="9.51" x2="438.7" y2="481.98" xlink:href="#linear-gradient"/><linearGradient id="linear-gradient-7" x1="438.67" y1="9.51" x2="438.67" y2="481.98" xlink:href="#linear-gradient"/><linearGradient id="linear-gradient-8" x1="438.67" y1="9.51" x2="438.67" y2="481.98" xlink:href="#linear-gradient"/><linearGradient id="linear-gradient-9" x1="324.77" y1="9.51" x2="324.77" y2="481.98" xlink:href="#linear-gradient"/></defs><title>Electronics  ICONS</title><path class="cls-1" d="M52.81,461.51A44.71,44.71,0,0,1,8.15,416.84V73.44A44.71,44.71,0,0,1,52.81,28.77H357a44.72,44.72,0,0,1,44.67,44.67V293.5a11.65,11.65,0,1,1-23.3,0V73.44A21.39,21.39,0,0,0,357,52.06H52.81A21.39,21.39,0,0,0,31.44,73.44v343.4a21.38,21.38,0,0,0,21.37,21.37H206.55a11.65,11.65,0,0,1,0,23.3Z"/><path class="cls-2" d="M387.19,138H22.59a5.83,5.83,0,0,1,0-11.65h364.6a5.83,5.83,0,1,1,0,11.65Z"/><path class="cls-3" d="M242.13,92.13H167.71a5.83,5.83,0,0,1,0-11.65h74.42a5.83,5.83,0,1,1,0,11.65Z"/><path class="cls-4" d="M271.66,422.32a65.69,65.69,0,1,1,65.74-65.69A65.77,65.77,0,0,1,271.66,422.32Zm0-119.67a54,54,0,1,0,54.1,54A54.07,54.07,0,0,0,271.66,302.65Z"/><path class="cls-4" d="M271.66,476.88a120.25,120.25,0,1,1,0-240.5C338,236.38,392,290.3,392,356.63S338,476.88,271.66,476.88Zm0-217.15a97,97,0,1,0,97,97A97.07,97.07,0,0,0,271.66,259.73Z"/><path class="cls-5" d="M481.88,483.23H395.46a11.65,11.65,0,0,1,0-23.29h86.48a11.65,11.65,0,1,1-.06,23.29Z"/><path class="cls-6" d="M438.67,410.38a68.72,68.72,0,0,1-50.08-22c-11.47-12.58-17-28.54-15.49-45l6.41-61.79a11.62,11.62,0,0,1,11.59-10.42h95.15a11.66,11.66,0,0,1,11.59,10.42l6.4,61.62v.17c1.52,16.48-4,32.44-15.49,45A68.93,68.93,0,0,1,438.67,410.38Zm-37-115.95-5.3,51.19a35,35,0,0,0,9.49,27,44.8,44.8,0,0,0,65.8,0,35,35,0,0,0,9.5-27.13l-5.3-51.13H401.64Z"/><path class="cls-7" d="M438.67,482.12A11.68,11.68,0,0,1,427,470.48V399.66a11.65,11.65,0,0,1,23.29,0v70.76A11.65,11.65,0,0,1,438.67,482.12Z"/><path class="cls-8" d="M324.77,97.55A11.24,11.24,0,1,1,336,86.31,11.25,11.25,0,0,1,324.77,97.55Zm0-11.65-.41.41a.43.43,0,0,0,.41.4Z"/></svg>