<svg id="Layer_1" data-name="Layer 1" xmlns="http://www.w3.org/2000/svg" xmlns:xlink="http://www.w3.org/1999/xlink" viewBox="0 0 512 512"><defs><style>.cls-1{fill:url(#linear-gradient);}.cls-2{fill:url(#linear-gradient-2);}.cls-3{fill:url(#linear-gradient-3);}</style><linearGradient id="linear-gradient" x1="246.82" y1="13.57" x2="246.82" y2="475.44" gradientUnits="userSpaceOnUse"><stop offset="0" stop-color="#4995b7"/><stop offset="1" stop-color="#2e78a2"/></linearGradient><linearGradient id="linear-gradient-2" x1="153.88" y1="13.57" x2="153.88" y2="475.44" xlink:href="#linear-gradient"/><linearGradient id="linear-gradient-3" x1="421.63" y1="13.57" x2="421.63" y2="475.44" xlink:href="#linear-gradient"/></defs><title>Electronics  ICONS</title><path class="cls-1" d="M167.63,12.89c5,.79,10,1.48,15,2.39C215.5,21.29,245,35.62,272.47,54,320.15,85.78,359.63,125.8,390,174.58c5.43,8.75,10.14,18,15,27.07,2.84,5.37,1.56,10.15-2.82,12.32s-8.67.43-11.5-5.18C361.5,151.15,319,105.38,266.07,69.08c-26.91-18.45-55.88-32.71-88.41-38.41-15.22-2.67-30.5-3-45,3.34-20.06,8.73-28.15,25.51-29.27,46.35-1.23,23.11,5.23,44.67,14.34,65.45,21.06,48.07,53.67,87.47,92.78,121.82,24.6,21.6,51.46,39.85,81.6,52.92,20.69,9,42,15.14,64.94,14.73,29.57-.52,49.64-19.11,52-48.65.21-2.69.31-5.4.64-8.07.59-4.83,3.75-7.61,8.22-7.43a7.48,7.48,0,0,1,7.46,7.72c.17,18.47-4.24,35.46-16.32,50-20.54,24.78-48,35.08-79,37.75-48,4.14-91.46-9.69-131.31-35.43-47.06-30.38-83.39-70.8-108.23-121.08-15.25-30.88-23.91-63.49-22.06-98.34C70.41,76.08,86.05,47.66,114.15,26c9.4-7.26,20.52-10.52,32.16-12.13,1.4-.19,2.77-.63,4.15-.95ZM86.79,96.58c-.15.63-.44,1.8-.68,3s-.43,2.19-.58,3.28c-4,29,1.42,56.61,12,83.41,15.64,39.57,40.33,72.92,71.44,101.61,35.57,32.8,76.16,55.79,124.93,62.19a141.33,141.33,0,0,0,39.31,0c-2.24-.62-3.27-1-4.33-1.19-27.21-5.06-52.07-16.1-75.57-30.27-50.58-30.51-92-70.77-124.86-119.72-14.58-21.7-26.54-44.8-34-69.93C91.21,118.22,89.23,107.12,86.79,96.58Z"/><path class="cls-2" d="M161.92,350.05c0,10,.15,20-.08,30a8.86,8.86,0,0,0,3.5,7.69q54.9,46.89,109.66,94c1.93,1.65,3.93,3.24,5.74,5,3.78,3.68,4.19,8,1.24,11.45s-7.38,3.81-11.5.8c-1.28-.93-2.45-2-3.65-3.06-19.54-16.76-39.12-33.46-58.56-50.33-2.39-2.08-4.05-2.46-7-.86-11.94,6.6-24,12.95-36.14,19.22-2.47,1.28-3.4,2.74-3.32,5.52.19,7.31.11,14.62,0,21.93-.05,6-3.29,9.79-8.14,9.7-4.66-.08-7.86-3.74-7.95-9.47-.11-7.47.16-14.95-.17-22.4a7,7,0,0,0-3-5c-12.21-6.76-24.64-13.14-36.88-19.85-2.47-1.36-3.84-.82-5.76.83Q70.26,470.9,40.36,496.42c-.48.42-1,.85-1.43,1.26-5.1,4.28-9.68,4.51-13,.68s-2.62-8.43,2.43-12.77q31.61-27.21,63.29-54.32c16.88-14.48,33.71-29,50.68-43.4a9,9,0,0,0,3.56-7.66c-.16-19.7-.08-39.4-.08-59.1,0-1.27-.06-2.55,0-3.81.43-5.08,3.64-8.45,8-8.49,4.54-.05,8,3.52,8.06,8.83.13,8.74,0,17.48,0,26.22Zm29.94,81.55-29.53-25.29v41Zm-46.4,15.69v-41L116,431.64Z"/><path class="cls-3" d="M469.27,171l-17.52-17.5c-4.88,5-10.11,10.2-15.27,15.51-2.64,2.72-5.69,4.12-9.43,3-5.66-1.68-7.22-8.76-2.72-13.53,5.23-5.52,10.87-10.66,16.48-16.11-1.14-1.68-2.07-2.91-2.84-4.22a7.3,7.3,0,0,1,1.23-9.57c2.93-2.9,6.46-3.2,10-.91a19.92,19.92,0,0,1,3.24,2.78q16,16,32,32c5.78,5.8,5.84,9.67.14,15.38Q427.31,235.13,370,292.35c-1.33,1.33-3,3.28-4.48,3.29-2.92,0-6.4-.41-8.64-2-2.87-2.1-3.14-5.83-1.12-9.06a27.74,27.74,0,0,1,4-4.68q52.69-52.74,105.46-105.43C466.46,173.21,467.89,172.17,469.27,171Z"/></svg>