<svg id="Layer_1" data-name="Layer 1" xmlns="http://www.w3.org/2000/svg" xmlns:xlink="http://www.w3.org/1999/xlink" viewBox="0 0 512 512"><defs><style>.cls-1{fill:url(#linear-gradient);}.cls-2{fill:url(#linear-gradient-2);}.cls-3{fill:url(#linear-gradient-3);}.cls-4{fill:url(#linear-gradient-4);}</style><linearGradient id="linear-gradient" x1="440.53" y1="6.45" x2="440.53" y2="493.61" gradientUnits="userSpaceOnUse"><stop offset="0" stop-color="#4995b7"/><stop offset="1" stop-color="#2e78a2"/></linearGradient><linearGradient id="linear-gradient-2" x1="60.88" y1="6.45" x2="60.88" y2="493.61" xlink:href="#linear-gradient"/><linearGradient id="linear-gradient-3" x1="215.02" y1="6.45" x2="215.02" y2="493.61" xlink:href="#linear-gradient"/><linearGradient id="linear-gradient-4" x1="256.37" y1="6.45" x2="256.37" y2="493.61" xlink:href="#linear-gradient"/></defs><title>Electronics  ICONS</title><path class="cls-1" d="M467.65,363.74V59.23c0-17.51-13.91-17.51-20.6-17.51h-12.9c-6.69,0-20.6,0-20.6,17.44V363.67A54.47,54.47,0,0,0,384.19,411a53.65,53.65,0,0,0,26.69,46.2,12.91,12.91,0,0,0,6.66,1.85h0A12.31,12.31,0,0,0,425.7,456a11.47,11.47,0,0,0,3.75-8.72V411a5.87,5.87,0,0,1,5.2-6.47l.63,0h11.51a6.23,6.23,0,0,1,6.39,6.08v36.66A11.53,11.53,0,0,0,464.49,459h.27a12.73,12.73,0,0,0,6.54-1.85A53.11,53.11,0,0,0,496.86,411,54.48,54.48,0,0,0,467.65,363.74Zm.68,77.26V410.92a21.29,21.29,0,0,0-21-21.54H435.39A20.75,20.75,0,0,0,414.52,410c0,.3,0,.61,0,.91v30.49a38.37,38.37,0,0,1-15.3-30.52,39.91,39.91,0,0,1,24.85-35.68l4.47-2V59.16a12.39,12.39,0,0,1,0-2.11h23.8a12.39,12.39,0,0,1,0,2.11V373.33l4.47,2A39.93,39.93,0,0,1,481.67,411,38.06,38.06,0,0,1,468.33,441Z"/><path class="cls-2" d="M30.81,237.2H41.45V393.1l-6.88,30.76,10.71,46.42H76.15l11.28-45.56-4.52-31.46L82.09,237.2H91a15,15,0,0,0,15-15v-15a15,15,0,0,0-11.28-14.51V56.75a15,15,0,0,0-14.62-15H41.67a15,15,0,0,0-14.62,15V192.62a15,15,0,0,0-11.28,14.51v15A15,15,0,0,0,30.81,237.2ZM64.38,455.25H57.13l-7.52-31.51,6.5-29V237.2H66.67l.76,156.66,4.24,30.07ZM42.09,56.75H79.68V192.09H42.09Z"/><circle class="cls-3" cx="215.02" cy="52.99" r="7.52"/><path class="cls-4" d="M271.41,136.23a7.52,7.52,0,0,0,0-15H241.34a7.52,7.52,0,0,0,0,15Z"/><path class="cls-4" d="M388,365.55V68a22.56,22.56,0,0,0-22.56-22.56H245.09a7.52,7.52,0,0,0,0,15h120.3A7.52,7.52,0,0,1,372.91,68v188.5H139.83V68a7.52,7.52,0,0,1,7.52-7.52H183.7a7.52,7.52,0,1,0,0-15H147.35A22.56,22.56,0,0,0,124.79,68V365.55a7.52,7.52,0,0,0,7.52,7.52h52.63v26.31a7.52,7.52,0,0,0,7.52,7.52h26.32v14a7.52,7.52,0,1,0,15,0v-14h45.11v14a7.52,7.52,0,0,0,15,0v-14h26.31a7.52,7.52,0,0,0,7.52-7.52V373.07h52.63A7.52,7.52,0,0,0,388,365.55ZM256.37,335.47a11.28,11.28,0,1,1,11.28-11.27A11.28,11.28,0,0,1,256.37,335.47Z"/></svg>