<svg id="Layer_1" data-name="Layer 1" xmlns="http://www.w3.org/2000/svg" xmlns:xlink="http://www.w3.org/1999/xlink" viewBox="0 0 512 512"><defs><style>.cls-1{fill:url(#linear-gradient);}</style><linearGradient id="linear-gradient" x1="256.32" y1="52.4" x2="256.32" y2="463.37" gradientUnits="userSpaceOnUse"><stop offset="0" stop-color="#4995b7"/><stop offset="1" stop-color="#2e78a2"/></linearGradient></defs><title>Electronics  ICONS</title><path class="cls-1" d="M456,91.77H51.65a29.58,29.58,0,0,0-29.71,29.71V360.81a29.58,29.58,0,0,0,29.71,29.71,29.58,29.58,0,0,0,29.71,29.71h29.71a29.59,29.59,0,0,0,29.71-29.71H371.86a29.58,29.58,0,0,0,29.71,29.71h29.71A29.58,29.58,0,0,0,461,390.52a29.58,29.58,0,0,0,29.71-29.71V121.48C484.1,105,470.9,91.77,456,91.77ZM353.7,347.61h-274a14.79,14.79,0,0,1-14.86-14.86V151.19a14.79,14.79,0,0,1,14.86-14.86h274a14.79,14.79,0,0,1,14.86,14.86V331.1C368.56,339.35,362,347.61,353.7,347.61Zm72.63,0A29.71,29.71,0,1,1,456,317.9,29.59,29.59,0,0,1,426.33,347.61Zm14.85-120.5H411.47a14.86,14.86,0,0,1,0-29.71h29.71a14.86,14.86,0,1,1,0,29.71Zm0-61.07H411.47a14.86,14.86,0,0,1,0-29.71h29.71a14.86,14.86,0,1,1,0,29.71Z"/></svg>