<svg id="Layer_1" data-name="Layer 1" xmlns="http://www.w3.org/2000/svg" xmlns:xlink="http://www.w3.org/1999/xlink" viewBox="0 0 512 512"><defs><style>.cls-1{fill:url(#linear-gradient);}</style><linearGradient id="linear-gradient" x1="256.32" y1="-13.98" x2="256.32" y2="496.76" gradientUnits="userSpaceOnUse"><stop offset="0" stop-color="#4995b7"/><stop offset="1" stop-color="#2e78a2"/></linearGradient></defs><title>Electronics  ICONS</title><path class="cls-1" d="M378.87,10.89H133.77a46,46,0,0,0-46,46v398.3a46,46,0,0,0,46,46h245.1a46,46,0,0,0,46-46V56.85A46,46,0,0,0,378.87,10.89Zm15.32,444.26a15.32,15.32,0,0,1-15.32,15.32H133.77a15.32,15.32,0,0,1-15.32-15.32V56.85a15.32,15.32,0,0,1,15.32-15.32h36.46l11.18,22.21A15.3,15.3,0,0,0,195,72.17H317.6a15.32,15.32,0,0,0,13.63-8.43l11.18-22.21h36.46a15.32,15.32,0,0,1,15.32,15.32Z"/><path class="cls-1" d="M315.6,233.63,335.37,214l-21.76-21.76L294,212a64.33,64.33,0,0,0-22.36-9.34V179.4H241v23.29A64.46,64.46,0,0,0,218.63,212L199,192.27,177.27,214,197,233.63A64.46,64.46,0,0,0,187.69,256H164.4v30.64h23.29A64.33,64.33,0,0,0,197,309l-19.76,19.61L199,350.37l19.6-19.77A64.29,64.29,0,0,0,241,340v23.28h30.64V340A64.16,64.16,0,0,0,294,330.6l19.61,19.77,21.76-21.76L315.6,309A67.15,67.15,0,0,0,325,286.64h23.28V256H325A67.29,67.29,0,0,0,315.6,233.63Zm-59.28,77.52a39.83,39.83,0,1,1,39.83-39.83A39.83,39.83,0,0,1,256.32,311.15Z"/></svg>