<svg id="Layer_1" data-name="Layer 1" xmlns="http://www.w3.org/2000/svg" xmlns:xlink="http://www.w3.org/1999/xlink" viewBox="0 0 512 512"><defs><style>.cls-1{fill:url(#linear-gradient);}.cls-2{fill:url(#linear-gradient-2);}.cls-3{fill:url(#linear-gradient-3);}.cls-4{fill:url(#linear-gradient-4);}.cls-5{fill:url(#linear-gradient-8);}</style><linearGradient id="linear-gradient" x1="364.64" y1="3.38" x2="364.64" y2="408.1" gradientUnits="userSpaceOnUse"><stop offset="0" stop-color="#4995b7"/><stop offset="1" stop-color="#2e78a2"/></linearGradient><linearGradient id="linear-gradient-2" x1="147.99" y1="3.38" x2="147.99" y2="408.1" xlink:href="#linear-gradient"/><linearGradient id="linear-gradient-3" x1="139.66" y1="3.38" x2="139.66" y2="408.1" xlink:href="#linear-gradient"/><linearGradient id="linear-gradient-4" x1="256.32" y1="3.38" x2="256.32" y2="408.1" xlink:href="#linear-gradient"/><linearGradient id="linear-gradient-8" x1="256.41" y1="3.38" x2="256.41" y2="408.1" xlink:href="#linear-gradient"/></defs><title>Electronics  ICONS</title><path class="cls-1" d="M373,322.66H356.31a16.67,16.67,0,0,1,0-33.34H373a16.67,16.67,0,0,1,0,33.34Z"/><path class="cls-2" d="M156.33,322.66H139.66a16.67,16.67,0,0,1,0-33.34h16.67a16.67,16.67,0,0,1,0,33.34Z"/><path class="cls-3" d="M139.66,222.66h-3.33l-3-1-3-1.5-2.5-2-2-2.5a12.39,12.39,0,0,1-1.5-3,10.47,10.47,0,0,1-1.33-3.33,20.57,20.57,0,0,1,0-3.33,16.48,16.48,0,0,1,1.33-6.34,19.12,19.12,0,0,1,3.5-5.5l2.5-2,3-1.5,3-1.33a16.73,16.73,0,0,1,9.66,1,15,15,0,0,1,9,9,16.81,16.81,0,0,1,1.34,6.67,23.13,23.13,0,0,1,0,3.33,10.92,10.92,0,0,1-1,3,13,13,0,0,1-1.5,3l-2,2.5a19.12,19.12,0,0,1-5.5,3.5A16.62,16.62,0,0,1,139.66,222.66Z"/><path class="cls-4" d="M306.32,372.65h-100a16.67,16.67,0,0,1,0-33.33h100a16.67,16.67,0,0,1,0,33.33Z"/><path class="cls-4" d="M323,422.65H189.66a16.67,16.67,0,1,1,0-33.33H323a16.67,16.67,0,1,1,0,33.33Z"/><path class="cls-4" d="M439.64,389.32H376.31a16.68,16.68,0,0,1-16.67-11.84L343,322.66H168.66L152,377.48a16.67,16.67,0,0,1-16.66,11.84H73a50,50,0,0,1-50-50v-150a50,50,0,0,1,50-50H439.64a50,50,0,0,1,50,50v150A50,50,0,0,1,439.64,389.32Zm-51-33.33h51a16.67,16.67,0,0,0,16.66-16.67v-150a16.66,16.66,0,0,0-16.66-16.66H73a16.67,16.67,0,0,0-16.67,16.66v150A16.68,16.68,0,0,0,73,356h51l16.66-54.83a16.68,16.68,0,0,1,15.67-11.84h200A16.68,16.68,0,0,1,373,301.16Z"/><path class="cls-4" d="M356.31,172.67h-200A16.67,16.67,0,0,1,139.66,156V39.34a16.66,16.66,0,0,1,16.67-16.66h200A16.66,16.66,0,0,1,373,39.34V156A16.67,16.67,0,0,1,356.31,172.67ZM173,139.34H339.65V56H173Z"/><path class="cls-5" d="M406.31,489.31h-300a17.57,17.57,0,0,1-16.67-21.5l50-166.65a16.68,16.68,0,0,1,16.67-11.84h200A16.68,16.68,0,0,1,373,301.16l50,166.65a16.73,16.73,0,0,1-16.66,21.5ZM128.66,456H384L344,322.66H168.66Z"/></svg>