<svg id="Layer_1" data-name="Layer 1" xmlns="http://www.w3.org/2000/svg" xmlns:xlink="http://www.w3.org/1999/xlink" viewBox="0 0 512 512"><defs><style>.cls-1{fill:url(#linear-gradient);}.cls-2{fill:url(#linear-gradient-2);}.cls-3{fill:url(#linear-gradient-3);}</style><linearGradient id="linear-gradient" x1="256.23" y1="-11.94" x2="256.23" y2="449.69" gradientUnits="userSpaceOnUse"><stop offset="0" stop-color="#4995b7"/><stop offset="1" stop-color="#2e78a2"/></linearGradient><linearGradient id="linear-gradient-2" x1="256.39" y1="-11.94" x2="256.39" y2="449.69" xlink:href="#linear-gradient"/><linearGradient id="linear-gradient-3" x1="184.45" y1="-11.94" x2="184.45" y2="449.69" xlink:href="#linear-gradient"/></defs><title>Electronics  ICONS</title><path class="cls-1" d="M389.58,184.32H155.84c-10.76,0-21.52-.3-32.28,0h-.45l15.08,15.09V62.35c0-6.79-.55-13.83.11-20.56-.21,1.35-.36,2.66-.56,4a20.1,20.1,0,0,1,1.16-4.53l-1.51,3.62a25.85,25.85,0,0,1,1.36-2.61c1.36-2.46-.91,1.36-1,1.21a11.68,11.68,0,0,1,1.11-1.21c.3-.3.65-.55,1-.91,1.16-1.2-3.21,2.12-1.25,1a20,20,0,0,1,2.91-1.51l-3.62,1.51a20.1,20.1,0,0,1,4.53-1.16c-1.36.2-2.67.35-4,.56,2.56-.26,5.22-.1,7.84-.1H344.28c9.2,0,18.45-.11,27.66,0,.8,0,1.55.05,2.36.1-1.36-.21-2.67-.36-4-.56a20.15,20.15,0,0,1,4.52,1.16l-3.62-1.51a26,26,0,0,1,2.62,1.36c2.46,1.36-1.36-.91-1.21-1a12.8,12.8,0,0,1,1.21,1.11c.3.3.55.65.9.95,1.21,1.16-2.11-3.21-1-1.25A19.08,19.08,0,0,1,375.2,45l-1.51-3.62a19.58,19.58,0,0,1,1.16,4.53c-.2-1.36-.35-2.67-.55-4,.55,5.58.1,11.36.1,17V199.46c0,7.89,6.94,15.43,15.08,15.08s15.09-6.64,15.09-15.08V44a33,33,0,0,0-23.08-31.07c-5.38-1.76-11.26-1.36-16.85-1.36H141.71a32.19,32.19,0,0,0-12,1.86c-13,5-21.57,16.54-21.82,30.67-.1,4.93,0,9.9,0,14.83V199.51A15.29,15.29,0,0,0,123,214.59H356.75c10.76,0,21.52.2,32.28,0h.45c7.9,0,15.44-6.94,15.09-15.08C404.31,191.21,398,184.32,389.58,184.32Z"/><path class="cls-2" d="M372.24,470.35h-204c-9.15,0-18.35.1-27.5,0-.81,0-1.56-.05-2.36-.1,1.35.2,2.66.35,4,.55a20.08,20.08,0,0,1-4.53-1.15l3.62,1.51a28.07,28.07,0,0,1-2.61-1.36c-2.46-1.36,1.36.9,1.21,1a11.49,11.49,0,0,1-1.21-1.1c-.3-.3-.55-.66-.91-1-1.2-1.15,2.12,3.22,1,1.26a20.14,20.14,0,0,1-1.51-2.92L139,470.7a19.88,19.88,0,0,1-1.16-4.52c.2,1.36.35,2.66.56,4a84.29,84.29,0,0,1-.1-8.85V232.74c0-11,.3-21.92,0-32.88v-.45l-15.09,15.08H357c10.76,0,21.52.3,32.28,0h.45L374.6,199.41V435.76c0,10.66,0,21.32,0,32,0,.8-.05,1.61-.1,2.36.2-1.36.35-2.66.55-4a19.86,19.86,0,0,1-1.15,4.52l1.5-3.62a25.92,25.92,0,0,1-1.35,2.62c-1.36,2.46.9-1.36,1-1.21a11.49,11.49,0,0,1-1.1,1.21c-.31.3-.66.55-1,.9-1.16,1.21,3.22-2.11,1.26-1a21.18,21.18,0,0,1-2.92,1.51L375,469.5a20,20,0,0,1-4.52,1.15c1.35-.2,2.66-.35,4-.55a12.56,12.56,0,0,1-2.21.25c-7.9.15-15.44,6.84-15.09,15.09.36,8,6.64,15.23,15.09,15.08,14.78-.3,29-10.66,31.67-25.69a47.15,47.15,0,0,0,.76-8.35V236c0-12.07.2-24.14,0-36.15v-.5a15.3,15.3,0,0,0-15.09-15.09H155.84c-10.76,0-21.52-.2-32.28,0h-.45A15.3,15.3,0,0,0,108,199.36V467.84c.1,9,3.67,18,10.46,24a33.31,33.31,0,0,0,22.32,8.6H372.24c7.89,0,15.43-6.94,15.08-15.09S380.68,470.35,372.24,470.35Z"/><path class="cls-3" d="M199.53,386.89V259.19c0-7.9-6.93-15.44-15.08-15.09s-15.08,6.64-15.08,15.09v127.7c0,7.89,6.94,15.44,15.08,15.08s15.08-6.63,15.08-15.08Z"/><path class="cls-3" d="M199.53,141.89V84.07c0-7.89-6.93-15.44-15.08-15.08s-15.08,6.63-15.08,15.08v57.82c0,7.89,6.94,15.43,15.08,15.08s15.08-6.63,15.08-15.08Z"/></svg>