<svg id="Layer_1" data-name="Layer 1" xmlns="http://www.w3.org/2000/svg" xmlns:xlink="http://www.w3.org/1999/xlink" viewBox="0 0 512 512"><defs><style>.cls-1{fill:url(#linear-gradient);}.cls-2{fill:url(#linear-gradient-2);}.cls-3{fill:url(#linear-gradient-3);}.cls-4{fill:url(#linear-gradient-4);}.cls-5{fill:url(#linear-gradient-5);}.cls-6{fill:url(#linear-gradient-6);}</style><linearGradient id="linear-gradient" x1="173.83" y1="55.47" x2="173.83" y2="511.98" gradientUnits="userSpaceOnUse"><stop offset="0" stop-color="#4995b7"/><stop offset="1" stop-color="#2e78a2"/></linearGradient><linearGradient id="linear-gradient-2" x1="414.8" y1="55.47" x2="414.8" y2="511.98" xlink:href="#linear-gradient"/><linearGradient id="linear-gradient-3" x1="293.89" y1="55.47" x2="293.89" y2="511.98" xlink:href="#linear-gradient"/><linearGradient id="linear-gradient-4" x1="310.12" y1="55.47" x2="310.12" y2="511.98" xlink:href="#linear-gradient"/><linearGradient id="linear-gradient-5" x1="354.47" y1="55.47" x2="354.47" y2="511.98" xlink:href="#linear-gradient"/><linearGradient id="linear-gradient-6" x1="415.05" y1="55.47" x2="415.05" y2="511.98" xlink:href="#linear-gradient"/></defs><title>Electronics  ICONS</title><path class="cls-1" d="M163.23,313l9.47-50.48,70,25.91-4.89,52.17Zm72.85,45.44L225.61,470.11l-87-25.6L160,330.25ZM93.16,233.06l63.08,23.36-9.47,50.47L80.52,282.36a8.6,8.6,0,0,0-2.64-.41Zm82.77,12.19L188,181l62.54,23.45-6.2,66.1Zm83.53,49.4,51.73,19.16v54l-56.62-21Zm51.73.69L261.13,276.8l6.19-66,43.87,16.45ZM117.66,154.66l53.87,20.2-12.05,64.29L98.34,216.51ZM73,297.65a8.48,8.48,0,0,0,1.53.94l69,25.57L121.89,439.6,36.47,414.48ZM311.19,495.28l-68.65-20.2,10.35-110.42,55.3,20.48a8.81,8.81,0,0,0,3,.54Z"/><path class="cls-2" d="M415.05,134.69a69.24,69.24,0,0,1-49.19-118c16.1,15,62.27,53.17,117.93,57.07A69.33,69.33,0,0,1,415.05,134.69Z"/><path class="cls-3" d="M285.23,74.1h17.31a8.66,8.66,0,0,0,0-17.31H285.23a8.66,8.66,0,0,0,0,17.31Z"/><path class="cls-4" d="M295.13,134.69A8.66,8.66,0,0,0,307,137.85l15-8.65a8.66,8.66,0,1,0-8.66-15l-15,8.66A8.65,8.65,0,0,0,295.13,134.69Z"/><path class="cls-5" d="M363.12,155.39a8.64,8.64,0,0,0-11.82,3.17l-8.66,15a8.66,8.66,0,0,0,15,8.65l8.65-15A8.65,8.65,0,0,0,363.12,155.39Z"/><path class="cls-6" d="M415.05,169.31A8.65,8.65,0,0,0,406.4,178v17.31a8.66,8.66,0,1,0,17.31,0V178A8.65,8.65,0,0,0,415.05,169.31Z"/></svg>