<svg id="Layer_1" data-name="Layer 1" xmlns="http://www.w3.org/2000/svg" xmlns:xlink="http://www.w3.org/1999/xlink" viewBox="0 0 512 512"><defs><style>.cls-1{fill:url(#linear-gradient);}</style><linearGradient id="linear-gradient" x1="256.32" y1="76.91" x2="256.32" y2="441.56" gradientUnits="userSpaceOnUse"><stop offset="0" stop-color="#4995b7"/><stop offset="1" stop-color="#2e78a2"/></linearGradient></defs><title>Electronics  ICONS</title><path class="cls-1" d="M491.77,93.86H20.86A8.12,8.12,0,0,0,12.74,102V361.79a8.13,8.13,0,0,0,8.12,8.12H236.75l-34.83,34.83a8.12,8.12,0,0,0,11.45,11.45l42.95-42.95,42.95,42.95a8.12,8.12,0,0,0,11.45-11.45l-34.83-34.83H491.77a8.12,8.12,0,0,0,8.12-8.12V102A8.11,8.11,0,0,0,491.77,93.86Z"/></svg>