<svg id="Layer_1" data-name="Layer 1" xmlns="http://www.w3.org/2000/svg" xmlns:xlink="http://www.w3.org/1999/xlink" viewBox="0 0 512 512"><defs><style>.cls-1{fill:url(#linear-gradient);}.cls-2{fill:url(#linear-gradient-2);}.cls-3{fill:url(#linear-gradient-3);}.cls-4{fill:url(#linear-gradient-4);}.cls-5{fill:url(#linear-gradient-5);}</style><linearGradient id="linear-gradient" x1="254.1" y1="12.57" x2="254.1" y2="470.56" gradientUnits="userSpaceOnUse"><stop offset="0" stop-color="#4995b7"/><stop offset="1" stop-color="#2e78a2"/></linearGradient><linearGradient id="linear-gradient-2" x1="106.02" y1="12.57" x2="106.02" y2="470.56" xlink:href="#linear-gradient"/><linearGradient id="linear-gradient-3" x1="136.06" y1="12.57" x2="136.06" y2="470.56" xlink:href="#linear-gradient"/><linearGradient id="linear-gradient-4" x1="166.09" y1="12.57" x2="166.09" y2="470.56" xlink:href="#linear-gradient"/><linearGradient id="linear-gradient-5" x1="277.72" y1="12.57" x2="277.72" y2="470.56" xlink:href="#linear-gradient"/></defs><title>Electronics  ICONS</title><path class="cls-1" d="M446.26,204.07H109.35a39.23,39.23,0,0,0-39.16,39.15V364.89c-25.11-4-36.55-14.62-36.55-34.09V124.09A50.72,50.72,0,0,1,84.31,73.43H291.67c2.46,23.52,20.7,41.9,42.77,41.9h37.71a5.28,5.28,0,0,0,5.21,4.27h24a5.47,5.47,0,0,0,5.43-5.43V97.67h36.11a5.43,5.43,0,1,0,0-10.85H406.82V45.13h36.11a5.43,5.43,0,1,0,0-10.86H406.82V21.82a5.47,5.47,0,0,0-5.43-5.43h-24a5.34,5.34,0,0,0-5.21,4.35H334.44c-11.65,0-22.51,5-30.69,14a49.45,49.45,0,0,0-12.08,27.79H84.31a61.61,61.61,0,0,0-61.52,61.52V330.8c0,35.9,31.55,43.06,47.4,45.16v48.13a39.19,39.19,0,0,0,39.16,39.16h33.8l4.56,22.94a5.44,5.44,0,0,0,5.36,4.34h28.51a5.5,5.5,0,0,0,5.36-4.41l4.2-22.87H364.48l4.63,22.94a5.44,5.44,0,0,0,5.36,4.34H403a5.5,5.5,0,0,0,5.36-4.41l4.2-22.87h33.72a39.21,39.21,0,0,0,38.94-35,5.69,5.69,0,0,0,.22-1.16,1.27,1.27,0,0,0-.15-.58c.08-.8.15-1.59.15-2.39v-181A39.17,39.17,0,0,0,446.26,204.07ZM382.79,27.25H396v81.5H382.79ZM311.86,42a30.31,30.31,0,0,1,22.58-10.42h37.49v72.89H334.44c-17.8,0-32.21-16.36-32.21-36.48A38.81,38.81,0,0,1,311.86,42ZM177,479.6H157.48l-3.26-16.43h25.84Zm221.4,0H378.88l-3.33-16.43h25.91Zm47.84-27.28H109.35A28.34,28.34,0,0,1,81.05,424V371.69h0V243.15a28.34,28.34,0,0,1,28.3-28.3H446.26a28.34,28.34,0,0,1,28.3,28.3v3.91H443.37a5.43,5.43,0,1,0,0,10.85h31.19v32.72H443.37a5.43,5.43,0,1,0,0,10.85h31.19v32.86H443.37a5.43,5.43,0,0,0,0,10.86h31.19v32.71H443.37a5.43,5.43,0,0,0,0,10.86h31.19v32.86H443.37a5.43,5.43,0,1,0,0,10.86h29.74A28.21,28.21,0,0,1,446.26,452.32Z"/><path class="cls-2" d="M106,290.63a5.47,5.47,0,0,0-5.43,5.43v106.1a5.43,5.43,0,0,0,10.86,0V296.06A5.42,5.42,0,0,0,106,290.63Z"/><path class="cls-3" d="M136.06,290.63a5.47,5.47,0,0,0-5.43,5.43v106.1a5.43,5.43,0,1,0,10.85,0V296.06A5.41,5.41,0,0,0,136.06,290.63Z"/><path class="cls-4" d="M166.09,290.63a5.47,5.47,0,0,0-5.43,5.43v106.1a5.43,5.43,0,0,0,10.86,0V296.06A5.42,5.42,0,0,0,166.09,290.63Z"/><path class="cls-5" d="M323.22,326H292.53l11.37-87.5a5.43,5.43,0,0,0-9.92-3.69L227.76,335.65a5.48,5.48,0,0,0-.22,5.57,5.39,5.39,0,0,0,4.78,2.82h26.13l-18.1,77.44a5.39,5.39,0,0,0,2.82,6.08,5.76,5.76,0,0,0,2.46.58,5.53,5.53,0,0,0,4.13-1.88L327.28,335a5.46,5.46,0,0,0,.79-5.79A5.33,5.33,0,0,0,323.22,326Zm-67.09,76.07,14.55-62.25a5.58,5.58,0,0,0-1-4.63,5.38,5.38,0,0,0-4.27-2H242.52l47.7-72.67-9.12,70.2a5.37,5.37,0,0,0,5.36,6.08h25.11Z"/></svg>