<svg id="Layer_1" data-name="Layer 1" xmlns="http://www.w3.org/2000/svg" xmlns:xlink="http://www.w3.org/1999/xlink" viewBox="0 0 512 512"><defs><style>.cls-1{fill:url(#linear-gradient);}.cls-2{fill:url(#linear-gradient-2);}.cls-3{fill:url(#linear-gradient-3);}.cls-4{fill:url(#linear-gradient-4);}.cls-5{fill:url(#linear-gradient-5);}.cls-6{fill:url(#linear-gradient-7);}.cls-7{fill:url(#linear-gradient-9);}</style><linearGradient id="linear-gradient" x1="254.71" y1="9.51" x2="254.71" y2="555.18" gradientUnits="userSpaceOnUse"><stop offset="0" stop-color="#4995b7"/><stop offset="1" stop-color="#2e78a2"/></linearGradient><linearGradient id="linear-gradient-2" x1="254.71" y1="9.51" x2="254.71" y2="555.18" xlink:href="#linear-gradient"/><linearGradient id="linear-gradient-3" x1="232.72" y1="9.51" x2="232.72" y2="555.18" xlink:href="#linear-gradient"/><linearGradient id="linear-gradient-4" x1="254.71" y1="9.51" x2="254.71" y2="555.18" xlink:href="#linear-gradient"/><linearGradient id="linear-gradient-5" x1="254.71" y1="9.51" x2="254.71" y2="555.18" xlink:href="#linear-gradient"/><linearGradient id="linear-gradient-7" x1="430.54" y1="9.51" x2="430.54" y2="555.18" xlink:href="#linear-gradient"/><linearGradient id="linear-gradient-9" x1="306.66" y1="9.51" x2="306.66" y2="555.18" xlink:href="#linear-gradient"/></defs><title>Electronics  ICONS</title><path class="cls-1" d="M264.7,386.4h-20a24,24,0,0,1-24-24v-36a24,24,0,0,1,24-24h20a24,24,0,0,1,24,24v36A24,24,0,0,1,264.7,386.4Zm0-59.95h-20l0,36,20,0Z"/><path class="cls-2" d="M266.7,434.36h-24a12,12,0,0,1-12-12v-48a12,12,0,0,1,24-.51,12,12,0,0,1,24,.51v48A12,12,0,0,1,266.7,434.36Z"/><path class="cls-3" d="M252.71,326.46a12,12,0,0,1-12-12V307.4L209.3,298a12,12,0,0,1,6.89-23l40,12a12,12,0,0,1,8.55,11.49v16A12,12,0,0,1,252.71,326.46Z"/><path class="cls-4" d="M372.6,382.41H296.67v-24h64.78l20.2-271.73H127.76L148,358.41h64.78v24H136.82a12,12,0,0,1-12-11.11l-22-295.73a12,12,0,0,1,12-12.89H394.58a12,12,0,0,1,12,12.89l-22,295.73A12,12,0,0,1,372.6,382.41Z"/><path class="cls-5" d="M290.53,234.54c-12.07,0-26.5-9.28-35.83-16.44-9.32,7.16-23.76,16.44-35.83,16.44s-26.65-9.37-36-16.54c-9,6.71-23.43,15.94-35.08,16.53l-1.22-24c5.5-.28,19.24-9.07,28.63-17.11a12,12,0,0,1,15.78.14c9.05,8,22.71,16.95,27.86,16.95s18.82-8.93,27.87-16.95a12,12,0,0,1,15.93,0c9.05,8,22.72,16.95,27.86,16.95s18.82-8.93,27.87-16.95a12,12,0,0,1,15.78-.13c9.38,8,23.13,16.82,28.63,17.1l-1.23,24c-11.65-.6-26.05-9.83-35.08-16.53C317.18,225.16,302.66,234.54,290.53,234.54Z"/><path class="cls-1" d="M362.61,494.3H146.81a12,12,0,0,1-6.66-2l-48-32A12,12,0,0,1,86.87,451l-24-415.62a12,12,0,0,1,12-12.69H282.68v24H87.58l22.91,397,40,26.63H359l40-26.63,22.9-397H330.64v-24h103.9a12,12,0,0,1,12,12.69L422.54,451a12,12,0,0,1-5.32,9.29l-48,32A12,12,0,0,1,362.61,494.3Z"/><path class="cls-6" d="M442.53,462.33a12,12,0,0,1-12-12v-12h-12a12,12,0,0,1,0-24h24a12,12,0,0,1,12,12v24A12,12,0,0,1,442.53,462.33Z"/><path class="cls-6" d="M442.53,406.39h-24a12,12,0,0,1,0-24h12v-12a12,12,0,0,1,24,0v24A12,12,0,0,1,442.53,406.39Z"/><rect class="cls-7" x="298.66" y="22.72" width="15.99" height="24"/></svg>