<svg id="Layer_1" data-name="Layer 1" xmlns="http://www.w3.org/2000/svg" xmlns:xlink="http://www.w3.org/1999/xlink" viewBox="0 0 512 512"><defs><style>.cls-1{fill:url(#linear-gradient);}.cls-2{fill:url(#linear-gradient-3);}.cls-3{fill:url(#linear-gradient-4);}.cls-4{fill:url(#linear-gradient-5);}.cls-5{fill:url(#linear-gradient-6);}.cls-6{fill:url(#linear-gradient-7);}.cls-7{fill:url(#linear-gradient-8);}.cls-8{fill:url(#linear-gradient-9);}.cls-9{fill:url(#linear-gradient-10);}</style><linearGradient id="linear-gradient" x1="256.32" y1="-21.13" x2="256.32" y2="475.36" gradientUnits="userSpaceOnUse"><stop offset="0" stop-color="#6db3e8"/><stop offset="1" stop-color="#2e93f0"/></linearGradient><linearGradient id="linear-gradient-3" x1="256.82" y1="-21.13" x2="256.82" y2="475.36" xlink:href="#linear-gradient"/><linearGradient id="linear-gradient-4" x1="255.82" y1="-21.13" x2="255.82" y2="475.36" xlink:href="#linear-gradient"/><linearGradient id="linear-gradient-5" x1="375.31" y1="-21.13" x2="375.31" y2="475.36" xlink:href="#linear-gradient"/><linearGradient id="linear-gradient-6" x1="137.33" y1="-21.13" x2="137.33" y2="475.36" xlink:href="#linear-gradient"/><linearGradient id="linear-gradient-7" x1="161.18" y1="-21.13" x2="161.18" y2="475.36" xlink:href="#linear-gradient"/><linearGradient id="linear-gradient-8" x1="351.45" y1="-21.13" x2="351.45" y2="475.36" xlink:href="#linear-gradient"/><linearGradient id="linear-gradient-9" x1="351.45" y1="-21.13" x2="351.45" y2="475.36" xlink:href="#linear-gradient"/><linearGradient id="linear-gradient-10" x1="161.18" y1="-21.13" x2="161.18" y2="475.36" xlink:href="#linear-gradient"/></defs><title>Auto Care  ICONS</title><path class="cls-1" d="M256.32,17a239,239,0,1,0,239,239A238.41,238.41,0,0,0,256.32,17Zm0,439.12C145.79,456.14,56.17,366.53,56.17,256S145.79,55.86,256.32,55.86,456.46,145.47,456.46,256,366.85,456.14,256.32,456.14Z"/><path class="cls-1" d="M222.46,256a33.86,33.86,0,1,0,33.86-33.86A33.58,33.58,0,0,0,222.46,256Z"/><path class="cls-2" d="M256.32,201.23c18.92,0,35.85-38.83,40.82-92.6a300.44,300.44,0,0,0,2-30.87,201.31,201.31,0,0,0-42.82-5,184.89,184.89,0,0,0-41.82,5,300.51,300.51,0,0,0,2,30.87C220.47,161.4,237.4,201.23,256.32,201.23Z"/><path class="cls-3" d="M256.32,310.77c-18.92,0-35.85,38.83-40.83,92.6a303.36,303.36,0,0,0-2,30.87c13.94,3,27.88,5,41.82,5a201.31,201.31,0,0,0,42.82-5,303.36,303.36,0,0,0-2-30.87C292.17,350.6,275.24,310.77,256.32,310.77Z"/><path class="cls-4" d="M434.56,214.18a300.32,300.32,0,0,0-30.87,2c-53.77,5-92.6,20.91-92.6,40.83,0,18.91,38.83,35.84,92.6,40.82a300.32,300.32,0,0,0,30.87,2,201.94,201.94,0,0,0,5-42.81C439.54,241.06,438.54,227.12,434.56,214.18Z"/><path class="cls-5" d="M201.55,256c0-18.92-38.83-35.85-92.6-40.83a303.36,303.36,0,0,0-30.87-2c-3,13.94-5,27.88-5,41.82a201.31,201.31,0,0,0,5,42.82,300.51,300.51,0,0,0,30.87-2C161.72,291.85,201.55,274.92,201.55,256Z"/><path class="cls-6" d="M217.49,217.17c13.94-13.94-3-52.78-36.85-94.6-6-8-12.94-14.94-20.91-22.9A189.93,189.93,0,0,0,100,159.41c8,7,14.93,13.94,22.9,20.91C164.71,214.18,203.54,231.11,217.49,217.17Z"/><path class="cls-7" d="M295.15,294.83c-13.94,13.94,3,52.78,36.85,94.6,6,8,12.94,14.94,20.91,22.9a190.14,190.14,0,0,0,59.74-59.74c-8-7-14.94-13.94-22.9-20.91C347.93,297.82,309.09,280.89,295.15,294.83Z"/><path class="cls-8" d="M295.15,217.17c13.94,13.94,52.78-3,94.6-36.85,8-6,14.94-12.94,22.9-20.91a190.14,190.14,0,0,0-59.74-59.74c-7,8-13.94,14.93-20.91,22.9C298.14,164.39,281.21,203.23,295.15,217.17Z"/><path class="cls-9" d="M217.49,294.83c-14-13.94-52.78,3-94.6,36.85-8,6-14.94,12.94-22.9,20.91a189.93,189.93,0,0,0,59.74,59.74c7-8,13.94-14.93,20.91-22.9C214.5,347.61,231.43,308.77,217.49,294.83Z"/></svg>