<svg id="Layer_1" data-name="Layer 1" xmlns="http://www.w3.org/2000/svg" xmlns:xlink="http://www.w3.org/1999/xlink" viewBox="0 0 512 512"><defs><style>.cls-1{fill:url(#linear-gradient);}.cls-2{fill:url(#linear-gradient-3);}.cls-3{fill:url(#linear-gradient-4);}.cls-4{fill:url(#linear-gradient-5);}.cls-5{fill:url(#linear-gradient-6);}.cls-6{fill:url(#linear-gradient-7);}.cls-7{fill:url(#linear-gradient-8);}.cls-8{fill:url(#linear-gradient-9);}.cls-9{fill:url(#linear-gradient-10);}.cls-10{fill:url(#linear-gradient-11);}.cls-11{fill:url(#linear-gradient-12);}.cls-12{fill:url(#linear-gradient-15);}.cls-13{fill:url(#linear-gradient-16);}.cls-14{fill:url(#linear-gradient-18);}.cls-15{fill:url(#linear-gradient-19);}</style><linearGradient id="linear-gradient" x1="164.4" y1="0.32" x2="164.4" y2="487.47" gradientUnits="userSpaceOnUse"><stop offset="0" stop-color="#6db3e8"/><stop offset="1" stop-color="#2e93f0"/></linearGradient><linearGradient id="linear-gradient-3" x1="202.7" y1="0.32" x2="202.7" y2="487.47" xlink:href="#linear-gradient"/><linearGradient id="linear-gradient-4" x1="357.65" y1="0.32" x2="357.65" y2="487.47" xlink:href="#linear-gradient"/><linearGradient id="linear-gradient-5" x1="241" y1="0.32" x2="241" y2="487.47" xlink:href="#linear-gradient"/><linearGradient id="linear-gradient-6" x1="272.96" y1="0.32" x2="272.96" y2="487.47" xlink:href="#linear-gradient"/><linearGradient id="linear-gradient-7" x1="79.49" y1="0.32" x2="79.49" y2="487.47" xlink:href="#linear-gradient"/><linearGradient id="linear-gradient-8" x1="65.12" y1="0.32" x2="65.12" y2="487.47" xlink:href="#linear-gradient"/><linearGradient id="linear-gradient-9" x1="230.59" y1="0.32" x2="230.59" y2="487.47" xlink:href="#linear-gradient"/><linearGradient id="linear-gradient-10" x1="263.98" y1="0.32" x2="263.98" y2="487.47" xlink:href="#linear-gradient"/><linearGradient id="linear-gradient-11" x1="348.23" y1="0.32" x2="348.23" y2="487.47" xlink:href="#linear-gradient"/><linearGradient id="linear-gradient-12" x1="348.23" y1="0.32" x2="348.23" y2="487.47" xlink:href="#linear-gradient"/><linearGradient id="linear-gradient-15" x1="294.62" y1="0.32" x2="294.62" y2="487.47" xlink:href="#linear-gradient"/><linearGradient id="linear-gradient-16" x1="401.85" y1="0.32" x2="401.85" y2="487.47" xlink:href="#linear-gradient"/><linearGradient id="linear-gradient-18" x1="440.15" y1="0.32" x2="440.15" y2="487.47" xlink:href="#linear-gradient"/><linearGradient id="linear-gradient-19" x1="371.21" y1="0.32" x2="371.21" y2="487.47" xlink:href="#linear-gradient"/></defs><title>Auto Care  ICONS</title><path class="cls-1" d="M164.4,340.26a68.94,68.94,0,1,1,68.94-68.94A69,69,0,0,1,164.4,340.26Zm0-122.56A53.62,53.62,0,1,0,218,271.32,53.68,53.68,0,0,0,164.4,217.7Z"/><path class="cls-1" d="M164.4,309.62a38.3,38.3,0,1,1,38.3-38.3A38.34,38.34,0,0,1,164.4,309.62Zm0-61.28a23,23,0,1,0,23,23A23,23,0,0,0,164.4,248.34Z"/><rect class="cls-2" x="195.04" y="141.11" width="15.32" height="82.39"/><path class="cls-3" d="M240.53,102.42,229.2,92.11l25.38-27.9a46.08,46.08,0,0,1,34-15H486.11V64.51H288.57a30.68,30.68,0,0,0-22.66,10Z"/><path class="cls-4" d="M256.32,148.77H195v-7.66a53.68,53.68,0,0,1,53.62-53.62h7.66a30.64,30.64,0,0,1,0,61.28Zm-45.18-15.32h45.18a15.32,15.32,0,1,0,0-30.64h-7.66A38.35,38.35,0,0,0,211.14,133.45Z"/><rect class="cls-5" x="241" y="133.45" width="63.92" height="15.32"/><path class="cls-6" d="M72.49,217.7a45.69,45.69,0,0,1-31.95-13l10.67-11a30.52,30.52,0,0,0,45.5-40.48l12.15-9.32a45.46,45.46,0,0,1,9.59,27.84A46,46,0,0,1,72.49,217.7Z"/><path class="cls-7" d="M111.37,309.62H41.85a23,23,0,0,1-23-23V271.32a23,23,0,0,1,23-23h63.24v15.32H41.85a7.67,7.67,0,0,0-7.66,7.66v15.32a7.67,7.67,0,0,0,7.66,7.66h69.52Z"/><rect class="cls-8" x="217.44" y="294.3" width="26.3" height="15.32"/><path class="cls-9" d="M493.77,309.62h-38.3V294.3h23V33.87H291.29A68.89,68.89,0,0,0,239.2,57.66l-78.56,90.65-51.3,6.84a69.16,69.16,0,0,0-59.83,68.34V256H34.19V223.49A84.52,84.52,0,0,1,107.31,140l45.54-6.07,74.77-86.27a84.2,84.2,0,0,1,63.67-29.08H493.77Z"/><path class="cls-10" d="M348.23,271.32a76.6,76.6,0,1,1,76.6-76.6A76.68,76.68,0,0,1,348.23,271.32Zm0-137.87a61.28,61.28,0,1,0,61.28,61.27A61.35,61.35,0,0,0,348.23,133.45Z"/><path class="cls-11" d="M455.48,424.51H413.34a26.81,26.81,0,0,1,0-53.62h49.79v15.32H413.34a11.49,11.49,0,1,0,0,23h42.14a23,23,0,0,0,23-23V384.3A113.69,113.69,0,0,0,364.77,270.63h-.52l-31.34.15C269.55,271.05,218,322.84,218,386.21a23,23,0,0,0,23,23h42.12a11.49,11.49,0,0,0,0-23H233.34V370.89h49.79a26.81,26.81,0,0,1,0,53.62H241a38.36,38.36,0,0,1-38.31-38.3c0-71.78,58.37-130.44,130.15-130.75l31.34-.15h.59a129,129,0,0,1,129,129v1.91a38.31,38.31,0,0,1-38.28,38.3Z"/><path class="cls-10" d="M447.81,378.55H432.49V363.23a7.67,7.67,0,0,0-7.66-7.66H271.64a7.67,7.67,0,0,0-7.66,7.66v15.32H248.66V363.23a23,23,0,0,1,23-23H424.83a23,23,0,0,1,23,23Z"/><path class="cls-10" d="M424.83,493.45H271.64a23,23,0,0,1-23-23V416.85H264v53.62a7.67,7.67,0,0,0,7.66,7.66H424.83a7.67,7.67,0,0,0,7.66-7.66V416.85h15.32v53.62A23,23,0,0,1,424.83,493.45Z"/><path class="cls-12" d="M325.26,347.91H309.94v-23H279.3v23H264v-23a15.33,15.33,0,0,1,15.32-15.32h30.64a15.34,15.34,0,0,1,15.32,15.32Z"/><path class="cls-13" d="M432.49,347.91H417.17v-23H386.53v23H371.21v-23a15.33,15.33,0,0,1,15.32-15.32h30.64a15.33,15.33,0,0,1,15.32,15.32Z"/><polygon class="cls-10" points="347.43 466.23 333.72 459.38 351.16 424.51 320.52 424.51 349.04 367.47 362.75 374.32 345.31 409.19 375.95 409.19 347.43 466.23"/><rect class="cls-14" x="394.19" y="133.45" width="91.91" height="15.32"/><rect class="cls-15" x="363.55" y="56.85" width="15.32" height="68.94"/></svg>