<svg id="Layer_1" data-name="Layer 1" xmlns="http://www.w3.org/2000/svg" xmlns:xlink="http://www.w3.org/1999/xlink" viewBox="0 0 512 512"><defs><style>.cls-1{fill:url(#linear-gradient);}.cls-2{fill:url(#linear-gradient-2);}.cls-3{fill:url(#linear-gradient-3);}</style><linearGradient id="linear-gradient" x1="256.32" y1="37.09" x2="256.32" y2="393.81" gradientUnits="userSpaceOnUse"><stop offset="0" stop-color="#6db3e8"/><stop offset="1" stop-color="#2e93f0"/></linearGradient><linearGradient id="linear-gradient-2" x1="256.32" y1="37.09" x2="256.32" y2="393.81" xlink:href="#linear-gradient"/><linearGradient id="linear-gradient-3" x1="256.32" y1="37.09" x2="256.32" y2="393.81" xlink:href="#linear-gradient"/></defs><title>Auto Care  ICONS</title><path class="cls-1" d="M466.1,408a81.53,81.53,0,0,0-102.26-79.16l-21.39-53.54,32.9-7.37a9,9,0,0,1-.79,17.93,10.41,10.41,0,1,0,0,20.81,29.81,29.81,0,0,0,0-59.62h-.08a7.62,7.62,0,0,0-1.06.11,9,9,0,0,0-1.06.12h-.08L326,257.7c-.26.07-.5.18-.76.26s-.56.13-.83.23c-.06,0-.12.08-.19.11a8.39,8.39,0,0,0-1,.51,7.69,7.69,0,0,0-.84.49,9.34,9.34,0,0,0-.78.63,8.41,8.41,0,0,0-.77.67,8.14,8.14,0,0,0-.61.73,8.71,8.71,0,0,0-.64.83,8.92,8.92,0,0,0-.47.86c-.16.3-.32.58-.45.89s-.21.65-.31,1-.2.62-.27.93-.08.65-.11,1a9.28,9.28,0,0,0-.08,1.05c0,.3,0,.59.06.89s.07.79.15,1.19c0,.06,0,.13,0,.19a10.19,10.19,0,0,0,.34,1.11c.06.16.08.32.14.48l12.31,30.79-96.53,12.12-21.7-2-14.13-44.73H219.8a10.41,10.41,0,0,0,0-20.81H162.37a10.41,10.41,0,1,0,0,20.81h14.35l22,69.75L188.31,345a81.78,81.78,0,1,0,18.81,77.64l2,.31a24.72,24.72,0,0,0,7,10.53l-3.78,12.74a10.4,10.4,0,0,0,7,12.93,10.21,10.21,0,0,0,3,.43,10.42,10.42,0,0,0,10-7.43l3.79-12.74A24.76,24.76,0,0,0,257.27,415,24.47,24.47,0,0,0,256,407.5L341.49,329l3,7.54A81.82,81.82,0,1,0,466.1,408ZM205.34,358.47l11.75,37.2a24.75,24.75,0,0,0-5.81,6.59l-1.13-.17c0-.5.08-1,.08-1.5a81.34,81.34,0,0,0-9.75-38.68ZM236.47,415a4,4,0,1,1-1.21-2.86c0,.05.07.11.12.17l0,0A4,4,0,0,1,236.47,415Zm-53.2-40.92a60.38,60.38,0,0,1,6.06,24.84l-33.89-5.17Zm-54.89,87.55a61,61,0,1,1,42.8-104.49l-48.81,34.51a10.4,10.4,0,0,0,4.44,18.77l59.57,9.09A61.12,61.12,0,0,1,128.38,461.62Zm124.56-79.56A10.35,10.35,0,0,0,233,377l-9.84-31.14,15.24-10.77,76.1-9.55Zm70.27,26a61,61,0,0,1,29.11-51.91l22.27,55.77a10.4,10.4,0,1,0,19.32-7.71L371.6,348.33A61,61,0,1,1,323.21,408Z"/><path class="cls-2" d="M209.06,166.89l11.73-11.72a6.32,6.32,0,0,1,8.75,0,6.18,6.18,0,0,1,0,8.74l-11.73,11.73a10.4,10.4,0,1,0,14.71,14.71l11.73-11.73a27,27,0,0,0,5.89-29.35l27.08-27.08a27,27,0,0,0,29.35-5.88l11.73-11.73a10.4,10.4,0,1,0-14.71-14.71l-11.73,11.72a6.33,6.33,0,0,1-8.76,0,6.18,6.18,0,0,1,0-8.74l11.73-11.73A10.41,10.41,0,1,0,280.12,66.4L268.39,78.13a27,27,0,0,0-5.89,29.35l-27.07,27.08a27,27,0,0,0-29.35,5.89l-11.73,11.73a10.4,10.4,0,1,0,14.71,14.71Z"/><path class="cls-3" d="M256.32,234.65A106.27,106.27,0,1,0,150.05,128.38,106.38,106.38,0,0,0,256.32,234.65Zm0-191.73a85.46,85.46,0,1,1-85.46,85.46A85.56,85.56,0,0,1,256.32,42.92Z"/></svg>