<svg id="Layer_1" data-name="Layer 1" xmlns="http://www.w3.org/2000/svg" xmlns:xlink="http://www.w3.org/1999/xlink" viewBox="0 0 512 512"><defs><style>.cls-1{fill:url(#linear-gradient);}.cls-2{fill:url(#linear-gradient-2);}.cls-3{fill:url(#linear-gradient-3);}.cls-4{fill:url(#linear-gradient-4);}.cls-5{fill:url(#linear-gradient-5);}.cls-6{fill:url(#linear-gradient-6);}.cls-7{fill:url(#linear-gradient-7);}.cls-8{fill:url(#linear-gradient-8);}</style><linearGradient id="linear-gradient" x1="100.53" y1="51.43" x2="100.53" y2="413.79" gradientUnits="userSpaceOnUse"><stop offset="0" stop-color="#6db3e8"/><stop offset="1" stop-color="#2e93f0"/></linearGradient><linearGradient id="linear-gradient-2" x1="328.98" y1="51.43" x2="328.98" y2="413.79" xlink:href="#linear-gradient"/><linearGradient id="linear-gradient-3" x1="268.18" y1="51.43" x2="268.18" y2="413.79" xlink:href="#linear-gradient"/><linearGradient id="linear-gradient-4" x1="90.45" y1="51.43" x2="90.45" y2="413.79" xlink:href="#linear-gradient"/><linearGradient id="linear-gradient-5" x1="217.1" y1="51.43" x2="217.1" y2="413.79" xlink:href="#linear-gradient"/><linearGradient id="linear-gradient-6" x1="448.21" y1="51.43" x2="448.21" y2="413.79" xlink:href="#linear-gradient"/><linearGradient id="linear-gradient-7" x1="317.33" y1="51.43" x2="317.33" y2="413.79" xlink:href="#linear-gradient"/><linearGradient id="linear-gradient-8" x1="361.51" y1="51.43" x2="361.51" y2="413.79" xlink:href="#linear-gradient"/></defs><title>Auto Care  ICONS</title><path class="cls-1" d="M37.72,202c-7.42,24.87-7.17,49.86-4.34,75,.87,7.74-2.43,13.05-8.54,14.21A11.16,11.16,0,0,1,12,281.67C6.48,243,7.21,204.94,23.26,168.51c11.47-26,42.28-42.29,71.92-38.81,15.65,1.83,30.2,6.89,42.95,15.83,8,5.62,13.88,1.37,20.17-1.87s11.67-8.53,10.15-16.34c-1.34-6.82-3.41-14.06-7.23-19.72-6.88-10.15-15.11-19.42-23.15-28.74-6.27-7.28-7-13.4-1.36-18.62,5.31-4.9,11.95-4.47,17.92,2.67,10.45,12.5,20.86,25.14,30,38.59a43.13,43.13,0,0,1,7.08,30.6c-2.93,20.61-16.91,31.34-35.32,36.51-8.51,2.39-10.65,6.2-11.27,14.5-3.27,44-7.28,87.94-11,131.9-7.66,17.1-.71,34.63-1.45,51.94-1.25,29.13-1.54,58.31-2.73,87.45-.49,11.87-9.14,19.28-20,18.53-10.45-.73-17.55-9.64-17.18-21.41.88-28.21,2.09-56.41,2.37-84.62.14-13.72-1.39-27.47-2.44-41.19-.12-1.47-2.08-2.79-3.18-4.18-.69,1.5-2.06,3-2,4.47,2.43,33.88-2.87,67.21-7,100.63q-1.73,14.13-3.41,28.25C75.87,466.25,67.79,473.61,57.4,473c-10.61-.68-18.39-9.53-17.26-21.17,2.16-22.18,5.45-44.26,7.47-66.45,1.56-17.22,3.13-34.6,2.46-51.82-.72-18.72-4.39-37.3-6.11-56-2.23-24.09-3.8-48.25-5.67-72.37A29,29,0,0,0,37.72,202Zm43.4-30.05c-1.79,22.19-3.58,43.9-5.24,65.62a7.16,7.16,0,0,0,1.1,4.6c4.46,5.7,9.18,11.19,13.65,16.57,11.43-9.84,18.27-20.64,13.91-35.74-.77-2.67-.38-5.66-.61-8.5-1.14-14.11-2.31-28.23-3.48-42.55Zm-4.74-29.06c3.38,20.2,4.74,21.4,22.2,20a7.39,7.39,0,0,0,1.29-.45l5.22-18.76C95,139.52,85.78,138.76,76.38,142.86Z"/><path class="cls-2" d="M485.71,237.74,476.25,249c5.26,8.19,11,15.69,15.11,24,2.5,5.07,2.61,11.36,3.53,17.13,1.31,8.16,2.92,16.32,3.43,24.54,1,15.55,2.22,31.2,1.39,46.7-.41,7.6-9,8.53-16.31,9.88-.7-2.27-1.33-4.45-2-6.61a32.17,32.17,0,0,0-28.65-22.06c-14-.6-27.38,7.06-31.56,19.74-2,6.19-5.68,8.27-11,8.73-21.48,1.84-43,4.61-64.49,4.89-30.81.41-61.65-1.07-93.08-1.75-2.12-11.88-6.73-22.53-18.07-27.28-6.69-2.79-14.8-4.48-21.88-3.59-17.78,2.23-26.06,15-27.7,39.73-9.77-.87-18.16-5-25.6-11-1.44-1.16-1.48-4.86-1.16-7.24.48-3.51,2.62-6.87,2.7-10.33.24-10,.16-20-.51-29.88-.37-5.61,1.63-9.37,5.53-13,15.68-14.65,34.72-22.81,54.9-28.83,4.7-1.39,9.45-2.59,15.38-4.21l-70.88-61.16c15.5.34,46.32,24.29,77,59.57,17.56-10.5,35.89-20.08,52.71-31.84,22.69-15.87,47.63-20.55,74.58-21.2,38.07-.93,75.06,6.38,112.32,12C482.7,236.12,483.48,236.72,485.71,237.74ZM350.92,281.43c12.25-1.06,23.83-1.74,35.33-3.13,18.14-2.18,36.21-5.23,52.56-13.95,6.16-3.29,11.44-8.22,17.12-12.41l-1.05-3.28c-32.76-16.92-68.12-15.84-104-14.67Zm-7.32-46.86C303.11,243,271.41,264,243.19,294.24c33.37-4.05,65.09-7.86,96.78-11.92,1.36-.17,3.44-2.62,3.47-4C343.7,264.08,343.6,249.86,343.6,234.57Z"/><path class="cls-3" d="M308.93,174.74c1.68,1.46,3.57,2.86,5.17,4.53,7.42,7.68,9.88,16.61,6.1,26.79-3.42,9.22-12.52,15.22-22.6,15.8-2.43.14-5.56,1.12-7,2.85-12.68,14.8-32.28,13.48-42.29-3.1-.46-.76-.93-1.5-.58-.94-5.77,4.46-10.81,10-17.08,12.63-4.72,1.95-11.35,1.15-16.54-.39-10.57-3.14-16.62-13.54-15.62-24.4,1.17-12.65,9.94-20.4,26-22.84q-.63-7.54-1.25-15.14c-15.82-6.56-22.16-15-20.74-27.48,1.36-11.93,10.31-20,23.78-22.22,1.4-6.44,1.29-13.37,4.4-18.25s9.42-7.65,16.25-12.81c1.56-7.84,7.21-15.25,18.88-16.46C277.68,72.08,284.33,78.53,288,89c18.39-4.77,32.72,5.52,29.28,25.53,1.9.64,3.91,1.22,5.84,2A23.68,23.68,0,0,1,338,138.66c.08,10.7-5.09,20.21-14.7,22.86C315.79,163.59,312.12,168.24,308.93,174.74Z"/><path class="cls-4" d="M52.49,85.27a38,38,0,1,1,75.92,1.79c-.38,20.53-17.74,37.45-38.18,37.19A38,38,0,0,1,52.49,85.27Z"/><path class="cls-5" d="M216.62,401.36a24.72,24.72,0,0,1-24.3-25.3A24.32,24.32,0,0,1,217,352a24.7,24.7,0,0,1,24.87,24.82C241.78,390.23,230.23,401.46,216.62,401.36Z"/><path class="cls-6" d="M471.8,375.93c-.4,14-10.45,24.13-23.76,23.87A23.93,23.93,0,1,1,449.18,352C462.59,352.23,472.18,362.4,471.8,375.93Z"/><path class="cls-7" d="M300.38,55.66A16.6,16.6,0,0,1,317.86,39a16.83,16.83,0,0,1,16.43,17.1A17.19,17.19,0,0,1,316.7,72.9,16.88,16.88,0,0,1,300.38,55.66Z"/><path class="cls-8" d="M361.45,153.59a14.6,14.6,0,1,1,14.79-14.86A14.71,14.71,0,0,1,361.45,153.59Z"/></svg>