<svg id="Layer_1" data-name="Layer 1" xmlns="http://www.w3.org/2000/svg" xmlns:xlink="http://www.w3.org/1999/xlink" viewBox="0 0 512 512"><defs><style>.cls-1{fill:url(#linear-gradient);}.cls-2{fill:url(#linear-gradient-2);}.cls-3{fill:url(#linear-gradient-3);}.cls-4{fill:url(#linear-gradient-4);}.cls-5{fill:url(#linear-gradient-5);}.cls-6{fill:url(#linear-gradient-6);}.cls-7{fill:url(#linear-gradient-7);}.cls-8{fill:url(#linear-gradient-8);}.cls-9{fill:url(#linear-gradient-9);}.cls-10{fill:url(#linear-gradient-10);}.cls-11{fill:url(#linear-gradient-11);}.cls-12{fill:url(#linear-gradient-12);}.cls-13{fill:url(#linear-gradient-13);}.cls-14{fill:url(#linear-gradient-14);}.cls-15{fill:url(#linear-gradient-15);}.cls-16{fill:url(#linear-gradient-16);}.cls-17{fill:url(#linear-gradient-17);}.cls-18{fill:url(#linear-gradient-18);}.cls-19{fill:url(#linear-gradient-19);}</style><linearGradient id="linear-gradient" x1="249.84" y1="115.21" x2="249.84" y2="297.57" gradientUnits="userSpaceOnUse"><stop offset="0" stop-color="#6db3e8"/><stop offset="1" stop-color="#2e93f0"/></linearGradient><linearGradient id="linear-gradient-2" x1="317.85" y1="115.21" x2="317.85" y2="297.57" xlink:href="#linear-gradient"/><linearGradient id="linear-gradient-3" x1="66.48" y1="115.21" x2="66.48" y2="297.57" xlink:href="#linear-gradient"/><linearGradient id="linear-gradient-4" x1="36.12" y1="115.21" x2="36.12" y2="297.57" xlink:href="#linear-gradient"/><linearGradient id="linear-gradient-5" x1="474.15" y1="115.21" x2="474.15" y2="297.57" xlink:href="#linear-gradient"/><linearGradient id="linear-gradient-6" x1="104.35" y1="115.21" x2="104.35" y2="297.57" xlink:href="#linear-gradient"/><linearGradient id="linear-gradient-7" x1="112.41" y1="115.21" x2="112.41" y2="297.57" xlink:href="#linear-gradient"/><linearGradient id="linear-gradient-8" x1="127.72" y1="115.21" x2="127.72" y2="297.57" xlink:href="#linear-gradient"/><linearGradient id="linear-gradient-9" x1="477.91" y1="115.21" x2="477.91" y2="297.57" xlink:href="#linear-gradient"/><linearGradient id="linear-gradient-10" x1="95.66" y1="115.21" x2="95.66" y2="297.57" xlink:href="#linear-gradient"/><linearGradient id="linear-gradient-11" x1="103.89" y1="115.21" x2="103.89" y2="297.57" xlink:href="#linear-gradient"/><linearGradient id="linear-gradient-12" x1="95.84" y1="115.21" x2="95.84" y2="297.57" xlink:href="#linear-gradient"/><linearGradient id="linear-gradient-13" x1="337.27" y1="115.21" x2="337.27" y2="297.57" xlink:href="#linear-gradient"/><linearGradient id="linear-gradient-14" x1="105.04" y1="115.21" x2="105.04" y2="297.57" xlink:href="#linear-gradient"/><linearGradient id="linear-gradient-15" x1="105.38" y1="115.21" x2="105.38" y2="297.57" xlink:href="#linear-gradient"/><linearGradient id="linear-gradient-16" x1="370.72" y1="115.21" x2="370.72" y2="297.57" xlink:href="#linear-gradient"/><linearGradient id="linear-gradient-17" x1="371.06" y1="115.21" x2="371.06" y2="297.57" xlink:href="#linear-gradient"/><linearGradient id="linear-gradient-18" x1="115.72" y1="115.21" x2="115.72" y2="297.57" xlink:href="#linear-gradient"/><linearGradient id="linear-gradient-19" x1="229.06" y1="115.21" x2="229.06" y2="297.57" xlink:href="#linear-gradient"/></defs><title>Auto Care  ICONS</title><path class="cls-1" d="M487.78,282.59v22.14H449.21c-6.84,0-10.44,3.59-10.46,10.46q0,7.81,0,15.64c0,6.13,4,10.07,10.21,10.07h38.77v4.46h-2c-17.66,0-35.32,0-53,0-2,0-2.59-.56-3-2.51-4.07-20-13.33-36.9-31.91-46.49-21.1-10.9-42.33-9.52-61.83,4.24-14.67,10.36-22.77,25.26-25.63,43-.08.49-.17,1-.3,1.75h-2q-70.41,0-140.84,0c-1.72,0-2.41-.34-2.76-2.23-3-16.05-10.13-29.91-22.66-40.63-11.81-10.09-25.77-13.84-41-12.69-25.39,1.9-41.27,16.49-50.72,39.07-2,4.76-2.91,10-4.25,15-.24.89-.46,1.48-1.53,1.47q-15.93,0-31.87-.05a2.27,2.27,0,0,1-.57-.23V277.21H14q29.7,0,59.39,0a8.58,8.58,0,0,1,3.09.6q27.87,10.92,55.67-.1a7.51,7.51,0,0,1,2.73-.51l323.92,0a2.85,2.85,0,0,1,2.76,1.39,9,9,0,0,0,7.88,4Z"/><path class="cls-2" d="M487.14,254.68H470.56c-7,0-10.8,3.8-10.82,10.83v3.34H148.45l-.44-.41a6.69,6.69,0,0,0,1.25-.64,73,73,0,0,0,24.54-34.26c.51-1.49,1.43-1.44,2.59-1.44h75q103.79,0,207.59,0a7.94,7.94,0,0,1,4,1.16c7.41,4.61,14.79,9.31,20.92,15.63a43.12,43.12,0,0,1,3.74,5.24Z"/><path class="cls-3" d="M83.08,215.31c0,2.14,0,4,0,5.78a2.89,2.89,0,0,1-.66,1.66q-13.06,15-26.2,29.88a6.08,6.08,0,0,1-.65.55,62,62,0,0,1-10.73-16.31A65.29,65.29,0,0,1,57,164.49c1.05-1.1,2-2.55,3.65-2.39.49-.81.79-1.86,1.48-2.38q4.68-3.47,9.58-6.65a2.86,2.86,0,0,1,2.36-.13c9.57,4.5,15.94,12,19.87,21.65a1.78,1.78,0,0,1-.22,1.6c-4,3.68-5.08,8.52-5.65,13.59-.08.68-.13,1.35-.24,2.47a52.65,52.65,0,0,1-5-4.26c-2.89-3.2-6.09-4.24-10.32-2.89-2.78.9-5.79,1.05-8.7,1.59a4.13,4.13,0,0,0-3.54,4.56,4,4,0,0,0,4.75,3.5c3.17-.45,6.31-1.12,9.48-1.52a3.74,3.74,0,0,1,2.5.71c2.42,1.9,4.71,4,7.06,5.95a3.83,3.83,0,0,1-.66,5.9c-6.1,3.23-12.25,6.36-18.32,9.66a8.59,8.59,0,0,0-3,2.86c-1.93,3.08-3.64,6.3-5.44,9.47-1.44,2.53-1,5,1.17,6.23s4.43.41,6-2.16l.19-.32c1.73-3,2.82-6.79,5.34-8.75C73.36,219.68,78.31,217.81,83.08,215.31Z"/><path class="cls-4" d="M60.51,268.92H11.72V232.29a8.89,8.89,0,0,1,1.2-.17c6.53,0,13.06,0,19.6,0a1.88,1.88,0,0,1,2.17,1.46,73.47,73.47,0,0,0,25,34.6C59.84,268.3,60,268.47,60.51,268.92Z"/><path class="cls-5" d="M474.3,313h24.49c2.44,0,2.61.17,2.61,2.53,0,5,0,9.92,0,14.87,0,1.73-.61,2.32-2.31,2.32q-24.87-.06-49.74,0c-1.76,0-2.51-.55-2.49-2.37q.09-7.53,0-15.06c0-1.69.64-2.33,2.35-2.31C457.59,313,465.94,313,474.3,313Z"/><path class="cls-6" d="M82.69,148.14c13.23-5.22,31.51-4.87,43.31.12-2.66,2.24-5.43,4.37-8,6.74a45.69,45.69,0,0,0-11.28,16.29c-.81,2-2.17,1.35-3.47,1.57s-1.41-.75-1.74-1.53c-3.85-9.19-9.55-16.91-17.94-22.47C83.29,148.66,83,148.41,82.69,148.14Z"/><path class="cls-7" d="M108,250.77V241c0-10.92,0-21.84,0-32.77a5,5,0,0,1,1.47-3.85c1.32-1.32,2.49-2.77,4.06-4.55,2.35,8.25,3.76,16.12,3.21,24.26A54.27,54.27,0,0,1,108,250.77Z"/><path class="cls-8" d="M118.82,181.3c-1.51-1.94-2.95-3.65-4.2-5.5a2.5,2.5,0,0,1,0-2.06,43.75,43.75,0,0,1,16-18.34l.63-.41c4.81-3.13,5.36-3.09,9.9,1Z"/><path class="cls-9" d="M477.93,274.44h-7.16c-2.65,0-2.82-.19-2.83-2.75,0-2.26,0-4.53,0-6.79,0-1.44.62-2,2.06-2q7.92,0,15.83,0c1.41,0,2.09.51,2.06,2-.06,2.51-.06,5,0,7.54,0,1.47-.61,2-2,2-2.64,0-5.28,0-7.92,0Z"/><path class="cls-10" d="M99.73,215.5v34.78l-.37.16c-1.1-2.26-2.27-4.5-3.29-6.8a61.48,61.48,0,0,1-4.38-16.1,4.7,4.7,0,0,1,1.25-4.43C95.22,220.82,97.26,218.3,99.73,215.5Z"/><path class="cls-11" d="M103.93,193.29c-2.23-.29-4.47-.53-6.69-.92-.4-.07-1-.82-1-1.16a44.87,44.87,0,0,1,1.33-6.42c.77-2.39,2.68-3.53,5.17-3.67.38,0,.76,0,1.13,0,5.54-.12,7.15,1.35,7.62,6.91.16,1.91-2.05,4.73-4,5-1.18.14-2.38.12-3.57.17Z"/><path class="cls-12" d="M99.94,201.25a6.77,6.77,0,0,1-.7,2.32c-2.28,2.72-4.67,5.34-7,8l-.48-.16c.81-3.69,1.63-7.38,2.47-11.15Z"/><path class="cls-13" d="M401.08,208H273.47V143.43c.58-.05,1.12-.15,1.66-.15,20.24,0,40.48,0,60.71.18a135.08,135.08,0,0,1,15,1.29,24.53,24.53,0,0,1,18,11.16c3.81,5.67,7.4,11.51,11,17.33,6.72,10.9,13.37,21.85,20.05,32.78Z"/><path class="cls-14" d="M92.67,348.07A12.37,12.37,0,1,1,105,360.4,12.36,12.36,0,0,1,92.67,348.07Z"/><path class="cls-15" d="M105.38,312.24A35.73,35.73,0,1,0,141.1,348,35.72,35.72,0,0,0,105.38,312.24Zm0,56.11A20.39,20.39,0,1,1,125.76,348,20.39,20.39,0,0,1,105.38,368.35Z"/><path class="cls-16" d="M358.36,348.07a12.37,12.37,0,1,1,12.35,12.33A12.35,12.35,0,0,1,358.36,348.07Z"/><path class="cls-17" d="M371.06,312.24A35.73,35.73,0,1,0,406.79,348,35.73,35.73,0,0,0,371.06,312.24Zm0,56.11A20.39,20.39,0,1,1,391.44,348,20.39,20.39,0,0,1,371.06,368.35Z"/><path class="cls-18" d="M160.47,176.59c-.07-.16-.15-.33-.24-.49a27.09,27.09,0,0,0-1.68-2.7l-.32-.5,0,0a62.26,62.26,0,0,0-10.62-12l-27.46,31.27c3.13-2.16,5.94-4.63,8.84-7a3.35,3.35,0,0,1,2.32-.74c4.53.67,9,1.46,13.55,2.29a3.85,3.85,0,0,1,3.19,3.1,3.51,3.51,0,0,1-1.44,4,6.11,6.11,0,0,1-3.51.83c-2.93-.31-5.83-.89-8.73-1.45a3.31,3.31,0,0,0-3.23.85c-2.21,2.05-4.57,3.94-6.86,5.89s-2,4.47.67,5.87c6.28,3.31,12.58,6.56,18.84,9.91a5.65,5.65,0,0,1,2.09,2c2.07,3.44,4,6.95,6,10.46a4.12,4.12,0,0,1-1.31,5.75,4,4,0,0,1-5.69-1.55,43.65,43.65,0,0,1-3.14-5.57,12.38,12.38,0,0,0-6.81-6.56c-3.36-1.49-6.55-3.35-10-5.14,0,3.07.08,5.88,0,8.68a2.47,2.47,0,0,0,1.21,2.49q4.17,2.74,8.22,5.66c.53.39,1.16,1.16,1.12,1.71-.57,9.15-1.16,18.3-2,27.43a5,5,0,0,1-2.42,3.24c-2.84,1.51-5.82-.79-5.61-4.23.4-6.77,1-13.53,1.42-20.29.23-3.32-.1-3.8-3.32-5-.09.3-.21.59-.28.89-2.34,10.28-7.1,19.35-13.37,27.77-2,2.73-4.23,4.09-7.54,3.44a3.55,3.55,0,0,1-1.89-.92,70.12,70.12,0,0,1-12.38-20.11c-1.33-3.42-2.4-7-3.58-10.44-2.23,1-3.24,2.47-3,5.23.68,6.55,1,13.14,1.33,19.73a4.06,4.06,0,1,1-8.09.6c-.2-1.56-.24-3.13-.35-4.7-.25-3.58-.51-7.16-.79-11.17L61.53,259c.55.51.93.91,1.36,1.25,31.59,25.79,78.9,17,98.4-18.87C173.2,219.49,172.58,197.67,160.47,176.59Zm-2.28-3.69-.06-.09.07.06Z"/><path class="cls-19" d="M446.92,223.8l-14.31-7.92a28.68,28.68,0,0,1-10.39-9.34c-9.46-14.36-19-28.67-28.55-43a90.75,90.75,0,0,0-5.51-8.19c-.94-1.41-1.89-2.81-2.84-4.22C378,140.21,368,133,355.12,129.85c-2.72-.67-5.52-1-8.29-1.54H31.2c-.85.19-1.7.38-2.54.59-9.27,2.29-14.93,8.12-17,17.42a10.77,10.77,0,0,1-.41,1.21V205.2c.09,4.57.19,9.14.26,13.72,0,1.61,0,3.22,0,4.9H31.7c-4.31-33.85,7.21-60.16,36.48-78.2,34-17.16,64.12-11,91.26,14.77a72.4,72.4,0,0,1,5.69,7.94l2.53,4.17h0c9.18,15.88,12.09,32.92,8.83,51.3ZM270.25,135.06c20.48,0,41-.05,61.45.05,8.36,0,16.71.42,24.88,2.5a28.58,28.58,0,0,1,15.74,9.75,137.89,137.89,0,0,1,9.43,13.35c9.9,15.94,19.63,32,29.42,48a13,13,0,0,1,1.08,2,4,4,0,0,1-3.34,5.55,22.21,22.21,0,0,1-2.45.06H270.92c-4.59,0-5.76-1.17-5.76-5.81q0-35.13,0-70.28C265.15,136.49,266.56,135.06,270.25,135.06Z"/></svg>