<svg id="Layer_1" data-name="Layer 1" xmlns="http://www.w3.org/2000/svg" xmlns:xlink="http://www.w3.org/1999/xlink" viewBox="0 0 512 512"><defs><style>.cls-1{fill:url(#linear-gradient);}.cls-2{fill:url(#linear-gradient-2);}.cls-3{fill:url(#linear-gradient-3);}.cls-4{fill:url(#linear-gradient-4);}.cls-5{fill:url(#linear-gradient-5);}</style><linearGradient id="linear-gradient" x1="256.27" y1="15.64" x2="256.27" y2="461.87" gradientUnits="userSpaceOnUse"><stop offset="0" stop-color="#6db3e8"/><stop offset="1" stop-color="#2e93f0"/></linearGradient><linearGradient id="linear-gradient-2" x1="167.71" y1="15.64" x2="167.71" y2="461.87" xlink:href="#linear-gradient"/><linearGradient id="linear-gradient-3" x1="341.3" y1="15.64" x2="341.3" y2="461.87" xlink:href="#linear-gradient"/><linearGradient id="linear-gradient-4" x1="256.32" y1="15.64" x2="256.32" y2="461.87" xlink:href="#linear-gradient"/><linearGradient id="linear-gradient-5" x1="256.48" y1="15.64" x2="256.48" y2="461.87" xlink:href="#linear-gradient"/></defs><title>Auto Care  ICONS</title><path class="cls-1" d="M391.24,250.61,363,237.74a9.27,9.27,0,0,1-3.85-3.3L334.7,195.72a21.06,21.06,0,0,0-18.16-9.9H229.09A21.69,21.69,0,0,0,212,194.07l-31.35,41a9.34,9.34,0,0,1-4.73,3.19l-52.47,14.3a13.86,13.86,0,0,0-10.23,13.31V285a14,14,0,0,0,14,14h1.54a39.36,39.36,0,0,1,77.77,0h95.7A39.37,39.37,0,0,1,380,299h5.28a14.13,14.13,0,0,0,14-14V263.15A13.7,13.7,0,0,0,391.24,250.61Z"/><path class="cls-2" d="M167.71,283.28a21.78,21.78,0,1,0,21.78,21.78h0A21.9,21.9,0,0,0,167.71,283.28Z"/><path class="cls-3" d="M341.3,283.28a21.78,21.78,0,1,0,21.78,21.78h0A22,22,0,0,0,341.3,283.28Z"/><path class="cls-4" d="M409.17,85.71H355.38v28.94a8.59,8.59,0,0,1-8.69,8.47H165.62a8.08,8.08,0,0,1-8.25-7.81V85.71H103.58c-14.19,0-25.41,12-25.41,26.08V475.23a25.21,25.21,0,0,0,25,25.19H409.06a25,25,0,0,0,25.41-24.75V111.79C434.58,97.71,423.25,85.71,409.17,85.71ZM372.32,447.62H140.43a8.8,8.8,0,0,1,0-17.6h232a8.8,8.8,0,1,1-.11,17.6Zm-240.69-55a8.83,8.83,0,0,1,8.8-8.8H269a8.8,8.8,0,0,1,0,17.6H140.43A8.76,8.76,0,0,1,131.63,392.62ZM417,285.15a31.57,31.57,0,0,1-31.57,31.57h-6.49a39.43,39.43,0,0,1-75.47,0H205.33a39.43,39.43,0,0,1-75.46,0h-2.75a31.78,31.78,0,0,1-31.57-31.57V266a31.55,31.55,0,0,1,23.21-30.36l49.61-13.53,29.48-38.72a39.35,39.35,0,0,1,31-15.29h87.45a38.88,38.88,0,0,1,33.12,18.15l23,36.52,25.85,11.77a31.54,31.54,0,0,1,18.48,28.6v22Z"/><path class="cls-5" d="M337.78,60.08a14,14,0,0,0-14.19-14H298.28a8.73,8.73,0,0,1-8.58-7,34.61,34.61,0,0,0-33.88-27.5c-16.39,0-30,11.11-33.88,27.72a8.83,8.83,0,0,1-8.58,6.82H188.72a13.61,13.61,0,0,0-13.64,13.53v45.88H337.89V60.08Z"/></svg>