<svg id="Layer_1" data-name="Layer 1" xmlns="http://www.w3.org/2000/svg" xmlns:xlink="http://www.w3.org/1999/xlink" viewBox="0 0 512 512"><defs><style>.cls-1{fill:url(#linear-gradient);}.cls-2{fill:url(#linear-gradient-2);}.cls-3{fill:url(#linear-gradient-3);}.cls-4{fill:url(#linear-gradient-4);}</style><linearGradient id="linear-gradient" x1="248.25" y1="9.51" x2="248.25" y2="454.28" gradientUnits="userSpaceOnUse"><stop offset="0" stop-color="#6db3e8"/><stop offset="1" stop-color="#2e93f0"/></linearGradient><linearGradient id="linear-gradient-2" x1="166.08" y1="9.51" x2="166.08" y2="454.28" xlink:href="#linear-gradient"/><linearGradient id="linear-gradient-3" x1="65.21" y1="9.51" x2="65.21" y2="454.28" xlink:href="#linear-gradient"/><linearGradient id="linear-gradient-4" x1="415.18" y1="9.51" x2="415.18" y2="454.28" xlink:href="#linear-gradient"/></defs><title>Auto Care  ICONS</title><path class="cls-1" d="M385.68,161H110.82L87.19,261.43H31.53v37l41,5.86L58,340.72V494h63.43l3.52-42.17,246.68-.09L375.1,494h63.43V340.71L424,304.29l41-5.86v-37H409.31ZM131.74,187.43h233l23.63,100.43H108.11ZM113.46,398.86a29.08,29.08,0,1,1,29.07-29.07A29.08,29.08,0,0,1,113.46,398.86ZM317,420H179.53l-5.29-37h148ZM383,398.86a29.08,29.08,0,1,1,29.07-29.07A29.07,29.07,0,0,1,383,398.86Z"/><path class="cls-2" d="M166.08,152.78,185,104.27l48.51-18.86L185,66.52,166.08,18,147.21,66.52,98.7,85.4l48.51,18.87Zm-6.62-74,6.61-17,6.62,17,17,6.63-17,6.62-6.62,17-6.61-17-17-6.61Z"/><path class="cls-3" d="M65.21,175.24l15.52-23.16,23.16-15.52L80.73,121,65.21,97.88,49.7,121,26.53,136.56l23.16,15.52Zm-4.08-42.76,4.08-6.11,4.09,6.11,6.11,4.09-6.11,4.09-4.09,6.09-4.09-6.1L55,136.57Z"/><path class="cls-4" d="M415.19,181.09l20-50.93,50.94-20-50.94-20-20-50.94-20,50.94-50.94,20,50.94,20Zm-7.76-78.67,7.76-19.76,7.75,19.76,19.76,7.75-19.76,7.75-7.75,19.76-7.76-19.77-19.74-7.75Z"/></svg>