<svg id="Layer_1" data-name="Layer 1" xmlns="http://www.w3.org/2000/svg" xmlns:xlink="http://www.w3.org/1999/xlink" viewBox="0 0 512 512"><defs><style>.cls-1{fill:url(#linear-gradient);}.cls-2{fill:url(#linear-gradient-2);}.cls-3{fill:url(#linear-gradient-3);}.cls-4{fill:url(#linear-gradient-4);}.cls-5{fill:url(#linear-gradient-5);}.cls-6{fill:url(#linear-gradient-6);}</style><linearGradient id="linear-gradient" x1="439.12" y1="66.74" x2="439.12" y2="432.38" gradientUnits="userSpaceOnUse"><stop offset="0" stop-color="#6db3e8"/><stop offset="1" stop-color="#2e93f0"/></linearGradient><linearGradient id="linear-gradient-2" x1="175.67" y1="66.74" x2="175.67" y2="432.38" xlink:href="#linear-gradient"/><linearGradient id="linear-gradient-3" x1="269.36" y1="66.74" x2="269.36" y2="432.38" xlink:href="#linear-gradient"/><linearGradient id="linear-gradient-4" x1="115.81" y1="66.74" x2="115.81" y2="432.38" xlink:href="#linear-gradient"/><linearGradient id="linear-gradient-5" x1="285.1" y1="66.74" x2="285.1" y2="432.38" xlink:href="#linear-gradient"/><linearGradient id="linear-gradient-6" x1="76.81" y1="66.74" x2="76.81" y2="432.38" xlink:href="#linear-gradient"/></defs><title>Auto Care  ICONS</title><path class="cls-1" d="M439.11,307.05a27.09,27.09,0,1,0,27.1,27.08A27.07,27.07,0,0,0,439.11,307.05Zm0,40.35a13.26,13.26,0,1,1,13.26-13.27A13.27,13.27,0,0,1,439.11,347.4Z"/><path class="cls-2" d="M40.42,265.11h0a7.75,7.75,0,0,1,7.74-7.76h57.38a7.75,7.75,0,0,1,7.75,7.76v1.12H248.8a36.37,36.37,0,0,1,72.66.07l11.47,0a4.65,4.65,0,0,0,4.66-4.65V249.42a4.65,4.65,0,0,0-4.66-4.64H332V220.6a12.4,12.4,0,0,0-12.4-12.4H272.71L238.8,158.56c-4.19-5.58-8.22-7.75-14.64-7.75l-194.92,0a15.51,15.51,0,0,0-15.5,15.51v84.19a15.75,15.75,0,0,0,15,15.76H40.42v-1.12Zm154.24-98.8h0a4.65,4.65,0,0,1,4.66-4.64h23.75c2.59,0,3.53.23,5.88,3.34l15.94,22.45c1.81,2.57,1.2,4.64-1.36,4.64H199.31a4.63,4.63,0,0,1-4.65-4.64V166.31ZM190.73,199a4.47,4.47,0,0,1,3.57,1.55h11.2c4.13,0,4.13,6.2,0,6.2H194.29a4.49,4.49,0,0,1-3.59,1.55C184.51,208.34,184.51,199,190.73,199Z"/><path class="cls-3" d="M494.25,310.88l-8.21,0V298.45a10,10,0,0,0,8.93,5.42s.77,0,.93,0a3.51,3.51,0,0,0,3-3.51V287.19a3.49,3.49,0,0,0-3-3.49c-.31,0-.6-.05-.93-.05a10.11,10.11,0,0,0-8.94,5.41v-2.34a12.41,12.41,0,0,0-12.41-12.4H453.34a3.11,3.11,0,1,1,0-6.22H469l-35.29-51.41c-4.18-5.57-8.21-7.75-14.63-7.75H386.71l-.82-5.81a1.31,1.31,0,0,0-1.2-1.09l-1-7.59c-.75-5.05-3.27-7.6-7.41-7.6s-6.63,2.56-7.41,7.6l-1,7.59h-.17a1.28,1.28,0,0,0-1.23,1.09l-.8,5.81H353.41a7.75,7.75,0,0,0-7.74,7.75V290a7.76,7.76,0,0,1-7.55,6H60.49a7.75,7.75,0,0,0-7.76,7.75v6.65l-8.26,0a4.64,4.64,0,0,0-4.67,4.64V327.4a4.66,4.66,0,0,0,4.67,4.65l34.89.05v-.89a7.75,7.75,0,0,1,7.75-7.74H144.5a7.74,7.74,0,0,1,7.76,7.74v1l250.54.15a36.38,36.38,0,0,1,72.67.08l18.78,0a4.65,4.65,0,0,0,4.65-4.65V315.55A4.66,4.66,0,0,0,494.25,310.88ZM373,195c.56-3.56,1.79-4,3.26-4s2.73.42,3.27,4l.85,6.35h-8.22Zm13.38,58.57a4.64,4.64,0,0,1-4.64,4.65H370.23a4.64,4.64,0,0,1-4.65-4.65V224.45a4.65,4.65,0,0,1,4.65-4.65h11.52a4.65,4.65,0,0,1,4.64,4.65Zm27.81,20.85H403a4.46,4.46,0,0,1-3.59,1.56c-6.2,0-6.2-9.31,0-9.31a4.46,4.46,0,0,1,3.57,1.56H414.2C418.36,268.22,418.36,274.42,414.2,274.42ZM444,258.22H399.78a4.65,4.65,0,0,1-4.65-4.65V224.45a4.66,4.66,0,0,1,4.65-4.65h18.16c2.6,0,3.54.24,5.9,3.34l21.54,30.43C447.16,256.14,446.57,258.22,444,258.22Z"/><path class="cls-4" d="M128.19,329.39a13.25,13.25,0,1,1-25.62,4.74,13.16,13.16,0,0,1,.87-4.74H89.13a27.66,27.66,0,0,0-.42,4.74,27.1,27.1,0,1,0,54.2,0,26.78,26.78,0,0,0-.42-4.74Z"/><path class="cls-5" d="M285.1,240.92a27.09,27.09,0,0,0-16.45,48.62h32.91a27.09,27.09,0,0,0-16.46-48.62Zm0,40.36A13.26,13.26,0,1,1,298.35,268,13.26,13.26,0,0,1,285.1,281.28Z"/><path class="cls-6" d="M50.12,263.28a27.4,27.4,0,0,0-.4,4.74,27,27,0,0,0,10.64,21.53h32.9A27,27,0,0,0,103.91,268a27.48,27.48,0,0,0-.41-4.74H89.19a12.84,12.84,0,0,1,.88,4.74,13.25,13.25,0,1,1-26.5,0,13.56,13.56,0,0,1,.87-4.74Z"/></svg>