<svg id="Layer_1" data-name="Layer 1" xmlns="http://www.w3.org/2000/svg" xmlns:xlink="http://www.w3.org/1999/xlink" viewBox="0 0 512 512"><defs><style>.cls-1{fill:url(#linear-gradient);}.cls-2{fill:url(#linear-gradient-2);}</style><linearGradient id="linear-gradient" x1="311.65" y1="-32.21" x2="311.65" y2="581.48" gradientUnits="userSpaceOnUse"><stop offset="0" stop-color="#6db3e8"/><stop offset="1" stop-color="#2e93f0"/></linearGradient><linearGradient id="linear-gradient-2" x1="237.64" y1="-32.21" x2="237.64" y2="581.48" xlink:href="#linear-gradient"/></defs><title>Auto Care  ICONS</title><path class="cls-1" d="M466.72,399.06,330.18,262.53a95.37,95.37,0,0,0-94.42-120.19c-20.51.5-27,20.84-13,34.81l21.46,21.48c15.92,15.91,15.92,29.39,0,45.31s-29.38,15.91-45.3,0l-21.47-21.48c-14-14-34.33-7.53-34.81,13a95.36,95.36,0,0,0,120.18,94.42L399.39,466.41a47.62,47.62,0,0,0,67.33-67.35Zm-16.33,51a24.51,24.51,0,0,1-34.67,0L269.1,303.47l-6.86,2.43A72.3,72.3,0,0,1,166,243.61l16.65,16.66c24.93,24.93,53,24.93,78,0s24.93-53,0-78l-16.65-16.66a72.29,72.29,0,0,1,62.28,96.28l-2.43,6.87,146.61,146.6A24.52,24.52,0,0,1,450.39,450.07Z"/><path class="cls-2" d="M289.1,408.46l8.88-8.89a11.55,11.55,0,1,1,16.34,16.32L294,436.26a11.55,11.55,0,0,1-18.91-3.91c-9.13-23.07-21.28-32.4-37.43-32.4-13.8,0-21.36,7.13-31.36,32.41a16.94,16.94,0,0,1-19.6,10.16,210.16,210.16,0,0,1-58.09-24.09,16.92,16.92,0,0,1-6.68-21.06c10.78-24.93,10.48-35.31.73-45.06s-20.13-10.05-45.07.74a17,17,0,0,1-21-6.67,210,210,0,0,1-24.07-58.09,16.91,16.91,0,0,1,10.16-19.62C67.87,258.67,75,251.11,75,237.31S67.88,216,42.63,206a16.92,16.92,0,0,1-10.19-19.6,210.34,210.34,0,0,1,24.09-58.1,16.93,16.93,0,0,1,21.06-6.67c24.92,10.78,35.3,10.48,45.05.73s10.06-20.13-.72-45a16.93,16.93,0,0,1,6.66-21.06,210,210,0,0,1,58.09-24.08A16.91,16.91,0,0,1,206.28,42.3c10,25.25,17.56,32.38,31.35,32.38S259,67.55,269,42.32a16.92,16.92,0,0,1,19.61-10.19A209.93,209.93,0,0,1,346.7,56.22a16.92,16.92,0,0,1,6.65,21c-10.78,24.93-10.47,35.31-.72,45.06s20.13,10.05,45.07-.74a16.92,16.92,0,0,1,21,6.67,210,210,0,0,1,24.09,58.1A16.92,16.92,0,0,1,432.66,206c-25.26,10-32.39,17.56-32.39,31.35s7.13,21.36,32.37,31.36c6.71,2.64,8.43,8.85,7.1,14.1a15.17,15.17,0,0,1-2,4.46,51.09,51.09,0,0,1-4.32,5.66c-3.38,4-8.63,9.6-15.83,17a11.54,11.54,0,1,1-16.52-16.13q5.44-5.58,9.28-9.7c-23.24-11.7-33.21-25.49-33.21-46.72,0-23.69,12.42-38.11,41.84-50.71a187.27,187.27,0,0,0-17.28-41.68c-29.71,11.9-48.68,10.48-65.43-6.27S318.13,102.92,330,73.22a186.8,186.8,0,0,0-41.68-17.28c-12.6,29.42-27,41.84-50.71,41.84s-38.11-12.41-50.71-41.84a186.73,186.73,0,0,0-41.67,17.28c11.89,29.71,10.47,48.68-6.28,65.43s-35.72,18.17-65.43,6.27A186.8,186.8,0,0,0,56.26,186.6c29.43,12.6,41.84,27,41.84,50.71S85.69,275.43,56.26,288a187.55,187.55,0,0,0,17.28,41.68c29.71-11.9,48.68-10.48,65.43,6.27s18.17,35.72,6.28,65.44a186.53,186.53,0,0,0,41.67,17.28c12.59-29.43,27-41.85,50.72-41.85C259.14,376.85,276.64,387.34,289.1,408.46ZM405.35,143.23a6,6,0,0,0,1.5-.45l-.54.24Zm12.58,132.13.25-.37-.06.1Z"/></svg>