<svg id="Layer_1" data-name="Layer 1" xmlns="http://www.w3.org/2000/svg" xmlns:xlink="http://www.w3.org/1999/xlink" viewBox="0 0 512 512"><defs><style>.cls-1{fill:url(#linear-gradient);}.cls-2{fill:url(#linear-gradient-2);}.cls-3{fill:url(#linear-gradient-3);}.cls-4{fill:url(#linear-gradient-4);}.cls-5{fill:url(#linear-gradient-5);}</style><linearGradient id="linear-gradient" x1="256.71" y1="34.02" x2="256.71" y2="450.8" gradientUnits="userSpaceOnUse"><stop offset="0" stop-color="#6db3e8"/><stop offset="1" stop-color="#2e93f0"/></linearGradient><linearGradient id="linear-gradient-2" x1="344.8" y1="34.02" x2="344.8" y2="450.8" xlink:href="#linear-gradient"/><linearGradient id="linear-gradient-3" x1="168.03" y1="34.02" x2="168.03" y2="450.8" xlink:href="#linear-gradient"/><linearGradient id="linear-gradient-4" x1="256.71" y1="34.02" x2="256.71" y2="450.8" xlink:href="#linear-gradient"/><linearGradient id="linear-gradient-5" x1="256.32" y1="34.02" x2="256.32" y2="450.8" xlink:href="#linear-gradient"/></defs><title>Auto Care  ICONS</title><circle class="cls-1" cx="256.71" cy="61.06" r="50.33"/><path class="cls-2" d="M317,69.05h55.53a8,8,0,1,0,0-16H317a8,8,0,0,0,0,16Z"/><path class="cls-3" d="M140.47,69.05h55.12a8,8,0,1,0,0-16H140.47a8,8,0,0,0,0,16Z"/><path class="cls-4" d="M261.11,354.67h-8.79a28.64,28.64,0,0,0-28.76,28.76v89.09a28.64,28.64,0,0,0,28.76,28.76h8.79a28.64,28.64,0,0,0,28.76-28.76V383.43A28.64,28.64,0,0,0,261.11,354.67Z"/><path class="cls-5" d="M262.31,118.18H251.12A120.36,120.36,0,0,0,130.88,238.42V366.26a60.52,60.52,0,0,0,60.32,60.32h24V383.43a36.66,36.66,0,0,1,36.75-36.75h8.79a36.66,36.66,0,0,1,36.75,36.75v42.75h24a60.52,60.52,0,0,0,60.32-60.32V238C382.55,172.11,328.62,118.18,262.31,118.18Z"/></svg>