<svg id="Layer_1" data-name="Layer 1" xmlns="http://www.w3.org/2000/svg" xmlns:xlink="http://www.w3.org/1999/xlink" viewBox="0 0 512 512"><defs><style>.cls-1{fill:url(#linear-gradient);}.cls-2{fill:url(#linear-gradient-2);}.cls-3{fill:url(#linear-gradient-3);}.cls-4{fill:url(#linear-gradient-4);}.cls-5{fill:url(#linear-gradient-5);}.cls-6{fill:url(#linear-gradient-6);}.cls-7{fill:url(#linear-gradient-7);}.cls-8{fill:url(#linear-gradient-8);}.cls-9{fill:url(#linear-gradient-9);}.cls-10{fill:url(#linear-gradient-10);}.cls-11{fill:url(#linear-gradient-11);}.cls-12{fill:url(#linear-gradient-12);}.cls-13{fill:url(#linear-gradient-14);}.cls-14{fill:url(#linear-gradient-15);}.cls-15{fill:url(#linear-gradient-16);}.cls-16{fill:url(#linear-gradient-17);}.cls-17{fill:url(#linear-gradient-18);}.cls-18{fill:url(#linear-gradient-19);}.cls-19{fill:url(#linear-gradient-20);}.cls-20{fill:url(#linear-gradient-21);}.cls-21{fill:url(#linear-gradient-22);}.cls-22{fill:url(#linear-gradient-23);}</style><linearGradient id="linear-gradient" x1="212.24" y1="0.32" x2="212.24" y2="461.89" gradientUnits="userSpaceOnUse"><stop offset="0" stop-color="#6db3e8"/><stop offset="1" stop-color="#2e93f0"/></linearGradient><linearGradient id="linear-gradient-2" x1="212.23" y1="0.32" x2="212.23" y2="461.89" xlink:href="#linear-gradient"/><linearGradient id="linear-gradient-3" x1="212.24" y1="0.32" x2="212.24" y2="461.89" xlink:href="#linear-gradient"/><linearGradient id="linear-gradient-4" x1="193.16" y1="0.32" x2="193.16" y2="461.89" xlink:href="#linear-gradient"/><linearGradient id="linear-gradient-5" x1="213.66" y1="0.32" x2="213.66" y2="461.89" xlink:href="#linear-gradient"/><linearGradient id="linear-gradient-6" x1="264.55" y1="0.32" x2="264.55" y2="461.89" xlink:href="#linear-gradient"/><linearGradient id="linear-gradient-7" x1="159.92" y1="0.32" x2="159.92" y2="461.89" xlink:href="#linear-gradient"/><linearGradient id="linear-gradient-8" x1="279.23" y1="0.32" x2="279.23" y2="461.89" xlink:href="#linear-gradient"/><linearGradient id="linear-gradient-9" x1="145.25" y1="0.32" x2="145.25" y2="461.89" xlink:href="#linear-gradient"/><linearGradient id="linear-gradient-10" x1="265.6" y1="0.32" x2="265.6" y2="461.89" xlink:href="#linear-gradient"/><linearGradient id="linear-gradient-11" x1="159.92" y1="0.32" x2="159.92" y2="461.89" xlink:href="#linear-gradient"/><linearGradient id="linear-gradient-12" x1="212.24" y1="0.32" x2="212.24" y2="461.89" xlink:href="#linear-gradient"/><linearGradient id="linear-gradient-14" x1="235.02" y1="0.32" x2="235.02" y2="461.89" xlink:href="#linear-gradient"/><linearGradient id="linear-gradient-15" x1="189.46" y1="0.32" x2="189.46" y2="461.89" xlink:href="#linear-gradient"/><linearGradient id="linear-gradient-16" x1="244.46" y1="0.32" x2="244.46" y2="461.89" xlink:href="#linear-gradient"/><linearGradient id="linear-gradient-17" x1="180.02" y1="0.32" x2="180.02" y2="461.89" xlink:href="#linear-gradient"/><linearGradient id="linear-gradient-18" x1="235.02" y1="0.32" x2="235.02" y2="461.89" xlink:href="#linear-gradient"/><linearGradient id="linear-gradient-19" x1="189.46" y1="0.32" x2="189.46" y2="461.89" xlink:href="#linear-gradient"/><linearGradient id="linear-gradient-20" x1="402.88" y1="0.32" x2="402.88" y2="461.89" xlink:href="#linear-gradient"/><linearGradient id="linear-gradient-21" x1="265.13" y1="0.32" x2="265.13" y2="461.89" xlink:href="#linear-gradient"/><linearGradient id="linear-gradient-22" x1="407.45" y1="0.32" x2="407.45" y2="461.89" xlink:href="#linear-gradient"/><linearGradient id="linear-gradient-23" x1="292.73" y1="0.32" x2="292.73" y2="461.89" xlink:href="#linear-gradient"/></defs><title>Auto Care  ICONS</title><circle class="cls-1" cx="212.24" cy="189.71" r="21"/><path class="cls-2" d="M200.7,352h23.15a5.09,5.09,0,0,0,3.84-1.76,5.15,5.15,0,0,0,.91-1.55c0-.09.1-.15.14-.24a5.23,5.23,0,0,0,.25-2.17,165.38,165.38,0,0,0,27.71-5.52,5.2,5.2,0,0,0,6.95,3.33l5.62-2.28-16.85-16.86c-2-2-5.24-2.28-7-2.28H245c-1.62,0-3,0-4.38-.1-22.29-2-40-18.09-43.72-39.62a94.6,94.6,0,1,1,88-32.95,47.82,47.82,0,0,1,6.95,25.33c0,1.81,1.15,4.1,3.05,6l27.62,27.62,12.66-12.66a5.21,5.21,0,0,0-.38-7.72,161.3,161.3,0,0,0,15.71-23.43,5.31,5.31,0,0,0,7.24-2.66l8.86-21.33a5.34,5.34,0,0,0-3.33-7,154.24,154.24,0,0,0,5.52-27.62,5.22,5.22,0,0,0,5.71-5.24V178.09a5.2,5.2,0,0,0-5.71-5.14,154.07,154.07,0,0,0-5.52-27.62,5.34,5.34,0,0,0,3.33-7.05L357.74,117a5.31,5.31,0,0,0-7.24-2.67,161.75,161.75,0,0,0-15.71-23.42,5.21,5.21,0,0,0,.38-7.72L318.79,66.76a5.27,5.27,0,0,0-7.71.38,162.12,162.12,0,0,0-23.43-15.71A5.31,5.31,0,0,0,285,44.19l-21.33-8.86a5.21,5.21,0,0,0-6.95,3.34A157.75,157.75,0,0,0,229,33.14a5.08,5.08,0,0,0-.26-2.17.43.43,0,0,0,0-.07,4.45,4.45,0,0,0-2.24-2.65c-.15-.09-.27-.25-.43-.33a5.22,5.22,0,0,0-2.17-.48H200.7a5.17,5.17,0,0,0-2.2.48,5.29,5.29,0,0,0-1.66,1.22h0a5.14,5.14,0,0,0-1.31,3.62c0,.13-.06.24-.05.38a154.07,154.07,0,0,0-27.62,5.52,5.34,5.34,0,0,0-7-3.33L139.47,44.2a5.3,5.3,0,0,0-2.67,7.23,163.29,163.29,0,0,0-23.43,15.72,5.27,5.27,0,0,0-7.71-.38L89.28,83.15a5.2,5.2,0,0,0,.48,7.71A161.93,161.93,0,0,0,74,114.29,5.31,5.31,0,0,0,66.71,117l-8.86,21.34a5.4,5.4,0,0,0,3.34,7A163.55,163.55,0,0,0,55.66,173,5.21,5.21,0,0,0,50,178.09v23.15a5.22,5.22,0,0,0,5.71,5.23,163.16,163.16,0,0,0,5.53,27.62,5.41,5.41,0,0,0-3.34,7l8.86,21.33A5.31,5.31,0,0,0,74,265.14a163,163,0,0,0,15.81,23.43,5.2,5.2,0,0,0-.48,7.71l16.38,16.38a5.27,5.27,0,0,0,7.71-.38A163.22,163.22,0,0,0,136.8,328a5.31,5.31,0,0,0,2.67,7.24l21.33,8.86a5.33,5.33,0,0,0,7-3.34,162.38,162.38,0,0,0,27.62,5.53c0,.14.05.26.05.39a5.15,5.15,0,0,0,1.31,3.59,4.17,4.17,0,0,0,.47.36,4.86,4.86,0,0,0,1.19.87A5.23,5.23,0,0,0,200.7,352Z"/><path class="cls-3" d="M226.23,108.74h-28a7,7,0,0,0-4.94,11.94l14,14a7,7,0,0,0,9.89,0l14-14A7,7,0,0,0,226.23,108.74Z"/><path class="cls-4" d="M195.08,269.9l-1.42-11.53-.38.39A7,7,0,0,0,195.08,269.9Z"/><path class="cls-5" d="M232.23,267.23l-33.62-13.81L195.08,257l32.48,13.52A6.33,6.33,0,0,0,232.23,267.23Z"/><path class="cls-6" d="M259.6,122.56a7,7,0,0,0-11.94,4.94v19.8a7,7,0,0,0,7,7h19.79a7,7,0,0,0,4.95-11.94Z"/><path class="cls-7" d="M164.88,256.86a7,7,0,0,0,11.94-5V232.12a7,7,0,0,0-7-7H150a7,7,0,0,0-4.95,11.94Z"/><path class="cls-8" d="M293.21,203.7v-28a7,7,0,0,0-11.94-4.94l-14,14a7.05,7.05,0,0,0,0,9.89l14,14A7,7,0,0,0,293.21,203.7Z"/><path class="cls-9" d="M131.27,175.71v28a7,7,0,0,0,11.94,5l14-14a7,7,0,0,0,0-9.89l-14-14A7,7,0,0,0,131.27,175.71Z"/><path class="cls-10" d="M274.41,225.14h-19.8a6.7,6.7,0,0,0-4.86,2.09,49.1,49.1,0,0,1,12.57,3.24,48.25,48.25,0,0,1,14.28,9.33l2.77-2.76A7,7,0,0,0,274.41,225.14Z"/><path class="cls-11" d="M150,154.29h19.79a7,7,0,0,0,7-7V127.5a7,7,0,0,0-11.94-5l-19.79,19.8A7,7,0,0,0,150,154.29Z"/><circle class="cls-12" cx="212.24" cy="157.49" r="5.25"/><circle class="cls-1" cx="212.24" cy="221.93" r="5.25"/><circle class="cls-13" cx="235.02" cy="166.92" r="5.25"/><circle class="cls-14" cx="189.46" cy="212.49" r="5.25"/><circle class="cls-15" cx="244.46" cy="189.71" r="5.25"/><circle class="cls-16" cx="180.02" cy="189.71" r="5.25"/><circle class="cls-17" cx="235.02" cy="212.49" r="5.25"/><circle class="cls-18" cx="189.46" cy="166.93" r="5.25"/><path class="cls-19" d="M413.26,419.89l-35.52-35.52a15.46,15.46,0,0,1-2.86,3.81l-.76.76-.76.57-.28.48c-3,3.52-8.67,10-17.81,10a17.66,17.66,0,0,1-3.15-.29,4.71,4.71,0,0,0-1.33,2.76c0,.19-.09.38-.09.57l39.61,39.72a33.1,33.1,0,1,0,22.95-22.86Zm32.29,38L441,462.46l-1.72,6.38L433,470.46,428.31,475,422,473.41l-1,.29-5.24,1.42-4.67-4.66-6.28-1.72-1.72-6.28-4.57-4.57,1.72-6.29-1.72-6.38,4.67-4.57,1.62-6.29.09-.09,6.19-1.62,4.67-4.57L422,429.7l6.29-1.72,4.67,4.57,6.28,1.81,1.72,6.29,4.66,4.57-1.71,6.38Z"/><path class="cls-20" d="M313.36,331.42a15.92,15.92,0,0,0,1.34-1.14l.57-.86.47-.38a14,14,0,0,1,3.81-2.86l-34.76-34.76c-4.28-4.28-7.23-10.09-7.23-16.28a33.57,33.57,0,0,0-54.1-27l24.48,10a5.8,5.8,0,0,1,2.95,7.43L242.42,286a5.62,5.62,0,0,1-7.34,3.05L210.7,279a33.76,33.76,0,0,0,31.05,29.33c1.14.09,2.19.09,3.24.09,6.47-.09,12.85,1.91,17.52,6.48l38.38,38.38a.54.54,0,0,1,.38-.1,4.53,4.53,0,0,0,2.86-1.43C303.17,346.27,304.7,339.23,313.36,331.42Z"/><polygon class="cls-21" points="365.36 351.7 431.45 285.71 451.74 278.94 462.69 254.47 449.45 241.23 424.98 252.28 418.21 272.47 352.22 338.56 365.36 351.7"/><path class="cls-22" d="M364.78,378.1a4.79,4.79,0,0,0,0-6.75l-32.21-32.21a4.87,4.87,0,0,0-6.76,0c-2.59,3.49-10.51,7.41-6.41,12.48a18.59,18.59,0,0,1-16,15.63,15.69,15.69,0,0,0-8.59,4.66l-72.94,72.9a9.63,9.63,0,0,0-1.44,11.25c5.12,10,17.35,22.21,27.33,27.33A9.63,9.63,0,0,0,259.05,482L332,409a15.57,15.57,0,0,0,4.66-8.58,18.59,18.59,0,0,1,15.63-15.95C357.5,388.78,361.88,380.27,364.78,378.1Zm-130,77.45a4.78,4.78,0,0,1,0-6.75l62.48-62.44a4.78,4.78,0,0,1,6.76,6.75l-62.48,62.44A4.77,4.77,0,0,1,234.8,455.55Zm82.74-48.94-62.48,62.45a4.77,4.77,0,0,1-6.75-6.75l62.48-62.45a4.77,4.77,0,0,1,6.75,6.75Z"/></svg>