<svg id="Layer_1" data-name="Layer 1" xmlns="http://www.w3.org/2000/svg" xmlns:xlink="http://www.w3.org/1999/xlink" viewBox="0 0 512 512"><defs><style>.cls-1{fill:url(#linear-gradient);}</style><linearGradient id="linear-gradient" x1="256.32" y1="-45.64" x2="256.32" y2="430.15" gradientUnits="userSpaceOnUse"><stop offset="0" stop-color="#6db3e8"/><stop offset="1" stop-color="#2e93f0"/></linearGradient></defs><title>Auto Care  ICONS</title><path class="cls-1" d="M75.67,428.46c2.06,14.84,10.3,24.73,19,35.44a145.6,145.6,0,0,0,47,37.91,6.09,6.09,0,0,0,3.71.83H369.08a3.14,3.14,0,0,0,2.06-.83,157.4,157.4,0,0,0,47-37.91c8.65-10.3,16.48-20.6,18.95-35.44,3.3-21.84-5.77-54.81-30.49-61.4-2.48-23.08-4.12-39.15-4.54-48.22-.41-4.94-.82-10.3-1.64-15.24s-1.65-10.31-2.48-15.25q-.62-3.71-1.23-6.18v-.83c-4.54-19.78-5.36-51.92-2.48-95.19,1.24-17.31-4.53-34.62-15.24-46.15-8.25-8.66-18.55-13.6-29.67-13.6H305.2V109.5h11.13a24.5,24.5,0,0,0,18.54-8.24A17.34,17.34,0,0,0,338.58,86L324.16,25.43C322.1,16,312.62,9.36,301.9,9.36H212.48c-10.71,0-20.19,6.6-22.25,16.07L177,86a17.34,17.34,0,0,0,3.71,15.25c4.12,5.36,11.13,8.24,18.54,8.24h11.13v16.9h-40.8c-10.3.41-19.78,5.35-27.61,13.18-10.71,11.54-16.48,28-15.25,45.33,2.07,36.27,0,65.53-7,87.37l-.41,1.23c-.83,3.3-2.06,7-3.3,11.54-3.71,14-5.77,24.73-6.18,26.79-3.3,18.54-1.24,41.62,0,54h-1.24C81.85,372,72,406.21,75.67,428.46ZM107,453.6c-8.65-10.3-14-17.31-15.24-27.2-2.48-16.07,4.12-40.38,20.6-43.68,11.54-2.47,25.14,5.36,33,18.54v84.48A144.78,144.78,0,0,1,107,453.6Zm245.61,33H161.79V405.8a3.19,3.19,0,0,0,.83-2.06H352.18v82.83ZM185.69,259.5H328.28V387.66H185.69ZM420.59,426c-1.65,9.89-7,16.89-15.25,27.2a131.34,131.34,0,0,1-36.26,30.9V403.32c6.18-12.36,17.3-20.6,27.61-21,.82,0,1.23.41,2.06.41h1.65C416.05,385.19,423.06,410.74,420.59,426Zm-72.12-282.7c8.24,0,14,4.54,17.31,8.24,7.83,8.25,11.54,20.61,10.71,33.8-2.88,45.74-2.06,78.71,2.89,100.13v.83a44.23,44.23,0,0,1,1.23,5.77c.83,4.53,1.65,9.48,2.48,14a80.86,80.86,0,0,1,1.23,14c.42,8.65,2.06,24.73,4.54,46.57-11.13,2.47-22.26,9.89-30.09,21H344.35V143.29Zm-155-51.92a3.24,3.24,0,0,1-.41-1.24L206.3,29.55c.41-1.23,2.47-3.29,6.18-3.29h89.84c3.71,0,5.77,1.65,6.18,3.29l13.19,60.58a2,2,0,0,1-.42,1.24c-.82,1.23-2.88,2.06-5.77,2.06H198.88A7.3,7.3,0,0,1,193.52,91.37Zm33,18.54h61v16.9h-61Zm102.2,33.38V243h-143V143.29ZM126.35,314.72c.41-2.06,2.06-12,5.77-25.13,1.24-4.54,2.47-7.83,2.89-10.31l.41-1.23c7-23.9,9.89-55.22,7.42-93.14-.83-12.77,3.29-25.13,11.12-33.38,3.3-3.29,8.66-7.41,15.66-8.24v244H156.44c-7.83-10.71-18.14-17.72-29.68-20.6C125.53,356.34,123.47,332.86,126.35,314.72Z"/></svg>