<svg id="Layer_1" data-name="Layer 1" xmlns="http://www.w3.org/2000/svg" xmlns:xlink="http://www.w3.org/1999/xlink" viewBox="0 0 512 512"><defs><style>.cls-1{fill:url(#linear-gradient);}</style><linearGradient id="linear-gradient" x1="256.32" y1="3.38" x2="256.32" y2="481.5" gradientUnits="userSpaceOnUse"><stop offset="0" stop-color="#6db3e8"/><stop offset="1" stop-color="#2e93f0"/></linearGradient></defs><title>Auto Care  ICONS</title><path class="cls-1" d="M243.38,14a18.09,18.09,0,0,0-18.16,18.15V57.83c-34.1,6.16-61.36,22.28-73.11,42.86h-4.88a18.16,18.16,0,1,0,0,36.31H365.41a18.16,18.16,0,0,0,0-36.31h-4.88c-11.75-20.58-39-36.7-73.12-42.86V32.11A18.08,18.08,0,0,0,269.26,14ZM133.79,154.81a.78.78,0,0,0-.68.68c-.3,3.3-4.09,7.71-7.9,12.43s-7.6,9.76-7.39,15.13a16,16,0,0,0,31.93,0c.21-5.37-3.6-10.41-7.39-15.13s-7.6-9.13-7.9-12.43A.78.78,0,0,0,133.79,154.81Zm61.18,0a.77.77,0,0,0-.67.68c-.31,3.3-4.1,7.71-7.9,12.43s-7.44,9.76-7.23,15.13a15.89,15.89,0,0,0,31.77,0c.2-5.37-3.44-10.41-7.23-15.13s-7.76-9.13-8.07-12.43A.77.77,0,0,0,195,154.81Zm61.35,0a.77.77,0,0,0-.67.68c-.31,3.3-4.1,7.71-7.9,12.43s-7.6,9.76-7.4,15.13a16,16,0,0,0,31.94,0c.2-5.37-3.6-10.41-7.4-15.13s-7.59-9.13-7.9-12.43A.77.77,0,0,0,256.32,154.81Zm61.35,0a1,1,0,0,0-.84.68c-.31,3.3-4.1,7.71-7.9,12.43s-7.43,9.76-7.23,15.13a15.89,15.89,0,0,0,31.77,0c.21-5.37-3.43-10.41-7.23-15.13s-7.76-9.13-8.07-12.43C318.14,155.15,318,154.81,317.67,154.81Zm61.18,0a.78.78,0,0,0-.67.68c-.3,3.3-4.1,7.71-7.9,12.43s-7.6,9.76-7.39,15.13a16,16,0,0,0,31.93,0c.21-5.37-3.6-10.41-7.39-15.13s-7.6-9.13-7.9-12.43A.78.78,0,0,0,378.85,154.81Zm-275.66,71.1a.78.78,0,0,0-.67.68c-.3,3.3-4.1,7.71-7.9,12.43s-7.6,9.76-7.39,15.13a16,16,0,0,0,31.93,0c.21-5.37-3.6-10.41-7.39-15.13s-7.6-9.13-7.9-12.43A.78.78,0,0,0,103.19,225.91Zm61.19,0a.78.78,0,0,0-.68.68c-.3,3.3-4.09,7.71-7.9,12.43s-7.6,9.76-7.39,15.13a16,16,0,0,0,31.93,0c.21-5.37-3.6-10.41-7.39-15.13s-7.59-9.13-7.9-12.43A.77.77,0,0,0,164.38,225.91Zm61.35,0a.77.77,0,0,0-.67.68c-.31,3.3-4.1,7.71-7.9,12.43s-7.61,9.76-7.4,15.13a16,16,0,0,0,31.94,0c.2-5.37-3.6-10.41-7.4-15.13s-7.59-9.13-7.9-12.43A.77.77,0,0,0,225.73,225.91Zm61.18,0a.77.77,0,0,0-.67.68c-.31,3.3-4.1,7.71-7.9,12.43s-7.6,9.76-7.4,15.13a16,16,0,0,0,31.94,0c.2-5.37-3.6-10.41-7.4-15.13s-7.59-9.13-7.9-12.43A.77.77,0,0,0,286.91,225.91Zm61.35,0a.77.77,0,0,0-.67.68c-.31,3.3-4.1,7.71-7.9,12.43s-7.6,9.76-7.4,15.13a16,16,0,0,0,31.94,0c.21-5.37-3.6-10.41-7.4-15.13s-7.59-9.13-7.9-12.43A.77.77,0,0,0,348.26,225.91Zm61.18,0a.78.78,0,0,0-.67.68c-.3,3.3-4.1,7.71-7.9,12.43s-7.6,9.76-7.39,15.13a16,16,0,0,0,31.93,0c.21-5.37-3.6-10.41-7.39-15.13s-7.6-9.13-7.9-12.43A.78.78,0,0,0,409.44,225.91ZM183,291.13a26.78,26.78,0,0,0-21.85,11.43l-44.71,64.71c-7.85,11.43-12.1,16.08-12.1,29.92v54.29a13.33,13.33,0,0,0,13.28,13.45H395a13.33,13.33,0,0,0,13.28-13.45v-55c0-14.37-4.55-19.4-12.94-31.1l-45.56-63.36a26.93,26.93,0,0,0-21.68-10.93Zm-110.6,6.05a.63.63,0,0,0-.67.51c-.3,3.3-4.1,7.71-7.9,12.43s-7.6,9.93-7.39,15.3a16,16,0,0,0,31.93,0c.21-5.37-3.6-10.58-7.39-15.3s-7.6-9.13-7.9-12.43A.63.63,0,0,0,72.43,297.18Zm367.77,0c-.31,0-.8.17-.84.51-.3,3.3-4.09,7.71-7.9,12.43s-7.43,9.93-7.22,15.3a16,16,0,0,0,31.93,0c.21-5.37-3.6-10.58-7.39-15.3S441,301,440.71,297.69C440.68,297.35,440.52,297.18,440.2,297.18Zm-254,8.41H325.4a14.53,14.53,0,0,1,11.77,5.88l19.16,27.23a1.1,1.1,0,0,1,0,1.17,1.17,1.17,0,0,1-1,.68h-198a1.48,1.48,0,0,1-1.18-.68,1.14,1.14,0,0,1,.17-1.17c6.09-9,12-18.09,18.15-27.06A14.15,14.15,0,0,1,186.23,305.59ZM112.1,332.65a10.53,10.53,0,0,0-10.42,10.59,10.39,10.39,0,0,0,10.42,10.42h4l14.62-21Zm269.27,0,15.13,21h4A10.4,10.4,0,0,0,411,343.24a10.54,10.54,0,0,0-10.42-10.59Zm-223.88,54c15.92,0,28.91,6.5,28.91,14.46s-13,14.45-28.91,14.45-28.75-6.49-28.75-14.45S141.57,386.6,157.49,386.6Zm197.66,1.68c15.92,0,28.75,6.5,28.75,14.46s-12.83,14.45-28.75,14.45-28.91-6.49-28.91-14.45S339.23,388.28,355.15,388.28ZM139,473.17V484.6A13.46,13.46,0,0,0,152.44,498h22a13.32,13.32,0,0,0,13.28-13.44V473.17Zm185.9,0V484.6A13.32,13.32,0,0,0,338.18,498h22a13.46,13.46,0,0,0,13.44-13.44V473.17Z"/></svg>