<svg id="Layer_1" data-name="Layer 1" xmlns="http://www.w3.org/2000/svg" xmlns:xlink="http://www.w3.org/1999/xlink" viewBox="0 0 512 512"><defs><style>.cls-1{fill:url(#linear-gradient);}.cls-2{fill:url(#linear-gradient-2);}.cls-3{fill:url(#linear-gradient-3);}.cls-4{fill:url(#linear-gradient-4);}.cls-5{fill:url(#linear-gradient-5);}.cls-6{fill:url(#linear-gradient-6);}.cls-7{fill:url(#linear-gradient-7);}.cls-8{fill:url(#linear-gradient-8);}.cls-9{fill:url(#linear-gradient-9);}.cls-10{fill:url(#linear-gradient-10);}.cls-11{fill:url(#linear-gradient-11);}.cls-12{fill:url(#linear-gradient-12);}</style><linearGradient id="linear-gradient" x1="219.56" y1="-27.26" x2="219.56" y2="466.36" gradientUnits="userSpaceOnUse"><stop offset="0" stop-color="#6db3e8"/><stop offset="1" stop-color="#2e93f0"/></linearGradient><linearGradient id="linear-gradient-2" x1="352.87" y1="-27.26" x2="352.87" y2="466.36" xlink:href="#linear-gradient"/><linearGradient id="linear-gradient-3" x1="367.13" y1="-27.26" x2="367.13" y2="466.36" xlink:href="#linear-gradient"/><linearGradient id="linear-gradient-4" x1="315.39" y1="-27.26" x2="315.39" y2="466.36" xlink:href="#linear-gradient"/><linearGradient id="linear-gradient-5" x1="388" y1="-27.26" x2="388" y2="466.36" xlink:href="#linear-gradient"/><linearGradient id="linear-gradient-6" x1="315.79" y1="-27.26" x2="315.79" y2="466.36" xlink:href="#linear-gradient"/><linearGradient id="linear-gradient-7" x1="387.89" y1="-27.26" x2="387.89" y2="466.36" xlink:href="#linear-gradient"/><linearGradient id="linear-gradient-8" x1="400.72" y1="-27.26" x2="400.72" y2="466.36" xlink:href="#linear-gradient"/><linearGradient id="linear-gradient-9" x1="354.56" y1="-27.26" x2="354.56" y2="466.36" xlink:href="#linear-gradient"/><linearGradient id="linear-gradient-10" x1="323.83" y1="-27.26" x2="323.83" y2="466.36" xlink:href="#linear-gradient"/><linearGradient id="linear-gradient-11" x1="287.72" y1="-27.26" x2="287.72" y2="466.36" xlink:href="#linear-gradient"/><linearGradient id="linear-gradient-12" x1="305.86" y1="-27.26" x2="305.86" y2="466.36" xlink:href="#linear-gradient"/></defs><title>Auto Care  ICONS</title><path class="cls-1" d="M240,304.4l-5.1.32V354.8h7.46c2.17,0,1.61-1.7,1.61-2.87q0-19,0-38.09v-4.77c3.81,3.32,6.88,5.77,6.6,11.14-.53,10.25-.15,20.55-.15,30.83v3.52h9.43V324c4,2.47,7,4.47,6.54,9.69-.59,6.88-.15,13.84-.15,21h9.28V335.68c5.36,1.14,6.6,2.64,6.6,7.61V354.6h9.3V344.18c7.46.2,7,5.3,6.52,10.4h9.13l.48-4.81c2.42,1.56,6.31.13,6.52,4.69a3,3,0,0,0,1.05.3c8.36-.85,16.57.77,24.85,1.4,29.22,2.24,56.4-4.39,81.72-19,.61-.35,1.21-.71,1.84-1a4.54,4.54,0,0,1,1.08-.09v3.14c.05,19.05,0,38.09.18,57.14a43.68,43.68,0,0,1-6.37,23.88,14.61,14.61,0,0,0-1.81,7.15c-.22,11.49-.13,23-.2,34.47a46.16,46.16,0,0,1-.37,6.33c-1.28,8.68-7.16,14.21-15.93,14.45-9.87.27-19.75.23-29.62.1-11.07-.15-17.63-6.63-17.88-17.75-.22-9.87-.09-19.75-.12-29.63v-3.88H87.12c0,1.25,0,2.43,0,3.61-.17,10.47-.12,21-.66,31.41a23.36,23.36,0,0,1-3,9.35A12.44,12.44,0,0,1,72,482.56c-11.49.1-23,.18-34.46,0-7.37-.13-13.4-6.1-14.52-13.83a42.08,42.08,0,0,1-.34-5.73c-.07-11.89.07-23.78-.24-35.67a24.79,24.79,0,0,0-2.34-9.5c-2.7-5.86-4.68-11.81-4.68-18.29,0-35,.21-69.94.08-104.91-.07-16.15,6.17-28.87,19-38.46.71-.53,1.35-1.17,2.35-2-4.46-2-8.64-3.89-12.79-5.81-9.9-4.59-13-18.74-6.09-27.23a11.12,11.12,0,0,1,8.84-3.91c8.16-.13,16.33-.19,24.49,0,5.92.15,7.84,2.29,8,8.26.11,3.52,0,7.06.19,10.57.07,1.1,1,3.07,1.43,3.06a9.86,9.86,0,0,0,4.24-1.43c.59-.32.84-1.33,1.15-2.07q10.13-24.42,20.22-48.84c2.73-6.6,5.3-13.27,8-19.89,4.92-12.12,13.74-18.29,27-19.38,23.89-2,47.71-4.75,71.57-7,4.25-.41,8.57-.06,13-.06-.86,3.47-1.62,7-2.69,10.44-.21.67-1.6,1.34-2.49,1.4-15.07,1.1-30.16,1.91-45.22,3.17-10.83.91-21.63,2.29-32.43,3.65a19.82,19.82,0,0,0-16,11.59c-3.45,7.15-6.18,14.64-9.32,21.94-5.17,12-10.48,24-15.57,36a52.14,52.14,0,0,0-2.94,9.82c-1.14,5.62,1.36,9.19,7.09,9.56,6,.39,12.07.15,18.11.06q49.89-.75,99.76-1.62c2.56,0,3.62.73,4.44,3.12A166,166,0,0,0,238.25,302C238.79,302.65,239.27,303.36,240,304.4ZM77.46,343c9.47,0,18.93,0,28.4,0,4.36,0,5.06-.76,5-5.17,0-7.25-.06-14.5,0-21.75s-2-9.85-9.27-10.14c-17-.66-34-.95-51-1.17-4.85-.07-6.89,2.18-7,7.14-.27,8.36-.34,16.71-.46,25.07-.06,5,1,6,6,6C58.53,343,68,343,77.46,343Zm57.88-38.15v49.79h9V304.8Zm82.77,49.78h9.07V304.84h-9.07Zm-40.6.06c.06-1.14.16-2.12.16-3.1,0-5,0-10.08,0-15.12,0-9.68,0-19.35-.07-29,0-.93-.79-2.59-1.36-2.65a69.21,69.21,0,0,0-7.78-.13v50Zm-58.73-49.92v49.92h9V304.72Zm42,49.91v-49.8h-8.87v49.8Zm24.28-49.91v49.92H194V304.72Zm25.43-.14c-2.16,0-4.07.15-5.94,0-2.49-.25-3.26.63-3.24,3.17.12,14.7,0,29.39.07,44.09,0,.95.13,1.9.21,2.83h8.9ZM59.79,395.19c0,6.73,5.16,12.28,11.21,12.15s10.86-5.42,10.87-12.14c0-7-4.73-12.12-11.11-12C64.64,383.27,59.74,388.63,59.79,395.19Zm51.11,0c0-6.87-4.51-12-10.77-12.08-6.09-.09-11.3,5.26-11.38,11.67-.09,6.69,4.87,12.36,10.93,12.5S110.85,402,110.9,395.19ZM381.75,395c-.06-6.8-4.83-11.88-11.12-11.84s-10.94,5.13-10.91,12,4.87,12.14,10.91,12.16S381.82,401.75,381.75,395Zm-51.49,0c-.05,6.69,4.74,12.17,10.78,12.31s11.14-5.26,11.22-11.86c.09-7-4.59-12.25-10.95-12.3S330.31,388.16,330.26,395Zm-109.43-2.72q49.11,0,98.21,0a18,18,0,0,0,4-.92,16.22,16.22,0,0,0-3.93-1q-98.2-.08-196.43-.05a6.75,6.75,0,0,0-1.8,0,15.1,15.1,0,0,0-2.2.93,11.74,11.74,0,0,0,2.12,1,8.65,8.65,0,0,0,2.1,0Zm-.05,1.9q-49.28,0-98.54,0a13.64,13.64,0,0,0-3.56,1,14,14,0,0,0,3.44.88q98.69.08,197.38,0a6,6,0,0,0,1.8,0,8.6,8.6,0,0,0,1.75-1.06,6.42,6.42,0,0,0-1.62-.84,13,13,0,0,0-2.42,0Zm.06,6q49.11,0,98.22,0a17.93,17.93,0,0,0,4-.92,16.21,16.21,0,0,0-3.94-1q-93.22-.07-186.47-.05c-3.83,0-7.66-.05-11.49.05a8.17,8.17,0,0,0-2.48.95,16.31,16.31,0,0,0,2.43,1,9.26,9.26,0,0,0,2.11,0Zm-102.37,3,.26.9h3.74q98.39,0,196.75,0a14.86,14.86,0,0,0,3.82-1.06,17.68,17.68,0,0,0-3.78-.83q-98.37-.06-196.74,0a14.49,14.49,0,0,0-2.72.06C119.31,402.22,118.91,402.78,118.47,403.13Z"/><path class="cls-2" d="M357,347.9c-50.31-1.3-87.17-20.85-115.37-56.91-20.21-25.86-31.16-55.54-33.67-88.22-3.39-44,7.63-84,35.13-118.8,23-29,52.62-47.73,89.54-53.14,44-6.45,82.42,6.51,114.73,36.68C477,95.2,493.13,130,497.32,170.12c4.35,41.77-4.87,80.4-29,115-20.94,30.05-49,50.42-85,58.87C373.46,346.29,363.14,347,357,347.9ZM217.18,192.14c.61,6,1,14.91,2.48,23.62,6.13,36.5,22.6,67.44,51.11,91.36,26.57,22.3,57.39,32.81,92.1,29.9,40-3.34,71.39-22.56,95.05-54.38s32.88-67.8,29.64-107.06c-2.9-35.2-16-66.2-40.15-92.12-22.57-24.21-50.31-38.77-83.48-41.67-35.62-3.12-67.23,7.49-94.17,30.76C234.27,103.21,218.39,143,217.18,192.14Z"/><path class="cls-3" d="M262.73,103.13c7.73-1.71,15.41-3.63,23.18-5.09,21.81-4.1,43.75-5.8,65.84-2.62,14.9,2.15,29.13,6.28,41.72,14.92a6.69,6.69,0,0,0,1.1.46l4.07-6.22c24.33,17.91,48.47,35.68,72.89,53.64L422.46,238l-15.31-11.25,3.65-5.89,9.88,7.18,41.75-67.88-62-45.67c-13.94,22.65-27.74,45.1-41.77,67.9L372,192.31l-3.61,5.91-18.79-13.84c2.52-4.15,4.94-8.17,7.68-12.7-16.63-10.19-35.26-12.74-53.74-15.94,19.86-.61,39.58-.18,58.6,8.08l26.84-43.64c-2.53-1.94-4.92-4.06-7.59-5.75-11-7-23.33-10.3-36-12.34-22.27-3.58-44.58-2.76-66.89-.3-5.2.57-10.38,1.26-15.57,1.89Z"/><path class="cls-4" d="M285.57,249.74c19.9,7.32,39.67,6.86,59.65,0,.06,1.35.13,2.32.14,3.29,0,13.2-.08,26.4.15,39.59.11,5.81-2.28,9.95-7.09,12.71-11.05,6.35-22.9,7.53-35,4.27a52.75,52.75,0,0,1-13-6c-3.23-1.92-4.8-5.36-4.83-9.27q-.15-21.6-.26-43.21A7.81,7.81,0,0,1,285.57,249.74Zm12.29,20.6c0,4.75.13,9.85-.06,14.94-.09,2.25.87,3.29,2.77,4,10.2,3.75,20.31,3.2,30.33-.62.72-.27,1.69-1.15,1.71-1.76.13-5.5.08-11,.08-16.26-6,.65-11.65,1.79-17.31,1.75S304.07,271.11,297.86,270.34Z"/><path class="cls-5" d="M354.25,270.61a192.44,192.44,0,0,0,67,0c.11,1.3.27,2.35.28,3.39.06,6.45-.11,12.9.18,19.34.16,3.63-1.35,5.92-4.49,7a76.16,76.16,0,0,1-12.5,3.35,104.3,104.3,0,0,1-40.21-1.29,34.57,34.57,0,0,1-3.47-1c-6-2.14-6.81-3.3-6.81-9.63Z"/><path class="cls-6" d="M315.1,224.31c9-.35,17.9.43,26.43,3.56,7.33,2.7,9.72,7.42,7.6,15-.95,3.36-4.06,4.54-6.86,5.33a96.07,96.07,0,0,1-53.6,0c-3.8-1.1-6.53-3.31-6.85-7.78-.35-4.79,0-8.84,5-11.45,5.91-3,12.19-4,18.61-4.56C308.65,224.09,311.89,224.31,315.1,224.31Zm29.23,11.15a150,150,0,0,1-57.93,0A100.69,100.69,0,0,0,344.33,235.46Z"/><path class="cls-7" d="M387.77,272.39c-9.93-.87-19.86-1.71-29.78-2.66a30.25,30.25,0,0,1-5-1.21c-2.47-.68-3.17-2.59-3.21-4.88a3.59,3.59,0,0,1,3.28-3.75c6.21-1.17,12.42-2.68,18.7-3.12,15.6-1.1,31.22-1,46.68,1.86a39.16,39.16,0,0,1,4.37,1.18c2.37.73,3.17,2.37,3.13,4.84a3.54,3.54,0,0,1-3.35,3.89c-6.36,1-12.71,2-19.11,2.7-5.2.53-10.46.54-15.69.78Zm22.83-8v-.5H365.47v.5Z"/><path class="cls-8" d="M423.24,182.94c5.09,2.84,6.29,6.61,3.16,11.33-5.33,8-10.66,16.13-16.67,23.65-2.65,3.31-6.77,5.68-10.6,7.75s-8,1.55-11.6-1.35a89.23,89.23,0,0,0-8.54-6.24A11.44,11.44,0,0,1,373.33,208a132.62,132.62,0,0,1,.95-15.93c.62-5.6,1.56-11.18,2.64-16.71a14.85,14.85,0,0,1,2.49-5.68,5,5,0,0,1,5.92-1.89,5.17,5.17,0,0,1,3.5,5.45,79.35,79.35,0,0,0-.21,8.93c1.25-2,2.51-3.95,3.73-5.94,2.81-4.54,5.54-9.13,8.4-13.64,3.17-5,7.14-5.17,10.84-.62,6.82-1.79,9.06-.17,9.42,6.82C427.31,171.87,427.7,174.19,423.24,182.94ZM376,199.51c-.17,11.19.49,12.51,7.08,17.37,2.11,1.55,4.27,3,6.32,4.66,2.73,2.18,5.8,2.67,8.75,1.05a43.28,43.28,0,0,0,8.86-6.15c7.46-7,12.09-16,17.39-24.57a2.17,2.17,0,0,0,.44-1.41c-.35-1.16-.64-2.79-1.47-3.23s-2.34.31-3.38.85c-.62.33-.93,1.28-1.35,2-2.11,3.43-4.14,6.92-6.37,10.27-.55.82-1.75,1.21-2.66,1.8.07-1.15.1-2.31.24-3.45,0-.36.4-.69.61-1q5.94-9.65,11.87-19.3c1.09-1.78,1.61-3.77-.41-5.09s-3.51.21-4.59,2q-5,8.1-10,16.21a6,6,0,0,1-1.16,1.74,6.78,6.78,0,0,1-2,.72,6,6,0,0,1-.37-2.15,7.23,7.23,0,0,1,1.16-2.09q5.93-9.66,11.87-19.3c1.14-1.86,1.88-3.93-.35-5.31-2.39-1.48-3.62.51-4.71,2.29-4,6.51-8,13.06-12.08,19.52-.53.83-1.76,1.21-2.66,1.8.06-1.14-.27-2.5.24-3.38,3.25-5.57,6.68-11,10-16.52,1.24-2,2.78-4.37.09-6.07s-3.84,1-5,2.81C398,172.65,393.59,179.89,389,187c-.59.92-2,1.31-3.07,1.94-.45-1.12-1.33-2.26-1.28-3.37.14-3.41.63-6.81,1-10.21.2-1.76.37-3.74-1.81-4.2-2.35-.5-3.59,1.29-3.92,3.28C378.4,183.78,377,193.13,376,199.51Z"/><path class="cls-9" d="M347.39,136.79c4.15-2,5.65-5,5.39-9.46,1.91,3.62,4.22,6.35,9,5.94-4,2.08-6,5-5.44,9.59C354.33,139.11,352.08,136.42,347.39,136.79Z"/><path class="cls-10" d="M330.22,77.86c-3.9,1.17-5.66,3.55-6.13,7.26-1.14-3.27-2.39-6.13-6.64-6.4,3.87-1.11,5.49-3.56,6-7.24C324.57,74.85,325.85,77.75,330.22,77.86Z"/><path class="cls-11" d="M283.32,128.64l3.09-7.32c1.11,1.87,2.89,3.86,5.72,2.93l-3.2,7.2C287.75,129.64,285.93,127.77,283.32,128.64Z"/><path class="cls-12" d="M302.38,174.07l2.7-4.62,4.25,2.93-2.61,4.67Z"/></svg>