<svg id="Layer_1" data-name="Layer 1" xmlns="http://www.w3.org/2000/svg" xmlns:xlink="http://www.w3.org/1999/xlink" viewBox="0 0 512 512"><defs><style>.cls-1,.cls-2,.cls-3,.cls-4,.cls-5,.cls-8{fill-rule:evenodd;}.cls-1{fill:url(#linear-gradient);}.cls-2{fill:url(#linear-gradient-2);}.cls-3{fill:url(#linear-gradient-3);}.cls-4{fill:url(#linear-gradient-4);}.cls-5{fill:url(#linear-gradient-6);}.cls-6{fill:url(#linear-gradient-8);}.cls-7{fill:url(#linear-gradient-9);}.cls-8,.cls-9{fill:url(#linear-gradient-11);}.cls-10{fill:url(#linear-gradient-13);}</style><linearGradient id="linear-gradient" x1="470.79" y1="34.02" x2="470.79" y2="423.43" gradientUnits="userSpaceOnUse"><stop offset="0" stop-color="#6db3e8"/><stop offset="1" stop-color="#2e93f0"/></linearGradient><linearGradient id="linear-gradient-2" x1="38.02" y1="34.02" x2="38.02" y2="423.43" xlink:href="#linear-gradient"/><linearGradient id="linear-gradient-3" x1="250.86" y1="34.02" x2="250.86" y2="423.43" xlink:href="#linear-gradient"/><linearGradient id="linear-gradient-4" x1="256.32" y1="34.02" x2="256.32" y2="423.43" xlink:href="#linear-gradient"/><linearGradient id="linear-gradient-6" x1="133.77" y1="34.02" x2="133.77" y2="423.43" xlink:href="#linear-gradient"/><linearGradient id="linear-gradient-8" x1="133.75" y1="34.02" x2="133.75" y2="423.43" xlink:href="#linear-gradient"/><linearGradient id="linear-gradient-9" x1="141.42" y1="34.02" x2="141.42" y2="423.43" xlink:href="#linear-gradient"/><linearGradient id="linear-gradient-11" x1="367.37" y1="34.02" x2="367.37" y2="423.43" xlink:href="#linear-gradient"/><linearGradient id="linear-gradient-13" x1="374.95" y1="34.02" x2="374.95" y2="423.43" xlink:href="#linear-gradient"/></defs><title>Auto Care  ICONS</title><path class="cls-1" d="M493.77,359.3a38.42,38.42,0,0,1-38.3,38.3h-7.66V382.28h7.66a22.86,22.86,0,0,0,23-23V144.84a22.87,22.87,0,0,0-23-23h-7.66V106.54h7.66a38.41,38.41,0,0,1,38.3,38.3Z"/><path class="cls-2" d="M57.17,397.6H49.51A30.76,30.76,0,0,1,18.87,367V137.17a30.75,30.75,0,0,1,30.64-30.63h7.66v15.31H49.51a15.21,15.21,0,0,0-15.32,15.32V367a15.21,15.21,0,0,0,15.32,15.32h7.66Z"/><path class="cls-3" d="M170.43,244.41v15.32H331.28V244.41Z"/><path class="cls-4" d="M294.62,121.86H218V106.54h76.6Z"/><path class="cls-4" d="M294.62,399.19H218V383.87h76.6Z"/><path class="cls-5" d="M141.43,319.09H126.11V284.62h15.32Z"/><path class="cls-5" d="M141.43,220.77H126.11V186.3h15.32Z"/><path class="cls-6" d="M133.75,275.05a23,23,0,0,1-23-23h0a23,23,0,0,1,23-23h0a23,23,0,0,1,23,23h0a23,23,0,0,1-23,23Z"/><path class="cls-7" d="M103.11,328.56a15.3,15.3,0,0,0-15.32,15.32v30.64a15.29,15.29,0,0,0,15.32,15.32h6.7L104,378.17A7.66,7.66,0,0,1,110.17,367H111a7.68,7.68,0,0,1,6.74,4.34l7.54,15.11a7.74,7.74,0,0,1,.81,3.41h14.42l-5.84-11.67a7.66,7.66,0,0,1,6.2-11.19,5.08,5.08,0,0,1,.78,0,7.66,7.66,0,0,1,6.73,4.33l7.54,15.11a7.64,7.64,0,0,1,.81,3.41H171.1l-5.83-11.66a7.66,7.66,0,0,1,3.23-10.34,7.36,7.36,0,0,1,3-.85,5.08,5.08,0,0,1,.78,0,7.66,7.66,0,0,1,6.73,4.33l7.54,15.11a7.73,7.73,0,0,1,.51,1.31,15.09,15.09,0,0,0,8-13.22V343.87a15.08,15.08,0,0,0-7.93-13.16,8.29,8.29,0,0,1-.6,1.49L179,347.31a7.66,7.66,0,0,1-13.84-6.57l.14-.28,5.95-11.91H156.74a7.63,7.63,0,0,1-.87,3.66l-7.54,15.11a7.66,7.66,0,0,1-13.7-6.86l6-11.91H126.1a7.63,7.63,0,0,1-.87,3.66l-7.54,15.11A7.66,7.66,0,0,1,104,340.47l6-11.91Z"/><path class="cls-7" d="M103.11,114.1a15.29,15.29,0,0,0-15.32,15.32v30.63a15.29,15.29,0,0,0,15.32,15.32h6.7L104,163.67a7.65,7.65,0,0,1,3.28-10.32,7.8,7.8,0,0,1,2.91-.84H111a7.68,7.68,0,0,1,6.74,4.34L125.23,172a7.77,7.77,0,0,1,.81,3.41h14.42l-5.84-11.7a7.65,7.65,0,0,1,6.2-11.16h.78a7.65,7.65,0,0,1,6.73,4.34L155.87,172a7.57,7.57,0,0,1,.81,3.41H171.1l-5.83-11.7a7.66,7.66,0,0,1,3.28-10.33,7.56,7.56,0,0,1,2.91-.83,5.08,5.08,0,0,1,.78,0,7.66,7.66,0,0,1,6.73,4.33L186.51,172a7.51,7.51,0,0,1,.51,1.32A15.12,15.12,0,0,0,195,160V129.4a15.1,15.1,0,0,0-8-13.19,7.65,7.65,0,0,1-.57,1.49L179,132.84a7.66,7.66,0,1,1-13.7-6.85l5.95-11.91H156.71a7.71,7.71,0,0,1-.84,3.62l-7.54,15.14a7.66,7.66,0,1,1-13.82-6.61l.12-.24,6-11.9H126.07a7.67,7.67,0,0,1-.84,3.61l-7.54,15.14A7.66,7.66,0,1,1,104,126l6-11.91Z"/><path class="cls-8" d="M375,319.09H359.71V284.62H375Z"/><path class="cls-9" d="M367.37,275.05a23,23,0,0,1-23-23h0a23,23,0,0,1,23-23h0a23,23,0,0,1,23,23h0a23,23,0,0,1-23,23Z"/><path class="cls-10" d="M400.73,95.16A7.55,7.55,0,0,1,401,96.8l1,16.94a7.66,7.66,0,0,1-15.28,1.11.86.86,0,0,0,0-.16l-.84-13.43-13.07,7.42a7.7,7.7,0,0,1,1,3.53l1,16.93a7.66,7.66,0,1,1-15.27,1.22,2.83,2.83,0,0,1,0-.29l-.84-13.43-13.08,7.42a7.55,7.55,0,0,1,1,3.5l1,16.93a7.66,7.66,0,0,1-15.28,1.23c0-.09,0-.18,0-.27L331.63,132l-6.46,3.68a15,15,0,0,0-5.47,20.79l15.7,26.69a15.59,15.59,0,0,0,21.07,5.75l6.28-3.56-11.07-7.15A7.67,7.67,0,1,1,360,165.32l14.39,9.36a7.64,7.64,0,0,1,2.66,2.55L389.86,170l-11.07-7.18A7.66,7.66,0,1,1,387.14,150l14.39,9.33a7.64,7.64,0,0,1,2.51,2.64L417,154.61l-11.07-7.15a7.67,7.67,0,1,1,8.34-12.87l14.43,9.33A7.71,7.71,0,0,1,430,145a14.87,14.87,0,0,0,.32-15.62l-15.7-26.69a15.56,15.56,0,0,0-13.89-7.54Z"/><path class="cls-10" d="M400.73,321.11a7.64,7.64,0,0,1,.24,1.65l1,16.93a7.66,7.66,0,1,1-15.28,1.12.81.81,0,0,0,0-.16l-.84-13.43-13.07,7.42a7.67,7.67,0,0,1,1,3.53l1,16.93a7.66,7.66,0,1,1-15.27,1.21,2.64,2.64,0,0,1,0-.28l-.84-13.44L345.68,350a7.55,7.55,0,0,1,1,3.5l1,16.93a7.66,7.66,0,1,1-15.28,1.22c0-.08,0-.17,0-.26l-.85-13.47-6.46,3.69a15,15,0,0,0-5.47,20.79l15.7,26.69a15.58,15.58,0,0,0,21.07,5.74l6.28-3.56-11.07-7.15A7.67,7.67,0,1,1,360,391.28l14.39,9.36a7.61,7.61,0,0,1,2.66,2.54l12.78-7.24-11.07-7.18a7.66,7.66,0,1,1,8.35-12.84l14.39,9.34a7.61,7.61,0,0,1,2.51,2.63L417,380.56l-11.07-7.15a7.66,7.66,0,1,1,8.34-12.86l14.43,9.33A7.71,7.71,0,0,1,430,371a14.87,14.87,0,0,0,.32-15.62l-15.7-26.69a15.54,15.54,0,0,0-13.89-7.54Z"/><path class="cls-8" d="M375,220.77H359.71v-23H375Z"/></svg>