<svg id="Layer_1" data-name="Layer 1" xmlns="http://www.w3.org/2000/svg" xmlns:xlink="http://www.w3.org/1999/xlink" viewBox="0 0 512 512"><defs><style>.cls-1{fill:url(#linear-gradient);}.cls-2{fill:url(#linear-gradient-2);}</style><linearGradient id="linear-gradient" x1="328.73" y1="337.63" x2="426.78" y2="464.01" gradientUnits="userSpaceOnUse"><stop offset="0" stop-color="#e8e8e8"/><stop offset="1" stop-color="#e8e8e8" stop-opacity="0"/></linearGradient><linearGradient id="linear-gradient-2" x1="117.85" y1="256.32" x2="401.17" y2="256.32" gradientUnits="userSpaceOnUse"><stop offset="0" stop-color="#6db3e8"/><stop offset="1" stop-color="#2e93f0"/></linearGradient></defs><title>ICONS</title><polygon class="cls-1" points="125.23 357.33 308.23 515.04 515.81 515.04 515.81 296.75 328.05 154.25 256.92 156.57 193.34 160.4 168.83 203.3 158.87 226.28 132.83 241.6 125.23 357.33"/><path class="cls-2" d="M400,275.71a151,151,0,0,0-4.89-27.5,37.18,37.18,0,0,0-11.91-18c-5.39-4.62-11.64-7.91-17.81-11.29-3.17-1.75-5.73-3.77-7.05-7.38-2.85-7.79-6-15.48-9-23.2-.16-.39-.28-.84-.47-1.2-2.48-6.38-5.18-12.35-5.18-12.35-1.86-3.41-3.67-7-5.73-10.43-2.49-4.13-5.42-8-9.92-10.11-5.52-2.64-11.5-3.75-17.49-4.58-5.3-.74-10.67-1.21-16-1.42-9.71-.37-19.43-.45-29.14-.67a2.85,2.85,0,0,0-.29,0c-4.24,0-12.28.47-12.28.47q-15,1-30,2.18a264.47,264.47,0,0,0-28.7,3.75,15.33,15.33,0,0,0-10,6.14c-7.12,9.54-11.24,20.57-15.59,31.49-2.51,6.31-4.84,12.7-7.39,19-1.22,3-2.61,5.74-5.89,7.47a166.14,166.14,0,0,0-16.76,10.17A34.73,34.73,0,0,0,124.75,246c-1.17,3.51-2,7.15-2.83,10.77-.6,2.61-.92,5.28-1.37,7.92a85.13,85.13,0,0,0-1.5,12.29c-.26,3.35-.54,6.69-.72,10-.9,17.45-.68,34.86,1.9,52.19.92,6.24,2.13,12.41,5,18.11,1.54,3.07,3.51,5.77,6.44,6.89a12.16,12.16,0,0,0,3.73.56l0,.05h1.35l1,0c4.74,0,11.52.2,11.52.2,7.41,0,14.68.1,21.94,0a11.19,11.19,0,0,0,10-6.08,26.56,26.56,0,0,0,3.1-13.65c0-1.9.53-2.51,2.47-2.48,8.09.12,16.19.19,24.28.08a131.57,131.57,0,0,0,27-2.87,73,73,0,0,0,20-7.63,2.3,2.3,0,0,1,2.72,0,63.76,63.76,0,0,0,22.82,8.11c9.1,1.35,18.33,1.89,27.53,2.35,7.12.36,14.28.07,21.43,0,1.38,0,2,.33,2.07,1.88a76.43,76.43,0,0,0,1.19,9.55c1.23,6.23,5.88,10.66,11.74,10.72,12.32.14,24.64,0,37-.14,8,0,10.23-9.52,10.23-9.52l0,0A1.48,1.48,0,0,0,395,355c1.18-4.49,2.55-8.95,3.45-13.49,1.87-9.38,2.39-18.92,2.61-28.45A301.64,301.64,0,0,0,400,275.71ZM255.81,308.52a412,412,0,0,1-36.12-30.9c-4.36-4.17-8.78-8.33-12.71-12.9-8.61-10-7.58-23.66.55-33.43,5-6,11.32-10,19.23-10.89s14.65,1.88,20.36,7.16c4.16,3.85,8.09,7.95,12.13,11.93.26.26.55.49,1.1,1,3.15-3.22,6.13-6.52,9.39-9.53,2.94-2.7,5.92-5.53,9.35-7.49,9.21-5.25,18.32-4,26.92,1.7a29.21,29.21,0,0,1,12.17,16.12c2.65,8.61,1,16.65-4.77,23.38a165.67,165.67,0,0,1-15.63,15.61C287,289.79,276,299.05,265,308.35,260.56,312.1,260.47,312,255.81,308.52ZM385.33,308c-.4,9.9-1.4,19.77-2.23,29.64A23.56,23.56,0,0,1,382,342.8c-2,6.09-5.33,8.44-11.73,8.06-6.24-.38-12.47-1-18.7-1.41-1.53-.11-1.67-1-1.59-2.19.21-3.15.5-6.3.5-9.45a29.06,29.06,0,0,0-.75-5.78,4.49,4.49,0,0,0-3.79-3.77c-4.29-.65-8.6-1.28-12.92-1.54-6.37-.37-12.76-.42-19.14-.58-6-.09-11.43-.41-14.37-.62q-.59-.07-1.2-.12c-7.16-.49-14.3-1.44-21.12-3.93-.51-.19-1-.42-1.89-.8,2.51-2.08,4.75-3.95,7-5.79,11.83-9.59,23.3-19.61,34.12-30.33a109.62,109.62,0,0,0,11.93-13.31c6-8.26,8-17.8,6.47-27.87-2.29-15.46-10.76-26.76-24.31-34.22a38.26,38.26,0,0,0-22.44-4.8,45.06,45.06,0,0,0-25.62,11.43c-2.23,2-2.22,2-4.51,0-6.11-5.14-12.87-9-20.77-10.64-12-2.56-22.88.37-32.74,7.28a44.15,44.15,0,0,0-17.49,24c-4.63,15.71-1,29.75,10.29,41.54,12.07,12.6,25.21,24,38.66,35.15,2.48,2,5,4,7.56,5.95.49.39,1,.71,1.56,1.06-.09.34-.17.67-.26,1-3.38.86-6.72,1.9-10.14,2.56-15.67,3.05-31.58,2.36-47.41,3-4.21.17-8.41.68-12.59,1.19,0,0-5.43.12-5.83,4.56s-.2,13.39-.2,13.39c-.06,1.06.26,2.36-.25,3.09-.39.56-1.85.29-2.77.59,0,0-8.74.19-15.89.31l-.92-.05c-2.39-.07-4.79,0-7.19.08s-3.4-.78-3.83-3.06c-.81-4.26-1.9-8.53-2.2-12.84-.81-11.71-1.77-23.45-1.73-35.17,0-10.08,1.32-20.16,2.17-30.23.21-2.62.84-5.21,1.28-7.76.47-2,.95-3.74,1.4-5.31h0c.86-3,1.58-5.17,1.82-5.87a20.23,20.23,0,0,1,1.15-2c3.58-5.16,8.66-8.52,14-11.57,2.89-1.67,5.78-3.33,8.74-4.86,4.74-2.46,7.65-6.57,9.74-11.19,3.26-7.22,6.12-14.62,9.19-21.92,3.33-7.93,6.77-15.82,10.07-23.76,2.08-5,6.12-6.3,11-6.6,11.35-.69,22.67-1.83,34-2.34q24-1.08,48.12-1.46a187.45,187.45,0,0,1,18.93.94,103.65,103.65,0,0,1,11.16,1.91,12.29,12.29,0,0,1,8.94,7.19c2.81,5.89,5.5,11.86,7.93,17.91,4,10,7.3,20.37,12.45,30a26.14,26.14,0,0,0,11.6,10.93c5.58,2.88,11.11,5.9,15.81,10.17,3.63,3.31,5.34,6.79,6.95,12.19.16.51.38,1,.48,1.27,0,0,1.23,4.22,1.82,7.73.24,2.1.67,4.41.8,6.32.38,5.66,1.12,11.31,1.42,17C385.16,294.23,385.61,301.14,385.33,308Z"/></svg>