<svg id="Layer_1" data-name="Layer 1" xmlns="http://www.w3.org/2000/svg" xmlns:xlink="http://www.w3.org/1999/xlink" viewBox="0 0 512 512"><defs><style>.cls-1{fill:url(#linear-gradient);}.cls-2{fill:url(#linear-gradient-2);}.cls-3{fill:url(#linear-gradient-3);}.cls-4{fill:url(#linear-gradient-4);}.cls-5{fill:url(#linear-gradient-5);}.cls-6{fill:url(#linear-gradient-6);}.cls-7{fill:url(#linear-gradient-7);}.cls-8{fill:url(#linear-gradient-8);}.cls-9{fill:url(#linear-gradient-9);}.cls-10{fill:url(#linear-gradient-10);}.cls-11{fill:url(#linear-gradient-11);}.cls-12{fill:url(#linear-gradient-12);}.cls-13{fill:url(#linear-gradient-13);}.cls-14{fill:url(#linear-gradient-14);}.cls-15{fill:url(#linear-gradient-15);}.cls-16{fill:url(#linear-gradient-16);}.cls-17{fill:url(#linear-gradient-17);}.cls-18{fill:url(#linear-gradient-18);}.cls-19{fill:url(#linear-gradient-19);}.cls-20{fill:url(#linear-gradient-20);}</style><linearGradient id="linear-gradient" x1="309" y1="341.17" x2="409.63" y2="441.8" gradientUnits="userSpaceOnUse"><stop offset="0" stop-color="#e8e8e8"/><stop offset="1" stop-color="#e8e8e8" stop-opacity="0"/></linearGradient><linearGradient id="linear-gradient-2" x1="260.79" y1="104.49" x2="260.79" y2="374.11" gradientUnits="userSpaceOnUse"><stop offset="0" stop-color="#ffe266"/><stop offset="0.79" stop-color="#fcdc39"/></linearGradient><linearGradient id="linear-gradient-3" x1="242.54" y1="104.49" x2="242.54" y2="374.11" xlink:href="#linear-gradient-2"/><linearGradient id="linear-gradient-4" x1="176.91" y1="104.49" x2="176.91" y2="374.11" xlink:href="#linear-gradient-2"/><linearGradient id="linear-gradient-5" x1="243.58" y1="104.49" x2="243.58" y2="374.11" xlink:href="#linear-gradient-2"/><linearGradient id="linear-gradient-6" x1="176.89" y1="104.49" x2="176.89" y2="374.11" xlink:href="#linear-gradient-2"/><linearGradient id="linear-gradient-7" x1="200.09" y1="104.49" x2="200.09" y2="374.11" xlink:href="#linear-gradient-2"/><linearGradient id="linear-gradient-8" x1="243.59" y1="104.49" x2="243.59" y2="374.11" xlink:href="#linear-gradient-2"/><linearGradient id="linear-gradient-9" x1="176.86" y1="104.49" x2="176.86" y2="374.11" xlink:href="#linear-gradient-2"/><linearGradient id="linear-gradient-10" x1="307.79" y1="104.49" x2="307.79" y2="374.11" xlink:href="#linear-gradient-2"/><linearGradient id="linear-gradient-11" x1="307.83" y1="104.49" x2="307.83" y2="374.11" xlink:href="#linear-gradient-2"/><linearGradient id="linear-gradient-12" x1="307.89" y1="104.49" x2="307.89" y2="374.11" xlink:href="#linear-gradient-2"/><linearGradient id="linear-gradient-13" x1="287.36" y1="104.49" x2="287.36" y2="374.11" xlink:href="#linear-gradient-2"/><linearGradient id="linear-gradient-14" x1="264.23" y1="104.49" x2="264.23" y2="374.11" xlink:href="#linear-gradient-2"/><linearGradient id="linear-gradient-15" x1="264.24" y1="104.49" x2="264.24" y2="374.11" xlink:href="#linear-gradient-2"/><linearGradient id="linear-gradient-16" x1="199.98" y1="104.49" x2="199.98" y2="374.11" xlink:href="#linear-gradient-2"/><linearGradient id="linear-gradient-17" x1="287.32" y1="104.49" x2="287.32" y2="374.11" xlink:href="#linear-gradient-2"/><linearGradient id="linear-gradient-18" x1="220.45" y1="104.49" x2="220.45" y2="374.11" xlink:href="#linear-gradient-2"/><linearGradient id="linear-gradient-19" x1="220.47" y1="104.49" x2="220.47" y2="374.11" xlink:href="#linear-gradient-2"/><linearGradient id="linear-gradient-20" x1="332.88" y1="104.49" x2="332.88" y2="374.11" xlink:href="#linear-gradient-2"/></defs><title>ICONS</title><polygon class="cls-1" points="156.43 365.75 292.15 515.81 515.81 515.81 515.81 356.49 356.84 212.04 319.72 191.04 254.78 128.59 233.94 125.17 224.75 132.83 224.75 156.57 217.64 152.91 213.31 156.94 219.89 163.04 220.57 168.83 222.89 174.45 226.7 186.87 235.89 199.13 229.77 213.43 203.21 221.94 187.89 243.38 193.68 251.89 156.31 266.67 178.02 297.17 156.48 316.88 179.04 349.6 156.43 365.75"/><path class="cls-2" d="M301,230.74c4.69-5.57,9.12-11,13.69-16.21a17.47,17.47,0,0,1,4.66-4A9.61,9.61,0,0,1,331.68,213a10.47,10.47,0,0,1-.11,12.55c-4.62,5.66-9.35,11.24-14.13,16.77a4.06,4.06,0,0,1-2.72,1.26q-13.83.15-27.67,0a4.16,4.16,0,0,1-2.68-1.35c-2.56-2.83-5.08-5.71-7.39-8.75a4.52,4.52,0,0,0-5.55-1.84v36.23H213.75V231.59H208v36.33h-7.82V243.7c-3.31,0-6.35-.14-9.37,0-2.25.14-3.08-.49-2.95-2.86.33-6.13-.1-12.35.72-18.4,1.86-13.61,14.1-24.12,27.87-24.25,14.71-.14,29.43-.16,44.14.05a27.52,27.52,0,0,1,20.68,9.55c6.1,6.8,11.93,13.84,17.87,20.78C299.68,229.24,300.23,229.86,301,230.74Z"/><path class="cls-3" d="M222.89,174.45c-3.93-.55-3.93-.55-4-4.21a2.68,2.68,0,0,1,0-.49c.54-3.46-.2-6.32-3.49-8.18a4.7,4.7,0,0,1-1.8-2,8.81,8.81,0,0,1-.34-2.61c.78.23,1.77.23,2.29.72A25.7,25.7,0,0,0,230,164.57a15.19,15.19,0,0,0,3.23.16c.43,0,.84-.55,1.25-.84-.38-.34-.73-.9-1.16-1-1.63-.29-3.32-.29-4.93-.64a22.38,22.38,0,0,1-11.21-6.11c-1.64-1.64-1.59-2.5.51-3.25,1.46-.52,1.27-1.42,1.36-2.49.3-3.37.26-6.85,1.13-10.08,1.39-5.17,4.94-8.85,9.92-11.76.07,1.23.15,2.11.16,3,0,2.49,0,5,.08,7.47,0,.53.57,1,.87,1.55.4-.53,1.13-1.05,1.15-1.58.1-3.57,0-7.15.06-10.72,0-3,1.47-4.64,4.52-4.76,3.56-.14,7.15-.16,10.71,0s5,1.77,5,5.36c0,3.24-.05,6.49.06,9.72,0,.66.67,1.3,1,1.94.36-.64,1-1.28,1-1.93.1-3.15.05-6.3.05-10a21.47,21.47,0,0,1,8.62,8.31c2.46,4.11,2.7,8.65,2.54,13.26,0,1.43.06,2.42,1.8,3,2,.63,1.26,1.93.14,3a23.78,23.78,0,0,1-14.68,6.67,4.12,4.12,0,0,0-1.23.07,9.24,9.24,0,0,0-1.47,1c.49.3,1,.91,1.47.85,2.86-.43,5.9-.54,8.49-1.65,3.14-1.35,5.88-3.63,8.86-5.41a8.65,8.65,0,0,1,2.45-.63c-.17.87-.06,1.94-.54,2.57a16.4,16.4,0,0,1-3.54,3.47,3.79,3.79,0,0,0-1.77,3.78c.08,1.24,0,2.49,0,3.74,0,3.37,0,3.37-3.82,3.81.38,7-1.37,13.27-7.59,17.43a21.61,21.61,0,0,1-14.76,3.36,19.17,19.17,0,0,1-13-6.64C223.35,184.52,222.52,179.69,222.89,174.45Zm-.58-3.49c3.71.61,3.78.61,3.69,4.39-.09,3.55.29,7,2.31,10,4,6.06,12.06,8.55,20,6.2,6.75-2,10.5-7.34,10.6-15.09.06-4.78.06-4.78,3.79-5.57v-4a99.5,99.5,0,0,1-40.38,0Z"/><path class="cls-4" d="M197.5,246.2v22.09h-3.67l-35.38,0c-1.15,0-2.15.07-2.14-1.59,0-6.48,0-13,0-19.44a4.73,4.73,0,0,1,.28-1Z"/><path class="cls-5" d="M264.08,270.81v21.62H223.4a11.19,11.19,0,0,1-.3-1.87c0-6,0-12,0-17.95,0-1.43.34-2.12,1.94-2.11,12.71.05,25.43,0,38.15.06A4.78,4.78,0,0,1,264.08,270.81Z"/><path class="cls-6" d="M156.48,316.88V295.13H197.3v21.75Z"/><path class="cls-7" d="M220.57,319.68v21.57h-41V319.68Z"/><path class="cls-8" d="M264.07,319.5v21.78h-41c0-7,0-13.77.09-20.57,0-.42,1.25-1.15,1.93-1.16,4.4-.11,8.81-.05,13.21-.05Z"/><path class="cls-9" d="M156.43,365.75V344h40.86v21.73Z"/><path class="cls-10" d="M328.3,246.26v21.87h-41V246.26Z"/><path class="cls-11" d="M287.41,295.05h40.83v21.84H287.41Z"/><path class="cls-12" d="M328.37,344v21.8h-41V344Z"/><path class="cls-13" d="M266.76,341.25V319.71c.82-.07,1.54-.17,2.26-.17,12.12,0,24.23,0,36.35-.05,1.88,0,2.64.41,2.6,2.46-.12,6.37-.05,12.74-.05,19.3Z"/><path class="cls-14" d="M284.59,295.23v21.66H243.86V295.23Z"/><path class="cls-15" d="M284.6,344v21.73H243.87V344Z"/><path class="cls-16" d="M220.54,292.44H179.45V279.2c0-2.16.07-4.33,0-6.48-.07-1.53.27-2.23,2-2.22,12.3.07,24.6,0,36.9.1.73,0,2.08.79,2.09,1.23C220.58,278.62,220.54,285.42,220.54,292.44Z"/><path class="cls-17" d="M307.9,292.45h-41c-.06-1.22-.16-2.35-.16-3.47,0-5.4.06-10.81,0-16.21,0-1.72.51-2.27,2.28-2.26,12.21.07,24.43,0,36.64.05,1,0,2.26-.27,2.26,1.46C307.89,278.74,307.9,285.46,307.9,292.45Z"/><path class="cls-18" d="M200,295.19H240.9v21.92H229.68c-9.05,0-18.1,0-27.15.06-2,0-2.57-.61-2.54-2.55C200.1,308.24,200,301.85,200,295.19Z"/><path class="cls-19" d="M241,344.11V366H229.67c-9,0-17.95-.08-26.92,0-2.27,0-2.8-.69-2.75-2.83.13-5.73,0-11.47,0-17.2,0-1.34.19-2.18,1.87-2.18,12.72.06,25.44,0,38.15.05A4.32,4.32,0,0,1,241,344.11Z"/><path class="cls-20" d="M308.92,201.89l14.8-17.63L356.84,212,342,229.69c-2-1.68-3.94-3.19-5.71-4.88a2.65,2.65,0,0,1-.41-2.16c1.28-5.28-.06-9.77-4.22-13.2s-8.72-3.66-13.57-1.62a2.37,2.37,0,0,1-1.95,0C313.75,206,311.45,204,308.92,201.89Z"/></svg>