<svg id="Layer_1" data-name="Layer 1" xmlns="http://www.w3.org/2000/svg" xmlns:xlink="http://www.w3.org/1999/xlink" viewBox="0 0 512 512"><defs><style>.cls-1{fill:url(#linear-gradient);}.cls-2{fill:url(#linear-gradient-2);}.cls-3{fill:url(#linear-gradient-3);}.cls-4{fill:url(#linear-gradient-4);}</style><linearGradient id="linear-gradient" x1="303.83" y1="285.83" x2="455.98" y2="437.98" gradientUnits="userSpaceOnUse"><stop offset="0" stop-color="#e8e8e8"/><stop offset="1" stop-color="#e8e8e8" stop-opacity="0"/></linearGradient><linearGradient id="linear-gradient-2" x1="125.26" y1="256.32" x2="387.89" y2="256.32" gradientUnits="userSpaceOnUse"><stop offset="0" stop-color="#bf5abf"/><stop offset="0" stop-color="#4f194f"/><stop offset="1" stop-color="#380036"/></linearGradient><linearGradient id="linear-gradient-3" x1="144.45" y1="252.26" x2="155.01" y2="252.26" xlink:href="#linear-gradient-2"/><linearGradient id="linear-gradient-4" x1="357.27" y1="246.29" x2="369.07" y2="246.29" xlink:href="#linear-gradient-2"/></defs><title>ICONS</title><polygon class="cls-1" points="130.17 267.5 361.85 515.04 515.04 515.04 515.04 325.85 345.77 173.43 319.72 188.75 325.08 200.23 302.87 202.53 273.77 191.81 250.02 191.04 224.75 201 215.55 214.02 191.81 204.06 194.87 197.94 168.06 183.38 126.7 259.21 130.17 267.5"/><path class="cls-2" d="M221.53,328.36c-10.11,1.92-14.67-.25-18.79-8.94-4.45,1.95-8.89,2.12-13.22-.41s-6.44-6.45-6.86-11.51c-5.79.58-10.65-1.15-13.87-6.08s-3-9.95-.08-15.11c-.41-.35-.82-.74-1.26-1.09-2.32-1.79-4.75-3.46-6.94-5.39-1.93-1.71-3.68-2.85-6.5-1.89-1.27.44-3.13-.11-4.47-.75-6.51-3.13-13-6.38-19.37-9.69-4.76-2.45-6.17-6.85-3.75-11.68q17.49-34.78,35-69.54c2.34-4.62,6.7-6.06,11.34-3.78q9.9,4.88,19.7,9.91a7.76,7.76,0,0,1,4,9.09,1.93,1.93,0,0,0,.95,2.52,42.87,42.87,0,0,0,14.05,6.16c1.45.34,2.23.17,3-1.35,3.63-7,9.54-11.61,16.49-14.94,12.26-5.89,25.2-7,38.52-5.29A95.46,95.46,0,0,1,292.4,195c7,2.81,14.19,5.22,21.92,5,1.78-.06,3.55-.46,5.61-.74-.8-1.68-1.41-3-2-4.24a7.64,7.64,0,0,1,3.52-10.45q10.32-5.13,20.73-10.05c4-1.9,8.3-.29,10.32,3.86q11.46,23.5,22.84,47.06l11.25,23.18c2.66,5.5,1.26,9.47-4.29,12.14-5.8,2.8-11.62,5.57-17.4,8.42-6.41,3.16-10,2-13.13-4.3-.2-.4-.43-.79-.72-1.33-6.38,3.67-11.22,8.49-13.23,15.69a3.14,3.14,0,0,0,.26,2.15c3.44,6.24,2.68,13-2.08,17.8s-11.48,5.5-17.61,2.07l-1-.56a15.86,15.86,0,0,1-8.24,11c-4.51,2.39-9,1.9-13.52-.77.36,5.33-2.64,8.89-6.17,11.89-3.81,3.21-8.38,3.56-13.22,1.9-1.29,4.53-4.42,7.21-8.49,8.92-4.36,1.82-8.78,1.57-13.18.13a48.25,48.25,0,0,1-5.13-1.86c-1.41-.63-2.15-.28-3,.95-3.89,5.48-10.22,7.51-16.16,5.33C226,336.58,223.35,333.61,221.53,328.36Zm29.88-2a79.48,79.48,0,0,0,8.7,2.3,9.75,9.75,0,0,0,8.85-3.15c2-2.12,1.69-4.26-.7-5.82-3.71-2.41-7.48-4.74-11.09-7.3a4.71,4.71,0,0,1-1.88-3.08c-.14-2.5,2.65-3.61,5-2.09q8.54,5.51,17,11.1a8.47,8.47,0,0,0,7.41,1.34,7.88,7.88,0,0,0,5.82-6.24,7.72,7.72,0,0,0-2.89-8.19c-4.08-3.13-8.29-6.09-12.39-9.19-.66-.5-1.48-1.43-1.42-2.1a4.68,4.68,0,0,1,1.39-2.91c1.18-1,2.54-.48,3.74.39q9.73,7,19.51,14a8.1,8.1,0,0,0,2.74,1.4c3.82.9,7.58-1.27,9.4-5.27,1.28-2.8.23-5.36-3.24-7.88l-.49-.31c-4.9-3.44-9.82-6.86-14.7-10.33-1.72-1.22-2.06-2.86-1-4.37s2.75-1.72,4.48-.64c.33.2.65.44,1,.66,8,5.57,16,11.16,24.09,16.66a10.54,10.54,0,0,0,4.26,1.72,8,8,0,0,0,8.63-5.26,8.53,8.53,0,0,0-3.69-10.17q-16.65-10.9-33.35-21.75Q276.76,247,256.92,234.2L245.7,227c-2.6,3.76-5.17,7.29-7.54,10.93-5.55,8.53-13.55,12.68-23.51,13.33-3.88.25-7.71,0-11.08-2.3a6.93,6.93,0,0,1-2.86-8.53,47.83,47.83,0,0,1,2.17-4.79c2.6-5.39,5.23-10.76,7.82-16.16.43-.9.69-1.89,1.08-3a46.58,46.58,0,0,1-18.5-7.88c-.4.74-.76,1.34-1.07,2Q184.92,225,177.64,239.5q-7.9,15.69-15.77,31.39c-.29.59-.38,1.82,0,2.11,3.4,2.82,6.91,5.5,10.6,8.38,3.18-4.91,6.76-9.1,13-9.31s10.62,2.83,13.49,8.38c4.23-4.25,9.12-5.95,14.84-4.07s8.59,6.19,9.49,12a13.8,13.8,0,0,1,12.12,3.37c3.4,3.08,4.63,7.08,4.45,11.55C252.13,303.15,259,315.89,251.41,326.34Zm71.11-121.89c-4.84,1.91-9.55,1.87-14.32,1.25-6.84-.87-13.29-3.09-19.64-5.66a79.63,79.63,0,0,0-28.67-6c-9.85-.17-19.34,1.45-28.06,6.27-6.72,3.71-12,8.7-13.73,16.6a20.3,20.3,0,0,1-1.56,4.41c-3,6.4-6.15,12.77-9.25,19.14-1.43,3-1.11,3.89,2.14,4.33,9.19,1.24,17-1.23,22.69-9,2.88-3.94,5.58-8,8.43-12a23.43,23.43,0,0,1,3-3.34,2.68,2.68,0,0,1,3.58-.15c4.87,3.24,9.73,6.51,14.62,9.71,5.72,3.74,11.44,7.48,17.22,11.12,4.74,3,9.54,2.85,14.05-.45a40.41,40.41,0,0,0,4.89-4.73c1.33-1.37,3-1.64,4.34-.57a3,3,0,0,1,.56,4.18,21.89,21.89,0,0,1-2,2.42,24.41,24.41,0,0,1-10.22,6.72l41.7,27c4.65-9.12,4.65-9.12,16.06-17.95ZM190.9,199.22a12,12,0,0,0-2.13-1.82c-5.84-3-11.72-5.93-17.58-8.89-2.91-1.47-3.32-1.37-4.8,1.56q-17.2,34.14-34.4,68.29c-1,2.06-.78,2.83,1.3,3.88q8.79,4.44,17.6,8.86c2.9,1.46,3.31,1.33,4.78-1.58l34.45-68.45C190.35,200.61,190.53,200.12,190.9,199.22ZM382.57,254l-.73-.89c-.27-.65-.52-1.31-.83-1.95q-16.8-34.68-33.62-69.36c-1-2.14-1.51-2.32-3.6-1.31q-9.32,4.49-18.62,9c-2.17,1.05-2.36,1.54-1.27,3.79q7,14.41,14,28.8,9.87,20.37,19.74,40.74c.66,1.36,1.28,2.45,3.08,1.57q9.9-4.83,19.85-9.6C381.18,254.43,381.88,254.22,382.57,254ZM188.88,307a8,8,0,0,0,4.94,7.13,7,7,0,0,0,8.21-2.31c4.6-6.14,9.1-12.34,13.62-18.54a6.82,6.82,0,0,0,1.27-5.72,7,7,0,0,0-5.55-5.64,7.08,7.08,0,0,0-7.64,3.11c-4.37,6-8.79,11.93-13.08,18A21.59,21.59,0,0,0,188.88,307Zm36.39-12.88c-.92.52-3.1,1.09-4.23,2.5-4,5-7.79,10.24-11.43,15.55-2.18,3.18-1.07,7.4,2.14,9.63a7.06,7.06,0,0,0,9.51-1.3c3.83-5,7.53-10.12,11.16-15.27a6.58,6.58,0,0,0,.17-7.39C231.25,295.46,229.06,294.35,225.27,294.16Zm9.25,38.95a6.6,6.6,0,0,0,5.61-2.66c2.55-3.36,5.09-6.75,7.45-10.24A7.19,7.19,0,0,0,236,311.72c-2.61,3.31-5.11,6.73-7.5,10.2a6.73,6.73,0,0,0-.24,7.57A6.91,6.91,0,0,0,234.52,333.11Zm-62.77-38.62a8,8,0,0,0,4.93,7.12,7.05,7.05,0,0,0,8.1-2.16q3.75-4.86,7.27-9.89a7.22,7.22,0,1,0-11.76-8.37c-2.31,3.06-4.63,6.12-6.79,9.28A22.62,22.62,0,0,0,171.75,294.49Z"/><path class="cls-3" d="M155,252.33a5.28,5.28,0,0,1-10.55-.19,5.28,5.28,0,0,1,10.55.19Z"/><path class="cls-4" d="M357.27,246.3a5.85,5.85,0,0,1,5.94-5.92,5.91,5.91,0,0,1,0,11.82A5.81,5.81,0,0,1,357.27,246.3Z"/></svg>