<svg id="Layer_1" data-name="Layer 1" xmlns="http://www.w3.org/2000/svg" xmlns:xlink="http://www.w3.org/1999/xlink" viewBox="0 0 512 512"><defs><style>.cls-1{fill:url(#linear-gradient);}.cls-2{fill:url(#linear-gradient-2);}</style><linearGradient id="linear-gradient" x1="311.17" y1="335.02" x2="419.17" y2="463.71" gradientUnits="userSpaceOnUse"><stop offset="0" stop-color="#e8e8e8"/><stop offset="1" stop-color="#e8e8e8" stop-opacity="0"/></linearGradient><linearGradient id="linear-gradient-2" x1="140.31" y1="256.05" x2="370.45" y2="256.05" gradientUnits="userSpaceOnUse"><stop offset="0" stop-color="#666"/><stop offset="1" stop-color="#474f54"/></linearGradient></defs><title>ICONS</title><polygon class="cls-1" points="205.09 383.72 324.57 512.75 512.49 512.75 512.15 399.38 290.53 179.81 281.34 182.53 242.19 143.04 199.64 156.32 188.4 155.64 189.43 146.79 173.43 128.75 149.25 145.09 148.91 155.3 159.52 174.34 184.66 190.7 189.69 209.87 192.83 213.51 205.09 221.34 218.36 255.72 199.64 261.85 204.75 304.06 201 315.3 202.02 327.89 215.64 334.36 215.3 337.08 236.4 365.34 222.45 362.96 216.66 354.79 205.09 383.72"/><path class="cls-2" d="M370,354.74c-1.08-1.78-3.56-2.23-5.69-.86a63,63,0,0,0-13.91,11.72c-2.74,3.2-5.33,6.53-8,9.81-4.91-13.29-8.21-18.62-8.21-18.62,2.51-1.48,4.92-2.88,7.32-4.31,2.19-1.3,2.95-2.89,1.83-5.17A83.57,83.57,0,0,0,337.06,336c-7.35-10.44-17.37-17.52-29.18-22.18a10.12,10.12,0,0,1-1.46-1l13.43-3.79c4.56-1.28,9.13-2.5,13.67-3.84a4.05,4.05,0,0,0,2.91-4.6c-.86-3.24-1.84-6.46-2.73-9.7-.82-3-1.59-6.07-2.38-9.08.47-.22.64-.33.82-.39,4.83-1.6,8.26-4.61,9.26-9.77.79-4.07-.36-7.9-2-11.58a10.64,10.64,0,0,0-11.19-6.68c-1.43.11-2.86.35-4.45.54a14,14,0,0,1-.68-1.63c-2-7.27-4.12-14.52-6-21.82-.85-3.29-3.72-4.31-6.53-3.24-1,.39-2.12.56-3.17.89-1.43.44-2.09-.05-2.46-1.52-1.4-5.51-2.89-11-4.39-16.49q-3.66-13.41-7.4-26.78c-.55-1.95-1.33-4-3.73-4.14a9.8,9.8,0,0,0-3.87.28l-8.21,2.51q-10.23,2.76-20.41,5.68c-1.65.47-2.52.47-3.06-1.58-2.33-9-4.87-17.86-7.34-26.79-1.38-4.95-2.75-9.91-4.16-14.86a4.14,4.14,0,0,0-5.24-3q-5.24,1.52-10.49,3-11.21,3.11-22.41,6.18c-3.38.94-6.77,1.85-10.16,2.78,1.49-2.3,2.07-4.51.36-6.63q-9.27-11.52-18.72-22.9c-1.86-2.25-4.23-2.32-6.52-.45-3.19,2.59-6.36,5.2-9.54,7.8-5.62,4.59-11.17,9.27-16.9,13.73-3.06,2.39-3.05,5.45-.76,7.94,1.24,1.36,2.35,2.84,3.52,4.27q7,8.6,14.05,17.17c2,2.45,4.4,2.82,6.65,1.11.6-.46,1.16-.95,1.74-1.43l9.43-7.65a5,5,0,0,1,.42.69c1.49,5.28,3,10.56,4.46,15.85,2.5,9,5,18,7.47,27,.84,3,2.39,4,5.5,3.41,1.82-.34,3.6-.87,5.39-1.34,1.22-.33,1.71.21,2,1.36,1,4,2.14,7.95,3.23,11.91q3.25,11.78,6.53,23.52c.47,1.71.87,3.43,1.34,5.27-4.55,1.29-8.92,2.73-13.38,3.75-6.79,1.56-7.83,2.87-5.65,10.21,3.18,10.72,6,21.54,9,32.3.38,1.33-.17,1.85-1.24,2.35a10.87,10.87,0,0,0-6.58,8.82,19.84,19.84,0,0,0,2.72,12.88c2.44,4.16,6.15,6.14,10.86,5.5,2.21-.31,2.62.65,3,2.23.06.27.08.55.13.82.75,3.76,3.05,5.06,6.71,4,8.18-2.33,16.39-4.57,24.59-6.82,2.09-.57,4.21-1,6.83-1.67-.33,2.55-.51,4.65-.91,6.7A23.34,23.34,0,0,1,245,345.65c-2,2.43-4.62,3.23-7.54,3.7a2.82,2.82,0,0,0-2.57,3.4,23.1,23.1,0,0,0,1.78,5.17c.91,2,2.06,3.91,3.1,5.86l-.3.51c-2.39-.51-4.83-.82-7.15-1.56-5.8-1.83-10.58-5.37-15-9.47-2.77-2.59-5.81-1.91-6.69,1.68-1.36,5.51-2.5,11.08-3.66,16.65-.76,3.63-1.5,7.27-2,10.94a3.13,3.13,0,0,0,2.77,3.68,3.47,3.47,0,0,0,4-2.39,12.39,12.39,0,0,0,.59-2c1.3-6.45,2.57-12.9,3.89-19.58.63.38,1,.59,1.41.85,7.7,5.46,16,9.08,25.71,7.92a2.45,2.45,0,0,1,1.77.94c1.55,2,3,4.1,4.43,6.17,1.57,2.23,2.87,2.72,5.47,1.71a44.09,44.09,0,0,0,5.38-2.55A48.8,48.8,0,0,0,284.34,347c.57-2,1.38-2.29,3.07-2.25,6.28.15,11.8,2.49,16.88,5.93,4,2.72,7.22,6.05,7.15,11.49a3.23,3.23,0,0,0,4,3,15.06,15.06,0,0,0,3.35-.95c3-1.2,5.89-2.5,9.06-3.86l3.7,7c1.13,2.4,2.62,6.65,2.62,6.65,1,4.32,2.12,8.65,3.13,13a3.43,3.43,0,0,0,3.22,3c1.81.13,3-.81,3.8-2.5,5.52-11.23,13.23-20.6,23.87-27.38C370.29,358.74,371.05,356.52,370,354.74Zm-37.76-89.46a10.46,10.46,0,0,1,.68,4.21,5.16,5.16,0,0,1-1.67,3.06c-1.31,1.16-2.29.74-2.77-.95-.85-2.94-1.61-5.91-2.44-9C330,261.35,331.07,261.8,332.21,265.28Zm-77.41-68.1,16.9-4.6,12.72-3.48a5.52,5.52,0,0,1,1.17,0q2.88,10.42,5.76,20.82,2.7,9.74,5.45,19.45c.36,1.28-.21,1.7-1.33,2-6.49,1.78-13,3.62-19.45,5.42q-8.44,2.33-16.9,4.61l-12.81,3.48c-2-7.16-3.89-14-5.8-20.9-1.8-6.49-3.6-13-5.46-19.45-.37-1.3,0-1.94,1.26-2.27C242.48,200.57,248.63,198.87,254.8,197.18ZM164,166.08c-4.24-5.2-8.36-10.23-12.41-15.33a1.72,1.72,0,0,1,0-1.68c6.58-5.48,13.22-10.9,20.07-16.51L185,148.88Zm39,35.91c-1.77.49-3.56.92-5.58,1.44-.71-2.29-1.44-4.41-2-6.56-2.25-8.19-4.46-16.39-6.69-24.58-.56-2-1.21-4.08-1.65-6.15a1.8,1.8,0,0,1,.78-1.57,62.64,62.64,0,0,1,6.48-1.92c.35-.09,1.12.44,1.27.84.71,1.92,1.34,3.88,1.87,5.86,2.85,10.5,5.66,21,8.51,31.66C204.85,201.35,203.9,201.72,202.92,202Zm1.57-40.63c-.37-1.3.07-1.87,1.34-2.21,5.9-1.58,11.78-3.22,17.66-4.86,3.44-1,6.89-1.9,10.3-2.95,1.63-.51,1.72.69,2,1.61,1.36,4.75,2.67,9.52,4,14.28,1.54,5.63,3.06,11.26,4.6,16.89.47,1.72,1.06,3.42,1.43,5.16.09.45-.33,1.4-.69,1.5-9.65,2.71-19.32,5.35-29,8-.13,0-.27.06-.77.17a8.19,8.19,0,0,1-.91-1.66c-1.69-6-3.34-12-5-18.06S206.16,167.31,204.49,161.36Zm7.11,51.48c-.85-3.19-1.07-3.14,1.93-3.81,3.4-.75,6.7-1.95,10.05-2.92a22.59,22.59,0,0,1,2.41-.41c1,3.69,2,7.24,3,10.79q2.76,9.8,5.54,19.57c.89,3.16,1.79,6.32,2.54,9.52a1.94,1.94,0,0,1-.91,1.64c-1.91.75-3.89,1.31-5.86,1.87s-3.78.79-5.56,1.47c-2,.78-2.82-.26-3.26-1.87-1.06-3.83-2-7.7-3.06-11.53C216.15,229.05,213.76,221,211.6,212.84Zm-3.2,108.53c-2.52.21-4-4.12-4.16-7.57-.27-3.09,2.68-4.49,6.91-4.8,3.28-.23,5,3.64,5,6.63C216.27,318.28,212,321.07,208.4,321.37Zm11.41,6.07a9,9,0,0,1,1.27-2.27C228.62,318.75,225,304,216,301a5.32,5.32,0,0,1-4.07-4.48c-1.35-5.59-3.05-11.1-4.62-16.64-1.05-3.69-2.07-7.38-3.18-11.05-.67-2.21-.4-2.75,1.89-3.34,1.72-.44,3.41-1,5.16-1.34a2,2,0,0,1,1.76.9c.78,2,1.35,4.16,1.94,6.27,2.87,10.29,5.77,20.58,8.59,30.9,2,7.46,4,15,6,22.55Zm20-5.1c-1.27.36-1.59-.26-1.85-1.23q-2.43-8.85-4.88-17.69-5-18.07-10-36.17a48,48,0,0,1-1.3-5,2,2,0,0,1,.94-1.72c8.85-2.54,17.72-5,26.6-7.43,11.46-3.15,22.94-6.25,34.4-9.41q12-3.32,24-6.73c2-.58,2.34.69,2.71,2.07q3.45,12.63,6.89,25.26c3.08,11.2,6.17,22.39,9.35,33.9-3.7,1.07-7.24,2.13-10.81,3.11-5.43,1.51-10.88,2.93-16.31,4.43q-15.7,4.31-31.4,8.67Q254,318.35,239.84,322.34Zm79.32,33.72c-2.64-3.29-4.59-6.53-7.29-8.95a37.62,37.62,0,0,0-22.45-9.77c-2.7-.22-2.84-.34-2.81-3.11a10.1,10.1,0,0,0-.26-3.26c-.61-1.86-2.38-2.63-4.55-2.29-1.67.27-2.79,1.85-3,3.93a105.53,105.53,0,0,1-1.66,11.81,39.49,39.49,0,0,1-16.32,23.95c-1.9,1.33-4,2.41-6.25,3.77-2.5-3.77-4.9-7.35-7.25-10.95a33.15,33.15,0,0,1-2.48-4.27,2.06,2.06,0,0,1,.51-1.91c5.58-3,8.6-8,10.63-13.67A34,34,0,0,0,258,328.19c-.06-1.28.46-1.79,1.66-2.11,8.95-2.41,18-4.42,26.75-7.49,6.22-2.2,11.52-.25,16.92,1.72a58,58,0,0,1,25.1,17.05c2.24,2.66,4,5.72,6,8.6a1.38,1.38,0,0,1-.53,2.24C328.87,350.89,323.84,353.57,319.16,356.06Z"/></svg>