<svg id="Layer_1" data-name="Layer 1" xmlns="http://www.w3.org/2000/svg" xmlns:xlink="http://www.w3.org/1999/xlink" viewBox="0 0 512 512"><defs><style>.cls-1{fill:url(#linear-gradient);}.cls-2{fill:url(#linear-gradient-2);}</style><linearGradient id="linear-gradient" x1="341.85" y1="338.52" x2="433.77" y2="455.71" gradientUnits="userSpaceOnUse"><stop offset="0" stop-color="#e8e8e8"/><stop offset="1" stop-color="#e8e8e8" stop-opacity="0"/></linearGradient><linearGradient id="linear-gradient-2" x1="118.82" y1="291.32" x2="407.81" y2="291.32" gradientUnits="userSpaceOnUse"><stop offset="0" stop-color="#ff838f"/><stop offset="1" stop-color="#ec7278"/></linearGradient></defs><title>ICONS</title><polygon class="cls-1" points="118.82 227.74 322.02 514.28 519.64 514.28 519.64 364.15 407.81 228.14 263.81 189.51 118.82 227.74"/><path class="cls-2" d="M194.37,252.47l-65.07-18c-1-.29-2.27-.27-3.08-.85-2.55-1.85-4.94-3.91-7.4-5.89,2.45-1.73,4.66-4.3,7.38-5.05q65.86-18.39,131.88-36.23a23.44,23.44,0,0,1,11.64.27Q335,204.36,400,222.56c2.88.81,5.19,3.67,7.77,5.58-2.59,1.89-4.92,4.43-7.81,5.55-6.67,2.59-16.24,2.55-19.69,7.22S379.11,254.79,379,262q-.13,12.06,0,24.13c.09,7.49-1.29,14.77,6.51,20.72,5.68,4.34,3.61,12.68-1.48,18.76-2,2.42-3.6,6.4-3.25,9.43,2.06,17.55,4.54,35.06,7.33,52.52,1.08,6.8-1,9.29-7.88,9.24-24.23-.18-20.56,1.57-17.82-20,1.78-14.08,4.19-28.09,5.77-42.2a12.61,12.61,0,0,0-3.06-8.7c-6.49-7.21-6.52-15.32.48-22,1.63-1.55,4-3.55,4-5.37.29-18.44.18-36.89.18-56.4L335,251.69c4.83,14.43,10.44,28.19,13.94,42.46,3.31,13.53,2.26,13.94-10.61,18.48-22.76,8-45.46,16.24-68.35,23.9a21.82,21.82,0,0,1-13,.17c-24.41-8.17-48.58-17.06-72.94-25.36-5.88-2-8-5.11-7.45-11.23C178.07,282.87,183.86,267.29,194.37,252.47Zm146.48,47.09c-1.88-16.54-7-30.18-16.64-41.8-1.14-1.36-4.78-1.56-6.93-1-15,3.88-29.88,8.52-45,12a41.09,41.09,0,0,1-17.83,0c-14.59-3.35-29.06-7.42-43.34-11.94-5.83-1.84-9.48-.57-11.61,4.54q-6.9,16.51-13.06,33.31c-1.95,5.27.4,8.05,5.86,9.89,22.07,7.44,43.94,15.44,66,23,2.59.89,5.93,1.33,8.41.49q35-11.94,69.69-24.53C338.38,302.84,339.82,300.52,340.85,299.56Zm1.3-59.29-.09-2L310.35,236c-15-1.08-30-2-44.9-3.41-2.28-.22-4.34-2.86-6.5-4.37a66.66,66.66,0,0,1,7.14-4.38c1.06-.5,2.63.08,4,.18,32.62,2.39,65.22,4.9,97.86,7.06,4.9.32,9.92-1,14.89-1.59-.86-2.28-1.49-2.79-2.2-3-37.71-10.38-75.41-20.79-113.18-31a18.69,18.69,0,0,0-9.3.25q-55.47,15-110.84,30.44c-1.25.35-2.35,1.26-4.69,2.56,40.13,11,78.84,21.71,117.57,32.3a10.92,10.92,0,0,0,5.46.25C291.16,254.39,316.65,247.31,342.15,240.27Zm36.56,146.79c-1.17-8.33-2.24-16-3.32-23.73l-2,.18c-1,7.73-2,15.45-3,23.55ZM374.25,322c2.39-3.28,4.74-5.12,4.81-7.05.07-1.57-2.85-4.74-4-4.54-2,.34-4.86,2.49-5.19,4.28S372.06,318.54,374.25,322Z"/></svg>