<svg id="Layer_1" data-name="Layer 1" xmlns="http://www.w3.org/2000/svg" xmlns:xlink="http://www.w3.org/1999/xlink" viewBox="0 0 512 512"><defs><style>.cls-1{fill:url(#linear-gradient);}.cls-2{fill:url(#linear-gradient-2);}.cls-3{fill:url(#linear-gradient-3);}.cls-4{fill:url(#linear-gradient-4);}.cls-5{fill:url(#linear-gradient-5);}.cls-6{fill:url(#linear-gradient-6);}</style><linearGradient id="linear-gradient" x1="332.64" y1="314.59" x2="446.76" y2="427.18" gradientUnits="userSpaceOnUse"><stop offset="0" stop-color="#e8e8e8"/><stop offset="1" stop-color="#e8e8e8" stop-opacity="0"/></linearGradient><linearGradient id="linear-gradient-2" x1="211.95" y1="330.95" x2="298.74" y2="330.95" gradientUnits="userSpaceOnUse"><stop offset="0" stop-color="#4995b7"/><stop offset="1" stop-color="#2e78a2"/></linearGradient><linearGradient id="linear-gradient-3" x1="211.94" y1="351.41" x2="298.72" y2="351.41" xlink:href="#linear-gradient-2"/><linearGradient id="linear-gradient-4" x1="221.26" y1="375.08" x2="289.49" y2="375.08" xlink:href="#linear-gradient-2"/><linearGradient id="linear-gradient-5" x1="194.88" y1="174.39" x2="259.69" y2="174.39" xlink:href="#linear-gradient-2"/><linearGradient id="linear-gradient-6" x1="174.96" y1="222.62" x2="335.81" y2="222.62" xlink:href="#linear-gradient-2"/></defs><title>ICONS</title><polygon class="cls-1" points="213.68 356.11 371.04 515.04 515.04 515.04 515.04 331.98 291.38 134.36 243.89 133.6 188.75 165 185.68 182.62 183.38 222.45 201 265.34 214.79 283.72 208.66 310.53 217.85 326.62 213.42 335.34 220.91 348.06 213.68 356.11"/><path class="cls-2" d="M255.37,323.52q17.88,0,35.75,0a7.41,7.41,0,0,1,7.58,8.23,7.2,7.2,0,0,1-6.13,6.47,14.56,14.56,0,0,1-2.19.14h-70c-2.78,0-5.24-.64-7-3a7.22,7.22,0,0,1-.66-7.68,6.89,6.89,0,0,1,6.35-4.1C231.19,323.47,243.28,323.52,255.37,323.52Z"/><path class="cls-3" d="M255.45,343.93c11.81,0,23.62,0,35.42,0,5.83,0,9.34,5.09,7.24,10.45a6.75,6.75,0,0,1-5.13,4.19,15.54,15.54,0,0,1-3.2.27q-34.39,0-68.81,0c-2.79,0-5.41-.46-7.29-2.79a7.17,7.17,0,0,1-.89-8.09,7.36,7.36,0,0,1,7.07-4.08Q237.65,343.91,255.45,343.93Z"/><path class="cls-4" d="M255.55,364.62h29.83c1.44,0,3.17-.26,3.87,1.36.78,1.79-.5,3.15-1.69,4.24-4.66,4.27-9.33,8.55-14.16,12.62A9.63,9.63,0,0,1,269,384.4a81.28,81.28,0,0,1-27.13,0,13,13,0,0,1-7.23-3.88c-3.63-3.49-7.48-6.76-11.23-10.11a3.77,3.77,0,0,1-.53-.42c-.9-1.2-2.17-2.4-1.4-4.05s2.32-1.34,3.72-1.34Z"/><path class="cls-5" d="M201,200.44c-4.74,0-7.38-4.27-5.44-9.15,4.89-12.26,12-22.86,22.69-30.92A58.16,58.16,0,0,1,245.79,149c2.51-.35,5.06-.35,7.59-.63a6,6,0,0,1,6.31,5.85,6.11,6.11,0,0,1-6.08,6.32,48.46,48.46,0,0,0-16.2,3.05,47.4,47.4,0,0,0-19.71,13.83,58.24,58.24,0,0,0-11.18,19.41A5.74,5.74,0,0,1,201,200.44Z"/><path class="cls-6" d="M329.78,177.16a80.52,80.52,0,0,0-48.69-45.78,85.17,85.17,0,0,0-19.16-4c-2-.21-4.56-.27-4.56-.27a80.67,80.67,0,0,0-24.24,3.2,78.14,78.14,0,0,0-23.35,11,80.54,80.54,0,0,0-33.94,54.57,81.06,81.06,0,0,0,3.46,37.9,84.16,84.16,0,0,0,11.32,21.74c4.53,6.48,9.18,12.88,12.55,20.09a43.56,43.56,0,0,1,4.43,14.78c.47,5.62.68,11.27,1,16.91.24,4.58,3.5,9,8,10a47,47,0,0,0,9.57.81c17,.05,34,0,51-.05,4.63,0,9.27.1,13.89-.06a11.68,11.68,0,0,0,11.23-12c0-5.24.55-10.49.87-15.73A55.19,55.19,0,0,1,307,277.13a93.17,93.17,0,0,1,10.19-17.39c6.35-8.85,12.06-18,15.16-28.57a82.6,82.6,0,0,0,3.39-18.94A79.84,79.84,0,0,0,329.78,177.16Zm-6.38,36.33a67.23,67.23,0,0,1-12.46,33.8c-4.84,6.83-9.66,13.67-13.4,21.19A63.66,63.66,0,0,0,290.8,290c-.29,2.95-.57,5.47-.57,5.47V306H223.91c-.62,0-1.24,0-1.86,0-1,.06-1.33-.39-1.38-1.4-.24-5.25-.22-10.54-1-15.72a70.94,70.94,0,0,0-3.47-13.34c-3.65-10.28-9.93-19.09-16.19-27.88a68.57,68.57,0,0,1-11.64-26.7A69,69,0,0,1,209.55,157a67.8,67.8,0,0,1,61.23-15.85q27.36,6.6,42.44,30.24A66.4,66.4,0,0,1,323.4,213.49Z"/></svg>