<svg id="Layer_1" data-name="Layer 1" xmlns="http://www.w3.org/2000/svg" xmlns:xlink="http://www.w3.org/1999/xlink" viewBox="0 0 512 512"><defs><style>.cls-1,.cls-2{fill-rule:evenodd;}.cls-1{fill:url(#linear-gradient);}.cls-2{fill:url(#linear-gradient-2);}</style><linearGradient id="linear-gradient" x1="315" y1="328.21" x2="413.11" y2="444.4" gradientUnits="userSpaceOnUse"><stop offset="0" stop-color="#e8e8e8"/><stop offset="1" stop-color="#e8e8e8" stop-opacity="0"/></linearGradient><linearGradient id="linear-gradient-2" x1="260.19" y1="381.77" x2="260.19" y2="180.02" gradientUnits="userSpaceOnUse"><stop offset="0" stop-color="#671b3c"/><stop offset="1" stop-color="#75234a"/></linearGradient></defs><title>ICONS</title><polygon class="cls-1" points="146.36 363.53 270.45 514.53 513.51 514.53 513.51 324.21 339.89 159.28 267.98 170.19 263.81 185.32 256.15 171.53 187.72 159.79 176.49 199.11 188.75 242.51 191.81 277.75 190.28 307.36 176.49 348.21 183.13 359.45 146.36 363.53"/><path class="cls-2" d="M313.59,361.2l19-4L316.9,281.13c-21.82-2.24-43.19-31.32-51.79-72.92a144.15,144.15,0,0,1-3.3-30.19,7.69,7.69,0,0,1,6.17-7.83l65-13.87a7.57,7.57,0,0,1,8.6,4.7,148.74,148.74,0,0,1,9,29.07c8.6,41.38.66,76.94-18.51,87.68l15.65,76.05,18.95-4a7.69,7.69,0,0,1,9.25,6,7.92,7.92,0,0,1-5.95,9.4l-53.1,11.4a7.79,7.79,0,0,1-9.26-6,7.93,7.93,0,0,1,5.95-9.4Zm-106.65,0-18.95-4,15.64-76.05c21.82-2.24,43.19-31.32,51.79-72.92a181,181,0,0,0,3.3-30.19,7.91,7.91,0,0,0-6.17-7.83l-65-13.87A7.58,7.58,0,0,0,179,161a135.19,135.19,0,0,0-9,29.07c-8.59,41.38-.66,76.94,18.51,87.68l-15.65,76.05-19.17-4a7.8,7.8,0,0,0-9.25,6,8.25,8.25,0,0,0,6.17,9.4l53.1,11.4a7.79,7.79,0,0,0,9.26-6,7.92,7.92,0,0,0-5.95-9.4Z"/></svg>