<svg id="Layer_1" data-name="Layer 1" xmlns="http://www.w3.org/2000/svg" xmlns:xlink="http://www.w3.org/1999/xlink" viewBox="0 0 512 512"><defs><style>.cls-1{fill:url(#linear-gradient);}.cls-2{fill:url(#linear-gradient-2);}.cls-3{fill:url(#linear-gradient-3);}</style><linearGradient id="linear-gradient" x1="338.43" y1="356.15" x2="431.87" y2="458.79" gradientUnits="userSpaceOnUse"><stop offset="0" stop-color="#e8e8e8"/><stop offset="1" stop-color="#e8e8e8" stop-opacity="0"/></linearGradient><linearGradient id="linear-gradient-2" x1="144.07" y1="249.43" x2="368.57" y2="249.43" gradientUnits="userSpaceOnUse"><stop offset="0" stop-color="#2a9e2a"/><stop offset="1" stop-color="green"/></linearGradient><linearGradient id="linear-gradient-3" x1="242.99" y1="347.17" x2="269.65" y2="347.17" xlink:href="#linear-gradient-2"/></defs><title>ICONS</title><polygon class="cls-1" points="162.7 351.89 300.57 516.57 514.28 516.57 514.28 347.3 282.19 127.47 240.83 199.47 162.7 351.89"/><path class="cls-2" d="M299.52,205.46a53.09,53.09,0,1,0-87,0c-70.93,26.18-84.65,99.33-50.93,145.17A89.91,89.91,0,0,0,184,372c14.58,9.8,38,5.55,36.84-18.84V340.51c0-12.06-5.31-16.6-13.33-16.6h-1.63c-5.54,0-8.13-7.66-4-11.76l43.43-37c6.5-6.39,15.09-6.58,21.78,0l43.44,37c4.16,4.1,1.56,11.76-4,11.76H305c-8,0-13.32,4.54-13.32,16.6,0,21.42-.11,12.26.35,16.24,2.77,24,26,21.91,36.8,15.29,9.18-5.6,16.42-13.27,22.4-21.41,33.72-45.84,19.24-119-51.69-145.17"/><rect class="cls-3" x="242.99" y="333.83" width="26.66" height="26.67" rx="4.6"/></svg>