<svg id="Layer_1" data-name="Layer 1" xmlns="http://www.w3.org/2000/svg" xmlns:xlink="http://www.w3.org/1999/xlink" viewBox="0 0 512 512"><defs><style>.cls-1,.cls-2{fill-rule:evenodd;}.cls-1{fill:url(#linear-gradient);}.cls-2{fill:url(#linear-gradient-2);}</style><linearGradient id="linear-gradient" x1="270.18" y1="245.75" x2="427.97" y2="483.2" gradientUnits="userSpaceOnUse"><stop offset="0" stop-color="#e8e8e8"/><stop offset="1" stop-color="#e8e8e8" stop-opacity="0"/></linearGradient><linearGradient id="linear-gradient-2" x1="153.77" y1="256.77" x2="366.35" y2="256.77" gradientUnits="userSpaceOnUse"><stop offset="0" stop-color="#67d230"/><stop offset="1" stop-color="#67c630"/></linearGradient></defs><title>ICONS</title><polygon class="cls-1" points="339.38 154.28 511.98 398.87 511.47 512.23 307.21 512.23 173.94 295.21 158.62 230.87 171.38 179.3 202.02 143.04 248.49 128.75 286.28 130.28 321 148.66 339.38 154.28"/><path class="cls-2" d="M260.06,155.11a5.68,5.68,0,1,0,0-11.36,82.85,82.85,0,0,0-81.81,69.72c-.26,1.65-.47,3.29-.63,4.95a5.68,5.68,0,1,0,11.3,1.15,71.93,71.93,0,0,1,3.87-17.21c6.14,4.22,14.19,4.52,19.19,4.7a7.05,7.05,0,0,1-1.39,1.67,26.72,26.72,0,0,0-7.24,10.36,22,22,0,0,0-.67,12.93c1.33,5.62,5.22,9,10,13.21a59.75,59.75,0,0,1,9.62,10c2.92,4.06,3.77,8.68,4.53,12.83,1.09,6,2.07,11.34,7.26,15.62a15.85,15.85,0,0,0,11,3.55,17.51,17.51,0,0,0,6.51-1.67c.17-.07.34-.14.51-.23a18.65,18.65,0,0,0,5.91-4.79c3.16-3.83,5.15-9.25,4.78-16.07A66.58,66.58,0,0,1,264,250.32c.9-5.3,2.13-10.68,3.31-15.48l.06-.22c1.32-5.39,3-12.24,1.68-17.9-1.73-7.58-7.06-12.32-20-9.13a35.72,35.72,0,0,0-8.28,3.57c-2.25,1.2-4.41,2.35-5.34,2.3s4.11-6.63,6.21-9.4a5.82,5.82,0,0,0,.4-.45,45.81,45.81,0,0,0,8.67-19.21,22.65,22.65,0,0,0-2.41-15.77,57.82,57.82,0,0,0-8.13-10.72,72.33,72.33,0,0,1,19.88-2.8Zm-91.18,97.94a108.89,108.89,0,0,1-3.35-25.44V227c0-.8,0,1,0-.43a94.53,94.53,0,0,1,189,0c0,1,0-.35,0,.4v.59a107.82,107.82,0,0,1-4,27.73,95,95,0,0,1-181.68-2.26Zm16-101.62A106.32,106.32,0,0,1,361.27,259.15c-13.93,49.28-56.58,91.86-92.88,128.11l-4.33,4.32a5.66,5.66,0,0,1-8,0l-4.51-4.5c-38.5-38.44-80.77-80.65-93.51-130.57a106.39,106.39,0,0,1,26.86-105.08Zm134,163.66a106.32,106.32,0,0,1-118.14-.26c17.21,22.73,38.53,44,58.76,64.22l.51.51.33-.34c19.57-19.53,41.05-41,58.54-64.13Zm23.69-95.23a5.64,5.64,0,0,1,.15,2.12c.09,1.53.13,3.06.13,4.61a83.5,83.5,0,0,1-3.56,24.12,5.68,5.68,0,1,1-10.87-3.3,72,72,0,0,0,3.07-20.82c0-1.21,0-2.4-.09-3.59a14.47,14.47,0,0,0-3.7-3.29,23.31,23.31,0,0,0-7.74-3,32.93,32.93,0,0,0-8.31-.72,16.12,16.12,0,0,0-9.05,2.92,12.47,12.47,0,0,0-4.46,7.64,25.35,25.35,0,0,0-.4,6.41,99.69,99.69,0,0,0,1.76,12.15c2.59,13.87,5.47,29.35-5,44.13.76-.42,1.5-.85,2.23-1.29a5.69,5.69,0,0,1,5.85,9.75h0a82.81,82.81,0,0,1-109.1-21.79,5.68,5.68,0,0,1,9.14-6.75,72,72,0,0,0,20,18.35,71.16,71.16,0,0,0,37.43,10.57,73.93,73.93,0,0,0,8.06-.46,5.78,5.78,0,0,1,1.48-1.29c25.14-15.22,21.75-33.46,18.82-49.18a105.42,105.42,0,0,1-1.95-13.61,36.46,36.46,0,0,1,.63-9.25,23.59,23.59,0,0,1,8.67-14.39,27.24,27.24,0,0,1,15.36-5.23,43.88,43.88,0,0,1,11.15,1,38,38,0,0,1,6.72,2c-.56-2-1.2-4-1.95-6a71.74,71.74,0,0,0-2.92-6.72c-6.32,2-11.66,0-16.82-1.93a24.3,24.3,0,0,0-6.11-1.76c-7.05-.46-13.85.47-19.16,1.2-6.62.9-11.48,1.57-14.87-.85-4.8-3.45-4.37-8.86,2.9-19a44.85,44.85,0,0,1,9.51-9.7,48.2,48.2,0,0,1,5.85-3.76,5.68,5.68,0,0,1,6.47-9,82.86,82.86,0,0,1,50.72,69.77ZM298,166l-.07,0a39.53,39.53,0,0,0-11.54,5.87,33.7,33.7,0,0,0-7.07,7.26c-2.88,4-1.33,2.36,1.23,2,5.82-.79,13.26-1.81,21.39-1.29a31.83,31.83,0,0,1,9.39,2.48,26.25,26.25,0,0,0,6.28,1.8A71.49,71.49,0,0,0,298,166ZM197.71,191.6a72,72,0,0,1,31.11-29.32l.1.11c4.49,4.88,7.7,8.46,9.4,11.61a12.11,12.11,0,0,1,1.21,8.49,33.24,33.24,0,0,1-6.26,14,5.28,5.28,0,0,0-.68,1.06c-1.64,2.93-14.21,26.44,2.32,27.26,4,.2,7.52-1.68,11.19-3.64a27.94,27.94,0,0,1,5.67-2.55c4.38-1.08,6-.54,6.21.62.7,3.09-.59,8.46-1.63,12.7l-.05.23c-1.25,5.11-2.56,10.81-3.49,16.32a77.34,77.34,0,0,0-1.31,16.61c.2,3.7-.72,6.45-2.2,8.25a7.37,7.37,0,0,1-2.32,1.87l-.31.16a6.24,6.24,0,0,1-2.18.54,4.68,4.68,0,0,1-3.24-1c-2-1.64-2.6-5-3.31-8.86-1-5.36-2.06-11.33-6.47-17.45a68.44,68.44,0,0,0-11.36-11.88c-3.24-2.84-5.89-5.16-6.38-7.26A11,11,0,0,1,214,223a15.69,15.69,0,0,1,4.27-5.92,16.83,16.83,0,0,0,4.71-7,12.55,12.55,0,0,0,.53-6.09,10.36,10.36,0,0,0-2.52-5.3,8.46,8.46,0,0,0-3.54-2.3,18.31,18.31,0,0,0-5.07-.59C208.11,195.59,200.57,195.31,197.71,191.6Z"/></svg>