<svg id="Layer_1" data-name="Layer 1" xmlns="http://www.w3.org/2000/svg" xmlns:xlink="http://www.w3.org/1999/xlink" viewBox="0 0 512 512"><defs><style>.cls-1{fill:url(#linear-gradient);}.cls-2{fill:url(#linear-gradient-2);}.cls-3{fill:url(#linear-gradient-3);}</style><linearGradient id="linear-gradient" x1="285.22" y1="269.19" x2="433.41" y2="466.07" gradientUnits="userSpaceOnUse"><stop offset="0" stop-color="#e8e8e8"/><stop offset="1" stop-color="#e8e8e8" stop-opacity="0"/></linearGradient><linearGradient id="linear-gradient-2" x1="132.91" y1="259.97" x2="387.46" y2="259.97" gradientUnits="userSpaceOnUse"><stop offset="0" stop-color="#e00707"/><stop offset="1" stop-color="red"/></linearGradient><linearGradient id="linear-gradient-3" x1="265.44" y1="305.44" x2="370.05" y2="305.44" xlink:href="#linear-gradient-2"/></defs><title>ICONS</title><polygon class="cls-1" points="152.16 269.65 295.83 499.7 498.19 499.7 498.19 380.86 375.53 172.77 317.3 147.47 260.98 160.84 209.44 147.47 154.07 167.52 137.37 209.99 147.87 252.47 152.16 269.65"/><path class="cls-2" d="M387.46,213.18c-.89,5.2-1.54,10.46-2.74,15.59-2.78,11.92-7.6,23.07-13.37,33.83-1.1,2-2.18,4.09-3.33,6.1-2.24,3.87-6.31,5.15-10,3.17s-4.66-6.12-2.74-10.1c4.05-8.41,8.41-16.7,12-25.32A72.87,72.87,0,0,0,373,206.9c-.29-13.32-5.18-24.68-14.95-33.77-14.78-13.78-32.34-20.09-52.48-18.51a64.22,64.22,0,0,0-37.06,15.24c-7.72,6.5-8.93,6.46-16.6,0a64.81,64.81,0,0,0-43.24-15.5c-19.48.16-35.94,7.55-49.22,21.72-9.3,9.91-12.79,21.94-11.89,35.41,1.2,17.82,8.13,33.68,16.82,48.85,16.1,28.14,37.1,52.41,60.39,74.75,9.74,9.34,19.85,18.31,30.12,27.05,5,4.24,5,4.11,10.46.17,3.56-2.55,6.74-5.63,10.18-8.34,4.39-3.47,10.27-1.62,11.71,3.59.7,2.53.25,5-1.7,6.63-5.62,4.6-11.25,9.24-17.28,13.28-5.34,3.58-11.32,3.22-16.66-.25a112.71,112.71,0,0,1-13.89-10.37c-21.07-18.75-41.27-38.37-59-60.39-13.18-16.36-25.14-33.52-34.07-52.63-7.28-15.59-12.48-31.75-11.65-49.27.82-17.05,7.67-31.3,20.26-42.81,11.25-10.3,24.27-17.29,39.24-20.2,23.25-4.53,44.72-.06,64.17,13.65,4.41,3.11,2.64,3.1,7,0,18.17-12.83,38.28-17.7,60.24-14.35a79.32,79.32,0,0,1,50.3,28.42c7.41,8.86,11.42,19.28,12.78,30.74.11.89.33,1.76.49,2.64Z"/><path class="cls-3" d="M295.94,283.69c0-7.59,0-14.79,0-22,0-5.79,2.72-8.56,8.5-8.58q13.29-.06,26.6,0c5.72,0,8.47,2.83,8.5,8.63,0,6.3,0,12.6,0,18.89v3.05h2.87c6.46,0,12.93,0,19.39,0,5.38,0,8.18,2.77,8.2,8.07q.06,13.68,0,27.35c0,5.2-2.78,8-8,8.06-6.47.06-12.93,0-19.39,0h-2.95c-.06,1.07-.15,1.95-.15,2.82,0,6.3,0,12.59,0,18.89,0,6.1-2.74,8.85-8.78,8.87q-13,0-26.1,0c-6.05,0-8.72-2.74-8.72-8.87,0-7.11,0-14.23,0-21.71h-2.81c-6.54,0-13.09,0-19.63,0-5.24,0-8-2.74-8-8q-.09-13.8,0-27.6c0-5.2,2.79-7.89,8-7.92,6.47,0,12.93,0,19.39,0Zm14.46-15.92v2.82c0,6.54,0,13.08,0,19.63,0,4.94-2.94,7.85-7.89,7.92-4.31.05-8.62,0-12.92,0h-9.5v14.44c.93,0,1.74.11,2.54.11h18.14c7.25,0,9.64,2.41,9.64,9.7v20.65H325v-2.91c0-6.3,0-12.59,0-18.88,0-5.79,2.8-8.53,8.55-8.55,6.3,0,12.59,0,18.89,0h2.92V298.15c-7.36,0-14.55,0-21.75,0-5.8,0-8.57-2.72-8.61-8.48-.05-6.37,0-12.75,0-19.13v-2.77Z"/></svg>