<svg id="Layer_1" data-name="Layer 1" xmlns="http://www.w3.org/2000/svg" xmlns:xlink="http://www.w3.org/1999/xlink" viewBox="0 0 512 512"><defs><style>.cls-1{fill:url(#linear-gradient);}.cls-2{fill:url(#linear-gradient-2);}.cls-3{fill:url(#linear-gradient-3);}.cls-4{fill:url(#linear-gradient-4);}.cls-5{fill:url(#linear-gradient-5);}</style><linearGradient id="linear-gradient" x1="289.81" y1="333.85" x2="387.86" y2="482.45" gradientUnits="userSpaceOnUse"><stop offset="0" stop-color="#e8e8e8"/><stop offset="1" stop-color="#e8e8e8" stop-opacity="0"/></linearGradient><linearGradient id="linear-gradient-2" x1="127.81" y1="380.57" x2="393" y2="380.57" gradientUnits="userSpaceOnUse"><stop offset="0" stop-color="#c8e233"/><stop offset="1" stop-color="#aad300"/></linearGradient><linearGradient id="linear-gradient-3" x1="272.89" y1="165.1" x2="355.24" y2="165.1" xlink:href="#linear-gradient-2"/><linearGradient id="linear-gradient-4" x1="272.71" y1="177.55" x2="330.27" y2="177.55" xlink:href="#linear-gradient-2"/><linearGradient id="linear-gradient-5" x1="135.07" y1="244.45" x2="385.05" y2="244.45" xlink:href="#linear-gradient-2"/></defs><title>ICONS</title><polygon class="cls-1" points="511.98 378.19 511.47 511.47 217.34 512.49 131.55 386.36 159.13 378.7 141.25 359.81 161.17 346.53 160.66 258.7 138.19 228.06 260.75 133.09 277.64 138.09 282.57 142.02 286.92 136.53 288.7 134.49 294.19 134.49 300.57 137.3 305.55 135.77 306.7 131.04 309.51 127.47 315.77 125.3 321.38 125.43 331.38 136.57 333.64 135.13 337.6 134.11 342.45 136.91 343.72 139.85 346.19 139.21 511.98 378.19"/><path class="cls-2" d="M386.92,374.49h-253a6.08,6.08,0,0,0,0,12.15h253a6.08,6.08,0,1,0,0-12.15Z"/><path class="cls-3" d="M355.2,161.78a4.82,4.82,0,0,0-4-5c-.65-.17-1.3-.32-2-.47a27.1,27.1,0,0,1-2.76-.72,2.86,2.86,0,0,1-1.33-1.08c-2.15-3.48-2-6.31.46-8.9a4.06,4.06,0,0,0,.68-1.11,5.14,5.14,0,0,0-.88-6.21l-.67-.68c-1.29-1.31-2.61-2.66-4-4a5.07,5.07,0,0,0-6.6-.68c-.5.3-1,.62-1.5.94a17.87,17.87,0,0,1-2.46,1.44,3.77,3.77,0,0,1-2.1.07c-3.5-.68-5.28-2.82-5.45-6.54a2.64,2.64,0,0,0-.23-.94l-.09-.24a4.75,4.75,0,0,0-4.82-3.73c-2.21,0-4.54,0-6.94,0a4.78,4.78,0,0,0-4.84,3.74c-.19.7-.36,1.41-.52,2.12a27.7,27.7,0,0,1-.72,2.79,2.55,2.55,0,0,1-.93,1.3c-4.59,2.13-4.59,2.13-9-.46l-.24-.15c-.27-.16-.55-.33-.83-.47a5,5,0,0,0-6.23.77c-1.76,1.66-3.32,3.23-4.79,4.78a5,5,0,0,0-.74,6.25l.21.4a9.7,9.7,0,0,0,1.12,1.79c1.59,1.87,1.75,3.58.58,6.07a4.63,4.63,0,0,1-3.59,3.1c-6.86,1.51-7.19,1.93-7.19,9l1,0h-1v2.38c0,3.91,1.17,5.39,5,6.32l.51.13a11.31,11.31,0,0,0,1.52.33c2.32.32,3.28,1.09,3.66,3a2.55,2.55,0,0,0,1.48,2.11c1.22.45,2.47-.54,2.87-.86.62-.49,1.21-1,1.81-1.51.79-.67,1.6-1.37,2.43-2a3.54,3.54,0,0,0,1.4-4.25A21.2,21.2,0,0,1,317,144.11c11.12,1.44,19.65,12.25,18.26,23.13a22.76,22.76,0,0,1-8.86,15.36A18.83,18.83,0,0,1,312,186.15c-5-.87-8.14.47-10.73,4.62a2.51,2.51,0,0,1-.33.4l-.21.24a2.8,2.8,0,0,0-.76,2.74,2.3,2.3,0,0,0,1.94,1.43c2.31.4,2.93,1.82,3.26,4.29a12.2,12.2,0,0,0,.49,2l.14.46a4.88,4.88,0,0,0,5.06,3.93l3.25,0c1.12,0,2.22,0,3.31,0a4.82,4.82,0,0,0,5-4c.18-.64.33-1.29.47-1.95a27.79,27.79,0,0,1,.73-2.76,2.84,2.84,0,0,1,1.07-1.33c3.49-2.15,6.32-2,8.9.45a3.36,3.36,0,0,0,.76.51l.13.07a5.23,5.23,0,0,0,6.57-.9c1.57-1.52,3-2.94,4.35-4.36a5.08,5.08,0,0,0,.82-6.74c-.31-.55-.65-1.08-1-1.61a19.46,19.46,0,0,1-1.38-2.38,3.19,3.19,0,0,1-.09-1.87c.86-3.74,3-5.59,6.62-5.65a2.41,2.41,0,0,0,.86-.21l.17-.06a4.85,4.85,0,0,0,3.83-4.93C355.25,166.33,355.25,164.06,355.2,161.78Zm-76.64,7.33c-.8-.15-1.07-.39-1.11-1.62-.09-3.05-.15-4.74.44-5.52s2.25-1.23,5.25-2a5.3,5.3,0,0,0,4.07-3.64l.1-.3a3.07,3.07,0,0,1,.35-.9c3.18-4.67,1-8.66-.86-11.25-.42-.58-1.14-1.56-1.1-1.87a6,6,0,0,1,1.42-1.66l.1-.1c1.85-1.85,2.87-2.87,3.69-3s1.94.57,4.27,2,4.57,1.09,6.71.5c5-1.35,7.66-4.63,8.14-10,.09-.9.36-1.3,1.64-1.26s2.74,0,4.08,0h1.12c.9,0,1.09.29,1.17.9a1.45,1.45,0,0,0,.09.36c.24,5.49,3.3,8.95,9.1,10.28a8.57,8.57,0,0,0,4.66-.34,16.11,16.11,0,0,0,3.66-2.08l.78-.54c.73-.48,1-.38,1.51.12,1.2,1.27,2.49,2.56,3.94,3.95.64.61.62.92.23,1.47s-.78,1.24-1.13,1.85l-.43.76-.32.53c-.27.45-.55.91-.8,1.39-.9,1.71-.68,4.47.58,7.38s3.09,4.9,4.93,5.41c1.35.37,3,.83,4.68,1.14,1,.18,1.13.53,1.12,1.26,0,1.54,0,3.07,0,4.61v.94c0,1-.34,1.14-.86,1.19l-.16,0c-5.48.36-8.89,3.23-10.41,8.77a6.5,6.5,0,0,0,.48,5.67c.37.56.71,1.13,1.06,1.71s.88,1.45,1.35,2.15.42.91-.21,1.5c-1.41,1.33-2.77,2.73-3.94,3.94-.65.67-.92.53-1.29.25a1,1,0,0,0-.28-.15c-4.1-3.63-8.73-4-13.76-1-1.48.87-3,1.89-3.45,4-.14.61-.3,1.22-.45,1.83-.24.91-.48,1.85-.66,2.79s-.5,1.07-1.13,1.07h0l-1.72,0a26.15,26.15,0,0,1-3.88-.1,2.19,2.19,0,0,1-1.19-1.07A20,20,0,0,1,309,196.2c-.16-1-.55-3.31-2.82-4.07.78-1.53,1.67-1.69,3.42-1.4a26,26,0,0,0,19.58-4.5,25.76,25.76,0,0,0,10.5-16.89,26.15,26.15,0,0,0-21.52-29.82,25.86,25.86,0,0,0-29.44,30.63c.31,1.44-.26,1.83-1.39,2.61l-.19.13c-.83-2.08-2.93-2.47-4.55-2.78-.62-.12-1.23-.29-1.87-.47A21.09,21.09,0,0,0,278.56,169.11Z"/><path class="cls-4" d="M309.57,180.66a17.41,17.41,0,0,0,3,.61c.41,0,.82.11,1.22.18l.09,0h.09a16.55,16.55,0,0,0,13.78-7.67,15.9,15.9,0,0,0,1.17-15.1,3.93,3.93,0,0,0-2.19-2.08c-.74-.21-1.52.26-2.57,1.57-.67.83-1.32,1.68-2,2.53-.89,1.17-1.81,2.38-2.76,3.5a3.54,3.54,0,0,1-2.54,1.34,3.17,3.17,0,0,1-2.37-1,3,3,0,0,1-.89-2.29,3.55,3.55,0,0,1,1.34-2.5c1-.83,2-1.63,3.06-2.41s1.79-1.37,2.67-2.09c2.15-1.78,1.84-2.63,1.72-3a4.39,4.39,0,0,0-2.51-2.24,15.49,15.49,0,0,0-16.32,2.68,15.2,15.2,0,0,0-5.3,15.86,2.84,2.84,0,0,1-1.17,3.49c-4.41,3.51-8.56,7-13.52,11.26-2.75,2.35-5.59,4.78-8.27,7.43s-3.33,6.28-1.7,10.07a8.68,8.68,0,0,0,8.38,5.45h.19a9.66,9.66,0,0,0,7.56-3.84l3.53-4.14c4.71-5.54,9.59-11.26,14.35-16.92C308.34,180.52,308.73,180.38,309.57,180.66Zm-27.1,20.63a4.25,4.25,0,0,1-3.38-7.31c2.41-2.27,5.05-4.62,8.06-7.19l1.65-1.41c3.73-3.19,7.6-6.49,11.52-9.56,2.84-2.24,3.71-4.78,2.81-8.24a10.76,10.76,0,0,1,2.32-9.84,11.26,11.26,0,0,1,8.55-4h.34c-.88.7-1.69,1.34-2.47,2a8.63,8.63,0,0,0-3.2,6.25,8.17,8.17,0,0,0,8.39,8.44,8.76,8.76,0,0,0,6.36-3.28c.61-.73,1.22-1.47,1.83-2.23.3,4-2.52,8.63-6.72,10.41a10.82,10.82,0,0,1-7.61.52c-2.81-.85-5.14-.09-7.13,2.3-4.59,5.53-9.34,11.09-13.93,16.47l-3.55,4.16C285,200.34,284,201.22,282.47,201.29Z"/><path class="cls-5" d="M382.19,215.82l-31.75-23.6a6.85,6.85,0,0,1-1.68,2.66c-1.51,1.57-3.08,3.15-4.82,4.83a5.83,5.83,0,0,1-4.76,1.8l17.68,13.14-193.77,2.13,96-74.79,17.45,13c1.9-.44,2.89-1.31,3.86-3.39,1.29-2.76,1.11-4.65-.65-6.73a10.69,10.69,0,0,1-1.24-2l-.24-.45a5.88,5.88,0,0,1-.66-4.32L263.25,127.4a7.07,7.07,0,0,0-8.58.09l-116.87,91a7.1,7.1,0,0,0,4.36,12.69h.08l14.87-.17V350.75H146a6.08,6.08,0,1,0,0,12.15H374.77a6.08,6.08,0,1,0,0-12.15H362.15V229.53a5.94,5.94,0,0,0-.08-.75l16-.18a7.09,7.09,0,0,0,4.15-12.78ZM184.52,350.75H169.26V241.59h15.26Zm27.4,0H196.67V235.34h15.25Zm28.45,0H224.08V241.59h16.29Zm26.37,0H252.52V235.34h14.22Zm28.44,0H278.89V241.59h16.29Zm26.89,0H307.33V235.34h14.74Zm27.92,0H334.22V241.59H350Z"/></svg>