<svg id="Layer_1" data-name="Layer 1" xmlns="http://www.w3.org/2000/svg" xmlns:xlink="http://www.w3.org/1999/xlink" viewBox="0 0 512 512"><defs><style>.cls-1{fill:url(#linear-gradient);}.cls-2{fill:url(#linear-gradient-2);}.cls-3{fill:url(#linear-gradient-3);}.cls-4{fill:url(#linear-gradient-4);}</style><linearGradient id="linear-gradient" x1="316.38" y1="325.67" x2="420.55" y2="473.5" gradientUnits="userSpaceOnUse"><stop offset="0" stop-color="#e8e8e8"/><stop offset="1" stop-color="#e8e8e8" stop-opacity="0"/></linearGradient><linearGradient id="linear-gradient-2" x1="151.97" y1="325.16" x2="367.89" y2="325.16" gradientUnits="userSpaceOnUse"><stop offset="0" stop-color="#ffd066"/><stop offset="1" stop-color="#f7c133"/></linearGradient><linearGradient id="linear-gradient-3" x1="212.02" y1="257.02" x2="307.06" y2="257.02" xlink:href="#linear-gradient-2"/><linearGradient id="linear-gradient-4" x1="151.13" y1="189.04" x2="367.18" y2="189.04" xlink:href="#linear-gradient-2"/></defs><title>ICONS</title><path class="cls-1" d="M512,369.51,363.68,187.66l-4.89,17.94-27.58-23.49s-47-24.51-48.51-24.51S235.21,155,235.21,155L199,174.45l-25.53,18.89L156.8,233.65,254,357.55l-24.43-4.89-37.2-46.82-20,4.44L152,326.11,293.94,513l218.17-.38Z"/><path class="cls-2" d="M180.39,313.62a96.58,96.58,0,0,0,40.1,32.45,97.42,97.42,0,0,0,22.66,6.74,93,93,0,0,0,20.24,1.37,121.48,121.48,0,0,0,16.2-2.09,86.35,86.35,0,0,0,20.17-6.61,97.47,97.47,0,0,0,44.16-40.06,93.38,93.38,0,0,0,8.55-19.71,8.12,8.12,0,0,1,8.74-5.43c3.78.53,7,3.8,6.66,7.51a33.92,33.92,0,0,1-2.12,8.26,108.77,108.77,0,0,1-12.38,24.19,113.88,113.88,0,0,1-43.92,38.25,116.28,116.28,0,0,1-25.4,8.92,109.79,109.79,0,0,1-31.49,2.46,138.88,138.88,0,0,1-17.06-2.49,104.73,104.73,0,0,1-29.86-11,111.85,111.85,0,0,1-23.52-16.86A109.49,109.49,0,0,1,167,322.12c-.55-.79-.92-1.07-1.91-.52-3.12,1.71-6.31,3.31-9.49,4.9-2.06,1-3.77,0-3.57-2.29.42-4.78,1-9.55,1.5-14.33.56-5,1.15-10,1.71-15.06.21-1.8.35-3.62.55-5.43.31-2.83,1.82-3.7,4.3-2.38,8.36,4.45,16.71,8.95,25.06,13.43,1.9,1,3.87,1.94,5.68,3.11a3.93,3.93,0,0,1,1.61,2.29c.2,1-.58,1.79-1.59,2.3C187.36,309.9,184,311.74,180.39,313.62Z"/><path class="cls-3" d="M306.07,227.59a46,46,0,0,0-12.52-23.43,47.51,47.51,0,0,0-81.43,30.14c-.58,9.42,1.52,18.36,4.81,27.07a141,141,0,0,0,13.75,26.52,246.76,246.76,0,0,0,23.41,30.55c1.75,2,3.57,3.89,5.3,5.77a2,2,0,0,0,.48-.22c.26-.24.5-.49.74-.75,14.3-15.33,27-31.81,36.53-50.57a91.94,91.94,0,0,0,9-25.21A51.49,51.49,0,0,0,306.07,227.59ZM259.6,260.53a23.1,23.1,0,1,1,23.1-23.1A23.1,23.1,0,0,1,259.6,260.53Z"/><path class="cls-4" d="M363.68,187.66c-3.52,1.72-7,3.57-10.66,5.48-2.51-3.83-9.43-11.74-9.43-11.74-.95-1.16-2-2.26-3-3.33a113,113,0,0,0-57.22-31.41,115.94,115.94,0,0,0-20-2.53,112,112,0,0,0-27.85,2.57,113.2,113.2,0,0,0-23.13,7.7,111.35,111.35,0,0,0-22.1,13.38,112.93,112.93,0,0,0-26.48,29.12,115.85,115.85,0,0,0-12.25,26.43,7.94,7.94,0,1,0,15.1,4.88c.86-2.68,1.82-5.33,2.89-7.93a93,93,0,0,1,18.21-28.68c17.2-18.3,38.25-28.92,63.39-31.24a98.26,98.26,0,0,1,26,1.16,93.51,93.51,0,0,1,21.2,6.43,94.89,94.89,0,0,1,30.57,21c3.49,3.61,6.65,7.54,10.1,11.48-3.76,2-7.09,3.84-10.49,5.54a2.68,2.68,0,0,0-1.82,2.33,2.58,2.58,0,0,0,1.68,2.42c10.27,5.48,20.51,11,30.76,16.54,2.34,1.26,4,.31,4.22-2.34.31-3.53.68-7.05,1.07-10.56.9-8.09,1.85-16.17,2.73-24.25C367.41,187.8,365.76,186.64,363.68,187.66Z"/></svg>