<svg id="Layer_1" data-name="Layer 1" xmlns="http://www.w3.org/2000/svg" xmlns:xlink="http://www.w3.org/1999/xlink" viewBox="0 0 512 512"><defs><style>.cls-1{fill:url(#linear-gradient);}.cls-2{fill:url(#linear-gradient-2);}.cls-3{fill:url(#linear-gradient-3);}</style><linearGradient id="linear-gradient" x1="306.9" y1="305.02" x2="445.54" y2="475.06" gradientUnits="userSpaceOnUse"><stop offset="0" stop-color="#e8e8e8"/><stop offset="1" stop-color="#e8e8e8" stop-opacity="0"/></linearGradient><linearGradient id="linear-gradient-2" x1="255.38" y1="171.38" x2="255.38" y2="340.41" gradientUnits="userSpaceOnUse"><stop offset="0" stop-color="#62717f"/><stop offset="1" stop-color="#4f5b69"/></linearGradient><linearGradient id="linear-gradient-3" x1="274.95" y1="171.38" x2="274.95" y2="340.41" xlink:href="#linear-gradient-2"/></defs><title>ICONS</title><polygon class="cls-1" points="142.37 313.71 302.87 513.51 513.51 513.51 513.51 345 350.1 182.84 290.62 191.04 220.91 190.28 207.89 205.6 199.8 261.86 214.79 285.25 142.37 313.71"/><path class="cls-2" d="M368.4,300a25.37,25.37,0,0,1-3.9,8.77,67.94,67.94,0,0,1-4.54,5.5q-14.23,16.11-28.49,32.22a3.27,3.27,0,0,1-2.76,1.21c-20.53,0-41.06-.12-61.6,0a74.1,74.1,0,0,1-19.78-2.61c-6.57-1.73-13.17-3.41-19.85-4.55-17-2.89-32.68.65-46.75,10.79l-1.17.81-37.19-38.48c.3-.21.56-.41.83-.58,21.69-13,43.31-26.05,65.08-38.89,6.33-3.73,13.45-4.88,20.8-4.33,8.23.63,15.64,3.78,22.72,7.73A26.09,26.09,0,0,0,265.41,281c16-.21,32-.09,48-.07,6.5,0,12.15,7.4,10.5,13.7a8.78,8.78,0,0,1-2.8,4.54,14.59,14.59,0,0,1-9.78,3.93c-13.54-.1-27.07,0-40.61,0h-1.36a9.13,9.13,0,0,0,8,8.93c.72.07,1.45.08,2.18.08q20.65,0,41.3,0a2.77,2.77,0,0,0,2.13-.84c6.28-6.27,12.61-12.51,18.9-18.77,1-1,1.84-2.07,2.84-3,3.45-3.29,7.25-3.17,10.47.35a2.43,2.43,0,0,0,1.88.82,30.26,30.26,0,0,1,4.45.57c3.41.73,6,2.44,7,6.05Z"/><path class="cls-3" d="M350.1,276.59H336.52V196.25H300v40H249.83V196.21H213.39v63.7l-13.59,1.95v-79H350.1Z"/></svg>