<svg id="Layer_1" data-name="Layer 1" xmlns="http://www.w3.org/2000/svg" xmlns:xlink="http://www.w3.org/1999/xlink" viewBox="0 0 512 512"><defs><style>.cls-1{fill:url(#linear-gradient);}.cls-2{fill:url(#linear-gradient-2);}.cls-3{fill:url(#linear-gradient-3);}</style><linearGradient id="linear-gradient" x1="304" y1="303.27" x2="453.4" y2="452.67" gradientUnits="userSpaceOnUse"><stop offset="0" stop-color="#e8e8e8"/><stop offset="1" stop-color="#e8e8e8" stop-opacity="0"/></linearGradient><linearGradient id="linear-gradient-2" x1="162.9" y1="286.8" x2="363.73" y2="286.8" gradientUnits="userSpaceOnUse"><stop offset="0" stop-color="#8c8923"/><stop offset="1" stop-color="#808013"/></linearGradient><linearGradient id="linear-gradient-3" x1="234.71" y1="187.9" x2="290.96" y2="187.9" xlink:href="#linear-gradient-2"/></defs><title>ICONS</title><polygon class="cls-1" points="163.12 302.08 191.04 335.81 184.42 341.52 358.79 515.04 515.04 515.04 515.04 356.49 272.23 161.17 253.09 213.25 264.57 224.75 227.81 260.75 195.64 289.08 163.12 302.08"/><path class="cls-2" d="M328.9,299.82c-14.28-5.71-25.83-14.56-32.92-28.7l-.62.42c-.45,2.44-.92,4.88-1.35,7.32-1.34,7.49-2.65,15-4,22.46a1.79,1.79,0,0,0,1.23,2.21l15.36,7c8.73,4,17.52,7.89,25,14,3.43,2.8,6.4,6,7.47,10.48,1.2,5-1.48,10.69-6.22,13.59a28.78,28.78,0,0,1-13.43,3.91,101.14,101.14,0,0,1-22.33-.77c-8.61-1.39-17.23-2.72-25.85-4.05-2.8-.43-5.61-.77-8.42-1.17-.48-.07-.95-.22-1.66-.38a15.86,15.86,0,0,1,5.71-4.59c4.92-2.65,10.32-3.91,15.61-5.49,4.66-1.4,9.24-3,13.86-4.54.07,0,.11-.14.29-.39a9.29,9.29,0,0,0-1.53-.07c-5.78.76-11.59,1.32-17.32,2.38-9.63,1.76-18.66,5.5-27.79,8.9-6,2.24-12.09,4.38-18.28,6a78.6,78.6,0,0,1-30.11,2.32,61.93,61.93,0,0,1-10.36-2.17,9.5,9.5,0,0,1-6.83-7.09,15.63,15.63,0,0,1,.21-6.58c.25-.78.32-1.5.49-2.26,1.11-5,4.81-8.12,8.59-11a77.3,77.3,0,0,1,19.65-10.41c6.66-2.54,13.28-5.19,19.93-7.73,1-.39,1-1.05.88-1.86-.51-4.2-1-8.39-1.52-12.59-.64-5.42-1.26-10.83-1.9-16.24a3.5,3.5,0,0,0-.61-1.76c-1,1.29-1.93,2.58-2.88,3.88-2.5,3.44-4.81,7-7.54,10.28-3.41,4.08-8,6.83-12.63,9.21-6.1,3.11-12.3,6.06-18.62,8.67a54.61,54.61,0,0,1-18,4.47,7.29,7.29,0,0,1-7.35-5.52,7.21,7.21,0,0,1,4.42-8.54c5.29-2.11,10.67-4,16-6.06,8.27-3.27,16.42-6.9,22.11-14.05a114.72,114.72,0,0,0,8.54-13.15c5.1-8.6,9.84-17.4,15.08-25.9A25.67,25.67,0,0,1,244,222.7,43.21,43.21,0,0,1,254,221c6.06-.3,12.14-.3,18.21-.14A27.68,27.68,0,0,1,285,223.9c5.21,2.86,9.09,7.11,12.43,11.9,4.78,6.87,8.27,14.46,12.11,21.86,3.36,6.47,6.42,13.25,12.09,18.07a50.17,50.17,0,0,0,10.62,6.65c8.69,4.24,17.57,8.09,26.34,12.18,2.84,1.33,4.79,3.44,5.09,6.8A5.76,5.76,0,0,1,358,308a46.06,46.06,0,0,1-10.53-1.1,70.76,70.76,0,0,1-10.69-3.43l-.19-.07Z"/><circle class="cls-3" cx="262.84" cy="187.9" r="28.12"/></svg>