<svg id="Layer_1" data-name="Layer 1" xmlns="http://www.w3.org/2000/svg" xmlns:xlink="http://www.w3.org/1999/xlink" viewBox="0 0 512 512"><defs><style>.cls-1{fill:url(#linear-gradient);}.cls-2{fill:url(#linear-gradient-2);}.cls-3{fill:url(#linear-gradient-3);}.cls-4{fill:url(#linear-gradient-4);}</style><linearGradient id="linear-gradient" x1="311.89" y1="325.25" x2="446.7" y2="441.67" gradientUnits="userSpaceOnUse"><stop offset="0" stop-color="#e8e8e8"/><stop offset="1" stop-color="#e8e8e8" stop-opacity="0"/></linearGradient><linearGradient id="linear-gradient-2" x1="259.51" y1="131.3" x2="259.51" y2="407.31" gradientUnits="userSpaceOnUse"><stop offset="0" stop-color="#f45c58"/><stop offset="1" stop-color="#e93f33"/></linearGradient><linearGradient id="linear-gradient-3" x1="258.55" y1="131.3" x2="258.55" y2="407.31" xlink:href="#linear-gradient-2"/><linearGradient id="linear-gradient-4" x1="259.53" y1="131.3" x2="259.53" y2="407.31" xlink:href="#linear-gradient-2"/></defs><title>ICONS</title><polygon class="cls-1" points="185.61 349.11 345 514.28 517.34 514.28 517.34 343.47 307.07 160.64 273 174.19 236.23 177.25 222.45 175.72 233.78 201.21 246.96 223.21 212.49 243.89 185.61 349.11"/><path class="cls-2" d="M258.82,212.73c9.05,0,18.1,0,27.15,0a2.12,2.12,0,0,1,1.49.57,229.13,229.13,0,0,0,28.78,29c8.66,7.44,16.48,15.68,22.1,25.79a72.71,72.71,0,0,1,9.1,31.5c.73,12.63-.8,25-5.79,36.72-6.83,16.09-18.46,27.59-33.9,35.41a97.41,97.41,0,0,1-33.65,9.92,121.6,121.6,0,0,1-33.44-.54c-22.34-3.76-41.28-13.58-55-32a69.76,69.76,0,0,1-14-37.33c-1.3-17.85,3.45-34.13,12.92-49.14,5.41-8.58,12.38-15.81,20-22.44a197.88,197.88,0,0,0,25.56-26.77,2.24,2.24,0,0,1,1.56-.67C240.72,212.72,249.77,212.73,258.82,212.73Zm27.58,86.5c-.06-1.68-.1-4.86-.34-8a50.39,50.39,0,0,0-3-14.55c-2.91-7.49-7.91-12.75-16-14.53a34.11,34.11,0,0,0-15.82.2,20.49,20.49,0,0,0-12.86,9.33,32.29,32.29,0,0,0-4.07,10.1c-1.78,7.88-1.87,15.87-1.5,23.88a56.16,56.16,0,0,0,2.46,14.89c1.87,5.78,4.88,10.73,10.29,13.9a23.65,23.65,0,0,0,9.71,3,33.94,33.94,0,0,0,14.06-1.16c7.7-2.51,12-8.18,14.38-15.62C285.8,314.17,286.27,307.48,286.4,299.23Z"/><path class="cls-3" d="M258.71,201.19c-8.31,0-16.62,0-24.93,0a1.77,1.77,0,0,1-1.75-1c-3.05-4.83-6.14-9.62-9.25-14.41s-7.42-8.43-11.92-11.85a11.89,11.89,0,0,1-4.33-6.18c-1.18-3.93,1.9-8,6-7.44a63.41,63.41,0,0,1,9.46,2.33,10,10,0,0,0,7.05-.28,15.45,15.45,0,0,0,2.94-1.82c2.08-1.55,4-3.32,6.18-4.73,4.25-2.78,10.36-1.74,14,1.87a38.44,38.44,0,0,0,6.06,4.48,2,2,0,0,0,1.77-.21c1.22-.88,2.27-2,3.47-2.91,1.87-1.44,3.76-2.87,5.73-4.15a6.64,6.64,0,0,1,5.07-.73c3.47.7,6.74,1.82,9.25,4.52.55.59,1.21,1.09,1.81,1.64,3.39,3,7.21,3.29,11.32,1.81,1.74-.63,3.47-1.33,5.24-1.9a7.53,7.53,0,0,1,5.24.37c3.17,1.29,4.5,4.36,3.37,7.78a9.64,9.64,0,0,1-3.94,5.49c-6.64,3.9-10.85,10-15,16.16-2.19,3.25-4.15,6.65-6.17,10a2,2,0,0,1-2,1.13C275.1,201.17,266.9,201.19,258.71,201.19Z"/><path class="cls-4" d="M268.9,297.72c-.18,7.59-.16,13.39-1.69,19a15.2,15.2,0,0,1-1.7,4.05,7,7,0,0,1-12,.06A18.66,18.66,0,0,1,251,312.6a101.85,101.85,0,0,1,.2-27.41,24.51,24.51,0,0,1,2-6.4,6.57,6.57,0,0,1,6.39-3.9,6.93,6.93,0,0,1,6.4,3.93,19.8,19.8,0,0,1,2.14,7.8C268.51,290.91,268.73,295.21,268.9,297.72Z"/></svg>